M48
;DRILL file {KiCad (5.0.1)-3} date 22/11/2018 18:04:54
;FORMAT={-:-/ absolute / inch / decimal}
FMAT,2
INCH,TZ
T1C0.0130
T2C0.0315
T3C0.0394
T4C0.1260
%
G90
G05
M72
T1
X2.7604Y-3.049
X2.7604Y-3.1527
X2.7606Y-3.443
X2.7609Y-3.2508
X2.7614Y-3.3513
X3.6894Y-2.75
X3.7168Y-2.6488
X3.7194Y-2.2502
X3.7199Y-2.1503
X3.7209Y-2.0502
X3.7215Y-1.95
X3.7218Y-1.8502
X3.7222Y-1.7505
X3.7226Y-1.6503
X3.7231Y-1.5962
X3.7232Y-1.552
X3.7276Y-1.6952
X3.744Y-1.7819
X3.7534Y-1.8769
X3.7708Y-1.9631
X3.772Y-2.0486
X3.772Y-2.1452
X3.772Y-2.3977
X3.8325Y-2.8504
X3.8609Y-2.6226
X3.8616Y-2.5491
X3.8622Y-2.7811
X3.8854Y-2.7269
X3.9227Y-1.5392
X3.9408Y-2.82
X3.9719Y-3.0516
X3.972Y-2.9495
X3.9725Y-3.2505
X3.9979Y-2.3993
X3.998Y-2.0494
X3.998Y-2.1452
X3.9988Y-2.7833
X4.0005Y-2.622
X4.0385Y-3.0517
X4.4776Y-1.9001
X4.5186Y-3.379
X4.5193Y-1.65
X4.5458Y-1.5599
X4.5529Y-3.3787
X4.5562Y-2.0563
X4.563Y-1.8999
X4.5872Y-3.3798
X4.6201Y-3.3346
X4.6218Y-3.3797
X4.6321Y-1.5599
X4.6765Y-1.6045
X4.6832Y-2.8247
X4.6834Y-2.6693
X4.6834Y-3.0188
X4.6836Y-3.1246
X4.6845Y-3.167
X4.6845Y-3.269
T2
X3.5963Y-1.55
X3.5963Y-1.65
X3.5963Y-1.75
X3.5963Y-1.85
X3.5963Y-1.95
X3.5963Y-2.05
X3.5963Y-2.15
X3.5963Y-2.25
X3.5963Y-2.35
X3.5963Y-2.45
X3.5963Y-2.55
X3.5963Y-2.65
X3.5963Y-2.75
X3.5963Y-2.85
X3.5963Y-2.95
X3.5963Y-3.05
X3.5963Y-3.15
X3.5963Y-3.25
X3.5963Y-3.35
X3.5963Y-3.45
X4.1963Y-1.55
X4.1963Y-1.65
X4.1963Y-1.75
X4.1963Y-1.85
X4.1963Y-1.95
X4.1963Y-2.05
X4.1963Y-2.15
X4.1963Y-2.25
X4.1963Y-2.35
X4.1963Y-2.45
X4.1963Y-2.55
X4.1963Y-2.65
X4.1963Y-2.75
X4.1963Y-2.85
X4.1963Y-2.95
X4.1963Y-3.05
X4.1963Y-3.15
X4.1963Y-3.25
X4.1963Y-3.35
X4.1963Y-3.45
X3.05Y-2.8
X3.35Y-2.8
X3.05Y-2.95
X3.35Y-2.95
X3.8Y-3.5747
X3.9969Y-3.5747
X4.5Y-3.47
X4.6969Y-3.47
X3.05Y-1.6264
X3.05Y-2.2264
X3.35Y-1.6264
X3.35Y-2.2264
X3.1Y-2.405
X3.2969Y-2.405
X3.05Y-3.4
X3.35Y-3.4
X4.45Y-2.45
X4.45Y-2.55
X4.45Y-2.65
X4.45Y-2.75
X4.45Y-2.85
X4.45Y-2.95
X4.45Y-3.05
X4.45Y-3.15
X4.45Y-3.25
X4.45Y-3.35
X4.75Y-2.45
X4.75Y-2.55
X4.75Y-2.65
X4.75Y-2.75
X4.75Y-2.85
X4.75Y-2.95
X4.75Y-3.05
X4.75Y-3.15
X4.75Y-3.25
X4.75Y-3.35
X3.05Y-3.1
X3.35Y-3.1
X4.45Y-1.55
X4.45Y-1.65
X4.45Y-1.75
X4.45Y-1.85
X4.45Y-1.95
X4.45Y-2.05
X4.45Y-2.15
X4.75Y-1.55
X4.75Y-1.65
X4.75Y-1.75
X4.75Y-1.85
X4.75Y-1.95
X4.75Y-2.05
X4.75Y-2.15
X3.05Y-3.25
X3.35Y-3.25
X4.5Y-2.27
X4.6969Y-2.27
T3
X2.9698Y-3.6212
X3.0698Y-3.6212
X3.1698Y-3.6212
X3.2698Y-3.6212
X3.3698Y-3.6212
X3.4698Y-3.6212
X3.5698Y-3.6212
X3.6698Y-3.6212
X2.6196Y-3.
X2.6196Y-3.1
X2.6196Y-3.2
X2.6196Y-3.3
X2.6196Y-3.4
X2.7196Y-3.
X2.7196Y-3.1
X2.7196Y-3.2
X2.7196Y-3.3
X2.7196Y-3.4
X2.6194Y-2.1451
X2.6194Y-2.2451
X2.6194Y-2.3451
X2.6194Y-2.4451
X2.6194Y-2.5451
X2.6194Y-2.6451
X2.6194Y-2.7451
X2.6194Y-2.8451
X2.7194Y-2.1451
X2.7194Y-2.2451
X2.7194Y-2.3451
X2.7194Y-2.4451
X2.7194Y-2.5451
X2.7194Y-2.6451
X2.7194Y-2.7451
X2.7194Y-2.8451
X4.1297Y-3.6214
X4.2297Y-3.6214
X4.3297Y-3.6214
X4.4297Y-3.6214
X4.5297Y-3.6214
X4.6297Y-3.6214
X4.7297Y-3.6214
X4.8297Y-3.6214
X2.6215Y-1.2916
X2.6215Y-1.3916
X2.6215Y-1.4916
X2.6215Y-1.5916
X2.6215Y-1.6916
X2.6215Y-1.7916
X2.6215Y-1.8916
X2.6215Y-1.9916
X2.7215Y-1.2916
X2.7215Y-1.3916
X2.7215Y-1.4916
X2.7215Y-1.5916
X2.7215Y-1.6916
X2.7215Y-1.7916
X2.7215Y-1.8916
X2.7215Y-1.9916
X2.9503Y-1.2181
X2.9503Y-1.3181
X3.0503Y-1.2181
X3.0503Y-1.3181
X3.1503Y-1.2181
X3.1503Y-1.3181
X3.2503Y-1.2181
X3.2503Y-1.3181
X3.3503Y-1.2181
X3.3503Y-1.3181
X3.4503Y-1.2181
X3.4503Y-1.3181
X3.5503Y-1.2181
X3.5503Y-1.3181
X3.6503Y-1.2181
X3.6503Y-1.3181
X3.7503Y-1.2181
X3.7503Y-1.3181
X3.8503Y-1.2181
X3.8503Y-1.3181
X3.9503Y-1.2181
X3.9503Y-1.3181
X4.0503Y-1.2181
X4.0503Y-1.3181
X4.1503Y-1.2181
X4.1503Y-1.3181
X4.2503Y-1.2181
X4.2503Y-1.3181
X4.3503Y-1.2181
X4.3503Y-1.3181
X4.4503Y-1.2181
X4.4503Y-1.3181
X4.5503Y-1.2181
X4.5503Y-1.3181
X4.6503Y-1.2181
X4.6503Y-1.3181
X4.7503Y-1.2181
X4.7503Y-1.3181
X4.8503Y-1.2181
X4.8503Y-1.3181
T4
X2.6Y-3.7
X5.2Y-1.1
X2.6Y-1.1
X5.2Y-3.7
T0
M30
