%TF.GenerationSoftware,KiCad,Pcbnew,(5.0.0)*%
%TF.CreationDate,2018-10-23T17:21:25+02:00*%
%TF.ProjectId,S80 Breakout 7in,53383020427265616B6F75742037696E,1.0*%
%TF.SameCoordinates,Original*%
%TF.FileFunction,Soldermask,Bot*%
%TF.FilePolarity,Negative*%
%FSLAX46Y46*%
G04 Gerber Fmt 4.6, Leading zero omitted, Abs format (unit mm)*
G04 Created by KiCad (PCBNEW (5.0.0)) date 10/23/18 17:21:25*
%MOMM*%
%LPD*%
G01*
G04 APERTURE LIST*
%ADD10O,1.801600X1.801600*%
%ADD11R,1.801600X1.801600*%
%ADD12C,1.601600*%
%ADD13C,3.301600*%
G04 APERTURE END LIST*
D10*
X174015400Y-74168000D03*
X174015400Y-76708000D03*
X171475400Y-74168000D03*
X171475400Y-76708000D03*
X168935400Y-74168000D03*
X168935400Y-76708000D03*
X166395400Y-74168000D03*
X166395400Y-76708000D03*
X163855400Y-74168000D03*
X163855400Y-76708000D03*
X161315400Y-74168000D03*
X161315400Y-76708000D03*
X158775400Y-74168000D03*
X158775400Y-76708000D03*
X156235400Y-74168000D03*
X156235400Y-76708000D03*
X153695400Y-74168000D03*
X153695400Y-76708000D03*
X151155400Y-74168000D03*
X151155400Y-76708000D03*
X148615400Y-74168000D03*
X148615400Y-76708000D03*
X146075400Y-74168000D03*
X146075400Y-76708000D03*
X143535400Y-74168000D03*
X143535400Y-76708000D03*
X140995400Y-74168000D03*
X140995400Y-76708000D03*
X138455400Y-74168000D03*
X138455400Y-76708000D03*
X135915400Y-74168000D03*
X135915400Y-76708000D03*
X133375400Y-74168000D03*
X133375400Y-76708000D03*
X130835400Y-74168000D03*
X130835400Y-76708000D03*
X128295400Y-74168000D03*
X128295400Y-76708000D03*
X125755400Y-74168000D03*
D11*
X125755400Y-76708000D03*
D12*
X232410000Y-129540000D03*
X229870000Y-129540000D03*
X232410000Y-127000000D03*
X229870000Y-127000000D03*
X232410000Y-124460000D03*
X229870000Y-124460000D03*
X232410000Y-121920000D03*
X229870000Y-121920000D03*
X232410000Y-119380000D03*
X229870000Y-119380000D03*
X232410000Y-116840000D03*
X229870000Y-116840000D03*
X232410000Y-114300000D03*
X229870000Y-114300000D03*
X232410000Y-111760000D03*
X229870000Y-111760000D03*
X232410000Y-109220000D03*
X229870000Y-109220000D03*
X232410000Y-106680000D03*
X229870000Y-106680000D03*
X232410000Y-104140000D03*
X229870000Y-104140000D03*
X232410000Y-101600000D03*
X229870000Y-101600000D03*
X232410000Y-99060000D03*
X229870000Y-99060000D03*
X232410000Y-96520000D03*
X229870000Y-96520000D03*
X232410000Y-93980000D03*
X229870000Y-93980000D03*
X232410000Y-91440000D03*
X229870000Y-91440000D03*
X232410000Y-88900000D03*
X229870000Y-88900000D03*
X232410000Y-86360000D03*
X229870000Y-86360000D03*
X232410000Y-83820000D03*
X229870000Y-83820000D03*
X232410000Y-81280000D03*
X69850000Y-129540000D03*
X67310000Y-129540000D03*
X69850000Y-127000000D03*
X67310000Y-127000000D03*
X69850000Y-124460000D03*
X67310000Y-124460000D03*
X69850000Y-121920000D03*
X67310000Y-121920000D03*
X69850000Y-119380000D03*
X67310000Y-119380000D03*
X69850000Y-116840000D03*
X67310000Y-116840000D03*
X69850000Y-114300000D03*
X67310000Y-114300000D03*
X69850000Y-111760000D03*
X67310000Y-111760000D03*
X69850000Y-109220000D03*
X67310000Y-109220000D03*
X69850000Y-106680000D03*
X67310000Y-106680000D03*
X69850000Y-104140000D03*
X67310000Y-104140000D03*
X69850000Y-101600000D03*
X67310000Y-101600000D03*
X69850000Y-99060000D03*
X67310000Y-99060000D03*
X69850000Y-96520000D03*
X67310000Y-96520000D03*
X69850000Y-93980000D03*
X67310000Y-93980000D03*
X69850000Y-91440000D03*
X67310000Y-91440000D03*
X69850000Y-88900000D03*
X67310000Y-88900000D03*
X69850000Y-86360000D03*
X67310000Y-86360000D03*
X69850000Y-83820000D03*
X67310000Y-83820000D03*
X69850000Y-81280000D03*
X119380000Y-93980000D03*
X121920000Y-93980000D03*
X124460000Y-93980000D03*
X127000000Y-93980000D03*
X129540000Y-93980000D03*
X132080000Y-93980000D03*
X134620000Y-93980000D03*
X137160000Y-93980000D03*
X139700000Y-93980000D03*
X142240000Y-93980000D03*
X144780000Y-93980000D03*
X147320000Y-93980000D03*
X149860000Y-93980000D03*
X152400000Y-93980000D03*
X154940000Y-93980000D03*
X157480000Y-93980000D03*
X160020000Y-93980000D03*
X162560000Y-93980000D03*
X165100000Y-93980000D03*
X167640000Y-93980000D03*
X170180000Y-93980000D03*
X172720000Y-93980000D03*
X175260000Y-93980000D03*
X177800000Y-93980000D03*
X180340000Y-93980000D03*
X135890000Y-129540000D03*
X120650000Y-129540000D03*
X124460000Y-129540000D03*
X128270000Y-129540000D03*
X132080000Y-129540000D03*
X139700000Y-129540000D03*
X143510000Y-129540000D03*
X147320000Y-129540000D03*
X152400000Y-129540000D03*
X156210000Y-129540000D03*
X160020000Y-129540000D03*
X163830000Y-129540000D03*
X167640000Y-129540000D03*
X171450000Y-129540000D03*
X175260000Y-129540000D03*
X179070000Y-129540000D03*
X226060000Y-129540000D03*
X223520000Y-129540000D03*
X220980000Y-129540000D03*
X218440000Y-129540000D03*
X215900000Y-129540000D03*
X213360000Y-129540000D03*
X210820000Y-129540000D03*
X208280000Y-129540000D03*
X205740000Y-129540000D03*
X203200000Y-129540000D03*
X200660000Y-129540000D03*
X198120000Y-129540000D03*
X195580000Y-129540000D03*
X193040000Y-129540000D03*
X190500000Y-129540000D03*
X187960000Y-129540000D03*
X185420000Y-129540000D03*
X182880000Y-129540000D03*
X116840000Y-129540000D03*
X114300000Y-129540000D03*
X111760000Y-129540000D03*
X109220000Y-129540000D03*
X106680000Y-129540000D03*
X104140000Y-129540000D03*
X101600000Y-129540000D03*
X99060000Y-129540000D03*
X96520000Y-129540000D03*
X93980000Y-129540000D03*
X91440000Y-129540000D03*
X88900000Y-129540000D03*
X86360000Y-129540000D03*
X83820000Y-129540000D03*
X81280000Y-129540000D03*
X78740000Y-129540000D03*
X76200000Y-129540000D03*
X73660000Y-129540000D03*
X226060000Y-127000000D03*
X223520000Y-127000000D03*
X220980000Y-127000000D03*
X218440000Y-127000000D03*
X215900000Y-127000000D03*
X213360000Y-127000000D03*
X210820000Y-127000000D03*
X208280000Y-127000000D03*
X205740000Y-127000000D03*
X203200000Y-127000000D03*
X200660000Y-127000000D03*
X198120000Y-127000000D03*
X195580000Y-127000000D03*
X193040000Y-127000000D03*
X190500000Y-127000000D03*
X187960000Y-127000000D03*
X185420000Y-127000000D03*
X182880000Y-127000000D03*
X116840000Y-127000000D03*
X114300000Y-127000000D03*
X111760000Y-127000000D03*
X109220000Y-127000000D03*
X106680000Y-127000000D03*
X104140000Y-127000000D03*
X101600000Y-127000000D03*
X99060000Y-127000000D03*
X96520000Y-127000000D03*
X93980000Y-127000000D03*
X91440000Y-127000000D03*
X88900000Y-127000000D03*
X86360000Y-127000000D03*
X83820000Y-127000000D03*
X81280000Y-127000000D03*
X78740000Y-127000000D03*
X76200000Y-127000000D03*
X73660000Y-127000000D03*
X226060000Y-124460000D03*
X223520000Y-124460000D03*
X220980000Y-124460000D03*
X218440000Y-124460000D03*
X215900000Y-124460000D03*
X213360000Y-124460000D03*
X210820000Y-124460000D03*
X208280000Y-124460000D03*
X205740000Y-124460000D03*
X203200000Y-124460000D03*
X200660000Y-124460000D03*
X198120000Y-124460000D03*
X195580000Y-124460000D03*
X193040000Y-124460000D03*
X190500000Y-124460000D03*
X187960000Y-124460000D03*
X185420000Y-124460000D03*
X182880000Y-124460000D03*
X180340000Y-124460000D03*
X177800000Y-124460000D03*
X175260000Y-124460000D03*
X172720000Y-124460000D03*
X170180000Y-124460000D03*
X167640000Y-124460000D03*
X165100000Y-124460000D03*
X162560000Y-124460000D03*
X160020000Y-124460000D03*
X157480000Y-124460000D03*
X154940000Y-124460000D03*
X152400000Y-124460000D03*
X149860000Y-124460000D03*
X147320000Y-124460000D03*
X144780000Y-124460000D03*
X142240000Y-124460000D03*
X139700000Y-124460000D03*
X137160000Y-124460000D03*
X134620000Y-124460000D03*
X132080000Y-124460000D03*
X129540000Y-124460000D03*
X127000000Y-124460000D03*
X124460000Y-124460000D03*
X121920000Y-124460000D03*
X119380000Y-124460000D03*
X116840000Y-124460000D03*
X114300000Y-124460000D03*
X111760000Y-124460000D03*
X109220000Y-124460000D03*
X106680000Y-124460000D03*
X104140000Y-124460000D03*
X101600000Y-124460000D03*
X99060000Y-124460000D03*
X96520000Y-124460000D03*
X93980000Y-124460000D03*
X91440000Y-124460000D03*
X88900000Y-124460000D03*
X86360000Y-124460000D03*
X83820000Y-124460000D03*
X81280000Y-124460000D03*
X78740000Y-124460000D03*
X76200000Y-124460000D03*
X73660000Y-124460000D03*
X226060000Y-121920000D03*
X223520000Y-121920000D03*
X220980000Y-121920000D03*
X218440000Y-121920000D03*
X215900000Y-121920000D03*
X213360000Y-121920000D03*
X210820000Y-121920000D03*
X208280000Y-121920000D03*
X205740000Y-121920000D03*
X203200000Y-121920000D03*
X200660000Y-121920000D03*
X198120000Y-121920000D03*
X195580000Y-121920000D03*
X193040000Y-121920000D03*
X190500000Y-121920000D03*
X187960000Y-121920000D03*
X185420000Y-121920000D03*
X182880000Y-121920000D03*
X180340000Y-121920000D03*
X177800000Y-121920000D03*
X175260000Y-121920000D03*
X172720000Y-121920000D03*
X170180000Y-121920000D03*
X167640000Y-121920000D03*
X165100000Y-121920000D03*
X162560000Y-121920000D03*
X160020000Y-121920000D03*
X157480000Y-121920000D03*
X154940000Y-121920000D03*
X152400000Y-121920000D03*
X149860000Y-121920000D03*
X147320000Y-121920000D03*
X144780000Y-121920000D03*
X142240000Y-121920000D03*
X139700000Y-121920000D03*
X137160000Y-121920000D03*
X134620000Y-121920000D03*
X132080000Y-121920000D03*
X129540000Y-121920000D03*
X127000000Y-121920000D03*
X124460000Y-121920000D03*
X121920000Y-121920000D03*
X119380000Y-121920000D03*
X116840000Y-121920000D03*
X114300000Y-121920000D03*
X111760000Y-121920000D03*
X109220000Y-121920000D03*
X106680000Y-121920000D03*
X104140000Y-121920000D03*
X101600000Y-121920000D03*
X99060000Y-121920000D03*
X96520000Y-121920000D03*
X93980000Y-121920000D03*
X91440000Y-121920000D03*
X88900000Y-121920000D03*
X86360000Y-121920000D03*
X83820000Y-121920000D03*
X81280000Y-121920000D03*
X78740000Y-121920000D03*
X76200000Y-121920000D03*
X73660000Y-121920000D03*
X226060000Y-119380000D03*
X223520000Y-119380000D03*
X220980000Y-119380000D03*
X218440000Y-119380000D03*
X215900000Y-119380000D03*
X213360000Y-119380000D03*
X210820000Y-119380000D03*
X208280000Y-119380000D03*
X205740000Y-119380000D03*
X203200000Y-119380000D03*
X200660000Y-119380000D03*
X198120000Y-119380000D03*
X195580000Y-119380000D03*
X193040000Y-119380000D03*
X190500000Y-119380000D03*
X187960000Y-119380000D03*
X185420000Y-119380000D03*
X182880000Y-119380000D03*
X180340000Y-119380000D03*
X177800000Y-119380000D03*
X175260000Y-119380000D03*
X172720000Y-119380000D03*
X170180000Y-119380000D03*
X167640000Y-119380000D03*
X165100000Y-119380000D03*
X162560000Y-119380000D03*
X160020000Y-119380000D03*
X157480000Y-119380000D03*
X154940000Y-119380000D03*
X152400000Y-119380000D03*
X149860000Y-119380000D03*
X147320000Y-119380000D03*
X144780000Y-119380000D03*
X142240000Y-119380000D03*
X139700000Y-119380000D03*
X137160000Y-119380000D03*
X134620000Y-119380000D03*
X132080000Y-119380000D03*
X129540000Y-119380000D03*
X127000000Y-119380000D03*
X124460000Y-119380000D03*
X121920000Y-119380000D03*
X119380000Y-119380000D03*
X116840000Y-119380000D03*
X114300000Y-119380000D03*
X111760000Y-119380000D03*
X109220000Y-119380000D03*
X106680000Y-119380000D03*
X104140000Y-119380000D03*
X101600000Y-119380000D03*
X99060000Y-119380000D03*
X96520000Y-119380000D03*
X93980000Y-119380000D03*
X91440000Y-119380000D03*
X88900000Y-119380000D03*
X86360000Y-119380000D03*
X83820000Y-119380000D03*
X81280000Y-119380000D03*
X78740000Y-119380000D03*
X76200000Y-119380000D03*
X73660000Y-119380000D03*
X226060000Y-116840000D03*
X223520000Y-116840000D03*
X220980000Y-116840000D03*
X218440000Y-116840000D03*
X215900000Y-116840000D03*
X213360000Y-116840000D03*
X210820000Y-116840000D03*
X208280000Y-116840000D03*
X205740000Y-116840000D03*
X203200000Y-116840000D03*
X200660000Y-116840000D03*
X198120000Y-116840000D03*
X195580000Y-116840000D03*
X193040000Y-116840000D03*
X190500000Y-116840000D03*
X187960000Y-116840000D03*
X185420000Y-116840000D03*
X182880000Y-116840000D03*
X180340000Y-116840000D03*
X177800000Y-116840000D03*
X175260000Y-116840000D03*
X172720000Y-116840000D03*
X170180000Y-116840000D03*
X167640000Y-116840000D03*
X165100000Y-116840000D03*
X162560000Y-116840000D03*
X160020000Y-116840000D03*
X157480000Y-116840000D03*
X154940000Y-116840000D03*
X152400000Y-116840000D03*
X149860000Y-116840000D03*
X147320000Y-116840000D03*
X144780000Y-116840000D03*
X142240000Y-116840000D03*
X139700000Y-116840000D03*
X137160000Y-116840000D03*
X134620000Y-116840000D03*
X132080000Y-116840000D03*
X129540000Y-116840000D03*
X127000000Y-116840000D03*
X124460000Y-116840000D03*
X121920000Y-116840000D03*
X119380000Y-116840000D03*
X116840000Y-116840000D03*
X114300000Y-116840000D03*
X111760000Y-116840000D03*
X109220000Y-116840000D03*
X106680000Y-116840000D03*
X104140000Y-116840000D03*
X101600000Y-116840000D03*
X99060000Y-116840000D03*
X96520000Y-116840000D03*
X93980000Y-116840000D03*
X91440000Y-116840000D03*
X88900000Y-116840000D03*
X86360000Y-116840000D03*
X83820000Y-116840000D03*
X81280000Y-116840000D03*
X78740000Y-116840000D03*
X76200000Y-116840000D03*
X73660000Y-116840000D03*
X226060000Y-114300000D03*
X223520000Y-114300000D03*
X220980000Y-114300000D03*
X218440000Y-114300000D03*
X215900000Y-114300000D03*
X213360000Y-114300000D03*
X210820000Y-114300000D03*
X208280000Y-114300000D03*
X205740000Y-114300000D03*
X203200000Y-114300000D03*
X200660000Y-114300000D03*
X198120000Y-114300000D03*
X195580000Y-114300000D03*
X193040000Y-114300000D03*
X190500000Y-114300000D03*
X187960000Y-114300000D03*
X185420000Y-114300000D03*
X182880000Y-114300000D03*
X180340000Y-114300000D03*
X177800000Y-114300000D03*
X175260000Y-114300000D03*
X172720000Y-114300000D03*
X170180000Y-114300000D03*
X167640000Y-114300000D03*
X165100000Y-114300000D03*
X162560000Y-114300000D03*
X160020000Y-114300000D03*
X157480000Y-114300000D03*
X154940000Y-114300000D03*
X152400000Y-114300000D03*
X149860000Y-114300000D03*
X147320000Y-114300000D03*
X144780000Y-114300000D03*
X142240000Y-114300000D03*
X139700000Y-114300000D03*
X137160000Y-114300000D03*
X134620000Y-114300000D03*
X132080000Y-114300000D03*
X129540000Y-114300000D03*
X127000000Y-114300000D03*
X124460000Y-114300000D03*
X121920000Y-114300000D03*
X119380000Y-114300000D03*
X116840000Y-114300000D03*
X114300000Y-114300000D03*
X111760000Y-114300000D03*
X109220000Y-114300000D03*
X106680000Y-114300000D03*
X104140000Y-114300000D03*
X101600000Y-114300000D03*
X99060000Y-114300000D03*
X96520000Y-114300000D03*
X93980000Y-114300000D03*
X91440000Y-114300000D03*
X88900000Y-114300000D03*
X86360000Y-114300000D03*
X83820000Y-114300000D03*
X81280000Y-114300000D03*
X78740000Y-114300000D03*
X76200000Y-114300000D03*
X73660000Y-114300000D03*
X226060000Y-111760000D03*
X223520000Y-111760000D03*
X220980000Y-111760000D03*
X218440000Y-111760000D03*
X215900000Y-111760000D03*
X213360000Y-111760000D03*
X210820000Y-111760000D03*
X208280000Y-111760000D03*
X205740000Y-111760000D03*
X203200000Y-111760000D03*
X200660000Y-111760000D03*
X198120000Y-111760000D03*
X195580000Y-111760000D03*
X193040000Y-111760000D03*
X190500000Y-111760000D03*
X187960000Y-111760000D03*
X185420000Y-111760000D03*
X182880000Y-111760000D03*
X180340000Y-111760000D03*
X177800000Y-111760000D03*
X175260000Y-111760000D03*
X172720000Y-111760000D03*
X170180000Y-111760000D03*
X167640000Y-111760000D03*
X165100000Y-111760000D03*
X162560000Y-111760000D03*
X160020000Y-111760000D03*
X157480000Y-111760000D03*
X154940000Y-111760000D03*
X152400000Y-111760000D03*
X149860000Y-111760000D03*
X147320000Y-111760000D03*
X144780000Y-111760000D03*
X142240000Y-111760000D03*
X139700000Y-111760000D03*
X137160000Y-111760000D03*
X134620000Y-111760000D03*
X132080000Y-111760000D03*
X129540000Y-111760000D03*
X127000000Y-111760000D03*
X124460000Y-111760000D03*
X121920000Y-111760000D03*
X119380000Y-111760000D03*
X116840000Y-111760000D03*
X114300000Y-111760000D03*
X111760000Y-111760000D03*
X109220000Y-111760000D03*
X106680000Y-111760000D03*
X104140000Y-111760000D03*
X101600000Y-111760000D03*
X99060000Y-111760000D03*
X96520000Y-111760000D03*
X93980000Y-111760000D03*
X91440000Y-111760000D03*
X88900000Y-111760000D03*
X86360000Y-111760000D03*
X83820000Y-111760000D03*
X81280000Y-111760000D03*
X78740000Y-111760000D03*
X76200000Y-111760000D03*
X73660000Y-111760000D03*
X226060000Y-109220000D03*
X223520000Y-109220000D03*
X220980000Y-109220000D03*
X218440000Y-109220000D03*
X215900000Y-109220000D03*
X213360000Y-109220000D03*
X210820000Y-109220000D03*
X208280000Y-109220000D03*
X205740000Y-109220000D03*
X203200000Y-109220000D03*
X200660000Y-109220000D03*
X198120000Y-109220000D03*
X195580000Y-109220000D03*
X193040000Y-109220000D03*
X190500000Y-109220000D03*
X187960000Y-109220000D03*
X185420000Y-109220000D03*
X182880000Y-109220000D03*
X180340000Y-109220000D03*
X177800000Y-109220000D03*
X175260000Y-109220000D03*
X172720000Y-109220000D03*
X170180000Y-109220000D03*
X167640000Y-109220000D03*
X165100000Y-109220000D03*
X162560000Y-109220000D03*
X160020000Y-109220000D03*
X157480000Y-109220000D03*
X154940000Y-109220000D03*
X152400000Y-109220000D03*
X149860000Y-109220000D03*
X147320000Y-109220000D03*
X144780000Y-109220000D03*
X142240000Y-109220000D03*
X139700000Y-109220000D03*
X137160000Y-109220000D03*
X134620000Y-109220000D03*
X132080000Y-109220000D03*
X129540000Y-109220000D03*
X127000000Y-109220000D03*
X124460000Y-109220000D03*
X121920000Y-109220000D03*
X119380000Y-109220000D03*
X116840000Y-109220000D03*
X114300000Y-109220000D03*
X111760000Y-109220000D03*
X109220000Y-109220000D03*
X106680000Y-109220000D03*
X104140000Y-109220000D03*
X101600000Y-109220000D03*
X99060000Y-109220000D03*
X96520000Y-109220000D03*
X93980000Y-109220000D03*
X91440000Y-109220000D03*
X88900000Y-109220000D03*
X86360000Y-109220000D03*
X83820000Y-109220000D03*
X81280000Y-109220000D03*
X78740000Y-109220000D03*
X76200000Y-109220000D03*
X73660000Y-109220000D03*
X226060000Y-106680000D03*
X223520000Y-106680000D03*
X220980000Y-106680000D03*
X218440000Y-106680000D03*
X215900000Y-106680000D03*
X213360000Y-106680000D03*
X210820000Y-106680000D03*
X208280000Y-106680000D03*
X205740000Y-106680000D03*
X203200000Y-106680000D03*
X200660000Y-106680000D03*
X198120000Y-106680000D03*
X195580000Y-106680000D03*
X193040000Y-106680000D03*
X190500000Y-106680000D03*
X187960000Y-106680000D03*
X185420000Y-106680000D03*
X182880000Y-106680000D03*
X180340000Y-106680000D03*
X177800000Y-106680000D03*
X175260000Y-106680000D03*
X172720000Y-106680000D03*
X170180000Y-106680000D03*
X167640000Y-106680000D03*
X165100000Y-106680000D03*
X162560000Y-106680000D03*
X160020000Y-106680000D03*
X157480000Y-106680000D03*
X154940000Y-106680000D03*
X152400000Y-106680000D03*
X149860000Y-106680000D03*
X147320000Y-106680000D03*
X144780000Y-106680000D03*
X142240000Y-106680000D03*
X139700000Y-106680000D03*
X137160000Y-106680000D03*
X134620000Y-106680000D03*
X132080000Y-106680000D03*
X129540000Y-106680000D03*
X127000000Y-106680000D03*
X124460000Y-106680000D03*
X121920000Y-106680000D03*
X119380000Y-106680000D03*
X116840000Y-106680000D03*
X114300000Y-106680000D03*
X111760000Y-106680000D03*
X109220000Y-106680000D03*
X106680000Y-106680000D03*
X104140000Y-106680000D03*
X101600000Y-106680000D03*
X99060000Y-106680000D03*
X96520000Y-106680000D03*
X93980000Y-106680000D03*
X91440000Y-106680000D03*
X88900000Y-106680000D03*
X86360000Y-106680000D03*
X83820000Y-106680000D03*
X81280000Y-106680000D03*
X78740000Y-106680000D03*
X76200000Y-106680000D03*
X73660000Y-106680000D03*
X226060000Y-104140000D03*
X223520000Y-104140000D03*
X220980000Y-104140000D03*
X218440000Y-104140000D03*
X215900000Y-104140000D03*
X213360000Y-104140000D03*
X210820000Y-104140000D03*
X208280000Y-104140000D03*
X205740000Y-104140000D03*
X203200000Y-104140000D03*
X200660000Y-104140000D03*
X198120000Y-104140000D03*
X195580000Y-104140000D03*
X193040000Y-104140000D03*
X190500000Y-104140000D03*
X187960000Y-104140000D03*
X185420000Y-104140000D03*
X182880000Y-104140000D03*
X180340000Y-104140000D03*
X177800000Y-104140000D03*
X175260000Y-104140000D03*
X172720000Y-104140000D03*
X170180000Y-104140000D03*
X167640000Y-104140000D03*
X165100000Y-104140000D03*
X162560000Y-104140000D03*
X160020000Y-104140000D03*
X157480000Y-104140000D03*
X154940000Y-104140000D03*
X152400000Y-104140000D03*
X149860000Y-104140000D03*
X147320000Y-104140000D03*
X144780000Y-104140000D03*
X142240000Y-104140000D03*
X139700000Y-104140000D03*
X137160000Y-104140000D03*
X134620000Y-104140000D03*
X132080000Y-104140000D03*
X129540000Y-104140000D03*
X127000000Y-104140000D03*
X124460000Y-104140000D03*
X121920000Y-104140000D03*
X119380000Y-104140000D03*
X116840000Y-104140000D03*
X114300000Y-104140000D03*
X111760000Y-104140000D03*
X109220000Y-104140000D03*
X106680000Y-104140000D03*
X104140000Y-104140000D03*
X101600000Y-104140000D03*
X99060000Y-104140000D03*
X96520000Y-104140000D03*
X93980000Y-104140000D03*
X91440000Y-104140000D03*
X88900000Y-104140000D03*
X86360000Y-104140000D03*
X83820000Y-104140000D03*
X81280000Y-104140000D03*
X78740000Y-104140000D03*
X76200000Y-104140000D03*
X73660000Y-104140000D03*
X226060000Y-101600000D03*
X223520000Y-101600000D03*
X220980000Y-101600000D03*
X218440000Y-101600000D03*
X215900000Y-101600000D03*
X213360000Y-101600000D03*
X210820000Y-101600000D03*
X208280000Y-101600000D03*
X205740000Y-101600000D03*
X203200000Y-101600000D03*
X200660000Y-101600000D03*
X198120000Y-101600000D03*
X195580000Y-101600000D03*
X193040000Y-101600000D03*
X190500000Y-101600000D03*
X187960000Y-101600000D03*
X185420000Y-101600000D03*
X182880000Y-101600000D03*
X180340000Y-101600000D03*
X177800000Y-101600000D03*
X175260000Y-101600000D03*
X172720000Y-101600000D03*
X170180000Y-101600000D03*
X167640000Y-101600000D03*
X165100000Y-101600000D03*
X162560000Y-101600000D03*
X160020000Y-101600000D03*
X157480000Y-101600000D03*
X154940000Y-101600000D03*
X152400000Y-101600000D03*
X149860000Y-101600000D03*
X147320000Y-101600000D03*
X144780000Y-101600000D03*
X142240000Y-101600000D03*
X139700000Y-101600000D03*
X137160000Y-101600000D03*
X134620000Y-101600000D03*
X132080000Y-101600000D03*
X129540000Y-101600000D03*
X127000000Y-101600000D03*
X124460000Y-101600000D03*
X121920000Y-101600000D03*
X119380000Y-101600000D03*
X116840000Y-101600000D03*
X114300000Y-101600000D03*
X111760000Y-101600000D03*
X109220000Y-101600000D03*
X106680000Y-101600000D03*
X104140000Y-101600000D03*
X101600000Y-101600000D03*
X99060000Y-101600000D03*
X96520000Y-101600000D03*
X93980000Y-101600000D03*
X91440000Y-101600000D03*
X88900000Y-101600000D03*
X86360000Y-101600000D03*
X83820000Y-101600000D03*
X81280000Y-101600000D03*
X78740000Y-101600000D03*
X76200000Y-101600000D03*
X73660000Y-101600000D03*
X226060000Y-99060000D03*
X223520000Y-99060000D03*
X220980000Y-99060000D03*
X218440000Y-99060000D03*
X215900000Y-99060000D03*
X213360000Y-99060000D03*
X210820000Y-99060000D03*
X208280000Y-99060000D03*
X205740000Y-99060000D03*
X203200000Y-99060000D03*
X200660000Y-99060000D03*
X198120000Y-99060000D03*
X195580000Y-99060000D03*
X193040000Y-99060000D03*
X190500000Y-99060000D03*
X187960000Y-99060000D03*
X185420000Y-99060000D03*
X182880000Y-99060000D03*
X180340000Y-99060000D03*
X177800000Y-99060000D03*
X175260000Y-99060000D03*
X172720000Y-99060000D03*
X170180000Y-99060000D03*
X167640000Y-99060000D03*
X165100000Y-99060000D03*
X162560000Y-99060000D03*
X160020000Y-99060000D03*
X157480000Y-99060000D03*
X154940000Y-99060000D03*
X152400000Y-99060000D03*
X149860000Y-99060000D03*
X147320000Y-99060000D03*
X144780000Y-99060000D03*
X142240000Y-99060000D03*
X139700000Y-99060000D03*
X137160000Y-99060000D03*
X134620000Y-99060000D03*
X132080000Y-99060000D03*
X129540000Y-99060000D03*
X127000000Y-99060000D03*
X124460000Y-99060000D03*
X121920000Y-99060000D03*
X119380000Y-99060000D03*
X116840000Y-99060000D03*
X114300000Y-99060000D03*
X111760000Y-99060000D03*
X109220000Y-99060000D03*
X106680000Y-99060000D03*
X104140000Y-99060000D03*
X101600000Y-99060000D03*
X99060000Y-99060000D03*
X96520000Y-99060000D03*
X93980000Y-99060000D03*
X91440000Y-99060000D03*
X88900000Y-99060000D03*
X86360000Y-99060000D03*
X83820000Y-99060000D03*
X81280000Y-99060000D03*
X78740000Y-99060000D03*
X76200000Y-99060000D03*
X73660000Y-99060000D03*
X226060000Y-96520000D03*
X223520000Y-96520000D03*
X220980000Y-96520000D03*
X218440000Y-96520000D03*
X215900000Y-96520000D03*
X213360000Y-96520000D03*
X210820000Y-96520000D03*
X208280000Y-96520000D03*
X205740000Y-96520000D03*
X203200000Y-96520000D03*
X200660000Y-96520000D03*
X198120000Y-96520000D03*
X195580000Y-96520000D03*
X193040000Y-96520000D03*
X190500000Y-96520000D03*
X187960000Y-96520000D03*
X185420000Y-96520000D03*
X182880000Y-96520000D03*
X180340000Y-96520000D03*
X177800000Y-96520000D03*
X175260000Y-96520000D03*
X172720000Y-96520000D03*
X170180000Y-96520000D03*
X167640000Y-96520000D03*
X165100000Y-96520000D03*
X162560000Y-96520000D03*
X160020000Y-96520000D03*
X157480000Y-96520000D03*
X154940000Y-96520000D03*
X152400000Y-96520000D03*
X149860000Y-96520000D03*
X147320000Y-96520000D03*
X144780000Y-96520000D03*
X142240000Y-96520000D03*
X139700000Y-96520000D03*
X137160000Y-96520000D03*
X134620000Y-96520000D03*
X132080000Y-96520000D03*
X129540000Y-96520000D03*
X127000000Y-96520000D03*
X124460000Y-96520000D03*
X121920000Y-96520000D03*
X119380000Y-96520000D03*
X116840000Y-96520000D03*
X114300000Y-96520000D03*
X111760000Y-96520000D03*
X109220000Y-96520000D03*
X106680000Y-96520000D03*
X104140000Y-96520000D03*
X101600000Y-96520000D03*
X99060000Y-96520000D03*
X96520000Y-96520000D03*
X93980000Y-96520000D03*
X91440000Y-96520000D03*
X88900000Y-96520000D03*
X86360000Y-96520000D03*
X83820000Y-96520000D03*
X81280000Y-96520000D03*
X78740000Y-96520000D03*
X76200000Y-96520000D03*
X73660000Y-96520000D03*
X226060000Y-93980000D03*
X223520000Y-93980000D03*
X220980000Y-93980000D03*
X218440000Y-93980000D03*
X215900000Y-93980000D03*
X213360000Y-93980000D03*
X210820000Y-93980000D03*
X208280000Y-93980000D03*
X205740000Y-93980000D03*
X203200000Y-93980000D03*
X200660000Y-93980000D03*
X198120000Y-93980000D03*
X195580000Y-93980000D03*
X193040000Y-93980000D03*
X190500000Y-93980000D03*
X187960000Y-93980000D03*
X185420000Y-93980000D03*
X182880000Y-93980000D03*
X116840000Y-93980000D03*
X114300000Y-93980000D03*
X111760000Y-93980000D03*
X109220000Y-93980000D03*
X106680000Y-93980000D03*
X104140000Y-93980000D03*
X101600000Y-93980000D03*
X99060000Y-93980000D03*
X96520000Y-93980000D03*
X93980000Y-93980000D03*
X91440000Y-93980000D03*
X88900000Y-93980000D03*
X86360000Y-93980000D03*
X83820000Y-93980000D03*
X81280000Y-93980000D03*
X78740000Y-93980000D03*
X76200000Y-93980000D03*
X73660000Y-93980000D03*
X226060000Y-91440000D03*
X223520000Y-91440000D03*
X220980000Y-91440000D03*
X218440000Y-91440000D03*
X215900000Y-91440000D03*
X213360000Y-91440000D03*
X210820000Y-91440000D03*
X208280000Y-91440000D03*
X205740000Y-91440000D03*
X203200000Y-91440000D03*
X200660000Y-91440000D03*
X198120000Y-91440000D03*
X195580000Y-91440000D03*
X193040000Y-91440000D03*
X190500000Y-91440000D03*
X187960000Y-91440000D03*
X185420000Y-91440000D03*
X182880000Y-91440000D03*
X116840000Y-91440000D03*
X114300000Y-91440000D03*
X111760000Y-91440000D03*
X109220000Y-91440000D03*
X106680000Y-91440000D03*
X104140000Y-91440000D03*
X101600000Y-91440000D03*
X99060000Y-91440000D03*
X96520000Y-91440000D03*
X93980000Y-91440000D03*
X91440000Y-91440000D03*
X88900000Y-91440000D03*
X86360000Y-91440000D03*
X83820000Y-91440000D03*
X81280000Y-91440000D03*
X78740000Y-91440000D03*
X76200000Y-91440000D03*
X73660000Y-91440000D03*
X226060000Y-88900000D03*
X223520000Y-88900000D03*
X220980000Y-88900000D03*
X218440000Y-88900000D03*
X215900000Y-88900000D03*
X213360000Y-88900000D03*
X210820000Y-88900000D03*
X208280000Y-88900000D03*
X205740000Y-88900000D03*
X203200000Y-88900000D03*
X200660000Y-88900000D03*
X198120000Y-88900000D03*
X195580000Y-88900000D03*
X193040000Y-88900000D03*
X190500000Y-88900000D03*
X187960000Y-88900000D03*
X185420000Y-88900000D03*
X182880000Y-88900000D03*
X116840000Y-88900000D03*
X114300000Y-88900000D03*
X111760000Y-88900000D03*
X109220000Y-88900000D03*
X106680000Y-88900000D03*
X104140000Y-88900000D03*
X101600000Y-88900000D03*
X99060000Y-88900000D03*
X96520000Y-88900000D03*
X93980000Y-88900000D03*
X91440000Y-88900000D03*
X88900000Y-88900000D03*
X86360000Y-88900000D03*
X83820000Y-88900000D03*
X81280000Y-88900000D03*
X78740000Y-88900000D03*
X76200000Y-88900000D03*
X73660000Y-88900000D03*
X226060000Y-86360000D03*
X223520000Y-86360000D03*
X220980000Y-86360000D03*
X218440000Y-86360000D03*
X215900000Y-86360000D03*
X213360000Y-86360000D03*
X210820000Y-86360000D03*
X208280000Y-86360000D03*
X205740000Y-86360000D03*
X203200000Y-86360000D03*
X200660000Y-86360000D03*
X198120000Y-86360000D03*
X195580000Y-86360000D03*
X193040000Y-86360000D03*
X190500000Y-86360000D03*
X187960000Y-86360000D03*
X185420000Y-86360000D03*
X182880000Y-86360000D03*
X116840000Y-86360000D03*
X114300000Y-86360000D03*
X111760000Y-86360000D03*
X109220000Y-86360000D03*
X106680000Y-86360000D03*
X104140000Y-86360000D03*
X101600000Y-86360000D03*
X99060000Y-86360000D03*
X96520000Y-86360000D03*
X93980000Y-86360000D03*
X91440000Y-86360000D03*
X88900000Y-86360000D03*
X86360000Y-86360000D03*
X83820000Y-86360000D03*
X81280000Y-86360000D03*
X78740000Y-86360000D03*
X76200000Y-86360000D03*
X73660000Y-86360000D03*
X226060000Y-83820000D03*
X223520000Y-83820000D03*
X220980000Y-83820000D03*
X218440000Y-83820000D03*
X215900000Y-83820000D03*
X213360000Y-83820000D03*
X210820000Y-83820000D03*
X208280000Y-83820000D03*
X205740000Y-83820000D03*
X203200000Y-83820000D03*
X200660000Y-83820000D03*
X198120000Y-83820000D03*
X195580000Y-83820000D03*
X193040000Y-83820000D03*
X190500000Y-83820000D03*
X187960000Y-83820000D03*
X185420000Y-83820000D03*
X182880000Y-83820000D03*
X116840000Y-83820000D03*
X114300000Y-83820000D03*
X111760000Y-83820000D03*
X109220000Y-83820000D03*
X106680000Y-83820000D03*
X104140000Y-83820000D03*
X101600000Y-83820000D03*
X99060000Y-83820000D03*
X96520000Y-83820000D03*
X93980000Y-83820000D03*
X91440000Y-83820000D03*
X88900000Y-83820000D03*
X86360000Y-83820000D03*
X83820000Y-83820000D03*
X81280000Y-83820000D03*
X78740000Y-83820000D03*
X76200000Y-83820000D03*
X73660000Y-83820000D03*
X226060000Y-81280000D03*
X223520000Y-81280000D03*
X220980000Y-81280000D03*
X218440000Y-81280000D03*
X215900000Y-81280000D03*
X213360000Y-81280000D03*
X210820000Y-81280000D03*
X208280000Y-81280000D03*
X205740000Y-81280000D03*
X203200000Y-81280000D03*
X200660000Y-81280000D03*
X198120000Y-81280000D03*
X195580000Y-81280000D03*
X193040000Y-81280000D03*
X190500000Y-81280000D03*
X187960000Y-81280000D03*
X185420000Y-81280000D03*
X182880000Y-81280000D03*
X116840000Y-81280000D03*
X114300000Y-81280000D03*
X111760000Y-81280000D03*
X109220000Y-81280000D03*
X106680000Y-81280000D03*
X104140000Y-81280000D03*
X101600000Y-81280000D03*
X99060000Y-81280000D03*
X96520000Y-81280000D03*
X93980000Y-81280000D03*
X91440000Y-81280000D03*
X88900000Y-81280000D03*
X86360000Y-81280000D03*
X83820000Y-81280000D03*
X81280000Y-81280000D03*
X78740000Y-81280000D03*
X76200000Y-81280000D03*
X73660000Y-81280000D03*
X67310000Y-81280000D03*
X229870000Y-81280000D03*
X121285000Y-81280000D03*
X125095000Y-81280000D03*
X128905000Y-81280000D03*
X132715000Y-81280000D03*
X136525000Y-81280000D03*
X140335000Y-81280000D03*
X144145000Y-81280000D03*
X147955000Y-81280000D03*
X151765000Y-81280000D03*
X155575000Y-81280000D03*
X159385000Y-81280000D03*
X163195000Y-81280000D03*
X167005000Y-81280000D03*
X170815000Y-81280000D03*
X174625000Y-81280000D03*
X178435000Y-81280000D03*
X136525000Y-85090000D03*
X140335000Y-85090000D03*
X144145000Y-85090000D03*
X147955000Y-85090000D03*
X151765000Y-85090000D03*
X155575000Y-85090000D03*
X159385000Y-85090000D03*
X163195000Y-85090000D03*
X125095000Y-89103200D03*
X128905000Y-89103200D03*
X132715000Y-89103200D03*
X136525000Y-89103200D03*
X140335000Y-89103200D03*
X144145000Y-89103200D03*
X147955000Y-89103200D03*
X151765000Y-89103200D03*
X155575000Y-89103200D03*
X159385000Y-89103200D03*
X163195000Y-89103200D03*
X167005000Y-89103200D03*
X170815000Y-89103200D03*
X174625000Y-89103200D03*
D11*
X126238000Y-135178800D03*
D10*
X128778000Y-135178800D03*
X131318000Y-135178800D03*
X133858000Y-135178800D03*
X136398000Y-135178800D03*
X138938000Y-135178800D03*
X141478000Y-135178800D03*
X144018000Y-135178800D03*
D11*
X155702000Y-135178800D03*
D10*
X158242000Y-135178800D03*
X160782000Y-135178800D03*
X163322000Y-135178800D03*
X165862000Y-135178800D03*
X168402000Y-135178800D03*
X170942000Y-135178800D03*
X173482000Y-135178800D03*
D13*
X66040000Y-71120000D03*
X78740000Y-71120000D03*
X233680000Y-137160000D03*
X220980000Y-137160000D03*
X208280000Y-137160000D03*
X195580000Y-137160000D03*
X182880000Y-137160000D03*
X116840000Y-137160000D03*
X104140000Y-137160000D03*
X91440000Y-137160000D03*
X78740000Y-137160000D03*
X66040000Y-137160000D03*
X233680000Y-71120000D03*
X220980000Y-71120000D03*
X208280000Y-71120000D03*
X195580000Y-71120000D03*
X182880000Y-71120000D03*
X116840000Y-71120000D03*
X104140000Y-71120000D03*
X91440000Y-71120000D03*
M02*
