M48
;DRILL file {KiCad (5.0.0)} date 10/23/18 17:21:44
;FORMAT={-:-/ absolute / inch / decimal}
FMAT,2
INCH,TZ
T1C0.0130
T2C0.0315
T3C0.0394
T4C0.1260
%
G90
G05
M72
T1
X4.81Y-2.78
X4.88Y-2.97
X5.1044Y-3.0794
X5.115Y-2.9685
X5.115Y-2.9685
X5.2134Y-2.9685
X5.3157Y-2.9685
X5.4796Y-2.9688
X5.5783Y-2.9674
X5.678Y-2.9685
X5.7252Y-2.8701
X5.8079Y-2.9685
X5.8079Y-3.0551
X5.9142Y-2.9685
X6.0087Y-2.9685
X6.1071Y-2.9685
X6.1356Y-3.0757
X6.2774Y-2.9685
X6.3825Y-2.9686
X6.4772Y-2.9685
X6.5008Y-3.1693
X6.5798Y-2.9685
X6.6976Y-2.9685
X6.8199Y-2.9663
X6.9063Y-2.9685
T2
X2.65Y-3.7
X5.Y-4.1
X4.6Y-4.7
X8.4Y-3.6
X6.9Y-3.9
X4.Y-4.
X4.3Y-3.4
X6.Y-3.7
X4.9Y-3.7
X6.8Y-4.1
X5.2Y-4.7
X3.Y-3.7
X3.6Y-3.9
X4.9Y-4.
X7.2Y-3.4
X7.Y-4.1
X6.2Y-4.7
X8.6Y-4.5
X2.9Y-3.7
X5.8Y-4.
X4.Y-3.4
X7.3Y-4.1
X6.9Y-4.7
X5.1Y-4.6
X4.1Y-3.7
X7.6Y-4.
X8.2Y-3.4
X8.2Y-4.4
X8.8Y-4.1
X7.9Y-4.7
X3.8Y-4.6
X8.3Y-3.7
X6.6Y-4.
X5.225Y-3.508
X3.6Y-5.
X8.3Y-4.4
X5.5Y-4.8
X8.3Y-4.1
X3.4Y-4.8
X4.6Y-4.6
X7.2Y-3.7
X8.3Y-4.
X6.125Y-3.2
X4.Y-5.
X6.7Y-4.9
X8.5Y-4.4
X6.8Y-4.3
X6.5Y-4.8
X2.9Y-4.2
X4.1Y-4.8
X5.7Y-4.6
X8.4Y-3.7
X6.1Y-4.
X6.575Y-3.2
X7.4Y-5.1
X8.Y-5.
X3.3Y-5.
X9.05Y-3.6
X8.6Y-4.4
X3.2Y-4.4
X6.7Y-4.8
X4.Y-4.2
X7.3Y-4.7
X6.7Y-4.6
X3.1Y-3.8
X2.9Y-4.1
X5.225Y-3.2
X2.75Y-3.8
X7.6Y-5.1
X4.6Y-5.
X8.Y-4.9
X9.15Y-3.7
X4.4Y-4.5
X7.2Y-4.3
X7.6Y-4.8
X4.4Y-4.2
X8.8Y-4.7
X8.1Y-4.6
X6.3Y-3.8
X3.1Y-4.1
X4.2Y-3.2
X8.8Y-3.2
X2.75Y-4.5
X5.5Y-5.1
X3.4Y-5.1
X6.Y-4.9
X9.15Y-4.3
X5.2Y-4.5
X8.Y-4.3
X6.6Y-4.8
X5.3Y-4.2
X3.9Y-4.8
X7.9Y-4.6
X7.Y-3.8
X4.5Y-3.5
X7.2Y-3.8
X8.3Y-3.2
X3.7Y-3.3
X2.65Y-4.5
X3.2Y-5.
X7.1Y-4.5
X3.6Y-4.4
X6.8Y-4.2
X4.2Y-4.3
X7.2Y-4.6
X4.3Y-3.8
X3.4Y-3.5
X7.7Y-3.8
X3.3Y-3.2
X8.3Y-3.3
X6.4Y-4.9
X5.5Y-4.5
X3.8Y-4.4
X4.9Y-4.9
X8.7Y-4.2
X6.Y-4.3
X7.5Y-4.6
X5.5Y-3.8
X8.2Y-3.5
X8.5Y-3.8
X7.8Y-3.2
X4.2Y-3.3
X6.8Y-4.5
X7.1Y-4.4
X4.5Y-4.9
X3.2Y-4.3
X5.2Y-4.3
X3.Y-3.8
X7.6Y-3.5
X4.2Y-3.9
X4.775Y-3.2
X7.4Y-3.3
X8.8Y-5.1
X6.7Y-4.5
X4.4Y-4.4
X5.5Y-4.9
X6.4Y-4.2
X3.4Y-4.1
X6.7Y-3.8
X8.4Y-3.5
X4.Y-3.9
X8.5Y-3.9
X8.7Y-3.3
X2.75Y-4.9
X7.8Y-5.1
X6.9Y-4.4
X3.2Y-4.9
X3.7Y-4.3
X4.6Y-4.1
X9.15Y-5.
X3.1Y-3.6
X5.Y-3.9
X7.5Y-3.9
X8.9Y-3.4
X2.75Y-4.7
X6.1Y-3.7
X5.3Y-3.7
X3.5Y-4.4
X4.2Y-4.9
X6.7Y-4.2
X4.4Y-4.1
X9.15Y-4.8
X4.3Y-4.7
X7.4Y-3.6
X5.3Y-3.9
X3.3Y-4.
X7.5Y-3.4
X2.65Y-4.7
X5.5Y-3.7
X2.75Y-3.4
X5.4Y-4.1
X9.15Y-5.1
X4.7Y-4.7
X8.6Y-3.6
X6.4Y-3.9
X4.1Y-4.
X7.8Y-3.4
X2.65Y-3.3
X6.1Y-4.1
X5.Y-4.7
X3.4Y-3.7
X5.4Y-3.9
X4.5Y-4.
X7.3Y-3.4
X6.6Y-4.1
X5.8Y-4.7
X8.7Y-4.5
X3.7Y-3.7
X5.5Y-4.
X8.Y-3.4
X7.5Y-4.1
X7.Y-4.7
X4.9Y-4.6
X3.3Y-3.7
X8.Y-4.
X7.4Y-3.4
X7.4Y-4.4
X7.4Y-4.8
X3.3Y-4.2
X3.6Y-4.8
X3.9Y-4.6
X8.1Y-3.7
X6.2Y-4.
X4.925Y-3.508
X3.7Y-5.
X2.9Y-4.5
X6.2Y-4.3
X8.1Y-4.8
X3.Y-4.2
X8.2Y-4.7
X4.7Y-4.6
X7.3Y-3.7
X7.7Y-4.
X5.375Y-3.508
X7.4Y-5.
X7.3Y-4.9
X8.8Y-4.4
X6.6Y-4.3
X7.8Y-4.8
X7.9Y-4.1
X6.875Y-3.508
X8.6Y-4.7
X6.Y-4.6
X8.5Y-3.7
X7.8Y-4.
X5.825Y-3.35
X3.8Y-5.1
X2.9Y-5.1
X6.3Y-4.9
X9.15Y-3.6
X3.5Y-4.5
X8.7Y-4.3
X7.Y-4.8
X4.1Y-4.2
X4.7Y-4.8
X6.9Y-4.6
X3.2Y-3.8
X3.2Y-4.1
X4.925Y-3.2
X2.65Y-3.9
X4.3Y-5.1
X7.2Y-5.
X8.1Y-4.9
X9.15Y-4.2
X4.5Y-4.5
X7.3Y-4.3
X6.4Y-4.8
X4.6Y-4.2
X3.8Y-4.8
X7.4Y-4.6
X6.6Y-3.8
X3.7Y-3.5
X8.9Y-4.
X7.3Y-3.2
X3.2Y-3.3
X2.75Y-4.
X6.15Y-5.1
X7.8Y-5.
X6.1Y-4.9
X7.8Y-4.5
X8.1Y-4.3
X7.7Y-4.8
X5.4Y-4.2
X8.2Y-4.6
X5.3Y-3.8
X7.4Y-3.5
X8.8Y-3.8
X3.9Y-3.2
X3.5Y-3.3
X2.75Y-3.7
X8.5Y-4.9
X7.2Y-4.5
X5.2Y-4.4
X6.9Y-4.2
X5.Y-4.3
X6.4Y-4.6
X4.5Y-3.8
X3.5Y-3.5
X7.9Y-3.8
X4.3Y-3.2
X7.3Y-3.3
X6.4Y-4.5
X4.8Y-4.4
X5.8Y-4.9
X3.8Y-4.3
X4.4Y-4.3
X5.8Y-4.6
X6.8Y-3.8
X8.Y-3.5
X8.6Y-3.8
X4.Y-3.2
X4.3Y-3.3
X5.6Y-4.5
X4.Y-4.4
X4.6Y-4.9
X7.1Y-4.2
X5.1Y-4.3
X3.3Y-3.8
X7.7Y-3.5
X4.7Y-3.9
X5.075Y-3.2
X7.6Y-3.3
X7.9Y-5.1
X7.7Y-4.5
X4.7Y-4.4
X5.4Y-4.9
X6.5Y-4.2
X3.7Y-4.1
X8.5Y-3.5
X4.1Y-3.9
X8.Y-3.9
X8.8Y-3.3
X2.65Y-5.
X8.7Y-5.1
X5.3Y-4.4
X2.9Y-4.9
X8.8Y-4.2
X5.3Y-4.1
X9.05Y-5.1
X3.6Y-3.6
X5.6Y-3.9
X7.6Y-3.9
X8.7Y-3.4
X2.75Y-5.1
X5.9Y-3.7
X5.1Y-3.7
X4.1Y-4.4
X5.6Y-4.9
X7.6Y-4.2
X4.3Y-4.1
X4.2Y-4.7
X7.5Y-3.6
X5.1Y-3.9
X3.4Y-4.
X2.9Y-3.5
X9.15Y-3.2
X6.2Y-3.7
X5.Y-3.7
X5.5Y-4.1
X9.05Y-4.9
X5.6Y-4.7
X3.8Y-3.7
X6.5Y-3.9
X5.Y-4.
X8.4Y-3.4
X2.65Y-3.4
X6.4Y-4.1
X5.1Y-4.7
X4.2Y-3.7
X6.Y-3.9
X4.7Y-4.
X7.7Y-3.4
X7.2Y-4.1
X6.Y-4.7
X8.8Y-4.5
X4.4Y-3.6
X6.3Y-4.
X4.5Y-3.4
X6.9Y-4.1
X7.1Y-4.7
X3.5Y-4.6
X8.3Y-3.6
X8.6Y-4.
X5.975Y-3.35
X7.6Y-4.4
X8.3Y-4.8
X3.1Y-4.2
X8.Y-4.7
X4.Y-4.6
X4.3Y-3.7
X6.8Y-4.
X5.075Y-3.508
X4.3Y-5.
X3.3Y-4.5
X6.7Y-4.3
X6.1Y-4.8
X7.1Y-4.1
X3.2Y-4.8
X4.8Y-4.6
X7.4Y-3.7
X8.1Y-4.
X7.025Y-3.2
X3.9Y-5.1
X8.5Y-5.
X2.9Y-5.
X3.1Y-4.5
X6.3Y-4.3
X5.8Y-4.8
X5.6Y-4.2
X8.9Y-4.7
X6.2Y-4.6
X8.6Y-3.7
X7.9Y-4.
X5.375Y-3.35
X7.7Y-5.1
X4.2Y-5.
X6.5Y-4.9
X9.05Y-3.8
X4.Y-4.5
X7.4Y-4.3
X7.5Y-4.8
X4.5Y-4.2
X7.7Y-4.7
X8.5Y-4.6
X3.5Y-3.8
X5.9Y-4.
X3.Y-3.2
X2.65Y-4.6
X5.2Y-5.1
X4.4Y-5.1
X8.3Y-5.
X8.3Y-4.9
X9.05Y-3.7
X4.6Y-4.5
X2.9Y-4.4
X7.2Y-4.8
X4.7Y-4.2
X4.2Y-4.8
X3.1Y-4.7
X6.2Y-3.8
X3.8Y-3.5
X8.4Y-3.8
X7.5Y-3.2
X2.9Y-3.3
X2.65Y-4.1
X4.9Y-5.1
X8.2Y-5.
X7.Y-4.9
X5.4Y-4.5
X8.3Y-4.3
X5.5Y-4.2
X8.4Y-4.6
X6.1Y-3.8
X7.2Y-3.5
X2.9Y-3.9
X2.65Y-3.2
X3.1Y-3.3
X2.65Y-3.8
X8.2Y-4.9
X8.5Y-4.5
X3.7Y-4.4
X4.4Y-4.9
X8.2Y-4.2
X4.3Y-4.3
X6.8Y-4.6
X6.5Y-3.8
X4.6Y-3.5
X8.Y-3.8
X7.7Y-3.2
X8.4Y-3.3
X8.Y-4.5
X3.9Y-4.4
X3.1Y-4.9
X3.9Y-4.3
X4.6Y-4.3
X6.1Y-4.6
X6.9Y-3.8
X8.3Y-3.5
X8.7Y-3.8
X8.Y-3.2
X4.5Y-3.3
X3.9Y-4.5
X5.4Y-4.4
X5.7Y-4.9
X7.4Y-4.2
X5.5Y-4.3
X3.4Y-3.8
X7.8Y-3.5
X7.Y-3.9
X9.05Y-3.2
X7.8Y-3.3
X8.Y-5.1
X7.9Y-4.5
X5.9Y-4.4
X3.3Y-4.9
X3.6Y-4.3
X4.Y-4.1
X3.3Y-3.6
X4.3Y-3.9
X8.7Y-3.9
X8.9Y-3.3
X2.65Y-5.1
X8.3Y-5.1
X6.3Y-4.4
X5.9Y-4.9
X3.1Y-4.3
X3.6Y-4.1
X9.05Y-4.8
X3.5Y-3.6
X5.5Y-3.9
X8.8Y-3.9
X3.4Y-3.4
X2.65Y-4.8
X5.35Y-5.1
X4.7Y-3.7
X6.7Y-4.4
X8.9Y-4.8
X7.5Y-4.2
X4.5Y-4.1
X9.05Y-5.
X4.5Y-4.7
X7.6Y-3.6
X7.2Y-3.9
X3.5Y-4.
X3.9Y-3.4
X2.75Y-4.8
X5.8Y-3.7
X4.8Y-3.7
X5.6Y-4.1
X9.15Y-4.9
X6.3Y-4.7
X3.5Y-3.7
X7.1Y-3.9
X4.2Y-4.
X8.5Y-3.4
X2.65Y-3.6
X8.6Y-4.1
X5.3Y-4.7
X8.Y-3.6
X5.9Y-3.9
X4.8Y-4.
X3.1Y-3.5
X8.7Y-4.1
X6.1Y-4.7
X3.1Y-4.6
X8.9Y-3.6
X6.5Y-4.
X8.1Y-3.4
X7.6Y-4.1
X7.2Y-4.7
X3.6Y-4.6
X7.9Y-3.6
X5.7Y-4.
X5.975Y-3.508
X7.5Y-4.4
X5.1Y-4.8
X3.2Y-4.2
X3.5Y-4.8
X4.1Y-4.6
X7.7Y-3.7
X7.3Y-4.
X5.525Y-3.35
X3.8Y-5.
X8.4Y-4.4
X6.5Y-4.3
X4.9Y-4.8
X8.1Y-4.1
X8.3Y-4.7
X5.Y-4.6
X7.5Y-3.7
X8.2Y-4.
X6.425Y-3.35
X4.5Y-5.1
X8.8Y-5.
X8.9Y-4.9
X3.6Y-4.5
X8.6Y-4.3
X7.3Y-4.8
X5.9Y-4.2
X6.275Y-3.508
X3.7Y-4.8
X6.6Y-4.6
X8.Y-3.7
X6.4Y-4.
X6.275Y-3.2
X3.6Y-5.1
X8.1Y-5.
X7.6Y-4.9
X9.05Y-4.1
X4.7Y-4.5
X7.1Y-4.3
X8.4Y-4.8
X4.2Y-4.2
X3.3Y-4.8
X7.Y-4.6
X3.7Y-3.8
X3.Y-4.1
X3.6Y-3.2
X3.3Y-3.3
X2.65Y-4.2
X5.05Y-5.1
X7.5Y-5.1
X8.6Y-5.
X8.6Y-4.9
X9.15Y-3.8
X4.8Y-4.5
X7.5Y-4.3
X5.9Y-4.8
X4.8Y-4.2
X4.5Y-4.8
X8.8Y-4.6
X5.8Y-3.8
X3.9Y-3.5
X3.2Y-3.9
X7.6Y-3.2
X3.6Y-3.3
X2.75Y-4.4
X6.Y-5.1
X3.Y-5.1
X3.Y-5.
X5.7Y-4.5
X8.9Y-4.3
X5.8Y-4.2
X7.6Y-4.6
X5.7Y-3.8
X4.4Y-3.5
X7.3Y-3.8
X2.9Y-3.2
X3.4Y-3.3
X3.4Y-5.
X5.9Y-4.5
X6.2Y-4.4
X3.Y-4.9
X7.Y-4.2
X4.7Y-4.3
X3.4Y-4.7
X4.9Y-3.8
X7.5Y-3.5
X8.2Y-3.8
X7.4Y-3.2
X7.7Y-3.3
X8.2Y-4.5
X5.1Y-4.4
X4.Y-4.9
X7.8Y-4.2
X5.3Y-4.3
X6.5Y-4.6
X4.4Y-3.8
X2.9Y-3.6
X8.9Y-3.8
X4.6Y-3.2
X8.6Y-3.3
X8.6Y-5.1
X7.6Y-4.5
X4.2Y-4.4
X4.8Y-4.9
X3.5Y-4.3
X5.8Y-4.3
X3.6Y-3.8
X3.2Y-3.6
X6.3Y-3.9
X7.8Y-3.9
X8.5Y-3.3
X6.45Y-5.1
X6.9Y-4.5
X6.4Y-4.4
X8.5Y-4.8
X3.Y-4.3
X3.5Y-4.1
X4.Y-3.6
X4.6Y-3.9
X8.2Y-3.9
X3.Y-3.4
X9.05Y-3.3
X6.6Y-5.1
X6.8Y-3.7
X7.Y-4.4
X8.7Y-4.8
X3.3Y-4.3
X4.1Y-4.1
X9.15Y-4.6
X4.1Y-3.6
X6.6Y-3.9
X7.7Y-3.9
X3.5Y-3.4
X9.15Y-3.5
X7.1Y-3.7
X5.2Y-3.7
X5.5Y-4.4
X4.7Y-4.1
X4.Y-4.7
X8.1Y-3.6
X5.2Y-3.9
X3.7Y-4.
X7.6Y-3.4
X2.75Y-5.
X5.7Y-3.7
X2.75Y-3.2
X5.9Y-4.1
X9.05Y-4.7
X4.8Y-4.7
X3.6Y-3.7
X7.3Y-3.9
X5.6Y-4.
X3.2Y-3.5
X5.4Y-3.7
X3.6Y-4.2
X5.5Y-4.7
X3.Y-4.6
X8.5Y-3.6
X5.2Y-4.
X7.9Y-3.4
X8.4Y-4.1
X6.4Y-4.7
X8.9Y-4.5
X3.1Y-3.7
X7.1Y-4.
X2.9Y-3.4
X7.8Y-4.4
X7.8Y-4.1
X7.5Y-4.7
X5.3Y-4.6
X7.3Y-3.6
X3.1Y-4.
X5.825Y-3.508
X8.1Y-4.4
X5.3Y-4.8
X3.4Y-4.2
X6.725Y-3.508
X3.Y-4.8
X4.2Y-4.6
X4.4Y-3.7
X7.2Y-4.
X5.675Y-3.35
X3.9Y-5.
X3.2Y-4.5
X7.Y-4.3
X5.Y-4.8
X5.8Y-4.1
X8.4Y-4.7
X5.2Y-4.6
X7.6Y-3.7
X3.3Y-4.1
X6.875Y-3.2
X4.Y-5.1
X4.5Y-5.
X7.1Y-4.9
X9.05Y-4.
X3.7Y-4.5
X3.4Y-4.4
X6.2Y-4.8
X3.7Y-4.2
X4.3Y-4.8
X7.7Y-4.6
X8.2Y-3.7
X7.Y-4.
X5.975Y-3.2
X4.1Y-5.1
X7.3Y-5.
X8.4Y-4.9
X9.15Y-4.
X4.1Y-4.5
X7.7Y-4.3
X8.2Y-4.8
X4.3Y-4.2
X7.4Y-4.7
X3.3Y-4.7
X4.1Y-3.8
X6.7Y-4.
X3.7Y-3.2
X3.8Y-3.3
X2.65Y-4.3
X4.75Y-5.1
X7.3Y-5.1
X3.1Y-5.1
X8.8Y-4.9
X9.05Y-3.9
X4.9Y-4.5
X7.6Y-4.3
X6.Y-4.8
X5.7Y-4.2
X2.9Y-4.8
X7.3Y-4.6
X4.Y-3.8
X4.Y-3.5
X7.6Y-3.8
X7.9Y-3.2
X3.Y-3.3
X2.75Y-4.1
X3.5Y-5.
X7.4Y-4.9
X5.8Y-4.5
X3.3Y-4.4
X6.1Y-4.2
X8.Y-4.6
X6.4Y-3.8
X7.3Y-3.5
X3.1Y-3.9
X3.1Y-3.2
X8.4Y-3.2
X6.2Y-4.9
X6.3Y-4.5
X4.6Y-4.4
X3.4Y-4.9
X7.2Y-4.2
X4.9Y-4.3
X5.9Y-4.6
X4.6Y-3.8
X3.6Y-3.5
X8.1Y-3.8
X3.4Y-3.2
X4.4Y-3.3
X6.1Y-4.5
X5.7Y-4.4
X3.5Y-4.9
X8.4Y-4.2
X5.6Y-4.3
X8.3Y-4.6
X5.4Y-3.8
X3.4Y-3.6
X3.Y-3.9
X3.5Y-3.2
X4.6Y-3.3
X8.4Y-5.1
X6.6Y-4.5
X4.5Y-4.4
X5.1Y-4.9
X8.1Y-4.2
X4.Y-4.3
X3.8Y-3.8
X7.9Y-3.5
X3.8Y-3.9
X7.9Y-3.9
X8.2Y-3.3
X8.2Y-5.1
X7.3Y-4.5
X6.5Y-4.4
X3.6Y-4.9
X6.6Y-4.2
X3.8Y-4.1
X8.6Y-3.5
X4.4Y-3.9
X3.Y-4.
X3.1Y-3.4
X9.15Y-3.4
X6.3Y-5.1
X6.5Y-3.7
X5.6Y-4.4
X5.3Y-4.9
X6.Y-4.2
X4.2Y-4.1
X3.7Y-4.7
X4.3Y-3.6
X5.8Y-3.9
X8.4Y-3.9
X4.4Y-3.4
X2.65Y-4.9
X7.Y-3.7
X2.75Y-3.5
X5.7Y-4.1
X9.05Y-4.6
X4.1Y-4.7
X3.9Y-3.7
X6.2Y-3.9
X4.6Y-4.
X3.Y-3.5
X6.9Y-3.7
X2.65Y-3.5
X6.Y-4.1
X5.9Y-4.7
X4.Y-3.7
X6.8Y-3.9
X4.3Y-4.
X8.6Y-3.4
X6.2Y-4.1
X5.7Y-4.7
X3.3Y-4.6
X8.7Y-3.6
X5.3Y-4.
X8.8Y-3.4
X8.5Y-4.1
X6.6Y-4.7
X2.9Y-4.6
X7.8Y-3.6
X6.9Y-4.
X3.8Y-3.4
X7.9Y-4.4
X6.7Y-4.1
X7.6Y-4.7
X3.7Y-4.6
X4.2Y-3.6
X3.2Y-4.
X5.675Y-3.508
X7.6Y-5.
X7.7Y-4.4
X5.4Y-4.8
X3.5Y-4.2
X4.8Y-4.8
X4.3Y-4.6
X4.5Y-3.7
X3.8Y-4.
X6.725Y-3.2
X4.1Y-5.
X8.7Y-4.4
X6.4Y-4.3
X7.1Y-4.8
X7.7Y-4.1
X4.Y-4.8
X5.5Y-4.6
X7.9Y-3.7
X8.8Y-4.
X6.275Y-3.35
X3.7Y-5.1
X7.5Y-5.
X7.9Y-4.9
X9.05Y-4.3
X3.Y-4.5
X8.2Y-4.3
X5.6Y-4.8
X3.8Y-4.2
X4.6Y-4.8
X8.9Y-4.6
X8.8Y-3.7
X7.5Y-4.
X5.675Y-3.2
X4.2Y-5.1
X4.4Y-5.
X7.8Y-4.9
X9.15Y-4.1
X4.2Y-4.5
X8.8Y-4.3
X8.Y-4.8
X4.9Y-4.2
X6.5Y-4.7
X7.1Y-4.6
X3.9Y-3.8
X7.4Y-4.
X3.8Y-3.2
X8.7Y-3.2
X2.75Y-3.9
X5.65Y-5.1
X3.5Y-5.1
X3.3Y-5.1
X7.2Y-4.9
X9.15Y-3.9
X5.Y-4.5
X7.8Y-4.3
X6.3Y-4.8
X5.Y-4.2
X4.4Y-4.8
X3.2Y-4.7
X5.1Y-3.8
X4.2Y-3.5
X7.1Y-3.8
X8.1Y-3.2
X3.9Y-3.3
X2.65Y-4.4
X7.9Y-5.
X6.8Y-4.9
X6.Y-4.5
X8.4Y-4.3
X6.2Y-4.2
X8.7Y-4.6
X5.6Y-3.8
X4.1Y-3.5
X7.4Y-3.8
X7.2Y-3.2
X8.5Y-3.2
X6.6Y-4.9
X8.3Y-4.5
X5.Y-4.4
X3.9Y-4.9
X8.3Y-4.2
X4.8Y-4.3
X5.4Y-4.6
X4.7Y-3.8
X3.9Y-3.6
X3.3Y-3.9
X4.5Y-3.2
X8.Y-3.3
X7.Y-4.5
X5.8Y-4.4
X4.1Y-4.9
X2.9Y-4.3
X5.7Y-4.3
X8.6Y-4.6
X8.7Y-3.7
X3.7Y-3.6
X3.5Y-3.9
X5.825Y-3.2
X7.2Y-3.3
X8.1Y-5.1
X7.5Y-4.5
X7.2Y-4.4
X5.2Y-4.9
X8.9Y-4.2
X5.9Y-4.3
X5.Y-3.8
X8.1Y-3.5
X5.7Y-3.9
X8.3Y-3.9
X7.9Y-3.3
X7.05Y-5.1
X7.4Y-4.5
X6.6Y-4.4
X3.8Y-4.9
X7.7Y-4.2
X3.9Y-4.1
X8.7Y-3.5
X6.7Y-3.9
X8.1Y-3.9
X3.2Y-3.4
X9.05Y-3.4
X8.9Y-5.1
X6.3Y-3.7
X6.8Y-4.4
X8.8Y-4.8
X7.9Y-4.2
X4.8Y-4.1
X9.05Y-4.5
X3.8Y-4.7
X4.6Y-3.6
X4.8Y-3.9
X8.6Y-3.9
X4.6Y-3.4
X9.15Y-3.3
X6.6Y-3.7
X2.75Y-3.3
X4.9Y-4.1
X9.15Y-4.7
X4.4Y-4.7
X7.7Y-3.6
X6.1Y-3.9
X3.9Y-4.
X4.2Y-3.4
X6.7Y-3.7
X2.75Y-3.6
X6.3Y-4.1
X4.9Y-4.7
X8.2Y-3.6
X3.4Y-3.9
X4.4Y-4.
X3.6Y-3.4
X6.5Y-4.1
X5.4Y-4.7
X3.2Y-4.6
X8.8Y-3.6
X5.4Y-4.
X3.7Y-3.4
X8.9Y-4.1
X6.125Y-3.508
X6.8Y-4.7
X3.4Y-4.6
X3.2Y-3.7
X8.7Y-4.
X4.1Y-3.4
X8.Y-4.4
X7.4Y-4.1
X6.425Y-3.508
X8.7Y-4.7
X4.4Y-4.6
X4.5Y-3.6
X3.6Y-4.
X5.525Y-3.508
X8.4Y-5.
X8.9Y-4.4
X7.9Y-4.8
X8.Y-4.1
X8.1Y-4.7
X4.5Y-4.6
X4.6Y-3.7
X5.1Y-4.
X6.425Y-3.2
X7.7Y-5.
X3.4Y-4.5
X6.9Y-4.3
X5.2Y-4.8
X8.2Y-4.1
X8.5Y-4.7
X5.6Y-4.6
X7.8Y-3.7
X6.Y-4.
X6.125Y-3.35
X4.6Y-5.1
X8.7Y-5.
X3.1Y-5.
X9.15Y-4.4
X3.8Y-4.5
X8.5Y-4.3
X5.7Y-4.8
X3.9Y-4.2
X6.575Y-3.508
X6.7Y-4.7
X6.3Y-4.6
X2.9Y-3.8
X8.5Y-4.
X5.375Y-3.2
X2.75Y-4.3
X7.2Y-5.1
X3.2Y-5.1
X7.5Y-4.9
X9.05Y-4.4
X4.3Y-4.5
X3.1Y-4.4
X6.8Y-4.8
X5.2Y-4.2
X3.1Y-4.8
X7.8Y-4.6
X4.8Y-3.8
X8.4Y-4.
X4.1Y-3.2
X8.9Y-3.2
X2.65Y-4.
X5.8Y-5.1
X8.9Y-5.
X7.7Y-4.9
X9.05Y-4.2
X6.5Y-4.5
X7.9Y-4.3
X6.9Y-4.8
X5.1Y-4.2
X7.8Y-4.7
X3.6Y-4.7
X5.2Y-3.8
X4.3Y-3.5
X7.8Y-3.8
X8.2Y-3.2
X4.Y-3.3
X2.75Y-4.2
X8.7Y-4.9
X6.2Y-4.5
X3.Y-4.4
X6.3Y-4.2
X4.1Y-4.3
X3.5Y-4.7
X4.2Y-3.8
X3.3Y-3.5
X7.5Y-3.8
X3.2Y-3.2
X8.6Y-3.2
X6.9Y-4.9
X5.3Y-4.5
X7.3Y-4.4
X4.7Y-4.9
X8.6Y-4.2
X5.4Y-4.3
X2.9Y-4.7
X5.9Y-3.8
X8.9Y-3.5
X8.3Y-3.8
X4.4Y-3.2
X4.1Y-3.3
X8.4Y-4.5
X6.1Y-4.4
X4.3Y-4.9
X8.Y-4.2
X6.1Y-4.3
X3.Y-4.7
X8.9Y-3.7
X3.8Y-3.6
X3.7Y-3.9
X5.525Y-3.2
X7.5Y-3.3
X6.75Y-5.1
X8.1Y-4.5
X4.3Y-4.4
X5.Y-4.9
X7.3Y-4.2
X4.5Y-4.3
X6.Y-3.8
X8.8Y-3.5
X3.9Y-3.9
X8.9Y-3.9
X8.1Y-3.3
X6.9Y-5.1
X5.1Y-4.5
X4.9Y-4.4
X8.6Y-4.8
X8.5Y-4.2
X5.2Y-4.1
X3.Y-3.6
X4.5Y-3.9
X7.4Y-3.9
X3.3Y-3.4
X9.05Y-3.5
X8.5Y-5.1
X5.6Y-3.7
X6.Y-4.4
X3.7Y-4.9
X3.4Y-4.3
X5.1Y-4.1
X9.15Y-4.5
X3.9Y-4.7
X7.2Y-3.6
X4.9Y-3.9
X2.9Y-4.
X8.3Y-3.4
X2.75Y-4.6
X6.4Y-3.7
T3
X4.97Y-5.322
X5.07Y-5.322
X5.17Y-5.322
X5.27Y-5.322
X5.37Y-5.322
X5.47Y-5.322
X5.57Y-5.322
X5.67Y-5.322
X4.951Y-2.92
X4.951Y-3.02
X5.051Y-2.92
X5.051Y-3.02
X5.151Y-2.92
X5.151Y-3.02
X5.251Y-2.92
X5.251Y-3.02
X5.351Y-2.92
X5.351Y-3.02
X5.451Y-2.92
X5.451Y-3.02
X5.551Y-2.92
X5.551Y-3.02
X5.651Y-2.92
X5.651Y-3.02
X5.751Y-2.92
X5.751Y-3.02
X5.851Y-2.92
X5.851Y-3.02
X5.951Y-2.92
X5.951Y-3.02
X6.051Y-2.92
X6.051Y-3.02
X6.151Y-2.92
X6.151Y-3.02
X6.251Y-2.92
X6.251Y-3.02
X6.351Y-2.92
X6.351Y-3.02
X6.451Y-2.92
X6.451Y-3.02
X6.551Y-2.92
X6.551Y-3.02
X6.651Y-2.92
X6.651Y-3.02
X6.751Y-2.92
X6.751Y-3.02
X6.851Y-2.92
X6.851Y-3.02
X6.13Y-5.322
X6.23Y-5.322
X6.33Y-5.322
X6.43Y-5.322
X6.53Y-5.322
X6.63Y-5.322
X6.73Y-5.322
X6.83Y-5.322
T4
X8.2Y-2.8
X3.6Y-5.4
X8.7Y-2.8
X4.1Y-2.8
X9.2Y-5.4
X2.6Y-2.8
X2.6Y-5.4
X3.1Y-2.8
X4.1Y-5.4
X7.7Y-2.8
X8.2Y-5.4
X3.6Y-2.8
X7.2Y-5.4
X4.6Y-5.4
X7.7Y-5.4
X7.2Y-2.8
X8.7Y-5.4
X4.6Y-2.8
X9.2Y-2.8
X3.1Y-5.4
T0
M30
