%TF.GenerationSoftware,KiCad,Pcbnew,(5.0.0)*%
%TF.CreationDate,2018-10-23T17:21:25+02:00*%
%TF.ProjectId,S80 Breakout 7in,53383020427265616B6F75742037696E,1.0*%
%TF.SameCoordinates,Original*%
%TF.FileFunction,Legend,Top*%
%TF.FilePolarity,Positive*%
%FSLAX46Y46*%
G04 Gerber Fmt 4.6, Leading zero omitted, Abs format (unit mm)*
G04 Created by KiCad (PCBNEW (5.0.0)) date 10/23/18 17:21:25*
%MOMM*%
%LPD*%
G01*
G04 APERTURE LIST*
%ADD10C,0.200000*%
%ADD11C,0.150000*%
%ADD12C,0.063500*%
%ADD13C,0.250000*%
%ADD14C,0.120000*%
%ADD15C,0.100000*%
G04 APERTURE END LIST*
D10*
X162052000Y-91440000D02*
X180975000Y-91440000D01*
D11*
X138963142Y-91332857D02*
X139177428Y-91404285D01*
X139248857Y-91475714D01*
X139320285Y-91618571D01*
X139320285Y-91832857D01*
X139248857Y-91975714D01*
X139177428Y-92047142D01*
X139034571Y-92118571D01*
X138463142Y-92118571D01*
X138463142Y-90618571D01*
X138963142Y-90618571D01*
X139106000Y-90690000D01*
X139177428Y-90761428D01*
X139248857Y-90904285D01*
X139248857Y-91047142D01*
X139177428Y-91190000D01*
X139106000Y-91261428D01*
X138963142Y-91332857D01*
X138463142Y-91332857D01*
X139963142Y-92118571D02*
X139963142Y-91118571D01*
X139963142Y-91404285D02*
X140034571Y-91261428D01*
X140106000Y-91190000D01*
X140248857Y-91118571D01*
X140391714Y-91118571D01*
X141463142Y-92047142D02*
X141320285Y-92118571D01*
X141034571Y-92118571D01*
X140891714Y-92047142D01*
X140820285Y-91904285D01*
X140820285Y-91332857D01*
X140891714Y-91190000D01*
X141034571Y-91118571D01*
X141320285Y-91118571D01*
X141463142Y-91190000D01*
X141534571Y-91332857D01*
X141534571Y-91475714D01*
X140820285Y-91618571D01*
X142820285Y-92118571D02*
X142820285Y-91332857D01*
X142748857Y-91190000D01*
X142606000Y-91118571D01*
X142320285Y-91118571D01*
X142177428Y-91190000D01*
X142820285Y-92047142D02*
X142677428Y-92118571D01*
X142320285Y-92118571D01*
X142177428Y-92047142D01*
X142106000Y-91904285D01*
X142106000Y-91761428D01*
X142177428Y-91618571D01*
X142320285Y-91547142D01*
X142677428Y-91547142D01*
X142820285Y-91475714D01*
X143534571Y-92118571D02*
X143534571Y-90618571D01*
X143677428Y-91547142D02*
X144106000Y-92118571D01*
X144106000Y-91118571D02*
X143534571Y-91690000D01*
X144963142Y-92118571D02*
X144820285Y-92047142D01*
X144748857Y-91975714D01*
X144677428Y-91832857D01*
X144677428Y-91404285D01*
X144748857Y-91261428D01*
X144820285Y-91190000D01*
X144963142Y-91118571D01*
X145177428Y-91118571D01*
X145320285Y-91190000D01*
X145391714Y-91261428D01*
X145463142Y-91404285D01*
X145463142Y-91832857D01*
X145391714Y-91975714D01*
X145320285Y-92047142D01*
X145177428Y-92118571D01*
X144963142Y-92118571D01*
X146748857Y-91118571D02*
X146748857Y-92118571D01*
X146106000Y-91118571D02*
X146106000Y-91904285D01*
X146177428Y-92047142D01*
X146320285Y-92118571D01*
X146534571Y-92118571D01*
X146677428Y-92047142D01*
X146748857Y-91975714D01*
X147248857Y-91118571D02*
X147820285Y-91118571D01*
X147463142Y-90618571D02*
X147463142Y-91904285D01*
X147534571Y-92047142D01*
X147677428Y-92118571D01*
X147820285Y-92118571D01*
X149320285Y-90618571D02*
X150320285Y-90618571D01*
X149677428Y-92118571D01*
X152034571Y-92118571D02*
X152034571Y-91118571D01*
X152034571Y-90618571D02*
X151963142Y-90690000D01*
X152034571Y-90761428D01*
X152106000Y-90690000D01*
X152034571Y-90618571D01*
X152034571Y-90761428D01*
X152748857Y-91118571D02*
X152748857Y-92118571D01*
X152748857Y-91261428D02*
X152820285Y-91190000D01*
X152963142Y-91118571D01*
X153177428Y-91118571D01*
X153320285Y-91190000D01*
X153391714Y-91332857D01*
X153391714Y-92118571D01*
X154748857Y-92047142D02*
X154606000Y-92118571D01*
X154320285Y-92118571D01*
X154177428Y-92047142D01*
X154106000Y-91975714D01*
X154034571Y-91832857D01*
X154034571Y-91404285D01*
X154106000Y-91261428D01*
X154177428Y-91190000D01*
X154320285Y-91118571D01*
X154606000Y-91118571D01*
X154748857Y-91190000D01*
X155391714Y-92118571D02*
X155391714Y-90618571D01*
X156034571Y-92118571D02*
X156034571Y-91332857D01*
X155963142Y-91190000D01*
X155820285Y-91118571D01*
X155606000Y-91118571D01*
X155463142Y-91190000D01*
X155391714Y-91261428D01*
X158677428Y-92118571D02*
X157820285Y-92118571D01*
X158248857Y-92118571D02*
X158248857Y-90618571D01*
X158106000Y-90832857D01*
X157963142Y-90975714D01*
X157820285Y-91047142D01*
X159320285Y-91975714D02*
X159391714Y-92047142D01*
X159320285Y-92118571D01*
X159248857Y-92047142D01*
X159320285Y-91975714D01*
X159320285Y-92118571D01*
X160320285Y-90618571D02*
X160463142Y-90618571D01*
X160606000Y-90690000D01*
X160677428Y-90761428D01*
X160748857Y-90904285D01*
X160820285Y-91190000D01*
X160820285Y-91547142D01*
X160748857Y-91832857D01*
X160677428Y-91975714D01*
X160606000Y-92047142D01*
X160463142Y-92118571D01*
X160320285Y-92118571D01*
X160177428Y-92047142D01*
X160106000Y-91975714D01*
X160034571Y-91832857D01*
X159963142Y-91547142D01*
X159963142Y-91190000D01*
X160034571Y-90904285D01*
X160106000Y-90761428D01*
X160177428Y-90690000D01*
X160320285Y-90618571D01*
D10*
X118745000Y-91440000D02*
X118745000Y-80010000D01*
X180975000Y-91440000D02*
X180975000Y-80010000D01*
X118745000Y-91440000D02*
X137160000Y-91440000D01*
X227965000Y-80010000D02*
X227965000Y-130810000D01*
X180975000Y-126365000D02*
X180975000Y-130810000D01*
X118745000Y-126365000D02*
X118745000Y-130810000D01*
X71755000Y-130810000D02*
X71755000Y-80010000D01*
X118745000Y-126365000D02*
X180975000Y-126365000D01*
D12*
X229496105Y-77835880D02*
X229919439Y-79486880D01*
X230342772Y-77835880D01*
X231491820Y-79329642D02*
X231431344Y-79408261D01*
X231249915Y-79486880D01*
X231128963Y-79486880D01*
X230947534Y-79408261D01*
X230826582Y-79251023D01*
X230766105Y-79093785D01*
X230705629Y-78779309D01*
X230705629Y-78543452D01*
X230766105Y-78228976D01*
X230826582Y-78071738D01*
X230947534Y-77914500D01*
X231128963Y-77835880D01*
X231249915Y-77835880D01*
X231431344Y-77914500D01*
X231491820Y-77993119D01*
X232761820Y-79329642D02*
X232701344Y-79408261D01*
X232519915Y-79486880D01*
X232398963Y-79486880D01*
X232217534Y-79408261D01*
X232096582Y-79251023D01*
X232036105Y-79093785D01*
X231975629Y-78779309D01*
X231975629Y-78543452D01*
X232036105Y-78228976D01*
X232096582Y-78071738D01*
X232217534Y-77914500D01*
X232398963Y-77835880D01*
X232519915Y-77835880D01*
X232701344Y-77914500D01*
X232761820Y-77993119D01*
X67540867Y-77914500D02*
X67419915Y-77835880D01*
X67238486Y-77835880D01*
X67057058Y-77914500D01*
X66936105Y-78071738D01*
X66875629Y-78228976D01*
X66815153Y-78543452D01*
X66815153Y-78779309D01*
X66875629Y-79093785D01*
X66936105Y-79251023D01*
X67057058Y-79408261D01*
X67238486Y-79486880D01*
X67359439Y-79486880D01*
X67540867Y-79408261D01*
X67601344Y-79329642D01*
X67601344Y-78779309D01*
X67359439Y-78779309D01*
X68145629Y-79486880D02*
X68145629Y-77835880D01*
X68871344Y-79486880D01*
X68871344Y-77835880D01*
X69476105Y-79486880D02*
X69476105Y-77835880D01*
X69778486Y-77835880D01*
X69959915Y-77914500D01*
X70080867Y-78071738D01*
X70141344Y-78228976D01*
X70201820Y-78543452D01*
X70201820Y-78779309D01*
X70141344Y-79093785D01*
X70080867Y-79251023D01*
X69959915Y-79408261D01*
X69778486Y-79486880D01*
X69476105Y-79486880D01*
X235323894Y-82026880D02*
X234598179Y-82026880D01*
X234961036Y-82026880D02*
X234961036Y-80375880D01*
X234840084Y-80611738D01*
X234719132Y-80768976D01*
X234598179Y-80847595D01*
X234598179Y-83073119D02*
X234658655Y-82994500D01*
X234779608Y-82915880D01*
X235081989Y-82915880D01*
X235202941Y-82994500D01*
X235263417Y-83073119D01*
X235323894Y-83230357D01*
X235323894Y-83387595D01*
X235263417Y-83623452D01*
X234537703Y-84566880D01*
X235323894Y-84566880D01*
X234537703Y-85455880D02*
X235323894Y-85455880D01*
X234900560Y-86084833D01*
X235081989Y-86084833D01*
X235202941Y-86163452D01*
X235263417Y-86242071D01*
X235323894Y-86399309D01*
X235323894Y-86792404D01*
X235263417Y-86949642D01*
X235202941Y-87028261D01*
X235081989Y-87106880D01*
X234719132Y-87106880D01*
X234598179Y-87028261D01*
X234537703Y-86949642D01*
X235202941Y-88546214D02*
X235202941Y-89646880D01*
X234900560Y-87917261D02*
X234598179Y-89096547D01*
X235384370Y-89096547D01*
X235263417Y-90535880D02*
X234658655Y-90535880D01*
X234598179Y-91322071D01*
X234658655Y-91243452D01*
X234779608Y-91164833D01*
X235081989Y-91164833D01*
X235202941Y-91243452D01*
X235263417Y-91322071D01*
X235323894Y-91479309D01*
X235323894Y-91872404D01*
X235263417Y-92029642D01*
X235202941Y-92108261D01*
X235081989Y-92186880D01*
X234779608Y-92186880D01*
X234658655Y-92108261D01*
X234598179Y-92029642D01*
X235202941Y-93075880D02*
X234961036Y-93075880D01*
X234840084Y-93154500D01*
X234779608Y-93233119D01*
X234658655Y-93468976D01*
X234598179Y-93783452D01*
X234598179Y-94412404D01*
X234658655Y-94569642D01*
X234719132Y-94648261D01*
X234840084Y-94726880D01*
X235081989Y-94726880D01*
X235202941Y-94648261D01*
X235263417Y-94569642D01*
X235323894Y-94412404D01*
X235323894Y-94019309D01*
X235263417Y-93862071D01*
X235202941Y-93783452D01*
X235081989Y-93704833D01*
X234840084Y-93704833D01*
X234719132Y-93783452D01*
X234658655Y-93862071D01*
X234598179Y-94019309D01*
X234537703Y-95615880D02*
X235384370Y-95615880D01*
X234840084Y-97266880D01*
X234840084Y-98863452D02*
X234719132Y-98784833D01*
X234658655Y-98706214D01*
X234598179Y-98548976D01*
X234598179Y-98470357D01*
X234658655Y-98313119D01*
X234719132Y-98234500D01*
X234840084Y-98155880D01*
X235081989Y-98155880D01*
X235202941Y-98234500D01*
X235263417Y-98313119D01*
X235323894Y-98470357D01*
X235323894Y-98548976D01*
X235263417Y-98706214D01*
X235202941Y-98784833D01*
X235081989Y-98863452D01*
X234840084Y-98863452D01*
X234719132Y-98942071D01*
X234658655Y-99020690D01*
X234598179Y-99177928D01*
X234598179Y-99492404D01*
X234658655Y-99649642D01*
X234719132Y-99728261D01*
X234840084Y-99806880D01*
X235081989Y-99806880D01*
X235202941Y-99728261D01*
X235263417Y-99649642D01*
X235323894Y-99492404D01*
X235323894Y-99177928D01*
X235263417Y-99020690D01*
X235202941Y-98942071D01*
X235081989Y-98863452D01*
X234719132Y-102346880D02*
X234961036Y-102346880D01*
X235081989Y-102268261D01*
X235142465Y-102189642D01*
X235263417Y-101953785D01*
X235323894Y-101639309D01*
X235323894Y-101010357D01*
X235263417Y-100853119D01*
X235202941Y-100774500D01*
X235081989Y-100695880D01*
X234840084Y-100695880D01*
X234719132Y-100774500D01*
X234658655Y-100853119D01*
X234598179Y-101010357D01*
X234598179Y-101403452D01*
X234658655Y-101560690D01*
X234719132Y-101639309D01*
X234840084Y-101717928D01*
X235081989Y-101717928D01*
X235202941Y-101639309D01*
X235263417Y-101560690D01*
X235323894Y-101403452D01*
X235323894Y-104886880D02*
X234598179Y-104886880D01*
X234961036Y-104886880D02*
X234961036Y-103235880D01*
X234840084Y-103471738D01*
X234719132Y-103628976D01*
X234598179Y-103707595D01*
X236110084Y-103235880D02*
X236231036Y-103235880D01*
X236351989Y-103314500D01*
X236412465Y-103393119D01*
X236472941Y-103550357D01*
X236533417Y-103864833D01*
X236533417Y-104257928D01*
X236472941Y-104572404D01*
X236412465Y-104729642D01*
X236351989Y-104808261D01*
X236231036Y-104886880D01*
X236110084Y-104886880D01*
X235989132Y-104808261D01*
X235928655Y-104729642D01*
X235868179Y-104572404D01*
X235807703Y-104257928D01*
X235807703Y-103864833D01*
X235868179Y-103550357D01*
X235928655Y-103393119D01*
X235989132Y-103314500D01*
X236110084Y-103235880D01*
X235323894Y-107426880D02*
X234598179Y-107426880D01*
X234961036Y-107426880D02*
X234961036Y-105775880D01*
X234840084Y-106011738D01*
X234719132Y-106168976D01*
X234598179Y-106247595D01*
X236533417Y-107426880D02*
X235807703Y-107426880D01*
X236170560Y-107426880D02*
X236170560Y-105775880D01*
X236049608Y-106011738D01*
X235928655Y-106168976D01*
X235807703Y-106247595D01*
X235323894Y-109966880D02*
X234598179Y-109966880D01*
X234961036Y-109966880D02*
X234961036Y-108315880D01*
X234840084Y-108551738D01*
X234719132Y-108708976D01*
X234598179Y-108787595D01*
X235807703Y-108473119D02*
X235868179Y-108394500D01*
X235989132Y-108315880D01*
X236291513Y-108315880D01*
X236412465Y-108394500D01*
X236472941Y-108473119D01*
X236533417Y-108630357D01*
X236533417Y-108787595D01*
X236472941Y-109023452D01*
X235747227Y-109966880D01*
X236533417Y-109966880D01*
X235323894Y-112506880D02*
X234598179Y-112506880D01*
X234961036Y-112506880D02*
X234961036Y-110855880D01*
X234840084Y-111091738D01*
X234719132Y-111248976D01*
X234598179Y-111327595D01*
X235747227Y-110855880D02*
X236533417Y-110855880D01*
X236110084Y-111484833D01*
X236291513Y-111484833D01*
X236412465Y-111563452D01*
X236472941Y-111642071D01*
X236533417Y-111799309D01*
X236533417Y-112192404D01*
X236472941Y-112349642D01*
X236412465Y-112428261D01*
X236291513Y-112506880D01*
X235928655Y-112506880D01*
X235807703Y-112428261D01*
X235747227Y-112349642D01*
X235323894Y-115046880D02*
X234598179Y-115046880D01*
X234961036Y-115046880D02*
X234961036Y-113395880D01*
X234840084Y-113631738D01*
X234719132Y-113788976D01*
X234598179Y-113867595D01*
X236412465Y-113946214D02*
X236412465Y-115046880D01*
X236110084Y-113317261D02*
X235807703Y-114496547D01*
X236593894Y-114496547D01*
X235323894Y-117586880D02*
X234598179Y-117586880D01*
X234961036Y-117586880D02*
X234961036Y-115935880D01*
X234840084Y-116171738D01*
X234719132Y-116328976D01*
X234598179Y-116407595D01*
X236472941Y-115935880D02*
X235868179Y-115935880D01*
X235807703Y-116722071D01*
X235868179Y-116643452D01*
X235989132Y-116564833D01*
X236291513Y-116564833D01*
X236412465Y-116643452D01*
X236472941Y-116722071D01*
X236533417Y-116879309D01*
X236533417Y-117272404D01*
X236472941Y-117429642D01*
X236412465Y-117508261D01*
X236291513Y-117586880D01*
X235989132Y-117586880D01*
X235868179Y-117508261D01*
X235807703Y-117429642D01*
X235323894Y-120126880D02*
X234598179Y-120126880D01*
X234961036Y-120126880D02*
X234961036Y-118475880D01*
X234840084Y-118711738D01*
X234719132Y-118868976D01*
X234598179Y-118947595D01*
X236412465Y-118475880D02*
X236170560Y-118475880D01*
X236049608Y-118554500D01*
X235989132Y-118633119D01*
X235868179Y-118868976D01*
X235807703Y-119183452D01*
X235807703Y-119812404D01*
X235868179Y-119969642D01*
X235928655Y-120048261D01*
X236049608Y-120126880D01*
X236291513Y-120126880D01*
X236412465Y-120048261D01*
X236472941Y-119969642D01*
X236533417Y-119812404D01*
X236533417Y-119419309D01*
X236472941Y-119262071D01*
X236412465Y-119183452D01*
X236291513Y-119104833D01*
X236049608Y-119104833D01*
X235928655Y-119183452D01*
X235868179Y-119262071D01*
X235807703Y-119419309D01*
X235323894Y-122666880D02*
X234598179Y-122666880D01*
X234961036Y-122666880D02*
X234961036Y-121015880D01*
X234840084Y-121251738D01*
X234719132Y-121408976D01*
X234598179Y-121487595D01*
X235747227Y-121015880D02*
X236593894Y-121015880D01*
X236049608Y-122666880D01*
X235323894Y-125206880D02*
X234598179Y-125206880D01*
X234961036Y-125206880D02*
X234961036Y-123555880D01*
X234840084Y-123791738D01*
X234719132Y-123948976D01*
X234598179Y-124027595D01*
X236049608Y-124263452D02*
X235928655Y-124184833D01*
X235868179Y-124106214D01*
X235807703Y-123948976D01*
X235807703Y-123870357D01*
X235868179Y-123713119D01*
X235928655Y-123634500D01*
X236049608Y-123555880D01*
X236291513Y-123555880D01*
X236412465Y-123634500D01*
X236472941Y-123713119D01*
X236533417Y-123870357D01*
X236533417Y-123948976D01*
X236472941Y-124106214D01*
X236412465Y-124184833D01*
X236291513Y-124263452D01*
X236049608Y-124263452D01*
X235928655Y-124342071D01*
X235868179Y-124420690D01*
X235807703Y-124577928D01*
X235807703Y-124892404D01*
X235868179Y-125049642D01*
X235928655Y-125128261D01*
X236049608Y-125206880D01*
X236291513Y-125206880D01*
X236412465Y-125128261D01*
X236472941Y-125049642D01*
X236533417Y-124892404D01*
X236533417Y-124577928D01*
X236472941Y-124420690D01*
X236412465Y-124342071D01*
X236291513Y-124263452D01*
X235323894Y-127746880D02*
X234598179Y-127746880D01*
X234961036Y-127746880D02*
X234961036Y-126095880D01*
X234840084Y-126331738D01*
X234719132Y-126488976D01*
X234598179Y-126567595D01*
X235928655Y-127746880D02*
X236170560Y-127746880D01*
X236291513Y-127668261D01*
X236351989Y-127589642D01*
X236472941Y-127353785D01*
X236533417Y-127039309D01*
X236533417Y-126410357D01*
X236472941Y-126253119D01*
X236412465Y-126174500D01*
X236291513Y-126095880D01*
X236049608Y-126095880D01*
X235928655Y-126174500D01*
X235868179Y-126253119D01*
X235807703Y-126410357D01*
X235807703Y-126803452D01*
X235868179Y-126960690D01*
X235928655Y-127039309D01*
X236049608Y-127117928D01*
X236291513Y-127117928D01*
X236412465Y-127039309D01*
X236472941Y-126960690D01*
X236533417Y-126803452D01*
X234598179Y-128793119D02*
X234658655Y-128714500D01*
X234779608Y-128635880D01*
X235081989Y-128635880D01*
X235202941Y-128714500D01*
X235263417Y-128793119D01*
X235323894Y-128950357D01*
X235323894Y-129107595D01*
X235263417Y-129343452D01*
X234537703Y-130286880D01*
X235323894Y-130286880D01*
X236110084Y-128635880D02*
X236231036Y-128635880D01*
X236351989Y-128714500D01*
X236412465Y-128793119D01*
X236472941Y-128950357D01*
X236533417Y-129264833D01*
X236533417Y-129657928D01*
X236472941Y-129972404D01*
X236412465Y-130129642D01*
X236351989Y-130208261D01*
X236231036Y-130286880D01*
X236110084Y-130286880D01*
X235989132Y-130208261D01*
X235928655Y-130129642D01*
X235868179Y-129972404D01*
X235807703Y-129657928D01*
X235807703Y-129264833D01*
X235868179Y-128950357D01*
X235928655Y-128793119D01*
X235989132Y-128714500D01*
X236110084Y-128635880D01*
X65121820Y-82026880D02*
X64396105Y-82026880D01*
X64758963Y-82026880D02*
X64758963Y-80375880D01*
X64638010Y-80611738D01*
X64517058Y-80768976D01*
X64396105Y-80847595D01*
X64396105Y-83073119D02*
X64456582Y-82994500D01*
X64577534Y-82915880D01*
X64879915Y-82915880D01*
X65000867Y-82994500D01*
X65061344Y-83073119D01*
X65121820Y-83230357D01*
X65121820Y-83387595D01*
X65061344Y-83623452D01*
X64335629Y-84566880D01*
X65121820Y-84566880D01*
X64335629Y-85455880D02*
X65121820Y-85455880D01*
X64698486Y-86084833D01*
X64879915Y-86084833D01*
X65000867Y-86163452D01*
X65061344Y-86242071D01*
X65121820Y-86399309D01*
X65121820Y-86792404D01*
X65061344Y-86949642D01*
X65000867Y-87028261D01*
X64879915Y-87106880D01*
X64517058Y-87106880D01*
X64396105Y-87028261D01*
X64335629Y-86949642D01*
X65000867Y-88546214D02*
X65000867Y-89646880D01*
X64698486Y-87917261D02*
X64396105Y-89096547D01*
X65182296Y-89096547D01*
X65061344Y-90535880D02*
X64456582Y-90535880D01*
X64396105Y-91322071D01*
X64456582Y-91243452D01*
X64577534Y-91164833D01*
X64879915Y-91164833D01*
X65000867Y-91243452D01*
X65061344Y-91322071D01*
X65121820Y-91479309D01*
X65121820Y-91872404D01*
X65061344Y-92029642D01*
X65000867Y-92108261D01*
X64879915Y-92186880D01*
X64577534Y-92186880D01*
X64456582Y-92108261D01*
X64396105Y-92029642D01*
X65000867Y-93075880D02*
X64758963Y-93075880D01*
X64638010Y-93154500D01*
X64577534Y-93233119D01*
X64456582Y-93468976D01*
X64396105Y-93783452D01*
X64396105Y-94412404D01*
X64456582Y-94569642D01*
X64517058Y-94648261D01*
X64638010Y-94726880D01*
X64879915Y-94726880D01*
X65000867Y-94648261D01*
X65061344Y-94569642D01*
X65121820Y-94412404D01*
X65121820Y-94019309D01*
X65061344Y-93862071D01*
X65000867Y-93783452D01*
X64879915Y-93704833D01*
X64638010Y-93704833D01*
X64517058Y-93783452D01*
X64456582Y-93862071D01*
X64396105Y-94019309D01*
X64335629Y-95615880D02*
X65182296Y-95615880D01*
X64638010Y-97266880D01*
X64638010Y-98863452D02*
X64517058Y-98784833D01*
X64456582Y-98706214D01*
X64396105Y-98548976D01*
X64396105Y-98470357D01*
X64456582Y-98313119D01*
X64517058Y-98234500D01*
X64638010Y-98155880D01*
X64879915Y-98155880D01*
X65000867Y-98234500D01*
X65061344Y-98313119D01*
X65121820Y-98470357D01*
X65121820Y-98548976D01*
X65061344Y-98706214D01*
X65000867Y-98784833D01*
X64879915Y-98863452D01*
X64638010Y-98863452D01*
X64517058Y-98942071D01*
X64456582Y-99020690D01*
X64396105Y-99177928D01*
X64396105Y-99492404D01*
X64456582Y-99649642D01*
X64517058Y-99728261D01*
X64638010Y-99806880D01*
X64879915Y-99806880D01*
X65000867Y-99728261D01*
X65061344Y-99649642D01*
X65121820Y-99492404D01*
X65121820Y-99177928D01*
X65061344Y-99020690D01*
X65000867Y-98942071D01*
X64879915Y-98863452D01*
X64517058Y-102346880D02*
X64758963Y-102346880D01*
X64879915Y-102268261D01*
X64940391Y-102189642D01*
X65061344Y-101953785D01*
X65121820Y-101639309D01*
X65121820Y-101010357D01*
X65061344Y-100853119D01*
X65000867Y-100774500D01*
X64879915Y-100695880D01*
X64638010Y-100695880D01*
X64517058Y-100774500D01*
X64456582Y-100853119D01*
X64396105Y-101010357D01*
X64396105Y-101403452D01*
X64456582Y-101560690D01*
X64517058Y-101639309D01*
X64638010Y-101717928D01*
X64879915Y-101717928D01*
X65000867Y-101639309D01*
X65061344Y-101560690D01*
X65121820Y-101403452D01*
X63912296Y-104886880D02*
X63186582Y-104886880D01*
X63549439Y-104886880D02*
X63549439Y-103235880D01*
X63428486Y-103471738D01*
X63307534Y-103628976D01*
X63186582Y-103707595D01*
X64698486Y-103235880D02*
X64819439Y-103235880D01*
X64940391Y-103314500D01*
X65000867Y-103393119D01*
X65061344Y-103550357D01*
X65121820Y-103864833D01*
X65121820Y-104257928D01*
X65061344Y-104572404D01*
X65000867Y-104729642D01*
X64940391Y-104808261D01*
X64819439Y-104886880D01*
X64698486Y-104886880D01*
X64577534Y-104808261D01*
X64517058Y-104729642D01*
X64456582Y-104572404D01*
X64396105Y-104257928D01*
X64396105Y-103864833D01*
X64456582Y-103550357D01*
X64517058Y-103393119D01*
X64577534Y-103314500D01*
X64698486Y-103235880D01*
X63912296Y-107426880D02*
X63186582Y-107426880D01*
X63549439Y-107426880D02*
X63549439Y-105775880D01*
X63428486Y-106011738D01*
X63307534Y-106168976D01*
X63186582Y-106247595D01*
X65121820Y-107426880D02*
X64396105Y-107426880D01*
X64758963Y-107426880D02*
X64758963Y-105775880D01*
X64638010Y-106011738D01*
X64517058Y-106168976D01*
X64396105Y-106247595D01*
X63912296Y-109966880D02*
X63186582Y-109966880D01*
X63549439Y-109966880D02*
X63549439Y-108315880D01*
X63428486Y-108551738D01*
X63307534Y-108708976D01*
X63186582Y-108787595D01*
X64396105Y-108473119D02*
X64456582Y-108394500D01*
X64577534Y-108315880D01*
X64879915Y-108315880D01*
X65000867Y-108394500D01*
X65061344Y-108473119D01*
X65121820Y-108630357D01*
X65121820Y-108787595D01*
X65061344Y-109023452D01*
X64335629Y-109966880D01*
X65121820Y-109966880D01*
X63912296Y-112506880D02*
X63186582Y-112506880D01*
X63549439Y-112506880D02*
X63549439Y-110855880D01*
X63428486Y-111091738D01*
X63307534Y-111248976D01*
X63186582Y-111327595D01*
X64335629Y-110855880D02*
X65121820Y-110855880D01*
X64698486Y-111484833D01*
X64879915Y-111484833D01*
X65000867Y-111563452D01*
X65061344Y-111642071D01*
X65121820Y-111799309D01*
X65121820Y-112192404D01*
X65061344Y-112349642D01*
X65000867Y-112428261D01*
X64879915Y-112506880D01*
X64517058Y-112506880D01*
X64396105Y-112428261D01*
X64335629Y-112349642D01*
X63912296Y-115046880D02*
X63186582Y-115046880D01*
X63549439Y-115046880D02*
X63549439Y-113395880D01*
X63428486Y-113631738D01*
X63307534Y-113788976D01*
X63186582Y-113867595D01*
X65000867Y-113946214D02*
X65000867Y-115046880D01*
X64698486Y-113317261D02*
X64396105Y-114496547D01*
X65182296Y-114496547D01*
X63912296Y-117586880D02*
X63186582Y-117586880D01*
X63549439Y-117586880D02*
X63549439Y-115935880D01*
X63428486Y-116171738D01*
X63307534Y-116328976D01*
X63186582Y-116407595D01*
X65061344Y-115935880D02*
X64456582Y-115935880D01*
X64396105Y-116722071D01*
X64456582Y-116643452D01*
X64577534Y-116564833D01*
X64879915Y-116564833D01*
X65000867Y-116643452D01*
X65061344Y-116722071D01*
X65121820Y-116879309D01*
X65121820Y-117272404D01*
X65061344Y-117429642D01*
X65000867Y-117508261D01*
X64879915Y-117586880D01*
X64577534Y-117586880D01*
X64456582Y-117508261D01*
X64396105Y-117429642D01*
X63912296Y-120126880D02*
X63186582Y-120126880D01*
X63549439Y-120126880D02*
X63549439Y-118475880D01*
X63428486Y-118711738D01*
X63307534Y-118868976D01*
X63186582Y-118947595D01*
X65000867Y-118475880D02*
X64758963Y-118475880D01*
X64638010Y-118554500D01*
X64577534Y-118633119D01*
X64456582Y-118868976D01*
X64396105Y-119183452D01*
X64396105Y-119812404D01*
X64456582Y-119969642D01*
X64517058Y-120048261D01*
X64638010Y-120126880D01*
X64879915Y-120126880D01*
X65000867Y-120048261D01*
X65061344Y-119969642D01*
X65121820Y-119812404D01*
X65121820Y-119419309D01*
X65061344Y-119262071D01*
X65000867Y-119183452D01*
X64879915Y-119104833D01*
X64638010Y-119104833D01*
X64517058Y-119183452D01*
X64456582Y-119262071D01*
X64396105Y-119419309D01*
X63912296Y-122666880D02*
X63186582Y-122666880D01*
X63549439Y-122666880D02*
X63549439Y-121015880D01*
X63428486Y-121251738D01*
X63307534Y-121408976D01*
X63186582Y-121487595D01*
X64335629Y-121015880D02*
X65182296Y-121015880D01*
X64638010Y-122666880D01*
X63912296Y-125206880D02*
X63186582Y-125206880D01*
X63549439Y-125206880D02*
X63549439Y-123555880D01*
X63428486Y-123791738D01*
X63307534Y-123948976D01*
X63186582Y-124027595D01*
X64638010Y-124263452D02*
X64517058Y-124184833D01*
X64456582Y-124106214D01*
X64396105Y-123948976D01*
X64396105Y-123870357D01*
X64456582Y-123713119D01*
X64517058Y-123634500D01*
X64638010Y-123555880D01*
X64879915Y-123555880D01*
X65000867Y-123634500D01*
X65061344Y-123713119D01*
X65121820Y-123870357D01*
X65121820Y-123948976D01*
X65061344Y-124106214D01*
X65000867Y-124184833D01*
X64879915Y-124263452D01*
X64638010Y-124263452D01*
X64517058Y-124342071D01*
X64456582Y-124420690D01*
X64396105Y-124577928D01*
X64396105Y-124892404D01*
X64456582Y-125049642D01*
X64517058Y-125128261D01*
X64638010Y-125206880D01*
X64879915Y-125206880D01*
X65000867Y-125128261D01*
X65061344Y-125049642D01*
X65121820Y-124892404D01*
X65121820Y-124577928D01*
X65061344Y-124420690D01*
X65000867Y-124342071D01*
X64879915Y-124263452D01*
X63912296Y-127746880D02*
X63186582Y-127746880D01*
X63549439Y-127746880D02*
X63549439Y-126095880D01*
X63428486Y-126331738D01*
X63307534Y-126488976D01*
X63186582Y-126567595D01*
X64517058Y-127746880D02*
X64758963Y-127746880D01*
X64879915Y-127668261D01*
X64940391Y-127589642D01*
X65061344Y-127353785D01*
X65121820Y-127039309D01*
X65121820Y-126410357D01*
X65061344Y-126253119D01*
X65000867Y-126174500D01*
X64879915Y-126095880D01*
X64638010Y-126095880D01*
X64517058Y-126174500D01*
X64456582Y-126253119D01*
X64396105Y-126410357D01*
X64396105Y-126803452D01*
X64456582Y-126960690D01*
X64517058Y-127039309D01*
X64638010Y-127117928D01*
X64879915Y-127117928D01*
X65000867Y-127039309D01*
X65061344Y-126960690D01*
X65121820Y-126803452D01*
X63186582Y-128793119D02*
X63247058Y-128714500D01*
X63368010Y-128635880D01*
X63670391Y-128635880D01*
X63791344Y-128714500D01*
X63851820Y-128793119D01*
X63912296Y-128950357D01*
X63912296Y-129107595D01*
X63851820Y-129343452D01*
X63126105Y-130286880D01*
X63912296Y-130286880D01*
X64698486Y-128635880D02*
X64819439Y-128635880D01*
X64940391Y-128714500D01*
X65000867Y-128793119D01*
X65061344Y-128950357D01*
X65121820Y-129264833D01*
X65121820Y-129657928D01*
X65061344Y-129972404D01*
X65000867Y-130129642D01*
X64940391Y-130208261D01*
X64819439Y-130286880D01*
X64698486Y-130286880D01*
X64577534Y-130208261D01*
X64517058Y-130129642D01*
X64456582Y-129972404D01*
X64396105Y-129657928D01*
X64396105Y-129264833D01*
X64456582Y-128950357D01*
X64517058Y-128793119D01*
X64577534Y-128714500D01*
X64698486Y-128635880D01*
D13*
X126764761Y-71318285D02*
X127050476Y-71461142D01*
X127526666Y-71461142D01*
X127717142Y-71318285D01*
X127812380Y-71175428D01*
X127907619Y-70889714D01*
X127907619Y-70604000D01*
X127812380Y-70318285D01*
X127717142Y-70175428D01*
X127526666Y-70032571D01*
X127145714Y-69889714D01*
X126955238Y-69746857D01*
X126860000Y-69604000D01*
X126764761Y-69318285D01*
X126764761Y-69032571D01*
X126860000Y-68746857D01*
X126955238Y-68604000D01*
X127145714Y-68461142D01*
X127621904Y-68461142D01*
X127907619Y-68604000D01*
X128479047Y-69461142D02*
X129240952Y-69461142D01*
X128764761Y-68461142D02*
X128764761Y-71032571D01*
X128860000Y-71318285D01*
X129050476Y-71461142D01*
X129240952Y-71461142D01*
X130764761Y-71461142D02*
X130764761Y-69889714D01*
X130669523Y-69604000D01*
X130479047Y-69461142D01*
X130098095Y-69461142D01*
X129907619Y-69604000D01*
X130764761Y-71318285D02*
X130574285Y-71461142D01*
X130098095Y-71461142D01*
X129907619Y-71318285D01*
X129812380Y-71032571D01*
X129812380Y-70746857D01*
X129907619Y-70461142D01*
X130098095Y-70318285D01*
X130574285Y-70318285D01*
X130764761Y-70175428D01*
X132574285Y-71318285D02*
X132383809Y-71461142D01*
X132002857Y-71461142D01*
X131812380Y-71318285D01*
X131717142Y-71175428D01*
X131621904Y-70889714D01*
X131621904Y-70032571D01*
X131717142Y-69746857D01*
X131812380Y-69604000D01*
X132002857Y-69461142D01*
X132383809Y-69461142D01*
X132574285Y-69604000D01*
X133431428Y-71461142D02*
X133431428Y-68461142D01*
X133621904Y-70318285D02*
X134193333Y-71461142D01*
X134193333Y-69461142D02*
X133431428Y-70604000D01*
X135907619Y-71461142D02*
X135907619Y-69889714D01*
X135812380Y-69604000D01*
X135621904Y-69461142D01*
X135240952Y-69461142D01*
X135050476Y-69604000D01*
X135907619Y-71318285D02*
X135717142Y-71461142D01*
X135240952Y-71461142D01*
X135050476Y-71318285D01*
X134955238Y-71032571D01*
X134955238Y-70746857D01*
X135050476Y-70461142D01*
X135240952Y-70318285D01*
X135717142Y-70318285D01*
X135907619Y-70175428D01*
X136860000Y-71461142D02*
X136860000Y-68461142D01*
X136860000Y-69604000D02*
X137050476Y-69461142D01*
X137431428Y-69461142D01*
X137621904Y-69604000D01*
X137717142Y-69746857D01*
X137812380Y-70032571D01*
X137812380Y-70889714D01*
X137717142Y-71175428D01*
X137621904Y-71318285D01*
X137431428Y-71461142D01*
X137050476Y-71461142D01*
X136860000Y-71318285D01*
X138955238Y-71461142D02*
X138764761Y-71318285D01*
X138669523Y-71032571D01*
X138669523Y-68461142D01*
X140479047Y-71318285D02*
X140288571Y-71461142D01*
X139907619Y-71461142D01*
X139717142Y-71318285D01*
X139621904Y-71032571D01*
X139621904Y-69889714D01*
X139717142Y-69604000D01*
X139907619Y-69461142D01*
X140288571Y-69461142D01*
X140479047Y-69604000D01*
X140574285Y-69889714D01*
X140574285Y-70175428D01*
X139621904Y-70461142D01*
X142764761Y-68461142D02*
X144098095Y-68461142D01*
X142764761Y-71461142D01*
X144098095Y-71461142D01*
X145145714Y-69746857D02*
X144955238Y-69604000D01*
X144860000Y-69461142D01*
X144764761Y-69175428D01*
X144764761Y-69032571D01*
X144860000Y-68746857D01*
X144955238Y-68604000D01*
X145145714Y-68461142D01*
X145526666Y-68461142D01*
X145717142Y-68604000D01*
X145812380Y-68746857D01*
X145907619Y-69032571D01*
X145907619Y-69175428D01*
X145812380Y-69461142D01*
X145717142Y-69604000D01*
X145526666Y-69746857D01*
X145145714Y-69746857D01*
X144955238Y-69889714D01*
X144860000Y-70032571D01*
X144764761Y-70318285D01*
X144764761Y-70889714D01*
X144860000Y-71175428D01*
X144955238Y-71318285D01*
X145145714Y-71461142D01*
X145526666Y-71461142D01*
X145717142Y-71318285D01*
X145812380Y-71175428D01*
X145907619Y-70889714D01*
X145907619Y-70318285D01*
X145812380Y-70032571D01*
X145717142Y-69889714D01*
X145526666Y-69746857D01*
X147145714Y-68461142D02*
X147336190Y-68461142D01*
X147526666Y-68604000D01*
X147621904Y-68746857D01*
X147717142Y-69032571D01*
X147812380Y-69604000D01*
X147812380Y-70318285D01*
X147717142Y-70889714D01*
X147621904Y-71175428D01*
X147526666Y-71318285D01*
X147336190Y-71461142D01*
X147145714Y-71461142D01*
X146955238Y-71318285D01*
X146860000Y-71175428D01*
X146764761Y-70889714D01*
X146669523Y-70318285D01*
X146669523Y-69604000D01*
X146764761Y-69032571D01*
X146860000Y-68746857D01*
X146955238Y-68604000D01*
X147145714Y-68461142D01*
X151336190Y-71461142D02*
X150669523Y-70032571D01*
X150193333Y-71461142D02*
X150193333Y-68461142D01*
X150955238Y-68461142D01*
X151145714Y-68604000D01*
X151240952Y-68746857D01*
X151336190Y-69032571D01*
X151336190Y-69461142D01*
X151240952Y-69746857D01*
X151145714Y-69889714D01*
X150955238Y-70032571D01*
X150193333Y-70032571D01*
X152955238Y-71318285D02*
X152764761Y-71461142D01*
X152383809Y-71461142D01*
X152193333Y-71318285D01*
X152098095Y-71032571D01*
X152098095Y-69889714D01*
X152193333Y-69604000D01*
X152383809Y-69461142D01*
X152764761Y-69461142D01*
X152955238Y-69604000D01*
X153050476Y-69889714D01*
X153050476Y-70175428D01*
X152098095Y-70461142D01*
X153621904Y-69461142D02*
X154383809Y-69461142D01*
X153907619Y-68461142D02*
X153907619Y-71032571D01*
X154002857Y-71318285D01*
X154193333Y-71461142D01*
X154383809Y-71461142D01*
X155050476Y-71461142D02*
X155050476Y-69461142D01*
X155050476Y-70032571D02*
X155145714Y-69746857D01*
X155240952Y-69604000D01*
X155431428Y-69461142D01*
X155621904Y-69461142D01*
X156574285Y-71461142D02*
X156383809Y-71318285D01*
X156288571Y-71175428D01*
X156193333Y-70889714D01*
X156193333Y-70032571D01*
X156288571Y-69746857D01*
X156383809Y-69604000D01*
X156574285Y-69461142D01*
X156860000Y-69461142D01*
X157050476Y-69604000D01*
X157145714Y-69746857D01*
X157240952Y-70032571D01*
X157240952Y-70889714D01*
X157145714Y-71175428D01*
X157050476Y-71318285D01*
X156860000Y-71461142D01*
X156574285Y-71461142D01*
X160764761Y-71175428D02*
X160669523Y-71318285D01*
X160383809Y-71461142D01*
X160193333Y-71461142D01*
X159907619Y-71318285D01*
X159717142Y-71032571D01*
X159621904Y-70746857D01*
X159526666Y-70175428D01*
X159526666Y-69746857D01*
X159621904Y-69175428D01*
X159717142Y-68889714D01*
X159907619Y-68604000D01*
X160193333Y-68461142D01*
X160383809Y-68461142D01*
X160669523Y-68604000D01*
X160764761Y-68746857D01*
X161907619Y-71461142D02*
X161717142Y-71318285D01*
X161621904Y-71175428D01*
X161526666Y-70889714D01*
X161526666Y-70032571D01*
X161621904Y-69746857D01*
X161717142Y-69604000D01*
X161907619Y-69461142D01*
X162193333Y-69461142D01*
X162383809Y-69604000D01*
X162479047Y-69746857D01*
X162574285Y-70032571D01*
X162574285Y-70889714D01*
X162479047Y-71175428D01*
X162383809Y-71318285D01*
X162193333Y-71461142D01*
X161907619Y-71461142D01*
X163431428Y-71461142D02*
X163431428Y-69461142D01*
X163431428Y-69746857D02*
X163526666Y-69604000D01*
X163717142Y-69461142D01*
X164002857Y-69461142D01*
X164193333Y-69604000D01*
X164288571Y-69889714D01*
X164288571Y-71461142D01*
X164288571Y-69889714D02*
X164383809Y-69604000D01*
X164574285Y-69461142D01*
X164860000Y-69461142D01*
X165050476Y-69604000D01*
X165145714Y-69889714D01*
X165145714Y-71461142D01*
X166098095Y-69461142D02*
X166098095Y-72461142D01*
X166098095Y-69604000D02*
X166288571Y-69461142D01*
X166669523Y-69461142D01*
X166860000Y-69604000D01*
X166955238Y-69746857D01*
X167050476Y-70032571D01*
X167050476Y-70889714D01*
X166955238Y-71175428D01*
X166860000Y-71318285D01*
X166669523Y-71461142D01*
X166288571Y-71461142D01*
X166098095Y-71318285D01*
X168764761Y-69461142D02*
X168764761Y-71461142D01*
X167907619Y-69461142D02*
X167907619Y-71032571D01*
X168002857Y-71318285D01*
X168193333Y-71461142D01*
X168479047Y-71461142D01*
X168669523Y-71318285D01*
X168764761Y-71175428D01*
X169431428Y-69461142D02*
X170193333Y-69461142D01*
X169717142Y-68461142D02*
X169717142Y-71032571D01*
X169812380Y-71318285D01*
X170002857Y-71461142D01*
X170193333Y-71461142D01*
X171621904Y-71318285D02*
X171431428Y-71461142D01*
X171050476Y-71461142D01*
X170859999Y-71318285D01*
X170764761Y-71032571D01*
X170764761Y-69889714D01*
X170859999Y-69604000D01*
X171050476Y-69461142D01*
X171431428Y-69461142D01*
X171621904Y-69604000D01*
X171717142Y-69889714D01*
X171717142Y-70175428D01*
X170764761Y-70461142D01*
X172574285Y-71461142D02*
X172574285Y-69461142D01*
X172574285Y-70032571D02*
X172669523Y-69746857D01*
X172764761Y-69604000D01*
X172955238Y-69461142D01*
X173145714Y-69461142D01*
D11*
X135427129Y-138833634D02*
X135374748Y-138905062D01*
X135217605Y-138976491D01*
X135112843Y-138976491D01*
X134955700Y-138905062D01*
X134850939Y-138762205D01*
X134798558Y-138619348D01*
X134746177Y-138333634D01*
X134746177Y-138119348D01*
X134798558Y-137833634D01*
X134850939Y-137690777D01*
X134955700Y-137547920D01*
X135112843Y-137476491D01*
X135217605Y-137476491D01*
X135374748Y-137547920D01*
X135427129Y-137619348D01*
X136055700Y-138976491D02*
X135950939Y-138905062D01*
X135898558Y-138833634D01*
X135846177Y-138690777D01*
X135846177Y-138262205D01*
X135898558Y-138119348D01*
X135950939Y-138047920D01*
X136055700Y-137976491D01*
X136212843Y-137976491D01*
X136317605Y-138047920D01*
X136369986Y-138119348D01*
X136422367Y-138262205D01*
X136422367Y-138690777D01*
X136369986Y-138833634D01*
X136317605Y-138905062D01*
X136212843Y-138976491D01*
X136055700Y-138976491D01*
X136893796Y-137976491D02*
X136893796Y-139476491D01*
X136893796Y-138047920D02*
X136998558Y-137976491D01*
X137208081Y-137976491D01*
X137312843Y-138047920D01*
X137365224Y-138119348D01*
X137417605Y-138262205D01*
X137417605Y-138690777D01*
X137365224Y-138833634D01*
X137312843Y-138905062D01*
X137208081Y-138976491D01*
X136998558Y-138976491D01*
X136893796Y-138905062D01*
X137784272Y-137976491D02*
X138046177Y-138976491D01*
X138308081Y-137976491D02*
X138046177Y-138976491D01*
X137941415Y-139333634D01*
X137889034Y-139405062D01*
X137784272Y-139476491D01*
X138727129Y-138976491D02*
X138727129Y-137976491D01*
X138727129Y-138262205D02*
X138779510Y-138119348D01*
X138831891Y-138047920D01*
X138936653Y-137976491D01*
X139041415Y-137976491D01*
X139408081Y-138976491D02*
X139408081Y-137976491D01*
X139408081Y-137476491D02*
X139355700Y-137547920D01*
X139408081Y-137619348D01*
X139460462Y-137547920D01*
X139408081Y-137476491D01*
X139408081Y-137619348D01*
X140403320Y-137976491D02*
X140403320Y-139190777D01*
X140350939Y-139333634D01*
X140298558Y-139405062D01*
X140193796Y-139476491D01*
X140036653Y-139476491D01*
X139931891Y-139405062D01*
X140403320Y-138905062D02*
X140298558Y-138976491D01*
X140089034Y-138976491D01*
X139984272Y-138905062D01*
X139931891Y-138833634D01*
X139879510Y-138690777D01*
X139879510Y-138262205D01*
X139931891Y-138119348D01*
X139984272Y-138047920D01*
X140089034Y-137976491D01*
X140298558Y-137976491D01*
X140403320Y-138047920D01*
X140927129Y-138976491D02*
X140927129Y-137476491D01*
X141398558Y-138976491D02*
X141398558Y-138190777D01*
X141346177Y-138047920D01*
X141241415Y-137976491D01*
X141084272Y-137976491D01*
X140979510Y-138047920D01*
X140927129Y-138119348D01*
X141765224Y-137976491D02*
X142184272Y-137976491D01*
X141922367Y-137476491D02*
X141922367Y-138762205D01*
X141974748Y-138905062D01*
X142079510Y-138976491D01*
X142184272Y-138976491D01*
X144279510Y-137833634D02*
X144174748Y-137762205D01*
X143965224Y-137762205D01*
X143860462Y-137833634D01*
X143755700Y-137976491D01*
X143703320Y-138119348D01*
X143703320Y-138405062D01*
X143755700Y-138547920D01*
X143860462Y-138690777D01*
X143965224Y-138762205D01*
X144174748Y-138762205D01*
X144279510Y-138690777D01*
X144069986Y-137262205D02*
X143808081Y-137333634D01*
X143546177Y-137547920D01*
X143389034Y-137905062D01*
X143336653Y-138262205D01*
X143389034Y-138619348D01*
X143546177Y-138976491D01*
X143808081Y-139190777D01*
X144069986Y-139262205D01*
X144331891Y-139190777D01*
X144593796Y-138976491D01*
X144750939Y-138619348D01*
X144803320Y-138262205D01*
X144750939Y-137905062D01*
X144593796Y-137547920D01*
X144331891Y-137333634D01*
X144069986Y-137262205D01*
X146060462Y-137619348D02*
X146112843Y-137547920D01*
X146217605Y-137476491D01*
X146479510Y-137476491D01*
X146584272Y-137547920D01*
X146636653Y-137619348D01*
X146689034Y-137762205D01*
X146689034Y-137905062D01*
X146636653Y-138119348D01*
X146008081Y-138976491D01*
X146689034Y-138976491D01*
X147369986Y-137476491D02*
X147474748Y-137476491D01*
X147579510Y-137547920D01*
X147631891Y-137619348D01*
X147684272Y-137762205D01*
X147736653Y-138047920D01*
X147736653Y-138405062D01*
X147684272Y-138690777D01*
X147631891Y-138833634D01*
X147579510Y-138905062D01*
X147474748Y-138976491D01*
X147369986Y-138976491D01*
X147265224Y-138905062D01*
X147212843Y-138833634D01*
X147160462Y-138690777D01*
X147108081Y-138405062D01*
X147108081Y-138047920D01*
X147160462Y-137762205D01*
X147212843Y-137619348D01*
X147265224Y-137547920D01*
X147369986Y-137476491D01*
X148784272Y-138976491D02*
X148155700Y-138976491D01*
X148469986Y-138976491D02*
X148469986Y-137476491D01*
X148365224Y-137690777D01*
X148260462Y-137833634D01*
X148155700Y-137905062D01*
X149412843Y-138119348D02*
X149308081Y-138047920D01*
X149255700Y-137976491D01*
X149203320Y-137833634D01*
X149203320Y-137762205D01*
X149255700Y-137619348D01*
X149308081Y-137547920D01*
X149412843Y-137476491D01*
X149622367Y-137476491D01*
X149727129Y-137547920D01*
X149779510Y-137619348D01*
X149831891Y-137762205D01*
X149831891Y-137833634D01*
X149779510Y-137976491D01*
X149727129Y-138047920D01*
X149622367Y-138119348D01*
X149412843Y-138119348D01*
X149308081Y-138190777D01*
X149255700Y-138262205D01*
X149203320Y-138405062D01*
X149203320Y-138690777D01*
X149255700Y-138833634D01*
X149308081Y-138905062D01*
X149412843Y-138976491D01*
X149622367Y-138976491D01*
X149727129Y-138905062D01*
X149779510Y-138833634D01*
X149831891Y-138690777D01*
X149831891Y-138405062D01*
X149779510Y-138262205D01*
X149727129Y-138190777D01*
X149622367Y-138119348D01*
X151141415Y-138976491D02*
X151141415Y-137476491D01*
X151141415Y-138047920D02*
X151246177Y-137976491D01*
X151455700Y-137976491D01*
X151560462Y-138047920D01*
X151612843Y-138119348D01*
X151665224Y-138262205D01*
X151665224Y-138690777D01*
X151612843Y-138833634D01*
X151560462Y-138905062D01*
X151455700Y-138976491D01*
X151246177Y-138976491D01*
X151141415Y-138905062D01*
X152031891Y-137976491D02*
X152293796Y-138976491D01*
X152555700Y-137976491D02*
X152293796Y-138976491D01*
X152189034Y-139333634D01*
X152136653Y-139405062D01*
X152031891Y-139476491D01*
X154441415Y-138976491D02*
X154074748Y-138262205D01*
X153812843Y-138976491D02*
X153812843Y-137476491D01*
X154231891Y-137476491D01*
X154336653Y-137547920D01*
X154389034Y-137619348D01*
X154441415Y-137762205D01*
X154441415Y-137976491D01*
X154389034Y-138119348D01*
X154336653Y-138190777D01*
X154231891Y-138262205D01*
X153812843Y-138262205D01*
X155803320Y-138976491D02*
X155750939Y-138976491D01*
X155646177Y-138905062D01*
X155489034Y-138690777D01*
X155227129Y-138262205D01*
X155122367Y-138047920D01*
X155069986Y-137833634D01*
X155069986Y-137690777D01*
X155122367Y-137547920D01*
X155227129Y-137476491D01*
X155279510Y-137476491D01*
X155384272Y-137547920D01*
X155436653Y-137690777D01*
X155436653Y-137762205D01*
X155384272Y-137905062D01*
X155331891Y-137976491D01*
X155017605Y-138262205D01*
X154965224Y-138333634D01*
X154912843Y-138476491D01*
X154912843Y-138690777D01*
X154965224Y-138833634D01*
X155017605Y-138905062D01*
X155122367Y-138976491D01*
X155279510Y-138976491D01*
X155384272Y-138905062D01*
X155436653Y-138833634D01*
X155593796Y-138547920D01*
X155646177Y-138333634D01*
X155646177Y-138190777D01*
X156641415Y-138190777D02*
X156274748Y-138190777D01*
X156274748Y-138976491D02*
X156274748Y-137476491D01*
X156798558Y-137476491D01*
X158055700Y-138976491D02*
X158055700Y-137476491D01*
X158474748Y-137476491D01*
X158579510Y-137547920D01*
X158631891Y-137619348D01*
X158684272Y-137762205D01*
X158684272Y-137976491D01*
X158631891Y-138119348D01*
X158579510Y-138190777D01*
X158474748Y-138262205D01*
X158055700Y-138262205D01*
X159050939Y-137976491D02*
X159312843Y-138976491D01*
X159574748Y-137976491D02*
X159312843Y-138976491D01*
X159208081Y-139333634D01*
X159155700Y-139405062D01*
X159050939Y-139476491D01*
X159993796Y-137976491D02*
X159993796Y-138976491D01*
X159993796Y-138119348D02*
X160046177Y-138047920D01*
X160150939Y-137976491D01*
X160308081Y-137976491D01*
X160412843Y-138047920D01*
X160465224Y-138190777D01*
X160465224Y-138976491D01*
X161460462Y-138905062D02*
X161355700Y-138976491D01*
X161146177Y-138976491D01*
X161041415Y-138905062D01*
X160989034Y-138833634D01*
X160936653Y-138690777D01*
X160936653Y-138262205D01*
X160989034Y-138119348D01*
X161041415Y-138047920D01*
X161146177Y-137976491D01*
X161355700Y-137976491D01*
X161460462Y-138047920D01*
X161931891Y-138976491D02*
X161931891Y-137476491D01*
X162036653Y-138405062D02*
X162350939Y-138976491D01*
X162350939Y-137976491D02*
X161931891Y-138547920D01*
X163241415Y-138905062D02*
X163136653Y-138976491D01*
X162927129Y-138976491D01*
X162822367Y-138905062D01*
X162769986Y-138762205D01*
X162769986Y-138190777D01*
X162822367Y-138047920D01*
X162927129Y-137976491D01*
X163136653Y-137976491D01*
X163241415Y-138047920D01*
X163293796Y-138190777D01*
X163293796Y-138333634D01*
X162769986Y-138476491D01*
X163922367Y-138976491D02*
X163817605Y-138905062D01*
X163765224Y-138762205D01*
X163765224Y-137476491D01*
X164289034Y-138905062D02*
X164393796Y-138976491D01*
X164603320Y-138976491D01*
X164708081Y-138905062D01*
X164760462Y-138762205D01*
X164760462Y-138690777D01*
X164708081Y-138547920D01*
X164603320Y-138476491D01*
X164446177Y-138476491D01*
X164341415Y-138405062D01*
X164289034Y-138262205D01*
X164289034Y-138190777D01*
X164341415Y-138047920D01*
X164446177Y-137976491D01*
X164603320Y-137976491D01*
X164708081Y-138047920D01*
D13*
X126688561Y-71175285D02*
X126974276Y-71318142D01*
X127450466Y-71318142D01*
X127640942Y-71175285D01*
X127736180Y-71032428D01*
X127831419Y-70746714D01*
X127831419Y-70461000D01*
X127736180Y-70175285D01*
X127640942Y-70032428D01*
X127450466Y-69889571D01*
X127069514Y-69746714D01*
X126879038Y-69603857D01*
X126783800Y-69461000D01*
X126688561Y-69175285D01*
X126688561Y-68889571D01*
X126783800Y-68603857D01*
X126879038Y-68461000D01*
X127069514Y-68318142D01*
X127545704Y-68318142D01*
X127831419Y-68461000D01*
X128402847Y-69318142D02*
X129164752Y-69318142D01*
X128688561Y-68318142D02*
X128688561Y-70889571D01*
X128783800Y-71175285D01*
X128974276Y-71318142D01*
X129164752Y-71318142D01*
X130688561Y-71318142D02*
X130688561Y-69746714D01*
X130593323Y-69461000D01*
X130402847Y-69318142D01*
X130021895Y-69318142D01*
X129831419Y-69461000D01*
X130688561Y-71175285D02*
X130498085Y-71318142D01*
X130021895Y-71318142D01*
X129831419Y-71175285D01*
X129736180Y-70889571D01*
X129736180Y-70603857D01*
X129831419Y-70318142D01*
X130021895Y-70175285D01*
X130498085Y-70175285D01*
X130688561Y-70032428D01*
X132498085Y-71175285D02*
X132307609Y-71318142D01*
X131926657Y-71318142D01*
X131736180Y-71175285D01*
X131640942Y-71032428D01*
X131545704Y-70746714D01*
X131545704Y-69889571D01*
X131640942Y-69603857D01*
X131736180Y-69461000D01*
X131926657Y-69318142D01*
X132307609Y-69318142D01*
X132498085Y-69461000D01*
X133355228Y-71318142D02*
X133355228Y-68318142D01*
X133545704Y-70175285D02*
X134117133Y-71318142D01*
X134117133Y-69318142D02*
X133355228Y-70461000D01*
X135831419Y-71318142D02*
X135831419Y-69746714D01*
X135736180Y-69461000D01*
X135545704Y-69318142D01*
X135164752Y-69318142D01*
X134974276Y-69461000D01*
X135831419Y-71175285D02*
X135640942Y-71318142D01*
X135164752Y-71318142D01*
X134974276Y-71175285D01*
X134879038Y-70889571D01*
X134879038Y-70603857D01*
X134974276Y-70318142D01*
X135164752Y-70175285D01*
X135640942Y-70175285D01*
X135831419Y-70032428D01*
X136783800Y-71318142D02*
X136783800Y-68318142D01*
X136783800Y-69461000D02*
X136974276Y-69318142D01*
X137355228Y-69318142D01*
X137545704Y-69461000D01*
X137640942Y-69603857D01*
X137736180Y-69889571D01*
X137736180Y-70746714D01*
X137640942Y-71032428D01*
X137545704Y-71175285D01*
X137355228Y-71318142D01*
X136974276Y-71318142D01*
X136783800Y-71175285D01*
X138879038Y-71318142D02*
X138688561Y-71175285D01*
X138593323Y-70889571D01*
X138593323Y-68318142D01*
X140402847Y-71175285D02*
X140212371Y-71318142D01*
X139831419Y-71318142D01*
X139640942Y-71175285D01*
X139545704Y-70889571D01*
X139545704Y-69746714D01*
X139640942Y-69461000D01*
X139831419Y-69318142D01*
X140212371Y-69318142D01*
X140402847Y-69461000D01*
X140498085Y-69746714D01*
X140498085Y-70032428D01*
X139545704Y-70318142D01*
X142688561Y-68318142D02*
X144021895Y-68318142D01*
X142688561Y-71318142D01*
X144021895Y-71318142D01*
X145069514Y-69603857D02*
X144879038Y-69461000D01*
X144783800Y-69318142D01*
X144688561Y-69032428D01*
X144688561Y-68889571D01*
X144783800Y-68603857D01*
X144879038Y-68461000D01*
X145069514Y-68318142D01*
X145450466Y-68318142D01*
X145640942Y-68461000D01*
X145736180Y-68603857D01*
X145831419Y-68889571D01*
X145831419Y-69032428D01*
X145736180Y-69318142D01*
X145640942Y-69461000D01*
X145450466Y-69603857D01*
X145069514Y-69603857D01*
X144879038Y-69746714D01*
X144783800Y-69889571D01*
X144688561Y-70175285D01*
X144688561Y-70746714D01*
X144783800Y-71032428D01*
X144879038Y-71175285D01*
X145069514Y-71318142D01*
X145450466Y-71318142D01*
X145640942Y-71175285D01*
X145736180Y-71032428D01*
X145831419Y-70746714D01*
X145831419Y-70175285D01*
X145736180Y-69889571D01*
X145640942Y-69746714D01*
X145450466Y-69603857D01*
X147069514Y-68318142D02*
X147259990Y-68318142D01*
X147450466Y-68461000D01*
X147545704Y-68603857D01*
X147640942Y-68889571D01*
X147736180Y-69461000D01*
X147736180Y-70175285D01*
X147640942Y-70746714D01*
X147545704Y-71032428D01*
X147450466Y-71175285D01*
X147259990Y-71318142D01*
X147069514Y-71318142D01*
X146879038Y-71175285D01*
X146783800Y-71032428D01*
X146688561Y-70746714D01*
X146593323Y-70175285D01*
X146593323Y-69461000D01*
X146688561Y-68889571D01*
X146783800Y-68603857D01*
X146879038Y-68461000D01*
X147069514Y-68318142D01*
X151259990Y-71318142D02*
X150593323Y-69889571D01*
X150117133Y-71318142D02*
X150117133Y-68318142D01*
X150879038Y-68318142D01*
X151069514Y-68461000D01*
X151164752Y-68603857D01*
X151259990Y-68889571D01*
X151259990Y-69318142D01*
X151164752Y-69603857D01*
X151069514Y-69746714D01*
X150879038Y-69889571D01*
X150117133Y-69889571D01*
X152879038Y-71175285D02*
X152688561Y-71318142D01*
X152307609Y-71318142D01*
X152117133Y-71175285D01*
X152021895Y-70889571D01*
X152021895Y-69746714D01*
X152117133Y-69461000D01*
X152307609Y-69318142D01*
X152688561Y-69318142D01*
X152879038Y-69461000D01*
X152974276Y-69746714D01*
X152974276Y-70032428D01*
X152021895Y-70318142D01*
X153545704Y-69318142D02*
X154307609Y-69318142D01*
X153831419Y-68318142D02*
X153831419Y-70889571D01*
X153926657Y-71175285D01*
X154117133Y-71318142D01*
X154307609Y-71318142D01*
X154974276Y-71318142D02*
X154974276Y-69318142D01*
X154974276Y-69889571D02*
X155069514Y-69603857D01*
X155164752Y-69461000D01*
X155355228Y-69318142D01*
X155545704Y-69318142D01*
X156498085Y-71318142D02*
X156307609Y-71175285D01*
X156212371Y-71032428D01*
X156117133Y-70746714D01*
X156117133Y-69889571D01*
X156212371Y-69603857D01*
X156307609Y-69461000D01*
X156498085Y-69318142D01*
X156783800Y-69318142D01*
X156974276Y-69461000D01*
X157069514Y-69603857D01*
X157164752Y-69889571D01*
X157164752Y-70746714D01*
X157069514Y-71032428D01*
X156974276Y-71175285D01*
X156783800Y-71318142D01*
X156498085Y-71318142D01*
X160688561Y-71032428D02*
X160593323Y-71175285D01*
X160307609Y-71318142D01*
X160117133Y-71318142D01*
X159831419Y-71175285D01*
X159640942Y-70889571D01*
X159545704Y-70603857D01*
X159450466Y-70032428D01*
X159450466Y-69603857D01*
X159545704Y-69032428D01*
X159640942Y-68746714D01*
X159831419Y-68461000D01*
X160117133Y-68318142D01*
X160307609Y-68318142D01*
X160593323Y-68461000D01*
X160688561Y-68603857D01*
X161831419Y-71318142D02*
X161640942Y-71175285D01*
X161545704Y-71032428D01*
X161450466Y-70746714D01*
X161450466Y-69889571D01*
X161545704Y-69603857D01*
X161640942Y-69461000D01*
X161831419Y-69318142D01*
X162117133Y-69318142D01*
X162307609Y-69461000D01*
X162402847Y-69603857D01*
X162498085Y-69889571D01*
X162498085Y-70746714D01*
X162402847Y-71032428D01*
X162307609Y-71175285D01*
X162117133Y-71318142D01*
X161831419Y-71318142D01*
X163355228Y-71318142D02*
X163355228Y-69318142D01*
X163355228Y-69603857D02*
X163450466Y-69461000D01*
X163640942Y-69318142D01*
X163926657Y-69318142D01*
X164117133Y-69461000D01*
X164212371Y-69746714D01*
X164212371Y-71318142D01*
X164212371Y-69746714D02*
X164307609Y-69461000D01*
X164498085Y-69318142D01*
X164783800Y-69318142D01*
X164974276Y-69461000D01*
X165069514Y-69746714D01*
X165069514Y-71318142D01*
X166021895Y-69318142D02*
X166021895Y-72318142D01*
X166021895Y-69461000D02*
X166212371Y-69318142D01*
X166593323Y-69318142D01*
X166783800Y-69461000D01*
X166879038Y-69603857D01*
X166974276Y-69889571D01*
X166974276Y-70746714D01*
X166879038Y-71032428D01*
X166783800Y-71175285D01*
X166593323Y-71318142D01*
X166212371Y-71318142D01*
X166021895Y-71175285D01*
X168688561Y-69318142D02*
X168688561Y-71318142D01*
X167831419Y-69318142D02*
X167831419Y-70889571D01*
X167926657Y-71175285D01*
X168117133Y-71318142D01*
X168402847Y-71318142D01*
X168593323Y-71175285D01*
X168688561Y-71032428D01*
X169355228Y-69318142D02*
X170117133Y-69318142D01*
X169640942Y-68318142D02*
X169640942Y-70889571D01*
X169736180Y-71175285D01*
X169926657Y-71318142D01*
X170117133Y-71318142D01*
X171545704Y-71175285D02*
X171355228Y-71318142D01*
X170974276Y-71318142D01*
X170783799Y-71175285D01*
X170688561Y-70889571D01*
X170688561Y-69746714D01*
X170783799Y-69461000D01*
X170974276Y-69318142D01*
X171355228Y-69318142D01*
X171545704Y-69461000D01*
X171640942Y-69746714D01*
X171640942Y-70032428D01*
X170688561Y-70318142D01*
X172498085Y-71318142D02*
X172498085Y-69318142D01*
X172498085Y-69889571D02*
X172593323Y-69603857D01*
X172688561Y-69461000D01*
X172879038Y-69318142D01*
X173069514Y-69318142D01*
D14*
X124425400Y-76708000D02*
X124425400Y-78038000D01*
X124425400Y-78038000D02*
X125755400Y-78038000D01*
X124425400Y-75438000D02*
X127025400Y-75438000D01*
X127025400Y-75438000D02*
X127025400Y-78038000D01*
X127025400Y-78038000D02*
X175345400Y-78038000D01*
X175345400Y-72838000D02*
X175345400Y-78038000D01*
X124425400Y-72838000D02*
X175345400Y-72838000D01*
X124425400Y-72838000D02*
X124425400Y-75438000D01*
X127508000Y-136508800D02*
X127508000Y-133848800D01*
X127508000Y-136508800D02*
X145348000Y-136508800D01*
X145348000Y-136508800D02*
X145348000Y-133848800D01*
X127508000Y-133848800D02*
X145348000Y-133848800D01*
X124908000Y-133848800D02*
X126238000Y-133848800D01*
X124908000Y-135178800D02*
X124908000Y-133848800D01*
X156972000Y-136508800D02*
X156972000Y-133848800D01*
X156972000Y-136508800D02*
X174812000Y-136508800D01*
X174812000Y-136508800D02*
X174812000Y-133848800D01*
X156972000Y-133848800D02*
X174812000Y-133848800D01*
X154372000Y-133848800D02*
X155702000Y-133848800D01*
X154372000Y-135178800D02*
X154372000Y-133848800D01*
D15*
X135128095Y-127292380D02*
X135128095Y-128101904D01*
X135175714Y-128197142D01*
X135223333Y-128244761D01*
X135318571Y-128292380D01*
X135509047Y-128292380D01*
X135604285Y-128244761D01*
X135651904Y-128197142D01*
X135699523Y-128101904D01*
X135699523Y-127292380D01*
X136604285Y-127625714D02*
X136604285Y-128292380D01*
X136366190Y-127244761D02*
X136128095Y-127959047D01*
X136747142Y-127959047D01*
X119888095Y-127292380D02*
X119888095Y-128101904D01*
X119935714Y-128197142D01*
X119983333Y-128244761D01*
X120078571Y-128292380D01*
X120269047Y-128292380D01*
X120364285Y-128244761D01*
X120411904Y-128197142D01*
X120459523Y-128101904D01*
X120459523Y-127292380D01*
X121126190Y-127292380D02*
X121221428Y-127292380D01*
X121316666Y-127340000D01*
X121364285Y-127387619D01*
X121411904Y-127482857D01*
X121459523Y-127673333D01*
X121459523Y-127911428D01*
X121411904Y-128101904D01*
X121364285Y-128197142D01*
X121316666Y-128244761D01*
X121221428Y-128292380D01*
X121126190Y-128292380D01*
X121030952Y-128244761D01*
X120983333Y-128197142D01*
X120935714Y-128101904D01*
X120888095Y-127911428D01*
X120888095Y-127673333D01*
X120935714Y-127482857D01*
X120983333Y-127387619D01*
X121030952Y-127340000D01*
X121126190Y-127292380D01*
X123698095Y-127292380D02*
X123698095Y-128101904D01*
X123745714Y-128197142D01*
X123793333Y-128244761D01*
X123888571Y-128292380D01*
X124079047Y-128292380D01*
X124174285Y-128244761D01*
X124221904Y-128197142D01*
X124269523Y-128101904D01*
X124269523Y-127292380D01*
X125269523Y-128292380D02*
X124698095Y-128292380D01*
X124983809Y-128292380D02*
X124983809Y-127292380D01*
X124888571Y-127435238D01*
X124793333Y-127530476D01*
X124698095Y-127578095D01*
X127508095Y-127292380D02*
X127508095Y-128101904D01*
X127555714Y-128197142D01*
X127603333Y-128244761D01*
X127698571Y-128292380D01*
X127889047Y-128292380D01*
X127984285Y-128244761D01*
X128031904Y-128197142D01*
X128079523Y-128101904D01*
X128079523Y-127292380D01*
X128508095Y-127387619D02*
X128555714Y-127340000D01*
X128650952Y-127292380D01*
X128889047Y-127292380D01*
X128984285Y-127340000D01*
X129031904Y-127387619D01*
X129079523Y-127482857D01*
X129079523Y-127578095D01*
X129031904Y-127720952D01*
X128460476Y-128292380D01*
X129079523Y-128292380D01*
X131318095Y-127292380D02*
X131318095Y-128101904D01*
X131365714Y-128197142D01*
X131413333Y-128244761D01*
X131508571Y-128292380D01*
X131699047Y-128292380D01*
X131794285Y-128244761D01*
X131841904Y-128197142D01*
X131889523Y-128101904D01*
X131889523Y-127292380D01*
X132270476Y-127292380D02*
X132889523Y-127292380D01*
X132556190Y-127673333D01*
X132699047Y-127673333D01*
X132794285Y-127720952D01*
X132841904Y-127768571D01*
X132889523Y-127863809D01*
X132889523Y-128101904D01*
X132841904Y-128197142D01*
X132794285Y-128244761D01*
X132699047Y-128292380D01*
X132413333Y-128292380D01*
X132318095Y-128244761D01*
X132270476Y-128197142D01*
X138938095Y-127292380D02*
X138938095Y-128101904D01*
X138985714Y-128197142D01*
X139033333Y-128244761D01*
X139128571Y-128292380D01*
X139319047Y-128292380D01*
X139414285Y-128244761D01*
X139461904Y-128197142D01*
X139509523Y-128101904D01*
X139509523Y-127292380D01*
X140461904Y-127292380D02*
X139985714Y-127292380D01*
X139938095Y-127768571D01*
X139985714Y-127720952D01*
X140080952Y-127673333D01*
X140319047Y-127673333D01*
X140414285Y-127720952D01*
X140461904Y-127768571D01*
X140509523Y-127863809D01*
X140509523Y-128101904D01*
X140461904Y-128197142D01*
X140414285Y-128244761D01*
X140319047Y-128292380D01*
X140080952Y-128292380D01*
X139985714Y-128244761D01*
X139938095Y-128197142D01*
X142748095Y-127292380D02*
X142748095Y-128101904D01*
X142795714Y-128197142D01*
X142843333Y-128244761D01*
X142938571Y-128292380D01*
X143129047Y-128292380D01*
X143224285Y-128244761D01*
X143271904Y-128197142D01*
X143319523Y-128101904D01*
X143319523Y-127292380D01*
X144224285Y-127292380D02*
X144033809Y-127292380D01*
X143938571Y-127340000D01*
X143890952Y-127387619D01*
X143795714Y-127530476D01*
X143748095Y-127720952D01*
X143748095Y-128101904D01*
X143795714Y-128197142D01*
X143843333Y-128244761D01*
X143938571Y-128292380D01*
X144129047Y-128292380D01*
X144224285Y-128244761D01*
X144271904Y-128197142D01*
X144319523Y-128101904D01*
X144319523Y-127863809D01*
X144271904Y-127768571D01*
X144224285Y-127720952D01*
X144129047Y-127673333D01*
X143938571Y-127673333D01*
X143843333Y-127720952D01*
X143795714Y-127768571D01*
X143748095Y-127863809D01*
X146558095Y-127292380D02*
X146558095Y-128101904D01*
X146605714Y-128197142D01*
X146653333Y-128244761D01*
X146748571Y-128292380D01*
X146939047Y-128292380D01*
X147034285Y-128244761D01*
X147081904Y-128197142D01*
X147129523Y-128101904D01*
X147129523Y-127292380D01*
X147510476Y-127292380D02*
X148177142Y-127292380D01*
X147748571Y-128292380D01*
X151638095Y-127292380D02*
X151638095Y-128101904D01*
X151685714Y-128197142D01*
X151733333Y-128244761D01*
X151828571Y-128292380D01*
X152019047Y-128292380D01*
X152114285Y-128244761D01*
X152161904Y-128197142D01*
X152209523Y-128101904D01*
X152209523Y-127292380D01*
X152828571Y-127720952D02*
X152733333Y-127673333D01*
X152685714Y-127625714D01*
X152638095Y-127530476D01*
X152638095Y-127482857D01*
X152685714Y-127387619D01*
X152733333Y-127340000D01*
X152828571Y-127292380D01*
X153019047Y-127292380D01*
X153114285Y-127340000D01*
X153161904Y-127387619D01*
X153209523Y-127482857D01*
X153209523Y-127530476D01*
X153161904Y-127625714D01*
X153114285Y-127673333D01*
X153019047Y-127720952D01*
X152828571Y-127720952D01*
X152733333Y-127768571D01*
X152685714Y-127816190D01*
X152638095Y-127911428D01*
X152638095Y-128101904D01*
X152685714Y-128197142D01*
X152733333Y-128244761D01*
X152828571Y-128292380D01*
X153019047Y-128292380D01*
X153114285Y-128244761D01*
X153161904Y-128197142D01*
X153209523Y-128101904D01*
X153209523Y-127911428D01*
X153161904Y-127816190D01*
X153114285Y-127768571D01*
X153019047Y-127720952D01*
X155448095Y-127292380D02*
X155448095Y-128101904D01*
X155495714Y-128197142D01*
X155543333Y-128244761D01*
X155638571Y-128292380D01*
X155829047Y-128292380D01*
X155924285Y-128244761D01*
X155971904Y-128197142D01*
X156019523Y-128101904D01*
X156019523Y-127292380D01*
X156543333Y-128292380D02*
X156733809Y-128292380D01*
X156829047Y-128244761D01*
X156876666Y-128197142D01*
X156971904Y-128054285D01*
X157019523Y-127863809D01*
X157019523Y-127482857D01*
X156971904Y-127387619D01*
X156924285Y-127340000D01*
X156829047Y-127292380D01*
X156638571Y-127292380D01*
X156543333Y-127340000D01*
X156495714Y-127387619D01*
X156448095Y-127482857D01*
X156448095Y-127720952D01*
X156495714Y-127816190D01*
X156543333Y-127863809D01*
X156638571Y-127911428D01*
X156829047Y-127911428D01*
X156924285Y-127863809D01*
X156971904Y-127816190D01*
X157019523Y-127720952D01*
X158781904Y-127292380D02*
X158781904Y-128101904D01*
X158829523Y-128197142D01*
X158877142Y-128244761D01*
X158972380Y-128292380D01*
X159162857Y-128292380D01*
X159258095Y-128244761D01*
X159305714Y-128197142D01*
X159353333Y-128101904D01*
X159353333Y-127292380D01*
X160353333Y-128292380D02*
X159781904Y-128292380D01*
X160067619Y-128292380D02*
X160067619Y-127292380D01*
X159972380Y-127435238D01*
X159877142Y-127530476D01*
X159781904Y-127578095D01*
X160972380Y-127292380D02*
X161067619Y-127292380D01*
X161162857Y-127340000D01*
X161210476Y-127387619D01*
X161258095Y-127482857D01*
X161305714Y-127673333D01*
X161305714Y-127911428D01*
X161258095Y-128101904D01*
X161210476Y-128197142D01*
X161162857Y-128244761D01*
X161067619Y-128292380D01*
X160972380Y-128292380D01*
X160877142Y-128244761D01*
X160829523Y-128197142D01*
X160781904Y-128101904D01*
X160734285Y-127911428D01*
X160734285Y-127673333D01*
X160781904Y-127482857D01*
X160829523Y-127387619D01*
X160877142Y-127340000D01*
X160972380Y-127292380D01*
X162591904Y-127292380D02*
X162591904Y-128101904D01*
X162639523Y-128197142D01*
X162687142Y-128244761D01*
X162782380Y-128292380D01*
X162972857Y-128292380D01*
X163068095Y-128244761D01*
X163115714Y-128197142D01*
X163163333Y-128101904D01*
X163163333Y-127292380D01*
X164163333Y-128292380D02*
X163591904Y-128292380D01*
X163877619Y-128292380D02*
X163877619Y-127292380D01*
X163782380Y-127435238D01*
X163687142Y-127530476D01*
X163591904Y-127578095D01*
X165115714Y-128292380D02*
X164544285Y-128292380D01*
X164830000Y-128292380D02*
X164830000Y-127292380D01*
X164734761Y-127435238D01*
X164639523Y-127530476D01*
X164544285Y-127578095D01*
X166401904Y-127292380D02*
X166401904Y-128101904D01*
X166449523Y-128197142D01*
X166497142Y-128244761D01*
X166592380Y-128292380D01*
X166782857Y-128292380D01*
X166878095Y-128244761D01*
X166925714Y-128197142D01*
X166973333Y-128101904D01*
X166973333Y-127292380D01*
X167973333Y-128292380D02*
X167401904Y-128292380D01*
X167687619Y-128292380D02*
X167687619Y-127292380D01*
X167592380Y-127435238D01*
X167497142Y-127530476D01*
X167401904Y-127578095D01*
X168354285Y-127387619D02*
X168401904Y-127340000D01*
X168497142Y-127292380D01*
X168735238Y-127292380D01*
X168830476Y-127340000D01*
X168878095Y-127387619D01*
X168925714Y-127482857D01*
X168925714Y-127578095D01*
X168878095Y-127720952D01*
X168306666Y-128292380D01*
X168925714Y-128292380D01*
X170211904Y-127292380D02*
X170211904Y-128101904D01*
X170259523Y-128197142D01*
X170307142Y-128244761D01*
X170402380Y-128292380D01*
X170592857Y-128292380D01*
X170688095Y-128244761D01*
X170735714Y-128197142D01*
X170783333Y-128101904D01*
X170783333Y-127292380D01*
X171783333Y-128292380D02*
X171211904Y-128292380D01*
X171497619Y-128292380D02*
X171497619Y-127292380D01*
X171402380Y-127435238D01*
X171307142Y-127530476D01*
X171211904Y-127578095D01*
X172116666Y-127292380D02*
X172735714Y-127292380D01*
X172402380Y-127673333D01*
X172545238Y-127673333D01*
X172640476Y-127720952D01*
X172688095Y-127768571D01*
X172735714Y-127863809D01*
X172735714Y-128101904D01*
X172688095Y-128197142D01*
X172640476Y-128244761D01*
X172545238Y-128292380D01*
X172259523Y-128292380D01*
X172164285Y-128244761D01*
X172116666Y-128197142D01*
X174021904Y-127292380D02*
X174021904Y-128101904D01*
X174069523Y-128197142D01*
X174117142Y-128244761D01*
X174212380Y-128292380D01*
X174402857Y-128292380D01*
X174498095Y-128244761D01*
X174545714Y-128197142D01*
X174593333Y-128101904D01*
X174593333Y-127292380D01*
X175593333Y-128292380D02*
X175021904Y-128292380D01*
X175307619Y-128292380D02*
X175307619Y-127292380D01*
X175212380Y-127435238D01*
X175117142Y-127530476D01*
X175021904Y-127578095D01*
X176450476Y-127625714D02*
X176450476Y-128292380D01*
X176212380Y-127244761D02*
X175974285Y-127959047D01*
X176593333Y-127959047D01*
X177831904Y-127292380D02*
X177831904Y-128101904D01*
X177879523Y-128197142D01*
X177927142Y-128244761D01*
X178022380Y-128292380D01*
X178212857Y-128292380D01*
X178308095Y-128244761D01*
X178355714Y-128197142D01*
X178403333Y-128101904D01*
X178403333Y-127292380D01*
X179403333Y-128292380D02*
X178831904Y-128292380D01*
X179117619Y-128292380D02*
X179117619Y-127292380D01*
X179022380Y-127435238D01*
X178927142Y-127530476D01*
X178831904Y-127578095D01*
X180308095Y-127292380D02*
X179831904Y-127292380D01*
X179784285Y-127768571D01*
X179831904Y-127720952D01*
X179927142Y-127673333D01*
X180165238Y-127673333D01*
X180260476Y-127720952D01*
X180308095Y-127768571D01*
X180355714Y-127863809D01*
X180355714Y-128101904D01*
X180308095Y-128197142D01*
X180260476Y-128244761D01*
X180165238Y-128292380D01*
X179927142Y-128292380D01*
X179831904Y-128244761D01*
X179784285Y-128197142D01*
X120570714Y-79746666D02*
X121046904Y-79746666D01*
X120475476Y-80032380D02*
X120808809Y-79032380D01*
X121142142Y-80032380D01*
X121665952Y-79032380D02*
X121761190Y-79032380D01*
X121856428Y-79080000D01*
X121904047Y-79127619D01*
X121951666Y-79222857D01*
X121999285Y-79413333D01*
X121999285Y-79651428D01*
X121951666Y-79841904D01*
X121904047Y-79937142D01*
X121856428Y-79984761D01*
X121761190Y-80032380D01*
X121665952Y-80032380D01*
X121570714Y-79984761D01*
X121523095Y-79937142D01*
X121475476Y-79841904D01*
X121427857Y-79651428D01*
X121427857Y-79413333D01*
X121475476Y-79222857D01*
X121523095Y-79127619D01*
X121570714Y-79080000D01*
X121665952Y-79032380D01*
X124380714Y-79746666D02*
X124856904Y-79746666D01*
X124285476Y-80032380D02*
X124618809Y-79032380D01*
X124952142Y-80032380D01*
X125809285Y-80032380D02*
X125237857Y-80032380D01*
X125523571Y-80032380D02*
X125523571Y-79032380D01*
X125428333Y-79175238D01*
X125333095Y-79270476D01*
X125237857Y-79318095D01*
X128190714Y-79746666D02*
X128666904Y-79746666D01*
X128095476Y-80032380D02*
X128428809Y-79032380D01*
X128762142Y-80032380D01*
X129047857Y-79127619D02*
X129095476Y-79080000D01*
X129190714Y-79032380D01*
X129428809Y-79032380D01*
X129524047Y-79080000D01*
X129571666Y-79127619D01*
X129619285Y-79222857D01*
X129619285Y-79318095D01*
X129571666Y-79460952D01*
X129000238Y-80032380D01*
X129619285Y-80032380D01*
X132000714Y-79746666D02*
X132476904Y-79746666D01*
X131905476Y-80032380D02*
X132238809Y-79032380D01*
X132572142Y-80032380D01*
X132810238Y-79032380D02*
X133429285Y-79032380D01*
X133095952Y-79413333D01*
X133238809Y-79413333D01*
X133334047Y-79460952D01*
X133381666Y-79508571D01*
X133429285Y-79603809D01*
X133429285Y-79841904D01*
X133381666Y-79937142D01*
X133334047Y-79984761D01*
X133238809Y-80032380D01*
X132953095Y-80032380D01*
X132857857Y-79984761D01*
X132810238Y-79937142D01*
X135810714Y-79746666D02*
X136286904Y-79746666D01*
X135715476Y-80032380D02*
X136048809Y-79032380D01*
X136382142Y-80032380D01*
X137144047Y-79365714D02*
X137144047Y-80032380D01*
X136905952Y-78984761D02*
X136667857Y-79699047D01*
X137286904Y-79699047D01*
X139620714Y-79746666D02*
X140096904Y-79746666D01*
X139525476Y-80032380D02*
X139858809Y-79032380D01*
X140192142Y-80032380D01*
X141001666Y-79032380D02*
X140525476Y-79032380D01*
X140477857Y-79508571D01*
X140525476Y-79460952D01*
X140620714Y-79413333D01*
X140858809Y-79413333D01*
X140954047Y-79460952D01*
X141001666Y-79508571D01*
X141049285Y-79603809D01*
X141049285Y-79841904D01*
X141001666Y-79937142D01*
X140954047Y-79984761D01*
X140858809Y-80032380D01*
X140620714Y-80032380D01*
X140525476Y-79984761D01*
X140477857Y-79937142D01*
X143430714Y-79746666D02*
X143906904Y-79746666D01*
X143335476Y-80032380D02*
X143668809Y-79032380D01*
X144002142Y-80032380D01*
X144764047Y-79032380D02*
X144573571Y-79032380D01*
X144478333Y-79080000D01*
X144430714Y-79127619D01*
X144335476Y-79270476D01*
X144287857Y-79460952D01*
X144287857Y-79841904D01*
X144335476Y-79937142D01*
X144383095Y-79984761D01*
X144478333Y-80032380D01*
X144668809Y-80032380D01*
X144764047Y-79984761D01*
X144811666Y-79937142D01*
X144859285Y-79841904D01*
X144859285Y-79603809D01*
X144811666Y-79508571D01*
X144764047Y-79460952D01*
X144668809Y-79413333D01*
X144478333Y-79413333D01*
X144383095Y-79460952D01*
X144335476Y-79508571D01*
X144287857Y-79603809D01*
X147240714Y-79746666D02*
X147716904Y-79746666D01*
X147145476Y-80032380D02*
X147478809Y-79032380D01*
X147812142Y-80032380D01*
X148050238Y-79032380D02*
X148716904Y-79032380D01*
X148288333Y-80032380D01*
X151050714Y-79746666D02*
X151526904Y-79746666D01*
X150955476Y-80032380D02*
X151288809Y-79032380D01*
X151622142Y-80032380D01*
X152098333Y-79460952D02*
X152003095Y-79413333D01*
X151955476Y-79365714D01*
X151907857Y-79270476D01*
X151907857Y-79222857D01*
X151955476Y-79127619D01*
X152003095Y-79080000D01*
X152098333Y-79032380D01*
X152288809Y-79032380D01*
X152384047Y-79080000D01*
X152431666Y-79127619D01*
X152479285Y-79222857D01*
X152479285Y-79270476D01*
X152431666Y-79365714D01*
X152384047Y-79413333D01*
X152288809Y-79460952D01*
X152098333Y-79460952D01*
X152003095Y-79508571D01*
X151955476Y-79556190D01*
X151907857Y-79651428D01*
X151907857Y-79841904D01*
X151955476Y-79937142D01*
X152003095Y-79984761D01*
X152098333Y-80032380D01*
X152288809Y-80032380D01*
X152384047Y-79984761D01*
X152431666Y-79937142D01*
X152479285Y-79841904D01*
X152479285Y-79651428D01*
X152431666Y-79556190D01*
X152384047Y-79508571D01*
X152288809Y-79460952D01*
X154860714Y-79746666D02*
X155336904Y-79746666D01*
X154765476Y-80032380D02*
X155098809Y-79032380D01*
X155432142Y-80032380D01*
X155813095Y-80032380D02*
X156003571Y-80032380D01*
X156098809Y-79984761D01*
X156146428Y-79937142D01*
X156241666Y-79794285D01*
X156289285Y-79603809D01*
X156289285Y-79222857D01*
X156241666Y-79127619D01*
X156194047Y-79080000D01*
X156098809Y-79032380D01*
X155908333Y-79032380D01*
X155813095Y-79080000D01*
X155765476Y-79127619D01*
X155717857Y-79222857D01*
X155717857Y-79460952D01*
X155765476Y-79556190D01*
X155813095Y-79603809D01*
X155908333Y-79651428D01*
X156098809Y-79651428D01*
X156194047Y-79603809D01*
X156241666Y-79556190D01*
X156289285Y-79460952D01*
X158194523Y-79746666D02*
X158670714Y-79746666D01*
X158099285Y-80032380D02*
X158432619Y-79032380D01*
X158765952Y-80032380D01*
X159623095Y-80032380D02*
X159051666Y-80032380D01*
X159337380Y-80032380D02*
X159337380Y-79032380D01*
X159242142Y-79175238D01*
X159146904Y-79270476D01*
X159051666Y-79318095D01*
X160242142Y-79032380D02*
X160337380Y-79032380D01*
X160432619Y-79080000D01*
X160480238Y-79127619D01*
X160527857Y-79222857D01*
X160575476Y-79413333D01*
X160575476Y-79651428D01*
X160527857Y-79841904D01*
X160480238Y-79937142D01*
X160432619Y-79984761D01*
X160337380Y-80032380D01*
X160242142Y-80032380D01*
X160146904Y-79984761D01*
X160099285Y-79937142D01*
X160051666Y-79841904D01*
X160004047Y-79651428D01*
X160004047Y-79413333D01*
X160051666Y-79222857D01*
X160099285Y-79127619D01*
X160146904Y-79080000D01*
X160242142Y-79032380D01*
X162004523Y-79746666D02*
X162480714Y-79746666D01*
X161909285Y-80032380D02*
X162242619Y-79032380D01*
X162575952Y-80032380D01*
X163433095Y-80032380D02*
X162861666Y-80032380D01*
X163147380Y-80032380D02*
X163147380Y-79032380D01*
X163052142Y-79175238D01*
X162956904Y-79270476D01*
X162861666Y-79318095D01*
X164385476Y-80032380D02*
X163814047Y-80032380D01*
X164099761Y-80032380D02*
X164099761Y-79032380D01*
X164004523Y-79175238D01*
X163909285Y-79270476D01*
X163814047Y-79318095D01*
X165814523Y-79746666D02*
X166290714Y-79746666D01*
X165719285Y-80032380D02*
X166052619Y-79032380D01*
X166385952Y-80032380D01*
X167243095Y-80032380D02*
X166671666Y-80032380D01*
X166957380Y-80032380D02*
X166957380Y-79032380D01*
X166862142Y-79175238D01*
X166766904Y-79270476D01*
X166671666Y-79318095D01*
X167624047Y-79127619D02*
X167671666Y-79080000D01*
X167766904Y-79032380D01*
X168005000Y-79032380D01*
X168100238Y-79080000D01*
X168147857Y-79127619D01*
X168195476Y-79222857D01*
X168195476Y-79318095D01*
X168147857Y-79460952D01*
X167576428Y-80032380D01*
X168195476Y-80032380D01*
X169624523Y-79746666D02*
X170100714Y-79746666D01*
X169529285Y-80032380D02*
X169862619Y-79032380D01*
X170195952Y-80032380D01*
X171053095Y-80032380D02*
X170481666Y-80032380D01*
X170767380Y-80032380D02*
X170767380Y-79032380D01*
X170672142Y-79175238D01*
X170576904Y-79270476D01*
X170481666Y-79318095D01*
X171386428Y-79032380D02*
X172005476Y-79032380D01*
X171672142Y-79413333D01*
X171815000Y-79413333D01*
X171910238Y-79460952D01*
X171957857Y-79508571D01*
X172005476Y-79603809D01*
X172005476Y-79841904D01*
X171957857Y-79937142D01*
X171910238Y-79984761D01*
X171815000Y-80032380D01*
X171529285Y-80032380D01*
X171434047Y-79984761D01*
X171386428Y-79937142D01*
X173434523Y-79746666D02*
X173910714Y-79746666D01*
X173339285Y-80032380D02*
X173672619Y-79032380D01*
X174005952Y-80032380D01*
X174863095Y-80032380D02*
X174291666Y-80032380D01*
X174577380Y-80032380D02*
X174577380Y-79032380D01*
X174482142Y-79175238D01*
X174386904Y-79270476D01*
X174291666Y-79318095D01*
X175720238Y-79365714D02*
X175720238Y-80032380D01*
X175482142Y-78984761D02*
X175244047Y-79699047D01*
X175863095Y-79699047D01*
X177244523Y-79746666D02*
X177720714Y-79746666D01*
X177149285Y-80032380D02*
X177482619Y-79032380D01*
X177815952Y-80032380D01*
X178673095Y-80032380D02*
X178101666Y-80032380D01*
X178387380Y-80032380D02*
X178387380Y-79032380D01*
X178292142Y-79175238D01*
X178196904Y-79270476D01*
X178101666Y-79318095D01*
X179577857Y-79032380D02*
X179101666Y-79032380D01*
X179054047Y-79508571D01*
X179101666Y-79460952D01*
X179196904Y-79413333D01*
X179435000Y-79413333D01*
X179530238Y-79460952D01*
X179577857Y-79508571D01*
X179625476Y-79603809D01*
X179625476Y-79841904D01*
X179577857Y-79937142D01*
X179530238Y-79984761D01*
X179435000Y-80032380D01*
X179196904Y-80032380D01*
X179101666Y-79984761D01*
X179054047Y-79937142D01*
X135786904Y-83842380D02*
X135786904Y-82842380D01*
X136025000Y-82842380D01*
X136167857Y-82890000D01*
X136263095Y-82985238D01*
X136310714Y-83080476D01*
X136358333Y-83270952D01*
X136358333Y-83413809D01*
X136310714Y-83604285D01*
X136263095Y-83699523D01*
X136167857Y-83794761D01*
X136025000Y-83842380D01*
X135786904Y-83842380D01*
X136977380Y-82842380D02*
X137072619Y-82842380D01*
X137167857Y-82890000D01*
X137215476Y-82937619D01*
X137263095Y-83032857D01*
X137310714Y-83223333D01*
X137310714Y-83461428D01*
X137263095Y-83651904D01*
X137215476Y-83747142D01*
X137167857Y-83794761D01*
X137072619Y-83842380D01*
X136977380Y-83842380D01*
X136882142Y-83794761D01*
X136834523Y-83747142D01*
X136786904Y-83651904D01*
X136739285Y-83461428D01*
X136739285Y-83223333D01*
X136786904Y-83032857D01*
X136834523Y-82937619D01*
X136882142Y-82890000D01*
X136977380Y-82842380D01*
X139596904Y-83842380D02*
X139596904Y-82842380D01*
X139835000Y-82842380D01*
X139977857Y-82890000D01*
X140073095Y-82985238D01*
X140120714Y-83080476D01*
X140168333Y-83270952D01*
X140168333Y-83413809D01*
X140120714Y-83604285D01*
X140073095Y-83699523D01*
X139977857Y-83794761D01*
X139835000Y-83842380D01*
X139596904Y-83842380D01*
X141120714Y-83842380D02*
X140549285Y-83842380D01*
X140835000Y-83842380D02*
X140835000Y-82842380D01*
X140739761Y-82985238D01*
X140644523Y-83080476D01*
X140549285Y-83128095D01*
X143406904Y-83842380D02*
X143406904Y-82842380D01*
X143645000Y-82842380D01*
X143787857Y-82890000D01*
X143883095Y-82985238D01*
X143930714Y-83080476D01*
X143978333Y-83270952D01*
X143978333Y-83413809D01*
X143930714Y-83604285D01*
X143883095Y-83699523D01*
X143787857Y-83794761D01*
X143645000Y-83842380D01*
X143406904Y-83842380D01*
X144359285Y-82937619D02*
X144406904Y-82890000D01*
X144502142Y-82842380D01*
X144740238Y-82842380D01*
X144835476Y-82890000D01*
X144883095Y-82937619D01*
X144930714Y-83032857D01*
X144930714Y-83128095D01*
X144883095Y-83270952D01*
X144311666Y-83842380D01*
X144930714Y-83842380D01*
X147216904Y-83842380D02*
X147216904Y-82842380D01*
X147455000Y-82842380D01*
X147597857Y-82890000D01*
X147693095Y-82985238D01*
X147740714Y-83080476D01*
X147788333Y-83270952D01*
X147788333Y-83413809D01*
X147740714Y-83604285D01*
X147693095Y-83699523D01*
X147597857Y-83794761D01*
X147455000Y-83842380D01*
X147216904Y-83842380D01*
X148121666Y-82842380D02*
X148740714Y-82842380D01*
X148407380Y-83223333D01*
X148550238Y-83223333D01*
X148645476Y-83270952D01*
X148693095Y-83318571D01*
X148740714Y-83413809D01*
X148740714Y-83651904D01*
X148693095Y-83747142D01*
X148645476Y-83794761D01*
X148550238Y-83842380D01*
X148264523Y-83842380D01*
X148169285Y-83794761D01*
X148121666Y-83747142D01*
X151026904Y-83842380D02*
X151026904Y-82842380D01*
X151265000Y-82842380D01*
X151407857Y-82890000D01*
X151503095Y-82985238D01*
X151550714Y-83080476D01*
X151598333Y-83270952D01*
X151598333Y-83413809D01*
X151550714Y-83604285D01*
X151503095Y-83699523D01*
X151407857Y-83794761D01*
X151265000Y-83842380D01*
X151026904Y-83842380D01*
X152455476Y-83175714D02*
X152455476Y-83842380D01*
X152217380Y-82794761D02*
X151979285Y-83509047D01*
X152598333Y-83509047D01*
X154836904Y-83842380D02*
X154836904Y-82842380D01*
X155075000Y-82842380D01*
X155217857Y-82890000D01*
X155313095Y-82985238D01*
X155360714Y-83080476D01*
X155408333Y-83270952D01*
X155408333Y-83413809D01*
X155360714Y-83604285D01*
X155313095Y-83699523D01*
X155217857Y-83794761D01*
X155075000Y-83842380D01*
X154836904Y-83842380D01*
X156313095Y-82842380D02*
X155836904Y-82842380D01*
X155789285Y-83318571D01*
X155836904Y-83270952D01*
X155932142Y-83223333D01*
X156170238Y-83223333D01*
X156265476Y-83270952D01*
X156313095Y-83318571D01*
X156360714Y-83413809D01*
X156360714Y-83651904D01*
X156313095Y-83747142D01*
X156265476Y-83794761D01*
X156170238Y-83842380D01*
X155932142Y-83842380D01*
X155836904Y-83794761D01*
X155789285Y-83747142D01*
X158646904Y-83842380D02*
X158646904Y-82842380D01*
X158885000Y-82842380D01*
X159027857Y-82890000D01*
X159123095Y-82985238D01*
X159170714Y-83080476D01*
X159218333Y-83270952D01*
X159218333Y-83413809D01*
X159170714Y-83604285D01*
X159123095Y-83699523D01*
X159027857Y-83794761D01*
X158885000Y-83842380D01*
X158646904Y-83842380D01*
X160075476Y-82842380D02*
X159885000Y-82842380D01*
X159789761Y-82890000D01*
X159742142Y-82937619D01*
X159646904Y-83080476D01*
X159599285Y-83270952D01*
X159599285Y-83651904D01*
X159646904Y-83747142D01*
X159694523Y-83794761D01*
X159789761Y-83842380D01*
X159980238Y-83842380D01*
X160075476Y-83794761D01*
X160123095Y-83747142D01*
X160170714Y-83651904D01*
X160170714Y-83413809D01*
X160123095Y-83318571D01*
X160075476Y-83270952D01*
X159980238Y-83223333D01*
X159789761Y-83223333D01*
X159694523Y-83270952D01*
X159646904Y-83318571D01*
X159599285Y-83413809D01*
X162456904Y-83842380D02*
X162456904Y-82842380D01*
X162695000Y-82842380D01*
X162837857Y-82890000D01*
X162933095Y-82985238D01*
X162980714Y-83080476D01*
X163028333Y-83270952D01*
X163028333Y-83413809D01*
X162980714Y-83604285D01*
X162933095Y-83699523D01*
X162837857Y-83794761D01*
X162695000Y-83842380D01*
X162456904Y-83842380D01*
X163361666Y-82842380D02*
X164028333Y-82842380D01*
X163599761Y-83842380D01*
X123904523Y-86553200D02*
X124904523Y-86553200D01*
X124714047Y-87855580D02*
X124380714Y-87379390D01*
X124142619Y-87855580D02*
X124142619Y-86855580D01*
X124523571Y-86855580D01*
X124618809Y-86903200D01*
X124666428Y-86950819D01*
X124714047Y-87046057D01*
X124714047Y-87188914D01*
X124666428Y-87284152D01*
X124618809Y-87331771D01*
X124523571Y-87379390D01*
X124142619Y-87379390D01*
X124904523Y-86553200D02*
X125714047Y-86553200D01*
X125095000Y-87807961D02*
X125190238Y-87855580D01*
X125380714Y-87855580D01*
X125475952Y-87807961D01*
X125523571Y-87712723D01*
X125523571Y-87665104D01*
X125475952Y-87569866D01*
X125380714Y-87522247D01*
X125237857Y-87522247D01*
X125142619Y-87474628D01*
X125095000Y-87379390D01*
X125095000Y-87331771D01*
X125142619Y-87236533D01*
X125237857Y-87188914D01*
X125380714Y-87188914D01*
X125475952Y-87236533D01*
X125714047Y-86553200D02*
X126285476Y-86553200D01*
X125809285Y-87188914D02*
X126190238Y-87188914D01*
X125952142Y-86855580D02*
X125952142Y-87712723D01*
X125999761Y-87807961D01*
X126095000Y-87855580D01*
X126190238Y-87855580D01*
X127500238Y-86553200D02*
X128500238Y-86553200D01*
X128309761Y-87760342D02*
X128262142Y-87807961D01*
X128119285Y-87855580D01*
X128024047Y-87855580D01*
X127881190Y-87807961D01*
X127785952Y-87712723D01*
X127738333Y-87617485D01*
X127690714Y-87427009D01*
X127690714Y-87284152D01*
X127738333Y-87093676D01*
X127785952Y-86998438D01*
X127881190Y-86903200D01*
X128024047Y-86855580D01*
X128119285Y-86855580D01*
X128262142Y-86903200D01*
X128309761Y-86950819D01*
X128500238Y-86553200D02*
X129309761Y-86553200D01*
X129214523Y-87855580D02*
X128738333Y-87855580D01*
X128738333Y-86855580D01*
X129309761Y-86553200D02*
X130309761Y-86553200D01*
X129547857Y-87855580D02*
X129547857Y-86855580D01*
X130119285Y-87855580D02*
X129690714Y-87284152D01*
X130119285Y-86855580D02*
X129547857Y-87427009D01*
X131381666Y-86553200D02*
X132429285Y-86553200D01*
X131619761Y-87855580D02*
X131619761Y-86855580D01*
X132191190Y-87855580D01*
X132191190Y-86855580D01*
X132429285Y-86553200D02*
X133572142Y-86553200D01*
X132667380Y-87855580D02*
X132667380Y-86855580D01*
X133000714Y-87569866D01*
X133334047Y-86855580D01*
X133334047Y-87855580D01*
X133572142Y-86553200D02*
X134048333Y-86553200D01*
X133810238Y-87855580D02*
X133810238Y-86855580D01*
X135382142Y-86553200D02*
X135858333Y-86553200D01*
X135620238Y-87855580D02*
X135620238Y-86855580D01*
X135858333Y-86553200D02*
X136905952Y-86553200D01*
X136096428Y-87855580D02*
X136096428Y-86855580D01*
X136667857Y-87855580D01*
X136667857Y-86855580D01*
X136905952Y-86553200D02*
X137667857Y-86553200D01*
X137001190Y-86855580D02*
X137572619Y-86855580D01*
X137286904Y-87855580D02*
X137286904Y-86855580D01*
D11*
X139287380Y-86488200D02*
X140430238Y-86488200D01*
X139525476Y-87855580D02*
X139525476Y-86855580D01*
X139858809Y-87569866D01*
X140192142Y-86855580D01*
X140192142Y-87855580D01*
X140430238Y-86488200D02*
X141382619Y-86488200D01*
X141192142Y-87855580D02*
X140620714Y-87855580D01*
X140906428Y-87855580D02*
X140906428Y-86855580D01*
X140811190Y-86998438D01*
X140715952Y-87093676D01*
X140620714Y-87141295D01*
X142692619Y-86488200D02*
X143692619Y-86488200D01*
X143502142Y-87855580D02*
X143168809Y-87379390D01*
X142930714Y-87855580D02*
X142930714Y-86855580D01*
X143311666Y-86855580D01*
X143406904Y-86903200D01*
X143454523Y-86950819D01*
X143502142Y-87046057D01*
X143502142Y-87188914D01*
X143454523Y-87284152D01*
X143406904Y-87331771D01*
X143311666Y-87379390D01*
X142930714Y-87379390D01*
X143692619Y-86488200D02*
X144549761Y-86488200D01*
X144264047Y-87331771D02*
X143930714Y-87331771D01*
X143930714Y-87855580D02*
X143930714Y-86855580D01*
X144406904Y-86855580D01*
X144549761Y-86488200D02*
X145597380Y-86488200D01*
X144787857Y-87855580D02*
X144787857Y-86855580D01*
X144787857Y-87331771D02*
X145359285Y-87331771D01*
X145359285Y-87855580D02*
X145359285Y-86855580D01*
D15*
X147002619Y-86553200D02*
X148145476Y-86553200D01*
X147145476Y-86855580D02*
X147383571Y-87855580D01*
X147574047Y-87141295D01*
X147764523Y-87855580D01*
X148002619Y-86855580D01*
X148145476Y-86553200D02*
X148907380Y-86553200D01*
X148240714Y-86855580D02*
X148812142Y-86855580D01*
X148526428Y-87855580D02*
X148526428Y-86855580D01*
X150455476Y-86553200D02*
X151503095Y-86553200D01*
X150693571Y-87855580D02*
X150693571Y-86855580D01*
X150693571Y-87331771D02*
X151265000Y-87331771D01*
X151265000Y-87855580D02*
X151265000Y-86855580D01*
X151503095Y-86553200D02*
X152312619Y-86553200D01*
X152217380Y-87855580D02*
X151741190Y-87855580D01*
X151741190Y-86855580D01*
X152312619Y-86553200D02*
X153074523Y-86553200D01*
X152407857Y-86855580D02*
X152979285Y-86855580D01*
X152693571Y-87855580D02*
X152693571Y-86855580D01*
X154575000Y-86553200D02*
X155575000Y-86553200D01*
X155384523Y-87855580D02*
X155051190Y-87379390D01*
X154813095Y-87855580D02*
X154813095Y-86855580D01*
X155194047Y-86855580D01*
X155289285Y-86903200D01*
X155336904Y-86950819D01*
X155384523Y-87046057D01*
X155384523Y-87188914D01*
X155336904Y-87284152D01*
X155289285Y-87331771D01*
X155194047Y-87379390D01*
X154813095Y-87379390D01*
X155575000Y-86553200D02*
X156575000Y-86553200D01*
X155813095Y-87855580D02*
X155813095Y-86855580D01*
X156051190Y-86855580D01*
X156194047Y-86903200D01*
X156289285Y-86998438D01*
X156336904Y-87093676D01*
X156384523Y-87284152D01*
X156384523Y-87427009D01*
X156336904Y-87617485D01*
X156289285Y-87712723D01*
X156194047Y-87807961D01*
X156051190Y-87855580D01*
X155813095Y-87855580D01*
X158313571Y-86553200D02*
X159456428Y-86553200D01*
X158456428Y-86855580D02*
X158694523Y-87855580D01*
X158885000Y-87141295D01*
X159075476Y-87855580D01*
X159313571Y-86855580D01*
X159456428Y-86553200D02*
X160456428Y-86553200D01*
X160265952Y-87855580D02*
X159932619Y-87379390D01*
X159694523Y-87855580D02*
X159694523Y-86855580D01*
X160075476Y-86855580D01*
X160170714Y-86903200D01*
X160218333Y-86950819D01*
X160265952Y-87046057D01*
X160265952Y-87188914D01*
X160218333Y-87284152D01*
X160170714Y-87331771D01*
X160075476Y-87379390D01*
X159694523Y-87379390D01*
X161599761Y-86553200D02*
X162742619Y-86553200D01*
X161837857Y-87855580D02*
X161837857Y-86855580D01*
X162171190Y-87569866D01*
X162504523Y-86855580D01*
X162504523Y-87855580D01*
X162742619Y-86553200D02*
X163742619Y-86553200D01*
X163552142Y-87855580D02*
X163218809Y-87379390D01*
X162980714Y-87855580D02*
X162980714Y-86855580D01*
X163361666Y-86855580D01*
X163456904Y-86903200D01*
X163504523Y-86950819D01*
X163552142Y-87046057D01*
X163552142Y-87188914D01*
X163504523Y-87284152D01*
X163456904Y-87331771D01*
X163361666Y-87379390D01*
X162980714Y-87379390D01*
X163742619Y-86553200D02*
X164790238Y-86553200D01*
X164647380Y-87950819D02*
X164552142Y-87903200D01*
X164456904Y-87807961D01*
X164314047Y-87665104D01*
X164218809Y-87617485D01*
X164123571Y-87617485D01*
X164171190Y-87855580D02*
X164075952Y-87807961D01*
X163980714Y-87712723D01*
X163933095Y-87522247D01*
X163933095Y-87188914D01*
X163980714Y-86998438D01*
X164075952Y-86903200D01*
X164171190Y-86855580D01*
X164361666Y-86855580D01*
X164456904Y-86903200D01*
X164552142Y-86998438D01*
X164599761Y-87188914D01*
X164599761Y-87522247D01*
X164552142Y-87712723D01*
X164456904Y-87807961D01*
X164361666Y-87855580D01*
X164171190Y-87855580D01*
X165743095Y-86553200D02*
X166219285Y-86553200D01*
X165981190Y-87855580D02*
X165981190Y-86855580D01*
X166219285Y-86553200D02*
X167266904Y-86553200D01*
X166647857Y-86855580D02*
X166838333Y-86855580D01*
X166933571Y-86903200D01*
X167028809Y-86998438D01*
X167076428Y-87188914D01*
X167076428Y-87522247D01*
X167028809Y-87712723D01*
X166933571Y-87807961D01*
X166838333Y-87855580D01*
X166647857Y-87855580D01*
X166552619Y-87807961D01*
X166457380Y-87712723D01*
X166409761Y-87522247D01*
X166409761Y-87188914D01*
X166457380Y-86998438D01*
X166552619Y-86903200D01*
X166647857Y-86855580D01*
X167266904Y-86553200D02*
X168266904Y-86553200D01*
X168076428Y-87855580D02*
X167743095Y-87379390D01*
X167505000Y-87855580D02*
X167505000Y-86855580D01*
X167885952Y-86855580D01*
X167981190Y-86903200D01*
X168028809Y-86950819D01*
X168076428Y-87046057D01*
X168076428Y-87188914D01*
X168028809Y-87284152D01*
X167981190Y-87331771D01*
X167885952Y-87379390D01*
X167505000Y-87379390D01*
X169291190Y-86553200D02*
X170291190Y-86553200D01*
X169862619Y-87331771D02*
X170005476Y-87379390D01*
X170053095Y-87427009D01*
X170100714Y-87522247D01*
X170100714Y-87665104D01*
X170053095Y-87760342D01*
X170005476Y-87807961D01*
X169910238Y-87855580D01*
X169529285Y-87855580D01*
X169529285Y-86855580D01*
X169862619Y-86855580D01*
X169957857Y-86903200D01*
X170005476Y-86950819D01*
X170053095Y-87046057D01*
X170053095Y-87141295D01*
X170005476Y-87236533D01*
X169957857Y-87284152D01*
X169862619Y-87331771D01*
X169529285Y-87331771D01*
X170291190Y-86553200D02*
X171291190Y-86553200D01*
X171100714Y-87855580D02*
X170767380Y-87379390D01*
X170529285Y-87855580D02*
X170529285Y-86855580D01*
X170910238Y-86855580D01*
X171005476Y-86903200D01*
X171053095Y-86950819D01*
X171100714Y-87046057D01*
X171100714Y-87188914D01*
X171053095Y-87284152D01*
X171005476Y-87331771D01*
X170910238Y-87379390D01*
X170529285Y-87379390D01*
X171291190Y-86553200D02*
X172338809Y-86553200D01*
X172195952Y-87950819D02*
X172100714Y-87903200D01*
X172005476Y-87807961D01*
X171862619Y-87665104D01*
X171767380Y-87617485D01*
X171672142Y-87617485D01*
X171719761Y-87855580D02*
X171624523Y-87807961D01*
X171529285Y-87712723D01*
X171481666Y-87522247D01*
X171481666Y-87188914D01*
X171529285Y-86998438D01*
X171624523Y-86903200D01*
X171719761Y-86855580D01*
X171910238Y-86855580D01*
X172005476Y-86903200D01*
X172100714Y-86998438D01*
X172148333Y-87188914D01*
X172148333Y-87522247D01*
X172100714Y-87712723D01*
X172005476Y-87807961D01*
X171910238Y-87855580D01*
X171719761Y-87855580D01*
X173125000Y-86553200D02*
X174125000Y-86553200D01*
X173696428Y-87331771D02*
X173839285Y-87379390D01*
X173886904Y-87427009D01*
X173934523Y-87522247D01*
X173934523Y-87665104D01*
X173886904Y-87760342D01*
X173839285Y-87807961D01*
X173744047Y-87855580D01*
X173363095Y-87855580D01*
X173363095Y-86855580D01*
X173696428Y-86855580D01*
X173791666Y-86903200D01*
X173839285Y-86950819D01*
X173886904Y-87046057D01*
X173886904Y-87141295D01*
X173839285Y-87236533D01*
X173791666Y-87284152D01*
X173696428Y-87331771D01*
X173363095Y-87331771D01*
X174125000Y-86553200D02*
X175125000Y-86553200D01*
X174934523Y-87760342D02*
X174886904Y-87807961D01*
X174744047Y-87855580D01*
X174648809Y-87855580D01*
X174505952Y-87807961D01*
X174410714Y-87712723D01*
X174363095Y-87617485D01*
X174315476Y-87427009D01*
X174315476Y-87284152D01*
X174363095Y-87093676D01*
X174410714Y-86998438D01*
X174505952Y-86903200D01*
X174648809Y-86855580D01*
X174744047Y-86855580D01*
X174886904Y-86903200D01*
X174934523Y-86950819D01*
X175125000Y-86553200D02*
X176125000Y-86553200D01*
X175363095Y-87855580D02*
X175363095Y-86855580D01*
X175934523Y-87855580D02*
X175505952Y-87284152D01*
X175934523Y-86855580D02*
X175363095Y-87427009D01*
M02*
