M48
;DRILL file {KiCad (5.0.0)} date 10/23/18 17:25:55
;FORMAT={-:-/ absolute / inch / decimal}
FMAT,2
INCH,TZ
T1C0.0130
T2C0.0315
T3C0.0394
T4C0.1260
%
G90
G05
M72
T1
X3.0268Y-2.9484
X3.0271Y-2.867
X3.1884Y-2.8738
X3.1887Y-2.9375
X3.2426Y-1.4202
X3.357Y-3.3935
X3.3748Y-3.4592
X3.3763Y-3.4235
X3.3995Y-3.234
X3.4002Y-3.11
X3.401Y-2.7
X3.4249Y-3.4751
X3.4507Y-3.1097
X3.4712Y-3.3692
X3.499Y-3.26
X3.5412Y-3.4987
X3.5761Y-3.4979
X3.601Y-3.2895
X3.6086Y-2.4997
X3.6142Y-2.3
X3.6245Y-3.1044
X3.6263Y-2.2687
X3.628Y-2.1
X3.6286Y-2.4
X3.6386Y-2.068
X3.639Y-1.9
X3.6507Y-1.8683
X3.6624Y-3.1053
X3.6734Y-2.1999
X3.6869Y-2.6
X3.6968Y-1.9998
X3.7015Y-3.3155
X3.7202Y-3.1309
X3.7209Y-1.7999
X3.724Y-2.2523
X3.7452Y-1.9998
X3.7482Y-2.4
X3.7783Y-3.1072
X3.8007Y-3.3412
X3.8198Y-3.1581
X3.8522Y-3.1832
X3.8993Y-3.1322
X3.9Y-3.4255
X3.9402Y-3.1337
X3.9635Y-3.2073
X4.0003Y-3.1083
X4.0005Y-3.4252
X4.0093Y-2.5
X4.0149Y-2.2997
X4.0187Y-3.2337
X4.0269Y-2.1
X4.0271Y-2.2673
X4.0387Y-2.0682
X4.0402Y-1.8998
X4.0506Y-1.8676
X4.0558Y-3.2603
X4.095Y-2.3997
X4.0989Y-1.9986
X4.1004Y-3.1582
X4.1065Y-2.3493
X4.1122Y-2.2016
X4.1202Y-2.423
X4.1244Y-1.8012
X4.1293Y-2.5995
X4.1408Y-3.2876
X4.1432Y-2.2139
X4.1489Y-2.0287
X4.1637Y-3.3131
X4.1997Y-3.1812
X4.2264Y-2.3491
X4.2407Y-3.3406
X4.2635Y-3.3663
X4.2955Y-3.2444
X4.2999Y-3.1337
X4.3406Y-3.4751
X4.3632Y-3.4998
X4.3669Y-2.1499
X4.3671Y-2.3502
X4.3964Y-3.2068
X4.3971Y-3.2447
X4.3971Y-3.2449
X4.4144Y-2.3999
X4.4271Y-2.3001
X4.4274Y-2.3501
X4.4407Y-2.2
X4.4438Y-3.4246
X4.4509Y-2.1505
X4.4509Y-2.1505
X4.4513Y-2.1006
X4.4513Y-2.2344
X4.4645Y-2.0006
X4.4706Y-2.179
X4.4741Y-2.1267
X4.4746Y-2.3
X4.4754Y-1.8995
X4.479Y-2.0721
X4.4859Y-2.6
X4.4871Y-1.8006
X4.4986Y-2.1001
X4.503Y-3.2447
X4.5032Y-3.2449
X4.5076Y-2.5
X4.5111Y-2.4195
X4.5218Y-2.
X4.5444Y-1.8999
X4.5697Y-2.45
X4.5967Y-3.2444
X4.6Y-3.1201
X4.6225Y-2.6467
X4.6228Y-2.1505
X4.6265Y-2.45
X4.7089Y-1.3703
X4.7781Y-1.9501
X4.7955Y-3.3975
X4.7968Y-1.4704
X4.7971Y-2.3428
X4.8014Y-2.6724
X4.808Y-2.775
X4.8154Y-2.5286
X4.8406Y-3.1202
X4.8497Y-2.
X4.8724Y-1.8
X4.8744Y-3.122
X4.8936Y-3.1679
X4.8949Y-1.9513
X4.8972Y-2.0248
X4.899Y-3.2195
X4.9081Y-2.775
X4.9175Y-3.1447
X4.9201Y-2.3428
X4.931Y-2.5285
X4.9312Y-2.6225
X4.9659Y-2.0309
X4.9659Y-2.6234
X4.967Y-3.0978
X4.969Y-3.1445
X4.9971Y-1.7686
X4.9998Y-3.4511
X5.Y-3.1936
X5.0755Y-1.7205
X5.1Y-3.427
X5.1464Y-1.7211
X5.224Y-3.1678
X5.2474Y-3.1938
X5.2705Y-3.2189
X5.4355Y-2.8739
X5.4355Y-2.9326
X5.5734Y-2.8742
X5.5737Y-2.9343
T2
X3.1Y-2.15
X3.1Y-2.45
X4.35Y-1.8
X4.35Y-1.9
X4.35Y-2.
X4.35Y-2.1
X4.35Y-2.2
X4.35Y-2.3
X4.35Y-2.4
X4.35Y-2.5
X4.35Y-2.6
X4.35Y-2.7
X4.65Y-1.8
X4.65Y-1.9
X4.65Y-2.
X4.65Y-2.1
X4.65Y-2.2
X4.65Y-2.3
X4.65Y-2.4
X4.65Y-2.5
X4.65Y-2.6
X4.65Y-2.7
X2.95Y-3.
X2.95Y-3.1
X2.95Y-3.2
X2.95Y-3.3
X2.95Y-3.4
X2.95Y-3.5
X2.95Y-3.6
X3.25Y-3.
X3.25Y-3.1
X3.25Y-3.2
X3.25Y-3.3
X3.25Y-3.4
X3.25Y-3.5
X3.25Y-3.6
X5.65Y-2.15
X5.65Y-2.45
X3.25Y-2.15
X3.25Y-2.45
X3.0031Y-3.75
X3.2Y-3.75
X3.1Y-1.75
X3.1Y-2.05
X3.25Y-2.55
X3.25Y-2.85
X3.4Y-2.15
X3.4Y-2.45
X5.35Y-1.755
X5.35Y-2.055
X3.55Y-1.8
X3.55Y-1.9
X3.55Y-2.
X3.55Y-2.1
X3.55Y-2.2
X3.55Y-2.3
X3.55Y-2.4
X3.55Y-2.5
X3.55Y-2.6
X3.55Y-2.7
X3.85Y-1.8
X3.85Y-1.9
X3.85Y-2.
X3.85Y-2.1
X3.85Y-2.2
X3.85Y-2.3
X3.85Y-2.4
X3.85Y-2.5
X3.85Y-2.6
X3.85Y-2.7
X3.4Y-2.55
X3.4Y-2.85
X4.75Y-1.8
X4.75Y-1.9
X4.75Y-2.
X4.75Y-2.1
X4.75Y-2.2
X4.75Y-2.3
X4.75Y-2.4
X4.75Y-2.5
X4.75Y-2.6
X4.75Y-2.7
X5.05Y-1.8
X5.05Y-1.9
X5.05Y-2.
X5.05Y-2.1
X5.05Y-2.2
X5.05Y-2.3
X5.05Y-2.4
X5.05Y-2.5
X5.05Y-2.6
X5.05Y-2.7
X2.95Y-1.75
X2.95Y-2.05
X3.6031Y-2.85
X3.8Y-2.85
X5.65Y-2.55
X5.65Y-2.85
X5.35Y-2.15
X5.35Y-2.45
X3.95Y-1.8
X3.95Y-1.9
X3.95Y-2.
X3.95Y-2.1
X3.95Y-2.2
X3.95Y-2.3
X3.95Y-2.4
X3.95Y-2.5
X3.95Y-2.6
X3.95Y-2.7
X4.25Y-1.8
X4.25Y-1.9
X4.25Y-2.
X4.25Y-2.1
X4.25Y-2.2
X4.25Y-2.3
X4.25Y-2.4
X4.25Y-2.5
X4.25Y-2.6
X4.25Y-2.7
X5.5Y-2.15
X5.5Y-2.45
X2.95Y-2.55
X2.95Y-2.85
X5.2Y-2.15
X5.2Y-2.45
X3.4Y-1.75
X3.4Y-2.05
X5.2Y-1.755
X5.2Y-2.055
X4.8031Y-2.85
X5.Y-2.85
X5.5Y-1.75
X5.5Y-2.05
X5.2Y-2.55
X5.2Y-2.85
X5.45Y-3.2531
X5.45Y-3.45
X5.65Y-1.75
X5.65Y-2.05
X4.4031Y-2.85
X4.6Y-2.85
X3.1Y-2.55
X3.1Y-2.85
X5.35Y-2.55
X5.35Y-2.85
X3.4Y-3.05
X3.4Y-3.65
X3.5Y-3.05
X3.5Y-3.65
X3.6Y-3.05
X3.6Y-3.65
X3.7Y-3.05
X3.7Y-3.65
X3.8Y-3.05
X3.8Y-3.65
X3.9Y-3.05
X3.9Y-3.65
X4.Y-3.05
X4.Y-3.65
X4.1Y-3.05
X4.1Y-3.65
X4.2Y-3.05
X4.2Y-3.65
X4.3Y-3.05
X4.3Y-3.65
X4.4Y-3.05
X4.4Y-3.65
X4.5Y-3.05
X4.5Y-3.65
X4.6Y-3.05
X4.6Y-3.65
X4.7Y-3.05
X4.7Y-3.65
X4.8Y-3.05
X4.8Y-3.65
X4.9Y-3.05
X4.9Y-3.65
X5.Y-3.05
X5.Y-3.65
X5.1Y-3.05
X5.1Y-3.65
X5.2Y-3.05
X5.2Y-3.65
X5.3Y-3.05
X5.3Y-3.65
X5.5Y-2.55
X5.5Y-2.85
X4.0031Y-2.85
X4.2Y-2.85
X2.95Y-2.15
X2.95Y-2.45
X3.25Y-1.75
X3.25Y-2.05
T3
X4.53Y-3.822
X4.63Y-3.822
X4.73Y-3.822
X4.83Y-3.822
X4.93Y-3.822
X5.03Y-3.822
X5.13Y-3.822
X5.23Y-3.822
X3.353Y-1.4202
X3.353Y-1.5202
X3.453Y-1.4202
X3.453Y-1.5202
X3.553Y-1.4202
X3.553Y-1.5202
X3.653Y-1.4202
X3.653Y-1.5202
X3.753Y-1.4202
X3.753Y-1.5202
X3.853Y-1.4202
X3.853Y-1.5202
X3.953Y-1.4202
X3.953Y-1.5202
X4.053Y-1.4202
X4.053Y-1.5202
X4.153Y-1.4202
X4.153Y-1.5202
X4.253Y-1.4202
X4.253Y-1.5202
X4.353Y-1.4202
X4.353Y-1.5202
X4.453Y-1.4202
X4.453Y-1.5202
X4.553Y-1.4202
X4.553Y-1.5202
X4.653Y-1.4202
X4.653Y-1.5202
X4.753Y-1.4202
X4.753Y-1.5202
X4.853Y-1.4202
X4.853Y-1.5202
X4.953Y-1.4202
X4.953Y-1.5202
X5.053Y-1.4202
X5.053Y-1.5202
X5.153Y-1.4202
X5.153Y-1.5202
X5.253Y-1.4202
X5.253Y-1.5202
X3.37Y-3.822
X3.47Y-3.822
X3.57Y-3.822
X3.67Y-3.822
X3.77Y-3.822
X3.87Y-3.822
X3.97Y-3.822
X4.07Y-3.822
T4
X3.Y-1.3
X5.6Y-1.3
X3.Y-3.9
X5.6Y-3.9
T0
M30
