%TF.GenerationSoftware,KiCad,Pcbnew,(5.0.0)*%
%TF.CreationDate,2018-10-23T17:25:26+02:00*%
%TF.ProjectId,S80 Processor,5338302050726F636573736F722E6B69,1.0*%
%TF.SameCoordinates,Original*%
%TF.FileFunction,Legend,Top*%
%TF.FilePolarity,Positive*%
%FSLAX46Y46*%
G04 Gerber Fmt 4.6, Leading zero omitted, Abs format (unit mm)*
G04 Created by KiCad (PCBNEW (5.0.0)) date 10/23/18 17:25:26*
%MOMM*%
%LPD*%
G01*
G04 APERTURE LIST*
%ADD10C,0.250000*%
%ADD11C,0.150000*%
%ADD12C,0.120000*%
G04 APERTURE END LIST*
D10*
X86040941Y-33274165D02*
X86326656Y-33417022D01*
X86802846Y-33417022D01*
X86993322Y-33274165D01*
X87088560Y-33131308D01*
X87183799Y-32845594D01*
X87183799Y-32559880D01*
X87088560Y-32274165D01*
X86993322Y-32131308D01*
X86802846Y-31988451D01*
X86421894Y-31845594D01*
X86231418Y-31702737D01*
X86136180Y-31559880D01*
X86040941Y-31274165D01*
X86040941Y-30988451D01*
X86136180Y-30702737D01*
X86231418Y-30559880D01*
X86421894Y-30417022D01*
X86898084Y-30417022D01*
X87183799Y-30559880D01*
X87755227Y-31417022D02*
X88517132Y-31417022D01*
X88040941Y-30417022D02*
X88040941Y-32988451D01*
X88136180Y-33274165D01*
X88326656Y-33417022D01*
X88517132Y-33417022D01*
X90040941Y-33417022D02*
X90040941Y-31845594D01*
X89945703Y-31559880D01*
X89755227Y-31417022D01*
X89374275Y-31417022D01*
X89183799Y-31559880D01*
X90040941Y-33274165D02*
X89850465Y-33417022D01*
X89374275Y-33417022D01*
X89183799Y-33274165D01*
X89088560Y-32988451D01*
X89088560Y-32702737D01*
X89183799Y-32417022D01*
X89374275Y-32274165D01*
X89850465Y-32274165D01*
X90040941Y-32131308D01*
X91850465Y-33274165D02*
X91659989Y-33417022D01*
X91279037Y-33417022D01*
X91088560Y-33274165D01*
X90993322Y-33131308D01*
X90898084Y-32845594D01*
X90898084Y-31988451D01*
X90993322Y-31702737D01*
X91088560Y-31559880D01*
X91279037Y-31417022D01*
X91659989Y-31417022D01*
X91850465Y-31559880D01*
X92707608Y-33417022D02*
X92707608Y-30417022D01*
X92898084Y-32274165D02*
X93469513Y-33417022D01*
X93469513Y-31417022D02*
X92707608Y-32559880D01*
X95183799Y-33417022D02*
X95183799Y-31845594D01*
X95088560Y-31559880D01*
X94898084Y-31417022D01*
X94517132Y-31417022D01*
X94326656Y-31559880D01*
X95183799Y-33274165D02*
X94993322Y-33417022D01*
X94517132Y-33417022D01*
X94326656Y-33274165D01*
X94231418Y-32988451D01*
X94231418Y-32702737D01*
X94326656Y-32417022D01*
X94517132Y-32274165D01*
X94993322Y-32274165D01*
X95183799Y-32131308D01*
X96136180Y-33417022D02*
X96136180Y-30417022D01*
X96136180Y-31559880D02*
X96326656Y-31417022D01*
X96707608Y-31417022D01*
X96898084Y-31559880D01*
X96993322Y-31702737D01*
X97088560Y-31988451D01*
X97088560Y-32845594D01*
X96993322Y-33131308D01*
X96898084Y-33274165D01*
X96707608Y-33417022D01*
X96326656Y-33417022D01*
X96136180Y-33274165D01*
X98231418Y-33417022D02*
X98040941Y-33274165D01*
X97945703Y-32988451D01*
X97945703Y-30417022D01*
X99755227Y-33274165D02*
X99564751Y-33417022D01*
X99183799Y-33417022D01*
X98993322Y-33274165D01*
X98898084Y-32988451D01*
X98898084Y-31845594D01*
X98993322Y-31559880D01*
X99183799Y-31417022D01*
X99564751Y-31417022D01*
X99755227Y-31559880D01*
X99850465Y-31845594D01*
X99850465Y-32131308D01*
X98898084Y-32417022D01*
X102040941Y-30417022D02*
X103374275Y-30417022D01*
X102040941Y-33417022D01*
X103374275Y-33417022D01*
X104421894Y-31702737D02*
X104231418Y-31559880D01*
X104136180Y-31417022D01*
X104040941Y-31131308D01*
X104040941Y-30988451D01*
X104136180Y-30702737D01*
X104231418Y-30559880D01*
X104421894Y-30417022D01*
X104802846Y-30417022D01*
X104993322Y-30559880D01*
X105088560Y-30702737D01*
X105183799Y-30988451D01*
X105183799Y-31131308D01*
X105088560Y-31417022D01*
X104993322Y-31559880D01*
X104802846Y-31702737D01*
X104421894Y-31702737D01*
X104231418Y-31845594D01*
X104136180Y-31988451D01*
X104040941Y-32274165D01*
X104040941Y-32845594D01*
X104136180Y-33131308D01*
X104231418Y-33274165D01*
X104421894Y-33417022D01*
X104802846Y-33417022D01*
X104993322Y-33274165D01*
X105088560Y-33131308D01*
X105183799Y-32845594D01*
X105183799Y-32274165D01*
X105088560Y-31988451D01*
X104993322Y-31845594D01*
X104802846Y-31702737D01*
X106421894Y-30417022D02*
X106612370Y-30417022D01*
X106802846Y-30559880D01*
X106898084Y-30702737D01*
X106993322Y-30988451D01*
X107088560Y-31559880D01*
X107088560Y-32274165D01*
X106993322Y-32845594D01*
X106898084Y-33131308D01*
X106802846Y-33274165D01*
X106612370Y-33417022D01*
X106421894Y-33417022D01*
X106231418Y-33274165D01*
X106136180Y-33131308D01*
X106040941Y-32845594D01*
X105945703Y-32274165D01*
X105945703Y-31559880D01*
X106040941Y-30988451D01*
X106136180Y-30702737D01*
X106231418Y-30559880D01*
X106421894Y-30417022D01*
X110612370Y-33417022D02*
X109945703Y-31988451D01*
X109469513Y-33417022D02*
X109469513Y-30417022D01*
X110231418Y-30417022D01*
X110421894Y-30559880D01*
X110517132Y-30702737D01*
X110612370Y-30988451D01*
X110612370Y-31417022D01*
X110517132Y-31702737D01*
X110421894Y-31845594D01*
X110231418Y-31988451D01*
X109469513Y-31988451D01*
X112231418Y-33274165D02*
X112040941Y-33417022D01*
X111659989Y-33417022D01*
X111469513Y-33274165D01*
X111374275Y-32988451D01*
X111374275Y-31845594D01*
X111469513Y-31559880D01*
X111659989Y-31417022D01*
X112040941Y-31417022D01*
X112231418Y-31559880D01*
X112326656Y-31845594D01*
X112326656Y-32131308D01*
X111374275Y-32417022D01*
X112898084Y-31417022D02*
X113659989Y-31417022D01*
X113183799Y-30417022D02*
X113183799Y-32988451D01*
X113279037Y-33274165D01*
X113469513Y-33417022D01*
X113659989Y-33417022D01*
X114326656Y-33417022D02*
X114326656Y-31417022D01*
X114326656Y-31988451D02*
X114421894Y-31702737D01*
X114517132Y-31559880D01*
X114707608Y-31417022D01*
X114898084Y-31417022D01*
X115850465Y-33417022D02*
X115659989Y-33274165D01*
X115564751Y-33131308D01*
X115469513Y-32845594D01*
X115469513Y-31988451D01*
X115564751Y-31702737D01*
X115659989Y-31559880D01*
X115850465Y-31417022D01*
X116136180Y-31417022D01*
X116326656Y-31559880D01*
X116421894Y-31702737D01*
X116517132Y-31988451D01*
X116517132Y-32845594D01*
X116421894Y-33131308D01*
X116326656Y-33274165D01*
X116136180Y-33417022D01*
X115850465Y-33417022D01*
X120040941Y-33131308D02*
X119945703Y-33274165D01*
X119659989Y-33417022D01*
X119469513Y-33417022D01*
X119183799Y-33274165D01*
X118993322Y-32988451D01*
X118898084Y-32702737D01*
X118802846Y-32131308D01*
X118802846Y-31702737D01*
X118898084Y-31131308D01*
X118993322Y-30845594D01*
X119183799Y-30559880D01*
X119469513Y-30417022D01*
X119659989Y-30417022D01*
X119945703Y-30559880D01*
X120040941Y-30702737D01*
X121183799Y-33417022D02*
X120993322Y-33274165D01*
X120898084Y-33131308D01*
X120802846Y-32845594D01*
X120802846Y-31988451D01*
X120898084Y-31702737D01*
X120993322Y-31559880D01*
X121183799Y-31417022D01*
X121469513Y-31417022D01*
X121659989Y-31559880D01*
X121755227Y-31702737D01*
X121850465Y-31988451D01*
X121850465Y-32845594D01*
X121755227Y-33131308D01*
X121659989Y-33274165D01*
X121469513Y-33417022D01*
X121183799Y-33417022D01*
X122707608Y-33417022D02*
X122707608Y-31417022D01*
X122707608Y-31702737D02*
X122802846Y-31559880D01*
X122993322Y-31417022D01*
X123279037Y-31417022D01*
X123469513Y-31559880D01*
X123564751Y-31845594D01*
X123564751Y-33417022D01*
X123564751Y-31845594D02*
X123659989Y-31559880D01*
X123850465Y-31417022D01*
X124136179Y-31417022D01*
X124326656Y-31559880D01*
X124421894Y-31845594D01*
X124421894Y-33417022D01*
X125374275Y-31417022D02*
X125374275Y-34417022D01*
X125374275Y-31559880D02*
X125564751Y-31417022D01*
X125945703Y-31417022D01*
X126136179Y-31559880D01*
X126231418Y-31702737D01*
X126326656Y-31988451D01*
X126326656Y-32845594D01*
X126231418Y-33131308D01*
X126136179Y-33274165D01*
X125945703Y-33417022D01*
X125564751Y-33417022D01*
X125374275Y-33274165D01*
X128040941Y-31417022D02*
X128040941Y-33417022D01*
X127183799Y-31417022D02*
X127183799Y-32988451D01*
X127279037Y-33274165D01*
X127469513Y-33417022D01*
X127755227Y-33417022D01*
X127945703Y-33274165D01*
X128040941Y-33131308D01*
X128707608Y-31417022D02*
X129469513Y-31417022D01*
X128993322Y-30417022D02*
X128993322Y-32988451D01*
X129088560Y-33274165D01*
X129279037Y-33417022D01*
X129469513Y-33417022D01*
X130898084Y-33274165D02*
X130707608Y-33417022D01*
X130326656Y-33417022D01*
X130136179Y-33274165D01*
X130040941Y-32988451D01*
X130040941Y-31845594D01*
X130136179Y-31559880D01*
X130326656Y-31417022D01*
X130707608Y-31417022D01*
X130898084Y-31559880D01*
X130993322Y-31845594D01*
X130993322Y-32131308D01*
X130040941Y-32417022D01*
X131850465Y-33417022D02*
X131850465Y-31417022D01*
X131850465Y-31988451D02*
X131945703Y-31702737D01*
X132040941Y-31559880D01*
X132231418Y-31417022D01*
X132421894Y-31417022D01*
D11*
X97680285Y-42588571D02*
X97680285Y-41088571D01*
X98251714Y-41088571D01*
X98394571Y-41160000D01*
X98466000Y-41231428D01*
X98537428Y-41374285D01*
X98537428Y-41588571D01*
X98466000Y-41731428D01*
X98394571Y-41802857D01*
X98251714Y-41874285D01*
X97680285Y-41874285D01*
X99180285Y-42588571D02*
X99180285Y-41588571D01*
X99180285Y-41874285D02*
X99251714Y-41731428D01*
X99323142Y-41660000D01*
X99466000Y-41588571D01*
X99608857Y-41588571D01*
X100323142Y-42588571D02*
X100180285Y-42517142D01*
X100108857Y-42445714D01*
X100037428Y-42302857D01*
X100037428Y-41874285D01*
X100108857Y-41731428D01*
X100180285Y-41660000D01*
X100323142Y-41588571D01*
X100537428Y-41588571D01*
X100680285Y-41660000D01*
X100751714Y-41731428D01*
X100823142Y-41874285D01*
X100823142Y-42302857D01*
X100751714Y-42445714D01*
X100680285Y-42517142D01*
X100537428Y-42588571D01*
X100323142Y-42588571D01*
X102108857Y-42517142D02*
X101966000Y-42588571D01*
X101680285Y-42588571D01*
X101537428Y-42517142D01*
X101466000Y-42445714D01*
X101394571Y-42302857D01*
X101394571Y-41874285D01*
X101466000Y-41731428D01*
X101537428Y-41660000D01*
X101680285Y-41588571D01*
X101966000Y-41588571D01*
X102108857Y-41660000D01*
X103323142Y-42517142D02*
X103180285Y-42588571D01*
X102894571Y-42588571D01*
X102751714Y-42517142D01*
X102680285Y-42374285D01*
X102680285Y-41802857D01*
X102751714Y-41660000D01*
X102894571Y-41588571D01*
X103180285Y-41588571D01*
X103323142Y-41660000D01*
X103394571Y-41802857D01*
X103394571Y-41945714D01*
X102680285Y-42088571D01*
X103966000Y-42517142D02*
X104108857Y-42588571D01*
X104394571Y-42588571D01*
X104537428Y-42517142D01*
X104608857Y-42374285D01*
X104608857Y-42302857D01*
X104537428Y-42160000D01*
X104394571Y-42088571D01*
X104180285Y-42088571D01*
X104037428Y-42017142D01*
X103966000Y-41874285D01*
X103966000Y-41802857D01*
X104037428Y-41660000D01*
X104180285Y-41588571D01*
X104394571Y-41588571D01*
X104537428Y-41660000D01*
X105180285Y-42517142D02*
X105323142Y-42588571D01*
X105608857Y-42588571D01*
X105751714Y-42517142D01*
X105823142Y-42374285D01*
X105823142Y-42302857D01*
X105751714Y-42160000D01*
X105608857Y-42088571D01*
X105394571Y-42088571D01*
X105251714Y-42017142D01*
X105180285Y-41874285D01*
X105180285Y-41802857D01*
X105251714Y-41660000D01*
X105394571Y-41588571D01*
X105608857Y-41588571D01*
X105751714Y-41660000D01*
X106680285Y-42588571D02*
X106537428Y-42517142D01*
X106466000Y-42445714D01*
X106394571Y-42302857D01*
X106394571Y-41874285D01*
X106466000Y-41731428D01*
X106537428Y-41660000D01*
X106680285Y-41588571D01*
X106894571Y-41588571D01*
X107037428Y-41660000D01*
X107108857Y-41731428D01*
X107180285Y-41874285D01*
X107180285Y-42302857D01*
X107108857Y-42445714D01*
X107037428Y-42517142D01*
X106894571Y-42588571D01*
X106680285Y-42588571D01*
X107823142Y-42588571D02*
X107823142Y-41588571D01*
X107823142Y-41874285D02*
X107894571Y-41731428D01*
X107966000Y-41660000D01*
X108108857Y-41588571D01*
X108251714Y-41588571D01*
X109894571Y-42588571D02*
X109894571Y-41088571D01*
X109894571Y-41660000D02*
X110037428Y-41588571D01*
X110323142Y-41588571D01*
X110466000Y-41660000D01*
X110537428Y-41731428D01*
X110608857Y-41874285D01*
X110608857Y-42302857D01*
X110537428Y-42445714D01*
X110466000Y-42517142D01*
X110323142Y-42588571D01*
X110037428Y-42588571D01*
X109894571Y-42517142D01*
X111465999Y-42588571D02*
X111323142Y-42517142D01*
X111251714Y-42445714D01*
X111180285Y-42302857D01*
X111180285Y-41874285D01*
X111251714Y-41731428D01*
X111323142Y-41660000D01*
X111465999Y-41588571D01*
X111680285Y-41588571D01*
X111823142Y-41660000D01*
X111894571Y-41731428D01*
X111965999Y-41874285D01*
X111965999Y-42302857D01*
X111894571Y-42445714D01*
X111823142Y-42517142D01*
X111680285Y-42588571D01*
X111465999Y-42588571D01*
X113251714Y-42588571D02*
X113251714Y-41802857D01*
X113180285Y-41660000D01*
X113037428Y-41588571D01*
X112751714Y-41588571D01*
X112608857Y-41660000D01*
X113251714Y-42517142D02*
X113108857Y-42588571D01*
X112751714Y-42588571D01*
X112608857Y-42517142D01*
X112537428Y-42374285D01*
X112537428Y-42231428D01*
X112608857Y-42088571D01*
X112751714Y-42017142D01*
X113108857Y-42017142D01*
X113251714Y-41945714D01*
X113965999Y-42588571D02*
X113965999Y-41588571D01*
X113965999Y-41874285D02*
X114037428Y-41731428D01*
X114108857Y-41660000D01*
X114251714Y-41588571D01*
X114394571Y-41588571D01*
X115537428Y-42588571D02*
X115537428Y-41088571D01*
X115537428Y-42517142D02*
X115394571Y-42588571D01*
X115108857Y-42588571D01*
X114965999Y-42517142D01*
X114894571Y-42445714D01*
X114823142Y-42302857D01*
X114823142Y-41874285D01*
X114894571Y-41731428D01*
X114965999Y-41660000D01*
X115108857Y-41588571D01*
X115394571Y-41588571D01*
X115537428Y-41660000D01*
X118180285Y-42588571D02*
X117323142Y-42588571D01*
X117751714Y-42588571D02*
X117751714Y-41088571D01*
X117608857Y-41302857D01*
X117465999Y-41445714D01*
X117323142Y-41517142D01*
X118823142Y-42445714D02*
X118894571Y-42517142D01*
X118823142Y-42588571D01*
X118751714Y-42517142D01*
X118823142Y-42445714D01*
X118823142Y-42588571D01*
X119823142Y-41088571D02*
X119965999Y-41088571D01*
X120108857Y-41160000D01*
X120180285Y-41231428D01*
X120251714Y-41374285D01*
X120323142Y-41660000D01*
X120323142Y-42017142D01*
X120251714Y-42302857D01*
X120180285Y-42445714D01*
X120108857Y-42517142D01*
X119965999Y-42588571D01*
X119823142Y-42588571D01*
X119680285Y-42517142D01*
X119608857Y-42445714D01*
X119537428Y-42302857D01*
X119465999Y-42017142D01*
X119465999Y-41660000D01*
X119537428Y-41374285D01*
X119608857Y-41231428D01*
X119680285Y-41160000D01*
X119823142Y-41088571D01*
X94893809Y-100357714D02*
X94841428Y-100429142D01*
X94684285Y-100500571D01*
X94579523Y-100500571D01*
X94422380Y-100429142D01*
X94317619Y-100286285D01*
X94265238Y-100143428D01*
X94212857Y-99857714D01*
X94212857Y-99643428D01*
X94265238Y-99357714D01*
X94317619Y-99214857D01*
X94422380Y-99072000D01*
X94579523Y-99000571D01*
X94684285Y-99000571D01*
X94841428Y-99072000D01*
X94893809Y-99143428D01*
X95522380Y-100500571D02*
X95417619Y-100429142D01*
X95365238Y-100357714D01*
X95312857Y-100214857D01*
X95312857Y-99786285D01*
X95365238Y-99643428D01*
X95417619Y-99572000D01*
X95522380Y-99500571D01*
X95679523Y-99500571D01*
X95784285Y-99572000D01*
X95836666Y-99643428D01*
X95889047Y-99786285D01*
X95889047Y-100214857D01*
X95836666Y-100357714D01*
X95784285Y-100429142D01*
X95679523Y-100500571D01*
X95522380Y-100500571D01*
X96360476Y-99500571D02*
X96360476Y-101000571D01*
X96360476Y-99572000D02*
X96465238Y-99500571D01*
X96674761Y-99500571D01*
X96779523Y-99572000D01*
X96831904Y-99643428D01*
X96884285Y-99786285D01*
X96884285Y-100214857D01*
X96831904Y-100357714D01*
X96779523Y-100429142D01*
X96674761Y-100500571D01*
X96465238Y-100500571D01*
X96360476Y-100429142D01*
X97250952Y-99500571D02*
X97512857Y-100500571D01*
X97774761Y-99500571D02*
X97512857Y-100500571D01*
X97408095Y-100857714D01*
X97355714Y-100929142D01*
X97250952Y-101000571D01*
X98193809Y-100500571D02*
X98193809Y-99500571D01*
X98193809Y-99786285D02*
X98246190Y-99643428D01*
X98298571Y-99572000D01*
X98403333Y-99500571D01*
X98508095Y-99500571D01*
X98874761Y-100500571D02*
X98874761Y-99500571D01*
X98874761Y-99000571D02*
X98822380Y-99072000D01*
X98874761Y-99143428D01*
X98927142Y-99072000D01*
X98874761Y-99000571D01*
X98874761Y-99143428D01*
X99870000Y-99500571D02*
X99870000Y-100714857D01*
X99817619Y-100857714D01*
X99765238Y-100929142D01*
X99660476Y-101000571D01*
X99503333Y-101000571D01*
X99398571Y-100929142D01*
X99870000Y-100429142D02*
X99765238Y-100500571D01*
X99555714Y-100500571D01*
X99450952Y-100429142D01*
X99398571Y-100357714D01*
X99346190Y-100214857D01*
X99346190Y-99786285D01*
X99398571Y-99643428D01*
X99450952Y-99572000D01*
X99555714Y-99500571D01*
X99765238Y-99500571D01*
X99870000Y-99572000D01*
X100393809Y-100500571D02*
X100393809Y-99000571D01*
X100865238Y-100500571D02*
X100865238Y-99714857D01*
X100812857Y-99572000D01*
X100708095Y-99500571D01*
X100550952Y-99500571D01*
X100446190Y-99572000D01*
X100393809Y-99643428D01*
X101231904Y-99500571D02*
X101650952Y-99500571D01*
X101389047Y-99000571D02*
X101389047Y-100286285D01*
X101441428Y-100429142D01*
X101546190Y-100500571D01*
X101650952Y-100500571D01*
X103746190Y-99357714D02*
X103641428Y-99286285D01*
X103431904Y-99286285D01*
X103327142Y-99357714D01*
X103222380Y-99500571D01*
X103170000Y-99643428D01*
X103170000Y-99929142D01*
X103222380Y-100072000D01*
X103327142Y-100214857D01*
X103431904Y-100286285D01*
X103641428Y-100286285D01*
X103746190Y-100214857D01*
X103536666Y-98786285D02*
X103274761Y-98857714D01*
X103012857Y-99072000D01*
X102855714Y-99429142D01*
X102803333Y-99786285D01*
X102855714Y-100143428D01*
X103012857Y-100500571D01*
X103274761Y-100714857D01*
X103536666Y-100786285D01*
X103798571Y-100714857D01*
X104060476Y-100500571D01*
X104217619Y-100143428D01*
X104270000Y-99786285D01*
X104217619Y-99429142D01*
X104060476Y-99072000D01*
X103798571Y-98857714D01*
X103536666Y-98786285D01*
X105527142Y-99143428D02*
X105579523Y-99072000D01*
X105684285Y-99000571D01*
X105946190Y-99000571D01*
X106050952Y-99072000D01*
X106103333Y-99143428D01*
X106155714Y-99286285D01*
X106155714Y-99429142D01*
X106103333Y-99643428D01*
X105474761Y-100500571D01*
X106155714Y-100500571D01*
X106836666Y-99000571D02*
X106941428Y-99000571D01*
X107046190Y-99072000D01*
X107098571Y-99143428D01*
X107150952Y-99286285D01*
X107203333Y-99572000D01*
X107203333Y-99929142D01*
X107150952Y-100214857D01*
X107098571Y-100357714D01*
X107046190Y-100429142D01*
X106941428Y-100500571D01*
X106836666Y-100500571D01*
X106731904Y-100429142D01*
X106679523Y-100357714D01*
X106627142Y-100214857D01*
X106574761Y-99929142D01*
X106574761Y-99572000D01*
X106627142Y-99286285D01*
X106679523Y-99143428D01*
X106731904Y-99072000D01*
X106836666Y-99000571D01*
X108250952Y-100500571D02*
X107622380Y-100500571D01*
X107936666Y-100500571D02*
X107936666Y-99000571D01*
X107831904Y-99214857D01*
X107727142Y-99357714D01*
X107622380Y-99429142D01*
X108879523Y-99643428D02*
X108774761Y-99572000D01*
X108722380Y-99500571D01*
X108670000Y-99357714D01*
X108670000Y-99286285D01*
X108722380Y-99143428D01*
X108774761Y-99072000D01*
X108879523Y-99000571D01*
X109089047Y-99000571D01*
X109193809Y-99072000D01*
X109246190Y-99143428D01*
X109298571Y-99286285D01*
X109298571Y-99357714D01*
X109246190Y-99500571D01*
X109193809Y-99572000D01*
X109089047Y-99643428D01*
X108879523Y-99643428D01*
X108774761Y-99714857D01*
X108722380Y-99786285D01*
X108670000Y-99929142D01*
X108670000Y-100214857D01*
X108722380Y-100357714D01*
X108774761Y-100429142D01*
X108879523Y-100500571D01*
X109089047Y-100500571D01*
X109193809Y-100429142D01*
X109246190Y-100357714D01*
X109298571Y-100214857D01*
X109298571Y-99929142D01*
X109246190Y-99786285D01*
X109193809Y-99714857D01*
X109089047Y-99643428D01*
X110608095Y-100500571D02*
X110608095Y-99000571D01*
X110608095Y-99572000D02*
X110712857Y-99500571D01*
X110922380Y-99500571D01*
X111027142Y-99572000D01*
X111079523Y-99643428D01*
X111131904Y-99786285D01*
X111131904Y-100214857D01*
X111079523Y-100357714D01*
X111027142Y-100429142D01*
X110922380Y-100500571D01*
X110712857Y-100500571D01*
X110608095Y-100429142D01*
X111498571Y-99500571D02*
X111760476Y-100500571D01*
X112022380Y-99500571D02*
X111760476Y-100500571D01*
X111655714Y-100857714D01*
X111603333Y-100929142D01*
X111498571Y-101000571D01*
X113908095Y-100500571D02*
X113541428Y-99786285D01*
X113279523Y-100500571D02*
X113279523Y-99000571D01*
X113698571Y-99000571D01*
X113803333Y-99072000D01*
X113855714Y-99143428D01*
X113908095Y-99286285D01*
X113908095Y-99500571D01*
X113855714Y-99643428D01*
X113803333Y-99714857D01*
X113698571Y-99786285D01*
X113279523Y-99786285D01*
X115270000Y-100500571D02*
X115217619Y-100500571D01*
X115112857Y-100429142D01*
X114955714Y-100214857D01*
X114693809Y-99786285D01*
X114589047Y-99572000D01*
X114536666Y-99357714D01*
X114536666Y-99214857D01*
X114589047Y-99072000D01*
X114693809Y-99000571D01*
X114746190Y-99000571D01*
X114850952Y-99072000D01*
X114903333Y-99214857D01*
X114903333Y-99286285D01*
X114850952Y-99429142D01*
X114798571Y-99500571D01*
X114484285Y-99786285D01*
X114431904Y-99857714D01*
X114379523Y-100000571D01*
X114379523Y-100214857D01*
X114431904Y-100357714D01*
X114484285Y-100429142D01*
X114589047Y-100500571D01*
X114746190Y-100500571D01*
X114850952Y-100429142D01*
X114903333Y-100357714D01*
X115060476Y-100072000D01*
X115112857Y-99857714D01*
X115112857Y-99714857D01*
X116108095Y-99714857D02*
X115741428Y-99714857D01*
X115741428Y-100500571D02*
X115741428Y-99000571D01*
X116265238Y-99000571D01*
X117522380Y-100500571D02*
X117522380Y-99000571D01*
X117941428Y-99000571D01*
X118046190Y-99072000D01*
X118098571Y-99143428D01*
X118150952Y-99286285D01*
X118150952Y-99500571D01*
X118098571Y-99643428D01*
X118046190Y-99714857D01*
X117941428Y-99786285D01*
X117522380Y-99786285D01*
X118517619Y-99500571D02*
X118779523Y-100500571D01*
X119041428Y-99500571D02*
X118779523Y-100500571D01*
X118674761Y-100857714D01*
X118622380Y-100929142D01*
X118517619Y-101000571D01*
X119460476Y-99500571D02*
X119460476Y-100500571D01*
X119460476Y-99643428D02*
X119512857Y-99572000D01*
X119617619Y-99500571D01*
X119774761Y-99500571D01*
X119879523Y-99572000D01*
X119931904Y-99714857D01*
X119931904Y-100500571D01*
X120927142Y-100429142D02*
X120822380Y-100500571D01*
X120612857Y-100500571D01*
X120508095Y-100429142D01*
X120455714Y-100357714D01*
X120403333Y-100214857D01*
X120403333Y-99786285D01*
X120455714Y-99643428D01*
X120508095Y-99572000D01*
X120612857Y-99500571D01*
X120822380Y-99500571D01*
X120927142Y-99572000D01*
X121398571Y-100500571D02*
X121398571Y-99000571D01*
X121503333Y-99929142D02*
X121817619Y-100500571D01*
X121817619Y-99500571D02*
X121398571Y-100072000D01*
X122708095Y-100429142D02*
X122603333Y-100500571D01*
X122393809Y-100500571D01*
X122289047Y-100429142D01*
X122236666Y-100286285D01*
X122236666Y-99714857D01*
X122289047Y-99572000D01*
X122393809Y-99500571D01*
X122603333Y-99500571D01*
X122708095Y-99572000D01*
X122760476Y-99714857D01*
X122760476Y-99857714D01*
X122236666Y-100000571D01*
X123389047Y-100500571D02*
X123284285Y-100429142D01*
X123231904Y-100286285D01*
X123231904Y-99000571D01*
X123755714Y-100429142D02*
X123860476Y-100500571D01*
X124070000Y-100500571D01*
X124174761Y-100429142D01*
X124227142Y-100286285D01*
X124227142Y-100214857D01*
X124174761Y-100072000D01*
X124070000Y-100000571D01*
X123912857Y-100000571D01*
X123808095Y-99929142D01*
X123755714Y-99786285D01*
X123755714Y-99714857D01*
X123808095Y-99572000D01*
X123912857Y-99500571D01*
X124070000Y-99500571D01*
X124174761Y-99572000D01*
D12*
X103140000Y-69910000D02*
G75*
G02X105140000Y-69910000I1000000J0D01*
G01*
X105140000Y-69910000D02*
X106790000Y-69910000D01*
X106790000Y-69910000D02*
X106790000Y-44390000D01*
X106790000Y-44390000D02*
X101490000Y-44390000D01*
X101490000Y-44390000D02*
X101490000Y-69910000D01*
X101490000Y-69910000D02*
X103140000Y-69910000D01*
X83836200Y-38613080D02*
X83836200Y-39943080D01*
X83836200Y-39943080D02*
X85166200Y-39943080D01*
X83836200Y-37343080D02*
X86436200Y-37343080D01*
X86436200Y-37343080D02*
X86436200Y-39943080D01*
X86436200Y-39943080D02*
X134756200Y-39943080D01*
X134756200Y-34743080D02*
X134756200Y-39943080D01*
X83836200Y-34743080D02*
X134756200Y-34743080D01*
X83836200Y-34743080D02*
X83836200Y-37343080D01*
X91330000Y-69910000D02*
X92980000Y-69910000D01*
X91330000Y-44390000D02*
X91330000Y-69910000D01*
X96630000Y-44390000D02*
X91330000Y-44390000D01*
X96630000Y-69910000D02*
X96630000Y-44390000D01*
X94980000Y-69910000D02*
X96630000Y-69910000D01*
X92980000Y-69910000D02*
G75*
G02X94980000Y-69910000I1000000J0D01*
G01*
X137060000Y-87750000D02*
X137060000Y-82510000D01*
X139800000Y-87750000D02*
X139800000Y-82510000D01*
X137060000Y-87750000D02*
X137375000Y-87750000D01*
X139485000Y-87750000D02*
X139800000Y-87750000D01*
X137060000Y-82510000D02*
X137375000Y-82510000D01*
X139485000Y-82510000D02*
X139800000Y-82510000D01*
X76160000Y-94195000D02*
X76160000Y-93880000D01*
X76160000Y-96620000D02*
X76160000Y-96305000D01*
X81400000Y-94195000D02*
X81400000Y-93880000D01*
X81400000Y-96620000D02*
X81400000Y-96305000D01*
X81400000Y-93880000D02*
X76160000Y-93880000D01*
X81400000Y-96620000D02*
X76160000Y-96620000D01*
X96640000Y-73760000D02*
X91400000Y-73760000D01*
X96640000Y-71020000D02*
X91400000Y-71020000D01*
X96640000Y-73760000D02*
X96640000Y-73445000D01*
X96640000Y-71335000D02*
X96640000Y-71020000D01*
X91400000Y-73760000D02*
X91400000Y-73445000D01*
X91400000Y-71335000D02*
X91400000Y-71020000D01*
X101560000Y-71335000D02*
X101560000Y-71020000D01*
X101560000Y-73760000D02*
X101560000Y-73445000D01*
X106800000Y-71335000D02*
X106800000Y-71020000D01*
X106800000Y-73760000D02*
X106800000Y-73445000D01*
X106800000Y-71020000D02*
X101560000Y-71020000D01*
X106800000Y-73760000D02*
X101560000Y-73760000D01*
X116960000Y-73760000D02*
X111720000Y-73760000D01*
X116960000Y-71020000D02*
X111720000Y-71020000D01*
X116960000Y-73760000D02*
X116960000Y-73445000D01*
X116960000Y-71335000D02*
X116960000Y-71020000D01*
X111720000Y-73760000D02*
X111720000Y-73445000D01*
X111720000Y-71335000D02*
X111720000Y-71020000D01*
X127120000Y-73760000D02*
X121880000Y-73760000D01*
X127120000Y-71020000D02*
X121880000Y-71020000D01*
X127120000Y-73760000D02*
X127120000Y-73445000D01*
X127120000Y-71335000D02*
X127120000Y-71020000D01*
X121880000Y-73760000D02*
X121880000Y-73445000D01*
X121880000Y-71335000D02*
X121880000Y-71020000D01*
X84268000Y-97078800D02*
X84268000Y-95748800D01*
X84268000Y-95748800D02*
X85598000Y-95748800D01*
X86868000Y-95748800D02*
X104708000Y-95748800D01*
X104708000Y-98408800D02*
X104708000Y-95748800D01*
X86868000Y-98408800D02*
X104708000Y-98408800D01*
X86868000Y-98408800D02*
X86868000Y-95748800D01*
X116332000Y-98408800D02*
X116332000Y-95748800D01*
X116332000Y-98408800D02*
X134172000Y-98408800D01*
X134172000Y-98408800D02*
X134172000Y-95748800D01*
X116332000Y-95748800D02*
X134172000Y-95748800D01*
X113732000Y-95748800D02*
X115062000Y-95748800D01*
X113732000Y-97078800D02*
X113732000Y-95748800D01*
X83590000Y-65310000D02*
X83920000Y-65310000D01*
X83920000Y-65310000D02*
X83920000Y-71850000D01*
X83920000Y-71850000D02*
X83590000Y-71850000D01*
X81510000Y-65310000D02*
X81180000Y-65310000D01*
X81180000Y-65310000D02*
X81180000Y-71850000D01*
X81180000Y-71850000D02*
X81510000Y-71850000D01*
X113300000Y-69910000D02*
G75*
G02X115300000Y-69910000I1000000J0D01*
G01*
X115300000Y-69910000D02*
X116950000Y-69910000D01*
X116950000Y-69910000D02*
X116950000Y-44390000D01*
X116950000Y-44390000D02*
X111650000Y-44390000D01*
X111650000Y-44390000D02*
X111650000Y-69910000D01*
X111650000Y-69910000D02*
X113300000Y-69910000D01*
X121810000Y-69910000D02*
X123460000Y-69910000D01*
X121810000Y-44390000D02*
X121810000Y-69910000D01*
X127110000Y-44390000D02*
X121810000Y-44390000D01*
X127110000Y-69910000D02*
X127110000Y-44390000D01*
X125460000Y-69910000D02*
X127110000Y-69910000D01*
X123460000Y-69910000D02*
G75*
G02X125460000Y-69910000I1000000J0D01*
G01*
X85030000Y-84090000D02*
G75*
G02X85030000Y-86090000I0J-1000000D01*
G01*
X85030000Y-86090000D02*
X85030000Y-91550000D01*
X85030000Y-91550000D02*
X135950000Y-91550000D01*
X135950000Y-91550000D02*
X135950000Y-78630000D01*
X135950000Y-78630000D02*
X85030000Y-78630000D01*
X85030000Y-78630000D02*
X85030000Y-84090000D01*
X134520000Y-71850000D02*
X134850000Y-71850000D01*
X134520000Y-65310000D02*
X134520000Y-71850000D01*
X134850000Y-65310000D02*
X134520000Y-65310000D01*
X137260000Y-71850000D02*
X136930000Y-71850000D01*
X137260000Y-65310000D02*
X137260000Y-71850000D01*
X136930000Y-65310000D02*
X137260000Y-65310000D01*
X136930000Y-55150000D02*
X137260000Y-55150000D01*
X137260000Y-55150000D02*
X137260000Y-61690000D01*
X137260000Y-61690000D02*
X136930000Y-61690000D01*
X134850000Y-55150000D02*
X134520000Y-55150000D01*
X134520000Y-55150000D02*
X134520000Y-61690000D01*
X134520000Y-61690000D02*
X134850000Y-61690000D01*
X134520000Y-51657000D02*
X134850000Y-51657000D01*
X134520000Y-45117000D02*
X134520000Y-51657000D01*
X134850000Y-45117000D02*
X134520000Y-45117000D01*
X137260000Y-51657000D02*
X136930000Y-51657000D01*
X137260000Y-45117000D02*
X137260000Y-51657000D01*
X136930000Y-45117000D02*
X137260000Y-45117000D01*
X83590000Y-44990000D02*
X83920000Y-44990000D01*
X83920000Y-44990000D02*
X83920000Y-51530000D01*
X83920000Y-51530000D02*
X83590000Y-51530000D01*
X81510000Y-44990000D02*
X81180000Y-44990000D01*
X81180000Y-44990000D02*
X81180000Y-51530000D01*
X81180000Y-51530000D02*
X81510000Y-51530000D01*
X81180000Y-61690000D02*
X81510000Y-61690000D01*
X81180000Y-55150000D02*
X81180000Y-61690000D01*
X81510000Y-55150000D02*
X81180000Y-55150000D01*
X83920000Y-61690000D02*
X83590000Y-61690000D01*
X83920000Y-55150000D02*
X83920000Y-61690000D01*
X83590000Y-55150000D02*
X83920000Y-55150000D01*
X76090000Y-92770000D02*
X77740000Y-92770000D01*
X76090000Y-74870000D02*
X76090000Y-92770000D01*
X81390000Y-74870000D02*
X76090000Y-74870000D01*
X81390000Y-92770000D02*
X81390000Y-74870000D01*
X79740000Y-92770000D02*
X81390000Y-92770000D01*
X77740000Y-92770000D02*
G75*
G02X79740000Y-92770000I1000000J0D01*
G01*
X133120000Y-65310000D02*
X133450000Y-65310000D01*
X133450000Y-65310000D02*
X133450000Y-71850000D01*
X133450000Y-71850000D02*
X133120000Y-71850000D01*
X131040000Y-65310000D02*
X130710000Y-65310000D01*
X130710000Y-65310000D02*
X130710000Y-71850000D01*
X130710000Y-71850000D02*
X131040000Y-71850000D01*
X130710000Y-61690000D02*
X131040000Y-61690000D01*
X130710000Y-55150000D02*
X130710000Y-61690000D01*
X131040000Y-55150000D02*
X130710000Y-55150000D01*
X133450000Y-61690000D02*
X133120000Y-61690000D01*
X133450000Y-55150000D02*
X133450000Y-61690000D01*
X133120000Y-55150000D02*
X133450000Y-55150000D01*
X133120000Y-45117000D02*
X133450000Y-45117000D01*
X133450000Y-45117000D02*
X133450000Y-51657000D01*
X133450000Y-51657000D02*
X133120000Y-51657000D01*
X131040000Y-45117000D02*
X130710000Y-45117000D01*
X130710000Y-45117000D02*
X130710000Y-51657000D01*
X130710000Y-51657000D02*
X131040000Y-51657000D01*
X84990000Y-51530000D02*
X85320000Y-51530000D01*
X84990000Y-44990000D02*
X84990000Y-51530000D01*
X85320000Y-44990000D02*
X84990000Y-44990000D01*
X87730000Y-51530000D02*
X87400000Y-51530000D01*
X87730000Y-44990000D02*
X87730000Y-51530000D01*
X87400000Y-44990000D02*
X87730000Y-44990000D01*
X87400000Y-55150000D02*
X87730000Y-55150000D01*
X87730000Y-55150000D02*
X87730000Y-61690000D01*
X87730000Y-61690000D02*
X87400000Y-61690000D01*
X85320000Y-55150000D02*
X84990000Y-55150000D01*
X84990000Y-55150000D02*
X84990000Y-61690000D01*
X84990000Y-61690000D02*
X85320000Y-61690000D01*
X84990000Y-71850000D02*
X85320000Y-71850000D01*
X84990000Y-65310000D02*
X84990000Y-71850000D01*
X85320000Y-65310000D02*
X84990000Y-65310000D01*
X87730000Y-71850000D02*
X87400000Y-71850000D01*
X87730000Y-65310000D02*
X87730000Y-71850000D01*
X87400000Y-65310000D02*
X87730000Y-65310000D01*
X140820000Y-66460000D02*
X138580000Y-66460000D01*
X138580000Y-66460000D02*
X138580000Y-70700000D01*
X138580000Y-70700000D02*
X140820000Y-70700000D01*
X140820000Y-70700000D02*
X140820000Y-66460000D01*
X139700000Y-65810000D02*
X139700000Y-66460000D01*
X139700000Y-71350000D02*
X139700000Y-70700000D01*
X140820000Y-67180000D02*
X138580000Y-67180000D01*
X140820000Y-67300000D02*
X138580000Y-67300000D01*
X140820000Y-67060000D02*
X138580000Y-67060000D01*
X144630000Y-66460000D02*
X142390000Y-66460000D01*
X142390000Y-66460000D02*
X142390000Y-70700000D01*
X142390000Y-70700000D02*
X144630000Y-70700000D01*
X144630000Y-70700000D02*
X144630000Y-66460000D01*
X143510000Y-65810000D02*
X143510000Y-66460000D01*
X143510000Y-71350000D02*
X143510000Y-70700000D01*
X144630000Y-67180000D02*
X142390000Y-67180000D01*
X144630000Y-67300000D02*
X142390000Y-67300000D01*
X144630000Y-67060000D02*
X142390000Y-67060000D01*
X140820000Y-56900000D02*
X138580000Y-56900000D01*
X140820000Y-57140000D02*
X138580000Y-57140000D01*
X140820000Y-57020000D02*
X138580000Y-57020000D01*
X139700000Y-61190000D02*
X139700000Y-60540000D01*
X139700000Y-55650000D02*
X139700000Y-56300000D01*
X140820000Y-60540000D02*
X140820000Y-56300000D01*
X138580000Y-60540000D02*
X140820000Y-60540000D01*
X138580000Y-56300000D02*
X138580000Y-60540000D01*
X140820000Y-56300000D02*
X138580000Y-56300000D01*
X144630000Y-56300000D02*
X142390000Y-56300000D01*
X142390000Y-56300000D02*
X142390000Y-60540000D01*
X142390000Y-60540000D02*
X144630000Y-60540000D01*
X144630000Y-60540000D02*
X144630000Y-56300000D01*
X143510000Y-55650000D02*
X143510000Y-56300000D01*
X143510000Y-61190000D02*
X143510000Y-60540000D01*
X144630000Y-57020000D02*
X142390000Y-57020000D01*
X144630000Y-57140000D02*
X142390000Y-57140000D01*
X144630000Y-56900000D02*
X142390000Y-56900000D01*
X140820000Y-46140000D02*
X138580000Y-46140000D01*
X138580000Y-46140000D02*
X138580000Y-50380000D01*
X138580000Y-50380000D02*
X140820000Y-50380000D01*
X140820000Y-50380000D02*
X140820000Y-46140000D01*
X139700000Y-45490000D02*
X139700000Y-46140000D01*
X139700000Y-51030000D02*
X139700000Y-50380000D01*
X140820000Y-46860000D02*
X138580000Y-46860000D01*
X140820000Y-46980000D02*
X138580000Y-46980000D01*
X140820000Y-46740000D02*
X138580000Y-46740000D01*
X144630000Y-46740000D02*
X142390000Y-46740000D01*
X144630000Y-46980000D02*
X142390000Y-46980000D01*
X144630000Y-46860000D02*
X142390000Y-46860000D01*
X143510000Y-51030000D02*
X143510000Y-50380000D01*
X143510000Y-45490000D02*
X143510000Y-46140000D01*
X144630000Y-50380000D02*
X144630000Y-46140000D01*
X142390000Y-50380000D02*
X144630000Y-50380000D01*
X142390000Y-46140000D02*
X142390000Y-50380000D01*
X144630000Y-46140000D02*
X142390000Y-46140000D01*
X79860000Y-46740000D02*
X77620000Y-46740000D01*
X79860000Y-46980000D02*
X77620000Y-46980000D01*
X79860000Y-46860000D02*
X77620000Y-46860000D01*
X78740000Y-51030000D02*
X78740000Y-50380000D01*
X78740000Y-45490000D02*
X78740000Y-46140000D01*
X79860000Y-50380000D02*
X79860000Y-46140000D01*
X77620000Y-50380000D02*
X79860000Y-50380000D01*
X77620000Y-46140000D02*
X77620000Y-50380000D01*
X79860000Y-46140000D02*
X77620000Y-46140000D01*
X76050000Y-46740000D02*
X73810000Y-46740000D01*
X76050000Y-46980000D02*
X73810000Y-46980000D01*
X76050000Y-46860000D02*
X73810000Y-46860000D01*
X74930000Y-51030000D02*
X74930000Y-50380000D01*
X74930000Y-45490000D02*
X74930000Y-46140000D01*
X76050000Y-50380000D02*
X76050000Y-46140000D01*
X73810000Y-50380000D02*
X76050000Y-50380000D01*
X73810000Y-46140000D02*
X73810000Y-50380000D01*
X76050000Y-46140000D02*
X73810000Y-46140000D01*
X79860000Y-56300000D02*
X77620000Y-56300000D01*
X77620000Y-56300000D02*
X77620000Y-60540000D01*
X77620000Y-60540000D02*
X79860000Y-60540000D01*
X79860000Y-60540000D02*
X79860000Y-56300000D01*
X78740000Y-55650000D02*
X78740000Y-56300000D01*
X78740000Y-61190000D02*
X78740000Y-60540000D01*
X79860000Y-57020000D02*
X77620000Y-57020000D01*
X79860000Y-57140000D02*
X77620000Y-57140000D01*
X79860000Y-56900000D02*
X77620000Y-56900000D01*
X76050000Y-56300000D02*
X73810000Y-56300000D01*
X73810000Y-56300000D02*
X73810000Y-60540000D01*
X73810000Y-60540000D02*
X76050000Y-60540000D01*
X76050000Y-60540000D02*
X76050000Y-56300000D01*
X74930000Y-55650000D02*
X74930000Y-56300000D01*
X74930000Y-61190000D02*
X74930000Y-60540000D01*
X76050000Y-57020000D02*
X73810000Y-57020000D01*
X76050000Y-57140000D02*
X73810000Y-57140000D01*
X76050000Y-56900000D02*
X73810000Y-56900000D01*
X79860000Y-67060000D02*
X77620000Y-67060000D01*
X79860000Y-67300000D02*
X77620000Y-67300000D01*
X79860000Y-67180000D02*
X77620000Y-67180000D01*
X78740000Y-71350000D02*
X78740000Y-70700000D01*
X78740000Y-65810000D02*
X78740000Y-66460000D01*
X79860000Y-70700000D02*
X79860000Y-66460000D01*
X77620000Y-70700000D02*
X79860000Y-70700000D01*
X77620000Y-66460000D02*
X77620000Y-70700000D01*
X79860000Y-66460000D02*
X77620000Y-66460000D01*
X76050000Y-67060000D02*
X73810000Y-67060000D01*
X76050000Y-67300000D02*
X73810000Y-67300000D01*
X76050000Y-67180000D02*
X73810000Y-67180000D01*
X74930000Y-71350000D02*
X74930000Y-70700000D01*
X74930000Y-65810000D02*
X74930000Y-66460000D01*
X76050000Y-70700000D02*
X76050000Y-66460000D01*
X73810000Y-70700000D02*
X76050000Y-70700000D01*
X73810000Y-66460000D02*
X73810000Y-70700000D01*
X76050000Y-66460000D02*
X73810000Y-66460000D01*
D11*
X103592380Y-66484285D02*
X104401904Y-66484285D01*
X104497142Y-66436666D01*
X104544761Y-66389047D01*
X104592380Y-66293809D01*
X104592380Y-66103333D01*
X104544761Y-66008095D01*
X104497142Y-65960476D01*
X104401904Y-65912857D01*
X103592380Y-65912857D01*
X103592380Y-64960476D02*
X103592380Y-65436666D01*
X104068571Y-65484285D01*
X104020952Y-65436666D01*
X103973333Y-65341428D01*
X103973333Y-65103333D01*
X104020952Y-65008095D01*
X104068571Y-64960476D01*
X104163809Y-64912857D01*
X104401904Y-64912857D01*
X104497142Y-64960476D01*
X104544761Y-65008095D01*
X104592380Y-65103333D01*
X104592380Y-65341428D01*
X104544761Y-65436666D01*
X104497142Y-65484285D01*
X103592380Y-64293809D02*
X103592380Y-64198571D01*
X103640000Y-64103333D01*
X103687619Y-64055714D01*
X103782857Y-64008095D01*
X103973333Y-63960476D01*
X104211428Y-63960476D01*
X104401904Y-64008095D01*
X104497142Y-64055714D01*
X104544761Y-64103333D01*
X104592380Y-64198571D01*
X104592380Y-64293809D01*
X104544761Y-64389047D01*
X104497142Y-64436666D01*
X104401904Y-64484285D01*
X104211428Y-64531904D01*
X103973333Y-64531904D01*
X103782857Y-64484285D01*
X103687619Y-64436666D01*
X103640000Y-64389047D01*
X103592380Y-64293809D01*
X103925714Y-63103333D02*
X104592380Y-63103333D01*
X103544761Y-63341428D02*
X104259047Y-63579523D01*
X104259047Y-62960476D01*
X103592380Y-52649047D02*
X103592380Y-51982380D01*
X104592380Y-52410952D01*
X103925714Y-51172857D02*
X104592380Y-51172857D01*
X103544761Y-51410952D02*
X104259047Y-51649047D01*
X104259047Y-51030000D01*
X104592380Y-50172857D02*
X104592380Y-50649047D01*
X103592380Y-50649047D01*
X104544761Y-49887142D02*
X104592380Y-49744285D01*
X104592380Y-49506190D01*
X104544761Y-49410952D01*
X104497142Y-49363333D01*
X104401904Y-49315714D01*
X104306666Y-49315714D01*
X104211428Y-49363333D01*
X104163809Y-49410952D01*
X104116190Y-49506190D01*
X104068571Y-49696666D01*
X104020952Y-49791904D01*
X103973333Y-49839523D01*
X103878095Y-49887142D01*
X103782857Y-49887142D01*
X103687619Y-49839523D01*
X103640000Y-49791904D01*
X103592380Y-49696666D01*
X103592380Y-49458571D01*
X103640000Y-49315714D01*
X103687619Y-48934761D02*
X103640000Y-48887142D01*
X103592380Y-48791904D01*
X103592380Y-48553809D01*
X103640000Y-48458571D01*
X103687619Y-48410952D01*
X103782857Y-48363333D01*
X103878095Y-48363333D01*
X104020952Y-48410952D01*
X104592380Y-48982380D01*
X104592380Y-48363333D01*
X103925714Y-47506190D02*
X104592380Y-47506190D01*
X103544761Y-47744285D02*
X104259047Y-47982380D01*
X104259047Y-47363333D01*
X103925714Y-46553809D02*
X104592380Y-46553809D01*
X103544761Y-46791904D02*
X104259047Y-47030000D01*
X104259047Y-46410952D01*
X93432380Y-66484285D02*
X94241904Y-66484285D01*
X94337142Y-66436666D01*
X94384761Y-66389047D01*
X94432380Y-66293809D01*
X94432380Y-66103333D01*
X94384761Y-66008095D01*
X94337142Y-65960476D01*
X94241904Y-65912857D01*
X93432380Y-65912857D01*
X93432380Y-64960476D02*
X93432380Y-65436666D01*
X93908571Y-65484285D01*
X93860952Y-65436666D01*
X93813333Y-65341428D01*
X93813333Y-65103333D01*
X93860952Y-65008095D01*
X93908571Y-64960476D01*
X94003809Y-64912857D01*
X94241904Y-64912857D01*
X94337142Y-64960476D01*
X94384761Y-65008095D01*
X94432380Y-65103333D01*
X94432380Y-65341428D01*
X94384761Y-65436666D01*
X94337142Y-65484285D01*
X93432380Y-64293809D02*
X93432380Y-64198571D01*
X93480000Y-64103333D01*
X93527619Y-64055714D01*
X93622857Y-64008095D01*
X93813333Y-63960476D01*
X94051428Y-63960476D01*
X94241904Y-64008095D01*
X94337142Y-64055714D01*
X94384761Y-64103333D01*
X94432380Y-64198571D01*
X94432380Y-64293809D01*
X94384761Y-64389047D01*
X94337142Y-64436666D01*
X94241904Y-64484285D01*
X94051428Y-64531904D01*
X93813333Y-64531904D01*
X93622857Y-64484285D01*
X93527619Y-64436666D01*
X93480000Y-64389047D01*
X93432380Y-64293809D01*
X93432380Y-63627142D02*
X93432380Y-63008095D01*
X93813333Y-63341428D01*
X93813333Y-63198571D01*
X93860952Y-63103333D01*
X93908571Y-63055714D01*
X94003809Y-63008095D01*
X94241904Y-63008095D01*
X94337142Y-63055714D01*
X94384761Y-63103333D01*
X94432380Y-63198571D01*
X94432380Y-63484285D01*
X94384761Y-63579523D01*
X94337142Y-63627142D01*
X93432380Y-52649047D02*
X93432380Y-51982380D01*
X94432380Y-52410952D01*
X93765714Y-51172857D02*
X94432380Y-51172857D01*
X93384761Y-51410952D02*
X94099047Y-51649047D01*
X94099047Y-51030000D01*
X94432380Y-50172857D02*
X94432380Y-50649047D01*
X93432380Y-50649047D01*
X94384761Y-49887142D02*
X94432380Y-49744285D01*
X94432380Y-49506190D01*
X94384761Y-49410952D01*
X94337142Y-49363333D01*
X94241904Y-49315714D01*
X94146666Y-49315714D01*
X94051428Y-49363333D01*
X94003809Y-49410952D01*
X93956190Y-49506190D01*
X93908571Y-49696666D01*
X93860952Y-49791904D01*
X93813333Y-49839523D01*
X93718095Y-49887142D01*
X93622857Y-49887142D01*
X93527619Y-49839523D01*
X93480000Y-49791904D01*
X93432380Y-49696666D01*
X93432380Y-49458571D01*
X93480000Y-49315714D01*
X93527619Y-48934761D02*
X93480000Y-48887142D01*
X93432380Y-48791904D01*
X93432380Y-48553809D01*
X93480000Y-48458571D01*
X93527619Y-48410952D01*
X93622857Y-48363333D01*
X93718095Y-48363333D01*
X93860952Y-48410952D01*
X94432380Y-48982380D01*
X94432380Y-48363333D01*
X93765714Y-47506190D02*
X94432380Y-47506190D01*
X93384761Y-47744285D02*
X94099047Y-47982380D01*
X94099047Y-47363333D01*
X93765714Y-46553809D02*
X94432380Y-46553809D01*
X93384761Y-46791904D02*
X94099047Y-47030000D01*
X94099047Y-46410952D01*
X138807462Y-85964773D02*
X138855081Y-85998106D01*
X138902700Y-86098106D01*
X138902700Y-86164773D01*
X138855081Y-86264773D01*
X138759843Y-86331440D01*
X138664605Y-86364773D01*
X138474129Y-86398106D01*
X138331272Y-86398106D01*
X138140796Y-86364773D01*
X138045558Y-86331440D01*
X137950320Y-86264773D01*
X137902700Y-86164773D01*
X137902700Y-86098106D01*
X137950320Y-85998106D01*
X137997939Y-85964773D01*
X137902700Y-85331440D02*
X137902700Y-85664773D01*
X138378891Y-85698106D01*
X138331272Y-85664773D01*
X138283653Y-85598106D01*
X138283653Y-85431440D01*
X138331272Y-85364773D01*
X138378891Y-85331440D01*
X138474129Y-85298106D01*
X138712224Y-85298106D01*
X138807462Y-85331440D01*
X138855081Y-85364773D01*
X138902700Y-85431440D01*
X138902700Y-85598106D01*
X138855081Y-85664773D01*
X138807462Y-85698106D01*
X137902700Y-84864773D02*
X137902700Y-84798106D01*
X137950320Y-84731440D01*
X137997939Y-84698106D01*
X138093177Y-84664773D01*
X138283653Y-84631440D01*
X138521748Y-84631440D01*
X138712224Y-84664773D01*
X138807462Y-84698106D01*
X138855081Y-84731440D01*
X138902700Y-84798106D01*
X138902700Y-84864773D01*
X138855081Y-84931440D01*
X138807462Y-84964773D01*
X138712224Y-84998106D01*
X138521748Y-85031440D01*
X138283653Y-85031440D01*
X138093177Y-84998106D01*
X137997939Y-84964773D01*
X137950320Y-84931440D01*
X137902700Y-84864773D01*
X138902700Y-83964773D02*
X138902700Y-84364773D01*
X138902700Y-84164773D02*
X137902700Y-84164773D01*
X138045558Y-84231440D01*
X138140796Y-84298106D01*
X138188415Y-84364773D01*
X77929667Y-95622143D02*
X77896334Y-95669762D01*
X77796334Y-95717381D01*
X77729667Y-95717381D01*
X77629667Y-95669762D01*
X77563001Y-95574524D01*
X77529667Y-95479286D01*
X77496334Y-95288810D01*
X77496334Y-95145953D01*
X77529667Y-94955477D01*
X77563001Y-94860239D01*
X77629667Y-94765001D01*
X77729667Y-94717381D01*
X77796334Y-94717381D01*
X77896334Y-94765001D01*
X77929667Y-94812620D01*
X78563001Y-94717381D02*
X78229667Y-94717381D01*
X78196334Y-95193572D01*
X78229667Y-95145953D01*
X78296334Y-95098334D01*
X78463001Y-95098334D01*
X78529667Y-95145953D01*
X78563001Y-95193572D01*
X78596334Y-95288810D01*
X78596334Y-95526905D01*
X78563001Y-95622143D01*
X78529667Y-95669762D01*
X78463001Y-95717381D01*
X78296334Y-95717381D01*
X78229667Y-95669762D01*
X78196334Y-95622143D01*
X79029667Y-94717381D02*
X79096334Y-94717381D01*
X79163001Y-94765001D01*
X79196334Y-94812620D01*
X79229667Y-94907858D01*
X79263001Y-95098334D01*
X79263001Y-95336429D01*
X79229667Y-95526905D01*
X79196334Y-95622143D01*
X79163001Y-95669762D01*
X79096334Y-95717381D01*
X79029667Y-95717381D01*
X78963001Y-95669762D01*
X78929667Y-95622143D01*
X78896334Y-95526905D01*
X78863001Y-95336429D01*
X78863001Y-95098334D01*
X78896334Y-94907858D01*
X78929667Y-94812620D01*
X78963001Y-94765001D01*
X79029667Y-94717381D01*
X79529667Y-94812620D02*
X79563001Y-94765001D01*
X79629667Y-94717381D01*
X79796334Y-94717381D01*
X79863001Y-94765001D01*
X79896334Y-94812620D01*
X79929667Y-94907858D01*
X79929667Y-95003096D01*
X79896334Y-95145953D01*
X79496334Y-95717381D01*
X79929667Y-95717381D01*
X93236666Y-72747142D02*
X93203333Y-72794761D01*
X93103333Y-72842380D01*
X93036666Y-72842380D01*
X92936666Y-72794761D01*
X92870000Y-72699523D01*
X92836666Y-72604285D01*
X92803333Y-72413809D01*
X92803333Y-72270952D01*
X92836666Y-72080476D01*
X92870000Y-71985238D01*
X92936666Y-71890000D01*
X93036666Y-71842380D01*
X93103333Y-71842380D01*
X93203333Y-71890000D01*
X93236666Y-71937619D01*
X93870000Y-71842380D02*
X93536666Y-71842380D01*
X93503333Y-72318571D01*
X93536666Y-72270952D01*
X93603333Y-72223333D01*
X93770000Y-72223333D01*
X93836666Y-72270952D01*
X93870000Y-72318571D01*
X93903333Y-72413809D01*
X93903333Y-72651904D01*
X93870000Y-72747142D01*
X93836666Y-72794761D01*
X93770000Y-72842380D01*
X93603333Y-72842380D01*
X93536666Y-72794761D01*
X93503333Y-72747142D01*
X94336666Y-71842380D02*
X94403333Y-71842380D01*
X94470000Y-71890000D01*
X94503333Y-71937619D01*
X94536666Y-72032857D01*
X94570000Y-72223333D01*
X94570000Y-72461428D01*
X94536666Y-72651904D01*
X94503333Y-72747142D01*
X94470000Y-72794761D01*
X94403333Y-72842380D01*
X94336666Y-72842380D01*
X94270000Y-72794761D01*
X94236666Y-72747142D01*
X94203333Y-72651904D01*
X94170000Y-72461428D01*
X94170000Y-72223333D01*
X94203333Y-72032857D01*
X94236666Y-71937619D01*
X94270000Y-71890000D01*
X94336666Y-71842380D01*
X94803333Y-71842380D02*
X95236666Y-71842380D01*
X95003333Y-72223333D01*
X95103333Y-72223333D01*
X95170000Y-72270952D01*
X95203333Y-72318571D01*
X95236666Y-72413809D01*
X95236666Y-72651904D01*
X95203333Y-72747142D01*
X95170000Y-72794761D01*
X95103333Y-72842380D01*
X94903333Y-72842380D01*
X94836666Y-72794761D01*
X94803333Y-72747142D01*
X103396666Y-72768143D02*
X103363333Y-72815762D01*
X103263333Y-72863381D01*
X103196666Y-72863381D01*
X103096666Y-72815762D01*
X103030000Y-72720524D01*
X102996666Y-72625286D01*
X102963333Y-72434810D01*
X102963333Y-72291953D01*
X102996666Y-72101477D01*
X103030000Y-72006239D01*
X103096666Y-71911001D01*
X103196666Y-71863381D01*
X103263333Y-71863381D01*
X103363333Y-71911001D01*
X103396666Y-71958620D01*
X104030000Y-71863381D02*
X103696666Y-71863381D01*
X103663333Y-72339572D01*
X103696666Y-72291953D01*
X103763333Y-72244334D01*
X103930000Y-72244334D01*
X103996666Y-72291953D01*
X104030000Y-72339572D01*
X104063333Y-72434810D01*
X104063333Y-72672905D01*
X104030000Y-72768143D01*
X103996666Y-72815762D01*
X103930000Y-72863381D01*
X103763333Y-72863381D01*
X103696666Y-72815762D01*
X103663333Y-72768143D01*
X104496666Y-71863381D02*
X104563333Y-71863381D01*
X104630000Y-71911001D01*
X104663333Y-71958620D01*
X104696666Y-72053858D01*
X104730000Y-72244334D01*
X104730000Y-72482429D01*
X104696666Y-72672905D01*
X104663333Y-72768143D01*
X104630000Y-72815762D01*
X104563333Y-72863381D01*
X104496666Y-72863381D01*
X104430000Y-72815762D01*
X104396666Y-72768143D01*
X104363333Y-72672905D01*
X104330000Y-72482429D01*
X104330000Y-72244334D01*
X104363333Y-72053858D01*
X104396666Y-71958620D01*
X104430000Y-71911001D01*
X104496666Y-71863381D01*
X105330000Y-72196715D02*
X105330000Y-72863381D01*
X105163333Y-71815762D02*
X104996666Y-72530048D01*
X105430000Y-72530048D01*
X113556666Y-72760143D02*
X113523333Y-72807762D01*
X113423333Y-72855381D01*
X113356666Y-72855381D01*
X113256666Y-72807762D01*
X113190000Y-72712524D01*
X113156666Y-72617286D01*
X113123333Y-72426810D01*
X113123333Y-72283953D01*
X113156666Y-72093477D01*
X113190000Y-71998239D01*
X113256666Y-71903001D01*
X113356666Y-71855381D01*
X113423333Y-71855381D01*
X113523333Y-71903001D01*
X113556666Y-71950620D01*
X114190000Y-71855381D02*
X113856666Y-71855381D01*
X113823333Y-72331572D01*
X113856666Y-72283953D01*
X113923333Y-72236334D01*
X114090000Y-72236334D01*
X114156666Y-72283953D01*
X114190000Y-72331572D01*
X114223333Y-72426810D01*
X114223333Y-72664905D01*
X114190000Y-72760143D01*
X114156666Y-72807762D01*
X114090000Y-72855381D01*
X113923333Y-72855381D01*
X113856666Y-72807762D01*
X113823333Y-72760143D01*
X114656666Y-71855381D02*
X114723333Y-71855381D01*
X114790000Y-71903001D01*
X114823333Y-71950620D01*
X114856666Y-72045858D01*
X114890000Y-72236334D01*
X114890000Y-72474429D01*
X114856666Y-72664905D01*
X114823333Y-72760143D01*
X114790000Y-72807762D01*
X114723333Y-72855381D01*
X114656666Y-72855381D01*
X114590000Y-72807762D01*
X114556666Y-72760143D01*
X114523333Y-72664905D01*
X114490000Y-72474429D01*
X114490000Y-72236334D01*
X114523333Y-72045858D01*
X114556666Y-71950620D01*
X114590000Y-71903001D01*
X114656666Y-71855381D01*
X115523333Y-71855381D02*
X115190000Y-71855381D01*
X115156666Y-72331572D01*
X115190000Y-72283953D01*
X115256666Y-72236334D01*
X115423333Y-72236334D01*
X115490000Y-72283953D01*
X115523333Y-72331572D01*
X115556666Y-72426810D01*
X115556666Y-72664905D01*
X115523333Y-72760143D01*
X115490000Y-72807762D01*
X115423333Y-72855381D01*
X115256666Y-72855381D01*
X115190000Y-72807762D01*
X115156666Y-72760143D01*
X123785667Y-72768143D02*
X123752334Y-72815762D01*
X123652334Y-72863381D01*
X123585667Y-72863381D01*
X123485667Y-72815762D01*
X123419001Y-72720524D01*
X123385667Y-72625286D01*
X123352334Y-72434810D01*
X123352334Y-72291953D01*
X123385667Y-72101477D01*
X123419001Y-72006239D01*
X123485667Y-71911001D01*
X123585667Y-71863381D01*
X123652334Y-71863381D01*
X123752334Y-71911001D01*
X123785667Y-71958620D01*
X124419001Y-71863381D02*
X124085667Y-71863381D01*
X124052334Y-72339572D01*
X124085667Y-72291953D01*
X124152334Y-72244334D01*
X124319001Y-72244334D01*
X124385667Y-72291953D01*
X124419001Y-72339572D01*
X124452334Y-72434810D01*
X124452334Y-72672905D01*
X124419001Y-72768143D01*
X124385667Y-72815762D01*
X124319001Y-72863381D01*
X124152334Y-72863381D01*
X124085667Y-72815762D01*
X124052334Y-72768143D01*
X124885667Y-71863381D02*
X124952334Y-71863381D01*
X125019001Y-71911001D01*
X125052334Y-71958620D01*
X125085667Y-72053858D01*
X125119001Y-72244334D01*
X125119001Y-72482429D01*
X125085667Y-72672905D01*
X125052334Y-72768143D01*
X125019001Y-72815762D01*
X124952334Y-72863381D01*
X124885667Y-72863381D01*
X124819001Y-72815762D01*
X124785667Y-72768143D01*
X124752334Y-72672905D01*
X124719001Y-72482429D01*
X124719001Y-72244334D01*
X124752334Y-72053858D01*
X124785667Y-71958620D01*
X124819001Y-71911001D01*
X124885667Y-71863381D01*
X125719001Y-71863381D02*
X125585667Y-71863381D01*
X125519001Y-71911001D01*
X125485667Y-71958620D01*
X125419001Y-72101477D01*
X125385667Y-72291953D01*
X125385667Y-72672905D01*
X125419001Y-72768143D01*
X125452334Y-72815762D01*
X125519001Y-72863381D01*
X125652334Y-72863381D01*
X125719001Y-72815762D01*
X125752334Y-72768143D01*
X125785667Y-72672905D01*
X125785667Y-72434810D01*
X125752334Y-72339572D01*
X125719001Y-72291953D01*
X125652334Y-72244334D01*
X125519001Y-72244334D01*
X125452334Y-72291953D01*
X125419001Y-72339572D01*
X125385667Y-72434810D01*
X83015381Y-69699047D02*
X82539191Y-70032380D01*
X83015381Y-70270476D02*
X82015381Y-70270476D01*
X82015381Y-69889523D01*
X82063001Y-69794285D01*
X82110620Y-69746666D01*
X82205858Y-69699047D01*
X82348715Y-69699047D01*
X82443953Y-69746666D01*
X82491572Y-69794285D01*
X82539191Y-69889523D01*
X82539191Y-70270476D01*
X82015381Y-68794285D02*
X82015381Y-69270476D01*
X82491572Y-69318095D01*
X82443953Y-69270476D01*
X82396334Y-69175238D01*
X82396334Y-68937142D01*
X82443953Y-68841904D01*
X82491572Y-68794285D01*
X82586810Y-68746666D01*
X82824905Y-68746666D01*
X82920143Y-68794285D01*
X82967762Y-68841904D01*
X83015381Y-68937142D01*
X83015381Y-69175238D01*
X82967762Y-69270476D01*
X82920143Y-69318095D01*
X82015381Y-68127619D02*
X82015381Y-68032380D01*
X82063001Y-67937142D01*
X82110620Y-67889523D01*
X82205858Y-67841904D01*
X82396334Y-67794285D01*
X82634429Y-67794285D01*
X82824905Y-67841904D01*
X82920143Y-67889523D01*
X82967762Y-67937142D01*
X83015381Y-68032380D01*
X83015381Y-68127619D01*
X82967762Y-68222857D01*
X82920143Y-68270476D01*
X82824905Y-68318095D01*
X82634429Y-68365714D01*
X82396334Y-68365714D01*
X82205858Y-68318095D01*
X82110620Y-68270476D01*
X82063001Y-68222857D01*
X82015381Y-68127619D01*
X82015381Y-66937142D02*
X82015381Y-67127619D01*
X82063001Y-67222857D01*
X82110620Y-67270476D01*
X82253477Y-67365714D01*
X82443953Y-67413333D01*
X82824905Y-67413333D01*
X82920143Y-67365714D01*
X82967762Y-67318095D01*
X83015381Y-67222857D01*
X83015381Y-67032380D01*
X82967762Y-66937142D01*
X82920143Y-66889523D01*
X82824905Y-66841904D01*
X82586810Y-66841904D01*
X82491572Y-66889523D01*
X82443953Y-66937142D01*
X82396334Y-67032380D01*
X82396334Y-67222857D01*
X82443953Y-67318095D01*
X82491572Y-67365714D01*
X82586810Y-67413333D01*
X113752380Y-66484285D02*
X114561904Y-66484285D01*
X114657142Y-66436666D01*
X114704761Y-66389047D01*
X114752380Y-66293809D01*
X114752380Y-66103333D01*
X114704761Y-66008095D01*
X114657142Y-65960476D01*
X114561904Y-65912857D01*
X113752380Y-65912857D01*
X113752380Y-64960476D02*
X113752380Y-65436666D01*
X114228571Y-65484285D01*
X114180952Y-65436666D01*
X114133333Y-65341428D01*
X114133333Y-65103333D01*
X114180952Y-65008095D01*
X114228571Y-64960476D01*
X114323809Y-64912857D01*
X114561904Y-64912857D01*
X114657142Y-64960476D01*
X114704761Y-65008095D01*
X114752380Y-65103333D01*
X114752380Y-65341428D01*
X114704761Y-65436666D01*
X114657142Y-65484285D01*
X113752380Y-64293809D02*
X113752380Y-64198571D01*
X113800000Y-64103333D01*
X113847619Y-64055714D01*
X113942857Y-64008095D01*
X114133333Y-63960476D01*
X114371428Y-63960476D01*
X114561904Y-64008095D01*
X114657142Y-64055714D01*
X114704761Y-64103333D01*
X114752380Y-64198571D01*
X114752380Y-64293809D01*
X114704761Y-64389047D01*
X114657142Y-64436666D01*
X114561904Y-64484285D01*
X114371428Y-64531904D01*
X114133333Y-64531904D01*
X113942857Y-64484285D01*
X113847619Y-64436666D01*
X113800000Y-64389047D01*
X113752380Y-64293809D01*
X113752380Y-63055714D02*
X113752380Y-63531904D01*
X114228571Y-63579523D01*
X114180952Y-63531904D01*
X114133333Y-63436666D01*
X114133333Y-63198571D01*
X114180952Y-63103333D01*
X114228571Y-63055714D01*
X114323809Y-63008095D01*
X114561904Y-63008095D01*
X114657142Y-63055714D01*
X114704761Y-63103333D01*
X114752380Y-63198571D01*
X114752380Y-63436666D01*
X114704761Y-63531904D01*
X114657142Y-63579523D01*
X113752380Y-52649047D02*
X113752380Y-51982380D01*
X114752380Y-52410952D01*
X114085714Y-51172857D02*
X114752380Y-51172857D01*
X113704761Y-51410952D02*
X114419047Y-51649047D01*
X114419047Y-51030000D01*
X114752380Y-50172857D02*
X114752380Y-50649047D01*
X113752380Y-50649047D01*
X114704761Y-49887142D02*
X114752380Y-49744285D01*
X114752380Y-49506190D01*
X114704761Y-49410952D01*
X114657142Y-49363333D01*
X114561904Y-49315714D01*
X114466666Y-49315714D01*
X114371428Y-49363333D01*
X114323809Y-49410952D01*
X114276190Y-49506190D01*
X114228571Y-49696666D01*
X114180952Y-49791904D01*
X114133333Y-49839523D01*
X114038095Y-49887142D01*
X113942857Y-49887142D01*
X113847619Y-49839523D01*
X113800000Y-49791904D01*
X113752380Y-49696666D01*
X113752380Y-49458571D01*
X113800000Y-49315714D01*
X113847619Y-48934761D02*
X113800000Y-48887142D01*
X113752380Y-48791904D01*
X113752380Y-48553809D01*
X113800000Y-48458571D01*
X113847619Y-48410952D01*
X113942857Y-48363333D01*
X114038095Y-48363333D01*
X114180952Y-48410952D01*
X114752380Y-48982380D01*
X114752380Y-48363333D01*
X114085714Y-47506190D02*
X114752380Y-47506190D01*
X113704761Y-47744285D02*
X114419047Y-47982380D01*
X114419047Y-47363333D01*
X113752380Y-46506190D02*
X113752380Y-46982380D01*
X114228571Y-47030000D01*
X114180952Y-46982380D01*
X114133333Y-46887142D01*
X114133333Y-46649047D01*
X114180952Y-46553809D01*
X114228571Y-46506190D01*
X114323809Y-46458571D01*
X114561904Y-46458571D01*
X114657142Y-46506190D01*
X114704761Y-46553809D01*
X114752380Y-46649047D01*
X114752380Y-46887142D01*
X114704761Y-46982380D01*
X114657142Y-47030000D01*
X123912380Y-66484285D02*
X124721904Y-66484285D01*
X124817142Y-66436666D01*
X124864761Y-66389047D01*
X124912380Y-66293809D01*
X124912380Y-66103333D01*
X124864761Y-66008095D01*
X124817142Y-65960476D01*
X124721904Y-65912857D01*
X123912380Y-65912857D01*
X123912380Y-64960476D02*
X123912380Y-65436666D01*
X124388571Y-65484285D01*
X124340952Y-65436666D01*
X124293333Y-65341428D01*
X124293333Y-65103333D01*
X124340952Y-65008095D01*
X124388571Y-64960476D01*
X124483809Y-64912857D01*
X124721904Y-64912857D01*
X124817142Y-64960476D01*
X124864761Y-65008095D01*
X124912380Y-65103333D01*
X124912380Y-65341428D01*
X124864761Y-65436666D01*
X124817142Y-65484285D01*
X123912380Y-64293809D02*
X123912380Y-64198571D01*
X123960000Y-64103333D01*
X124007619Y-64055714D01*
X124102857Y-64008095D01*
X124293333Y-63960476D01*
X124531428Y-63960476D01*
X124721904Y-64008095D01*
X124817142Y-64055714D01*
X124864761Y-64103333D01*
X124912380Y-64198571D01*
X124912380Y-64293809D01*
X124864761Y-64389047D01*
X124817142Y-64436666D01*
X124721904Y-64484285D01*
X124531428Y-64531904D01*
X124293333Y-64531904D01*
X124102857Y-64484285D01*
X124007619Y-64436666D01*
X123960000Y-64389047D01*
X123912380Y-64293809D01*
X123912380Y-63103333D02*
X123912380Y-63293809D01*
X123960000Y-63389047D01*
X124007619Y-63436666D01*
X124150476Y-63531904D01*
X124340952Y-63579523D01*
X124721904Y-63579523D01*
X124817142Y-63531904D01*
X124864761Y-63484285D01*
X124912380Y-63389047D01*
X124912380Y-63198571D01*
X124864761Y-63103333D01*
X124817142Y-63055714D01*
X124721904Y-63008095D01*
X124483809Y-63008095D01*
X124388571Y-63055714D01*
X124340952Y-63103333D01*
X124293333Y-63198571D01*
X124293333Y-63389047D01*
X124340952Y-63484285D01*
X124388571Y-63531904D01*
X124483809Y-63579523D01*
X123912380Y-52649047D02*
X123912380Y-51982380D01*
X124912380Y-52410952D01*
X124245714Y-51172857D02*
X124912380Y-51172857D01*
X123864761Y-51410952D02*
X124579047Y-51649047D01*
X124579047Y-51030000D01*
X124912380Y-50172857D02*
X124912380Y-50649047D01*
X123912380Y-50649047D01*
X124864761Y-49887142D02*
X124912380Y-49744285D01*
X124912380Y-49506190D01*
X124864761Y-49410952D01*
X124817142Y-49363333D01*
X124721904Y-49315714D01*
X124626666Y-49315714D01*
X124531428Y-49363333D01*
X124483809Y-49410952D01*
X124436190Y-49506190D01*
X124388571Y-49696666D01*
X124340952Y-49791904D01*
X124293333Y-49839523D01*
X124198095Y-49887142D01*
X124102857Y-49887142D01*
X124007619Y-49839523D01*
X123960000Y-49791904D01*
X123912380Y-49696666D01*
X123912380Y-49458571D01*
X123960000Y-49315714D01*
X124007619Y-48934761D02*
X123960000Y-48887142D01*
X123912380Y-48791904D01*
X123912380Y-48553809D01*
X123960000Y-48458571D01*
X124007619Y-48410952D01*
X124102857Y-48363333D01*
X124198095Y-48363333D01*
X124340952Y-48410952D01*
X124912380Y-48982380D01*
X124912380Y-48363333D01*
X124245714Y-47506190D02*
X124912380Y-47506190D01*
X123864761Y-47744285D02*
X124579047Y-47982380D01*
X124579047Y-47363333D01*
X124245714Y-46553809D02*
X124912380Y-46553809D01*
X123864761Y-46791904D02*
X124579047Y-47030000D01*
X124579047Y-46410952D01*
X88455714Y-84542380D02*
X88455714Y-85351904D01*
X88503333Y-85447142D01*
X88550952Y-85494761D01*
X88646190Y-85542380D01*
X88836666Y-85542380D01*
X88931904Y-85494761D01*
X88979523Y-85447142D01*
X89027142Y-85351904D01*
X89027142Y-84542380D01*
X89979523Y-84542380D02*
X89503333Y-84542380D01*
X89455714Y-85018571D01*
X89503333Y-84970952D01*
X89598571Y-84923333D01*
X89836666Y-84923333D01*
X89931904Y-84970952D01*
X89979523Y-85018571D01*
X90027142Y-85113809D01*
X90027142Y-85351904D01*
X89979523Y-85447142D01*
X89931904Y-85494761D01*
X89836666Y-85542380D01*
X89598571Y-85542380D01*
X89503333Y-85494761D01*
X89455714Y-85447142D01*
X90646190Y-84542380D02*
X90741428Y-84542380D01*
X90836666Y-84590000D01*
X90884285Y-84637619D01*
X90931904Y-84732857D01*
X90979523Y-84923333D01*
X90979523Y-85161428D01*
X90931904Y-85351904D01*
X90884285Y-85447142D01*
X90836666Y-85494761D01*
X90741428Y-85542380D01*
X90646190Y-85542380D01*
X90550952Y-85494761D01*
X90503333Y-85447142D01*
X90455714Y-85351904D01*
X90408095Y-85161428D01*
X90408095Y-84923333D01*
X90455714Y-84732857D01*
X90503333Y-84637619D01*
X90550952Y-84590000D01*
X90646190Y-84542380D01*
X91931904Y-85542380D02*
X91360476Y-85542380D01*
X91646190Y-85542380D02*
X91646190Y-84542380D01*
X91550952Y-84685238D01*
X91455714Y-84780476D01*
X91360476Y-84828095D01*
X128000476Y-84542380D02*
X128667142Y-84542380D01*
X128000476Y-85542380D01*
X128667142Y-85542380D01*
X129190952Y-84970952D02*
X129095714Y-84923333D01*
X129048095Y-84875714D01*
X129000476Y-84780476D01*
X129000476Y-84732857D01*
X129048095Y-84637619D01*
X129095714Y-84590000D01*
X129190952Y-84542380D01*
X129381428Y-84542380D01*
X129476666Y-84590000D01*
X129524285Y-84637619D01*
X129571904Y-84732857D01*
X129571904Y-84780476D01*
X129524285Y-84875714D01*
X129476666Y-84923333D01*
X129381428Y-84970952D01*
X129190952Y-84970952D01*
X129095714Y-85018571D01*
X129048095Y-85066190D01*
X129000476Y-85161428D01*
X129000476Y-85351904D01*
X129048095Y-85447142D01*
X129095714Y-85494761D01*
X129190952Y-85542380D01*
X129381428Y-85542380D01*
X129476666Y-85494761D01*
X129524285Y-85447142D01*
X129571904Y-85351904D01*
X129571904Y-85161428D01*
X129524285Y-85066190D01*
X129476666Y-85018571D01*
X129381428Y-84970952D01*
X130190952Y-84542380D02*
X130286190Y-84542380D01*
X130381428Y-84590000D01*
X130429047Y-84637619D01*
X130476666Y-84732857D01*
X130524285Y-84923333D01*
X130524285Y-85161428D01*
X130476666Y-85351904D01*
X130429047Y-85447142D01*
X130381428Y-85494761D01*
X130286190Y-85542380D01*
X130190952Y-85542380D01*
X130095714Y-85494761D01*
X130048095Y-85447142D01*
X130000476Y-85351904D01*
X129952857Y-85161428D01*
X129952857Y-84923333D01*
X130000476Y-84732857D01*
X130048095Y-84637619D01*
X130095714Y-84590000D01*
X130190952Y-84542380D01*
X131524285Y-85447142D02*
X131476666Y-85494761D01*
X131333809Y-85542380D01*
X131238571Y-85542380D01*
X131095714Y-85494761D01*
X131000476Y-85399523D01*
X130952857Y-85304285D01*
X130905238Y-85113809D01*
X130905238Y-84970952D01*
X130952857Y-84780476D01*
X131000476Y-84685238D01*
X131095714Y-84590000D01*
X131238571Y-84542380D01*
X131333809Y-84542380D01*
X131476666Y-84590000D01*
X131524285Y-84637619D01*
X131952857Y-85542380D02*
X131952857Y-84542380D01*
X132333809Y-84542380D01*
X132429047Y-84590000D01*
X132476666Y-84637619D01*
X132524285Y-84732857D01*
X132524285Y-84875714D01*
X132476666Y-84970952D01*
X132429047Y-85018571D01*
X132333809Y-85066190D01*
X131952857Y-85066190D01*
X132952857Y-84542380D02*
X132952857Y-85351904D01*
X133000476Y-85447142D01*
X133048095Y-85494761D01*
X133143333Y-85542380D01*
X133333809Y-85542380D01*
X133429047Y-85494761D01*
X133476666Y-85447142D01*
X133524285Y-85351904D01*
X133524285Y-84542380D01*
X136342380Y-69699047D02*
X135866190Y-70032380D01*
X136342380Y-70270476D02*
X135342380Y-70270476D01*
X135342380Y-69889523D01*
X135390000Y-69794285D01*
X135437619Y-69746666D01*
X135532857Y-69699047D01*
X135675714Y-69699047D01*
X135770952Y-69746666D01*
X135818571Y-69794285D01*
X135866190Y-69889523D01*
X135866190Y-70270476D01*
X135342380Y-68794285D02*
X135342380Y-69270476D01*
X135818571Y-69318095D01*
X135770952Y-69270476D01*
X135723333Y-69175238D01*
X135723333Y-68937142D01*
X135770952Y-68841904D01*
X135818571Y-68794285D01*
X135913809Y-68746666D01*
X136151904Y-68746666D01*
X136247142Y-68794285D01*
X136294761Y-68841904D01*
X136342380Y-68937142D01*
X136342380Y-69175238D01*
X136294761Y-69270476D01*
X136247142Y-69318095D01*
X135342380Y-68127619D02*
X135342380Y-68032380D01*
X135390000Y-67937142D01*
X135437619Y-67889523D01*
X135532857Y-67841904D01*
X135723333Y-67794285D01*
X135961428Y-67794285D01*
X136151904Y-67841904D01*
X136247142Y-67889523D01*
X136294761Y-67937142D01*
X136342380Y-68032380D01*
X136342380Y-68127619D01*
X136294761Y-68222857D01*
X136247142Y-68270476D01*
X136151904Y-68318095D01*
X135961428Y-68365714D01*
X135723333Y-68365714D01*
X135532857Y-68318095D01*
X135437619Y-68270476D01*
X135390000Y-68222857D01*
X135342380Y-68127619D01*
X136342380Y-66841904D02*
X136342380Y-67413333D01*
X136342380Y-67127619D02*
X135342380Y-67127619D01*
X135485238Y-67222857D01*
X135580476Y-67318095D01*
X135628095Y-67413333D01*
X136342380Y-59539047D02*
X135866190Y-59872380D01*
X136342380Y-60110476D02*
X135342380Y-60110476D01*
X135342380Y-59729523D01*
X135390000Y-59634285D01*
X135437619Y-59586666D01*
X135532857Y-59539047D01*
X135675714Y-59539047D01*
X135770952Y-59586666D01*
X135818571Y-59634285D01*
X135866190Y-59729523D01*
X135866190Y-60110476D01*
X135342380Y-58634285D02*
X135342380Y-59110476D01*
X135818571Y-59158095D01*
X135770952Y-59110476D01*
X135723333Y-59015238D01*
X135723333Y-58777142D01*
X135770952Y-58681904D01*
X135818571Y-58634285D01*
X135913809Y-58586666D01*
X136151904Y-58586666D01*
X136247142Y-58634285D01*
X136294761Y-58681904D01*
X136342380Y-58777142D01*
X136342380Y-59015238D01*
X136294761Y-59110476D01*
X136247142Y-59158095D01*
X135342380Y-57967619D02*
X135342380Y-57872380D01*
X135390000Y-57777142D01*
X135437619Y-57729523D01*
X135532857Y-57681904D01*
X135723333Y-57634285D01*
X135961428Y-57634285D01*
X136151904Y-57681904D01*
X136247142Y-57729523D01*
X136294761Y-57777142D01*
X136342380Y-57872380D01*
X136342380Y-57967619D01*
X136294761Y-58062857D01*
X136247142Y-58110476D01*
X136151904Y-58158095D01*
X135961428Y-58205714D01*
X135723333Y-58205714D01*
X135532857Y-58158095D01*
X135437619Y-58110476D01*
X135390000Y-58062857D01*
X135342380Y-57967619D01*
X135437619Y-57253333D02*
X135390000Y-57205714D01*
X135342380Y-57110476D01*
X135342380Y-56872380D01*
X135390000Y-56777142D01*
X135437619Y-56729523D01*
X135532857Y-56681904D01*
X135628095Y-56681904D01*
X135770952Y-56729523D01*
X136342380Y-57300952D01*
X136342380Y-56681904D01*
X136342380Y-49506047D02*
X135866190Y-49839380D01*
X136342380Y-50077476D02*
X135342380Y-50077476D01*
X135342380Y-49696523D01*
X135390000Y-49601285D01*
X135437619Y-49553666D01*
X135532857Y-49506047D01*
X135675714Y-49506047D01*
X135770952Y-49553666D01*
X135818571Y-49601285D01*
X135866190Y-49696523D01*
X135866190Y-50077476D01*
X135342380Y-48601285D02*
X135342380Y-49077476D01*
X135818571Y-49125095D01*
X135770952Y-49077476D01*
X135723333Y-48982238D01*
X135723333Y-48744142D01*
X135770952Y-48648904D01*
X135818571Y-48601285D01*
X135913809Y-48553666D01*
X136151904Y-48553666D01*
X136247142Y-48601285D01*
X136294761Y-48648904D01*
X136342380Y-48744142D01*
X136342380Y-48982238D01*
X136294761Y-49077476D01*
X136247142Y-49125095D01*
X135342380Y-47934619D02*
X135342380Y-47839380D01*
X135390000Y-47744142D01*
X135437619Y-47696523D01*
X135532857Y-47648904D01*
X135723333Y-47601285D01*
X135961428Y-47601285D01*
X136151904Y-47648904D01*
X136247142Y-47696523D01*
X136294761Y-47744142D01*
X136342380Y-47839380D01*
X136342380Y-47934619D01*
X136294761Y-48029857D01*
X136247142Y-48077476D01*
X136151904Y-48125095D01*
X135961428Y-48172714D01*
X135723333Y-48172714D01*
X135532857Y-48125095D01*
X135437619Y-48077476D01*
X135390000Y-48029857D01*
X135342380Y-47934619D01*
X135342380Y-47267952D02*
X135342380Y-46648904D01*
X135723333Y-46982238D01*
X135723333Y-46839380D01*
X135770952Y-46744142D01*
X135818571Y-46696523D01*
X135913809Y-46648904D01*
X136151904Y-46648904D01*
X136247142Y-46696523D01*
X136294761Y-46744142D01*
X136342380Y-46839380D01*
X136342380Y-47125095D01*
X136294761Y-47220333D01*
X136247142Y-47267952D01*
X83002380Y-49379047D02*
X82526190Y-49712380D01*
X83002380Y-49950476D02*
X82002380Y-49950476D01*
X82002380Y-49569523D01*
X82050000Y-49474285D01*
X82097619Y-49426666D01*
X82192857Y-49379047D01*
X82335714Y-49379047D01*
X82430952Y-49426666D01*
X82478571Y-49474285D01*
X82526190Y-49569523D01*
X82526190Y-49950476D01*
X82002380Y-48474285D02*
X82002380Y-48950476D01*
X82478571Y-48998095D01*
X82430952Y-48950476D01*
X82383333Y-48855238D01*
X82383333Y-48617142D01*
X82430952Y-48521904D01*
X82478571Y-48474285D01*
X82573809Y-48426666D01*
X82811904Y-48426666D01*
X82907142Y-48474285D01*
X82954761Y-48521904D01*
X83002380Y-48617142D01*
X83002380Y-48855238D01*
X82954761Y-48950476D01*
X82907142Y-48998095D01*
X82002380Y-47807619D02*
X82002380Y-47712380D01*
X82050000Y-47617142D01*
X82097619Y-47569523D01*
X82192857Y-47521904D01*
X82383333Y-47474285D01*
X82621428Y-47474285D01*
X82811904Y-47521904D01*
X82907142Y-47569523D01*
X82954761Y-47617142D01*
X83002380Y-47712380D01*
X83002380Y-47807619D01*
X82954761Y-47902857D01*
X82907142Y-47950476D01*
X82811904Y-47998095D01*
X82621428Y-48045714D01*
X82383333Y-48045714D01*
X82192857Y-47998095D01*
X82097619Y-47950476D01*
X82050000Y-47902857D01*
X82002380Y-47807619D01*
X82335714Y-46617142D02*
X83002380Y-46617142D01*
X81954761Y-46855238D02*
X82669047Y-47093333D01*
X82669047Y-46474285D01*
X83002380Y-59539047D02*
X82526190Y-59872380D01*
X83002380Y-60110476D02*
X82002380Y-60110476D01*
X82002380Y-59729523D01*
X82050000Y-59634285D01*
X82097619Y-59586666D01*
X82192857Y-59539047D01*
X82335714Y-59539047D01*
X82430952Y-59586666D01*
X82478571Y-59634285D01*
X82526190Y-59729523D01*
X82526190Y-60110476D01*
X82002380Y-58634285D02*
X82002380Y-59110476D01*
X82478571Y-59158095D01*
X82430952Y-59110476D01*
X82383333Y-59015238D01*
X82383333Y-58777142D01*
X82430952Y-58681904D01*
X82478571Y-58634285D01*
X82573809Y-58586666D01*
X82811904Y-58586666D01*
X82907142Y-58634285D01*
X82954761Y-58681904D01*
X83002380Y-58777142D01*
X83002380Y-59015238D01*
X82954761Y-59110476D01*
X82907142Y-59158095D01*
X82002380Y-57967619D02*
X82002380Y-57872380D01*
X82050000Y-57777142D01*
X82097619Y-57729523D01*
X82192857Y-57681904D01*
X82383333Y-57634285D01*
X82621428Y-57634285D01*
X82811904Y-57681904D01*
X82907142Y-57729523D01*
X82954761Y-57777142D01*
X83002380Y-57872380D01*
X83002380Y-57967619D01*
X82954761Y-58062857D01*
X82907142Y-58110476D01*
X82811904Y-58158095D01*
X82621428Y-58205714D01*
X82383333Y-58205714D01*
X82192857Y-58158095D01*
X82097619Y-58110476D01*
X82050000Y-58062857D01*
X82002380Y-57967619D01*
X82002380Y-56729523D02*
X82002380Y-57205714D01*
X82478571Y-57253333D01*
X82430952Y-57205714D01*
X82383333Y-57110476D01*
X82383333Y-56872380D01*
X82430952Y-56777142D01*
X82478571Y-56729523D01*
X82573809Y-56681904D01*
X82811904Y-56681904D01*
X82907142Y-56729523D01*
X82954761Y-56777142D01*
X83002380Y-56872380D01*
X83002380Y-57110476D01*
X82954761Y-57205714D01*
X82907142Y-57253333D01*
X78192380Y-89344285D02*
X79001904Y-89344285D01*
X79097142Y-89296666D01*
X79144761Y-89249047D01*
X79192380Y-89153809D01*
X79192380Y-88963333D01*
X79144761Y-88868095D01*
X79097142Y-88820476D01*
X79001904Y-88772857D01*
X78192380Y-88772857D01*
X78192380Y-87820476D02*
X78192380Y-88296666D01*
X78668571Y-88344285D01*
X78620952Y-88296666D01*
X78573333Y-88201428D01*
X78573333Y-87963333D01*
X78620952Y-87868095D01*
X78668571Y-87820476D01*
X78763809Y-87772857D01*
X79001904Y-87772857D01*
X79097142Y-87820476D01*
X79144761Y-87868095D01*
X79192380Y-87963333D01*
X79192380Y-88201428D01*
X79144761Y-88296666D01*
X79097142Y-88344285D01*
X78192380Y-87153809D02*
X78192380Y-87058571D01*
X78240000Y-86963333D01*
X78287619Y-86915714D01*
X78382857Y-86868095D01*
X78573333Y-86820476D01*
X78811428Y-86820476D01*
X79001904Y-86868095D01*
X79097142Y-86915714D01*
X79144761Y-86963333D01*
X79192380Y-87058571D01*
X79192380Y-87153809D01*
X79144761Y-87249047D01*
X79097142Y-87296666D01*
X79001904Y-87344285D01*
X78811428Y-87391904D01*
X78573333Y-87391904D01*
X78382857Y-87344285D01*
X78287619Y-87296666D01*
X78240000Y-87249047D01*
X78192380Y-87153809D01*
X78287619Y-86439523D02*
X78240000Y-86391904D01*
X78192380Y-86296666D01*
X78192380Y-86058571D01*
X78240000Y-85963333D01*
X78287619Y-85915714D01*
X78382857Y-85868095D01*
X78478095Y-85868095D01*
X78620952Y-85915714D01*
X79192380Y-86487142D01*
X79192380Y-85868095D01*
X78192380Y-82652857D02*
X78192380Y-81986190D01*
X79192380Y-82414761D01*
X78525714Y-81176666D02*
X79192380Y-81176666D01*
X78144761Y-81414761D02*
X78859047Y-81652857D01*
X78859047Y-81033809D01*
X79192380Y-80176666D02*
X79192380Y-80652857D01*
X78192380Y-80652857D01*
X79144761Y-79890952D02*
X79192380Y-79748095D01*
X79192380Y-79510000D01*
X79144761Y-79414761D01*
X79097142Y-79367142D01*
X79001904Y-79319523D01*
X78906666Y-79319523D01*
X78811428Y-79367142D01*
X78763809Y-79414761D01*
X78716190Y-79510000D01*
X78668571Y-79700476D01*
X78620952Y-79795714D01*
X78573333Y-79843333D01*
X78478095Y-79890952D01*
X78382857Y-79890952D01*
X78287619Y-79843333D01*
X78240000Y-79795714D01*
X78192380Y-79700476D01*
X78192380Y-79462380D01*
X78240000Y-79319523D01*
X78192380Y-78700476D02*
X78192380Y-78605238D01*
X78240000Y-78510000D01*
X78287619Y-78462380D01*
X78382857Y-78414761D01*
X78573333Y-78367142D01*
X78811428Y-78367142D01*
X79001904Y-78414761D01*
X79097142Y-78462380D01*
X79144761Y-78510000D01*
X79192380Y-78605238D01*
X79192380Y-78700476D01*
X79144761Y-78795714D01*
X79097142Y-78843333D01*
X79001904Y-78890952D01*
X78811428Y-78938571D01*
X78573333Y-78938571D01*
X78382857Y-78890952D01*
X78287619Y-78843333D01*
X78240000Y-78795714D01*
X78192380Y-78700476D01*
X78525714Y-77510000D02*
X79192380Y-77510000D01*
X78144761Y-77748095D02*
X78859047Y-77986190D01*
X78859047Y-77367142D01*
X132532380Y-69699047D02*
X132056190Y-70032380D01*
X132532380Y-70270476D02*
X131532380Y-70270476D01*
X131532380Y-69889523D01*
X131580000Y-69794285D01*
X131627619Y-69746666D01*
X131722857Y-69699047D01*
X131865714Y-69699047D01*
X131960952Y-69746666D01*
X132008571Y-69794285D01*
X132056190Y-69889523D01*
X132056190Y-70270476D01*
X131532380Y-68794285D02*
X131532380Y-69270476D01*
X132008571Y-69318095D01*
X131960952Y-69270476D01*
X131913333Y-69175238D01*
X131913333Y-68937142D01*
X131960952Y-68841904D01*
X132008571Y-68794285D01*
X132103809Y-68746666D01*
X132341904Y-68746666D01*
X132437142Y-68794285D01*
X132484761Y-68841904D01*
X132532380Y-68937142D01*
X132532380Y-69175238D01*
X132484761Y-69270476D01*
X132437142Y-69318095D01*
X131532380Y-68127619D02*
X131532380Y-68032380D01*
X131580000Y-67937142D01*
X131627619Y-67889523D01*
X131722857Y-67841904D01*
X131913333Y-67794285D01*
X132151428Y-67794285D01*
X132341904Y-67841904D01*
X132437142Y-67889523D01*
X132484761Y-67937142D01*
X132532380Y-68032380D01*
X132532380Y-68127619D01*
X132484761Y-68222857D01*
X132437142Y-68270476D01*
X132341904Y-68318095D01*
X132151428Y-68365714D01*
X131913333Y-68365714D01*
X131722857Y-68318095D01*
X131627619Y-68270476D01*
X131580000Y-68222857D01*
X131532380Y-68127619D01*
X131532380Y-67460952D02*
X131532380Y-66794285D01*
X132532380Y-67222857D01*
X132532380Y-59539047D02*
X132056190Y-59872380D01*
X132532380Y-60110476D02*
X131532380Y-60110476D01*
X131532380Y-59729523D01*
X131580000Y-59634285D01*
X131627619Y-59586666D01*
X131722857Y-59539047D01*
X131865714Y-59539047D01*
X131960952Y-59586666D01*
X132008571Y-59634285D01*
X132056190Y-59729523D01*
X132056190Y-60110476D01*
X131532380Y-58634285D02*
X131532380Y-59110476D01*
X132008571Y-59158095D01*
X131960952Y-59110476D01*
X131913333Y-59015238D01*
X131913333Y-58777142D01*
X131960952Y-58681904D01*
X132008571Y-58634285D01*
X132103809Y-58586666D01*
X132341904Y-58586666D01*
X132437142Y-58634285D01*
X132484761Y-58681904D01*
X132532380Y-58777142D01*
X132532380Y-59015238D01*
X132484761Y-59110476D01*
X132437142Y-59158095D01*
X131532380Y-57967619D02*
X131532380Y-57872380D01*
X131580000Y-57777142D01*
X131627619Y-57729523D01*
X131722857Y-57681904D01*
X131913333Y-57634285D01*
X132151428Y-57634285D01*
X132341904Y-57681904D01*
X132437142Y-57729523D01*
X132484761Y-57777142D01*
X132532380Y-57872380D01*
X132532380Y-57967619D01*
X132484761Y-58062857D01*
X132437142Y-58110476D01*
X132341904Y-58158095D01*
X132151428Y-58205714D01*
X131913333Y-58205714D01*
X131722857Y-58158095D01*
X131627619Y-58110476D01*
X131580000Y-58062857D01*
X131532380Y-57967619D01*
X131960952Y-57062857D02*
X131913333Y-57158095D01*
X131865714Y-57205714D01*
X131770476Y-57253333D01*
X131722857Y-57253333D01*
X131627619Y-57205714D01*
X131580000Y-57158095D01*
X131532380Y-57062857D01*
X131532380Y-56872380D01*
X131580000Y-56777142D01*
X131627619Y-56729523D01*
X131722857Y-56681904D01*
X131770476Y-56681904D01*
X131865714Y-56729523D01*
X131913333Y-56777142D01*
X131960952Y-56872380D01*
X131960952Y-57062857D01*
X132008571Y-57158095D01*
X132056190Y-57205714D01*
X132151428Y-57253333D01*
X132341904Y-57253333D01*
X132437142Y-57205714D01*
X132484761Y-57158095D01*
X132532380Y-57062857D01*
X132532380Y-56872380D01*
X132484761Y-56777142D01*
X132437142Y-56729523D01*
X132341904Y-56681904D01*
X132151428Y-56681904D01*
X132056190Y-56729523D01*
X132008571Y-56777142D01*
X131960952Y-56872380D01*
X132532380Y-49506047D02*
X132056190Y-49839380D01*
X132532380Y-50077476D02*
X131532380Y-50077476D01*
X131532380Y-49696523D01*
X131580000Y-49601285D01*
X131627619Y-49553666D01*
X131722857Y-49506047D01*
X131865714Y-49506047D01*
X131960952Y-49553666D01*
X132008571Y-49601285D01*
X132056190Y-49696523D01*
X132056190Y-50077476D01*
X131532380Y-48601285D02*
X131532380Y-49077476D01*
X132008571Y-49125095D01*
X131960952Y-49077476D01*
X131913333Y-48982238D01*
X131913333Y-48744142D01*
X131960952Y-48648904D01*
X132008571Y-48601285D01*
X132103809Y-48553666D01*
X132341904Y-48553666D01*
X132437142Y-48601285D01*
X132484761Y-48648904D01*
X132532380Y-48744142D01*
X132532380Y-48982238D01*
X132484761Y-49077476D01*
X132437142Y-49125095D01*
X131532380Y-47934619D02*
X131532380Y-47839380D01*
X131580000Y-47744142D01*
X131627619Y-47696523D01*
X131722857Y-47648904D01*
X131913333Y-47601285D01*
X132151428Y-47601285D01*
X132341904Y-47648904D01*
X132437142Y-47696523D01*
X132484761Y-47744142D01*
X132532380Y-47839380D01*
X132532380Y-47934619D01*
X132484761Y-48029857D01*
X132437142Y-48077476D01*
X132341904Y-48125095D01*
X132151428Y-48172714D01*
X131913333Y-48172714D01*
X131722857Y-48125095D01*
X131627619Y-48077476D01*
X131580000Y-48029857D01*
X131532380Y-47934619D01*
X132532380Y-47125095D02*
X132532380Y-46934619D01*
X132484761Y-46839380D01*
X132437142Y-46791761D01*
X132294285Y-46696523D01*
X132103809Y-46648904D01*
X131722857Y-46648904D01*
X131627619Y-46696523D01*
X131580000Y-46744142D01*
X131532380Y-46839380D01*
X131532380Y-47029857D01*
X131580000Y-47125095D01*
X131627619Y-47172714D01*
X131722857Y-47220333D01*
X131960952Y-47220333D01*
X132056190Y-47172714D01*
X132103809Y-47125095D01*
X132151428Y-47029857D01*
X132151428Y-46839380D01*
X132103809Y-46744142D01*
X132056190Y-46696523D01*
X131960952Y-46648904D01*
X86812380Y-49379047D02*
X86336190Y-49712380D01*
X86812380Y-49950476D02*
X85812380Y-49950476D01*
X85812380Y-49569523D01*
X85860000Y-49474285D01*
X85907619Y-49426666D01*
X86002857Y-49379047D01*
X86145714Y-49379047D01*
X86240952Y-49426666D01*
X86288571Y-49474285D01*
X86336190Y-49569523D01*
X86336190Y-49950476D01*
X85812380Y-48474285D02*
X85812380Y-48950476D01*
X86288571Y-48998095D01*
X86240952Y-48950476D01*
X86193333Y-48855238D01*
X86193333Y-48617142D01*
X86240952Y-48521904D01*
X86288571Y-48474285D01*
X86383809Y-48426666D01*
X86621904Y-48426666D01*
X86717142Y-48474285D01*
X86764761Y-48521904D01*
X86812380Y-48617142D01*
X86812380Y-48855238D01*
X86764761Y-48950476D01*
X86717142Y-48998095D01*
X86812380Y-47474285D02*
X86812380Y-48045714D01*
X86812380Y-47760000D02*
X85812380Y-47760000D01*
X85955238Y-47855238D01*
X86050476Y-47950476D01*
X86098095Y-48045714D01*
X85812380Y-46855238D02*
X85812380Y-46760000D01*
X85860000Y-46664761D01*
X85907619Y-46617142D01*
X86002857Y-46569523D01*
X86193333Y-46521904D01*
X86431428Y-46521904D01*
X86621904Y-46569523D01*
X86717142Y-46617142D01*
X86764761Y-46664761D01*
X86812380Y-46760000D01*
X86812380Y-46855238D01*
X86764761Y-46950476D01*
X86717142Y-46998095D01*
X86621904Y-47045714D01*
X86431428Y-47093333D01*
X86193333Y-47093333D01*
X86002857Y-47045714D01*
X85907619Y-46998095D01*
X85860000Y-46950476D01*
X85812380Y-46855238D01*
X86812380Y-59539047D02*
X86336190Y-59872380D01*
X86812380Y-60110476D02*
X85812380Y-60110476D01*
X85812380Y-59729523D01*
X85860000Y-59634285D01*
X85907619Y-59586666D01*
X86002857Y-59539047D01*
X86145714Y-59539047D01*
X86240952Y-59586666D01*
X86288571Y-59634285D01*
X86336190Y-59729523D01*
X86336190Y-60110476D01*
X85812380Y-58634285D02*
X85812380Y-59110476D01*
X86288571Y-59158095D01*
X86240952Y-59110476D01*
X86193333Y-59015238D01*
X86193333Y-58777142D01*
X86240952Y-58681904D01*
X86288571Y-58634285D01*
X86383809Y-58586666D01*
X86621904Y-58586666D01*
X86717142Y-58634285D01*
X86764761Y-58681904D01*
X86812380Y-58777142D01*
X86812380Y-59015238D01*
X86764761Y-59110476D01*
X86717142Y-59158095D01*
X86812380Y-57634285D02*
X86812380Y-58205714D01*
X86812380Y-57920000D02*
X85812380Y-57920000D01*
X85955238Y-58015238D01*
X86050476Y-58110476D01*
X86098095Y-58205714D01*
X86812380Y-56681904D02*
X86812380Y-57253333D01*
X86812380Y-56967619D02*
X85812380Y-56967619D01*
X85955238Y-57062857D01*
X86050476Y-57158095D01*
X86098095Y-57253333D01*
X86812380Y-69699047D02*
X86336190Y-70032380D01*
X86812380Y-70270476D02*
X85812380Y-70270476D01*
X85812380Y-69889523D01*
X85860000Y-69794285D01*
X85907619Y-69746666D01*
X86002857Y-69699047D01*
X86145714Y-69699047D01*
X86240952Y-69746666D01*
X86288571Y-69794285D01*
X86336190Y-69889523D01*
X86336190Y-70270476D01*
X85812380Y-68794285D02*
X85812380Y-69270476D01*
X86288571Y-69318095D01*
X86240952Y-69270476D01*
X86193333Y-69175238D01*
X86193333Y-68937142D01*
X86240952Y-68841904D01*
X86288571Y-68794285D01*
X86383809Y-68746666D01*
X86621904Y-68746666D01*
X86717142Y-68794285D01*
X86764761Y-68841904D01*
X86812380Y-68937142D01*
X86812380Y-69175238D01*
X86764761Y-69270476D01*
X86717142Y-69318095D01*
X86812380Y-67794285D02*
X86812380Y-68365714D01*
X86812380Y-68080000D02*
X85812380Y-68080000D01*
X85955238Y-68175238D01*
X86050476Y-68270476D01*
X86098095Y-68365714D01*
X85907619Y-67413333D02*
X85860000Y-67365714D01*
X85812380Y-67270476D01*
X85812380Y-67032380D01*
X85860000Y-66937142D01*
X85907619Y-66889523D01*
X86002857Y-66841904D01*
X86098095Y-66841904D01*
X86240952Y-66889523D01*
X86812380Y-67460952D01*
X86812380Y-66841904D01*
X140152380Y-70186380D02*
X139152380Y-70186380D01*
X139152380Y-69995904D01*
X139200000Y-69881619D01*
X139295238Y-69805428D01*
X139390476Y-69767333D01*
X139580952Y-69729238D01*
X139723809Y-69729238D01*
X139914285Y-69767333D01*
X140009523Y-69805428D01*
X140104761Y-69881619D01*
X140152380Y-69995904D01*
X140152380Y-70186380D01*
X139152380Y-69005428D02*
X139152380Y-69386380D01*
X139628571Y-69424476D01*
X139580952Y-69386380D01*
X139533333Y-69310190D01*
X139533333Y-69119714D01*
X139580952Y-69043523D01*
X139628571Y-69005428D01*
X139723809Y-68967333D01*
X139961904Y-68967333D01*
X140057142Y-69005428D01*
X140104761Y-69043523D01*
X140152380Y-69119714D01*
X140152380Y-69310190D01*
X140104761Y-69386380D01*
X140057142Y-69424476D01*
X139152380Y-68472095D02*
X139152380Y-68395904D01*
X139200000Y-68319714D01*
X139247619Y-68281619D01*
X139342857Y-68243523D01*
X139533333Y-68205428D01*
X139771428Y-68205428D01*
X139961904Y-68243523D01*
X140057142Y-68281619D01*
X140104761Y-68319714D01*
X140152380Y-68395904D01*
X140152380Y-68472095D01*
X140104761Y-68548285D01*
X140057142Y-68586380D01*
X139961904Y-68624476D01*
X139771428Y-68662571D01*
X139533333Y-68662571D01*
X139342857Y-68624476D01*
X139247619Y-68586380D01*
X139200000Y-68548285D01*
X139152380Y-68472095D01*
X140152380Y-67443523D02*
X140152380Y-67900666D01*
X140152380Y-67672095D02*
X139152380Y-67672095D01*
X139295238Y-67748285D01*
X139390476Y-67824476D01*
X139438095Y-67900666D01*
X143962380Y-70186380D02*
X142962380Y-70186380D01*
X142962380Y-69995904D01*
X143010000Y-69881619D01*
X143105238Y-69805428D01*
X143200476Y-69767333D01*
X143390952Y-69729238D01*
X143533809Y-69729238D01*
X143724285Y-69767333D01*
X143819523Y-69805428D01*
X143914761Y-69881619D01*
X143962380Y-69995904D01*
X143962380Y-70186380D01*
X142962380Y-69005428D02*
X142962380Y-69386380D01*
X143438571Y-69424476D01*
X143390952Y-69386380D01*
X143343333Y-69310190D01*
X143343333Y-69119714D01*
X143390952Y-69043523D01*
X143438571Y-69005428D01*
X143533809Y-68967333D01*
X143771904Y-68967333D01*
X143867142Y-69005428D01*
X143914761Y-69043523D01*
X143962380Y-69119714D01*
X143962380Y-69310190D01*
X143914761Y-69386380D01*
X143867142Y-69424476D01*
X142962380Y-68472095D02*
X142962380Y-68395904D01*
X143010000Y-68319714D01*
X143057619Y-68281619D01*
X143152857Y-68243523D01*
X143343333Y-68205428D01*
X143581428Y-68205428D01*
X143771904Y-68243523D01*
X143867142Y-68281619D01*
X143914761Y-68319714D01*
X143962380Y-68395904D01*
X143962380Y-68472095D01*
X143914761Y-68548285D01*
X143867142Y-68586380D01*
X143771904Y-68624476D01*
X143581428Y-68662571D01*
X143343333Y-68662571D01*
X143152857Y-68624476D01*
X143057619Y-68586380D01*
X143010000Y-68548285D01*
X142962380Y-68472095D01*
X143057619Y-67900666D02*
X143010000Y-67862571D01*
X142962380Y-67786380D01*
X142962380Y-67595904D01*
X143010000Y-67519714D01*
X143057619Y-67481619D01*
X143152857Y-67443523D01*
X143248095Y-67443523D01*
X143390952Y-67481619D01*
X143962380Y-67938761D01*
X143962380Y-67443523D01*
X140152380Y-60026380D02*
X139152380Y-60026380D01*
X139152380Y-59835904D01*
X139200000Y-59721619D01*
X139295238Y-59645428D01*
X139390476Y-59607333D01*
X139580952Y-59569238D01*
X139723809Y-59569238D01*
X139914285Y-59607333D01*
X140009523Y-59645428D01*
X140104761Y-59721619D01*
X140152380Y-59835904D01*
X140152380Y-60026380D01*
X139152380Y-58845428D02*
X139152380Y-59226380D01*
X139628571Y-59264476D01*
X139580952Y-59226380D01*
X139533333Y-59150190D01*
X139533333Y-58959714D01*
X139580952Y-58883523D01*
X139628571Y-58845428D01*
X139723809Y-58807333D01*
X139961904Y-58807333D01*
X140057142Y-58845428D01*
X140104761Y-58883523D01*
X140152380Y-58959714D01*
X140152380Y-59150190D01*
X140104761Y-59226380D01*
X140057142Y-59264476D01*
X139152380Y-58312095D02*
X139152380Y-58235904D01*
X139200000Y-58159714D01*
X139247619Y-58121619D01*
X139342857Y-58083523D01*
X139533333Y-58045428D01*
X139771428Y-58045428D01*
X139961904Y-58083523D01*
X140057142Y-58121619D01*
X140104761Y-58159714D01*
X140152380Y-58235904D01*
X140152380Y-58312095D01*
X140104761Y-58388285D01*
X140057142Y-58426380D01*
X139961904Y-58464476D01*
X139771428Y-58502571D01*
X139533333Y-58502571D01*
X139342857Y-58464476D01*
X139247619Y-58426380D01*
X139200000Y-58388285D01*
X139152380Y-58312095D01*
X139152380Y-57778761D02*
X139152380Y-57283523D01*
X139533333Y-57550190D01*
X139533333Y-57435904D01*
X139580952Y-57359714D01*
X139628571Y-57321619D01*
X139723809Y-57283523D01*
X139961904Y-57283523D01*
X140057142Y-57321619D01*
X140104761Y-57359714D01*
X140152380Y-57435904D01*
X140152380Y-57664476D01*
X140104761Y-57740666D01*
X140057142Y-57778761D01*
X143962380Y-60026380D02*
X142962380Y-60026380D01*
X142962380Y-59835904D01*
X143010000Y-59721619D01*
X143105238Y-59645428D01*
X143200476Y-59607333D01*
X143390952Y-59569238D01*
X143533809Y-59569238D01*
X143724285Y-59607333D01*
X143819523Y-59645428D01*
X143914761Y-59721619D01*
X143962380Y-59835904D01*
X143962380Y-60026380D01*
X142962380Y-58845428D02*
X142962380Y-59226380D01*
X143438571Y-59264476D01*
X143390952Y-59226380D01*
X143343333Y-59150190D01*
X143343333Y-58959714D01*
X143390952Y-58883523D01*
X143438571Y-58845428D01*
X143533809Y-58807333D01*
X143771904Y-58807333D01*
X143867142Y-58845428D01*
X143914761Y-58883523D01*
X143962380Y-58959714D01*
X143962380Y-59150190D01*
X143914761Y-59226380D01*
X143867142Y-59264476D01*
X142962380Y-58312095D02*
X142962380Y-58235904D01*
X143010000Y-58159714D01*
X143057619Y-58121619D01*
X143152857Y-58083523D01*
X143343333Y-58045428D01*
X143581428Y-58045428D01*
X143771904Y-58083523D01*
X143867142Y-58121619D01*
X143914761Y-58159714D01*
X143962380Y-58235904D01*
X143962380Y-58312095D01*
X143914761Y-58388285D01*
X143867142Y-58426380D01*
X143771904Y-58464476D01*
X143581428Y-58502571D01*
X143343333Y-58502571D01*
X143152857Y-58464476D01*
X143057619Y-58426380D01*
X143010000Y-58388285D01*
X142962380Y-58312095D01*
X143295714Y-57359714D02*
X143962380Y-57359714D01*
X142914761Y-57550190D02*
X143629047Y-57740666D01*
X143629047Y-57245428D01*
X140152380Y-49866380D02*
X139152380Y-49866380D01*
X139152380Y-49675904D01*
X139200000Y-49561619D01*
X139295238Y-49485428D01*
X139390476Y-49447333D01*
X139580952Y-49409238D01*
X139723809Y-49409238D01*
X139914285Y-49447333D01*
X140009523Y-49485428D01*
X140104761Y-49561619D01*
X140152380Y-49675904D01*
X140152380Y-49866380D01*
X139152380Y-48685428D02*
X139152380Y-49066380D01*
X139628571Y-49104476D01*
X139580952Y-49066380D01*
X139533333Y-48990190D01*
X139533333Y-48799714D01*
X139580952Y-48723523D01*
X139628571Y-48685428D01*
X139723809Y-48647333D01*
X139961904Y-48647333D01*
X140057142Y-48685428D01*
X140104761Y-48723523D01*
X140152380Y-48799714D01*
X140152380Y-48990190D01*
X140104761Y-49066380D01*
X140057142Y-49104476D01*
X139152380Y-48152095D02*
X139152380Y-48075904D01*
X139200000Y-47999714D01*
X139247619Y-47961619D01*
X139342857Y-47923523D01*
X139533333Y-47885428D01*
X139771428Y-47885428D01*
X139961904Y-47923523D01*
X140057142Y-47961619D01*
X140104761Y-47999714D01*
X140152380Y-48075904D01*
X140152380Y-48152095D01*
X140104761Y-48228285D01*
X140057142Y-48266380D01*
X139961904Y-48304476D01*
X139771428Y-48342571D01*
X139533333Y-48342571D01*
X139342857Y-48304476D01*
X139247619Y-48266380D01*
X139200000Y-48228285D01*
X139152380Y-48152095D01*
X139152380Y-47161619D02*
X139152380Y-47542571D01*
X139628571Y-47580666D01*
X139580952Y-47542571D01*
X139533333Y-47466380D01*
X139533333Y-47275904D01*
X139580952Y-47199714D01*
X139628571Y-47161619D01*
X139723809Y-47123523D01*
X139961904Y-47123523D01*
X140057142Y-47161619D01*
X140104761Y-47199714D01*
X140152380Y-47275904D01*
X140152380Y-47466380D01*
X140104761Y-47542571D01*
X140057142Y-47580666D01*
X143962380Y-49866380D02*
X142962380Y-49866380D01*
X142962380Y-49675904D01*
X143010000Y-49561619D01*
X143105238Y-49485428D01*
X143200476Y-49447333D01*
X143390952Y-49409238D01*
X143533809Y-49409238D01*
X143724285Y-49447333D01*
X143819523Y-49485428D01*
X143914761Y-49561619D01*
X143962380Y-49675904D01*
X143962380Y-49866380D01*
X142962380Y-48685428D02*
X142962380Y-49066380D01*
X143438571Y-49104476D01*
X143390952Y-49066380D01*
X143343333Y-48990190D01*
X143343333Y-48799714D01*
X143390952Y-48723523D01*
X143438571Y-48685428D01*
X143533809Y-48647333D01*
X143771904Y-48647333D01*
X143867142Y-48685428D01*
X143914761Y-48723523D01*
X143962380Y-48799714D01*
X143962380Y-48990190D01*
X143914761Y-49066380D01*
X143867142Y-49104476D01*
X142962380Y-48152095D02*
X142962380Y-48075904D01*
X143010000Y-47999714D01*
X143057619Y-47961619D01*
X143152857Y-47923523D01*
X143343333Y-47885428D01*
X143581428Y-47885428D01*
X143771904Y-47923523D01*
X143867142Y-47961619D01*
X143914761Y-47999714D01*
X143962380Y-48075904D01*
X143962380Y-48152095D01*
X143914761Y-48228285D01*
X143867142Y-48266380D01*
X143771904Y-48304476D01*
X143581428Y-48342571D01*
X143343333Y-48342571D01*
X143152857Y-48304476D01*
X143057619Y-48266380D01*
X143010000Y-48228285D01*
X142962380Y-48152095D01*
X142962380Y-47199714D02*
X142962380Y-47352095D01*
X143010000Y-47428285D01*
X143057619Y-47466380D01*
X143200476Y-47542571D01*
X143390952Y-47580666D01*
X143771904Y-47580666D01*
X143867142Y-47542571D01*
X143914761Y-47504476D01*
X143962380Y-47428285D01*
X143962380Y-47275904D01*
X143914761Y-47199714D01*
X143867142Y-47161619D01*
X143771904Y-47123523D01*
X143533809Y-47123523D01*
X143438571Y-47161619D01*
X143390952Y-47199714D01*
X143343333Y-47275904D01*
X143343333Y-47428285D01*
X143390952Y-47504476D01*
X143438571Y-47542571D01*
X143533809Y-47580666D01*
X79192380Y-49866380D02*
X78192380Y-49866380D01*
X78192380Y-49675904D01*
X78240000Y-49561619D01*
X78335238Y-49485428D01*
X78430476Y-49447333D01*
X78620952Y-49409238D01*
X78763809Y-49409238D01*
X78954285Y-49447333D01*
X79049523Y-49485428D01*
X79144761Y-49561619D01*
X79192380Y-49675904D01*
X79192380Y-49866380D01*
X78192380Y-48685428D02*
X78192380Y-49066380D01*
X78668571Y-49104476D01*
X78620952Y-49066380D01*
X78573333Y-48990190D01*
X78573333Y-48799714D01*
X78620952Y-48723523D01*
X78668571Y-48685428D01*
X78763809Y-48647333D01*
X79001904Y-48647333D01*
X79097142Y-48685428D01*
X79144761Y-48723523D01*
X79192380Y-48799714D01*
X79192380Y-48990190D01*
X79144761Y-49066380D01*
X79097142Y-49104476D01*
X78192380Y-48152095D02*
X78192380Y-48075904D01*
X78240000Y-47999714D01*
X78287619Y-47961619D01*
X78382857Y-47923523D01*
X78573333Y-47885428D01*
X78811428Y-47885428D01*
X79001904Y-47923523D01*
X79097142Y-47961619D01*
X79144761Y-47999714D01*
X79192380Y-48075904D01*
X79192380Y-48152095D01*
X79144761Y-48228285D01*
X79097142Y-48266380D01*
X79001904Y-48304476D01*
X78811428Y-48342571D01*
X78573333Y-48342571D01*
X78382857Y-48304476D01*
X78287619Y-48266380D01*
X78240000Y-48228285D01*
X78192380Y-48152095D01*
X78192380Y-47618761D02*
X78192380Y-47085428D01*
X79192380Y-47428285D01*
X75382380Y-49866380D02*
X74382380Y-49866380D01*
X74382380Y-49675904D01*
X74430000Y-49561619D01*
X74525238Y-49485428D01*
X74620476Y-49447333D01*
X74810952Y-49409238D01*
X74953809Y-49409238D01*
X75144285Y-49447333D01*
X75239523Y-49485428D01*
X75334761Y-49561619D01*
X75382380Y-49675904D01*
X75382380Y-49866380D01*
X74382380Y-48685428D02*
X74382380Y-49066380D01*
X74858571Y-49104476D01*
X74810952Y-49066380D01*
X74763333Y-48990190D01*
X74763333Y-48799714D01*
X74810952Y-48723523D01*
X74858571Y-48685428D01*
X74953809Y-48647333D01*
X75191904Y-48647333D01*
X75287142Y-48685428D01*
X75334761Y-48723523D01*
X75382380Y-48799714D01*
X75382380Y-48990190D01*
X75334761Y-49066380D01*
X75287142Y-49104476D01*
X74382380Y-48152095D02*
X74382380Y-48075904D01*
X74430000Y-47999714D01*
X74477619Y-47961619D01*
X74572857Y-47923523D01*
X74763333Y-47885428D01*
X75001428Y-47885428D01*
X75191904Y-47923523D01*
X75287142Y-47961619D01*
X75334761Y-47999714D01*
X75382380Y-48075904D01*
X75382380Y-48152095D01*
X75334761Y-48228285D01*
X75287142Y-48266380D01*
X75191904Y-48304476D01*
X75001428Y-48342571D01*
X74763333Y-48342571D01*
X74572857Y-48304476D01*
X74477619Y-48266380D01*
X74430000Y-48228285D01*
X74382380Y-48152095D01*
X74810952Y-47428285D02*
X74763333Y-47504476D01*
X74715714Y-47542571D01*
X74620476Y-47580666D01*
X74572857Y-47580666D01*
X74477619Y-47542571D01*
X74430000Y-47504476D01*
X74382380Y-47428285D01*
X74382380Y-47275904D01*
X74430000Y-47199714D01*
X74477619Y-47161619D01*
X74572857Y-47123523D01*
X74620476Y-47123523D01*
X74715714Y-47161619D01*
X74763333Y-47199714D01*
X74810952Y-47275904D01*
X74810952Y-47428285D01*
X74858571Y-47504476D01*
X74906190Y-47542571D01*
X75001428Y-47580666D01*
X75191904Y-47580666D01*
X75287142Y-47542571D01*
X75334761Y-47504476D01*
X75382380Y-47428285D01*
X75382380Y-47275904D01*
X75334761Y-47199714D01*
X75287142Y-47161619D01*
X75191904Y-47123523D01*
X75001428Y-47123523D01*
X74906190Y-47161619D01*
X74858571Y-47199714D01*
X74810952Y-47275904D01*
X79192380Y-60026380D02*
X78192380Y-60026380D01*
X78192380Y-59835904D01*
X78240000Y-59721619D01*
X78335238Y-59645428D01*
X78430476Y-59607333D01*
X78620952Y-59569238D01*
X78763809Y-59569238D01*
X78954285Y-59607333D01*
X79049523Y-59645428D01*
X79144761Y-59721619D01*
X79192380Y-59835904D01*
X79192380Y-60026380D01*
X78192380Y-58845428D02*
X78192380Y-59226380D01*
X78668571Y-59264476D01*
X78620952Y-59226380D01*
X78573333Y-59150190D01*
X78573333Y-58959714D01*
X78620952Y-58883523D01*
X78668571Y-58845428D01*
X78763809Y-58807333D01*
X79001904Y-58807333D01*
X79097142Y-58845428D01*
X79144761Y-58883523D01*
X79192380Y-58959714D01*
X79192380Y-59150190D01*
X79144761Y-59226380D01*
X79097142Y-59264476D01*
X78192380Y-58312095D02*
X78192380Y-58235904D01*
X78240000Y-58159714D01*
X78287619Y-58121619D01*
X78382857Y-58083523D01*
X78573333Y-58045428D01*
X78811428Y-58045428D01*
X79001904Y-58083523D01*
X79097142Y-58121619D01*
X79144761Y-58159714D01*
X79192380Y-58235904D01*
X79192380Y-58312095D01*
X79144761Y-58388285D01*
X79097142Y-58426380D01*
X79001904Y-58464476D01*
X78811428Y-58502571D01*
X78573333Y-58502571D01*
X78382857Y-58464476D01*
X78287619Y-58426380D01*
X78240000Y-58388285D01*
X78192380Y-58312095D01*
X79192380Y-57664476D02*
X79192380Y-57512095D01*
X79144761Y-57435904D01*
X79097142Y-57397809D01*
X78954285Y-57321619D01*
X78763809Y-57283523D01*
X78382857Y-57283523D01*
X78287619Y-57321619D01*
X78240000Y-57359714D01*
X78192380Y-57435904D01*
X78192380Y-57588285D01*
X78240000Y-57664476D01*
X78287619Y-57702571D01*
X78382857Y-57740666D01*
X78620952Y-57740666D01*
X78716190Y-57702571D01*
X78763809Y-57664476D01*
X78811428Y-57588285D01*
X78811428Y-57435904D01*
X78763809Y-57359714D01*
X78716190Y-57321619D01*
X78620952Y-57283523D01*
X75382380Y-60026380D02*
X74382380Y-60026380D01*
X74382380Y-59835904D01*
X74430000Y-59721619D01*
X74525238Y-59645428D01*
X74620476Y-59607333D01*
X74810952Y-59569238D01*
X74953809Y-59569238D01*
X75144285Y-59607333D01*
X75239523Y-59645428D01*
X75334761Y-59721619D01*
X75382380Y-59835904D01*
X75382380Y-60026380D01*
X74382380Y-58845428D02*
X74382380Y-59226380D01*
X74858571Y-59264476D01*
X74810952Y-59226380D01*
X74763333Y-59150190D01*
X74763333Y-58959714D01*
X74810952Y-58883523D01*
X74858571Y-58845428D01*
X74953809Y-58807333D01*
X75191904Y-58807333D01*
X75287142Y-58845428D01*
X75334761Y-58883523D01*
X75382380Y-58959714D01*
X75382380Y-59150190D01*
X75334761Y-59226380D01*
X75287142Y-59264476D01*
X75382380Y-58045428D02*
X75382380Y-58502571D01*
X75382380Y-58274000D02*
X74382380Y-58274000D01*
X74525238Y-58350190D01*
X74620476Y-58426380D01*
X74668095Y-58502571D01*
X74382380Y-57550190D02*
X74382380Y-57474000D01*
X74430000Y-57397809D01*
X74477619Y-57359714D01*
X74572857Y-57321619D01*
X74763333Y-57283523D01*
X75001428Y-57283523D01*
X75191904Y-57321619D01*
X75287142Y-57359714D01*
X75334761Y-57397809D01*
X75382380Y-57474000D01*
X75382380Y-57550190D01*
X75334761Y-57626380D01*
X75287142Y-57664476D01*
X75191904Y-57702571D01*
X75001428Y-57740666D01*
X74763333Y-57740666D01*
X74572857Y-57702571D01*
X74477619Y-57664476D01*
X74430000Y-57626380D01*
X74382380Y-57550190D01*
X79192380Y-70186380D02*
X78192380Y-70186380D01*
X78192380Y-69995904D01*
X78240000Y-69881619D01*
X78335238Y-69805428D01*
X78430476Y-69767333D01*
X78620952Y-69729238D01*
X78763809Y-69729238D01*
X78954285Y-69767333D01*
X79049523Y-69805428D01*
X79144761Y-69881619D01*
X79192380Y-69995904D01*
X79192380Y-70186380D01*
X78192380Y-69005428D02*
X78192380Y-69386380D01*
X78668571Y-69424476D01*
X78620952Y-69386380D01*
X78573333Y-69310190D01*
X78573333Y-69119714D01*
X78620952Y-69043523D01*
X78668571Y-69005428D01*
X78763809Y-68967333D01*
X79001904Y-68967333D01*
X79097142Y-69005428D01*
X79144761Y-69043523D01*
X79192380Y-69119714D01*
X79192380Y-69310190D01*
X79144761Y-69386380D01*
X79097142Y-69424476D01*
X79192380Y-68205428D02*
X79192380Y-68662571D01*
X79192380Y-68434000D02*
X78192380Y-68434000D01*
X78335238Y-68510190D01*
X78430476Y-68586380D01*
X78478095Y-68662571D01*
X79192380Y-67443523D02*
X79192380Y-67900666D01*
X79192380Y-67672095D02*
X78192380Y-67672095D01*
X78335238Y-67748285D01*
X78430476Y-67824476D01*
X78478095Y-67900666D01*
X75382380Y-70186380D02*
X74382380Y-70186380D01*
X74382380Y-69995904D01*
X74430000Y-69881619D01*
X74525238Y-69805428D01*
X74620476Y-69767333D01*
X74810952Y-69729238D01*
X74953809Y-69729238D01*
X75144285Y-69767333D01*
X75239523Y-69805428D01*
X75334761Y-69881619D01*
X75382380Y-69995904D01*
X75382380Y-70186380D01*
X74382380Y-69005428D02*
X74382380Y-69386380D01*
X74858571Y-69424476D01*
X74810952Y-69386380D01*
X74763333Y-69310190D01*
X74763333Y-69119714D01*
X74810952Y-69043523D01*
X74858571Y-69005428D01*
X74953809Y-68967333D01*
X75191904Y-68967333D01*
X75287142Y-69005428D01*
X75334761Y-69043523D01*
X75382380Y-69119714D01*
X75382380Y-69310190D01*
X75334761Y-69386380D01*
X75287142Y-69424476D01*
X75382380Y-68205428D02*
X75382380Y-68662571D01*
X75382380Y-68434000D02*
X74382380Y-68434000D01*
X74525238Y-68510190D01*
X74620476Y-68586380D01*
X74668095Y-68662571D01*
X74477619Y-67900666D02*
X74430000Y-67862571D01*
X74382380Y-67786380D01*
X74382380Y-67595904D01*
X74430000Y-67519714D01*
X74477619Y-67481619D01*
X74572857Y-67443523D01*
X74668095Y-67443523D01*
X74810952Y-67481619D01*
X75382380Y-67938761D01*
X75382380Y-67443523D01*
M02*
