%TF.GenerationSoftware,KiCad,Pcbnew,(5.0.0)*%
%TF.CreationDate,2018-10-23T17:27:05+02:00*%
%TF.ProjectId,S80 Serial,5338302053657269616C2E6B69636164,1.0*%
%TF.SameCoordinates,Original*%
%TF.FileFunction,Legend,Top*%
%TF.FilePolarity,Positive*%
%FSLAX46Y46*%
G04 Gerber Fmt 4.6, Leading zero omitted, Abs format (unit mm)*
G04 Created by KiCad (PCBNEW (5.0.0)) date 10/23/18 17:27:05*
%MOMM*%
%LPD*%
G01*
G04 APERTURE LIST*
%ADD10C,0.150000*%
%ADD11C,0.100000*%
%ADD12C,0.250000*%
%ADD13C,0.120000*%
G04 APERTURE END LIST*
D10*
X140788571Y-80617142D02*
X141002857Y-80688571D01*
X141360000Y-80688571D01*
X141502857Y-80617142D01*
X141574285Y-80545714D01*
X141645714Y-80402857D01*
X141645714Y-80260000D01*
X141574285Y-80117142D01*
X141502857Y-80045714D01*
X141360000Y-79974285D01*
X141074285Y-79902857D01*
X140931428Y-79831428D01*
X140860000Y-79760000D01*
X140788571Y-79617142D01*
X140788571Y-79474285D01*
X140860000Y-79331428D01*
X140931428Y-79260000D01*
X141074285Y-79188571D01*
X141431428Y-79188571D01*
X141645714Y-79260000D01*
X142860000Y-80617142D02*
X142717142Y-80688571D01*
X142431428Y-80688571D01*
X142288571Y-80617142D01*
X142217142Y-80474285D01*
X142217142Y-79902857D01*
X142288571Y-79760000D01*
X142431428Y-79688571D01*
X142717142Y-79688571D01*
X142860000Y-79760000D01*
X142931428Y-79902857D01*
X142931428Y-80045714D01*
X142217142Y-80188571D01*
X143574285Y-80688571D02*
X143574285Y-79688571D01*
X143574285Y-79974285D02*
X143645714Y-79831428D01*
X143717142Y-79760000D01*
X143860000Y-79688571D01*
X144002857Y-79688571D01*
X144502857Y-80688571D02*
X144502857Y-79688571D01*
X144502857Y-79188571D02*
X144431428Y-79260000D01*
X144502857Y-79331428D01*
X144574285Y-79260000D01*
X144502857Y-79188571D01*
X144502857Y-79331428D01*
X145860000Y-80688571D02*
X145860000Y-79902857D01*
X145788571Y-79760000D01*
X145645714Y-79688571D01*
X145360000Y-79688571D01*
X145217142Y-79760000D01*
X145860000Y-80617142D02*
X145717142Y-80688571D01*
X145360000Y-80688571D01*
X145217142Y-80617142D01*
X145145714Y-80474285D01*
X145145714Y-80331428D01*
X145217142Y-80188571D01*
X145360000Y-80117142D01*
X145717142Y-80117142D01*
X145860000Y-80045714D01*
X146788571Y-80688571D02*
X146645714Y-80617142D01*
X146574285Y-80474285D01*
X146574285Y-79188571D01*
X148502857Y-80688571D02*
X148502857Y-79188571D01*
X148502857Y-79760000D02*
X148645714Y-79688571D01*
X148931428Y-79688571D01*
X149074285Y-79760000D01*
X149145714Y-79831428D01*
X149217142Y-79974285D01*
X149217142Y-80402857D01*
X149145714Y-80545714D01*
X149074285Y-80617142D01*
X148931428Y-80688571D01*
X148645714Y-80688571D01*
X148502857Y-80617142D01*
X150074285Y-80688571D02*
X149931428Y-80617142D01*
X149860000Y-80545714D01*
X149788571Y-80402857D01*
X149788571Y-79974285D01*
X149860000Y-79831428D01*
X149931428Y-79760000D01*
X150074285Y-79688571D01*
X150288571Y-79688571D01*
X150431428Y-79760000D01*
X150502857Y-79831428D01*
X150574285Y-79974285D01*
X150574285Y-80402857D01*
X150502857Y-80545714D01*
X150431428Y-80617142D01*
X150288571Y-80688571D01*
X150074285Y-80688571D01*
X151860000Y-80688571D02*
X151860000Y-79902857D01*
X151788571Y-79760000D01*
X151645714Y-79688571D01*
X151360000Y-79688571D01*
X151217142Y-79760000D01*
X151860000Y-80617142D02*
X151717142Y-80688571D01*
X151360000Y-80688571D01*
X151217142Y-80617142D01*
X151145714Y-80474285D01*
X151145714Y-80331428D01*
X151217142Y-80188571D01*
X151360000Y-80117142D01*
X151717142Y-80117142D01*
X151860000Y-80045714D01*
X152574285Y-80688571D02*
X152574285Y-79688571D01*
X152574285Y-79974285D02*
X152645714Y-79831428D01*
X152717142Y-79760000D01*
X152860000Y-79688571D01*
X153002857Y-79688571D01*
X154145714Y-80688571D02*
X154145714Y-79188571D01*
X154145714Y-80617142D02*
X154002857Y-80688571D01*
X153717142Y-80688571D01*
X153574285Y-80617142D01*
X153502857Y-80545714D01*
X153431428Y-80402857D01*
X153431428Y-79974285D01*
X153502857Y-79831428D01*
X153574285Y-79760000D01*
X153717142Y-79688571D01*
X154002857Y-79688571D01*
X154145714Y-79760000D01*
X156788571Y-80688571D02*
X155931428Y-80688571D01*
X156360000Y-80688571D02*
X156360000Y-79188571D01*
X156217142Y-79402857D01*
X156074285Y-79545714D01*
X155931428Y-79617142D01*
X157431428Y-80545714D02*
X157502857Y-80617142D01*
X157431428Y-80688571D01*
X157360000Y-80617142D01*
X157431428Y-80545714D01*
X157431428Y-80688571D01*
X158431428Y-79188571D02*
X158574285Y-79188571D01*
X158717142Y-79260000D01*
X158788571Y-79331428D01*
X158860000Y-79474285D01*
X158931428Y-79760000D01*
X158931428Y-80117142D01*
X158860000Y-80402857D01*
X158788571Y-80545714D01*
X158717142Y-80617142D01*
X158574285Y-80688571D01*
X158431428Y-80688571D01*
X158288571Y-80617142D01*
X158217142Y-80545714D01*
X158145714Y-80402857D01*
X158074285Y-80117142D01*
X158074285Y-79760000D01*
X158145714Y-79474285D01*
X158217142Y-79331428D01*
X158288571Y-79260000D01*
X158431428Y-79188571D01*
X103732380Y-102182380D02*
X103732380Y-101182380D01*
X104922857Y-101134761D02*
X104065714Y-102420476D01*
X105446666Y-101182380D02*
X105637142Y-101182380D01*
X105732380Y-101230000D01*
X105827619Y-101325238D01*
X105875238Y-101515714D01*
X105875238Y-101849047D01*
X105827619Y-102039523D01*
X105732380Y-102134761D01*
X105637142Y-102182380D01*
X105446666Y-102182380D01*
X105351428Y-102134761D01*
X105256190Y-102039523D01*
X105208571Y-101849047D01*
X105208571Y-101515714D01*
X105256190Y-101325238D01*
X105351428Y-101230000D01*
X105446666Y-101182380D01*
X103280000Y-103832380D02*
X103280000Y-102832380D01*
X103280000Y-103213333D02*
X103375238Y-103165714D01*
X103565714Y-103165714D01*
X103660952Y-103213333D01*
X103708571Y-103260952D01*
X103756190Y-103356190D01*
X103756190Y-103641904D01*
X103708571Y-103737142D01*
X103660952Y-103784761D01*
X103565714Y-103832380D01*
X103375238Y-103832380D01*
X103280000Y-103784761D01*
X104613333Y-103832380D02*
X104613333Y-103308571D01*
X104565714Y-103213333D01*
X104470476Y-103165714D01*
X104280000Y-103165714D01*
X104184761Y-103213333D01*
X104613333Y-103784761D02*
X104518095Y-103832380D01*
X104280000Y-103832380D01*
X104184761Y-103784761D01*
X104137142Y-103689523D01*
X104137142Y-103594285D01*
X104184761Y-103499047D01*
X104280000Y-103451428D01*
X104518095Y-103451428D01*
X104613333Y-103403809D01*
X105041904Y-103784761D02*
X105137142Y-103832380D01*
X105327619Y-103832380D01*
X105422857Y-103784761D01*
X105470476Y-103689523D01*
X105470476Y-103641904D01*
X105422857Y-103546666D01*
X105327619Y-103499047D01*
X105184761Y-103499047D01*
X105089523Y-103451428D01*
X105041904Y-103356190D01*
X105041904Y-103308571D01*
X105089523Y-103213333D01*
X105184761Y-103165714D01*
X105327619Y-103165714D01*
X105422857Y-103213333D01*
X106280000Y-103784761D02*
X106184761Y-103832380D01*
X105994285Y-103832380D01*
X105899047Y-103784761D01*
X105851428Y-103689523D01*
X105851428Y-103308571D01*
X105899047Y-103213333D01*
X105994285Y-103165714D01*
X106184761Y-103165714D01*
X106280000Y-103213333D01*
X106327619Y-103308571D01*
X106327619Y-103403809D01*
X105851428Y-103499047D01*
X102541904Y-105482380D02*
X102541904Y-104958571D01*
X102494285Y-104863333D01*
X102399047Y-104815714D01*
X102208571Y-104815714D01*
X102113333Y-104863333D01*
X102541904Y-105434761D02*
X102446666Y-105482380D01*
X102208571Y-105482380D01*
X102113333Y-105434761D01*
X102065714Y-105339523D01*
X102065714Y-105244285D01*
X102113333Y-105149047D01*
X102208571Y-105101428D01*
X102446666Y-105101428D01*
X102541904Y-105053809D01*
X103446666Y-105482380D02*
X103446666Y-104482380D01*
X103446666Y-105434761D02*
X103351428Y-105482380D01*
X103160952Y-105482380D01*
X103065714Y-105434761D01*
X103018095Y-105387142D01*
X102970476Y-105291904D01*
X102970476Y-105006190D01*
X103018095Y-104910952D01*
X103065714Y-104863333D01*
X103160952Y-104815714D01*
X103351428Y-104815714D01*
X103446666Y-104863333D01*
X104351428Y-105482380D02*
X104351428Y-104482380D01*
X104351428Y-105434761D02*
X104256190Y-105482380D01*
X104065714Y-105482380D01*
X103970476Y-105434761D01*
X103922857Y-105387142D01*
X103875238Y-105291904D01*
X103875238Y-105006190D01*
X103922857Y-104910952D01*
X103970476Y-104863333D01*
X104065714Y-104815714D01*
X104256190Y-104815714D01*
X104351428Y-104863333D01*
X104827619Y-105482380D02*
X104827619Y-104815714D01*
X104827619Y-105006190D02*
X104875238Y-104910952D01*
X104922857Y-104863333D01*
X105018095Y-104815714D01*
X105113333Y-104815714D01*
X105827619Y-105434761D02*
X105732380Y-105482380D01*
X105541904Y-105482380D01*
X105446666Y-105434761D01*
X105399047Y-105339523D01*
X105399047Y-104958571D01*
X105446666Y-104863333D01*
X105541904Y-104815714D01*
X105732380Y-104815714D01*
X105827619Y-104863333D01*
X105875238Y-104958571D01*
X105875238Y-105053809D01*
X105399047Y-105149047D01*
X106256190Y-105434761D02*
X106351428Y-105482380D01*
X106541904Y-105482380D01*
X106637142Y-105434761D01*
X106684761Y-105339523D01*
X106684761Y-105291904D01*
X106637142Y-105196666D01*
X106541904Y-105149047D01*
X106399047Y-105149047D01*
X106303809Y-105101428D01*
X106256190Y-105006190D01*
X106256190Y-104958571D01*
X106303809Y-104863333D01*
X106399047Y-104815714D01*
X106541904Y-104815714D01*
X106637142Y-104863333D01*
X107065714Y-105434761D02*
X107160952Y-105482380D01*
X107351428Y-105482380D01*
X107446666Y-105434761D01*
X107494285Y-105339523D01*
X107494285Y-105291904D01*
X107446666Y-105196666D01*
X107351428Y-105149047D01*
X107208571Y-105149047D01*
X107113333Y-105101428D01*
X107065714Y-105006190D01*
X107065714Y-104958571D01*
X107113333Y-104863333D01*
X107208571Y-104815714D01*
X107351428Y-104815714D01*
X107446666Y-104863333D01*
D11*
X100073333Y-117960952D02*
X100006666Y-117913333D01*
X99973333Y-117865714D01*
X99940000Y-117770476D01*
X99940000Y-117722857D01*
X99973333Y-117627619D01*
X100006666Y-117580000D01*
X100073333Y-117532380D01*
X100206666Y-117532380D01*
X100273333Y-117580000D01*
X100306666Y-117627619D01*
X100340000Y-117722857D01*
X100340000Y-117770476D01*
X100306666Y-117865714D01*
X100273333Y-117913333D01*
X100206666Y-117960952D01*
X100073333Y-117960952D01*
X100006666Y-118008571D01*
X99973333Y-118056190D01*
X99940000Y-118151428D01*
X99940000Y-118341904D01*
X99973333Y-118437142D01*
X100006666Y-118484761D01*
X100073333Y-118532380D01*
X100206666Y-118532380D01*
X100273333Y-118484761D01*
X100306666Y-118437142D01*
X100340000Y-118341904D01*
X100340000Y-118151428D01*
X100306666Y-118056190D01*
X100273333Y-118008571D01*
X100206666Y-117960952D01*
X100773333Y-117532380D02*
X100840000Y-117532380D01*
X100906666Y-117580000D01*
X100940000Y-117627619D01*
X100973333Y-117722857D01*
X101006666Y-117913333D01*
X101006666Y-118151428D01*
X100973333Y-118341904D01*
X100940000Y-118437142D01*
X100906666Y-118484761D01*
X100840000Y-118532380D01*
X100773333Y-118532380D01*
X100706666Y-118484761D01*
X100673333Y-118437142D01*
X100640000Y-118341904D01*
X100606666Y-118151428D01*
X100606666Y-117913333D01*
X100640000Y-117722857D01*
X100673333Y-117627619D01*
X100706666Y-117580000D01*
X100773333Y-117532380D01*
X101306666Y-118532380D02*
X101306666Y-117532380D01*
X101606666Y-118532380D02*
X101606666Y-118008571D01*
X101573333Y-117913333D01*
X101506666Y-117865714D01*
X101406666Y-117865714D01*
X101340000Y-117913333D01*
X101306666Y-117960952D01*
X100273333Y-115325714D02*
X100273333Y-115992380D01*
X100106666Y-114944761D02*
X99940000Y-115659047D01*
X100373333Y-115659047D01*
X100773333Y-114992380D02*
X100840000Y-114992380D01*
X100906666Y-115040000D01*
X100940000Y-115087619D01*
X100973333Y-115182857D01*
X101006666Y-115373333D01*
X101006666Y-115611428D01*
X100973333Y-115801904D01*
X100940000Y-115897142D01*
X100906666Y-115944761D01*
X100840000Y-115992380D01*
X100773333Y-115992380D01*
X100706666Y-115944761D01*
X100673333Y-115897142D01*
X100640000Y-115801904D01*
X100606666Y-115611428D01*
X100606666Y-115373333D01*
X100640000Y-115182857D01*
X100673333Y-115087619D01*
X100706666Y-115040000D01*
X100773333Y-114992380D01*
X101306666Y-115992380D02*
X101306666Y-114992380D01*
X101606666Y-115992380D02*
X101606666Y-115468571D01*
X101573333Y-115373333D01*
X101506666Y-115325714D01*
X101406666Y-115325714D01*
X101340000Y-115373333D01*
X101306666Y-115420952D01*
X99940000Y-112547619D02*
X99973333Y-112500000D01*
X100040000Y-112452380D01*
X100206666Y-112452380D01*
X100273333Y-112500000D01*
X100306666Y-112547619D01*
X100340000Y-112642857D01*
X100340000Y-112738095D01*
X100306666Y-112880952D01*
X99906666Y-113452380D01*
X100340000Y-113452380D01*
X100773333Y-112452380D02*
X100840000Y-112452380D01*
X100906666Y-112500000D01*
X100940000Y-112547619D01*
X100973333Y-112642857D01*
X101006666Y-112833333D01*
X101006666Y-113071428D01*
X100973333Y-113261904D01*
X100940000Y-113357142D01*
X100906666Y-113404761D01*
X100840000Y-113452380D01*
X100773333Y-113452380D01*
X100706666Y-113404761D01*
X100673333Y-113357142D01*
X100640000Y-113261904D01*
X100606666Y-113071428D01*
X100606666Y-112833333D01*
X100640000Y-112642857D01*
X100673333Y-112547619D01*
X100706666Y-112500000D01*
X100773333Y-112452380D01*
X101306666Y-113452380D02*
X101306666Y-112452380D01*
X101606666Y-113452380D02*
X101606666Y-112928571D01*
X101573333Y-112833333D01*
X101506666Y-112785714D01*
X101406666Y-112785714D01*
X101340000Y-112833333D01*
X101306666Y-112880952D01*
X100340000Y-110912380D02*
X99940000Y-110912380D01*
X100140000Y-110912380D02*
X100140000Y-109912380D01*
X100073333Y-110055238D01*
X100006666Y-110150476D01*
X99940000Y-110198095D01*
X100773333Y-109912380D02*
X100840000Y-109912380D01*
X100906666Y-109960000D01*
X100940000Y-110007619D01*
X100973333Y-110102857D01*
X101006666Y-110293333D01*
X101006666Y-110531428D01*
X100973333Y-110721904D01*
X100940000Y-110817142D01*
X100906666Y-110864761D01*
X100840000Y-110912380D01*
X100773333Y-110912380D01*
X100706666Y-110864761D01*
X100673333Y-110817142D01*
X100640000Y-110721904D01*
X100606666Y-110531428D01*
X100606666Y-110293333D01*
X100640000Y-110102857D01*
X100673333Y-110007619D01*
X100706666Y-109960000D01*
X100773333Y-109912380D01*
X101306666Y-110912380D02*
X101306666Y-109912380D01*
X101606666Y-110912380D02*
X101606666Y-110388571D01*
X101573333Y-110293333D01*
X101506666Y-110245714D01*
X101406666Y-110245714D01*
X101340000Y-110293333D01*
X101306666Y-110340952D01*
X100106666Y-107372380D02*
X100173333Y-107372380D01*
X100240000Y-107420000D01*
X100273333Y-107467619D01*
X100306666Y-107562857D01*
X100340000Y-107753333D01*
X100340000Y-107991428D01*
X100306666Y-108181904D01*
X100273333Y-108277142D01*
X100240000Y-108324761D01*
X100173333Y-108372380D01*
X100106666Y-108372380D01*
X100040000Y-108324761D01*
X100006666Y-108277142D01*
X99973333Y-108181904D01*
X99940000Y-107991428D01*
X99940000Y-107753333D01*
X99973333Y-107562857D01*
X100006666Y-107467619D01*
X100040000Y-107420000D01*
X100106666Y-107372380D01*
X100740000Y-107800952D02*
X100673333Y-107753333D01*
X100640000Y-107705714D01*
X100606666Y-107610476D01*
X100606666Y-107562857D01*
X100640000Y-107467619D01*
X100673333Y-107420000D01*
X100740000Y-107372380D01*
X100873333Y-107372380D01*
X100940000Y-107420000D01*
X100973333Y-107467619D01*
X101006666Y-107562857D01*
X101006666Y-107610476D01*
X100973333Y-107705714D01*
X100940000Y-107753333D01*
X100873333Y-107800952D01*
X100740000Y-107800952D01*
X100673333Y-107848571D01*
X100640000Y-107896190D01*
X100606666Y-107991428D01*
X100606666Y-108181904D01*
X100640000Y-108277142D01*
X100673333Y-108324761D01*
X100740000Y-108372380D01*
X100873333Y-108372380D01*
X100940000Y-108324761D01*
X100973333Y-108277142D01*
X101006666Y-108181904D01*
X101006666Y-107991428D01*
X100973333Y-107896190D01*
X100940000Y-107848571D01*
X100873333Y-107800952D01*
X101306666Y-108372380D02*
X101306666Y-107372380D01*
X101606666Y-108372380D02*
X101606666Y-107848571D01*
X101573333Y-107753333D01*
X101506666Y-107705714D01*
X101406666Y-107705714D01*
X101340000Y-107753333D01*
X101306666Y-107800952D01*
X130627523Y-132040380D02*
X131198952Y-132040380D01*
X130913238Y-133040380D02*
X130913238Y-132040380D01*
X131437047Y-133040380D02*
X131960857Y-132373714D01*
X131437047Y-132373714D02*
X131960857Y-133040380D01*
X128682761Y-133040380D02*
X128349428Y-132564190D01*
X128111333Y-133040380D02*
X128111333Y-132040380D01*
X128492285Y-132040380D01*
X128587523Y-132088000D01*
X128635142Y-132135619D01*
X128682761Y-132230857D01*
X128682761Y-132373714D01*
X128635142Y-132468952D01*
X128587523Y-132516571D01*
X128492285Y-132564190D01*
X128111333Y-132564190D01*
X129016095Y-133040380D02*
X129539904Y-132373714D01*
X129016095Y-132373714D02*
X129539904Y-133040380D01*
D10*
X135503329Y-138782834D02*
X135450948Y-138854262D01*
X135293805Y-138925691D01*
X135189043Y-138925691D01*
X135031900Y-138854262D01*
X134927139Y-138711405D01*
X134874758Y-138568548D01*
X134822377Y-138282834D01*
X134822377Y-138068548D01*
X134874758Y-137782834D01*
X134927139Y-137639977D01*
X135031900Y-137497120D01*
X135189043Y-137425691D01*
X135293805Y-137425691D01*
X135450948Y-137497120D01*
X135503329Y-137568548D01*
X136131900Y-138925691D02*
X136027139Y-138854262D01*
X135974758Y-138782834D01*
X135922377Y-138639977D01*
X135922377Y-138211405D01*
X135974758Y-138068548D01*
X136027139Y-137997120D01*
X136131900Y-137925691D01*
X136289043Y-137925691D01*
X136393805Y-137997120D01*
X136446186Y-138068548D01*
X136498567Y-138211405D01*
X136498567Y-138639977D01*
X136446186Y-138782834D01*
X136393805Y-138854262D01*
X136289043Y-138925691D01*
X136131900Y-138925691D01*
X136969996Y-137925691D02*
X136969996Y-139425691D01*
X136969996Y-137997120D02*
X137074758Y-137925691D01*
X137284281Y-137925691D01*
X137389043Y-137997120D01*
X137441424Y-138068548D01*
X137493805Y-138211405D01*
X137493805Y-138639977D01*
X137441424Y-138782834D01*
X137389043Y-138854262D01*
X137284281Y-138925691D01*
X137074758Y-138925691D01*
X136969996Y-138854262D01*
X137860472Y-137925691D02*
X138122377Y-138925691D01*
X138384281Y-137925691D02*
X138122377Y-138925691D01*
X138017615Y-139282834D01*
X137965234Y-139354262D01*
X137860472Y-139425691D01*
X138803329Y-138925691D02*
X138803329Y-137925691D01*
X138803329Y-138211405D02*
X138855710Y-138068548D01*
X138908091Y-137997120D01*
X139012853Y-137925691D01*
X139117615Y-137925691D01*
X139484281Y-138925691D02*
X139484281Y-137925691D01*
X139484281Y-137425691D02*
X139431900Y-137497120D01*
X139484281Y-137568548D01*
X139536662Y-137497120D01*
X139484281Y-137425691D01*
X139484281Y-137568548D01*
X140479520Y-137925691D02*
X140479520Y-139139977D01*
X140427139Y-139282834D01*
X140374758Y-139354262D01*
X140269996Y-139425691D01*
X140112853Y-139425691D01*
X140008091Y-139354262D01*
X140479520Y-138854262D02*
X140374758Y-138925691D01*
X140165234Y-138925691D01*
X140060472Y-138854262D01*
X140008091Y-138782834D01*
X139955710Y-138639977D01*
X139955710Y-138211405D01*
X140008091Y-138068548D01*
X140060472Y-137997120D01*
X140165234Y-137925691D01*
X140374758Y-137925691D01*
X140479520Y-137997120D01*
X141003329Y-138925691D02*
X141003329Y-137425691D01*
X141474758Y-138925691D02*
X141474758Y-138139977D01*
X141422377Y-137997120D01*
X141317615Y-137925691D01*
X141160472Y-137925691D01*
X141055710Y-137997120D01*
X141003329Y-138068548D01*
X141841424Y-137925691D02*
X142260472Y-137925691D01*
X141998567Y-137425691D02*
X141998567Y-138711405D01*
X142050948Y-138854262D01*
X142155710Y-138925691D01*
X142260472Y-138925691D01*
X144355710Y-137782834D02*
X144250948Y-137711405D01*
X144041424Y-137711405D01*
X143936662Y-137782834D01*
X143831900Y-137925691D01*
X143779520Y-138068548D01*
X143779520Y-138354262D01*
X143831900Y-138497120D01*
X143936662Y-138639977D01*
X144041424Y-138711405D01*
X144250948Y-138711405D01*
X144355710Y-138639977D01*
X144146186Y-137211405D02*
X143884281Y-137282834D01*
X143622377Y-137497120D01*
X143465234Y-137854262D01*
X143412853Y-138211405D01*
X143465234Y-138568548D01*
X143622377Y-138925691D01*
X143884281Y-139139977D01*
X144146186Y-139211405D01*
X144408091Y-139139977D01*
X144669996Y-138925691D01*
X144827139Y-138568548D01*
X144879520Y-138211405D01*
X144827139Y-137854262D01*
X144669996Y-137497120D01*
X144408091Y-137282834D01*
X144146186Y-137211405D01*
X146136662Y-137568548D02*
X146189043Y-137497120D01*
X146293805Y-137425691D01*
X146555710Y-137425691D01*
X146660472Y-137497120D01*
X146712853Y-137568548D01*
X146765234Y-137711405D01*
X146765234Y-137854262D01*
X146712853Y-138068548D01*
X146084281Y-138925691D01*
X146765234Y-138925691D01*
X147446186Y-137425691D02*
X147550948Y-137425691D01*
X147655710Y-137497120D01*
X147708091Y-137568548D01*
X147760472Y-137711405D01*
X147812853Y-137997120D01*
X147812853Y-138354262D01*
X147760472Y-138639977D01*
X147708091Y-138782834D01*
X147655710Y-138854262D01*
X147550948Y-138925691D01*
X147446186Y-138925691D01*
X147341424Y-138854262D01*
X147289043Y-138782834D01*
X147236662Y-138639977D01*
X147184281Y-138354262D01*
X147184281Y-137997120D01*
X147236662Y-137711405D01*
X147289043Y-137568548D01*
X147341424Y-137497120D01*
X147446186Y-137425691D01*
X148860472Y-138925691D02*
X148231900Y-138925691D01*
X148546186Y-138925691D02*
X148546186Y-137425691D01*
X148441424Y-137639977D01*
X148336662Y-137782834D01*
X148231900Y-137854262D01*
X149489043Y-138068548D02*
X149384281Y-137997120D01*
X149331900Y-137925691D01*
X149279520Y-137782834D01*
X149279520Y-137711405D01*
X149331900Y-137568548D01*
X149384281Y-137497120D01*
X149489043Y-137425691D01*
X149698567Y-137425691D01*
X149803329Y-137497120D01*
X149855710Y-137568548D01*
X149908091Y-137711405D01*
X149908091Y-137782834D01*
X149855710Y-137925691D01*
X149803329Y-137997120D01*
X149698567Y-138068548D01*
X149489043Y-138068548D01*
X149384281Y-138139977D01*
X149331900Y-138211405D01*
X149279520Y-138354262D01*
X149279520Y-138639977D01*
X149331900Y-138782834D01*
X149384281Y-138854262D01*
X149489043Y-138925691D01*
X149698567Y-138925691D01*
X149803329Y-138854262D01*
X149855710Y-138782834D01*
X149908091Y-138639977D01*
X149908091Y-138354262D01*
X149855710Y-138211405D01*
X149803329Y-138139977D01*
X149698567Y-138068548D01*
X151217615Y-138925691D02*
X151217615Y-137425691D01*
X151217615Y-137997120D02*
X151322377Y-137925691D01*
X151531900Y-137925691D01*
X151636662Y-137997120D01*
X151689043Y-138068548D01*
X151741424Y-138211405D01*
X151741424Y-138639977D01*
X151689043Y-138782834D01*
X151636662Y-138854262D01*
X151531900Y-138925691D01*
X151322377Y-138925691D01*
X151217615Y-138854262D01*
X152108091Y-137925691D02*
X152369996Y-138925691D01*
X152631900Y-137925691D02*
X152369996Y-138925691D01*
X152265234Y-139282834D01*
X152212853Y-139354262D01*
X152108091Y-139425691D01*
X154517615Y-138925691D02*
X154150948Y-138211405D01*
X153889043Y-138925691D02*
X153889043Y-137425691D01*
X154308091Y-137425691D01*
X154412853Y-137497120D01*
X154465234Y-137568548D01*
X154517615Y-137711405D01*
X154517615Y-137925691D01*
X154465234Y-138068548D01*
X154412853Y-138139977D01*
X154308091Y-138211405D01*
X153889043Y-138211405D01*
X155879520Y-138925691D02*
X155827139Y-138925691D01*
X155722377Y-138854262D01*
X155565234Y-138639977D01*
X155303329Y-138211405D01*
X155198567Y-137997120D01*
X155146186Y-137782834D01*
X155146186Y-137639977D01*
X155198567Y-137497120D01*
X155303329Y-137425691D01*
X155355710Y-137425691D01*
X155460472Y-137497120D01*
X155512853Y-137639977D01*
X155512853Y-137711405D01*
X155460472Y-137854262D01*
X155408091Y-137925691D01*
X155093805Y-138211405D01*
X155041424Y-138282834D01*
X154989043Y-138425691D01*
X154989043Y-138639977D01*
X155041424Y-138782834D01*
X155093805Y-138854262D01*
X155198567Y-138925691D01*
X155355710Y-138925691D01*
X155460472Y-138854262D01*
X155512853Y-138782834D01*
X155669996Y-138497120D01*
X155722377Y-138282834D01*
X155722377Y-138139977D01*
X156717615Y-138139977D02*
X156350948Y-138139977D01*
X156350948Y-138925691D02*
X156350948Y-137425691D01*
X156874758Y-137425691D01*
X158131900Y-138925691D02*
X158131900Y-137425691D01*
X158550948Y-137425691D01*
X158655710Y-137497120D01*
X158708091Y-137568548D01*
X158760472Y-137711405D01*
X158760472Y-137925691D01*
X158708091Y-138068548D01*
X158655710Y-138139977D01*
X158550948Y-138211405D01*
X158131900Y-138211405D01*
X159127139Y-137925691D02*
X159389043Y-138925691D01*
X159650948Y-137925691D02*
X159389043Y-138925691D01*
X159284281Y-139282834D01*
X159231900Y-139354262D01*
X159127139Y-139425691D01*
X160069996Y-137925691D02*
X160069996Y-138925691D01*
X160069996Y-138068548D02*
X160122377Y-137997120D01*
X160227139Y-137925691D01*
X160384281Y-137925691D01*
X160489043Y-137997120D01*
X160541424Y-138139977D01*
X160541424Y-138925691D01*
X161536662Y-138854262D02*
X161431900Y-138925691D01*
X161222377Y-138925691D01*
X161117615Y-138854262D01*
X161065234Y-138782834D01*
X161012853Y-138639977D01*
X161012853Y-138211405D01*
X161065234Y-138068548D01*
X161117615Y-137997120D01*
X161222377Y-137925691D01*
X161431900Y-137925691D01*
X161536662Y-137997120D01*
X162008091Y-138925691D02*
X162008091Y-137425691D01*
X162112853Y-138354262D02*
X162427139Y-138925691D01*
X162427139Y-137925691D02*
X162008091Y-138497120D01*
X163317615Y-138854262D02*
X163212853Y-138925691D01*
X163003329Y-138925691D01*
X162898567Y-138854262D01*
X162846186Y-138711405D01*
X162846186Y-138139977D01*
X162898567Y-137997120D01*
X163003329Y-137925691D01*
X163212853Y-137925691D01*
X163317615Y-137997120D01*
X163369996Y-138139977D01*
X163369996Y-138282834D01*
X162846186Y-138425691D01*
X163998567Y-138925691D02*
X163893805Y-138854262D01*
X163841424Y-138711405D01*
X163841424Y-137425691D01*
X164365234Y-138854262D02*
X164469996Y-138925691D01*
X164679520Y-138925691D01*
X164784281Y-138854262D01*
X164836662Y-138711405D01*
X164836662Y-138639977D01*
X164784281Y-138497120D01*
X164679520Y-138425691D01*
X164522377Y-138425691D01*
X164417615Y-138354262D01*
X164365234Y-138211405D01*
X164365234Y-138139977D01*
X164417615Y-137997120D01*
X164522377Y-137925691D01*
X164679520Y-137925691D01*
X164784281Y-137997120D01*
D12*
X126764761Y-71124485D02*
X127050476Y-71267342D01*
X127526666Y-71267342D01*
X127717142Y-71124485D01*
X127812380Y-70981628D01*
X127907619Y-70695914D01*
X127907619Y-70410200D01*
X127812380Y-70124485D01*
X127717142Y-69981628D01*
X127526666Y-69838771D01*
X127145714Y-69695914D01*
X126955238Y-69553057D01*
X126860000Y-69410200D01*
X126764761Y-69124485D01*
X126764761Y-68838771D01*
X126860000Y-68553057D01*
X126955238Y-68410200D01*
X127145714Y-68267342D01*
X127621904Y-68267342D01*
X127907619Y-68410200D01*
X128479047Y-69267342D02*
X129240952Y-69267342D01*
X128764761Y-68267342D02*
X128764761Y-70838771D01*
X128860000Y-71124485D01*
X129050476Y-71267342D01*
X129240952Y-71267342D01*
X130764761Y-71267342D02*
X130764761Y-69695914D01*
X130669523Y-69410200D01*
X130479047Y-69267342D01*
X130098095Y-69267342D01*
X129907619Y-69410200D01*
X130764761Y-71124485D02*
X130574285Y-71267342D01*
X130098095Y-71267342D01*
X129907619Y-71124485D01*
X129812380Y-70838771D01*
X129812380Y-70553057D01*
X129907619Y-70267342D01*
X130098095Y-70124485D01*
X130574285Y-70124485D01*
X130764761Y-69981628D01*
X132574285Y-71124485D02*
X132383809Y-71267342D01*
X132002857Y-71267342D01*
X131812380Y-71124485D01*
X131717142Y-70981628D01*
X131621904Y-70695914D01*
X131621904Y-69838771D01*
X131717142Y-69553057D01*
X131812380Y-69410200D01*
X132002857Y-69267342D01*
X132383809Y-69267342D01*
X132574285Y-69410200D01*
X133431428Y-71267342D02*
X133431428Y-68267342D01*
X133621904Y-70124485D02*
X134193333Y-71267342D01*
X134193333Y-69267342D02*
X133431428Y-70410200D01*
X135907619Y-71267342D02*
X135907619Y-69695914D01*
X135812380Y-69410200D01*
X135621904Y-69267342D01*
X135240952Y-69267342D01*
X135050476Y-69410200D01*
X135907619Y-71124485D02*
X135717142Y-71267342D01*
X135240952Y-71267342D01*
X135050476Y-71124485D01*
X134955238Y-70838771D01*
X134955238Y-70553057D01*
X135050476Y-70267342D01*
X135240952Y-70124485D01*
X135717142Y-70124485D01*
X135907619Y-69981628D01*
X136860000Y-71267342D02*
X136860000Y-68267342D01*
X136860000Y-69410200D02*
X137050476Y-69267342D01*
X137431428Y-69267342D01*
X137621904Y-69410200D01*
X137717142Y-69553057D01*
X137812380Y-69838771D01*
X137812380Y-70695914D01*
X137717142Y-70981628D01*
X137621904Y-71124485D01*
X137431428Y-71267342D01*
X137050476Y-71267342D01*
X136860000Y-71124485D01*
X138955238Y-71267342D02*
X138764761Y-71124485D01*
X138669523Y-70838771D01*
X138669523Y-68267342D01*
X140479047Y-71124485D02*
X140288571Y-71267342D01*
X139907619Y-71267342D01*
X139717142Y-71124485D01*
X139621904Y-70838771D01*
X139621904Y-69695914D01*
X139717142Y-69410200D01*
X139907619Y-69267342D01*
X140288571Y-69267342D01*
X140479047Y-69410200D01*
X140574285Y-69695914D01*
X140574285Y-69981628D01*
X139621904Y-70267342D01*
X142764761Y-68267342D02*
X144098095Y-68267342D01*
X142764761Y-71267342D01*
X144098095Y-71267342D01*
X145145714Y-69553057D02*
X144955238Y-69410200D01*
X144860000Y-69267342D01*
X144764761Y-68981628D01*
X144764761Y-68838771D01*
X144860000Y-68553057D01*
X144955238Y-68410200D01*
X145145714Y-68267342D01*
X145526666Y-68267342D01*
X145717142Y-68410200D01*
X145812380Y-68553057D01*
X145907619Y-68838771D01*
X145907619Y-68981628D01*
X145812380Y-69267342D01*
X145717142Y-69410200D01*
X145526666Y-69553057D01*
X145145714Y-69553057D01*
X144955238Y-69695914D01*
X144860000Y-69838771D01*
X144764761Y-70124485D01*
X144764761Y-70695914D01*
X144860000Y-70981628D01*
X144955238Y-71124485D01*
X145145714Y-71267342D01*
X145526666Y-71267342D01*
X145717142Y-71124485D01*
X145812380Y-70981628D01*
X145907619Y-70695914D01*
X145907619Y-70124485D01*
X145812380Y-69838771D01*
X145717142Y-69695914D01*
X145526666Y-69553057D01*
X147145714Y-68267342D02*
X147336190Y-68267342D01*
X147526666Y-68410200D01*
X147621904Y-68553057D01*
X147717142Y-68838771D01*
X147812380Y-69410200D01*
X147812380Y-70124485D01*
X147717142Y-70695914D01*
X147621904Y-70981628D01*
X147526666Y-71124485D01*
X147336190Y-71267342D01*
X147145714Y-71267342D01*
X146955238Y-71124485D01*
X146860000Y-70981628D01*
X146764761Y-70695914D01*
X146669523Y-70124485D01*
X146669523Y-69410200D01*
X146764761Y-68838771D01*
X146860000Y-68553057D01*
X146955238Y-68410200D01*
X147145714Y-68267342D01*
X151336190Y-71267342D02*
X150669523Y-69838771D01*
X150193333Y-71267342D02*
X150193333Y-68267342D01*
X150955238Y-68267342D01*
X151145714Y-68410200D01*
X151240952Y-68553057D01*
X151336190Y-68838771D01*
X151336190Y-69267342D01*
X151240952Y-69553057D01*
X151145714Y-69695914D01*
X150955238Y-69838771D01*
X150193333Y-69838771D01*
X152955238Y-71124485D02*
X152764761Y-71267342D01*
X152383809Y-71267342D01*
X152193333Y-71124485D01*
X152098095Y-70838771D01*
X152098095Y-69695914D01*
X152193333Y-69410200D01*
X152383809Y-69267342D01*
X152764761Y-69267342D01*
X152955238Y-69410200D01*
X153050476Y-69695914D01*
X153050476Y-69981628D01*
X152098095Y-70267342D01*
X153621904Y-69267342D02*
X154383809Y-69267342D01*
X153907619Y-68267342D02*
X153907619Y-70838771D01*
X154002857Y-71124485D01*
X154193333Y-71267342D01*
X154383809Y-71267342D01*
X155050476Y-71267342D02*
X155050476Y-69267342D01*
X155050476Y-69838771D02*
X155145714Y-69553057D01*
X155240952Y-69410200D01*
X155431428Y-69267342D01*
X155621904Y-69267342D01*
X156574285Y-71267342D02*
X156383809Y-71124485D01*
X156288571Y-70981628D01*
X156193333Y-70695914D01*
X156193333Y-69838771D01*
X156288571Y-69553057D01*
X156383809Y-69410200D01*
X156574285Y-69267342D01*
X156860000Y-69267342D01*
X157050476Y-69410200D01*
X157145714Y-69553057D01*
X157240952Y-69838771D01*
X157240952Y-70695914D01*
X157145714Y-70981628D01*
X157050476Y-71124485D01*
X156860000Y-71267342D01*
X156574285Y-71267342D01*
X160764761Y-70981628D02*
X160669523Y-71124485D01*
X160383809Y-71267342D01*
X160193333Y-71267342D01*
X159907619Y-71124485D01*
X159717142Y-70838771D01*
X159621904Y-70553057D01*
X159526666Y-69981628D01*
X159526666Y-69553057D01*
X159621904Y-68981628D01*
X159717142Y-68695914D01*
X159907619Y-68410200D01*
X160193333Y-68267342D01*
X160383809Y-68267342D01*
X160669523Y-68410200D01*
X160764761Y-68553057D01*
X161907619Y-71267342D02*
X161717142Y-71124485D01*
X161621904Y-70981628D01*
X161526666Y-70695914D01*
X161526666Y-69838771D01*
X161621904Y-69553057D01*
X161717142Y-69410200D01*
X161907619Y-69267342D01*
X162193333Y-69267342D01*
X162383809Y-69410200D01*
X162479047Y-69553057D01*
X162574285Y-69838771D01*
X162574285Y-70695914D01*
X162479047Y-70981628D01*
X162383809Y-71124485D01*
X162193333Y-71267342D01*
X161907619Y-71267342D01*
X163431428Y-71267342D02*
X163431428Y-69267342D01*
X163431428Y-69553057D02*
X163526666Y-69410200D01*
X163717142Y-69267342D01*
X164002857Y-69267342D01*
X164193333Y-69410200D01*
X164288571Y-69695914D01*
X164288571Y-71267342D01*
X164288571Y-69695914D02*
X164383809Y-69410200D01*
X164574285Y-69267342D01*
X164860000Y-69267342D01*
X165050476Y-69410200D01*
X165145714Y-69695914D01*
X165145714Y-71267342D01*
X166098095Y-69267342D02*
X166098095Y-72267342D01*
X166098095Y-69410200D02*
X166288571Y-69267342D01*
X166669523Y-69267342D01*
X166860000Y-69410200D01*
X166955238Y-69553057D01*
X167050476Y-69838771D01*
X167050476Y-70695914D01*
X166955238Y-70981628D01*
X166860000Y-71124485D01*
X166669523Y-71267342D01*
X166288571Y-71267342D01*
X166098095Y-71124485D01*
X168764761Y-69267342D02*
X168764761Y-71267342D01*
X167907619Y-69267342D02*
X167907619Y-70838771D01*
X168002857Y-71124485D01*
X168193333Y-71267342D01*
X168479047Y-71267342D01*
X168669523Y-71124485D01*
X168764761Y-70981628D01*
X169431428Y-69267342D02*
X170193333Y-69267342D01*
X169717142Y-68267342D02*
X169717142Y-70838771D01*
X169812380Y-71124485D01*
X170002857Y-71267342D01*
X170193333Y-71267342D01*
X171621904Y-71124485D02*
X171431428Y-71267342D01*
X171050476Y-71267342D01*
X170859999Y-71124485D01*
X170764761Y-70838771D01*
X170764761Y-69695914D01*
X170859999Y-69410200D01*
X171050476Y-69267342D01*
X171431428Y-69267342D01*
X171621904Y-69410200D01*
X171717142Y-69695914D01*
X171717142Y-69981628D01*
X170764761Y-70267342D01*
X172574285Y-71267342D02*
X172574285Y-69267342D01*
X172574285Y-69838771D02*
X172669523Y-69553057D01*
X172764761Y-69410200D01*
X172955238Y-69267342D01*
X173145714Y-69267342D01*
D13*
X115340000Y-109760000D02*
X115670000Y-109760000D01*
X115670000Y-109760000D02*
X115670000Y-116300000D01*
X115670000Y-116300000D02*
X115340000Y-116300000D01*
X113260000Y-109760000D02*
X112930000Y-109760000D01*
X112930000Y-109760000D02*
X112930000Y-116300000D01*
X112930000Y-116300000D02*
X113260000Y-116300000D01*
X135830000Y-92980000D02*
G75*
G02X135830000Y-94980000I0J-1000000D01*
G01*
X135830000Y-94980000D02*
X135830000Y-100440000D01*
X135830000Y-100440000D02*
X186750000Y-100440000D01*
X186750000Y-100440000D02*
X186750000Y-87520000D01*
X186750000Y-87520000D02*
X135830000Y-87520000D01*
X135830000Y-87520000D02*
X135830000Y-92980000D01*
X124425400Y-72761800D02*
X124425400Y-75361800D01*
X124425400Y-72761800D02*
X175345400Y-72761800D01*
X175345400Y-72761800D02*
X175345400Y-77961800D01*
X127025400Y-77961800D02*
X175345400Y-77961800D01*
X127025400Y-75361800D02*
X127025400Y-77961800D01*
X124425400Y-75361800D02*
X127025400Y-75361800D01*
X124425400Y-77961800D02*
X125755400Y-77961800D01*
X124425400Y-76631800D02*
X124425400Y-77961800D01*
X124908000Y-135153400D02*
X124908000Y-133823400D01*
X124908000Y-133823400D02*
X126238000Y-133823400D01*
X127508000Y-133823400D02*
X145348000Y-133823400D01*
X145348000Y-136483400D02*
X145348000Y-133823400D01*
X127508000Y-136483400D02*
X145348000Y-136483400D01*
X127508000Y-136483400D02*
X127508000Y-133823400D01*
X154346600Y-135153400D02*
X154346600Y-133823400D01*
X154346600Y-133823400D02*
X155676600Y-133823400D01*
X156946600Y-133823400D02*
X174786600Y-133823400D01*
X174786600Y-136483400D02*
X174786600Y-133823400D01*
X156946600Y-136483400D02*
X174786600Y-136483400D01*
X156946600Y-136483400D02*
X156946600Y-133823400D01*
X187860000Y-96640000D02*
X187860000Y-91400000D01*
X190600000Y-96640000D02*
X190600000Y-91400000D01*
X187860000Y-96640000D02*
X188175000Y-96640000D01*
X190285000Y-96640000D02*
X190600000Y-96640000D01*
X187860000Y-91400000D02*
X188175000Y-91400000D01*
X190285000Y-91400000D02*
X190600000Y-91400000D01*
X164885000Y-110450000D02*
X165200000Y-110450000D01*
X162460000Y-110450000D02*
X162775000Y-110450000D01*
X164885000Y-115690000D02*
X165200000Y-115690000D01*
X162460000Y-115690000D02*
X162775000Y-115690000D01*
X165200000Y-115690000D02*
X165200000Y-110450000D01*
X162460000Y-115690000D02*
X162460000Y-110450000D01*
X187860000Y-115690000D02*
X187860000Y-110450000D01*
X190600000Y-115690000D02*
X190600000Y-110450000D01*
X187860000Y-115690000D02*
X188175000Y-115690000D01*
X190285000Y-115690000D02*
X190600000Y-115690000D01*
X187860000Y-110450000D02*
X188175000Y-110450000D01*
X190285000Y-110450000D02*
X190600000Y-110450000D01*
X129440000Y-96640000D02*
X129440000Y-91400000D01*
X132180000Y-96640000D02*
X132180000Y-91400000D01*
X129440000Y-96640000D02*
X129755000Y-96640000D01*
X131865000Y-96640000D02*
X132180000Y-96640000D01*
X129440000Y-91400000D02*
X129755000Y-91400000D01*
X131865000Y-91400000D02*
X132180000Y-91400000D01*
X168850000Y-110380000D02*
X168850000Y-112030000D01*
X186750000Y-110380000D02*
X168850000Y-110380000D01*
X186750000Y-115680000D02*
X186750000Y-110380000D01*
X168850000Y-115680000D02*
X186750000Y-115680000D01*
X168850000Y-114030000D02*
X168850000Y-115680000D01*
X168850000Y-112030000D02*
G75*
G02X168850000Y-114030000I0J-1000000D01*
G01*
X135830000Y-112030000D02*
G75*
G02X135830000Y-114030000I0J-1000000D01*
G01*
X135830000Y-114030000D02*
X135830000Y-115680000D01*
X135830000Y-115680000D02*
X161350000Y-115680000D01*
X161350000Y-115680000D02*
X161350000Y-110380000D01*
X161350000Y-110380000D02*
X135830000Y-110380000D01*
X135830000Y-110380000D02*
X135830000Y-112030000D01*
X107914000Y-88280000D02*
X107914000Y-100430000D01*
X128064000Y-87530000D02*
X108664000Y-87530000D01*
X128814000Y-99680000D02*
X128814000Y-88280000D01*
X107914000Y-100430000D02*
X128064000Y-100430000D01*
X128064000Y-100430000D02*
G75*
G03X128814000Y-99680000I0J750000D01*
G01*
X128814000Y-88280000D02*
G75*
G03X128064000Y-87530000I-750000J0D01*
G01*
X108664000Y-87530000D02*
G75*
G03X107914000Y-88280000I0J-750000D01*
G01*
X128170000Y-116300000D02*
X128500000Y-116300000D01*
X128170000Y-109760000D02*
X128170000Y-116300000D01*
X128500000Y-109760000D02*
X128170000Y-109760000D01*
X130910000Y-116300000D02*
X130580000Y-116300000D01*
X130910000Y-109760000D02*
X130910000Y-116300000D01*
X130580000Y-109760000D02*
X130910000Y-109760000D01*
X126770000Y-109760000D02*
X127100000Y-109760000D01*
X127100000Y-109760000D02*
X127100000Y-116300000D01*
X127100000Y-116300000D02*
X126770000Y-116300000D01*
X124690000Y-109760000D02*
X124360000Y-109760000D01*
X124360000Y-109760000D02*
X124360000Y-116300000D01*
X124360000Y-116300000D02*
X124690000Y-116300000D01*
X122960000Y-109760000D02*
X123290000Y-109760000D01*
X123290000Y-109760000D02*
X123290000Y-116300000D01*
X123290000Y-116300000D02*
X122960000Y-116300000D01*
X120880000Y-109760000D02*
X120550000Y-109760000D01*
X120550000Y-109760000D02*
X120550000Y-116300000D01*
X120550000Y-116300000D02*
X120880000Y-116300000D01*
X116740000Y-116300000D02*
X117070000Y-116300000D01*
X116740000Y-109760000D02*
X116740000Y-116300000D01*
X117070000Y-109760000D02*
X116740000Y-109760000D01*
X119480000Y-116300000D02*
X119150000Y-116300000D01*
X119480000Y-109760000D02*
X119480000Y-116300000D01*
X119150000Y-109760000D02*
X119480000Y-109760000D01*
X102175000Y-119440000D02*
X107375000Y-119440000D01*
X102175000Y-109220000D02*
X102175000Y-119440000D01*
X107375000Y-106620000D02*
X107375000Y-119440000D01*
X102175000Y-109220000D02*
X104775000Y-109220000D01*
X104775000Y-109220000D02*
X104775000Y-106620000D01*
X104775000Y-106620000D02*
X107375000Y-106620000D01*
X102175000Y-107950000D02*
X102175000Y-106620000D01*
X102175000Y-106620000D02*
X103505000Y-106620000D01*
D10*
X114752380Y-114149047D02*
X114276190Y-114482380D01*
X114752380Y-114720476D02*
X113752380Y-114720476D01*
X113752380Y-114339523D01*
X113800000Y-114244285D01*
X113847619Y-114196666D01*
X113942857Y-114149047D01*
X114085714Y-114149047D01*
X114180952Y-114196666D01*
X114228571Y-114244285D01*
X114276190Y-114339523D01*
X114276190Y-114720476D01*
X113752380Y-113815714D02*
X113752380Y-113149047D01*
X114752380Y-113577619D01*
X113752380Y-112577619D02*
X113752380Y-112482380D01*
X113800000Y-112387142D01*
X113847619Y-112339523D01*
X113942857Y-112291904D01*
X114133333Y-112244285D01*
X114371428Y-112244285D01*
X114561904Y-112291904D01*
X114657142Y-112339523D01*
X114704761Y-112387142D01*
X114752380Y-112482380D01*
X114752380Y-112577619D01*
X114704761Y-112672857D01*
X114657142Y-112720476D01*
X114561904Y-112768095D01*
X114371428Y-112815714D01*
X114133333Y-112815714D01*
X113942857Y-112768095D01*
X113847619Y-112720476D01*
X113800000Y-112672857D01*
X113752380Y-112577619D01*
X113752380Y-111339523D02*
X113752380Y-111815714D01*
X114228571Y-111863333D01*
X114180952Y-111815714D01*
X114133333Y-111720476D01*
X114133333Y-111482380D01*
X114180952Y-111387142D01*
X114228571Y-111339523D01*
X114323809Y-111291904D01*
X114561904Y-111291904D01*
X114657142Y-111339523D01*
X114704761Y-111387142D01*
X114752380Y-111482380D01*
X114752380Y-111720476D01*
X114704761Y-111815714D01*
X114657142Y-111863333D01*
X138620714Y-93432380D02*
X138620714Y-94241904D01*
X138668333Y-94337142D01*
X138715952Y-94384761D01*
X138811190Y-94432380D01*
X139001666Y-94432380D01*
X139096904Y-94384761D01*
X139144523Y-94337142D01*
X139192142Y-94241904D01*
X139192142Y-93432380D01*
X139573095Y-93432380D02*
X140239761Y-93432380D01*
X139811190Y-94432380D01*
X140811190Y-93432380D02*
X140906428Y-93432380D01*
X141001666Y-93480000D01*
X141049285Y-93527619D01*
X141096904Y-93622857D01*
X141144523Y-93813333D01*
X141144523Y-94051428D01*
X141096904Y-94241904D01*
X141049285Y-94337142D01*
X141001666Y-94384761D01*
X140906428Y-94432380D01*
X140811190Y-94432380D01*
X140715952Y-94384761D01*
X140668333Y-94337142D01*
X140620714Y-94241904D01*
X140573095Y-94051428D01*
X140573095Y-93813333D01*
X140620714Y-93622857D01*
X140668333Y-93527619D01*
X140715952Y-93480000D01*
X140811190Y-93432380D01*
X142096904Y-94432380D02*
X141525476Y-94432380D01*
X141811190Y-94432380D02*
X141811190Y-93432380D01*
X141715952Y-93575238D01*
X141620714Y-93670476D01*
X141525476Y-93718095D01*
X180125952Y-94432380D02*
X179554523Y-94432380D01*
X179840238Y-94432380D02*
X179840238Y-93432380D01*
X179745000Y-93575238D01*
X179649761Y-93670476D01*
X179554523Y-93718095D01*
X180983095Y-93432380D02*
X180792619Y-93432380D01*
X180697380Y-93480000D01*
X180649761Y-93527619D01*
X180554523Y-93670476D01*
X180506904Y-93860952D01*
X180506904Y-94241904D01*
X180554523Y-94337142D01*
X180602142Y-94384761D01*
X180697380Y-94432380D01*
X180887857Y-94432380D01*
X180983095Y-94384761D01*
X181030714Y-94337142D01*
X181078333Y-94241904D01*
X181078333Y-94003809D01*
X181030714Y-93908571D01*
X180983095Y-93860952D01*
X180887857Y-93813333D01*
X180697380Y-93813333D01*
X180602142Y-93860952D01*
X180554523Y-93908571D01*
X180506904Y-94003809D01*
X182078333Y-94337142D02*
X182030714Y-94384761D01*
X181887857Y-94432380D01*
X181792619Y-94432380D01*
X181649761Y-94384761D01*
X181554523Y-94289523D01*
X181506904Y-94194285D01*
X181459285Y-94003809D01*
X181459285Y-93860952D01*
X181506904Y-93670476D01*
X181554523Y-93575238D01*
X181649761Y-93480000D01*
X181792619Y-93432380D01*
X181887857Y-93432380D01*
X182030714Y-93480000D01*
X182078333Y-93527619D01*
X182983095Y-93432380D02*
X182506904Y-93432380D01*
X182459285Y-93908571D01*
X182506904Y-93860952D01*
X182602142Y-93813333D01*
X182840238Y-93813333D01*
X182935476Y-93860952D01*
X182983095Y-93908571D01*
X183030714Y-94003809D01*
X183030714Y-94241904D01*
X182983095Y-94337142D01*
X182935476Y-94384761D01*
X182840238Y-94432380D01*
X182602142Y-94432380D01*
X182506904Y-94384761D01*
X182459285Y-94337142D01*
X183935476Y-93432380D02*
X183459285Y-93432380D01*
X183411666Y-93908571D01*
X183459285Y-93860952D01*
X183554523Y-93813333D01*
X183792619Y-93813333D01*
X183887857Y-93860952D01*
X183935476Y-93908571D01*
X183983095Y-94003809D01*
X183983095Y-94241904D01*
X183935476Y-94337142D01*
X183887857Y-94384761D01*
X183792619Y-94432380D01*
X183554523Y-94432380D01*
X183459285Y-94384761D01*
X183411666Y-94337142D01*
X184602142Y-93432380D02*
X184697380Y-93432380D01*
X184792619Y-93480000D01*
X184840238Y-93527619D01*
X184887857Y-93622857D01*
X184935476Y-93813333D01*
X184935476Y-94051428D01*
X184887857Y-94241904D01*
X184840238Y-94337142D01*
X184792619Y-94384761D01*
X184697380Y-94432380D01*
X184602142Y-94432380D01*
X184506904Y-94384761D01*
X184459285Y-94337142D01*
X184411666Y-94241904D01*
X184364047Y-94051428D01*
X184364047Y-93813333D01*
X184411666Y-93622857D01*
X184459285Y-93527619D01*
X184506904Y-93480000D01*
X184602142Y-93432380D01*
X189730141Y-94915238D02*
X189777760Y-94953333D01*
X189825379Y-95067619D01*
X189825379Y-95143809D01*
X189777760Y-95258095D01*
X189682522Y-95334285D01*
X189587284Y-95372380D01*
X189396808Y-95410476D01*
X189253951Y-95410476D01*
X189063475Y-95372380D01*
X188968237Y-95334285D01*
X188872999Y-95258095D01*
X188825379Y-95143809D01*
X188825379Y-95067619D01*
X188872999Y-94953333D01*
X188920618Y-94915238D01*
X188825379Y-94648571D02*
X188825379Y-94115238D01*
X189825379Y-94458095D01*
X188825379Y-93658095D02*
X188825379Y-93581904D01*
X188872999Y-93505714D01*
X188920618Y-93467619D01*
X189015856Y-93429523D01*
X189206332Y-93391428D01*
X189444427Y-93391428D01*
X189634903Y-93429523D01*
X189730141Y-93467619D01*
X189777760Y-93505714D01*
X189825379Y-93581904D01*
X189825379Y-93658095D01*
X189777760Y-93734285D01*
X189730141Y-93772380D01*
X189634903Y-93810476D01*
X189444427Y-93848571D01*
X189206332Y-93848571D01*
X189015856Y-93810476D01*
X188920618Y-93772380D01*
X188872999Y-93734285D01*
X188825379Y-93658095D01*
X189825379Y-92629523D02*
X189825379Y-93086666D01*
X189825379Y-92858095D02*
X188825379Y-92858095D01*
X188968237Y-92934285D01*
X189063475Y-93010476D01*
X189111094Y-93086666D01*
X164380141Y-113965238D02*
X164427760Y-114003333D01*
X164475379Y-114117619D01*
X164475379Y-114193809D01*
X164427760Y-114308095D01*
X164332522Y-114384285D01*
X164237284Y-114422380D01*
X164046808Y-114460476D01*
X163903951Y-114460476D01*
X163713475Y-114422380D01*
X163618237Y-114384285D01*
X163522999Y-114308095D01*
X163475379Y-114193809D01*
X163475379Y-114117619D01*
X163522999Y-114003333D01*
X163570618Y-113965238D01*
X163475379Y-113698571D02*
X163475379Y-113165238D01*
X164475379Y-113508095D01*
X163475379Y-112708095D02*
X163475379Y-112631904D01*
X163522999Y-112555714D01*
X163570618Y-112517619D01*
X163665856Y-112479523D01*
X163856332Y-112441428D01*
X164094427Y-112441428D01*
X164284903Y-112479523D01*
X164380141Y-112517619D01*
X164427760Y-112555714D01*
X164475379Y-112631904D01*
X164475379Y-112708095D01*
X164427760Y-112784285D01*
X164380141Y-112822380D01*
X164284903Y-112860476D01*
X164094427Y-112898571D01*
X163856332Y-112898571D01*
X163665856Y-112860476D01*
X163570618Y-112822380D01*
X163522999Y-112784285D01*
X163475379Y-112708095D01*
X163570618Y-112136666D02*
X163522999Y-112098571D01*
X163475379Y-112022380D01*
X163475379Y-111831904D01*
X163522999Y-111755714D01*
X163570618Y-111717619D01*
X163665856Y-111679523D01*
X163761094Y-111679523D01*
X163903951Y-111717619D01*
X164475379Y-112174761D01*
X164475379Y-111679523D01*
X189730141Y-113858239D02*
X189777760Y-113896334D01*
X189825379Y-114010620D01*
X189825379Y-114086810D01*
X189777760Y-114201096D01*
X189682522Y-114277286D01*
X189587284Y-114315381D01*
X189396808Y-114353477D01*
X189253951Y-114353477D01*
X189063475Y-114315381D01*
X188968237Y-114277286D01*
X188872999Y-114201096D01*
X188825379Y-114086810D01*
X188825379Y-114010620D01*
X188872999Y-113896334D01*
X188920618Y-113858239D01*
X188825379Y-113591572D02*
X188825379Y-113058239D01*
X189825379Y-113401096D01*
X188825379Y-112601096D02*
X188825379Y-112524905D01*
X188872999Y-112448715D01*
X188920618Y-112410620D01*
X189015856Y-112372524D01*
X189206332Y-112334429D01*
X189444427Y-112334429D01*
X189634903Y-112372524D01*
X189730141Y-112410620D01*
X189777760Y-112448715D01*
X189825379Y-112524905D01*
X189825379Y-112601096D01*
X189777760Y-112677286D01*
X189730141Y-112715381D01*
X189634903Y-112753477D01*
X189444427Y-112791572D01*
X189206332Y-112791572D01*
X189015856Y-112753477D01*
X188920618Y-112715381D01*
X188872999Y-112677286D01*
X188825379Y-112601096D01*
X188825379Y-112067762D02*
X188825379Y-111572524D01*
X189206332Y-111839191D01*
X189206332Y-111724905D01*
X189253951Y-111648715D01*
X189301570Y-111610620D01*
X189396808Y-111572524D01*
X189634903Y-111572524D01*
X189730141Y-111610620D01*
X189777760Y-111648715D01*
X189825379Y-111724905D01*
X189825379Y-111953477D01*
X189777760Y-112029667D01*
X189730141Y-112067762D01*
X131290141Y-94915238D02*
X131337760Y-94953333D01*
X131385379Y-95067619D01*
X131385379Y-95143809D01*
X131337760Y-95258095D01*
X131242522Y-95334285D01*
X131147284Y-95372380D01*
X130956808Y-95410476D01*
X130813951Y-95410476D01*
X130623475Y-95372380D01*
X130528237Y-95334285D01*
X130432999Y-95258095D01*
X130385379Y-95143809D01*
X130385379Y-95067619D01*
X130432999Y-94953333D01*
X130480618Y-94915238D01*
X130385379Y-94648571D02*
X130385379Y-94115238D01*
X131385379Y-94458095D01*
X130385379Y-93658095D02*
X130385379Y-93581904D01*
X130432999Y-93505714D01*
X130480618Y-93467619D01*
X130575856Y-93429523D01*
X130766332Y-93391428D01*
X131004427Y-93391428D01*
X131194903Y-93429523D01*
X131290141Y-93467619D01*
X131337760Y-93505714D01*
X131385379Y-93581904D01*
X131385379Y-93658095D01*
X131337760Y-93734285D01*
X131290141Y-93772380D01*
X131194903Y-93810476D01*
X131004427Y-93848571D01*
X130766332Y-93848571D01*
X130575856Y-93810476D01*
X130480618Y-93772380D01*
X130432999Y-93734285D01*
X130385379Y-93658095D01*
X130718713Y-92705714D02*
X131385379Y-92705714D01*
X130337760Y-92896190D02*
X131052046Y-93086666D01*
X131052046Y-92591428D01*
X171640714Y-112482380D02*
X171640714Y-113291904D01*
X171688333Y-113387142D01*
X171735952Y-113434761D01*
X171831190Y-113482380D01*
X172021666Y-113482380D01*
X172116904Y-113434761D01*
X172164523Y-113387142D01*
X172212142Y-113291904D01*
X172212142Y-112482380D01*
X172593095Y-112482380D02*
X173259761Y-112482380D01*
X172831190Y-113482380D01*
X173831190Y-112482380D02*
X173926428Y-112482380D01*
X174021666Y-112530000D01*
X174069285Y-112577619D01*
X174116904Y-112672857D01*
X174164523Y-112863333D01*
X174164523Y-113101428D01*
X174116904Y-113291904D01*
X174069285Y-113387142D01*
X174021666Y-113434761D01*
X173926428Y-113482380D01*
X173831190Y-113482380D01*
X173735952Y-113434761D01*
X173688333Y-113387142D01*
X173640714Y-113291904D01*
X173593095Y-113101428D01*
X173593095Y-112863333D01*
X173640714Y-112672857D01*
X173688333Y-112577619D01*
X173735952Y-112530000D01*
X173831190Y-112482380D01*
X174545476Y-112577619D02*
X174593095Y-112530000D01*
X174688333Y-112482380D01*
X174926428Y-112482380D01*
X175021666Y-112530000D01*
X175069285Y-112577619D01*
X175116904Y-112672857D01*
X175116904Y-112768095D01*
X175069285Y-112910952D01*
X174497857Y-113482380D01*
X175116904Y-113482380D01*
X179602142Y-112482380D02*
X180268809Y-112482380D01*
X179840238Y-113482380D01*
X181078333Y-112815714D02*
X181078333Y-113482380D01*
X180840238Y-112434761D02*
X180602142Y-113149047D01*
X181221190Y-113149047D01*
X182078333Y-113482380D02*
X181602142Y-113482380D01*
X181602142Y-112482380D01*
X182364047Y-113434761D02*
X182506904Y-113482380D01*
X182745000Y-113482380D01*
X182840238Y-113434761D01*
X182887857Y-113387142D01*
X182935476Y-113291904D01*
X182935476Y-113196666D01*
X182887857Y-113101428D01*
X182840238Y-113053809D01*
X182745000Y-113006190D01*
X182554523Y-112958571D01*
X182459285Y-112910952D01*
X182411666Y-112863333D01*
X182364047Y-112768095D01*
X182364047Y-112672857D01*
X182411666Y-112577619D01*
X182459285Y-112530000D01*
X182554523Y-112482380D01*
X182792619Y-112482380D01*
X182935476Y-112530000D01*
X183554523Y-112482380D02*
X183649761Y-112482380D01*
X183745000Y-112530000D01*
X183792619Y-112577619D01*
X183840238Y-112672857D01*
X183887857Y-112863333D01*
X183887857Y-113101428D01*
X183840238Y-113291904D01*
X183792619Y-113387142D01*
X183745000Y-113434761D01*
X183649761Y-113482380D01*
X183554523Y-113482380D01*
X183459285Y-113434761D01*
X183411666Y-113387142D01*
X183364047Y-113291904D01*
X183316428Y-113101428D01*
X183316428Y-112863333D01*
X183364047Y-112672857D01*
X183411666Y-112577619D01*
X183459285Y-112530000D01*
X183554523Y-112482380D01*
X184745000Y-112815714D02*
X184745000Y-113482380D01*
X184506904Y-112434761D02*
X184268809Y-113149047D01*
X184887857Y-113149047D01*
X138620714Y-112482380D02*
X138620714Y-113291904D01*
X138668333Y-113387142D01*
X138715952Y-113434761D01*
X138811190Y-113482380D01*
X139001666Y-113482380D01*
X139096904Y-113434761D01*
X139144523Y-113387142D01*
X139192142Y-113291904D01*
X139192142Y-112482380D01*
X139573095Y-112482380D02*
X140239761Y-112482380D01*
X139811190Y-113482380D01*
X140811190Y-112482380D02*
X140906428Y-112482380D01*
X141001666Y-112530000D01*
X141049285Y-112577619D01*
X141096904Y-112672857D01*
X141144523Y-112863333D01*
X141144523Y-113101428D01*
X141096904Y-113291904D01*
X141049285Y-113387142D01*
X141001666Y-113434761D01*
X140906428Y-113482380D01*
X140811190Y-113482380D01*
X140715952Y-113434761D01*
X140668333Y-113387142D01*
X140620714Y-113291904D01*
X140573095Y-113101428D01*
X140573095Y-112863333D01*
X140620714Y-112672857D01*
X140668333Y-112577619D01*
X140715952Y-112530000D01*
X140811190Y-112482380D01*
X141477857Y-112482380D02*
X142096904Y-112482380D01*
X141763571Y-112863333D01*
X141906428Y-112863333D01*
X142001666Y-112910952D01*
X142049285Y-112958571D01*
X142096904Y-113053809D01*
X142096904Y-113291904D01*
X142049285Y-113387142D01*
X142001666Y-113434761D01*
X141906428Y-113482380D01*
X141620714Y-113482380D01*
X141525476Y-113434761D01*
X141477857Y-113387142D01*
X153090952Y-112482380D02*
X153757619Y-112482380D01*
X153329047Y-113482380D01*
X154567142Y-112815714D02*
X154567142Y-113482380D01*
X154329047Y-112434761D02*
X154090952Y-113149047D01*
X154710000Y-113149047D01*
X155567142Y-113482380D02*
X155090952Y-113482380D01*
X155090952Y-112482380D01*
X155852857Y-113434761D02*
X155995714Y-113482380D01*
X156233809Y-113482380D01*
X156329047Y-113434761D01*
X156376666Y-113387142D01*
X156424285Y-113291904D01*
X156424285Y-113196666D01*
X156376666Y-113101428D01*
X156329047Y-113053809D01*
X156233809Y-113006190D01*
X156043333Y-112958571D01*
X155948095Y-112910952D01*
X155900476Y-112863333D01*
X155852857Y-112768095D01*
X155852857Y-112672857D01*
X155900476Y-112577619D01*
X155948095Y-112530000D01*
X156043333Y-112482380D01*
X156281428Y-112482380D01*
X156424285Y-112530000D01*
X157281428Y-112482380D02*
X157090952Y-112482380D01*
X156995714Y-112530000D01*
X156948095Y-112577619D01*
X156852857Y-112720476D01*
X156805238Y-112910952D01*
X156805238Y-113291904D01*
X156852857Y-113387142D01*
X156900476Y-113434761D01*
X156995714Y-113482380D01*
X157186190Y-113482380D01*
X157281428Y-113434761D01*
X157329047Y-113387142D01*
X157376666Y-113291904D01*
X157376666Y-113053809D01*
X157329047Y-112958571D01*
X157281428Y-112910952D01*
X157186190Y-112863333D01*
X156995714Y-112863333D01*
X156900476Y-112910952D01*
X156852857Y-112958571D01*
X156805238Y-113053809D01*
X157948095Y-112910952D02*
X157852857Y-112863333D01*
X157805238Y-112815714D01*
X157757619Y-112720476D01*
X157757619Y-112672857D01*
X157805238Y-112577619D01*
X157852857Y-112530000D01*
X157948095Y-112482380D01*
X158138571Y-112482380D01*
X158233809Y-112530000D01*
X158281428Y-112577619D01*
X158329047Y-112672857D01*
X158329047Y-112720476D01*
X158281428Y-112815714D01*
X158233809Y-112863333D01*
X158138571Y-112910952D01*
X157948095Y-112910952D01*
X157852857Y-112958571D01*
X157805238Y-113006190D01*
X157757619Y-113101428D01*
X157757619Y-113291904D01*
X157805238Y-113387142D01*
X157852857Y-113434761D01*
X157948095Y-113482380D01*
X158138571Y-113482380D01*
X158233809Y-113434761D01*
X158281428Y-113387142D01*
X158329047Y-113291904D01*
X158329047Y-113101428D01*
X158281428Y-113006190D01*
X158233809Y-112958571D01*
X158138571Y-112910952D01*
X158710000Y-112577619D02*
X158757619Y-112530000D01*
X158852857Y-112482380D01*
X159090952Y-112482380D01*
X159186190Y-112530000D01*
X159233809Y-112577619D01*
X159281428Y-112672857D01*
X159281428Y-112768095D01*
X159233809Y-112910952D01*
X158662380Y-113482380D01*
X159281428Y-113482380D01*
X116602095Y-92162380D02*
X117268761Y-93162380D01*
X117268761Y-92162380D02*
X116602095Y-93162380D01*
X117554476Y-92162380D02*
X118221142Y-92162380D01*
X117792571Y-93162380D01*
X118792571Y-92162380D02*
X118887809Y-92162380D01*
X118983047Y-92210000D01*
X119030666Y-92257619D01*
X119078285Y-92352857D01*
X119125904Y-92543333D01*
X119125904Y-92781428D01*
X119078285Y-92971904D01*
X119030666Y-93067142D01*
X118983047Y-93114761D01*
X118887809Y-93162380D01*
X118792571Y-93162380D01*
X118697333Y-93114761D01*
X118649714Y-93067142D01*
X118602095Y-92971904D01*
X118554476Y-92781428D01*
X118554476Y-92543333D01*
X118602095Y-92352857D01*
X118649714Y-92257619D01*
X118697333Y-92210000D01*
X118792571Y-92162380D01*
X120078285Y-93162380D02*
X119506857Y-93162380D01*
X119792571Y-93162380D02*
X119792571Y-92162380D01*
X119697333Y-92305238D01*
X119602095Y-92400476D01*
X119506857Y-92448095D01*
X114824285Y-96337380D02*
X114252857Y-96337380D01*
X114538571Y-96337380D02*
X114538571Y-95337380D01*
X114443333Y-95480238D01*
X114348095Y-95575476D01*
X114252857Y-95623095D01*
X115252857Y-96242142D02*
X115300476Y-96289761D01*
X115252857Y-96337380D01*
X115205238Y-96289761D01*
X115252857Y-96242142D01*
X115252857Y-96337380D01*
X115871904Y-95765952D02*
X115776666Y-95718333D01*
X115729047Y-95670714D01*
X115681428Y-95575476D01*
X115681428Y-95527857D01*
X115729047Y-95432619D01*
X115776666Y-95385000D01*
X115871904Y-95337380D01*
X116062380Y-95337380D01*
X116157619Y-95385000D01*
X116205238Y-95432619D01*
X116252857Y-95527857D01*
X116252857Y-95575476D01*
X116205238Y-95670714D01*
X116157619Y-95718333D01*
X116062380Y-95765952D01*
X115871904Y-95765952D01*
X115776666Y-95813571D01*
X115729047Y-95861190D01*
X115681428Y-95956428D01*
X115681428Y-96146904D01*
X115729047Y-96242142D01*
X115776666Y-96289761D01*
X115871904Y-96337380D01*
X116062380Y-96337380D01*
X116157619Y-96289761D01*
X116205238Y-96242142D01*
X116252857Y-96146904D01*
X116252857Y-95956428D01*
X116205238Y-95861190D01*
X116157619Y-95813571D01*
X116062380Y-95765952D01*
X117110000Y-95670714D02*
X117110000Y-96337380D01*
X116871904Y-95289761D02*
X116633809Y-96004047D01*
X117252857Y-96004047D01*
X117538571Y-95337380D02*
X118157619Y-95337380D01*
X117824285Y-95718333D01*
X117967142Y-95718333D01*
X118062380Y-95765952D01*
X118110000Y-95813571D01*
X118157619Y-95908809D01*
X118157619Y-96146904D01*
X118110000Y-96242142D01*
X118062380Y-96289761D01*
X117967142Y-96337380D01*
X117681428Y-96337380D01*
X117586190Y-96289761D01*
X117538571Y-96242142D01*
X118538571Y-95432619D02*
X118586190Y-95385000D01*
X118681428Y-95337380D01*
X118919523Y-95337380D01*
X119014761Y-95385000D01*
X119062380Y-95432619D01*
X119110000Y-95527857D01*
X119110000Y-95623095D01*
X119062380Y-95765952D01*
X118490952Y-96337380D01*
X119110000Y-96337380D01*
X119538571Y-96337380D02*
X119538571Y-95337380D01*
X119871904Y-96051666D01*
X120205238Y-95337380D01*
X120205238Y-96337380D01*
X120681428Y-96337380D02*
X120681428Y-95337380D01*
X121110000Y-96337380D02*
X121110000Y-95813571D01*
X121062380Y-95718333D01*
X120967142Y-95670714D01*
X120824285Y-95670714D01*
X120729047Y-95718333D01*
X120681428Y-95765952D01*
X121490952Y-95670714D02*
X122014761Y-95670714D01*
X121490952Y-96337380D01*
X122014761Y-96337380D01*
X130197381Y-114149047D02*
X129721191Y-114482380D01*
X130197381Y-114720476D02*
X129197381Y-114720476D01*
X129197381Y-114339523D01*
X129245001Y-114244285D01*
X129292620Y-114196666D01*
X129387858Y-114149047D01*
X129530715Y-114149047D01*
X129625953Y-114196666D01*
X129673572Y-114244285D01*
X129721191Y-114339523D01*
X129721191Y-114720476D01*
X129197381Y-113815714D02*
X129197381Y-113149047D01*
X130197381Y-113577619D01*
X129197381Y-112577619D02*
X129197381Y-112482380D01*
X129245001Y-112387142D01*
X129292620Y-112339523D01*
X129387858Y-112291904D01*
X129578334Y-112244285D01*
X129816429Y-112244285D01*
X130006905Y-112291904D01*
X130102143Y-112339523D01*
X130149762Y-112387142D01*
X130197381Y-112482380D01*
X130197381Y-112577619D01*
X130149762Y-112672857D01*
X130102143Y-112720476D01*
X130006905Y-112768095D01*
X129816429Y-112815714D01*
X129578334Y-112815714D01*
X129387858Y-112768095D01*
X129292620Y-112720476D01*
X129245001Y-112672857D01*
X129197381Y-112577619D01*
X130197381Y-111291904D02*
X130197381Y-111863333D01*
X130197381Y-111577619D02*
X129197381Y-111577619D01*
X129340239Y-111672857D01*
X129435477Y-111768095D01*
X129483096Y-111863333D01*
X126182380Y-114149047D02*
X125706190Y-114482380D01*
X126182380Y-114720476D02*
X125182380Y-114720476D01*
X125182380Y-114339523D01*
X125230000Y-114244285D01*
X125277619Y-114196666D01*
X125372857Y-114149047D01*
X125515714Y-114149047D01*
X125610952Y-114196666D01*
X125658571Y-114244285D01*
X125706190Y-114339523D01*
X125706190Y-114720476D01*
X125182380Y-113815714D02*
X125182380Y-113149047D01*
X126182380Y-113577619D01*
X125182380Y-112577619D02*
X125182380Y-112482380D01*
X125230000Y-112387142D01*
X125277619Y-112339523D01*
X125372857Y-112291904D01*
X125563333Y-112244285D01*
X125801428Y-112244285D01*
X125991904Y-112291904D01*
X126087142Y-112339523D01*
X126134761Y-112387142D01*
X126182380Y-112482380D01*
X126182380Y-112577619D01*
X126134761Y-112672857D01*
X126087142Y-112720476D01*
X125991904Y-112768095D01*
X125801428Y-112815714D01*
X125563333Y-112815714D01*
X125372857Y-112768095D01*
X125277619Y-112720476D01*
X125230000Y-112672857D01*
X125182380Y-112577619D01*
X125277619Y-111863333D02*
X125230000Y-111815714D01*
X125182380Y-111720476D01*
X125182380Y-111482380D01*
X125230000Y-111387142D01*
X125277619Y-111339523D01*
X125372857Y-111291904D01*
X125468095Y-111291904D01*
X125610952Y-111339523D01*
X126182380Y-111910952D01*
X126182380Y-111291904D01*
X122372380Y-114149047D02*
X121896190Y-114482380D01*
X122372380Y-114720476D02*
X121372380Y-114720476D01*
X121372380Y-114339523D01*
X121420000Y-114244285D01*
X121467619Y-114196666D01*
X121562857Y-114149047D01*
X121705714Y-114149047D01*
X121800952Y-114196666D01*
X121848571Y-114244285D01*
X121896190Y-114339523D01*
X121896190Y-114720476D01*
X121372380Y-113815714D02*
X121372380Y-113149047D01*
X122372380Y-113577619D01*
X121372380Y-112577619D02*
X121372380Y-112482380D01*
X121420000Y-112387142D01*
X121467619Y-112339523D01*
X121562857Y-112291904D01*
X121753333Y-112244285D01*
X121991428Y-112244285D01*
X122181904Y-112291904D01*
X122277142Y-112339523D01*
X122324761Y-112387142D01*
X122372380Y-112482380D01*
X122372380Y-112577619D01*
X122324761Y-112672857D01*
X122277142Y-112720476D01*
X122181904Y-112768095D01*
X121991428Y-112815714D01*
X121753333Y-112815714D01*
X121562857Y-112768095D01*
X121467619Y-112720476D01*
X121420000Y-112672857D01*
X121372380Y-112577619D01*
X121372380Y-111910952D02*
X121372380Y-111291904D01*
X121753333Y-111625238D01*
X121753333Y-111482380D01*
X121800952Y-111387142D01*
X121848571Y-111339523D01*
X121943809Y-111291904D01*
X122181904Y-111291904D01*
X122277142Y-111339523D01*
X122324761Y-111387142D01*
X122372380Y-111482380D01*
X122372380Y-111768095D01*
X122324761Y-111863333D01*
X122277142Y-111910952D01*
X118562380Y-114134046D02*
X118086190Y-114467379D01*
X118562380Y-114705475D02*
X117562380Y-114705475D01*
X117562380Y-114324522D01*
X117610000Y-114229284D01*
X117657619Y-114181665D01*
X117752857Y-114134046D01*
X117895714Y-114134046D01*
X117990952Y-114181665D01*
X118038571Y-114229284D01*
X118086190Y-114324522D01*
X118086190Y-114705475D01*
X117562380Y-113800713D02*
X117562380Y-113134046D01*
X118562380Y-113562618D01*
X117562380Y-112562618D02*
X117562380Y-112467379D01*
X117610000Y-112372141D01*
X117657619Y-112324522D01*
X117752857Y-112276903D01*
X117943333Y-112229284D01*
X118181428Y-112229284D01*
X118371904Y-112276903D01*
X118467142Y-112324522D01*
X118514761Y-112372141D01*
X118562380Y-112467379D01*
X118562380Y-112562618D01*
X118514761Y-112657856D01*
X118467142Y-112705475D01*
X118371904Y-112753094D01*
X118181428Y-112800713D01*
X117943333Y-112800713D01*
X117752857Y-112753094D01*
X117657619Y-112705475D01*
X117610000Y-112657856D01*
X117562380Y-112562618D01*
X117895714Y-111372141D02*
X118562380Y-111372141D01*
X117514761Y-111610237D02*
X118229047Y-111848332D01*
X118229047Y-111229284D01*
M02*
