%TF.GenerationSoftware,KiCad,Pcbnew,(5.0.0)*%
%TF.CreationDate,2018-10-23T17:27:05+02:00*%
%TF.ProjectId,S80 Serial,5338302053657269616C2E6B69636164,1.0*%
%TF.SameCoordinates,Original*%
%TF.FileFunction,Legend,Bot*%
%TF.FilePolarity,Positive*%
%FSLAX46Y46*%
G04 Gerber Fmt 4.6, Leading zero omitted, Abs format (unit mm)*
G04 Created by KiCad (PCBNEW (5.0.0)) date 10/23/18 17:27:05*
%MOMM*%
%LPD*%
G01*
G04 APERTURE LIST*
%ADD10C,0.150000*%
%ADD11C,0.250000*%
%ADD12C,0.010000*%
G04 APERTURE END LIST*
D10*
X174759523Y-79397619D02*
X174130952Y-79397619D01*
X174445238Y-80497619D02*
X174445238Y-79397619D01*
X173764285Y-80497619D02*
X173764285Y-79397619D01*
X173292857Y-80497619D02*
X173292857Y-79921428D01*
X173345238Y-79816666D01*
X173450000Y-79764285D01*
X173607142Y-79764285D01*
X173711904Y-79816666D01*
X173764285Y-79869047D01*
X172769047Y-80497619D02*
X172769047Y-79764285D01*
X172769047Y-79397619D02*
X172821428Y-79450000D01*
X172769047Y-79502380D01*
X172716666Y-79450000D01*
X172769047Y-79397619D01*
X172769047Y-79502380D01*
X172297619Y-80445238D02*
X172192857Y-80497619D01*
X171983333Y-80497619D01*
X171878571Y-80445238D01*
X171826190Y-80340476D01*
X171826190Y-80288095D01*
X171878571Y-80183333D01*
X171983333Y-80130952D01*
X172140476Y-80130952D01*
X172245238Y-80078571D01*
X172297619Y-79973809D01*
X172297619Y-79921428D01*
X172245238Y-79816666D01*
X172140476Y-79764285D01*
X171983333Y-79764285D01*
X171878571Y-79816666D01*
X170516666Y-80497619D02*
X170516666Y-79397619D01*
X170097619Y-79397619D01*
X169992857Y-79450000D01*
X169940476Y-79502380D01*
X169888095Y-79607142D01*
X169888095Y-79764285D01*
X169940476Y-79869047D01*
X169992857Y-79921428D01*
X170097619Y-79973809D01*
X170516666Y-79973809D01*
X168788095Y-80392857D02*
X168840476Y-80445238D01*
X168997619Y-80497619D01*
X169102380Y-80497619D01*
X169259523Y-80445238D01*
X169364285Y-80340476D01*
X169416666Y-80235714D01*
X169469047Y-80026190D01*
X169469047Y-79869047D01*
X169416666Y-79659523D01*
X169364285Y-79554761D01*
X169259523Y-79450000D01*
X169102380Y-79397619D01*
X168997619Y-79397619D01*
X168840476Y-79450000D01*
X168788095Y-79502380D01*
X167950000Y-79921428D02*
X167792857Y-79973809D01*
X167740476Y-80026190D01*
X167688095Y-80130952D01*
X167688095Y-80288095D01*
X167740476Y-80392857D01*
X167792857Y-80445238D01*
X167897619Y-80497619D01*
X168316666Y-80497619D01*
X168316666Y-79397619D01*
X167950000Y-79397619D01*
X167845238Y-79450000D01*
X167792857Y-79502380D01*
X167740476Y-79607142D01*
X167740476Y-79711904D01*
X167792857Y-79816666D01*
X167845238Y-79869047D01*
X167950000Y-79921428D01*
X168316666Y-79921428D01*
X166378571Y-80497619D02*
X166378571Y-79764285D01*
X166378571Y-79397619D02*
X166430952Y-79450000D01*
X166378571Y-79502380D01*
X166326190Y-79450000D01*
X166378571Y-79397619D01*
X166378571Y-79502380D01*
X165907142Y-80445238D02*
X165802380Y-80497619D01*
X165592857Y-80497619D01*
X165488095Y-80445238D01*
X165435714Y-80340476D01*
X165435714Y-80288095D01*
X165488095Y-80183333D01*
X165592857Y-80130952D01*
X165750000Y-80130952D01*
X165854761Y-80078571D01*
X165907142Y-79973809D01*
X165907142Y-79921428D01*
X165854761Y-79816666D01*
X165750000Y-79764285D01*
X165592857Y-79764285D01*
X165488095Y-79816666D01*
X164283333Y-79764285D02*
X163864285Y-79764285D01*
X164126190Y-80497619D02*
X164126190Y-79554761D01*
X164073809Y-79450000D01*
X163969047Y-79397619D01*
X163864285Y-79397619D01*
X163026190Y-80497619D02*
X163026190Y-79921428D01*
X163078571Y-79816666D01*
X163183333Y-79764285D01*
X163392857Y-79764285D01*
X163497619Y-79816666D01*
X163026190Y-80445238D02*
X163130952Y-80497619D01*
X163392857Y-80497619D01*
X163497619Y-80445238D01*
X163550000Y-80340476D01*
X163550000Y-80235714D01*
X163497619Y-80130952D01*
X163392857Y-80078571D01*
X163130952Y-80078571D01*
X163026190Y-80026190D01*
X162502380Y-80497619D02*
X162502380Y-79397619D01*
X162502380Y-79816666D02*
X162397619Y-79764285D01*
X162188095Y-79764285D01*
X162083333Y-79816666D01*
X162030952Y-79869047D01*
X161978571Y-79973809D01*
X161978571Y-80288095D01*
X162030952Y-80392857D01*
X162083333Y-80445238D01*
X162188095Y-80497619D01*
X162397619Y-80497619D01*
X162502380Y-80445238D01*
X161507142Y-80497619D02*
X161507142Y-79764285D01*
X161507142Y-79973809D02*
X161454761Y-79869047D01*
X161402380Y-79816666D01*
X161297619Y-79764285D01*
X161192857Y-79764285D01*
X160826190Y-80497619D02*
X160826190Y-79764285D01*
X160826190Y-79397619D02*
X160878571Y-79450000D01*
X160826190Y-79502380D01*
X160773809Y-79450000D01*
X160826190Y-79397619D01*
X160826190Y-79502380D01*
X159830952Y-80445238D02*
X159935714Y-80497619D01*
X160145238Y-80497619D01*
X160250000Y-80445238D01*
X160302380Y-80392857D01*
X160354761Y-80288095D01*
X160354761Y-79973809D01*
X160302380Y-79869047D01*
X160250000Y-79816666D01*
X160145238Y-79764285D01*
X159935714Y-79764285D01*
X159830952Y-79816666D01*
X158888095Y-80497619D02*
X158888095Y-79921428D01*
X158940476Y-79816666D01*
X159045238Y-79764285D01*
X159254761Y-79764285D01*
X159359523Y-79816666D01*
X158888095Y-80445238D02*
X158992857Y-80497619D01*
X159254761Y-80497619D01*
X159359523Y-80445238D01*
X159411904Y-80340476D01*
X159411904Y-80235714D01*
X159359523Y-80130952D01*
X159254761Y-80078571D01*
X158992857Y-80078571D01*
X158888095Y-80026190D01*
X158521428Y-79764285D02*
X158102380Y-79764285D01*
X158364285Y-79397619D02*
X158364285Y-80340476D01*
X158311904Y-80445238D01*
X158207142Y-80497619D01*
X158102380Y-80497619D01*
X157316666Y-80445238D02*
X157421428Y-80497619D01*
X157630952Y-80497619D01*
X157735714Y-80445238D01*
X157788095Y-80340476D01*
X157788095Y-79921428D01*
X157735714Y-79816666D01*
X157630952Y-79764285D01*
X157421428Y-79764285D01*
X157316666Y-79816666D01*
X157264285Y-79921428D01*
X157264285Y-80026190D01*
X157788095Y-80130952D01*
X156321428Y-80497619D02*
X156321428Y-79397619D01*
X156321428Y-80445238D02*
X156426190Y-80497619D01*
X156635714Y-80497619D01*
X156740476Y-80445238D01*
X156792857Y-80392857D01*
X156845238Y-80288095D01*
X156845238Y-79973809D01*
X156792857Y-79869047D01*
X156740476Y-79816666D01*
X156635714Y-79764285D01*
X156426190Y-79764285D01*
X156321428Y-79816666D01*
X154959523Y-80497619D02*
X154959523Y-79397619D01*
X154959523Y-79816666D02*
X154854761Y-79764285D01*
X154645238Y-79764285D01*
X154540476Y-79816666D01*
X154488095Y-79869047D01*
X154435714Y-79973809D01*
X154435714Y-80288095D01*
X154488095Y-80392857D01*
X154540476Y-80445238D01*
X154645238Y-80497619D01*
X154854761Y-80497619D01*
X154959523Y-80445238D01*
X154069047Y-79764285D02*
X153807142Y-80497619D01*
X153545238Y-79764285D02*
X153807142Y-80497619D01*
X153911904Y-80759523D01*
X153964285Y-80811904D01*
X154069047Y-80864285D01*
X151973809Y-79397619D02*
X151973809Y-80183333D01*
X152026190Y-80340476D01*
X152130952Y-80445238D01*
X152288095Y-80497619D01*
X152392857Y-80497619D01*
X150926190Y-80497619D02*
X151450000Y-80497619D01*
X151450000Y-79397619D01*
X149930952Y-80392857D02*
X149983333Y-80445238D01*
X150140476Y-80497619D01*
X150245238Y-80497619D01*
X150402380Y-80445238D01*
X150507142Y-80340476D01*
X150559523Y-80235714D01*
X150611904Y-80026190D01*
X150611904Y-79869047D01*
X150559523Y-79659523D01*
X150507142Y-79554761D01*
X150402380Y-79450000D01*
X150245238Y-79397619D01*
X150140476Y-79397619D01*
X149983333Y-79450000D01*
X149930952Y-79502380D01*
X149459523Y-80497619D02*
X149459523Y-79397619D01*
X149040476Y-79397619D01*
X148935714Y-79450000D01*
X148883333Y-79502380D01*
X148830952Y-79607142D01*
X148830952Y-79764285D01*
X148883333Y-79869047D01*
X148935714Y-79921428D01*
X149040476Y-79973809D01*
X149459523Y-79973809D01*
X147730952Y-80392857D02*
X147783333Y-80445238D01*
X147940476Y-80497619D01*
X148045238Y-80497619D01*
X148202380Y-80445238D01*
X148307142Y-80340476D01*
X148359523Y-80235714D01*
X148411904Y-80026190D01*
X148411904Y-79869047D01*
X148359523Y-79659523D01*
X148307142Y-79554761D01*
X148202380Y-79450000D01*
X148045238Y-79397619D01*
X147940476Y-79397619D01*
X147783333Y-79450000D01*
X147730952Y-79502380D01*
X146892857Y-79921428D02*
X146735714Y-79973809D01*
X146683333Y-80026190D01*
X146630952Y-80130952D01*
X146630952Y-80288095D01*
X146683333Y-80392857D01*
X146735714Y-80445238D01*
X146840476Y-80497619D01*
X147259523Y-80497619D01*
X147259523Y-79397619D01*
X146892857Y-79397619D01*
X146788095Y-79450000D01*
X146735714Y-79502380D01*
X146683333Y-79607142D01*
X146683333Y-79711904D01*
X146735714Y-79816666D01*
X146788095Y-79869047D01*
X146892857Y-79921428D01*
X147259523Y-79921428D01*
X145007142Y-80916666D02*
X145059523Y-80864285D01*
X145164285Y-80707142D01*
X145216666Y-80602380D01*
X145269047Y-80445238D01*
X145321428Y-80183333D01*
X145321428Y-79973809D01*
X145269047Y-79711904D01*
X145216666Y-79554761D01*
X145164285Y-79450000D01*
X145059523Y-79292857D01*
X145007142Y-79240476D01*
X144588095Y-80497619D02*
X144588095Y-79397619D01*
X144588095Y-79816666D02*
X144483333Y-79764285D01*
X144273809Y-79764285D01*
X144169047Y-79816666D01*
X144116666Y-79869047D01*
X144064285Y-79973809D01*
X144064285Y-80288095D01*
X144116666Y-80392857D01*
X144169047Y-80445238D01*
X144273809Y-80497619D01*
X144483333Y-80497619D01*
X144588095Y-80445238D01*
X143121428Y-80497619D02*
X143121428Y-79921428D01*
X143173809Y-79816666D01*
X143278571Y-79764285D01*
X143488095Y-79764285D01*
X143592857Y-79816666D01*
X143121428Y-80445238D02*
X143226190Y-80497619D01*
X143488095Y-80497619D01*
X143592857Y-80445238D01*
X143645238Y-80340476D01*
X143645238Y-80235714D01*
X143592857Y-80130952D01*
X143488095Y-80078571D01*
X143226190Y-80078571D01*
X143121428Y-80026190D01*
X142754761Y-79764285D02*
X142335714Y-79764285D01*
X142597619Y-79397619D02*
X142597619Y-80340476D01*
X142545238Y-80445238D01*
X142440476Y-80497619D01*
X142335714Y-80497619D01*
X141497619Y-80445238D02*
X141602380Y-80497619D01*
X141811904Y-80497619D01*
X141916666Y-80445238D01*
X141969047Y-80392857D01*
X142021428Y-80288095D01*
X142021428Y-79973809D01*
X141969047Y-79869047D01*
X141916666Y-79816666D01*
X141811904Y-79764285D01*
X141602380Y-79764285D01*
X141497619Y-79816666D01*
X141026190Y-80497619D02*
X141026190Y-79397619D01*
X140554761Y-80497619D02*
X140554761Y-79921428D01*
X140607142Y-79816666D01*
X140711904Y-79764285D01*
X140869047Y-79764285D01*
X140973809Y-79816666D01*
X141026190Y-79869047D01*
X139192857Y-79764285D02*
X139192857Y-80497619D01*
X139192857Y-79869047D02*
X139140476Y-79816666D01*
X139035714Y-79764285D01*
X138878571Y-79764285D01*
X138773809Y-79816666D01*
X138721428Y-79921428D01*
X138721428Y-80497619D01*
X138040476Y-79397619D02*
X138145238Y-79450000D01*
X138197619Y-79554761D01*
X138145238Y-79659523D01*
X138040476Y-79711904D01*
X137935714Y-79659523D01*
X137883333Y-79554761D01*
X137935714Y-79450000D01*
X138040476Y-79397619D01*
X136207142Y-79397619D02*
X136207142Y-80183333D01*
X136259523Y-80340476D01*
X136364285Y-80445238D01*
X136521428Y-80497619D01*
X136626190Y-80497619D01*
X135159523Y-80497619D02*
X135683333Y-80497619D01*
X135683333Y-79397619D01*
X134164285Y-80392857D02*
X134216666Y-80445238D01*
X134373809Y-80497619D01*
X134478571Y-80497619D01*
X134635714Y-80445238D01*
X134740476Y-80340476D01*
X134792857Y-80235714D01*
X134845238Y-80026190D01*
X134845238Y-79869047D01*
X134792857Y-79659523D01*
X134740476Y-79554761D01*
X134635714Y-79450000D01*
X134478571Y-79397619D01*
X134373809Y-79397619D01*
X134216666Y-79450000D01*
X134164285Y-79502380D01*
X133378571Y-79397619D02*
X133378571Y-80183333D01*
X133430952Y-80340476D01*
X133535714Y-80445238D01*
X133692857Y-80497619D01*
X133797619Y-80497619D01*
X132330952Y-80497619D02*
X132854761Y-80497619D01*
X132854761Y-79397619D01*
X131335714Y-80392857D02*
X131388095Y-80445238D01*
X131545238Y-80497619D01*
X131649999Y-80497619D01*
X131807142Y-80445238D01*
X131911904Y-80340476D01*
X131964285Y-80235714D01*
X132016666Y-80026190D01*
X132016666Y-79869047D01*
X131964285Y-79659523D01*
X131911904Y-79554761D01*
X131807142Y-79450000D01*
X131649999Y-79397619D01*
X131545238Y-79397619D01*
X131388095Y-79450000D01*
X131335714Y-79502380D01*
X130549999Y-79397619D02*
X130549999Y-80183333D01*
X130602380Y-80340476D01*
X130707142Y-80445238D01*
X130864285Y-80497619D01*
X130969047Y-80497619D01*
X129502380Y-80497619D02*
X130026190Y-80497619D01*
X130026190Y-79397619D01*
X128507142Y-80392857D02*
X128559523Y-80445238D01*
X128716666Y-80497619D01*
X128821428Y-80497619D01*
X128978571Y-80445238D01*
X129083333Y-80340476D01*
X129135714Y-80235714D01*
X129188095Y-80026190D01*
X129188095Y-79869047D01*
X129135714Y-79659523D01*
X129083333Y-79554761D01*
X128978571Y-79450000D01*
X128821428Y-79397619D01*
X128716666Y-79397619D01*
X128559523Y-79450000D01*
X128507142Y-79502380D01*
X127721428Y-79397619D02*
X127721428Y-80183333D01*
X127773809Y-80340476D01*
X127878571Y-80445238D01*
X128035714Y-80497619D01*
X128140476Y-80497619D01*
X126673809Y-80497619D02*
X127197619Y-80497619D01*
X127197619Y-79397619D01*
X125678571Y-80392857D02*
X125730952Y-80445238D01*
X125888095Y-80497619D01*
X125992857Y-80497619D01*
X126149999Y-80445238D01*
X126254761Y-80340476D01*
X126307142Y-80235714D01*
X126359523Y-80026190D01*
X126359523Y-79869047D01*
X126307142Y-79659523D01*
X126254761Y-79554761D01*
X126149999Y-79450000D01*
X125992857Y-79397619D01*
X125888095Y-79397619D01*
X125730952Y-79450000D01*
X125678571Y-79502380D01*
X125311904Y-80916666D02*
X125259523Y-80864285D01*
X125154761Y-80707142D01*
X125102380Y-80602380D01*
X125049999Y-80445238D01*
X124997619Y-80183333D01*
X124997619Y-79973809D01*
X125049999Y-79711904D01*
X125102380Y-79554761D01*
X125154761Y-79450000D01*
X125259523Y-79292857D01*
X125311904Y-79240476D01*
X164155710Y-138782834D02*
X164208091Y-138854262D01*
X164365234Y-138925691D01*
X164469996Y-138925691D01*
X164627139Y-138854262D01*
X164731900Y-138711405D01*
X164784281Y-138568548D01*
X164836662Y-138282834D01*
X164836662Y-138068548D01*
X164784281Y-137782834D01*
X164731900Y-137639977D01*
X164627139Y-137497120D01*
X164469996Y-137425691D01*
X164365234Y-137425691D01*
X164208091Y-137497120D01*
X164155710Y-137568548D01*
X163527139Y-138925691D02*
X163631900Y-138854262D01*
X163684281Y-138782834D01*
X163736662Y-138639977D01*
X163736662Y-138211405D01*
X163684281Y-138068548D01*
X163631900Y-137997120D01*
X163527139Y-137925691D01*
X163369996Y-137925691D01*
X163265234Y-137997120D01*
X163212853Y-138068548D01*
X163160472Y-138211405D01*
X163160472Y-138639977D01*
X163212853Y-138782834D01*
X163265234Y-138854262D01*
X163369996Y-138925691D01*
X163527139Y-138925691D01*
X162689043Y-137925691D02*
X162689043Y-139425691D01*
X162689043Y-137997120D02*
X162584281Y-137925691D01*
X162374758Y-137925691D01*
X162269996Y-137997120D01*
X162217615Y-138068548D01*
X162165234Y-138211405D01*
X162165234Y-138639977D01*
X162217615Y-138782834D01*
X162269996Y-138854262D01*
X162374758Y-138925691D01*
X162584281Y-138925691D01*
X162689043Y-138854262D01*
X161798567Y-137925691D02*
X161536662Y-138925691D01*
X161274758Y-137925691D02*
X161536662Y-138925691D01*
X161641424Y-139282834D01*
X161693805Y-139354262D01*
X161798567Y-139425691D01*
X160855710Y-138925691D02*
X160855710Y-137925691D01*
X160855710Y-138211405D02*
X160803329Y-138068548D01*
X160750948Y-137997120D01*
X160646186Y-137925691D01*
X160541424Y-137925691D01*
X160174758Y-138925691D02*
X160174758Y-137925691D01*
X160174758Y-137425691D02*
X160227139Y-137497120D01*
X160174758Y-137568548D01*
X160122377Y-137497120D01*
X160174758Y-137425691D01*
X160174758Y-137568548D01*
X159179520Y-137925691D02*
X159179520Y-139139977D01*
X159231900Y-139282834D01*
X159284281Y-139354262D01*
X159389043Y-139425691D01*
X159546186Y-139425691D01*
X159650948Y-139354262D01*
X159179520Y-138854262D02*
X159284281Y-138925691D01*
X159493805Y-138925691D01*
X159598567Y-138854262D01*
X159650948Y-138782834D01*
X159703329Y-138639977D01*
X159703329Y-138211405D01*
X159650948Y-138068548D01*
X159598567Y-137997120D01*
X159493805Y-137925691D01*
X159284281Y-137925691D01*
X159179520Y-137997120D01*
X158655710Y-138925691D02*
X158655710Y-137425691D01*
X158184281Y-138925691D02*
X158184281Y-138139977D01*
X158236662Y-137997120D01*
X158341424Y-137925691D01*
X158498567Y-137925691D01*
X158603329Y-137997120D01*
X158655710Y-138068548D01*
X157817615Y-137925691D02*
X157398567Y-137925691D01*
X157660472Y-137425691D02*
X157660472Y-138711405D01*
X157608091Y-138854262D01*
X157503329Y-138925691D01*
X157398567Y-138925691D01*
X155303329Y-137782834D02*
X155408091Y-137711405D01*
X155617615Y-137711405D01*
X155722377Y-137782834D01*
X155827139Y-137925691D01*
X155879520Y-138068548D01*
X155879520Y-138354262D01*
X155827139Y-138497120D01*
X155722377Y-138639977D01*
X155617615Y-138711405D01*
X155408091Y-138711405D01*
X155303329Y-138639977D01*
X155512853Y-137211405D02*
X155774758Y-137282834D01*
X156036662Y-137497120D01*
X156193805Y-137854262D01*
X156246186Y-138211405D01*
X156193805Y-138568548D01*
X156036662Y-138925691D01*
X155774758Y-139139977D01*
X155512853Y-139211405D01*
X155250948Y-139139977D01*
X154989043Y-138925691D01*
X154831900Y-138568548D01*
X154779520Y-138211405D01*
X154831900Y-137854262D01*
X154989043Y-137497120D01*
X155250948Y-137282834D01*
X155512853Y-137211405D01*
X153522377Y-137568548D02*
X153469996Y-137497120D01*
X153365234Y-137425691D01*
X153103329Y-137425691D01*
X152998567Y-137497120D01*
X152946186Y-137568548D01*
X152893805Y-137711405D01*
X152893805Y-137854262D01*
X152946186Y-138068548D01*
X153574758Y-138925691D01*
X152893805Y-138925691D01*
X152212853Y-137425691D02*
X152108091Y-137425691D01*
X152003329Y-137497120D01*
X151950948Y-137568548D01*
X151898567Y-137711405D01*
X151846186Y-137997120D01*
X151846186Y-138354262D01*
X151898567Y-138639977D01*
X151950948Y-138782834D01*
X152003329Y-138854262D01*
X152108091Y-138925691D01*
X152212853Y-138925691D01*
X152317615Y-138854262D01*
X152369996Y-138782834D01*
X152422377Y-138639977D01*
X152474758Y-138354262D01*
X152474758Y-137997120D01*
X152422377Y-137711405D01*
X152369996Y-137568548D01*
X152317615Y-137497120D01*
X152212853Y-137425691D01*
X150798567Y-138925691D02*
X151427139Y-138925691D01*
X151112853Y-138925691D02*
X151112853Y-137425691D01*
X151217615Y-137639977D01*
X151322377Y-137782834D01*
X151427139Y-137854262D01*
X150169996Y-138068548D02*
X150274758Y-137997120D01*
X150327139Y-137925691D01*
X150379520Y-137782834D01*
X150379520Y-137711405D01*
X150327139Y-137568548D01*
X150274758Y-137497120D01*
X150169996Y-137425691D01*
X149960472Y-137425691D01*
X149855710Y-137497120D01*
X149803329Y-137568548D01*
X149750948Y-137711405D01*
X149750948Y-137782834D01*
X149803329Y-137925691D01*
X149855710Y-137997120D01*
X149960472Y-138068548D01*
X150169996Y-138068548D01*
X150274758Y-138139977D01*
X150327139Y-138211405D01*
X150379520Y-138354262D01*
X150379520Y-138639977D01*
X150327139Y-138782834D01*
X150274758Y-138854262D01*
X150169996Y-138925691D01*
X149960472Y-138925691D01*
X149855710Y-138854262D01*
X149803329Y-138782834D01*
X149750948Y-138639977D01*
X149750948Y-138354262D01*
X149803329Y-138211405D01*
X149855710Y-138139977D01*
X149960472Y-138068548D01*
X148441424Y-138925691D02*
X148441424Y-137425691D01*
X148441424Y-137997120D02*
X148336662Y-137925691D01*
X148127139Y-137925691D01*
X148022377Y-137997120D01*
X147969996Y-138068548D01*
X147917615Y-138211405D01*
X147917615Y-138639977D01*
X147969996Y-138782834D01*
X148022377Y-138854262D01*
X148127139Y-138925691D01*
X148336662Y-138925691D01*
X148441424Y-138854262D01*
X147550948Y-137925691D02*
X147289043Y-138925691D01*
X147027139Y-137925691D02*
X147289043Y-138925691D01*
X147393805Y-139282834D01*
X147446186Y-139354262D01*
X147550948Y-139425691D01*
X145141424Y-138925691D02*
X145508091Y-138211405D01*
X145769996Y-138925691D02*
X145769996Y-137425691D01*
X145350948Y-137425691D01*
X145246186Y-137497120D01*
X145193805Y-137568548D01*
X145141424Y-137711405D01*
X145141424Y-137925691D01*
X145193805Y-138068548D01*
X145246186Y-138139977D01*
X145350948Y-138211405D01*
X145769996Y-138211405D01*
X143779520Y-138925691D02*
X143831900Y-138925691D01*
X143936662Y-138854262D01*
X144093805Y-138639977D01*
X144355710Y-138211405D01*
X144460472Y-137997120D01*
X144512853Y-137782834D01*
X144512853Y-137639977D01*
X144460472Y-137497120D01*
X144355710Y-137425691D01*
X144303329Y-137425691D01*
X144198567Y-137497120D01*
X144146186Y-137639977D01*
X144146186Y-137711405D01*
X144198567Y-137854262D01*
X144250948Y-137925691D01*
X144565234Y-138211405D01*
X144617615Y-138282834D01*
X144669996Y-138425691D01*
X144669996Y-138639977D01*
X144617615Y-138782834D01*
X144565234Y-138854262D01*
X144460472Y-138925691D01*
X144303329Y-138925691D01*
X144198567Y-138854262D01*
X144146186Y-138782834D01*
X143989043Y-138497120D01*
X143936662Y-138282834D01*
X143936662Y-138139977D01*
X142941424Y-138139977D02*
X143308091Y-138139977D01*
X143308091Y-138925691D02*
X143308091Y-137425691D01*
X142784281Y-137425691D01*
X141527139Y-138925691D02*
X141527139Y-137425691D01*
X141108091Y-137425691D01*
X141003329Y-137497120D01*
X140950948Y-137568548D01*
X140898567Y-137711405D01*
X140898567Y-137925691D01*
X140950948Y-138068548D01*
X141003329Y-138139977D01*
X141108091Y-138211405D01*
X141527139Y-138211405D01*
X140531900Y-137925691D02*
X140269996Y-138925691D01*
X140008091Y-137925691D02*
X140269996Y-138925691D01*
X140374758Y-139282834D01*
X140427139Y-139354262D01*
X140531900Y-139425691D01*
X139589043Y-137925691D02*
X139589043Y-138925691D01*
X139589043Y-138068548D02*
X139536662Y-137997120D01*
X139431900Y-137925691D01*
X139274758Y-137925691D01*
X139169996Y-137997120D01*
X139117615Y-138139977D01*
X139117615Y-138925691D01*
X138122377Y-138854262D02*
X138227139Y-138925691D01*
X138436662Y-138925691D01*
X138541424Y-138854262D01*
X138593805Y-138782834D01*
X138646186Y-138639977D01*
X138646186Y-138211405D01*
X138593805Y-138068548D01*
X138541424Y-137997120D01*
X138436662Y-137925691D01*
X138227139Y-137925691D01*
X138122377Y-137997120D01*
X137650948Y-138925691D02*
X137650948Y-137425691D01*
X137546186Y-138354262D02*
X137231900Y-138925691D01*
X137231900Y-137925691D02*
X137650948Y-138497120D01*
X136341424Y-138854262D02*
X136446186Y-138925691D01*
X136655710Y-138925691D01*
X136760472Y-138854262D01*
X136812853Y-138711405D01*
X136812853Y-138139977D01*
X136760472Y-137997120D01*
X136655710Y-137925691D01*
X136446186Y-137925691D01*
X136341424Y-137997120D01*
X136289043Y-138139977D01*
X136289043Y-138282834D01*
X136812853Y-138425691D01*
X135660472Y-138925691D02*
X135765234Y-138854262D01*
X135817615Y-138711405D01*
X135817615Y-137425691D01*
X135293805Y-138854262D02*
X135189043Y-138925691D01*
X134979520Y-138925691D01*
X134874758Y-138854262D01*
X134822377Y-138711405D01*
X134822377Y-138639977D01*
X134874758Y-138497120D01*
X134979520Y-138425691D01*
X135136662Y-138425691D01*
X135241424Y-138354262D01*
X135293805Y-138211405D01*
X135293805Y-138139977D01*
X135241424Y-137997120D01*
X135136662Y-137925691D01*
X134979520Y-137925691D01*
X134874758Y-137997120D01*
D11*
X172955238Y-71124485D02*
X172669523Y-71267342D01*
X172193333Y-71267342D01*
X172002857Y-71124485D01*
X171907619Y-70981628D01*
X171812380Y-70695914D01*
X171812380Y-70410200D01*
X171907619Y-70124485D01*
X172002857Y-69981628D01*
X172193333Y-69838771D01*
X172574285Y-69695914D01*
X172764761Y-69553057D01*
X172860000Y-69410200D01*
X172955238Y-69124485D01*
X172955238Y-68838771D01*
X172860000Y-68553057D01*
X172764761Y-68410200D01*
X172574285Y-68267342D01*
X172098095Y-68267342D01*
X171812380Y-68410200D01*
X171240952Y-69267342D02*
X170479047Y-69267342D01*
X170955238Y-68267342D02*
X170955238Y-70838771D01*
X170860000Y-71124485D01*
X170669523Y-71267342D01*
X170479047Y-71267342D01*
X168955238Y-71267342D02*
X168955238Y-69695914D01*
X169050476Y-69410200D01*
X169240952Y-69267342D01*
X169621904Y-69267342D01*
X169812380Y-69410200D01*
X168955238Y-71124485D02*
X169145714Y-71267342D01*
X169621904Y-71267342D01*
X169812380Y-71124485D01*
X169907619Y-70838771D01*
X169907619Y-70553057D01*
X169812380Y-70267342D01*
X169621904Y-70124485D01*
X169145714Y-70124485D01*
X168955238Y-69981628D01*
X167145714Y-71124485D02*
X167336190Y-71267342D01*
X167717142Y-71267342D01*
X167907619Y-71124485D01*
X168002857Y-70981628D01*
X168098095Y-70695914D01*
X168098095Y-69838771D01*
X168002857Y-69553057D01*
X167907619Y-69410200D01*
X167717142Y-69267342D01*
X167336190Y-69267342D01*
X167145714Y-69410200D01*
X166288571Y-71267342D02*
X166288571Y-68267342D01*
X166098095Y-70124485D02*
X165526666Y-71267342D01*
X165526666Y-69267342D02*
X166288571Y-70410200D01*
X163812380Y-71267342D02*
X163812380Y-69695914D01*
X163907619Y-69410200D01*
X164098095Y-69267342D01*
X164479047Y-69267342D01*
X164669523Y-69410200D01*
X163812380Y-71124485D02*
X164002857Y-71267342D01*
X164479047Y-71267342D01*
X164669523Y-71124485D01*
X164764761Y-70838771D01*
X164764761Y-70553057D01*
X164669523Y-70267342D01*
X164479047Y-70124485D01*
X164002857Y-70124485D01*
X163812380Y-69981628D01*
X162860000Y-71267342D02*
X162860000Y-68267342D01*
X162860000Y-69410200D02*
X162669523Y-69267342D01*
X162288571Y-69267342D01*
X162098095Y-69410200D01*
X162002857Y-69553057D01*
X161907619Y-69838771D01*
X161907619Y-70695914D01*
X162002857Y-70981628D01*
X162098095Y-71124485D01*
X162288571Y-71267342D01*
X162669523Y-71267342D01*
X162860000Y-71124485D01*
X160764761Y-71267342D02*
X160955238Y-71124485D01*
X161050476Y-70838771D01*
X161050476Y-68267342D01*
X159240952Y-71124485D02*
X159431428Y-71267342D01*
X159812380Y-71267342D01*
X160002857Y-71124485D01*
X160098095Y-70838771D01*
X160098095Y-69695914D01*
X160002857Y-69410200D01*
X159812380Y-69267342D01*
X159431428Y-69267342D01*
X159240952Y-69410200D01*
X159145714Y-69695914D01*
X159145714Y-69981628D01*
X160098095Y-70267342D01*
X156955238Y-68267342D02*
X155621904Y-68267342D01*
X156955238Y-71267342D01*
X155621904Y-71267342D01*
X154574285Y-69553057D02*
X154764761Y-69410200D01*
X154860000Y-69267342D01*
X154955238Y-68981628D01*
X154955238Y-68838771D01*
X154860000Y-68553057D01*
X154764761Y-68410200D01*
X154574285Y-68267342D01*
X154193333Y-68267342D01*
X154002857Y-68410200D01*
X153907619Y-68553057D01*
X153812380Y-68838771D01*
X153812380Y-68981628D01*
X153907619Y-69267342D01*
X154002857Y-69410200D01*
X154193333Y-69553057D01*
X154574285Y-69553057D01*
X154764761Y-69695914D01*
X154860000Y-69838771D01*
X154955238Y-70124485D01*
X154955238Y-70695914D01*
X154860000Y-70981628D01*
X154764761Y-71124485D01*
X154574285Y-71267342D01*
X154193333Y-71267342D01*
X154002857Y-71124485D01*
X153907619Y-70981628D01*
X153812380Y-70695914D01*
X153812380Y-70124485D01*
X153907619Y-69838771D01*
X154002857Y-69695914D01*
X154193333Y-69553057D01*
X152574285Y-68267342D02*
X152383809Y-68267342D01*
X152193333Y-68410200D01*
X152098095Y-68553057D01*
X152002857Y-68838771D01*
X151907619Y-69410200D01*
X151907619Y-70124485D01*
X152002857Y-70695914D01*
X152098095Y-70981628D01*
X152193333Y-71124485D01*
X152383809Y-71267342D01*
X152574285Y-71267342D01*
X152764761Y-71124485D01*
X152860000Y-70981628D01*
X152955238Y-70695914D01*
X153050476Y-70124485D01*
X153050476Y-69410200D01*
X152955238Y-68838771D01*
X152860000Y-68553057D01*
X152764761Y-68410200D01*
X152574285Y-68267342D01*
X148383809Y-71267342D02*
X149050476Y-69838771D01*
X149526666Y-71267342D02*
X149526666Y-68267342D01*
X148764761Y-68267342D01*
X148574285Y-68410200D01*
X148479047Y-68553057D01*
X148383809Y-68838771D01*
X148383809Y-69267342D01*
X148479047Y-69553057D01*
X148574285Y-69695914D01*
X148764761Y-69838771D01*
X149526666Y-69838771D01*
X146764761Y-71124485D02*
X146955238Y-71267342D01*
X147336190Y-71267342D01*
X147526666Y-71124485D01*
X147621904Y-70838771D01*
X147621904Y-69695914D01*
X147526666Y-69410200D01*
X147336190Y-69267342D01*
X146955238Y-69267342D01*
X146764761Y-69410200D01*
X146669523Y-69695914D01*
X146669523Y-69981628D01*
X147621904Y-70267342D01*
X146098095Y-69267342D02*
X145336190Y-69267342D01*
X145812380Y-68267342D02*
X145812380Y-70838771D01*
X145717142Y-71124485D01*
X145526666Y-71267342D01*
X145336190Y-71267342D01*
X144669523Y-71267342D02*
X144669523Y-69267342D01*
X144669523Y-69838771D02*
X144574285Y-69553057D01*
X144479047Y-69410200D01*
X144288571Y-69267342D01*
X144098095Y-69267342D01*
X143145714Y-71267342D02*
X143336190Y-71124485D01*
X143431428Y-70981628D01*
X143526666Y-70695914D01*
X143526666Y-69838771D01*
X143431428Y-69553057D01*
X143336190Y-69410200D01*
X143145714Y-69267342D01*
X142860000Y-69267342D01*
X142669523Y-69410200D01*
X142574285Y-69553057D01*
X142479047Y-69838771D01*
X142479047Y-70695914D01*
X142574285Y-70981628D01*
X142669523Y-71124485D01*
X142860000Y-71267342D01*
X143145714Y-71267342D01*
X138955238Y-70981628D02*
X139050476Y-71124485D01*
X139336190Y-71267342D01*
X139526666Y-71267342D01*
X139812380Y-71124485D01*
X140002857Y-70838771D01*
X140098095Y-70553057D01*
X140193333Y-69981628D01*
X140193333Y-69553057D01*
X140098095Y-68981628D01*
X140002857Y-68695914D01*
X139812380Y-68410200D01*
X139526666Y-68267342D01*
X139336190Y-68267342D01*
X139050476Y-68410200D01*
X138955238Y-68553057D01*
X137812380Y-71267342D02*
X138002857Y-71124485D01*
X138098095Y-70981628D01*
X138193333Y-70695914D01*
X138193333Y-69838771D01*
X138098095Y-69553057D01*
X138002857Y-69410200D01*
X137812380Y-69267342D01*
X137526666Y-69267342D01*
X137336190Y-69410200D01*
X137240952Y-69553057D01*
X137145714Y-69838771D01*
X137145714Y-70695914D01*
X137240952Y-70981628D01*
X137336190Y-71124485D01*
X137526666Y-71267342D01*
X137812380Y-71267342D01*
X136288571Y-71267342D02*
X136288571Y-69267342D01*
X136288571Y-69553057D02*
X136193333Y-69410200D01*
X136002857Y-69267342D01*
X135717142Y-69267342D01*
X135526666Y-69410200D01*
X135431428Y-69695914D01*
X135431428Y-71267342D01*
X135431428Y-69695914D02*
X135336190Y-69410200D01*
X135145714Y-69267342D01*
X134860000Y-69267342D01*
X134669523Y-69410200D01*
X134574285Y-69695914D01*
X134574285Y-71267342D01*
X133621904Y-69267342D02*
X133621904Y-72267342D01*
X133621904Y-69410200D02*
X133431428Y-69267342D01*
X133050476Y-69267342D01*
X132860000Y-69410200D01*
X132764761Y-69553057D01*
X132669523Y-69838771D01*
X132669523Y-70695914D01*
X132764761Y-70981628D01*
X132860000Y-71124485D01*
X133050476Y-71267342D01*
X133431428Y-71267342D01*
X133621904Y-71124485D01*
X130955238Y-69267342D02*
X130955238Y-71267342D01*
X131812380Y-69267342D02*
X131812380Y-70838771D01*
X131717142Y-71124485D01*
X131526666Y-71267342D01*
X131240952Y-71267342D01*
X131050476Y-71124485D01*
X130955238Y-70981628D01*
X130288571Y-69267342D02*
X129526666Y-69267342D01*
X130002857Y-68267342D02*
X130002857Y-70838771D01*
X129907619Y-71124485D01*
X129717142Y-71267342D01*
X129526666Y-71267342D01*
X128098095Y-71124485D02*
X128288571Y-71267342D01*
X128669523Y-71267342D01*
X128860000Y-71124485D01*
X128955238Y-70838771D01*
X128955238Y-69695914D01*
X128860000Y-69410200D01*
X128669523Y-69267342D01*
X128288571Y-69267342D01*
X128098095Y-69410200D01*
X128002857Y-69695914D01*
X128002857Y-69981628D01*
X128955238Y-70267342D01*
X127145714Y-71267342D02*
X127145714Y-69267342D01*
X127145714Y-69838771D02*
X127050476Y-69553057D01*
X126955238Y-69410200D01*
X126764761Y-69267342D01*
X126574285Y-69267342D01*
D12*
G36*
X123936094Y-84725062D02*
X123673519Y-84908190D01*
X123489995Y-85117698D01*
X123443451Y-85314731D01*
X123526694Y-85615292D01*
X123615560Y-85842704D01*
X123810923Y-86255474D01*
X124134618Y-86857679D01*
X124549392Y-87585739D01*
X125017994Y-88376073D01*
X125503170Y-89165103D01*
X125967668Y-89889247D01*
X126123399Y-90122919D01*
X126779443Y-90910652D01*
X127600411Y-91625884D01*
X128369193Y-92110578D01*
X128736612Y-92249791D01*
X129307589Y-92412581D01*
X129987331Y-92573319D01*
X130362476Y-92649524D01*
X131052859Y-92795539D01*
X131676900Y-92953283D01*
X132143691Y-93098600D01*
X132300651Y-93164572D01*
X132805516Y-93534258D01*
X133403765Y-94155911D01*
X134077919Y-95000170D01*
X134810498Y-96037677D01*
X135584021Y-97239074D01*
X136381009Y-98575001D01*
X137183981Y-100016100D01*
X137975460Y-101533013D01*
X138737963Y-103096380D01*
X139454012Y-104676843D01*
X140106126Y-106245043D01*
X140140540Y-106332262D01*
X140880501Y-108298218D01*
X141534341Y-110207576D01*
X142097129Y-112036355D01*
X142563932Y-113760577D01*
X142929822Y-115356263D01*
X143189866Y-116799435D01*
X143339134Y-118066113D01*
X143372695Y-119132320D01*
X143285617Y-119974076D01*
X143072971Y-120567403D01*
X143069142Y-120573729D01*
X142617956Y-121039566D01*
X141979084Y-121296394D01*
X141177865Y-121349807D01*
X140239636Y-121205399D01*
X139189736Y-120868766D01*
X138053503Y-120345502D01*
X136856275Y-119641201D01*
X135934907Y-118998532D01*
X134870918Y-118176194D01*
X133670491Y-117197708D01*
X132406560Y-116125090D01*
X131152061Y-115020359D01*
X129979930Y-113945531D01*
X129864517Y-113836851D01*
X129223341Y-113247935D01*
X128651675Y-112754122D01*
X128190410Y-112388587D01*
X127880437Y-112184503D01*
X127789133Y-112153095D01*
X127457960Y-112286618D01*
X127207270Y-112617642D01*
X127099131Y-113041847D01*
X127122159Y-113274147D01*
X127281588Y-113538955D01*
X127651584Y-113962602D01*
X128202927Y-114519705D01*
X128906401Y-115184881D01*
X129732785Y-115932749D01*
X130652862Y-116737926D01*
X131637414Y-117575029D01*
X132657221Y-118418677D01*
X133683065Y-119243487D01*
X134685727Y-120024076D01*
X135635990Y-120735062D01*
X136073443Y-121050208D01*
X137812290Y-122179533D01*
X139499285Y-123050889D01*
X141191882Y-123688240D01*
X142947534Y-124115550D01*
X143715976Y-124237938D01*
X144514583Y-124336996D01*
X145103116Y-124378157D01*
X145568617Y-124359690D01*
X145998133Y-124279861D01*
X146325812Y-124185973D01*
X147116644Y-123874203D01*
X147711301Y-123468023D01*
X148161636Y-122910007D01*
X148519502Y-122142731D01*
X148717533Y-121537261D01*
X148910088Y-120607057D01*
X148959785Y-119582706D01*
X148861857Y-118435446D01*
X148611538Y-117136513D01*
X148204063Y-115657142D01*
X147634665Y-113968570D01*
X147325493Y-113135833D01*
X147019068Y-112361955D01*
X146641944Y-111457477D01*
X146231319Y-110507280D01*
X145824388Y-109596242D01*
X145458347Y-108809245D01*
X145205337Y-108297738D01*
X144926868Y-107747673D01*
X144647352Y-107175402D01*
X144605954Y-107088214D01*
X144410368Y-106698376D01*
X144112322Y-106133249D01*
X143758545Y-105480558D01*
X143518738Y-105047143D01*
X143128999Y-104348132D01*
X142737847Y-103645026D01*
X142403073Y-103041777D01*
X142257884Y-102779286D01*
X141946678Y-102243418D01*
X141629454Y-101740740D01*
X141447959Y-101479895D01*
X141222207Y-101155318D01*
X141102699Y-100937398D01*
X141097000Y-100911817D01*
X141016418Y-100751903D01*
X140799721Y-100403550D01*
X140484483Y-99925840D01*
X140265453Y-99604285D01*
X139908708Y-99073323D01*
X139628538Y-98631554D01*
X139462753Y-98339963D01*
X139433905Y-98263198D01*
X139330238Y-98066564D01*
X139197754Y-97933418D01*
X138993301Y-97708651D01*
X138695776Y-97318211D01*
X138409487Y-96905632D01*
X137947156Y-96302259D01*
X137266024Y-95547492D01*
X136391758Y-94667894D01*
X135350026Y-93690026D01*
X134973786Y-93350209D01*
X134369024Y-92808896D01*
X135276167Y-92807965D01*
X135622578Y-92803492D01*
X136233912Y-92791107D01*
X137072837Y-92771742D01*
X138102024Y-92746328D01*
X139284143Y-92715798D01*
X140581865Y-92681084D01*
X141957859Y-92643117D01*
X142561388Y-92626106D01*
X144253541Y-92580561D01*
X145661613Y-92548307D01*
X146803609Y-92529308D01*
X147697536Y-92523531D01*
X148361399Y-92530939D01*
X148813204Y-92551499D01*
X149070958Y-92585175D01*
X149142141Y-92613380D01*
X149321796Y-92858967D01*
X149511574Y-93255440D01*
X149550346Y-93358113D01*
X149670657Y-93641771D01*
X149907873Y-94155741D01*
X150242520Y-94860455D01*
X150655128Y-95716346D01*
X151126223Y-96683844D01*
X151636334Y-97723383D01*
X152165988Y-98795393D01*
X152695713Y-99860306D01*
X153206036Y-100878554D01*
X153677487Y-101810569D01*
X154090592Y-102616782D01*
X154372676Y-103157262D01*
X154912600Y-104167212D01*
X155481243Y-105209919D01*
X156054873Y-106243776D01*
X156609758Y-107227176D01*
X157122167Y-108118511D01*
X157568366Y-108876175D01*
X157924624Y-109458559D01*
X158167210Y-109824056D01*
X158200187Y-109867709D01*
X158402448Y-110162813D01*
X158483905Y-110354778D01*
X158562000Y-110543437D01*
X158761650Y-110887085D01*
X158917515Y-111128139D01*
X159142715Y-111465528D01*
X159498270Y-111999851D01*
X159947531Y-112675961D01*
X160453853Y-113438712D01*
X160896702Y-114106417D01*
X162189826Y-115990388D01*
X163460882Y-117712147D01*
X164693777Y-119253640D01*
X165872420Y-120596813D01*
X166980719Y-121723612D01*
X168002582Y-122615984D01*
X168921916Y-123255874D01*
X169178026Y-123397302D01*
X169655668Y-123582736D01*
X170214383Y-123721347D01*
X170325474Y-123738924D01*
X170722505Y-123755996D01*
X171111744Y-123676618D01*
X171535615Y-123475581D01*
X172036544Y-123127673D01*
X172656957Y-122607683D01*
X173439278Y-121890400D01*
X173444608Y-121885392D01*
X174450437Y-120903586D01*
X175232470Y-120060201D01*
X175783842Y-119363718D01*
X176097691Y-118822617D01*
X176173191Y-118513758D01*
X176110213Y-118099727D01*
X175894079Y-117879368D01*
X175483984Y-117832758D01*
X174948327Y-117915747D01*
X174208623Y-118007181D01*
X173278299Y-118023656D01*
X172258002Y-117971443D01*
X171248380Y-117856810D01*
X170350078Y-117686028D01*
X170073562Y-117612079D01*
X169212907Y-117329892D01*
X168434313Y-117003036D01*
X167639305Y-116583911D01*
X166729407Y-116024915D01*
X166552317Y-115910008D01*
X166001065Y-115511734D01*
X165331100Y-114969230D01*
X164598458Y-114334216D01*
X163859172Y-113658413D01*
X163169278Y-112993539D01*
X162584811Y-112391316D01*
X162161807Y-111903463D01*
X162055508Y-111759484D01*
X161817417Y-111424476D01*
X161459419Y-110935881D01*
X161045238Y-110380352D01*
X160888083Y-110171984D01*
X160489078Y-109633691D01*
X160044938Y-109016591D01*
X159590067Y-108370756D01*
X159158869Y-107746258D01*
X158785749Y-107193167D01*
X158505112Y-106761555D01*
X158351361Y-106501492D01*
X158332714Y-106452975D01*
X158253401Y-106293381D01*
X158057478Y-105993337D01*
X158005779Y-105919802D01*
X157692876Y-105436822D01*
X157269216Y-104717837D01*
X156754060Y-103799842D01*
X156166667Y-102719834D01*
X155526297Y-101514810D01*
X154852208Y-100221765D01*
X154163661Y-98877696D01*
X153479916Y-97519599D01*
X152820231Y-96184471D01*
X152203867Y-94909307D01*
X151650082Y-93731105D01*
X151569766Y-93556666D01*
X151118728Y-92573928D01*
X152495662Y-92527169D01*
X153179852Y-92521255D01*
X154057824Y-92538747D01*
X155022163Y-92576314D01*
X155965453Y-92630625D01*
X156071784Y-92638084D01*
X157562283Y-92787396D01*
X158804438Y-93016960D01*
X159846856Y-93350003D01*
X160738148Y-93809752D01*
X161526924Y-94419433D01*
X162261793Y-95202273D01*
X162740481Y-95824524D01*
X163040364Y-96295189D01*
X163406521Y-96949916D01*
X163790491Y-97692997D01*
X164143816Y-98428724D01*
X164418036Y-99061390D01*
X164520913Y-99340863D01*
X164803491Y-99872517D01*
X165205182Y-100143794D01*
X165669458Y-100145957D01*
X165939038Y-100019866D01*
X166086557Y-99788906D01*
X166106645Y-99426456D01*
X165993929Y-98905899D01*
X165743037Y-98200614D01*
X165348599Y-97283985D01*
X164897629Y-96321254D01*
X164618393Y-95731592D01*
X164396389Y-95248093D01*
X164259463Y-94932280D01*
X164229143Y-94844143D01*
X164155520Y-94676161D01*
X163970144Y-94351930D01*
X163874092Y-94196222D01*
X163575700Y-93701190D01*
X163253013Y-93135824D01*
X163152317Y-92951905D01*
X162560698Y-91950827D01*
X161874683Y-90948644D01*
X161137175Y-89996451D01*
X160391074Y-89145348D01*
X159679283Y-88446432D01*
X159044705Y-87950802D01*
X158861881Y-87841820D01*
X158466894Y-87705553D01*
X157844400Y-87608817D01*
X156961584Y-87546963D01*
X156708648Y-87536840D01*
X155972741Y-87524357D01*
X154983690Y-87527895D01*
X153790214Y-87545761D01*
X152441029Y-87576259D01*
X150984856Y-87617695D01*
X149470411Y-87668374D01*
X147946412Y-87726602D01*
X146461577Y-87790684D01*
X145064625Y-87858924D01*
X143804273Y-87929629D01*
X142729240Y-88001105D01*
X142230929Y-88040444D01*
X140445418Y-88181131D01*
X138658952Y-88300780D01*
X136905113Y-88398524D01*
X135217486Y-88473499D01*
X133629653Y-88524839D01*
X132175197Y-88551680D01*
X130887704Y-88553157D01*
X129800755Y-88528404D01*
X128947934Y-88476557D01*
X128366644Y-88397562D01*
X127559883Y-88185062D01*
X126901254Y-87898162D01*
X126328830Y-87489545D01*
X125780680Y-86911897D01*
X125194878Y-86117899D01*
X124998263Y-85823946D01*
X124664223Y-85335500D01*
X124374983Y-84946757D01*
X124183321Y-84727847D01*
X124159530Y-84709467D01*
X123936094Y-84725062D01*
X123936094Y-84725062D01*
G37*
X123936094Y-84725062D02*
X123673519Y-84908190D01*
X123489995Y-85117698D01*
X123443451Y-85314731D01*
X123526694Y-85615292D01*
X123615560Y-85842704D01*
X123810923Y-86255474D01*
X124134618Y-86857679D01*
X124549392Y-87585739D01*
X125017994Y-88376073D01*
X125503170Y-89165103D01*
X125967668Y-89889247D01*
X126123399Y-90122919D01*
X126779443Y-90910652D01*
X127600411Y-91625884D01*
X128369193Y-92110578D01*
X128736612Y-92249791D01*
X129307589Y-92412581D01*
X129987331Y-92573319D01*
X130362476Y-92649524D01*
X131052859Y-92795539D01*
X131676900Y-92953283D01*
X132143691Y-93098600D01*
X132300651Y-93164572D01*
X132805516Y-93534258D01*
X133403765Y-94155911D01*
X134077919Y-95000170D01*
X134810498Y-96037677D01*
X135584021Y-97239074D01*
X136381009Y-98575001D01*
X137183981Y-100016100D01*
X137975460Y-101533013D01*
X138737963Y-103096380D01*
X139454012Y-104676843D01*
X140106126Y-106245043D01*
X140140540Y-106332262D01*
X140880501Y-108298218D01*
X141534341Y-110207576D01*
X142097129Y-112036355D01*
X142563932Y-113760577D01*
X142929822Y-115356263D01*
X143189866Y-116799435D01*
X143339134Y-118066113D01*
X143372695Y-119132320D01*
X143285617Y-119974076D01*
X143072971Y-120567403D01*
X143069142Y-120573729D01*
X142617956Y-121039566D01*
X141979084Y-121296394D01*
X141177865Y-121349807D01*
X140239636Y-121205399D01*
X139189736Y-120868766D01*
X138053503Y-120345502D01*
X136856275Y-119641201D01*
X135934907Y-118998532D01*
X134870918Y-118176194D01*
X133670491Y-117197708D01*
X132406560Y-116125090D01*
X131152061Y-115020359D01*
X129979930Y-113945531D01*
X129864517Y-113836851D01*
X129223341Y-113247935D01*
X128651675Y-112754122D01*
X128190410Y-112388587D01*
X127880437Y-112184503D01*
X127789133Y-112153095D01*
X127457960Y-112286618D01*
X127207270Y-112617642D01*
X127099131Y-113041847D01*
X127122159Y-113274147D01*
X127281588Y-113538955D01*
X127651584Y-113962602D01*
X128202927Y-114519705D01*
X128906401Y-115184881D01*
X129732785Y-115932749D01*
X130652862Y-116737926D01*
X131637414Y-117575029D01*
X132657221Y-118418677D01*
X133683065Y-119243487D01*
X134685727Y-120024076D01*
X135635990Y-120735062D01*
X136073443Y-121050208D01*
X137812290Y-122179533D01*
X139499285Y-123050889D01*
X141191882Y-123688240D01*
X142947534Y-124115550D01*
X143715976Y-124237938D01*
X144514583Y-124336996D01*
X145103116Y-124378157D01*
X145568617Y-124359690D01*
X145998133Y-124279861D01*
X146325812Y-124185973D01*
X147116644Y-123874203D01*
X147711301Y-123468023D01*
X148161636Y-122910007D01*
X148519502Y-122142731D01*
X148717533Y-121537261D01*
X148910088Y-120607057D01*
X148959785Y-119582706D01*
X148861857Y-118435446D01*
X148611538Y-117136513D01*
X148204063Y-115657142D01*
X147634665Y-113968570D01*
X147325493Y-113135833D01*
X147019068Y-112361955D01*
X146641944Y-111457477D01*
X146231319Y-110507280D01*
X145824388Y-109596242D01*
X145458347Y-108809245D01*
X145205337Y-108297738D01*
X144926868Y-107747673D01*
X144647352Y-107175402D01*
X144605954Y-107088214D01*
X144410368Y-106698376D01*
X144112322Y-106133249D01*
X143758545Y-105480558D01*
X143518738Y-105047143D01*
X143128999Y-104348132D01*
X142737847Y-103645026D01*
X142403073Y-103041777D01*
X142257884Y-102779286D01*
X141946678Y-102243418D01*
X141629454Y-101740740D01*
X141447959Y-101479895D01*
X141222207Y-101155318D01*
X141102699Y-100937398D01*
X141097000Y-100911817D01*
X141016418Y-100751903D01*
X140799721Y-100403550D01*
X140484483Y-99925840D01*
X140265453Y-99604285D01*
X139908708Y-99073323D01*
X139628538Y-98631554D01*
X139462753Y-98339963D01*
X139433905Y-98263198D01*
X139330238Y-98066564D01*
X139197754Y-97933418D01*
X138993301Y-97708651D01*
X138695776Y-97318211D01*
X138409487Y-96905632D01*
X137947156Y-96302259D01*
X137266024Y-95547492D01*
X136391758Y-94667894D01*
X135350026Y-93690026D01*
X134973786Y-93350209D01*
X134369024Y-92808896D01*
X135276167Y-92807965D01*
X135622578Y-92803492D01*
X136233912Y-92791107D01*
X137072837Y-92771742D01*
X138102024Y-92746328D01*
X139284143Y-92715798D01*
X140581865Y-92681084D01*
X141957859Y-92643117D01*
X142561388Y-92626106D01*
X144253541Y-92580561D01*
X145661613Y-92548307D01*
X146803609Y-92529308D01*
X147697536Y-92523531D01*
X148361399Y-92530939D01*
X148813204Y-92551499D01*
X149070958Y-92585175D01*
X149142141Y-92613380D01*
X149321796Y-92858967D01*
X149511574Y-93255440D01*
X149550346Y-93358113D01*
X149670657Y-93641771D01*
X149907873Y-94155741D01*
X150242520Y-94860455D01*
X150655128Y-95716346D01*
X151126223Y-96683844D01*
X151636334Y-97723383D01*
X152165988Y-98795393D01*
X152695713Y-99860306D01*
X153206036Y-100878554D01*
X153677487Y-101810569D01*
X154090592Y-102616782D01*
X154372676Y-103157262D01*
X154912600Y-104167212D01*
X155481243Y-105209919D01*
X156054873Y-106243776D01*
X156609758Y-107227176D01*
X157122167Y-108118511D01*
X157568366Y-108876175D01*
X157924624Y-109458559D01*
X158167210Y-109824056D01*
X158200187Y-109867709D01*
X158402448Y-110162813D01*
X158483905Y-110354778D01*
X158562000Y-110543437D01*
X158761650Y-110887085D01*
X158917515Y-111128139D01*
X159142715Y-111465528D01*
X159498270Y-111999851D01*
X159947531Y-112675961D01*
X160453853Y-113438712D01*
X160896702Y-114106417D01*
X162189826Y-115990388D01*
X163460882Y-117712147D01*
X164693777Y-119253640D01*
X165872420Y-120596813D01*
X166980719Y-121723612D01*
X168002582Y-122615984D01*
X168921916Y-123255874D01*
X169178026Y-123397302D01*
X169655668Y-123582736D01*
X170214383Y-123721347D01*
X170325474Y-123738924D01*
X170722505Y-123755996D01*
X171111744Y-123676618D01*
X171535615Y-123475581D01*
X172036544Y-123127673D01*
X172656957Y-122607683D01*
X173439278Y-121890400D01*
X173444608Y-121885392D01*
X174450437Y-120903586D01*
X175232470Y-120060201D01*
X175783842Y-119363718D01*
X176097691Y-118822617D01*
X176173191Y-118513758D01*
X176110213Y-118099727D01*
X175894079Y-117879368D01*
X175483984Y-117832758D01*
X174948327Y-117915747D01*
X174208623Y-118007181D01*
X173278299Y-118023656D01*
X172258002Y-117971443D01*
X171248380Y-117856810D01*
X170350078Y-117686028D01*
X170073562Y-117612079D01*
X169212907Y-117329892D01*
X168434313Y-117003036D01*
X167639305Y-116583911D01*
X166729407Y-116024915D01*
X166552317Y-115910008D01*
X166001065Y-115511734D01*
X165331100Y-114969230D01*
X164598458Y-114334216D01*
X163859172Y-113658413D01*
X163169278Y-112993539D01*
X162584811Y-112391316D01*
X162161807Y-111903463D01*
X162055508Y-111759484D01*
X161817417Y-111424476D01*
X161459419Y-110935881D01*
X161045238Y-110380352D01*
X160888083Y-110171984D01*
X160489078Y-109633691D01*
X160044938Y-109016591D01*
X159590067Y-108370756D01*
X159158869Y-107746258D01*
X158785749Y-107193167D01*
X158505112Y-106761555D01*
X158351361Y-106501492D01*
X158332714Y-106452975D01*
X158253401Y-106293381D01*
X158057478Y-105993337D01*
X158005779Y-105919802D01*
X157692876Y-105436822D01*
X157269216Y-104717837D01*
X156754060Y-103799842D01*
X156166667Y-102719834D01*
X155526297Y-101514810D01*
X154852208Y-100221765D01*
X154163661Y-98877696D01*
X153479916Y-97519599D01*
X152820231Y-96184471D01*
X152203867Y-94909307D01*
X151650082Y-93731105D01*
X151569766Y-93556666D01*
X151118728Y-92573928D01*
X152495662Y-92527169D01*
X153179852Y-92521255D01*
X154057824Y-92538747D01*
X155022163Y-92576314D01*
X155965453Y-92630625D01*
X156071784Y-92638084D01*
X157562283Y-92787396D01*
X158804438Y-93016960D01*
X159846856Y-93350003D01*
X160738148Y-93809752D01*
X161526924Y-94419433D01*
X162261793Y-95202273D01*
X162740481Y-95824524D01*
X163040364Y-96295189D01*
X163406521Y-96949916D01*
X163790491Y-97692997D01*
X164143816Y-98428724D01*
X164418036Y-99061390D01*
X164520913Y-99340863D01*
X164803491Y-99872517D01*
X165205182Y-100143794D01*
X165669458Y-100145957D01*
X165939038Y-100019866D01*
X166086557Y-99788906D01*
X166106645Y-99426456D01*
X165993929Y-98905899D01*
X165743037Y-98200614D01*
X165348599Y-97283985D01*
X164897629Y-96321254D01*
X164618393Y-95731592D01*
X164396389Y-95248093D01*
X164259463Y-94932280D01*
X164229143Y-94844143D01*
X164155520Y-94676161D01*
X163970144Y-94351930D01*
X163874092Y-94196222D01*
X163575700Y-93701190D01*
X163253013Y-93135824D01*
X163152317Y-92951905D01*
X162560698Y-91950827D01*
X161874683Y-90948644D01*
X161137175Y-89996451D01*
X160391074Y-89145348D01*
X159679283Y-88446432D01*
X159044705Y-87950802D01*
X158861881Y-87841820D01*
X158466894Y-87705553D01*
X157844400Y-87608817D01*
X156961584Y-87546963D01*
X156708648Y-87536840D01*
X155972741Y-87524357D01*
X154983690Y-87527895D01*
X153790214Y-87545761D01*
X152441029Y-87576259D01*
X150984856Y-87617695D01*
X149470411Y-87668374D01*
X147946412Y-87726602D01*
X146461577Y-87790684D01*
X145064625Y-87858924D01*
X143804273Y-87929629D01*
X142729240Y-88001105D01*
X142230929Y-88040444D01*
X140445418Y-88181131D01*
X138658952Y-88300780D01*
X136905113Y-88398524D01*
X135217486Y-88473499D01*
X133629653Y-88524839D01*
X132175197Y-88551680D01*
X130887704Y-88553157D01*
X129800755Y-88528404D01*
X128947934Y-88476557D01*
X128366644Y-88397562D01*
X127559883Y-88185062D01*
X126901254Y-87898162D01*
X126328830Y-87489545D01*
X125780680Y-86911897D01*
X125194878Y-86117899D01*
X124998263Y-85823946D01*
X124664223Y-85335500D01*
X124374983Y-84946757D01*
X124183321Y-84727847D01*
X124159530Y-84709467D01*
X123936094Y-84725062D01*
M02*
