M48
;DRILL file {KiCad (5.0.0)} date 10/23/18 17:27:26
;FORMAT={-:-/ absolute / inch / decimal}
FMAT,2
INCH,TZ
T1C0.0130
T2C0.0315
T3C0.0394
T4C0.1260
%
G90
G05
M72
T1
X4.125Y-4.3
X4.125Y-4.4
X4.125Y-4.5
X4.125Y-4.6
X4.125Y-4.7
X4.4606Y-4.3346
X4.6102Y-4.3346
X4.7598Y-4.3346
X4.9094Y-4.3346
X5.0512Y-4.3268
X5.3725Y-3.8465
X5.3725Y-3.889
X5.374Y-3.8085
X5.85Y-4.45
X6.025Y-4.45
X6.05Y-4.35
X6.1Y-3.7783
X6.1Y-3.8692
X6.138Y-4.395
X6.1814Y-3.8711
X6.196Y-3.9176
X6.2398Y-3.8736
X6.2426Y-4.3698
X6.3Y-3.525
X6.302Y-3.9359
X6.3209Y-4.3698
X6.3875Y-3.8753
X6.4Y-3.525
X6.5741Y-3.7662
X6.6632Y-3.7656
X6.675Y-4.5
X6.725Y-4.5
X6.7536Y-3.7632
X6.875Y-4.5
T2
X4.95Y-4.3
X4.95Y-4.6
X6.7Y-4.3
X6.7Y-4.6
X6.8Y-4.3
X6.8Y-4.6
X6.9Y-4.3
X6.9Y-4.6
X7.Y-4.3
X7.Y-4.6
X7.1Y-4.3
X7.1Y-4.6
X7.2Y-4.3
X7.2Y-4.6
X7.3Y-4.3
X7.3Y-4.6
X6.45Y-4.3531
X6.45Y-4.55
X4.5Y-4.3
X4.5Y-4.6
X5.1Y-4.3
X5.1Y-4.6
X5.4Y-3.4
X5.4Y-4.
X5.5Y-3.4
X5.5Y-4.
X5.6Y-3.4
X5.6Y-4.
X5.7Y-3.4
X5.7Y-4.
X5.8Y-3.4
X5.8Y-4.
X5.9Y-3.4
X5.9Y-4.
X6.Y-3.4
X6.Y-4.
X6.1Y-3.4
X6.1Y-4.
X6.2Y-3.4
X6.2Y-4.
X6.3Y-3.4
X6.3Y-4.
X6.4Y-3.4
X6.4Y-4.
X6.5Y-3.4
X6.5Y-4.
X6.6Y-3.4
X6.6Y-4.
X6.7Y-3.4
X6.7Y-4.
X6.8Y-3.4
X6.8Y-4.
X6.9Y-3.4
X6.9Y-4.
X7.Y-3.4
X7.Y-4.
X7.1Y-3.4
X7.1Y-4.
X7.2Y-3.4
X7.2Y-4.
X7.3Y-3.4
X7.3Y-4.
X5.4Y-4.3
X5.4Y-4.6
X5.5Y-4.3
X5.5Y-4.6
X5.6Y-4.3
X5.6Y-4.6
X5.7Y-4.3
X5.7Y-4.6
X5.8Y-4.3
X5.8Y-4.6
X5.9Y-4.3
X5.9Y-4.6
X6.Y-4.3
X6.Y-4.6
X6.1Y-4.3
X6.1Y-4.6
X6.2Y-4.3
X6.2Y-4.6
X6.3Y-4.3
X6.3Y-4.6
X4.65Y-4.3
X4.65Y-4.6
X7.45Y-4.3531
X7.45Y-4.55
X4.36Y-3.55
X4.36Y-3.85
X4.96Y-3.55
X4.96Y-3.85
X4.8Y-4.3
X4.8Y-4.6
X7.45Y-3.6031
X7.45Y-3.8
X5.15Y-3.6031
X5.15Y-3.8
T3
X4.075Y-4.25
X4.075Y-4.35
X4.075Y-4.45
X4.075Y-4.55
X4.075Y-4.65
X4.175Y-4.25
X4.175Y-4.35
X4.175Y-4.45
X4.175Y-4.55
X4.175Y-4.65
X6.129Y-5.321
X6.229Y-5.321
X6.329Y-5.321
X6.429Y-5.321
X6.529Y-5.321
X6.629Y-5.321
X6.729Y-5.321
X6.829Y-5.321
X4.951Y-2.917
X4.951Y-3.017
X5.051Y-2.917
X5.051Y-3.017
X5.151Y-2.917
X5.151Y-3.017
X5.251Y-2.917
X5.251Y-3.017
X5.351Y-2.917
X5.351Y-3.017
X5.451Y-2.917
X5.451Y-3.017
X5.551Y-2.917
X5.551Y-3.017
X5.651Y-2.917
X5.651Y-3.017
X5.751Y-2.917
X5.751Y-3.017
X5.851Y-2.917
X5.851Y-3.017
X5.951Y-2.917
X5.951Y-3.017
X6.051Y-2.917
X6.051Y-3.017
X6.151Y-2.917
X6.151Y-3.017
X6.251Y-2.917
X6.251Y-3.017
X6.351Y-2.917
X6.351Y-3.017
X6.451Y-2.917
X6.451Y-3.017
X6.551Y-2.917
X6.551Y-3.017
X6.651Y-2.917
X6.651Y-3.017
X6.751Y-2.917
X6.751Y-3.017
X6.851Y-2.917
X6.851Y-3.017
X4.97Y-5.321
X5.07Y-5.321
X5.17Y-5.321
X5.27Y-5.321
X5.37Y-5.321
X5.47Y-5.321
X5.57Y-5.321
X5.67Y-5.321
T4
X4.1Y-2.8
X4.6Y-2.8
X7.7Y-2.8
X7.2Y-2.8
X4.6Y-5.4
X4.1Y-5.4
X7.7Y-5.4
X7.2Y-5.4
T0
M30
