%TF.GenerationSoftware,KiCad,Pcbnew,(5.0.0)*%
%TF.CreationDate,2018-10-23T17:27:05+02:00*%
%TF.ProjectId,S80 Serial,5338302053657269616C2E6B69636164,1.0*%
%TF.SameCoordinates,Original*%
%TF.FileFunction,Soldermask,Bot*%
%TF.FilePolarity,Negative*%
%FSLAX46Y46*%
G04 Gerber Fmt 4.6, Leading zero omitted, Abs format (unit mm)*
G04 Created by KiCad (PCBNEW (5.0.0)) date 10/23/18 17:27:05*
%MOMM*%
%LPD*%
G01*
G04 APERTURE LIST*
%ADD10C,1.701600*%
%ADD11O,1.701600X1.701600*%
%ADD12C,3.301600*%
%ADD13R,1.701600X1.701600*%
%ADD14R,1.801600X1.801600*%
%ADD15O,1.801600X1.801600*%
G04 APERTURE END LIST*
D10*
X114300000Y-109220000D03*
D11*
X114300000Y-116840000D03*
D12*
X195580000Y-137160000D03*
X182880000Y-137160000D03*
X104140000Y-137160000D03*
X116840000Y-137160000D03*
X182880000Y-71120000D03*
X195580000Y-71120000D03*
X116840000Y-71120000D03*
X104140000Y-71120000D03*
D13*
X137160000Y-101600000D03*
D11*
X185420000Y-86360000D03*
X139700000Y-101600000D03*
X182880000Y-86360000D03*
X142240000Y-101600000D03*
X180340000Y-86360000D03*
X144780000Y-101600000D03*
X177800000Y-86360000D03*
X147320000Y-101600000D03*
X175260000Y-86360000D03*
X149860000Y-101600000D03*
X172720000Y-86360000D03*
X152400000Y-101600000D03*
X170180000Y-86360000D03*
X154940000Y-101600000D03*
X167640000Y-86360000D03*
X157480000Y-101600000D03*
X165100000Y-86360000D03*
X160020000Y-101600000D03*
X162560000Y-86360000D03*
X162560000Y-101600000D03*
X160020000Y-86360000D03*
X165100000Y-101600000D03*
X157480000Y-86360000D03*
X167640000Y-101600000D03*
X154940000Y-86360000D03*
X170180000Y-101600000D03*
X152400000Y-86360000D03*
X172720000Y-101600000D03*
X149860000Y-86360000D03*
X175260000Y-101600000D03*
X147320000Y-86360000D03*
X177800000Y-101600000D03*
X144780000Y-86360000D03*
X180340000Y-101600000D03*
X142240000Y-86360000D03*
X182880000Y-101600000D03*
X139700000Y-86360000D03*
X185420000Y-101600000D03*
X137160000Y-86360000D03*
D14*
X125755400Y-76631800D03*
D15*
X125755400Y-74091800D03*
X128295400Y-76631800D03*
X128295400Y-74091800D03*
X130835400Y-76631800D03*
X130835400Y-74091800D03*
X133375400Y-76631800D03*
X133375400Y-74091800D03*
X135915400Y-76631800D03*
X135915400Y-74091800D03*
X138455400Y-76631800D03*
X138455400Y-74091800D03*
X140995400Y-76631800D03*
X140995400Y-74091800D03*
X143535400Y-76631800D03*
X143535400Y-74091800D03*
X146075400Y-76631800D03*
X146075400Y-74091800D03*
X148615400Y-76631800D03*
X148615400Y-74091800D03*
X151155400Y-76631800D03*
X151155400Y-74091800D03*
X153695400Y-76631800D03*
X153695400Y-74091800D03*
X156235400Y-76631800D03*
X156235400Y-74091800D03*
X158775400Y-76631800D03*
X158775400Y-74091800D03*
X161315400Y-76631800D03*
X161315400Y-74091800D03*
X163855400Y-76631800D03*
X163855400Y-74091800D03*
X166395400Y-76631800D03*
X166395400Y-74091800D03*
X168935400Y-76631800D03*
X168935400Y-74091800D03*
X171475400Y-76631800D03*
X171475400Y-74091800D03*
X174015400Y-76631800D03*
X174015400Y-74091800D03*
X144018000Y-135153400D03*
X141478000Y-135153400D03*
X138938000Y-135153400D03*
X136398000Y-135153400D03*
X133858000Y-135153400D03*
X131318000Y-135153400D03*
X128778000Y-135153400D03*
D14*
X126238000Y-135153400D03*
D15*
X173456600Y-135153400D03*
X170916600Y-135153400D03*
X168376600Y-135153400D03*
X165836600Y-135153400D03*
X163296600Y-135153400D03*
X160756600Y-135153400D03*
X158216600Y-135153400D03*
D14*
X155676600Y-135153400D03*
D10*
X189230000Y-96520000D03*
X189230000Y-91520000D03*
X163830000Y-110570000D03*
X163830000Y-115570000D03*
X189230000Y-115570000D03*
X189230000Y-110570000D03*
X130810000Y-96520000D03*
X130810000Y-91520000D03*
D11*
X170180000Y-109220000D03*
X185420000Y-116840000D03*
X172720000Y-109220000D03*
X182880000Y-116840000D03*
X175260000Y-109220000D03*
X180340000Y-116840000D03*
X177800000Y-109220000D03*
X177800000Y-116840000D03*
X180340000Y-109220000D03*
X175260000Y-116840000D03*
X182880000Y-109220000D03*
X172720000Y-116840000D03*
X185420000Y-109220000D03*
D13*
X170180000Y-116840000D03*
X137160000Y-116840000D03*
D11*
X160020000Y-109220000D03*
X139700000Y-116840000D03*
X157480000Y-109220000D03*
X142240000Y-116840000D03*
X154940000Y-109220000D03*
X144780000Y-116840000D03*
X152400000Y-109220000D03*
X147320000Y-116840000D03*
X149860000Y-109220000D03*
X149860000Y-116840000D03*
X147320000Y-109220000D03*
X152400000Y-116840000D03*
X144780000Y-109220000D03*
X154940000Y-116840000D03*
X142240000Y-109220000D03*
X157480000Y-116840000D03*
X139700000Y-109220000D03*
X160020000Y-116840000D03*
X137160000Y-109220000D03*
D13*
X110744000Y-97790000D03*
D10*
X110744000Y-90170000D03*
X125984000Y-90170000D03*
X125984000Y-97790000D03*
D11*
X129540000Y-116840000D03*
D10*
X129540000Y-109220000D03*
X125730000Y-109220000D03*
D11*
X125730000Y-116840000D03*
D10*
X121920000Y-109220000D03*
D11*
X121920000Y-116840000D03*
X118110000Y-116840000D03*
D10*
X118110000Y-109220000D03*
D14*
X103505000Y-107950000D03*
D15*
X106045000Y-107950000D03*
X103505000Y-110490000D03*
X106045000Y-110490000D03*
X103505000Y-113030000D03*
X106045000Y-113030000D03*
X103505000Y-115570000D03*
X106045000Y-115570000D03*
X103505000Y-118110000D03*
X106045000Y-118110000D03*
M02*
