%TF.GenerationSoftware,KiCad,Pcbnew,(5.0.0)*%
%TF.CreationDate,2018-10-23T17:17:03+02:00*%
%TF.ProjectId,S80 Breakout 2in,53383020427265616B6F75742032696E,1.0*%
%TF.SameCoordinates,Original*%
%TF.FileFunction,Copper,L1,Top,Signal*%
%TF.FilePolarity,Positive*%
%FSLAX46Y46*%
G04 Gerber Fmt 4.6, Leading zero omitted, Abs format (unit mm)*
G04 Created by KiCad (PCBNEW (5.0.0)) date 10/23/18 17:17:03*
%MOMM*%
%LPD*%
G01*
G04 APERTURE LIST*
%ADD10O,1.700000X1.700000*%
%ADD11R,1.700000X1.700000*%
%ADD12C,1.500000*%
%ADD13C,0.685800*%
%ADD14C,0.152400*%
%ADD15C,0.254000*%
G04 APERTURE END LIST*
D10*
X100304600Y-59207400D03*
X100304600Y-61747400D03*
X97764600Y-59207400D03*
X97764600Y-61747400D03*
X95224600Y-59207400D03*
X95224600Y-61747400D03*
X92684600Y-59207400D03*
X92684600Y-61747400D03*
X90144600Y-59207400D03*
X90144600Y-61747400D03*
X87604600Y-59207400D03*
X87604600Y-61747400D03*
X85064600Y-59207400D03*
X85064600Y-61747400D03*
X82524600Y-59207400D03*
X82524600Y-61747400D03*
X79984600Y-59207400D03*
X79984600Y-61747400D03*
X77444600Y-59207400D03*
X77444600Y-61747400D03*
X74904600Y-59207400D03*
X74904600Y-61747400D03*
X72364600Y-59207400D03*
X72364600Y-61747400D03*
X69824600Y-59207400D03*
X69824600Y-61747400D03*
X67284600Y-59207400D03*
X67284600Y-61747400D03*
X64744600Y-59207400D03*
X64744600Y-61747400D03*
X62204600Y-59207400D03*
X62204600Y-61747400D03*
X59664600Y-59207400D03*
X59664600Y-61747400D03*
X57124600Y-59207400D03*
X57124600Y-61747400D03*
X54584600Y-59207400D03*
X54584600Y-61747400D03*
X52044600Y-59207400D03*
D11*
X52044600Y-61747400D03*
D12*
X95250000Y-107950000D03*
X95250000Y-95250000D03*
X95250000Y-80010000D03*
X95250000Y-67310000D03*
X95250000Y-90170000D03*
X95250000Y-92710000D03*
X95250000Y-69850000D03*
X95250000Y-97790000D03*
X95250000Y-74930000D03*
X95250000Y-102870000D03*
X95250000Y-82550000D03*
X95250000Y-85090000D03*
X95250000Y-100330000D03*
X95250000Y-72390000D03*
X95250000Y-105410000D03*
X95250000Y-87630000D03*
X95250000Y-77470000D03*
X92710000Y-67310000D03*
X100330000Y-115570000D03*
X100330000Y-113030000D03*
X100330000Y-110490000D03*
X92710000Y-107950000D03*
X92710000Y-105410000D03*
X92710000Y-102870000D03*
X92710000Y-100330000D03*
X92710000Y-97790000D03*
X92710000Y-95250000D03*
X92710000Y-92710000D03*
X92710000Y-90170000D03*
X92710000Y-87630000D03*
X92710000Y-85090000D03*
X92710000Y-82550000D03*
X92710000Y-80010000D03*
X92710000Y-77470000D03*
X92710000Y-74930000D03*
X92710000Y-72390000D03*
X92710000Y-69850000D03*
X57150000Y-110490000D03*
X54610000Y-113030000D03*
X54610000Y-115570000D03*
X52070000Y-110490000D03*
X57150000Y-115570000D03*
X57150000Y-113030000D03*
X54610000Y-110490000D03*
X52070000Y-115570000D03*
X52070000Y-113030000D03*
X67310000Y-115570000D03*
X67310000Y-113030000D03*
X67310000Y-110490000D03*
X74930000Y-110490000D03*
X64770000Y-115570000D03*
X64770000Y-113030000D03*
X64770000Y-110490000D03*
X62230000Y-115570000D03*
X62230000Y-113030000D03*
X62230000Y-110490000D03*
X77470000Y-115570000D03*
X77470000Y-113030000D03*
X77470000Y-110490000D03*
X74930000Y-115570000D03*
X74930000Y-113030000D03*
X72390000Y-115570000D03*
X72390000Y-113030000D03*
X72390000Y-110490000D03*
X69850000Y-115570000D03*
X69850000Y-113030000D03*
X69850000Y-110490000D03*
X59690000Y-115570000D03*
X59690000Y-113030000D03*
X59690000Y-110490000D03*
X97790000Y-115570000D03*
X97790000Y-113030000D03*
X97790000Y-110490000D03*
X90170000Y-107950000D03*
X90170000Y-105410000D03*
X90170000Y-102870000D03*
X90170000Y-100330000D03*
X90170000Y-97790000D03*
X90170000Y-95250000D03*
X90170000Y-92710000D03*
X90170000Y-90170000D03*
X90170000Y-87630000D03*
X90170000Y-85090000D03*
X90170000Y-82550000D03*
X90170000Y-80010000D03*
X90170000Y-77470000D03*
X90170000Y-74930000D03*
X90170000Y-72390000D03*
X90170000Y-69850000D03*
X95250000Y-115570000D03*
X95250000Y-113030000D03*
X95250000Y-110490000D03*
X87630000Y-107950000D03*
X87630000Y-105410000D03*
X87630000Y-102870000D03*
X87630000Y-100330000D03*
X87630000Y-97790000D03*
X87630000Y-95250000D03*
X87630000Y-92710000D03*
X87630000Y-90170000D03*
X87630000Y-87630000D03*
X87630000Y-85090000D03*
X87630000Y-82550000D03*
X87630000Y-80010000D03*
X87630000Y-77470000D03*
X87630000Y-74930000D03*
X87630000Y-72390000D03*
X87630000Y-69850000D03*
X92710000Y-115570000D03*
X92710000Y-113030000D03*
X92710000Y-110490000D03*
X85090000Y-107950000D03*
X85090000Y-105410000D03*
X85090000Y-102870000D03*
X85090000Y-100330000D03*
X85090000Y-97790000D03*
X85090000Y-95250000D03*
X85090000Y-92710000D03*
X85090000Y-90170000D03*
X85090000Y-87630000D03*
X85090000Y-85090000D03*
X85090000Y-82550000D03*
X85090000Y-80010000D03*
X85090000Y-77470000D03*
X85090000Y-74930000D03*
X85090000Y-72390000D03*
X85090000Y-69850000D03*
X90170000Y-115570000D03*
X90170000Y-113030000D03*
X90170000Y-110490000D03*
X82550000Y-107950000D03*
X82550000Y-105410000D03*
X82550000Y-102870000D03*
X82550000Y-100330000D03*
X82550000Y-97790000D03*
X82550000Y-95250000D03*
X82550000Y-92710000D03*
X82550000Y-90170000D03*
X82550000Y-87630000D03*
X82550000Y-85090000D03*
X82550000Y-82550000D03*
X82550000Y-80010000D03*
X82550000Y-77470000D03*
X82550000Y-74930000D03*
X82550000Y-72390000D03*
X82550000Y-69850000D03*
X87630000Y-115570000D03*
X87630000Y-113030000D03*
X87630000Y-110490000D03*
X80010000Y-107950000D03*
X80010000Y-105410000D03*
X80010000Y-102870000D03*
X80010000Y-100330000D03*
X80010000Y-97790000D03*
X80010000Y-95250000D03*
X80010000Y-92710000D03*
X80010000Y-90170000D03*
X80010000Y-87630000D03*
X80010000Y-85090000D03*
X80010000Y-82550000D03*
X80010000Y-80010000D03*
X80010000Y-77470000D03*
X80010000Y-74930000D03*
X80010000Y-72390000D03*
X80010000Y-69850000D03*
X85090000Y-115570000D03*
X85090000Y-113030000D03*
X85090000Y-110490000D03*
X77470000Y-107950000D03*
X77470000Y-105410000D03*
X77470000Y-102870000D03*
X77470000Y-100330000D03*
X77470000Y-97790000D03*
X77470000Y-95250000D03*
X77470000Y-92710000D03*
X77470000Y-90170000D03*
X77470000Y-87630000D03*
X77470000Y-85090000D03*
X77470000Y-82550000D03*
X77470000Y-80010000D03*
X77470000Y-77470000D03*
X77470000Y-74930000D03*
X77470000Y-72390000D03*
X77470000Y-69850000D03*
X82550000Y-115570000D03*
X82550000Y-113030000D03*
X82550000Y-110490000D03*
X74930000Y-107950000D03*
X74930000Y-105410000D03*
X74930000Y-102870000D03*
X74930000Y-100330000D03*
X74930000Y-97790000D03*
X74930000Y-95250000D03*
X74930000Y-92710000D03*
X74930000Y-90170000D03*
X74930000Y-87630000D03*
X74930000Y-85090000D03*
X74930000Y-82550000D03*
X74930000Y-80010000D03*
X74930000Y-77470000D03*
X74930000Y-74930000D03*
X74930000Y-72390000D03*
X74930000Y-69850000D03*
X80010000Y-115570000D03*
X80010000Y-113030000D03*
X80010000Y-110490000D03*
X72390000Y-107950000D03*
X72390000Y-105410000D03*
X72390000Y-102870000D03*
X72390000Y-100330000D03*
X72390000Y-97790000D03*
X72390000Y-95250000D03*
X72390000Y-92710000D03*
X72390000Y-90170000D03*
X72390000Y-87630000D03*
X72390000Y-85090000D03*
X72390000Y-82550000D03*
X72390000Y-80010000D03*
X72390000Y-77470000D03*
X72390000Y-74930000D03*
X72390000Y-72390000D03*
X72390000Y-69850000D03*
X90170000Y-67310000D03*
X87630000Y-67310000D03*
X85090000Y-67310000D03*
X82550000Y-67310000D03*
X80010000Y-67310000D03*
X77470000Y-67310000D03*
X74930000Y-67310000D03*
X57150000Y-67310000D03*
X57150000Y-69850000D03*
X57150000Y-72390000D03*
X57150000Y-74930000D03*
X57150000Y-77470000D03*
X57150000Y-80010000D03*
X57150000Y-82550000D03*
X57150000Y-85090000D03*
X57150000Y-87630000D03*
X57150000Y-90170000D03*
X57150000Y-92710000D03*
X57150000Y-95250000D03*
X57150000Y-97790000D03*
X57150000Y-100330000D03*
X57150000Y-102870000D03*
X57150000Y-105410000D03*
X62230000Y-67310000D03*
X62230000Y-69850000D03*
X62230000Y-72390000D03*
X62230000Y-74930000D03*
X62230000Y-77470000D03*
X62230000Y-80010000D03*
X62230000Y-82550000D03*
X62230000Y-85090000D03*
X67310000Y-67310000D03*
X67310000Y-69850000D03*
X67310000Y-72390000D03*
X67310000Y-74930000D03*
X67310000Y-77470000D03*
X67310000Y-80010000D03*
X67310000Y-82550000D03*
X67310000Y-85090000D03*
X67310000Y-87630000D03*
X67310000Y-90170000D03*
X67310000Y-92710000D03*
X67310000Y-95250000D03*
X67310000Y-97790000D03*
X67310000Y-100330000D03*
X52070000Y-67310000D03*
X52070000Y-69850000D03*
X98425000Y-67310000D03*
X98425000Y-69850000D03*
X98425000Y-72390000D03*
X98425000Y-74930000D03*
X98425000Y-77470000D03*
X98425000Y-80010000D03*
X98425000Y-82550000D03*
X98425000Y-85090000D03*
X98425000Y-87630000D03*
X98425000Y-90170000D03*
X98425000Y-92710000D03*
X98425000Y-95250000D03*
X98425000Y-97790000D03*
X98425000Y-100330000D03*
X98425000Y-102870000D03*
X98425000Y-105410000D03*
X72390000Y-67310000D03*
D10*
X70281800Y-120269000D03*
X67741800Y-120269000D03*
X65201800Y-120269000D03*
X62661800Y-120269000D03*
X60121800Y-120269000D03*
X57581800Y-120269000D03*
X55041800Y-120269000D03*
D11*
X52501800Y-120269000D03*
D10*
X99745800Y-120269000D03*
X97205800Y-120269000D03*
X94665800Y-120269000D03*
X92125800Y-120269000D03*
X89585800Y-120269000D03*
X87045800Y-120269000D03*
X84505800Y-120269000D03*
D11*
X81965800Y-120269000D03*
D13*
X52070000Y-57150000D03*
X52070000Y-73025000D03*
D14*
X52044600Y-59207400D02*
X52044600Y-57175400D01*
X52044600Y-57175400D02*
X52070000Y-57150000D01*
X52070000Y-69850000D02*
X52070000Y-73025000D01*
X72364600Y-59207400D02*
X72577960Y-59207400D01*
X61241940Y-101318060D02*
X57150000Y-105410000D01*
X61241940Y-66911220D02*
X61241940Y-101318060D01*
X64871620Y-63281540D02*
X61241940Y-66911220D01*
X72682100Y-63281540D02*
X64871620Y-63281540D01*
X73451720Y-62511920D02*
X72682100Y-63281540D01*
X73451720Y-60081160D02*
X73451720Y-62511920D01*
X72577960Y-59207400D02*
X73451720Y-60081160D01*
X62908308Y-67310000D02*
X62230000Y-67310000D01*
X74904600Y-61747400D02*
X74904600Y-62445882D01*
X65953658Y-63586342D02*
X62230000Y-67310000D01*
X73764140Y-63586342D02*
X65953658Y-63586342D01*
X74904600Y-62445882D02*
X73764140Y-63586342D01*
X74904600Y-59207400D02*
X75044300Y-59207400D01*
X64500748Y-67579252D02*
X62230000Y-69850000D01*
X64500748Y-66146076D02*
X64500748Y-67579252D01*
X66755680Y-63891144D02*
X64500748Y-66146076D01*
X75204320Y-63891144D02*
X66755680Y-63891144D01*
X75994260Y-63101204D02*
X75204320Y-63891144D01*
X75994260Y-60157360D02*
X75994260Y-63101204D01*
X75044300Y-59207400D02*
X75994260Y-60157360D01*
X77444600Y-61747400D02*
X77444600Y-63479666D01*
X64805550Y-69814450D02*
X62230000Y-72390000D01*
X64805550Y-66272330D02*
X64805550Y-69814450D01*
X66881934Y-64195946D02*
X64805550Y-66272330D01*
X76728320Y-64195946D02*
X66881934Y-64195946D01*
X77444600Y-63479666D02*
X76728320Y-64195946D01*
X77444600Y-59207400D02*
X77624940Y-59207400D01*
X65110352Y-72049648D02*
X62230000Y-74930000D01*
X65110352Y-66398584D02*
X65110352Y-72049648D01*
X67008188Y-64500748D02*
X65110352Y-66398584D01*
X77569060Y-64500748D02*
X67008188Y-64500748D01*
X78531720Y-63538088D02*
X77569060Y-64500748D01*
X78531720Y-60114180D02*
X78531720Y-63538088D01*
X77624940Y-59207400D02*
X78531720Y-60114180D01*
X79984600Y-61747400D02*
X79984600Y-63847970D01*
X65415154Y-74284846D02*
X62230000Y-77470000D01*
X65415154Y-66524838D02*
X65415154Y-74284846D01*
X67134442Y-64805550D02*
X65415154Y-66524838D01*
X79027020Y-64805550D02*
X67134442Y-64805550D01*
X79984600Y-63847970D02*
X79027020Y-64805550D01*
X79984600Y-59207400D02*
X80043020Y-59207400D01*
X79984600Y-59207400D02*
X80251300Y-59207400D01*
X65719956Y-76520044D02*
X62230000Y-80010000D01*
X65719956Y-66651092D02*
X65719956Y-76520044D01*
X67260696Y-65110352D02*
X65719956Y-66651092D01*
X80060800Y-65110352D02*
X67260696Y-65110352D01*
X81069180Y-64101972D02*
X80060800Y-65110352D01*
X81069180Y-60025280D02*
X81069180Y-64101972D01*
X80251300Y-59207400D02*
X81069180Y-60025280D01*
X82524600Y-61747400D02*
X82524600Y-64246760D01*
X66024758Y-78755242D02*
X62230000Y-82550000D01*
X66024758Y-66777346D02*
X66024758Y-78755242D01*
X67386950Y-65415154D02*
X66024758Y-66777346D01*
X81356206Y-65415154D02*
X67386950Y-65415154D01*
X82524600Y-64246760D02*
X81356206Y-65415154D01*
X66329560Y-80990440D02*
X62230000Y-85090000D01*
X66329560Y-66906140D02*
X66329560Y-66913760D01*
X66329560Y-66913760D02*
X66329560Y-80990440D01*
X66329560Y-66913760D02*
X66329560Y-66903600D01*
X83611720Y-60294520D02*
X82524600Y-59207400D01*
X83611720Y-64460120D02*
X83611720Y-60294520D01*
X82351884Y-65719956D02*
X83611720Y-64460120D01*
X67513204Y-65719956D02*
X82351884Y-65719956D01*
X66329560Y-66903600D02*
X67513204Y-65719956D01*
X85064600Y-61747400D02*
X85064600Y-65392298D01*
X68595242Y-66024758D02*
X67310000Y-67310000D01*
X84432140Y-66024758D02*
X68595242Y-66024758D01*
X85064600Y-65392298D02*
X84432140Y-66024758D01*
X67310000Y-69850000D02*
X68463160Y-69850000D01*
X86151720Y-60294520D02*
X85064600Y-59207400D01*
X86151720Y-65364360D02*
X86151720Y-60294520D01*
X85186520Y-66329560D02*
X86151720Y-65364360D01*
X71983600Y-66329560D02*
X85186520Y-66329560D01*
X68463160Y-69850000D02*
X71983600Y-66329560D01*
D15*
G36*
X98558914Y-52876545D02*
X99303529Y-53080248D01*
X100000299Y-53412592D01*
X100627204Y-53863068D01*
X101164426Y-54417438D01*
X101594993Y-55058188D01*
X101905285Y-55765054D01*
X102086855Y-56521349D01*
X102135000Y-57176950D01*
X102135001Y-120617257D01*
X102063455Y-121418914D01*
X101859752Y-122163528D01*
X101527409Y-122860297D01*
X101076932Y-123487203D01*
X100522559Y-124024428D01*
X99881812Y-124454993D01*
X99174946Y-124765285D01*
X98418650Y-124946855D01*
X97763050Y-124995000D01*
X54642732Y-124995000D01*
X53841086Y-124923455D01*
X53096472Y-124719752D01*
X52399703Y-124387409D01*
X51772797Y-123936932D01*
X51235572Y-123382559D01*
X50805007Y-122741812D01*
X50494715Y-122034946D01*
X50313145Y-121278650D01*
X50265000Y-120623050D01*
X50265000Y-119419000D01*
X51004360Y-119419000D01*
X51004360Y-121119000D01*
X51053643Y-121366765D01*
X51193991Y-121576809D01*
X51404035Y-121717157D01*
X51651800Y-121766440D01*
X53351800Y-121766440D01*
X53599565Y-121717157D01*
X53809609Y-121576809D01*
X53949957Y-121366765D01*
X53958984Y-121321381D01*
X53971175Y-121339625D01*
X54462382Y-121667839D01*
X54895544Y-121754000D01*
X55188056Y-121754000D01*
X55621218Y-121667839D01*
X56112425Y-121339625D01*
X56311800Y-121041239D01*
X56511175Y-121339625D01*
X57002382Y-121667839D01*
X57435544Y-121754000D01*
X57728056Y-121754000D01*
X58161218Y-121667839D01*
X58652425Y-121339625D01*
X58851800Y-121041239D01*
X59051175Y-121339625D01*
X59542382Y-121667839D01*
X59975544Y-121754000D01*
X60268056Y-121754000D01*
X60701218Y-121667839D01*
X61192425Y-121339625D01*
X61391800Y-121041239D01*
X61591175Y-121339625D01*
X62082382Y-121667839D01*
X62515544Y-121754000D01*
X62808056Y-121754000D01*
X63241218Y-121667839D01*
X63732425Y-121339625D01*
X63931800Y-121041239D01*
X64131175Y-121339625D01*
X64622382Y-121667839D01*
X65055544Y-121754000D01*
X65348056Y-121754000D01*
X65781218Y-121667839D01*
X66272425Y-121339625D01*
X66471800Y-121041239D01*
X66671175Y-121339625D01*
X67162382Y-121667839D01*
X67595544Y-121754000D01*
X67888056Y-121754000D01*
X68321218Y-121667839D01*
X68812425Y-121339625D01*
X69011800Y-121041239D01*
X69211175Y-121339625D01*
X69702382Y-121667839D01*
X70135544Y-121754000D01*
X70428056Y-121754000D01*
X70861218Y-121667839D01*
X71352425Y-121339625D01*
X71680639Y-120848418D01*
X71795892Y-120269000D01*
X71680639Y-119689582D01*
X71499842Y-119419000D01*
X80468360Y-119419000D01*
X80468360Y-121119000D01*
X80517643Y-121366765D01*
X80657991Y-121576809D01*
X80868035Y-121717157D01*
X81115800Y-121766440D01*
X82815800Y-121766440D01*
X83063565Y-121717157D01*
X83273609Y-121576809D01*
X83413957Y-121366765D01*
X83422984Y-121321381D01*
X83435175Y-121339625D01*
X83926382Y-121667839D01*
X84359544Y-121754000D01*
X84652056Y-121754000D01*
X85085218Y-121667839D01*
X85576425Y-121339625D01*
X85775800Y-121041239D01*
X85975175Y-121339625D01*
X86466382Y-121667839D01*
X86899544Y-121754000D01*
X87192056Y-121754000D01*
X87625218Y-121667839D01*
X88116425Y-121339625D01*
X88315800Y-121041239D01*
X88515175Y-121339625D01*
X89006382Y-121667839D01*
X89439544Y-121754000D01*
X89732056Y-121754000D01*
X90165218Y-121667839D01*
X90656425Y-121339625D01*
X90855800Y-121041239D01*
X91055175Y-121339625D01*
X91546382Y-121667839D01*
X91979544Y-121754000D01*
X92272056Y-121754000D01*
X92705218Y-121667839D01*
X93196425Y-121339625D01*
X93395800Y-121041239D01*
X93595175Y-121339625D01*
X94086382Y-121667839D01*
X94519544Y-121754000D01*
X94812056Y-121754000D01*
X95245218Y-121667839D01*
X95736425Y-121339625D01*
X95935800Y-121041239D01*
X96135175Y-121339625D01*
X96626382Y-121667839D01*
X97059544Y-121754000D01*
X97352056Y-121754000D01*
X97785218Y-121667839D01*
X98276425Y-121339625D01*
X98475800Y-121041239D01*
X98675175Y-121339625D01*
X99166382Y-121667839D01*
X99599544Y-121754000D01*
X99892056Y-121754000D01*
X100325218Y-121667839D01*
X100816425Y-121339625D01*
X101144639Y-120848418D01*
X101259892Y-120269000D01*
X101144639Y-119689582D01*
X100816425Y-119198375D01*
X100325218Y-118870161D01*
X99892056Y-118784000D01*
X99599544Y-118784000D01*
X99166382Y-118870161D01*
X98675175Y-119198375D01*
X98475800Y-119496761D01*
X98276425Y-119198375D01*
X97785218Y-118870161D01*
X97352056Y-118784000D01*
X97059544Y-118784000D01*
X96626382Y-118870161D01*
X96135175Y-119198375D01*
X95935800Y-119496761D01*
X95736425Y-119198375D01*
X95245218Y-118870161D01*
X94812056Y-118784000D01*
X94519544Y-118784000D01*
X94086382Y-118870161D01*
X93595175Y-119198375D01*
X93395800Y-119496761D01*
X93196425Y-119198375D01*
X92705218Y-118870161D01*
X92272056Y-118784000D01*
X91979544Y-118784000D01*
X91546382Y-118870161D01*
X91055175Y-119198375D01*
X90855800Y-119496761D01*
X90656425Y-119198375D01*
X90165218Y-118870161D01*
X89732056Y-118784000D01*
X89439544Y-118784000D01*
X89006382Y-118870161D01*
X88515175Y-119198375D01*
X88315800Y-119496761D01*
X88116425Y-119198375D01*
X87625218Y-118870161D01*
X87192056Y-118784000D01*
X86899544Y-118784000D01*
X86466382Y-118870161D01*
X85975175Y-119198375D01*
X85775800Y-119496761D01*
X85576425Y-119198375D01*
X85085218Y-118870161D01*
X84652056Y-118784000D01*
X84359544Y-118784000D01*
X83926382Y-118870161D01*
X83435175Y-119198375D01*
X83422984Y-119216619D01*
X83413957Y-119171235D01*
X83273609Y-118961191D01*
X83063565Y-118820843D01*
X82815800Y-118771560D01*
X81115800Y-118771560D01*
X80868035Y-118820843D01*
X80657991Y-118961191D01*
X80517643Y-119171235D01*
X80468360Y-119419000D01*
X71499842Y-119419000D01*
X71352425Y-119198375D01*
X70861218Y-118870161D01*
X70428056Y-118784000D01*
X70135544Y-118784000D01*
X69702382Y-118870161D01*
X69211175Y-119198375D01*
X69011800Y-119496761D01*
X68812425Y-119198375D01*
X68321218Y-118870161D01*
X67888056Y-118784000D01*
X67595544Y-118784000D01*
X67162382Y-118870161D01*
X66671175Y-119198375D01*
X66471800Y-119496761D01*
X66272425Y-119198375D01*
X65781218Y-118870161D01*
X65348056Y-118784000D01*
X65055544Y-118784000D01*
X64622382Y-118870161D01*
X64131175Y-119198375D01*
X63931800Y-119496761D01*
X63732425Y-119198375D01*
X63241218Y-118870161D01*
X62808056Y-118784000D01*
X62515544Y-118784000D01*
X62082382Y-118870161D01*
X61591175Y-119198375D01*
X61391800Y-119496761D01*
X61192425Y-119198375D01*
X60701218Y-118870161D01*
X60268056Y-118784000D01*
X59975544Y-118784000D01*
X59542382Y-118870161D01*
X59051175Y-119198375D01*
X58851800Y-119496761D01*
X58652425Y-119198375D01*
X58161218Y-118870161D01*
X57728056Y-118784000D01*
X57435544Y-118784000D01*
X57002382Y-118870161D01*
X56511175Y-119198375D01*
X56311800Y-119496761D01*
X56112425Y-119198375D01*
X55621218Y-118870161D01*
X55188056Y-118784000D01*
X54895544Y-118784000D01*
X54462382Y-118870161D01*
X53971175Y-119198375D01*
X53958984Y-119216619D01*
X53949957Y-119171235D01*
X53809609Y-118961191D01*
X53599565Y-118820843D01*
X53351800Y-118771560D01*
X51651800Y-118771560D01*
X51404035Y-118820843D01*
X51193991Y-118961191D01*
X51053643Y-119171235D01*
X51004360Y-119419000D01*
X50265000Y-119419000D01*
X50265000Y-69574506D01*
X50685000Y-69574506D01*
X50685000Y-70125494D01*
X50895853Y-70634540D01*
X51285460Y-71024147D01*
X51358800Y-71054525D01*
X51358801Y-72353240D01*
X51240977Y-72471064D01*
X51092100Y-72830484D01*
X51092100Y-73219516D01*
X51240977Y-73578936D01*
X51516064Y-73854023D01*
X51875484Y-74002900D01*
X52264516Y-74002900D01*
X52623936Y-73854023D01*
X52899023Y-73578936D01*
X53047900Y-73219516D01*
X53047900Y-72830484D01*
X52899023Y-72471064D01*
X52781200Y-72353241D01*
X52781200Y-71054525D01*
X52854540Y-71024147D01*
X53244147Y-70634540D01*
X53455000Y-70125494D01*
X53455000Y-69574506D01*
X53244147Y-69065460D01*
X52854540Y-68675853D01*
X52639070Y-68586603D01*
X52793923Y-68522460D01*
X52861912Y-68281517D01*
X52070000Y-67489605D01*
X51278088Y-68281517D01*
X51346077Y-68522460D01*
X51512658Y-68581745D01*
X51285460Y-68675853D01*
X50895853Y-69065460D01*
X50685000Y-69574506D01*
X50265000Y-69574506D01*
X50265000Y-67105171D01*
X50672799Y-67105171D01*
X50700770Y-67655448D01*
X50857540Y-68033923D01*
X51098483Y-68101912D01*
X51890395Y-67310000D01*
X52249605Y-67310000D01*
X53041517Y-68101912D01*
X53282460Y-68033923D01*
X53467201Y-67514829D01*
X53439230Y-66964552D01*
X53282460Y-66586077D01*
X53041517Y-66518088D01*
X52249605Y-67310000D01*
X51890395Y-67310000D01*
X51098483Y-66518088D01*
X50857540Y-66586077D01*
X50672799Y-67105171D01*
X50265000Y-67105171D01*
X50265000Y-66338483D01*
X51278088Y-66338483D01*
X52070000Y-67130395D01*
X52861912Y-66338483D01*
X52793923Y-66097540D01*
X52274829Y-65912799D01*
X51724552Y-65940770D01*
X51346077Y-66097540D01*
X51278088Y-66338483D01*
X50265000Y-66338483D01*
X50265000Y-62033150D01*
X50559600Y-62033150D01*
X50559600Y-62723709D01*
X50656273Y-62957098D01*
X50834901Y-63135727D01*
X51068290Y-63232400D01*
X51758850Y-63232400D01*
X51917600Y-63073650D01*
X51917600Y-61874400D01*
X50718350Y-61874400D01*
X50559600Y-62033150D01*
X50265000Y-62033150D01*
X50265000Y-59207400D01*
X50530508Y-59207400D01*
X50645761Y-59786818D01*
X50973975Y-60278025D01*
X50995632Y-60292496D01*
X50834901Y-60359073D01*
X50656273Y-60537702D01*
X50559600Y-60771091D01*
X50559600Y-61461650D01*
X50718350Y-61620400D01*
X51917600Y-61620400D01*
X51917600Y-61600400D01*
X52171600Y-61600400D01*
X52171600Y-61620400D01*
X52191600Y-61620400D01*
X52191600Y-61874400D01*
X52171600Y-61874400D01*
X52171600Y-63073650D01*
X52330350Y-63232400D01*
X53020910Y-63232400D01*
X53254299Y-63135727D01*
X53432927Y-62957098D01*
X53499504Y-62796367D01*
X53513975Y-62818025D01*
X54005182Y-63146239D01*
X54438344Y-63232400D01*
X54730856Y-63232400D01*
X55164018Y-63146239D01*
X55655225Y-62818025D01*
X55854600Y-62519639D01*
X56053975Y-62818025D01*
X56545182Y-63146239D01*
X56978344Y-63232400D01*
X57270856Y-63232400D01*
X57704018Y-63146239D01*
X58195225Y-62818025D01*
X58394600Y-62519639D01*
X58593975Y-62818025D01*
X59085182Y-63146239D01*
X59518344Y-63232400D01*
X59810856Y-63232400D01*
X60244018Y-63146239D01*
X60735225Y-62818025D01*
X60934600Y-62519639D01*
X61133975Y-62818025D01*
X61625182Y-63146239D01*
X62058344Y-63232400D01*
X62350856Y-63232400D01*
X62784018Y-63146239D01*
X63275225Y-62818025D01*
X63474600Y-62519639D01*
X63673975Y-62818025D01*
X64066841Y-63080530D01*
X60788574Y-66358798D01*
X60729194Y-66398475D01*
X60689518Y-66457854D01*
X60689516Y-66457856D01*
X60644760Y-66524838D01*
X60572004Y-66633725D01*
X60530740Y-66841175D01*
X60530740Y-66841179D01*
X60516808Y-66911220D01*
X60530740Y-66981261D01*
X60530741Y-101023470D01*
X58535000Y-103019212D01*
X58535000Y-102594506D01*
X58324147Y-102085460D01*
X57934540Y-101695853D01*
X57703130Y-101600000D01*
X57934540Y-101504147D01*
X58324147Y-101114540D01*
X58535000Y-100605494D01*
X58535000Y-100054506D01*
X58324147Y-99545460D01*
X57934540Y-99155853D01*
X57703130Y-99060000D01*
X57934540Y-98964147D01*
X58324147Y-98574540D01*
X58535000Y-98065494D01*
X58535000Y-97514506D01*
X58324147Y-97005460D01*
X57934540Y-96615853D01*
X57703130Y-96520000D01*
X57934540Y-96424147D01*
X58324147Y-96034540D01*
X58535000Y-95525494D01*
X58535000Y-94974506D01*
X58324147Y-94465460D01*
X57934540Y-94075853D01*
X57703130Y-93980000D01*
X57934540Y-93884147D01*
X58324147Y-93494540D01*
X58535000Y-92985494D01*
X58535000Y-92434506D01*
X58324147Y-91925460D01*
X57934540Y-91535853D01*
X57703130Y-91440000D01*
X57934540Y-91344147D01*
X58324147Y-90954540D01*
X58535000Y-90445494D01*
X58535000Y-89894506D01*
X58324147Y-89385460D01*
X57934540Y-88995853D01*
X57703130Y-88900000D01*
X57934540Y-88804147D01*
X58324147Y-88414540D01*
X58535000Y-87905494D01*
X58535000Y-87354506D01*
X58324147Y-86845460D01*
X57934540Y-86455853D01*
X57703130Y-86360000D01*
X57934540Y-86264147D01*
X58324147Y-85874540D01*
X58535000Y-85365494D01*
X58535000Y-84814506D01*
X58324147Y-84305460D01*
X57934540Y-83915853D01*
X57703130Y-83820000D01*
X57934540Y-83724147D01*
X58324147Y-83334540D01*
X58535000Y-82825494D01*
X58535000Y-82274506D01*
X58324147Y-81765460D01*
X57934540Y-81375853D01*
X57703130Y-81280000D01*
X57934540Y-81184147D01*
X58324147Y-80794540D01*
X58535000Y-80285494D01*
X58535000Y-79734506D01*
X58324147Y-79225460D01*
X57934540Y-78835853D01*
X57703130Y-78740000D01*
X57934540Y-78644147D01*
X58324147Y-78254540D01*
X58535000Y-77745494D01*
X58535000Y-77194506D01*
X58324147Y-76685460D01*
X57934540Y-76295853D01*
X57703130Y-76200000D01*
X57934540Y-76104147D01*
X58324147Y-75714540D01*
X58535000Y-75205494D01*
X58535000Y-74654506D01*
X58324147Y-74145460D01*
X57934540Y-73755853D01*
X57703130Y-73660000D01*
X57934540Y-73564147D01*
X58324147Y-73174540D01*
X58535000Y-72665494D01*
X58535000Y-72114506D01*
X58324147Y-71605460D01*
X57934540Y-71215853D01*
X57703130Y-71120000D01*
X57934540Y-71024147D01*
X58324147Y-70634540D01*
X58535000Y-70125494D01*
X58535000Y-69574506D01*
X58324147Y-69065460D01*
X57934540Y-68675853D01*
X57703130Y-68580000D01*
X57934540Y-68484147D01*
X58324147Y-68094540D01*
X58535000Y-67585494D01*
X58535000Y-67034506D01*
X58324147Y-66525460D01*
X57934540Y-66135853D01*
X57425494Y-65925000D01*
X56874506Y-65925000D01*
X56365460Y-66135853D01*
X55975853Y-66525460D01*
X55765000Y-67034506D01*
X55765000Y-67585494D01*
X55975853Y-68094540D01*
X56365460Y-68484147D01*
X56596870Y-68580000D01*
X56365460Y-68675853D01*
X55975853Y-69065460D01*
X55765000Y-69574506D01*
X55765000Y-70125494D01*
X55975853Y-70634540D01*
X56365460Y-71024147D01*
X56596870Y-71120000D01*
X56365460Y-71215853D01*
X55975853Y-71605460D01*
X55765000Y-72114506D01*
X55765000Y-72665494D01*
X55975853Y-73174540D01*
X56365460Y-73564147D01*
X56596870Y-73660000D01*
X56365460Y-73755853D01*
X55975853Y-74145460D01*
X55765000Y-74654506D01*
X55765000Y-75205494D01*
X55975853Y-75714540D01*
X56365460Y-76104147D01*
X56596870Y-76200000D01*
X56365460Y-76295853D01*
X55975853Y-76685460D01*
X55765000Y-77194506D01*
X55765000Y-77745494D01*
X55975853Y-78254540D01*
X56365460Y-78644147D01*
X56596870Y-78740000D01*
X56365460Y-78835853D01*
X55975853Y-79225460D01*
X55765000Y-79734506D01*
X55765000Y-80285494D01*
X55975853Y-80794540D01*
X56365460Y-81184147D01*
X56596870Y-81280000D01*
X56365460Y-81375853D01*
X55975853Y-81765460D01*
X55765000Y-82274506D01*
X55765000Y-82825494D01*
X55975853Y-83334540D01*
X56365460Y-83724147D01*
X56596870Y-83820000D01*
X56365460Y-83915853D01*
X55975853Y-84305460D01*
X55765000Y-84814506D01*
X55765000Y-85365494D01*
X55975853Y-85874540D01*
X56365460Y-86264147D01*
X56596870Y-86360000D01*
X56365460Y-86455853D01*
X55975853Y-86845460D01*
X55765000Y-87354506D01*
X55765000Y-87905494D01*
X55975853Y-88414540D01*
X56365460Y-88804147D01*
X56596870Y-88900000D01*
X56365460Y-88995853D01*
X55975853Y-89385460D01*
X55765000Y-89894506D01*
X55765000Y-90445494D01*
X55975853Y-90954540D01*
X56365460Y-91344147D01*
X56596870Y-91440000D01*
X56365460Y-91535853D01*
X55975853Y-91925460D01*
X55765000Y-92434506D01*
X55765000Y-92985494D01*
X55975853Y-93494540D01*
X56365460Y-93884147D01*
X56596870Y-93980000D01*
X56365460Y-94075853D01*
X55975853Y-94465460D01*
X55765000Y-94974506D01*
X55765000Y-95525494D01*
X55975853Y-96034540D01*
X56365460Y-96424147D01*
X56596870Y-96520000D01*
X56365460Y-96615853D01*
X55975853Y-97005460D01*
X55765000Y-97514506D01*
X55765000Y-98065494D01*
X55975853Y-98574540D01*
X56365460Y-98964147D01*
X56596870Y-99060000D01*
X56365460Y-99155853D01*
X55975853Y-99545460D01*
X55765000Y-100054506D01*
X55765000Y-100605494D01*
X55975853Y-101114540D01*
X56365460Y-101504147D01*
X56596870Y-101600000D01*
X56365460Y-101695853D01*
X55975853Y-102085460D01*
X55765000Y-102594506D01*
X55765000Y-103145494D01*
X55975853Y-103654540D01*
X56365460Y-104044147D01*
X56596870Y-104140000D01*
X56365460Y-104235853D01*
X55975853Y-104625460D01*
X55765000Y-105134506D01*
X55765000Y-105685494D01*
X55975853Y-106194540D01*
X56365460Y-106584147D01*
X56874506Y-106795000D01*
X57425494Y-106795000D01*
X57934540Y-106584147D01*
X58324147Y-106194540D01*
X58535000Y-105685494D01*
X58535000Y-105134506D01*
X58504622Y-105061166D01*
X61695307Y-101870482D01*
X61754686Y-101830806D01*
X61794362Y-101771427D01*
X61794364Y-101771425D01*
X61911875Y-101595558D01*
X61911875Y-101595557D01*
X61911876Y-101595556D01*
X61953140Y-101388106D01*
X61953140Y-101388103D01*
X61967072Y-101318061D01*
X61953140Y-101248019D01*
X61953140Y-86474434D01*
X61954506Y-86475000D01*
X62505494Y-86475000D01*
X63014540Y-86264147D01*
X63404147Y-85874540D01*
X63615000Y-85365494D01*
X63615000Y-84814506D01*
X63584622Y-84741166D01*
X65925000Y-82400789D01*
X65925000Y-82825494D01*
X66135853Y-83334540D01*
X66525460Y-83724147D01*
X66756870Y-83820000D01*
X66525460Y-83915853D01*
X66135853Y-84305460D01*
X65925000Y-84814506D01*
X65925000Y-85365494D01*
X66135853Y-85874540D01*
X66525460Y-86264147D01*
X66756870Y-86360000D01*
X66525460Y-86455853D01*
X66135853Y-86845460D01*
X65925000Y-87354506D01*
X65925000Y-87905494D01*
X66135853Y-88414540D01*
X66525460Y-88804147D01*
X66756870Y-88900000D01*
X66525460Y-88995853D01*
X66135853Y-89385460D01*
X65925000Y-89894506D01*
X65925000Y-90445494D01*
X66135853Y-90954540D01*
X66525460Y-91344147D01*
X66756870Y-91440000D01*
X66525460Y-91535853D01*
X66135853Y-91925460D01*
X65925000Y-92434506D01*
X65925000Y-92985494D01*
X66135853Y-93494540D01*
X66525460Y-93884147D01*
X66756870Y-93980000D01*
X66525460Y-94075853D01*
X66135853Y-94465460D01*
X65925000Y-94974506D01*
X65925000Y-95525494D01*
X66135853Y-96034540D01*
X66525460Y-96424147D01*
X66756870Y-96520000D01*
X66525460Y-96615853D01*
X66135853Y-97005460D01*
X65925000Y-97514506D01*
X65925000Y-98065494D01*
X66135853Y-98574540D01*
X66525460Y-98964147D01*
X66756870Y-99060000D01*
X66525460Y-99155853D01*
X66135853Y-99545460D01*
X65925000Y-100054506D01*
X65925000Y-100605494D01*
X66135853Y-101114540D01*
X66525460Y-101504147D01*
X67034506Y-101715000D01*
X67585494Y-101715000D01*
X68094540Y-101504147D01*
X68484147Y-101114540D01*
X68695000Y-100605494D01*
X68695000Y-100054506D01*
X68484147Y-99545460D01*
X68094540Y-99155853D01*
X67863130Y-99060000D01*
X68094540Y-98964147D01*
X68484147Y-98574540D01*
X68695000Y-98065494D01*
X68695000Y-97514506D01*
X68484147Y-97005460D01*
X68094540Y-96615853D01*
X67863130Y-96520000D01*
X68094540Y-96424147D01*
X68484147Y-96034540D01*
X68695000Y-95525494D01*
X68695000Y-94974506D01*
X68484147Y-94465460D01*
X68094540Y-94075853D01*
X67863130Y-93980000D01*
X68094540Y-93884147D01*
X68484147Y-93494540D01*
X68695000Y-92985494D01*
X68695000Y-92434506D01*
X68484147Y-91925460D01*
X68094540Y-91535853D01*
X67863130Y-91440000D01*
X68094540Y-91344147D01*
X68484147Y-90954540D01*
X68695000Y-90445494D01*
X68695000Y-89894506D01*
X68484147Y-89385460D01*
X68094540Y-88995853D01*
X67863130Y-88900000D01*
X68094540Y-88804147D01*
X68484147Y-88414540D01*
X68695000Y-87905494D01*
X68695000Y-87354506D01*
X68484147Y-86845460D01*
X68094540Y-86455853D01*
X67863130Y-86360000D01*
X68094540Y-86264147D01*
X68484147Y-85874540D01*
X68695000Y-85365494D01*
X68695000Y-84814506D01*
X68484147Y-84305460D01*
X68094540Y-83915853D01*
X67863130Y-83820000D01*
X68094540Y-83724147D01*
X68484147Y-83334540D01*
X68695000Y-82825494D01*
X68695000Y-82274506D01*
X68484147Y-81765460D01*
X68094540Y-81375853D01*
X67863130Y-81280000D01*
X68094540Y-81184147D01*
X68484147Y-80794540D01*
X68695000Y-80285494D01*
X68695000Y-79734506D01*
X68484147Y-79225460D01*
X68094540Y-78835853D01*
X67863130Y-78740000D01*
X68094540Y-78644147D01*
X68484147Y-78254540D01*
X68695000Y-77745494D01*
X68695000Y-77194506D01*
X68484147Y-76685460D01*
X68094540Y-76295853D01*
X67863130Y-76200000D01*
X68094540Y-76104147D01*
X68484147Y-75714540D01*
X68695000Y-75205494D01*
X68695000Y-74654506D01*
X68484147Y-74145460D01*
X68094540Y-73755853D01*
X67863130Y-73660000D01*
X68094540Y-73564147D01*
X68484147Y-73174540D01*
X68695000Y-72665494D01*
X68695000Y-72114506D01*
X68484147Y-71605460D01*
X68094540Y-71215853D01*
X67863130Y-71120000D01*
X68094540Y-71024147D01*
X68484147Y-70634540D01*
X68512848Y-70565248D01*
X68533201Y-70561200D01*
X68533206Y-70561200D01*
X68740656Y-70519936D01*
X68975906Y-70362746D01*
X69015584Y-70303364D01*
X71220131Y-68098818D01*
X71605460Y-68484147D01*
X71836870Y-68580000D01*
X71605460Y-68675853D01*
X71215853Y-69065460D01*
X71005000Y-69574506D01*
X71005000Y-70125494D01*
X71215853Y-70634540D01*
X71605460Y-71024147D01*
X71836870Y-71120000D01*
X71605460Y-71215853D01*
X71215853Y-71605460D01*
X71005000Y-72114506D01*
X71005000Y-72665494D01*
X71215853Y-73174540D01*
X71605460Y-73564147D01*
X71836870Y-73660000D01*
X71605460Y-73755853D01*
X71215853Y-74145460D01*
X71005000Y-74654506D01*
X71005000Y-75205494D01*
X71215853Y-75714540D01*
X71605460Y-76104147D01*
X71836870Y-76200000D01*
X71605460Y-76295853D01*
X71215853Y-76685460D01*
X71005000Y-77194506D01*
X71005000Y-77745494D01*
X71215853Y-78254540D01*
X71605460Y-78644147D01*
X71836870Y-78740000D01*
X71605460Y-78835853D01*
X71215853Y-79225460D01*
X71005000Y-79734506D01*
X71005000Y-80285494D01*
X71215853Y-80794540D01*
X71605460Y-81184147D01*
X71836870Y-81280000D01*
X71605460Y-81375853D01*
X71215853Y-81765460D01*
X71005000Y-82274506D01*
X71005000Y-82825494D01*
X71215853Y-83334540D01*
X71605460Y-83724147D01*
X71836870Y-83820000D01*
X71605460Y-83915853D01*
X71215853Y-84305460D01*
X71005000Y-84814506D01*
X71005000Y-85365494D01*
X71215853Y-85874540D01*
X71605460Y-86264147D01*
X71836870Y-86360000D01*
X71605460Y-86455853D01*
X71215853Y-86845460D01*
X71005000Y-87354506D01*
X71005000Y-87905494D01*
X71215853Y-88414540D01*
X71605460Y-88804147D01*
X71836870Y-88900000D01*
X71605460Y-88995853D01*
X71215853Y-89385460D01*
X71005000Y-89894506D01*
X71005000Y-90445494D01*
X71215853Y-90954540D01*
X71605460Y-91344147D01*
X71836870Y-91440000D01*
X71605460Y-91535853D01*
X71215853Y-91925460D01*
X71005000Y-92434506D01*
X71005000Y-92985494D01*
X71215853Y-93494540D01*
X71605460Y-93884147D01*
X71836870Y-93980000D01*
X71605460Y-94075853D01*
X71215853Y-94465460D01*
X71005000Y-94974506D01*
X71005000Y-95525494D01*
X71215853Y-96034540D01*
X71605460Y-96424147D01*
X71836870Y-96520000D01*
X71605460Y-96615853D01*
X71215853Y-97005460D01*
X71005000Y-97514506D01*
X71005000Y-98065494D01*
X71215853Y-98574540D01*
X71605460Y-98964147D01*
X71836870Y-99060000D01*
X71605460Y-99155853D01*
X71215853Y-99545460D01*
X71005000Y-100054506D01*
X71005000Y-100605494D01*
X71215853Y-101114540D01*
X71605460Y-101504147D01*
X71836870Y-101600000D01*
X71605460Y-101695853D01*
X71215853Y-102085460D01*
X71005000Y-102594506D01*
X71005000Y-103145494D01*
X71215853Y-103654540D01*
X71605460Y-104044147D01*
X71836870Y-104140000D01*
X71605460Y-104235853D01*
X71215853Y-104625460D01*
X71005000Y-105134506D01*
X71005000Y-105685494D01*
X71215853Y-106194540D01*
X71605460Y-106584147D01*
X71836870Y-106680000D01*
X71605460Y-106775853D01*
X71215853Y-107165460D01*
X71005000Y-107674506D01*
X71005000Y-108225494D01*
X71215853Y-108734540D01*
X71605460Y-109124147D01*
X71836870Y-109220000D01*
X71605460Y-109315853D01*
X71215853Y-109705460D01*
X71120000Y-109936870D01*
X71024147Y-109705460D01*
X70634540Y-109315853D01*
X70125494Y-109105000D01*
X69574506Y-109105000D01*
X69065460Y-109315853D01*
X68675853Y-109705460D01*
X68580000Y-109936870D01*
X68484147Y-109705460D01*
X68094540Y-109315853D01*
X67585494Y-109105000D01*
X67034506Y-109105000D01*
X66525460Y-109315853D01*
X66135853Y-109705460D01*
X66040000Y-109936870D01*
X65944147Y-109705460D01*
X65554540Y-109315853D01*
X65045494Y-109105000D01*
X64494506Y-109105000D01*
X63985460Y-109315853D01*
X63595853Y-109705460D01*
X63500000Y-109936870D01*
X63404147Y-109705460D01*
X63014540Y-109315853D01*
X62505494Y-109105000D01*
X61954506Y-109105000D01*
X61445460Y-109315853D01*
X61055853Y-109705460D01*
X60960000Y-109936870D01*
X60864147Y-109705460D01*
X60474540Y-109315853D01*
X59965494Y-109105000D01*
X59414506Y-109105000D01*
X58905460Y-109315853D01*
X58515853Y-109705460D01*
X58420000Y-109936870D01*
X58324147Y-109705460D01*
X57934540Y-109315853D01*
X57425494Y-109105000D01*
X56874506Y-109105000D01*
X56365460Y-109315853D01*
X55975853Y-109705460D01*
X55880000Y-109936870D01*
X55784147Y-109705460D01*
X55394540Y-109315853D01*
X54885494Y-109105000D01*
X54334506Y-109105000D01*
X53825460Y-109315853D01*
X53435853Y-109705460D01*
X53340000Y-109936870D01*
X53244147Y-109705460D01*
X52854540Y-109315853D01*
X52345494Y-109105000D01*
X51794506Y-109105000D01*
X51285460Y-109315853D01*
X50895853Y-109705460D01*
X50685000Y-110214506D01*
X50685000Y-110765494D01*
X50895853Y-111274540D01*
X51285460Y-111664147D01*
X51516870Y-111760000D01*
X51285460Y-111855853D01*
X50895853Y-112245460D01*
X50685000Y-112754506D01*
X50685000Y-113305494D01*
X50895853Y-113814540D01*
X51285460Y-114204147D01*
X51516870Y-114300000D01*
X51285460Y-114395853D01*
X50895853Y-114785460D01*
X50685000Y-115294506D01*
X50685000Y-115845494D01*
X50895853Y-116354540D01*
X51285460Y-116744147D01*
X51794506Y-116955000D01*
X52345494Y-116955000D01*
X52854540Y-116744147D01*
X53244147Y-116354540D01*
X53340000Y-116123130D01*
X53435853Y-116354540D01*
X53825460Y-116744147D01*
X54334506Y-116955000D01*
X54885494Y-116955000D01*
X55394540Y-116744147D01*
X55784147Y-116354540D01*
X55880000Y-116123130D01*
X55975853Y-116354540D01*
X56365460Y-116744147D01*
X56874506Y-116955000D01*
X57425494Y-116955000D01*
X57934540Y-116744147D01*
X58324147Y-116354540D01*
X58420000Y-116123130D01*
X58515853Y-116354540D01*
X58905460Y-116744147D01*
X59414506Y-116955000D01*
X59965494Y-116955000D01*
X60474540Y-116744147D01*
X60864147Y-116354540D01*
X60960000Y-116123130D01*
X61055853Y-116354540D01*
X61445460Y-116744147D01*
X61954506Y-116955000D01*
X62505494Y-116955000D01*
X63014540Y-116744147D01*
X63404147Y-116354540D01*
X63500000Y-116123130D01*
X63595853Y-116354540D01*
X63985460Y-116744147D01*
X64494506Y-116955000D01*
X65045494Y-116955000D01*
X65554540Y-116744147D01*
X65944147Y-116354540D01*
X66040000Y-116123130D01*
X66135853Y-116354540D01*
X66525460Y-116744147D01*
X67034506Y-116955000D01*
X67585494Y-116955000D01*
X68094540Y-116744147D01*
X68484147Y-116354540D01*
X68580000Y-116123130D01*
X68675853Y-116354540D01*
X69065460Y-116744147D01*
X69574506Y-116955000D01*
X70125494Y-116955000D01*
X70634540Y-116744147D01*
X71024147Y-116354540D01*
X71120000Y-116123130D01*
X71215853Y-116354540D01*
X71605460Y-116744147D01*
X72114506Y-116955000D01*
X72665494Y-116955000D01*
X73174540Y-116744147D01*
X73564147Y-116354540D01*
X73660000Y-116123130D01*
X73755853Y-116354540D01*
X74145460Y-116744147D01*
X74654506Y-116955000D01*
X75205494Y-116955000D01*
X75714540Y-116744147D01*
X76104147Y-116354540D01*
X76200000Y-116123130D01*
X76295853Y-116354540D01*
X76685460Y-116744147D01*
X77194506Y-116955000D01*
X77745494Y-116955000D01*
X78254540Y-116744147D01*
X78644147Y-116354540D01*
X78740000Y-116123130D01*
X78835853Y-116354540D01*
X79225460Y-116744147D01*
X79734506Y-116955000D01*
X80285494Y-116955000D01*
X80794540Y-116744147D01*
X81184147Y-116354540D01*
X81280000Y-116123130D01*
X81375853Y-116354540D01*
X81765460Y-116744147D01*
X82274506Y-116955000D01*
X82825494Y-116955000D01*
X83334540Y-116744147D01*
X83724147Y-116354540D01*
X83820000Y-116123130D01*
X83915853Y-116354540D01*
X84305460Y-116744147D01*
X84814506Y-116955000D01*
X85365494Y-116955000D01*
X85874540Y-116744147D01*
X86264147Y-116354540D01*
X86360000Y-116123130D01*
X86455853Y-116354540D01*
X86845460Y-116744147D01*
X87354506Y-116955000D01*
X87905494Y-116955000D01*
X88414540Y-116744147D01*
X88804147Y-116354540D01*
X88900000Y-116123130D01*
X88995853Y-116354540D01*
X89385460Y-116744147D01*
X89894506Y-116955000D01*
X90445494Y-116955000D01*
X90954540Y-116744147D01*
X91344147Y-116354540D01*
X91440000Y-116123130D01*
X91535853Y-116354540D01*
X91925460Y-116744147D01*
X92434506Y-116955000D01*
X92985494Y-116955000D01*
X93494540Y-116744147D01*
X93884147Y-116354540D01*
X93980000Y-116123130D01*
X94075853Y-116354540D01*
X94465460Y-116744147D01*
X94974506Y-116955000D01*
X95525494Y-116955000D01*
X96034540Y-116744147D01*
X96424147Y-116354540D01*
X96520000Y-116123130D01*
X96615853Y-116354540D01*
X97005460Y-116744147D01*
X97514506Y-116955000D01*
X98065494Y-116955000D01*
X98574540Y-116744147D01*
X98964147Y-116354540D01*
X99060000Y-116123130D01*
X99155853Y-116354540D01*
X99545460Y-116744147D01*
X100054506Y-116955000D01*
X100605494Y-116955000D01*
X101114540Y-116744147D01*
X101504147Y-116354540D01*
X101715000Y-115845494D01*
X101715000Y-115294506D01*
X101504147Y-114785460D01*
X101114540Y-114395853D01*
X100883130Y-114300000D01*
X101114540Y-114204147D01*
X101504147Y-113814540D01*
X101715000Y-113305494D01*
X101715000Y-112754506D01*
X101504147Y-112245460D01*
X101114540Y-111855853D01*
X100883130Y-111760000D01*
X101114540Y-111664147D01*
X101504147Y-111274540D01*
X101715000Y-110765494D01*
X101715000Y-110214506D01*
X101504147Y-109705460D01*
X101114540Y-109315853D01*
X100605494Y-109105000D01*
X100054506Y-109105000D01*
X99545460Y-109315853D01*
X99155853Y-109705460D01*
X99060000Y-109936870D01*
X98964147Y-109705460D01*
X98574540Y-109315853D01*
X98065494Y-109105000D01*
X97514506Y-109105000D01*
X97005460Y-109315853D01*
X96615853Y-109705460D01*
X96520000Y-109936870D01*
X96424147Y-109705460D01*
X96034540Y-109315853D01*
X95803130Y-109220000D01*
X96034540Y-109124147D01*
X96424147Y-108734540D01*
X96635000Y-108225494D01*
X96635000Y-107674506D01*
X96424147Y-107165460D01*
X96034540Y-106775853D01*
X95803130Y-106680000D01*
X96034540Y-106584147D01*
X96424147Y-106194540D01*
X96635000Y-105685494D01*
X96635000Y-105134506D01*
X96424147Y-104625460D01*
X96034540Y-104235853D01*
X95803130Y-104140000D01*
X96034540Y-104044147D01*
X96424147Y-103654540D01*
X96635000Y-103145494D01*
X96635000Y-102594506D01*
X96424147Y-102085460D01*
X96034540Y-101695853D01*
X95803130Y-101600000D01*
X96034540Y-101504147D01*
X96424147Y-101114540D01*
X96635000Y-100605494D01*
X96635000Y-100054506D01*
X96424147Y-99545460D01*
X96034540Y-99155853D01*
X95803130Y-99060000D01*
X96034540Y-98964147D01*
X96424147Y-98574540D01*
X96635000Y-98065494D01*
X96635000Y-97514506D01*
X96424147Y-97005460D01*
X96034540Y-96615853D01*
X95803130Y-96520000D01*
X96034540Y-96424147D01*
X96424147Y-96034540D01*
X96635000Y-95525494D01*
X96635000Y-94974506D01*
X96424147Y-94465460D01*
X96034540Y-94075853D01*
X95803130Y-93980000D01*
X96034540Y-93884147D01*
X96424147Y-93494540D01*
X96635000Y-92985494D01*
X96635000Y-92434506D01*
X96424147Y-91925460D01*
X96034540Y-91535853D01*
X95803130Y-91440000D01*
X96034540Y-91344147D01*
X96424147Y-90954540D01*
X96635000Y-90445494D01*
X96635000Y-89894506D01*
X96424147Y-89385460D01*
X96034540Y-88995853D01*
X95803130Y-88900000D01*
X96034540Y-88804147D01*
X96424147Y-88414540D01*
X96635000Y-87905494D01*
X96635000Y-87354506D01*
X96424147Y-86845460D01*
X96034540Y-86455853D01*
X95803130Y-86360000D01*
X96034540Y-86264147D01*
X96424147Y-85874540D01*
X96635000Y-85365494D01*
X96635000Y-84814506D01*
X96424147Y-84305460D01*
X96034540Y-83915853D01*
X95803130Y-83820000D01*
X96034540Y-83724147D01*
X96424147Y-83334540D01*
X96635000Y-82825494D01*
X96635000Y-82274506D01*
X96424147Y-81765460D01*
X96034540Y-81375853D01*
X95803130Y-81280000D01*
X96034540Y-81184147D01*
X96424147Y-80794540D01*
X96635000Y-80285494D01*
X96635000Y-79734506D01*
X96424147Y-79225460D01*
X96034540Y-78835853D01*
X95803130Y-78740000D01*
X96034540Y-78644147D01*
X96424147Y-78254540D01*
X96635000Y-77745494D01*
X96635000Y-77194506D01*
X96424147Y-76685460D01*
X96034540Y-76295853D01*
X95803130Y-76200000D01*
X96034540Y-76104147D01*
X96424147Y-75714540D01*
X96635000Y-75205494D01*
X96635000Y-74654506D01*
X96424147Y-74145460D01*
X96034540Y-73755853D01*
X95803130Y-73660000D01*
X96034540Y-73564147D01*
X96424147Y-73174540D01*
X96635000Y-72665494D01*
X96635000Y-72114506D01*
X96424147Y-71605460D01*
X96034540Y-71215853D01*
X95803130Y-71120000D01*
X96034540Y-71024147D01*
X96424147Y-70634540D01*
X96635000Y-70125494D01*
X96635000Y-69574506D01*
X96424147Y-69065460D01*
X96034540Y-68675853D01*
X95803130Y-68580000D01*
X96034540Y-68484147D01*
X96424147Y-68094540D01*
X96635000Y-67585494D01*
X96635000Y-67034506D01*
X97040000Y-67034506D01*
X97040000Y-67585494D01*
X97250853Y-68094540D01*
X97640460Y-68484147D01*
X97871870Y-68580000D01*
X97640460Y-68675853D01*
X97250853Y-69065460D01*
X97040000Y-69574506D01*
X97040000Y-70125494D01*
X97250853Y-70634540D01*
X97640460Y-71024147D01*
X97871870Y-71120000D01*
X97640460Y-71215853D01*
X97250853Y-71605460D01*
X97040000Y-72114506D01*
X97040000Y-72665494D01*
X97250853Y-73174540D01*
X97640460Y-73564147D01*
X97871870Y-73660000D01*
X97640460Y-73755853D01*
X97250853Y-74145460D01*
X97040000Y-74654506D01*
X97040000Y-75205494D01*
X97250853Y-75714540D01*
X97640460Y-76104147D01*
X97871870Y-76200000D01*
X97640460Y-76295853D01*
X97250853Y-76685460D01*
X97040000Y-77194506D01*
X97040000Y-77745494D01*
X97250853Y-78254540D01*
X97640460Y-78644147D01*
X97871870Y-78740000D01*
X97640460Y-78835853D01*
X97250853Y-79225460D01*
X97040000Y-79734506D01*
X97040000Y-80285494D01*
X97250853Y-80794540D01*
X97640460Y-81184147D01*
X97871870Y-81280000D01*
X97640460Y-81375853D01*
X97250853Y-81765460D01*
X97040000Y-82274506D01*
X97040000Y-82825494D01*
X97250853Y-83334540D01*
X97640460Y-83724147D01*
X97871870Y-83820000D01*
X97640460Y-83915853D01*
X97250853Y-84305460D01*
X97040000Y-84814506D01*
X97040000Y-85365494D01*
X97250853Y-85874540D01*
X97640460Y-86264147D01*
X97871870Y-86360000D01*
X97640460Y-86455853D01*
X97250853Y-86845460D01*
X97040000Y-87354506D01*
X97040000Y-87905494D01*
X97250853Y-88414540D01*
X97640460Y-88804147D01*
X97871870Y-88900000D01*
X97640460Y-88995853D01*
X97250853Y-89385460D01*
X97040000Y-89894506D01*
X97040000Y-90445494D01*
X97250853Y-90954540D01*
X97640460Y-91344147D01*
X97871870Y-91440000D01*
X97640460Y-91535853D01*
X97250853Y-91925460D01*
X97040000Y-92434506D01*
X97040000Y-92985494D01*
X97250853Y-93494540D01*
X97640460Y-93884147D01*
X97871870Y-93980000D01*
X97640460Y-94075853D01*
X97250853Y-94465460D01*
X97040000Y-94974506D01*
X97040000Y-95525494D01*
X97250853Y-96034540D01*
X97640460Y-96424147D01*
X97871870Y-96520000D01*
X97640460Y-96615853D01*
X97250853Y-97005460D01*
X97040000Y-97514506D01*
X97040000Y-98065494D01*
X97250853Y-98574540D01*
X97640460Y-98964147D01*
X97871870Y-99060000D01*
X97640460Y-99155853D01*
X97250853Y-99545460D01*
X97040000Y-100054506D01*
X97040000Y-100605494D01*
X97250853Y-101114540D01*
X97640460Y-101504147D01*
X97871870Y-101600000D01*
X97640460Y-101695853D01*
X97250853Y-102085460D01*
X97040000Y-102594506D01*
X97040000Y-103145494D01*
X97250853Y-103654540D01*
X97640460Y-104044147D01*
X97871870Y-104140000D01*
X97640460Y-104235853D01*
X97250853Y-104625460D01*
X97040000Y-105134506D01*
X97040000Y-105685494D01*
X97250853Y-106194540D01*
X97640460Y-106584147D01*
X98149506Y-106795000D01*
X98700494Y-106795000D01*
X99209540Y-106584147D01*
X99599147Y-106194540D01*
X99810000Y-105685494D01*
X99810000Y-105134506D01*
X99599147Y-104625460D01*
X99209540Y-104235853D01*
X98978130Y-104140000D01*
X99209540Y-104044147D01*
X99599147Y-103654540D01*
X99810000Y-103145494D01*
X99810000Y-102594506D01*
X99599147Y-102085460D01*
X99209540Y-101695853D01*
X98978130Y-101600000D01*
X99209540Y-101504147D01*
X99599147Y-101114540D01*
X99810000Y-100605494D01*
X99810000Y-100054506D01*
X99599147Y-99545460D01*
X99209540Y-99155853D01*
X98978130Y-99060000D01*
X99209540Y-98964147D01*
X99599147Y-98574540D01*
X99810000Y-98065494D01*
X99810000Y-97514506D01*
X99599147Y-97005460D01*
X99209540Y-96615853D01*
X98978130Y-96520000D01*
X99209540Y-96424147D01*
X99599147Y-96034540D01*
X99810000Y-95525494D01*
X99810000Y-94974506D01*
X99599147Y-94465460D01*
X99209540Y-94075853D01*
X98978130Y-93980000D01*
X99209540Y-93884147D01*
X99599147Y-93494540D01*
X99810000Y-92985494D01*
X99810000Y-92434506D01*
X99599147Y-91925460D01*
X99209540Y-91535853D01*
X98978130Y-91440000D01*
X99209540Y-91344147D01*
X99599147Y-90954540D01*
X99810000Y-90445494D01*
X99810000Y-89894506D01*
X99599147Y-89385460D01*
X99209540Y-88995853D01*
X98978130Y-88900000D01*
X99209540Y-88804147D01*
X99599147Y-88414540D01*
X99810000Y-87905494D01*
X99810000Y-87354506D01*
X99599147Y-86845460D01*
X99209540Y-86455853D01*
X98978130Y-86360000D01*
X99209540Y-86264147D01*
X99599147Y-85874540D01*
X99810000Y-85365494D01*
X99810000Y-84814506D01*
X99599147Y-84305460D01*
X99209540Y-83915853D01*
X98978130Y-83820000D01*
X99209540Y-83724147D01*
X99599147Y-83334540D01*
X99810000Y-82825494D01*
X99810000Y-82274506D01*
X99599147Y-81765460D01*
X99209540Y-81375853D01*
X98978130Y-81280000D01*
X99209540Y-81184147D01*
X99599147Y-80794540D01*
X99810000Y-80285494D01*
X99810000Y-79734506D01*
X99599147Y-79225460D01*
X99209540Y-78835853D01*
X98978130Y-78740000D01*
X99209540Y-78644147D01*
X99599147Y-78254540D01*
X99810000Y-77745494D01*
X99810000Y-77194506D01*
X99599147Y-76685460D01*
X99209540Y-76295853D01*
X98978130Y-76200000D01*
X99209540Y-76104147D01*
X99599147Y-75714540D01*
X99810000Y-75205494D01*
X99810000Y-74654506D01*
X99599147Y-74145460D01*
X99209540Y-73755853D01*
X98978130Y-73660000D01*
X99209540Y-73564147D01*
X99599147Y-73174540D01*
X99810000Y-72665494D01*
X99810000Y-72114506D01*
X99599147Y-71605460D01*
X99209540Y-71215853D01*
X98978130Y-71120000D01*
X99209540Y-71024147D01*
X99599147Y-70634540D01*
X99810000Y-70125494D01*
X99810000Y-69574506D01*
X99599147Y-69065460D01*
X99209540Y-68675853D01*
X98978130Y-68580000D01*
X99209540Y-68484147D01*
X99599147Y-68094540D01*
X99810000Y-67585494D01*
X99810000Y-67034506D01*
X99599147Y-66525460D01*
X99209540Y-66135853D01*
X98700494Y-65925000D01*
X98149506Y-65925000D01*
X97640460Y-66135853D01*
X97250853Y-66525460D01*
X97040000Y-67034506D01*
X96635000Y-67034506D01*
X96424147Y-66525460D01*
X96034540Y-66135853D01*
X95525494Y-65925000D01*
X94974506Y-65925000D01*
X94465460Y-66135853D01*
X94075853Y-66525460D01*
X93980000Y-66756870D01*
X93884147Y-66525460D01*
X93494540Y-66135853D01*
X92985494Y-65925000D01*
X92434506Y-65925000D01*
X91925460Y-66135853D01*
X91535853Y-66525460D01*
X91440000Y-66756870D01*
X91344147Y-66525460D01*
X90954540Y-66135853D01*
X90445494Y-65925000D01*
X89894506Y-65925000D01*
X89385460Y-66135853D01*
X88995853Y-66525460D01*
X88900000Y-66756870D01*
X88804147Y-66525460D01*
X88414540Y-66135853D01*
X87905494Y-65925000D01*
X87354506Y-65925000D01*
X86845460Y-66135853D01*
X86455853Y-66525460D01*
X86360000Y-66756870D01*
X86264147Y-66525460D01*
X86130278Y-66391591D01*
X86605089Y-65916780D01*
X86664465Y-65877106D01*
X86704140Y-65817729D01*
X86704144Y-65817725D01*
X86800545Y-65673451D01*
X86821656Y-65641856D01*
X86862920Y-65434406D01*
X86862920Y-65434402D01*
X86876852Y-65364360D01*
X86862920Y-65294318D01*
X86862920Y-63037819D01*
X87025182Y-63146239D01*
X87458344Y-63232400D01*
X87750856Y-63232400D01*
X88184018Y-63146239D01*
X88675225Y-62818025D01*
X88874600Y-62519639D01*
X89073975Y-62818025D01*
X89565182Y-63146239D01*
X89998344Y-63232400D01*
X90290856Y-63232400D01*
X90724018Y-63146239D01*
X91215225Y-62818025D01*
X91414600Y-62519639D01*
X91613975Y-62818025D01*
X92105182Y-63146239D01*
X92538344Y-63232400D01*
X92830856Y-63232400D01*
X93264018Y-63146239D01*
X93755225Y-62818025D01*
X93954600Y-62519639D01*
X94153975Y-62818025D01*
X94645182Y-63146239D01*
X95078344Y-63232400D01*
X95370856Y-63232400D01*
X95804018Y-63146239D01*
X96295225Y-62818025D01*
X96494600Y-62519639D01*
X96693975Y-62818025D01*
X97185182Y-63146239D01*
X97618344Y-63232400D01*
X97910856Y-63232400D01*
X98344018Y-63146239D01*
X98835225Y-62818025D01*
X99034600Y-62519639D01*
X99233975Y-62818025D01*
X99725182Y-63146239D01*
X100158344Y-63232400D01*
X100450856Y-63232400D01*
X100884018Y-63146239D01*
X101375225Y-62818025D01*
X101703439Y-62326818D01*
X101818692Y-61747400D01*
X101703439Y-61167982D01*
X101375225Y-60676775D01*
X101076839Y-60477400D01*
X101375225Y-60278025D01*
X101703439Y-59786818D01*
X101818692Y-59207400D01*
X101703439Y-58627982D01*
X101375225Y-58136775D01*
X100884018Y-57808561D01*
X100450856Y-57722400D01*
X100158344Y-57722400D01*
X99725182Y-57808561D01*
X99233975Y-58136775D01*
X99034600Y-58435161D01*
X98835225Y-58136775D01*
X98344018Y-57808561D01*
X97910856Y-57722400D01*
X97618344Y-57722400D01*
X97185182Y-57808561D01*
X96693975Y-58136775D01*
X96494600Y-58435161D01*
X96295225Y-58136775D01*
X95804018Y-57808561D01*
X95370856Y-57722400D01*
X95078344Y-57722400D01*
X94645182Y-57808561D01*
X94153975Y-58136775D01*
X93954600Y-58435161D01*
X93755225Y-58136775D01*
X93264018Y-57808561D01*
X92830856Y-57722400D01*
X92538344Y-57722400D01*
X92105182Y-57808561D01*
X91613975Y-58136775D01*
X91414600Y-58435161D01*
X91215225Y-58136775D01*
X90724018Y-57808561D01*
X90290856Y-57722400D01*
X89998344Y-57722400D01*
X89565182Y-57808561D01*
X89073975Y-58136775D01*
X88874600Y-58435161D01*
X88675225Y-58136775D01*
X88184018Y-57808561D01*
X87750856Y-57722400D01*
X87458344Y-57722400D01*
X87025182Y-57808561D01*
X86533975Y-58136775D01*
X86334600Y-58435161D01*
X86135225Y-58136775D01*
X85644018Y-57808561D01*
X85210856Y-57722400D01*
X84918344Y-57722400D01*
X84485182Y-57808561D01*
X83993975Y-58136775D01*
X83794600Y-58435161D01*
X83595225Y-58136775D01*
X83104018Y-57808561D01*
X82670856Y-57722400D01*
X82378344Y-57722400D01*
X81945182Y-57808561D01*
X81453975Y-58136775D01*
X81254600Y-58435161D01*
X81055225Y-58136775D01*
X80564018Y-57808561D01*
X80130856Y-57722400D01*
X79838344Y-57722400D01*
X79405182Y-57808561D01*
X78913975Y-58136775D01*
X78714600Y-58435161D01*
X78515225Y-58136775D01*
X78024018Y-57808561D01*
X77590856Y-57722400D01*
X77298344Y-57722400D01*
X76865182Y-57808561D01*
X76373975Y-58136775D01*
X76174600Y-58435161D01*
X75975225Y-58136775D01*
X75484018Y-57808561D01*
X75050856Y-57722400D01*
X74758344Y-57722400D01*
X74325182Y-57808561D01*
X73833975Y-58136775D01*
X73634600Y-58435161D01*
X73435225Y-58136775D01*
X72944018Y-57808561D01*
X72510856Y-57722400D01*
X72218344Y-57722400D01*
X71785182Y-57808561D01*
X71293975Y-58136775D01*
X71094600Y-58435161D01*
X70895225Y-58136775D01*
X70404018Y-57808561D01*
X69970856Y-57722400D01*
X69678344Y-57722400D01*
X69245182Y-57808561D01*
X68753975Y-58136775D01*
X68554600Y-58435161D01*
X68355225Y-58136775D01*
X67864018Y-57808561D01*
X67430856Y-57722400D01*
X67138344Y-57722400D01*
X66705182Y-57808561D01*
X66213975Y-58136775D01*
X66014600Y-58435161D01*
X65815225Y-58136775D01*
X65324018Y-57808561D01*
X64890856Y-57722400D01*
X64598344Y-57722400D01*
X64165182Y-57808561D01*
X63673975Y-58136775D01*
X63474600Y-58435161D01*
X63275225Y-58136775D01*
X62784018Y-57808561D01*
X62350856Y-57722400D01*
X62058344Y-57722400D01*
X61625182Y-57808561D01*
X61133975Y-58136775D01*
X60934600Y-58435161D01*
X60735225Y-58136775D01*
X60244018Y-57808561D01*
X59810856Y-57722400D01*
X59518344Y-57722400D01*
X59085182Y-57808561D01*
X58593975Y-58136775D01*
X58394600Y-58435161D01*
X58195225Y-58136775D01*
X57704018Y-57808561D01*
X57270856Y-57722400D01*
X56978344Y-57722400D01*
X56545182Y-57808561D01*
X56053975Y-58136775D01*
X55854600Y-58435161D01*
X55655225Y-58136775D01*
X55164018Y-57808561D01*
X54730856Y-57722400D01*
X54438344Y-57722400D01*
X54005182Y-57808561D01*
X53513975Y-58136775D01*
X53314600Y-58435161D01*
X53115225Y-58136775D01*
X52755800Y-57896615D01*
X52755800Y-57847159D01*
X52899023Y-57703936D01*
X53047900Y-57344516D01*
X53047900Y-56955484D01*
X52899023Y-56596064D01*
X52623936Y-56320977D01*
X52264516Y-56172100D01*
X51875484Y-56172100D01*
X51516064Y-56320977D01*
X51240977Y-56596064D01*
X51092100Y-56955484D01*
X51092100Y-57344516D01*
X51240977Y-57703936D01*
X51333401Y-57796360D01*
X51333401Y-57896614D01*
X50973975Y-58136775D01*
X50645761Y-58627982D01*
X50530508Y-59207400D01*
X50265000Y-59207400D01*
X50265000Y-57182731D01*
X50336545Y-56381086D01*
X50540248Y-55636471D01*
X50872592Y-54939701D01*
X51323068Y-54312796D01*
X51877438Y-53775574D01*
X52518188Y-53345007D01*
X53225054Y-53034715D01*
X53981349Y-52853145D01*
X54636949Y-52805000D01*
X97757269Y-52805000D01*
X98558914Y-52876545D01*
X98558914Y-52876545D01*
G37*
X98558914Y-52876545D02*
X99303529Y-53080248D01*
X100000299Y-53412592D01*
X100627204Y-53863068D01*
X101164426Y-54417438D01*
X101594993Y-55058188D01*
X101905285Y-55765054D01*
X102086855Y-56521349D01*
X102135000Y-57176950D01*
X102135001Y-120617257D01*
X102063455Y-121418914D01*
X101859752Y-122163528D01*
X101527409Y-122860297D01*
X101076932Y-123487203D01*
X100522559Y-124024428D01*
X99881812Y-124454993D01*
X99174946Y-124765285D01*
X98418650Y-124946855D01*
X97763050Y-124995000D01*
X54642732Y-124995000D01*
X53841086Y-124923455D01*
X53096472Y-124719752D01*
X52399703Y-124387409D01*
X51772797Y-123936932D01*
X51235572Y-123382559D01*
X50805007Y-122741812D01*
X50494715Y-122034946D01*
X50313145Y-121278650D01*
X50265000Y-120623050D01*
X50265000Y-119419000D01*
X51004360Y-119419000D01*
X51004360Y-121119000D01*
X51053643Y-121366765D01*
X51193991Y-121576809D01*
X51404035Y-121717157D01*
X51651800Y-121766440D01*
X53351800Y-121766440D01*
X53599565Y-121717157D01*
X53809609Y-121576809D01*
X53949957Y-121366765D01*
X53958984Y-121321381D01*
X53971175Y-121339625D01*
X54462382Y-121667839D01*
X54895544Y-121754000D01*
X55188056Y-121754000D01*
X55621218Y-121667839D01*
X56112425Y-121339625D01*
X56311800Y-121041239D01*
X56511175Y-121339625D01*
X57002382Y-121667839D01*
X57435544Y-121754000D01*
X57728056Y-121754000D01*
X58161218Y-121667839D01*
X58652425Y-121339625D01*
X58851800Y-121041239D01*
X59051175Y-121339625D01*
X59542382Y-121667839D01*
X59975544Y-121754000D01*
X60268056Y-121754000D01*
X60701218Y-121667839D01*
X61192425Y-121339625D01*
X61391800Y-121041239D01*
X61591175Y-121339625D01*
X62082382Y-121667839D01*
X62515544Y-121754000D01*
X62808056Y-121754000D01*
X63241218Y-121667839D01*
X63732425Y-121339625D01*
X63931800Y-121041239D01*
X64131175Y-121339625D01*
X64622382Y-121667839D01*
X65055544Y-121754000D01*
X65348056Y-121754000D01*
X65781218Y-121667839D01*
X66272425Y-121339625D01*
X66471800Y-121041239D01*
X66671175Y-121339625D01*
X67162382Y-121667839D01*
X67595544Y-121754000D01*
X67888056Y-121754000D01*
X68321218Y-121667839D01*
X68812425Y-121339625D01*
X69011800Y-121041239D01*
X69211175Y-121339625D01*
X69702382Y-121667839D01*
X70135544Y-121754000D01*
X70428056Y-121754000D01*
X70861218Y-121667839D01*
X71352425Y-121339625D01*
X71680639Y-120848418D01*
X71795892Y-120269000D01*
X71680639Y-119689582D01*
X71499842Y-119419000D01*
X80468360Y-119419000D01*
X80468360Y-121119000D01*
X80517643Y-121366765D01*
X80657991Y-121576809D01*
X80868035Y-121717157D01*
X81115800Y-121766440D01*
X82815800Y-121766440D01*
X83063565Y-121717157D01*
X83273609Y-121576809D01*
X83413957Y-121366765D01*
X83422984Y-121321381D01*
X83435175Y-121339625D01*
X83926382Y-121667839D01*
X84359544Y-121754000D01*
X84652056Y-121754000D01*
X85085218Y-121667839D01*
X85576425Y-121339625D01*
X85775800Y-121041239D01*
X85975175Y-121339625D01*
X86466382Y-121667839D01*
X86899544Y-121754000D01*
X87192056Y-121754000D01*
X87625218Y-121667839D01*
X88116425Y-121339625D01*
X88315800Y-121041239D01*
X88515175Y-121339625D01*
X89006382Y-121667839D01*
X89439544Y-121754000D01*
X89732056Y-121754000D01*
X90165218Y-121667839D01*
X90656425Y-121339625D01*
X90855800Y-121041239D01*
X91055175Y-121339625D01*
X91546382Y-121667839D01*
X91979544Y-121754000D01*
X92272056Y-121754000D01*
X92705218Y-121667839D01*
X93196425Y-121339625D01*
X93395800Y-121041239D01*
X93595175Y-121339625D01*
X94086382Y-121667839D01*
X94519544Y-121754000D01*
X94812056Y-121754000D01*
X95245218Y-121667839D01*
X95736425Y-121339625D01*
X95935800Y-121041239D01*
X96135175Y-121339625D01*
X96626382Y-121667839D01*
X97059544Y-121754000D01*
X97352056Y-121754000D01*
X97785218Y-121667839D01*
X98276425Y-121339625D01*
X98475800Y-121041239D01*
X98675175Y-121339625D01*
X99166382Y-121667839D01*
X99599544Y-121754000D01*
X99892056Y-121754000D01*
X100325218Y-121667839D01*
X100816425Y-121339625D01*
X101144639Y-120848418D01*
X101259892Y-120269000D01*
X101144639Y-119689582D01*
X100816425Y-119198375D01*
X100325218Y-118870161D01*
X99892056Y-118784000D01*
X99599544Y-118784000D01*
X99166382Y-118870161D01*
X98675175Y-119198375D01*
X98475800Y-119496761D01*
X98276425Y-119198375D01*
X97785218Y-118870161D01*
X97352056Y-118784000D01*
X97059544Y-118784000D01*
X96626382Y-118870161D01*
X96135175Y-119198375D01*
X95935800Y-119496761D01*
X95736425Y-119198375D01*
X95245218Y-118870161D01*
X94812056Y-118784000D01*
X94519544Y-118784000D01*
X94086382Y-118870161D01*
X93595175Y-119198375D01*
X93395800Y-119496761D01*
X93196425Y-119198375D01*
X92705218Y-118870161D01*
X92272056Y-118784000D01*
X91979544Y-118784000D01*
X91546382Y-118870161D01*
X91055175Y-119198375D01*
X90855800Y-119496761D01*
X90656425Y-119198375D01*
X90165218Y-118870161D01*
X89732056Y-118784000D01*
X89439544Y-118784000D01*
X89006382Y-118870161D01*
X88515175Y-119198375D01*
X88315800Y-119496761D01*
X88116425Y-119198375D01*
X87625218Y-118870161D01*
X87192056Y-118784000D01*
X86899544Y-118784000D01*
X86466382Y-118870161D01*
X85975175Y-119198375D01*
X85775800Y-119496761D01*
X85576425Y-119198375D01*
X85085218Y-118870161D01*
X84652056Y-118784000D01*
X84359544Y-118784000D01*
X83926382Y-118870161D01*
X83435175Y-119198375D01*
X83422984Y-119216619D01*
X83413957Y-119171235D01*
X83273609Y-118961191D01*
X83063565Y-118820843D01*
X82815800Y-118771560D01*
X81115800Y-118771560D01*
X80868035Y-118820843D01*
X80657991Y-118961191D01*
X80517643Y-119171235D01*
X80468360Y-119419000D01*
X71499842Y-119419000D01*
X71352425Y-119198375D01*
X70861218Y-118870161D01*
X70428056Y-118784000D01*
X70135544Y-118784000D01*
X69702382Y-118870161D01*
X69211175Y-119198375D01*
X69011800Y-119496761D01*
X68812425Y-119198375D01*
X68321218Y-118870161D01*
X67888056Y-118784000D01*
X67595544Y-118784000D01*
X67162382Y-118870161D01*
X66671175Y-119198375D01*
X66471800Y-119496761D01*
X66272425Y-119198375D01*
X65781218Y-118870161D01*
X65348056Y-118784000D01*
X65055544Y-118784000D01*
X64622382Y-118870161D01*
X64131175Y-119198375D01*
X63931800Y-119496761D01*
X63732425Y-119198375D01*
X63241218Y-118870161D01*
X62808056Y-118784000D01*
X62515544Y-118784000D01*
X62082382Y-118870161D01*
X61591175Y-119198375D01*
X61391800Y-119496761D01*
X61192425Y-119198375D01*
X60701218Y-118870161D01*
X60268056Y-118784000D01*
X59975544Y-118784000D01*
X59542382Y-118870161D01*
X59051175Y-119198375D01*
X58851800Y-119496761D01*
X58652425Y-119198375D01*
X58161218Y-118870161D01*
X57728056Y-118784000D01*
X57435544Y-118784000D01*
X57002382Y-118870161D01*
X56511175Y-119198375D01*
X56311800Y-119496761D01*
X56112425Y-119198375D01*
X55621218Y-118870161D01*
X55188056Y-118784000D01*
X54895544Y-118784000D01*
X54462382Y-118870161D01*
X53971175Y-119198375D01*
X53958984Y-119216619D01*
X53949957Y-119171235D01*
X53809609Y-118961191D01*
X53599565Y-118820843D01*
X53351800Y-118771560D01*
X51651800Y-118771560D01*
X51404035Y-118820843D01*
X51193991Y-118961191D01*
X51053643Y-119171235D01*
X51004360Y-119419000D01*
X50265000Y-119419000D01*
X50265000Y-69574506D01*
X50685000Y-69574506D01*
X50685000Y-70125494D01*
X50895853Y-70634540D01*
X51285460Y-71024147D01*
X51358800Y-71054525D01*
X51358801Y-72353240D01*
X51240977Y-72471064D01*
X51092100Y-72830484D01*
X51092100Y-73219516D01*
X51240977Y-73578936D01*
X51516064Y-73854023D01*
X51875484Y-74002900D01*
X52264516Y-74002900D01*
X52623936Y-73854023D01*
X52899023Y-73578936D01*
X53047900Y-73219516D01*
X53047900Y-72830484D01*
X52899023Y-72471064D01*
X52781200Y-72353241D01*
X52781200Y-71054525D01*
X52854540Y-71024147D01*
X53244147Y-70634540D01*
X53455000Y-70125494D01*
X53455000Y-69574506D01*
X53244147Y-69065460D01*
X52854540Y-68675853D01*
X52639070Y-68586603D01*
X52793923Y-68522460D01*
X52861912Y-68281517D01*
X52070000Y-67489605D01*
X51278088Y-68281517D01*
X51346077Y-68522460D01*
X51512658Y-68581745D01*
X51285460Y-68675853D01*
X50895853Y-69065460D01*
X50685000Y-69574506D01*
X50265000Y-69574506D01*
X50265000Y-67105171D01*
X50672799Y-67105171D01*
X50700770Y-67655448D01*
X50857540Y-68033923D01*
X51098483Y-68101912D01*
X51890395Y-67310000D01*
X52249605Y-67310000D01*
X53041517Y-68101912D01*
X53282460Y-68033923D01*
X53467201Y-67514829D01*
X53439230Y-66964552D01*
X53282460Y-66586077D01*
X53041517Y-66518088D01*
X52249605Y-67310000D01*
X51890395Y-67310000D01*
X51098483Y-66518088D01*
X50857540Y-66586077D01*
X50672799Y-67105171D01*
X50265000Y-67105171D01*
X50265000Y-66338483D01*
X51278088Y-66338483D01*
X52070000Y-67130395D01*
X52861912Y-66338483D01*
X52793923Y-66097540D01*
X52274829Y-65912799D01*
X51724552Y-65940770D01*
X51346077Y-66097540D01*
X51278088Y-66338483D01*
X50265000Y-66338483D01*
X50265000Y-62033150D01*
X50559600Y-62033150D01*
X50559600Y-62723709D01*
X50656273Y-62957098D01*
X50834901Y-63135727D01*
X51068290Y-63232400D01*
X51758850Y-63232400D01*
X51917600Y-63073650D01*
X51917600Y-61874400D01*
X50718350Y-61874400D01*
X50559600Y-62033150D01*
X50265000Y-62033150D01*
X50265000Y-59207400D01*
X50530508Y-59207400D01*
X50645761Y-59786818D01*
X50973975Y-60278025D01*
X50995632Y-60292496D01*
X50834901Y-60359073D01*
X50656273Y-60537702D01*
X50559600Y-60771091D01*
X50559600Y-61461650D01*
X50718350Y-61620400D01*
X51917600Y-61620400D01*
X51917600Y-61600400D01*
X52171600Y-61600400D01*
X52171600Y-61620400D01*
X52191600Y-61620400D01*
X52191600Y-61874400D01*
X52171600Y-61874400D01*
X52171600Y-63073650D01*
X52330350Y-63232400D01*
X53020910Y-63232400D01*
X53254299Y-63135727D01*
X53432927Y-62957098D01*
X53499504Y-62796367D01*
X53513975Y-62818025D01*
X54005182Y-63146239D01*
X54438344Y-63232400D01*
X54730856Y-63232400D01*
X55164018Y-63146239D01*
X55655225Y-62818025D01*
X55854600Y-62519639D01*
X56053975Y-62818025D01*
X56545182Y-63146239D01*
X56978344Y-63232400D01*
X57270856Y-63232400D01*
X57704018Y-63146239D01*
X58195225Y-62818025D01*
X58394600Y-62519639D01*
X58593975Y-62818025D01*
X59085182Y-63146239D01*
X59518344Y-63232400D01*
X59810856Y-63232400D01*
X60244018Y-63146239D01*
X60735225Y-62818025D01*
X60934600Y-62519639D01*
X61133975Y-62818025D01*
X61625182Y-63146239D01*
X62058344Y-63232400D01*
X62350856Y-63232400D01*
X62784018Y-63146239D01*
X63275225Y-62818025D01*
X63474600Y-62519639D01*
X63673975Y-62818025D01*
X64066841Y-63080530D01*
X60788574Y-66358798D01*
X60729194Y-66398475D01*
X60689518Y-66457854D01*
X60689516Y-66457856D01*
X60644760Y-66524838D01*
X60572004Y-66633725D01*
X60530740Y-66841175D01*
X60530740Y-66841179D01*
X60516808Y-66911220D01*
X60530740Y-66981261D01*
X60530741Y-101023470D01*
X58535000Y-103019212D01*
X58535000Y-102594506D01*
X58324147Y-102085460D01*
X57934540Y-101695853D01*
X57703130Y-101600000D01*
X57934540Y-101504147D01*
X58324147Y-101114540D01*
X58535000Y-100605494D01*
X58535000Y-100054506D01*
X58324147Y-99545460D01*
X57934540Y-99155853D01*
X57703130Y-99060000D01*
X57934540Y-98964147D01*
X58324147Y-98574540D01*
X58535000Y-98065494D01*
X58535000Y-97514506D01*
X58324147Y-97005460D01*
X57934540Y-96615853D01*
X57703130Y-96520000D01*
X57934540Y-96424147D01*
X58324147Y-96034540D01*
X58535000Y-95525494D01*
X58535000Y-94974506D01*
X58324147Y-94465460D01*
X57934540Y-94075853D01*
X57703130Y-93980000D01*
X57934540Y-93884147D01*
X58324147Y-93494540D01*
X58535000Y-92985494D01*
X58535000Y-92434506D01*
X58324147Y-91925460D01*
X57934540Y-91535853D01*
X57703130Y-91440000D01*
X57934540Y-91344147D01*
X58324147Y-90954540D01*
X58535000Y-90445494D01*
X58535000Y-89894506D01*
X58324147Y-89385460D01*
X57934540Y-88995853D01*
X57703130Y-88900000D01*
X57934540Y-88804147D01*
X58324147Y-88414540D01*
X58535000Y-87905494D01*
X58535000Y-87354506D01*
X58324147Y-86845460D01*
X57934540Y-86455853D01*
X57703130Y-86360000D01*
X57934540Y-86264147D01*
X58324147Y-85874540D01*
X58535000Y-85365494D01*
X58535000Y-84814506D01*
X58324147Y-84305460D01*
X57934540Y-83915853D01*
X57703130Y-83820000D01*
X57934540Y-83724147D01*
X58324147Y-83334540D01*
X58535000Y-82825494D01*
X58535000Y-82274506D01*
X58324147Y-81765460D01*
X57934540Y-81375853D01*
X57703130Y-81280000D01*
X57934540Y-81184147D01*
X58324147Y-80794540D01*
X58535000Y-80285494D01*
X58535000Y-79734506D01*
X58324147Y-79225460D01*
X57934540Y-78835853D01*
X57703130Y-78740000D01*
X57934540Y-78644147D01*
X58324147Y-78254540D01*
X58535000Y-77745494D01*
X58535000Y-77194506D01*
X58324147Y-76685460D01*
X57934540Y-76295853D01*
X57703130Y-76200000D01*
X57934540Y-76104147D01*
X58324147Y-75714540D01*
X58535000Y-75205494D01*
X58535000Y-74654506D01*
X58324147Y-74145460D01*
X57934540Y-73755853D01*
X57703130Y-73660000D01*
X57934540Y-73564147D01*
X58324147Y-73174540D01*
X58535000Y-72665494D01*
X58535000Y-72114506D01*
X58324147Y-71605460D01*
X57934540Y-71215853D01*
X57703130Y-71120000D01*
X57934540Y-71024147D01*
X58324147Y-70634540D01*
X58535000Y-70125494D01*
X58535000Y-69574506D01*
X58324147Y-69065460D01*
X57934540Y-68675853D01*
X57703130Y-68580000D01*
X57934540Y-68484147D01*
X58324147Y-68094540D01*
X58535000Y-67585494D01*
X58535000Y-67034506D01*
X58324147Y-66525460D01*
X57934540Y-66135853D01*
X57425494Y-65925000D01*
X56874506Y-65925000D01*
X56365460Y-66135853D01*
X55975853Y-66525460D01*
X55765000Y-67034506D01*
X55765000Y-67585494D01*
X55975853Y-68094540D01*
X56365460Y-68484147D01*
X56596870Y-68580000D01*
X56365460Y-68675853D01*
X55975853Y-69065460D01*
X55765000Y-69574506D01*
X55765000Y-70125494D01*
X55975853Y-70634540D01*
X56365460Y-71024147D01*
X56596870Y-71120000D01*
X56365460Y-71215853D01*
X55975853Y-71605460D01*
X55765000Y-72114506D01*
X55765000Y-72665494D01*
X55975853Y-73174540D01*
X56365460Y-73564147D01*
X56596870Y-73660000D01*
X56365460Y-73755853D01*
X55975853Y-74145460D01*
X55765000Y-74654506D01*
X55765000Y-75205494D01*
X55975853Y-75714540D01*
X56365460Y-76104147D01*
X56596870Y-76200000D01*
X56365460Y-76295853D01*
X55975853Y-76685460D01*
X55765000Y-77194506D01*
X55765000Y-77745494D01*
X55975853Y-78254540D01*
X56365460Y-78644147D01*
X56596870Y-78740000D01*
X56365460Y-78835853D01*
X55975853Y-79225460D01*
X55765000Y-79734506D01*
X55765000Y-80285494D01*
X55975853Y-80794540D01*
X56365460Y-81184147D01*
X56596870Y-81280000D01*
X56365460Y-81375853D01*
X55975853Y-81765460D01*
X55765000Y-82274506D01*
X55765000Y-82825494D01*
X55975853Y-83334540D01*
X56365460Y-83724147D01*
X56596870Y-83820000D01*
X56365460Y-83915853D01*
X55975853Y-84305460D01*
X55765000Y-84814506D01*
X55765000Y-85365494D01*
X55975853Y-85874540D01*
X56365460Y-86264147D01*
X56596870Y-86360000D01*
X56365460Y-86455853D01*
X55975853Y-86845460D01*
X55765000Y-87354506D01*
X55765000Y-87905494D01*
X55975853Y-88414540D01*
X56365460Y-88804147D01*
X56596870Y-88900000D01*
X56365460Y-88995853D01*
X55975853Y-89385460D01*
X55765000Y-89894506D01*
X55765000Y-90445494D01*
X55975853Y-90954540D01*
X56365460Y-91344147D01*
X56596870Y-91440000D01*
X56365460Y-91535853D01*
X55975853Y-91925460D01*
X55765000Y-92434506D01*
X55765000Y-92985494D01*
X55975853Y-93494540D01*
X56365460Y-93884147D01*
X56596870Y-93980000D01*
X56365460Y-94075853D01*
X55975853Y-94465460D01*
X55765000Y-94974506D01*
X55765000Y-95525494D01*
X55975853Y-96034540D01*
X56365460Y-96424147D01*
X56596870Y-96520000D01*
X56365460Y-96615853D01*
X55975853Y-97005460D01*
X55765000Y-97514506D01*
X55765000Y-98065494D01*
X55975853Y-98574540D01*
X56365460Y-98964147D01*
X56596870Y-99060000D01*
X56365460Y-99155853D01*
X55975853Y-99545460D01*
X55765000Y-100054506D01*
X55765000Y-100605494D01*
X55975853Y-101114540D01*
X56365460Y-101504147D01*
X56596870Y-101600000D01*
X56365460Y-101695853D01*
X55975853Y-102085460D01*
X55765000Y-102594506D01*
X55765000Y-103145494D01*
X55975853Y-103654540D01*
X56365460Y-104044147D01*
X56596870Y-104140000D01*
X56365460Y-104235853D01*
X55975853Y-104625460D01*
X55765000Y-105134506D01*
X55765000Y-105685494D01*
X55975853Y-106194540D01*
X56365460Y-106584147D01*
X56874506Y-106795000D01*
X57425494Y-106795000D01*
X57934540Y-106584147D01*
X58324147Y-106194540D01*
X58535000Y-105685494D01*
X58535000Y-105134506D01*
X58504622Y-105061166D01*
X61695307Y-101870482D01*
X61754686Y-101830806D01*
X61794362Y-101771427D01*
X61794364Y-101771425D01*
X61911875Y-101595558D01*
X61911875Y-101595557D01*
X61911876Y-101595556D01*
X61953140Y-101388106D01*
X61953140Y-101388103D01*
X61967072Y-101318061D01*
X61953140Y-101248019D01*
X61953140Y-86474434D01*
X61954506Y-86475000D01*
X62505494Y-86475000D01*
X63014540Y-86264147D01*
X63404147Y-85874540D01*
X63615000Y-85365494D01*
X63615000Y-84814506D01*
X63584622Y-84741166D01*
X65925000Y-82400789D01*
X65925000Y-82825494D01*
X66135853Y-83334540D01*
X66525460Y-83724147D01*
X66756870Y-83820000D01*
X66525460Y-83915853D01*
X66135853Y-84305460D01*
X65925000Y-84814506D01*
X65925000Y-85365494D01*
X66135853Y-85874540D01*
X66525460Y-86264147D01*
X66756870Y-86360000D01*
X66525460Y-86455853D01*
X66135853Y-86845460D01*
X65925000Y-87354506D01*
X65925000Y-87905494D01*
X66135853Y-88414540D01*
X66525460Y-88804147D01*
X66756870Y-88900000D01*
X66525460Y-88995853D01*
X66135853Y-89385460D01*
X65925000Y-89894506D01*
X65925000Y-90445494D01*
X66135853Y-90954540D01*
X66525460Y-91344147D01*
X66756870Y-91440000D01*
X66525460Y-91535853D01*
X66135853Y-91925460D01*
X65925000Y-92434506D01*
X65925000Y-92985494D01*
X66135853Y-93494540D01*
X66525460Y-93884147D01*
X66756870Y-93980000D01*
X66525460Y-94075853D01*
X66135853Y-94465460D01*
X65925000Y-94974506D01*
X65925000Y-95525494D01*
X66135853Y-96034540D01*
X66525460Y-96424147D01*
X66756870Y-96520000D01*
X66525460Y-96615853D01*
X66135853Y-97005460D01*
X65925000Y-97514506D01*
X65925000Y-98065494D01*
X66135853Y-98574540D01*
X66525460Y-98964147D01*
X66756870Y-99060000D01*
X66525460Y-99155853D01*
X66135853Y-99545460D01*
X65925000Y-100054506D01*
X65925000Y-100605494D01*
X66135853Y-101114540D01*
X66525460Y-101504147D01*
X67034506Y-101715000D01*
X67585494Y-101715000D01*
X68094540Y-101504147D01*
X68484147Y-101114540D01*
X68695000Y-100605494D01*
X68695000Y-100054506D01*
X68484147Y-99545460D01*
X68094540Y-99155853D01*
X67863130Y-99060000D01*
X68094540Y-98964147D01*
X68484147Y-98574540D01*
X68695000Y-98065494D01*
X68695000Y-97514506D01*
X68484147Y-97005460D01*
X68094540Y-96615853D01*
X67863130Y-96520000D01*
X68094540Y-96424147D01*
X68484147Y-96034540D01*
X68695000Y-95525494D01*
X68695000Y-94974506D01*
X68484147Y-94465460D01*
X68094540Y-94075853D01*
X67863130Y-93980000D01*
X68094540Y-93884147D01*
X68484147Y-93494540D01*
X68695000Y-92985494D01*
X68695000Y-92434506D01*
X68484147Y-91925460D01*
X68094540Y-91535853D01*
X67863130Y-91440000D01*
X68094540Y-91344147D01*
X68484147Y-90954540D01*
X68695000Y-90445494D01*
X68695000Y-89894506D01*
X68484147Y-89385460D01*
X68094540Y-88995853D01*
X67863130Y-88900000D01*
X68094540Y-88804147D01*
X68484147Y-88414540D01*
X68695000Y-87905494D01*
X68695000Y-87354506D01*
X68484147Y-86845460D01*
X68094540Y-86455853D01*
X67863130Y-86360000D01*
X68094540Y-86264147D01*
X68484147Y-85874540D01*
X68695000Y-85365494D01*
X68695000Y-84814506D01*
X68484147Y-84305460D01*
X68094540Y-83915853D01*
X67863130Y-83820000D01*
X68094540Y-83724147D01*
X68484147Y-83334540D01*
X68695000Y-82825494D01*
X68695000Y-82274506D01*
X68484147Y-81765460D01*
X68094540Y-81375853D01*
X67863130Y-81280000D01*
X68094540Y-81184147D01*
X68484147Y-80794540D01*
X68695000Y-80285494D01*
X68695000Y-79734506D01*
X68484147Y-79225460D01*
X68094540Y-78835853D01*
X67863130Y-78740000D01*
X68094540Y-78644147D01*
X68484147Y-78254540D01*
X68695000Y-77745494D01*
X68695000Y-77194506D01*
X68484147Y-76685460D01*
X68094540Y-76295853D01*
X67863130Y-76200000D01*
X68094540Y-76104147D01*
X68484147Y-75714540D01*
X68695000Y-75205494D01*
X68695000Y-74654506D01*
X68484147Y-74145460D01*
X68094540Y-73755853D01*
X67863130Y-73660000D01*
X68094540Y-73564147D01*
X68484147Y-73174540D01*
X68695000Y-72665494D01*
X68695000Y-72114506D01*
X68484147Y-71605460D01*
X68094540Y-71215853D01*
X67863130Y-71120000D01*
X68094540Y-71024147D01*
X68484147Y-70634540D01*
X68512848Y-70565248D01*
X68533201Y-70561200D01*
X68533206Y-70561200D01*
X68740656Y-70519936D01*
X68975906Y-70362746D01*
X69015584Y-70303364D01*
X71220131Y-68098818D01*
X71605460Y-68484147D01*
X71836870Y-68580000D01*
X71605460Y-68675853D01*
X71215853Y-69065460D01*
X71005000Y-69574506D01*
X71005000Y-70125494D01*
X71215853Y-70634540D01*
X71605460Y-71024147D01*
X71836870Y-71120000D01*
X71605460Y-71215853D01*
X71215853Y-71605460D01*
X71005000Y-72114506D01*
X71005000Y-72665494D01*
X71215853Y-73174540D01*
X71605460Y-73564147D01*
X71836870Y-73660000D01*
X71605460Y-73755853D01*
X71215853Y-74145460D01*
X71005000Y-74654506D01*
X71005000Y-75205494D01*
X71215853Y-75714540D01*
X71605460Y-76104147D01*
X71836870Y-76200000D01*
X71605460Y-76295853D01*
X71215853Y-76685460D01*
X71005000Y-77194506D01*
X71005000Y-77745494D01*
X71215853Y-78254540D01*
X71605460Y-78644147D01*
X71836870Y-78740000D01*
X71605460Y-78835853D01*
X71215853Y-79225460D01*
X71005000Y-79734506D01*
X71005000Y-80285494D01*
X71215853Y-80794540D01*
X71605460Y-81184147D01*
X71836870Y-81280000D01*
X71605460Y-81375853D01*
X71215853Y-81765460D01*
X71005000Y-82274506D01*
X71005000Y-82825494D01*
X71215853Y-83334540D01*
X71605460Y-83724147D01*
X71836870Y-83820000D01*
X71605460Y-83915853D01*
X71215853Y-84305460D01*
X71005000Y-84814506D01*
X71005000Y-85365494D01*
X71215853Y-85874540D01*
X71605460Y-86264147D01*
X71836870Y-86360000D01*
X71605460Y-86455853D01*
X71215853Y-86845460D01*
X71005000Y-87354506D01*
X71005000Y-87905494D01*
X71215853Y-88414540D01*
X71605460Y-88804147D01*
X71836870Y-88900000D01*
X71605460Y-88995853D01*
X71215853Y-89385460D01*
X71005000Y-89894506D01*
X71005000Y-90445494D01*
X71215853Y-90954540D01*
X71605460Y-91344147D01*
X71836870Y-91440000D01*
X71605460Y-91535853D01*
X71215853Y-91925460D01*
X71005000Y-92434506D01*
X71005000Y-92985494D01*
X71215853Y-93494540D01*
X71605460Y-93884147D01*
X71836870Y-93980000D01*
X71605460Y-94075853D01*
X71215853Y-94465460D01*
X71005000Y-94974506D01*
X71005000Y-95525494D01*
X71215853Y-96034540D01*
X71605460Y-96424147D01*
X71836870Y-96520000D01*
X71605460Y-96615853D01*
X71215853Y-97005460D01*
X71005000Y-97514506D01*
X71005000Y-98065494D01*
X71215853Y-98574540D01*
X71605460Y-98964147D01*
X71836870Y-99060000D01*
X71605460Y-99155853D01*
X71215853Y-99545460D01*
X71005000Y-100054506D01*
X71005000Y-100605494D01*
X71215853Y-101114540D01*
X71605460Y-101504147D01*
X71836870Y-101600000D01*
X71605460Y-101695853D01*
X71215853Y-102085460D01*
X71005000Y-102594506D01*
X71005000Y-103145494D01*
X71215853Y-103654540D01*
X71605460Y-104044147D01*
X71836870Y-104140000D01*
X71605460Y-104235853D01*
X71215853Y-104625460D01*
X71005000Y-105134506D01*
X71005000Y-105685494D01*
X71215853Y-106194540D01*
X71605460Y-106584147D01*
X71836870Y-106680000D01*
X71605460Y-106775853D01*
X71215853Y-107165460D01*
X71005000Y-107674506D01*
X71005000Y-108225494D01*
X71215853Y-108734540D01*
X71605460Y-109124147D01*
X71836870Y-109220000D01*
X71605460Y-109315853D01*
X71215853Y-109705460D01*
X71120000Y-109936870D01*
X71024147Y-109705460D01*
X70634540Y-109315853D01*
X70125494Y-109105000D01*
X69574506Y-109105000D01*
X69065460Y-109315853D01*
X68675853Y-109705460D01*
X68580000Y-109936870D01*
X68484147Y-109705460D01*
X68094540Y-109315853D01*
X67585494Y-109105000D01*
X67034506Y-109105000D01*
X66525460Y-109315853D01*
X66135853Y-109705460D01*
X66040000Y-109936870D01*
X65944147Y-109705460D01*
X65554540Y-109315853D01*
X65045494Y-109105000D01*
X64494506Y-109105000D01*
X63985460Y-109315853D01*
X63595853Y-109705460D01*
X63500000Y-109936870D01*
X63404147Y-109705460D01*
X63014540Y-109315853D01*
X62505494Y-109105000D01*
X61954506Y-109105000D01*
X61445460Y-109315853D01*
X61055853Y-109705460D01*
X60960000Y-109936870D01*
X60864147Y-109705460D01*
X60474540Y-109315853D01*
X59965494Y-109105000D01*
X59414506Y-109105000D01*
X58905460Y-109315853D01*
X58515853Y-109705460D01*
X58420000Y-109936870D01*
X58324147Y-109705460D01*
X57934540Y-109315853D01*
X57425494Y-109105000D01*
X56874506Y-109105000D01*
X56365460Y-109315853D01*
X55975853Y-109705460D01*
X55880000Y-109936870D01*
X55784147Y-109705460D01*
X55394540Y-109315853D01*
X54885494Y-109105000D01*
X54334506Y-109105000D01*
X53825460Y-109315853D01*
X53435853Y-109705460D01*
X53340000Y-109936870D01*
X53244147Y-109705460D01*
X52854540Y-109315853D01*
X52345494Y-109105000D01*
X51794506Y-109105000D01*
X51285460Y-109315853D01*
X50895853Y-109705460D01*
X50685000Y-110214506D01*
X50685000Y-110765494D01*
X50895853Y-111274540D01*
X51285460Y-111664147D01*
X51516870Y-111760000D01*
X51285460Y-111855853D01*
X50895853Y-112245460D01*
X50685000Y-112754506D01*
X50685000Y-113305494D01*
X50895853Y-113814540D01*
X51285460Y-114204147D01*
X51516870Y-114300000D01*
X51285460Y-114395853D01*
X50895853Y-114785460D01*
X50685000Y-115294506D01*
X50685000Y-115845494D01*
X50895853Y-116354540D01*
X51285460Y-116744147D01*
X51794506Y-116955000D01*
X52345494Y-116955000D01*
X52854540Y-116744147D01*
X53244147Y-116354540D01*
X53340000Y-116123130D01*
X53435853Y-116354540D01*
X53825460Y-116744147D01*
X54334506Y-116955000D01*
X54885494Y-116955000D01*
X55394540Y-116744147D01*
X55784147Y-116354540D01*
X55880000Y-116123130D01*
X55975853Y-116354540D01*
X56365460Y-116744147D01*
X56874506Y-116955000D01*
X57425494Y-116955000D01*
X57934540Y-116744147D01*
X58324147Y-116354540D01*
X58420000Y-116123130D01*
X58515853Y-116354540D01*
X58905460Y-116744147D01*
X59414506Y-116955000D01*
X59965494Y-116955000D01*
X60474540Y-116744147D01*
X60864147Y-116354540D01*
X60960000Y-116123130D01*
X61055853Y-116354540D01*
X61445460Y-116744147D01*
X61954506Y-116955000D01*
X62505494Y-116955000D01*
X63014540Y-116744147D01*
X63404147Y-116354540D01*
X63500000Y-116123130D01*
X63595853Y-116354540D01*
X63985460Y-116744147D01*
X64494506Y-116955000D01*
X65045494Y-116955000D01*
X65554540Y-116744147D01*
X65944147Y-116354540D01*
X66040000Y-116123130D01*
X66135853Y-116354540D01*
X66525460Y-116744147D01*
X67034506Y-116955000D01*
X67585494Y-116955000D01*
X68094540Y-116744147D01*
X68484147Y-116354540D01*
X68580000Y-116123130D01*
X68675853Y-116354540D01*
X69065460Y-116744147D01*
X69574506Y-116955000D01*
X70125494Y-116955000D01*
X70634540Y-116744147D01*
X71024147Y-116354540D01*
X71120000Y-116123130D01*
X71215853Y-116354540D01*
X71605460Y-116744147D01*
X72114506Y-116955000D01*
X72665494Y-116955000D01*
X73174540Y-116744147D01*
X73564147Y-116354540D01*
X73660000Y-116123130D01*
X73755853Y-116354540D01*
X74145460Y-116744147D01*
X74654506Y-116955000D01*
X75205494Y-116955000D01*
X75714540Y-116744147D01*
X76104147Y-116354540D01*
X76200000Y-116123130D01*
X76295853Y-116354540D01*
X76685460Y-116744147D01*
X77194506Y-116955000D01*
X77745494Y-116955000D01*
X78254540Y-116744147D01*
X78644147Y-116354540D01*
X78740000Y-116123130D01*
X78835853Y-116354540D01*
X79225460Y-116744147D01*
X79734506Y-116955000D01*
X80285494Y-116955000D01*
X80794540Y-116744147D01*
X81184147Y-116354540D01*
X81280000Y-116123130D01*
X81375853Y-116354540D01*
X81765460Y-116744147D01*
X82274506Y-116955000D01*
X82825494Y-116955000D01*
X83334540Y-116744147D01*
X83724147Y-116354540D01*
X83820000Y-116123130D01*
X83915853Y-116354540D01*
X84305460Y-116744147D01*
X84814506Y-116955000D01*
X85365494Y-116955000D01*
X85874540Y-116744147D01*
X86264147Y-116354540D01*
X86360000Y-116123130D01*
X86455853Y-116354540D01*
X86845460Y-116744147D01*
X87354506Y-116955000D01*
X87905494Y-116955000D01*
X88414540Y-116744147D01*
X88804147Y-116354540D01*
X88900000Y-116123130D01*
X88995853Y-116354540D01*
X89385460Y-116744147D01*
X89894506Y-116955000D01*
X90445494Y-116955000D01*
X90954540Y-116744147D01*
X91344147Y-116354540D01*
X91440000Y-116123130D01*
X91535853Y-116354540D01*
X91925460Y-116744147D01*
X92434506Y-116955000D01*
X92985494Y-116955000D01*
X93494540Y-116744147D01*
X93884147Y-116354540D01*
X93980000Y-116123130D01*
X94075853Y-116354540D01*
X94465460Y-116744147D01*
X94974506Y-116955000D01*
X95525494Y-116955000D01*
X96034540Y-116744147D01*
X96424147Y-116354540D01*
X96520000Y-116123130D01*
X96615853Y-116354540D01*
X97005460Y-116744147D01*
X97514506Y-116955000D01*
X98065494Y-116955000D01*
X98574540Y-116744147D01*
X98964147Y-116354540D01*
X99060000Y-116123130D01*
X99155853Y-116354540D01*
X99545460Y-116744147D01*
X100054506Y-116955000D01*
X100605494Y-116955000D01*
X101114540Y-116744147D01*
X101504147Y-116354540D01*
X101715000Y-115845494D01*
X101715000Y-115294506D01*
X101504147Y-114785460D01*
X101114540Y-114395853D01*
X100883130Y-114300000D01*
X101114540Y-114204147D01*
X101504147Y-113814540D01*
X101715000Y-113305494D01*
X101715000Y-112754506D01*
X101504147Y-112245460D01*
X101114540Y-111855853D01*
X100883130Y-111760000D01*
X101114540Y-111664147D01*
X101504147Y-111274540D01*
X101715000Y-110765494D01*
X101715000Y-110214506D01*
X101504147Y-109705460D01*
X101114540Y-109315853D01*
X100605494Y-109105000D01*
X100054506Y-109105000D01*
X99545460Y-109315853D01*
X99155853Y-109705460D01*
X99060000Y-109936870D01*
X98964147Y-109705460D01*
X98574540Y-109315853D01*
X98065494Y-109105000D01*
X97514506Y-109105000D01*
X97005460Y-109315853D01*
X96615853Y-109705460D01*
X96520000Y-109936870D01*
X96424147Y-109705460D01*
X96034540Y-109315853D01*
X95803130Y-109220000D01*
X96034540Y-109124147D01*
X96424147Y-108734540D01*
X96635000Y-108225494D01*
X96635000Y-107674506D01*
X96424147Y-107165460D01*
X96034540Y-106775853D01*
X95803130Y-106680000D01*
X96034540Y-106584147D01*
X96424147Y-106194540D01*
X96635000Y-105685494D01*
X96635000Y-105134506D01*
X96424147Y-104625460D01*
X96034540Y-104235853D01*
X95803130Y-104140000D01*
X96034540Y-104044147D01*
X96424147Y-103654540D01*
X96635000Y-103145494D01*
X96635000Y-102594506D01*
X96424147Y-102085460D01*
X96034540Y-101695853D01*
X95803130Y-101600000D01*
X96034540Y-101504147D01*
X96424147Y-101114540D01*
X96635000Y-100605494D01*
X96635000Y-100054506D01*
X96424147Y-99545460D01*
X96034540Y-99155853D01*
X95803130Y-99060000D01*
X96034540Y-98964147D01*
X96424147Y-98574540D01*
X96635000Y-98065494D01*
X96635000Y-97514506D01*
X96424147Y-97005460D01*
X96034540Y-96615853D01*
X95803130Y-96520000D01*
X96034540Y-96424147D01*
X96424147Y-96034540D01*
X96635000Y-95525494D01*
X96635000Y-94974506D01*
X96424147Y-94465460D01*
X96034540Y-94075853D01*
X95803130Y-93980000D01*
X96034540Y-93884147D01*
X96424147Y-93494540D01*
X96635000Y-92985494D01*
X96635000Y-92434506D01*
X96424147Y-91925460D01*
X96034540Y-91535853D01*
X95803130Y-91440000D01*
X96034540Y-91344147D01*
X96424147Y-90954540D01*
X96635000Y-90445494D01*
X96635000Y-89894506D01*
X96424147Y-89385460D01*
X96034540Y-88995853D01*
X95803130Y-88900000D01*
X96034540Y-88804147D01*
X96424147Y-88414540D01*
X96635000Y-87905494D01*
X96635000Y-87354506D01*
X96424147Y-86845460D01*
X96034540Y-86455853D01*
X95803130Y-86360000D01*
X96034540Y-86264147D01*
X96424147Y-85874540D01*
X96635000Y-85365494D01*
X96635000Y-84814506D01*
X96424147Y-84305460D01*
X96034540Y-83915853D01*
X95803130Y-83820000D01*
X96034540Y-83724147D01*
X96424147Y-83334540D01*
X96635000Y-82825494D01*
X96635000Y-82274506D01*
X96424147Y-81765460D01*
X96034540Y-81375853D01*
X95803130Y-81280000D01*
X96034540Y-81184147D01*
X96424147Y-80794540D01*
X96635000Y-80285494D01*
X96635000Y-79734506D01*
X96424147Y-79225460D01*
X96034540Y-78835853D01*
X95803130Y-78740000D01*
X96034540Y-78644147D01*
X96424147Y-78254540D01*
X96635000Y-77745494D01*
X96635000Y-77194506D01*
X96424147Y-76685460D01*
X96034540Y-76295853D01*
X95803130Y-76200000D01*
X96034540Y-76104147D01*
X96424147Y-75714540D01*
X96635000Y-75205494D01*
X96635000Y-74654506D01*
X96424147Y-74145460D01*
X96034540Y-73755853D01*
X95803130Y-73660000D01*
X96034540Y-73564147D01*
X96424147Y-73174540D01*
X96635000Y-72665494D01*
X96635000Y-72114506D01*
X96424147Y-71605460D01*
X96034540Y-71215853D01*
X95803130Y-71120000D01*
X96034540Y-71024147D01*
X96424147Y-70634540D01*
X96635000Y-70125494D01*
X96635000Y-69574506D01*
X96424147Y-69065460D01*
X96034540Y-68675853D01*
X95803130Y-68580000D01*
X96034540Y-68484147D01*
X96424147Y-68094540D01*
X96635000Y-67585494D01*
X96635000Y-67034506D01*
X97040000Y-67034506D01*
X97040000Y-67585494D01*
X97250853Y-68094540D01*
X97640460Y-68484147D01*
X97871870Y-68580000D01*
X97640460Y-68675853D01*
X97250853Y-69065460D01*
X97040000Y-69574506D01*
X97040000Y-70125494D01*
X97250853Y-70634540D01*
X97640460Y-71024147D01*
X97871870Y-71120000D01*
X97640460Y-71215853D01*
X97250853Y-71605460D01*
X97040000Y-72114506D01*
X97040000Y-72665494D01*
X97250853Y-73174540D01*
X97640460Y-73564147D01*
X97871870Y-73660000D01*
X97640460Y-73755853D01*
X97250853Y-74145460D01*
X97040000Y-74654506D01*
X97040000Y-75205494D01*
X97250853Y-75714540D01*
X97640460Y-76104147D01*
X97871870Y-76200000D01*
X97640460Y-76295853D01*
X97250853Y-76685460D01*
X97040000Y-77194506D01*
X97040000Y-77745494D01*
X97250853Y-78254540D01*
X97640460Y-78644147D01*
X97871870Y-78740000D01*
X97640460Y-78835853D01*
X97250853Y-79225460D01*
X97040000Y-79734506D01*
X97040000Y-80285494D01*
X97250853Y-80794540D01*
X97640460Y-81184147D01*
X97871870Y-81280000D01*
X97640460Y-81375853D01*
X97250853Y-81765460D01*
X97040000Y-82274506D01*
X97040000Y-82825494D01*
X97250853Y-83334540D01*
X97640460Y-83724147D01*
X97871870Y-83820000D01*
X97640460Y-83915853D01*
X97250853Y-84305460D01*
X97040000Y-84814506D01*
X97040000Y-85365494D01*
X97250853Y-85874540D01*
X97640460Y-86264147D01*
X97871870Y-86360000D01*
X97640460Y-86455853D01*
X97250853Y-86845460D01*
X97040000Y-87354506D01*
X97040000Y-87905494D01*
X97250853Y-88414540D01*
X97640460Y-88804147D01*
X97871870Y-88900000D01*
X97640460Y-88995853D01*
X97250853Y-89385460D01*
X97040000Y-89894506D01*
X97040000Y-90445494D01*
X97250853Y-90954540D01*
X97640460Y-91344147D01*
X97871870Y-91440000D01*
X97640460Y-91535853D01*
X97250853Y-91925460D01*
X97040000Y-92434506D01*
X97040000Y-92985494D01*
X97250853Y-93494540D01*
X97640460Y-93884147D01*
X97871870Y-93980000D01*
X97640460Y-94075853D01*
X97250853Y-94465460D01*
X97040000Y-94974506D01*
X97040000Y-95525494D01*
X97250853Y-96034540D01*
X97640460Y-96424147D01*
X97871870Y-96520000D01*
X97640460Y-96615853D01*
X97250853Y-97005460D01*
X97040000Y-97514506D01*
X97040000Y-98065494D01*
X97250853Y-98574540D01*
X97640460Y-98964147D01*
X97871870Y-99060000D01*
X97640460Y-99155853D01*
X97250853Y-99545460D01*
X97040000Y-100054506D01*
X97040000Y-100605494D01*
X97250853Y-101114540D01*
X97640460Y-101504147D01*
X97871870Y-101600000D01*
X97640460Y-101695853D01*
X97250853Y-102085460D01*
X97040000Y-102594506D01*
X97040000Y-103145494D01*
X97250853Y-103654540D01*
X97640460Y-104044147D01*
X97871870Y-104140000D01*
X97640460Y-104235853D01*
X97250853Y-104625460D01*
X97040000Y-105134506D01*
X97040000Y-105685494D01*
X97250853Y-106194540D01*
X97640460Y-106584147D01*
X98149506Y-106795000D01*
X98700494Y-106795000D01*
X99209540Y-106584147D01*
X99599147Y-106194540D01*
X99810000Y-105685494D01*
X99810000Y-105134506D01*
X99599147Y-104625460D01*
X99209540Y-104235853D01*
X98978130Y-104140000D01*
X99209540Y-104044147D01*
X99599147Y-103654540D01*
X99810000Y-103145494D01*
X99810000Y-102594506D01*
X99599147Y-102085460D01*
X99209540Y-101695853D01*
X98978130Y-101600000D01*
X99209540Y-101504147D01*
X99599147Y-101114540D01*
X99810000Y-100605494D01*
X99810000Y-100054506D01*
X99599147Y-99545460D01*
X99209540Y-99155853D01*
X98978130Y-99060000D01*
X99209540Y-98964147D01*
X99599147Y-98574540D01*
X99810000Y-98065494D01*
X99810000Y-97514506D01*
X99599147Y-97005460D01*
X99209540Y-96615853D01*
X98978130Y-96520000D01*
X99209540Y-96424147D01*
X99599147Y-96034540D01*
X99810000Y-95525494D01*
X99810000Y-94974506D01*
X99599147Y-94465460D01*
X99209540Y-94075853D01*
X98978130Y-93980000D01*
X99209540Y-93884147D01*
X99599147Y-93494540D01*
X99810000Y-92985494D01*
X99810000Y-92434506D01*
X99599147Y-91925460D01*
X99209540Y-91535853D01*
X98978130Y-91440000D01*
X99209540Y-91344147D01*
X99599147Y-90954540D01*
X99810000Y-90445494D01*
X99810000Y-89894506D01*
X99599147Y-89385460D01*
X99209540Y-88995853D01*
X98978130Y-88900000D01*
X99209540Y-88804147D01*
X99599147Y-88414540D01*
X99810000Y-87905494D01*
X99810000Y-87354506D01*
X99599147Y-86845460D01*
X99209540Y-86455853D01*
X98978130Y-86360000D01*
X99209540Y-86264147D01*
X99599147Y-85874540D01*
X99810000Y-85365494D01*
X99810000Y-84814506D01*
X99599147Y-84305460D01*
X99209540Y-83915853D01*
X98978130Y-83820000D01*
X99209540Y-83724147D01*
X99599147Y-83334540D01*
X99810000Y-82825494D01*
X99810000Y-82274506D01*
X99599147Y-81765460D01*
X99209540Y-81375853D01*
X98978130Y-81280000D01*
X99209540Y-81184147D01*
X99599147Y-80794540D01*
X99810000Y-80285494D01*
X99810000Y-79734506D01*
X99599147Y-79225460D01*
X99209540Y-78835853D01*
X98978130Y-78740000D01*
X99209540Y-78644147D01*
X99599147Y-78254540D01*
X99810000Y-77745494D01*
X99810000Y-77194506D01*
X99599147Y-76685460D01*
X99209540Y-76295853D01*
X98978130Y-76200000D01*
X99209540Y-76104147D01*
X99599147Y-75714540D01*
X99810000Y-75205494D01*
X99810000Y-74654506D01*
X99599147Y-74145460D01*
X99209540Y-73755853D01*
X98978130Y-73660000D01*
X99209540Y-73564147D01*
X99599147Y-73174540D01*
X99810000Y-72665494D01*
X99810000Y-72114506D01*
X99599147Y-71605460D01*
X99209540Y-71215853D01*
X98978130Y-71120000D01*
X99209540Y-71024147D01*
X99599147Y-70634540D01*
X99810000Y-70125494D01*
X99810000Y-69574506D01*
X99599147Y-69065460D01*
X99209540Y-68675853D01*
X98978130Y-68580000D01*
X99209540Y-68484147D01*
X99599147Y-68094540D01*
X99810000Y-67585494D01*
X99810000Y-67034506D01*
X99599147Y-66525460D01*
X99209540Y-66135853D01*
X98700494Y-65925000D01*
X98149506Y-65925000D01*
X97640460Y-66135853D01*
X97250853Y-66525460D01*
X97040000Y-67034506D01*
X96635000Y-67034506D01*
X96424147Y-66525460D01*
X96034540Y-66135853D01*
X95525494Y-65925000D01*
X94974506Y-65925000D01*
X94465460Y-66135853D01*
X94075853Y-66525460D01*
X93980000Y-66756870D01*
X93884147Y-66525460D01*
X93494540Y-66135853D01*
X92985494Y-65925000D01*
X92434506Y-65925000D01*
X91925460Y-66135853D01*
X91535853Y-66525460D01*
X91440000Y-66756870D01*
X91344147Y-66525460D01*
X90954540Y-66135853D01*
X90445494Y-65925000D01*
X89894506Y-65925000D01*
X89385460Y-66135853D01*
X88995853Y-66525460D01*
X88900000Y-66756870D01*
X88804147Y-66525460D01*
X88414540Y-66135853D01*
X87905494Y-65925000D01*
X87354506Y-65925000D01*
X86845460Y-66135853D01*
X86455853Y-66525460D01*
X86360000Y-66756870D01*
X86264147Y-66525460D01*
X86130278Y-66391591D01*
X86605089Y-65916780D01*
X86664465Y-65877106D01*
X86704140Y-65817729D01*
X86704144Y-65817725D01*
X86800545Y-65673451D01*
X86821656Y-65641856D01*
X86862920Y-65434406D01*
X86862920Y-65434402D01*
X86876852Y-65364360D01*
X86862920Y-65294318D01*
X86862920Y-63037819D01*
X87025182Y-63146239D01*
X87458344Y-63232400D01*
X87750856Y-63232400D01*
X88184018Y-63146239D01*
X88675225Y-62818025D01*
X88874600Y-62519639D01*
X89073975Y-62818025D01*
X89565182Y-63146239D01*
X89998344Y-63232400D01*
X90290856Y-63232400D01*
X90724018Y-63146239D01*
X91215225Y-62818025D01*
X91414600Y-62519639D01*
X91613975Y-62818025D01*
X92105182Y-63146239D01*
X92538344Y-63232400D01*
X92830856Y-63232400D01*
X93264018Y-63146239D01*
X93755225Y-62818025D01*
X93954600Y-62519639D01*
X94153975Y-62818025D01*
X94645182Y-63146239D01*
X95078344Y-63232400D01*
X95370856Y-63232400D01*
X95804018Y-63146239D01*
X96295225Y-62818025D01*
X96494600Y-62519639D01*
X96693975Y-62818025D01*
X97185182Y-63146239D01*
X97618344Y-63232400D01*
X97910856Y-63232400D01*
X98344018Y-63146239D01*
X98835225Y-62818025D01*
X99034600Y-62519639D01*
X99233975Y-62818025D01*
X99725182Y-63146239D01*
X100158344Y-63232400D01*
X100450856Y-63232400D01*
X100884018Y-63146239D01*
X101375225Y-62818025D01*
X101703439Y-62326818D01*
X101818692Y-61747400D01*
X101703439Y-61167982D01*
X101375225Y-60676775D01*
X101076839Y-60477400D01*
X101375225Y-60278025D01*
X101703439Y-59786818D01*
X101818692Y-59207400D01*
X101703439Y-58627982D01*
X101375225Y-58136775D01*
X100884018Y-57808561D01*
X100450856Y-57722400D01*
X100158344Y-57722400D01*
X99725182Y-57808561D01*
X99233975Y-58136775D01*
X99034600Y-58435161D01*
X98835225Y-58136775D01*
X98344018Y-57808561D01*
X97910856Y-57722400D01*
X97618344Y-57722400D01*
X97185182Y-57808561D01*
X96693975Y-58136775D01*
X96494600Y-58435161D01*
X96295225Y-58136775D01*
X95804018Y-57808561D01*
X95370856Y-57722400D01*
X95078344Y-57722400D01*
X94645182Y-57808561D01*
X94153975Y-58136775D01*
X93954600Y-58435161D01*
X93755225Y-58136775D01*
X93264018Y-57808561D01*
X92830856Y-57722400D01*
X92538344Y-57722400D01*
X92105182Y-57808561D01*
X91613975Y-58136775D01*
X91414600Y-58435161D01*
X91215225Y-58136775D01*
X90724018Y-57808561D01*
X90290856Y-57722400D01*
X89998344Y-57722400D01*
X89565182Y-57808561D01*
X89073975Y-58136775D01*
X88874600Y-58435161D01*
X88675225Y-58136775D01*
X88184018Y-57808561D01*
X87750856Y-57722400D01*
X87458344Y-57722400D01*
X87025182Y-57808561D01*
X86533975Y-58136775D01*
X86334600Y-58435161D01*
X86135225Y-58136775D01*
X85644018Y-57808561D01*
X85210856Y-57722400D01*
X84918344Y-57722400D01*
X84485182Y-57808561D01*
X83993975Y-58136775D01*
X83794600Y-58435161D01*
X83595225Y-58136775D01*
X83104018Y-57808561D01*
X82670856Y-57722400D01*
X82378344Y-57722400D01*
X81945182Y-57808561D01*
X81453975Y-58136775D01*
X81254600Y-58435161D01*
X81055225Y-58136775D01*
X80564018Y-57808561D01*
X80130856Y-57722400D01*
X79838344Y-57722400D01*
X79405182Y-57808561D01*
X78913975Y-58136775D01*
X78714600Y-58435161D01*
X78515225Y-58136775D01*
X78024018Y-57808561D01*
X77590856Y-57722400D01*
X77298344Y-57722400D01*
X76865182Y-57808561D01*
X76373975Y-58136775D01*
X76174600Y-58435161D01*
X75975225Y-58136775D01*
X75484018Y-57808561D01*
X75050856Y-57722400D01*
X74758344Y-57722400D01*
X74325182Y-57808561D01*
X73833975Y-58136775D01*
X73634600Y-58435161D01*
X73435225Y-58136775D01*
X72944018Y-57808561D01*
X72510856Y-57722400D01*
X72218344Y-57722400D01*
X71785182Y-57808561D01*
X71293975Y-58136775D01*
X71094600Y-58435161D01*
X70895225Y-58136775D01*
X70404018Y-57808561D01*
X69970856Y-57722400D01*
X69678344Y-57722400D01*
X69245182Y-57808561D01*
X68753975Y-58136775D01*
X68554600Y-58435161D01*
X68355225Y-58136775D01*
X67864018Y-57808561D01*
X67430856Y-57722400D01*
X67138344Y-57722400D01*
X66705182Y-57808561D01*
X66213975Y-58136775D01*
X66014600Y-58435161D01*
X65815225Y-58136775D01*
X65324018Y-57808561D01*
X64890856Y-57722400D01*
X64598344Y-57722400D01*
X64165182Y-57808561D01*
X63673975Y-58136775D01*
X63474600Y-58435161D01*
X63275225Y-58136775D01*
X62784018Y-57808561D01*
X62350856Y-57722400D01*
X62058344Y-57722400D01*
X61625182Y-57808561D01*
X61133975Y-58136775D01*
X60934600Y-58435161D01*
X60735225Y-58136775D01*
X60244018Y-57808561D01*
X59810856Y-57722400D01*
X59518344Y-57722400D01*
X59085182Y-57808561D01*
X58593975Y-58136775D01*
X58394600Y-58435161D01*
X58195225Y-58136775D01*
X57704018Y-57808561D01*
X57270856Y-57722400D01*
X56978344Y-57722400D01*
X56545182Y-57808561D01*
X56053975Y-58136775D01*
X55854600Y-58435161D01*
X55655225Y-58136775D01*
X55164018Y-57808561D01*
X54730856Y-57722400D01*
X54438344Y-57722400D01*
X54005182Y-57808561D01*
X53513975Y-58136775D01*
X53314600Y-58435161D01*
X53115225Y-58136775D01*
X52755800Y-57896615D01*
X52755800Y-57847159D01*
X52899023Y-57703936D01*
X53047900Y-57344516D01*
X53047900Y-56955484D01*
X52899023Y-56596064D01*
X52623936Y-56320977D01*
X52264516Y-56172100D01*
X51875484Y-56172100D01*
X51516064Y-56320977D01*
X51240977Y-56596064D01*
X51092100Y-56955484D01*
X51092100Y-57344516D01*
X51240977Y-57703936D01*
X51333401Y-57796360D01*
X51333401Y-57896614D01*
X50973975Y-58136775D01*
X50645761Y-58627982D01*
X50530508Y-59207400D01*
X50265000Y-59207400D01*
X50265000Y-57182731D01*
X50336545Y-56381086D01*
X50540248Y-55636471D01*
X50872592Y-54939701D01*
X51323068Y-54312796D01*
X51877438Y-53775574D01*
X52518188Y-53345007D01*
X53225054Y-53034715D01*
X53981349Y-52853145D01*
X54636949Y-52805000D01*
X97757269Y-52805000D01*
X98558914Y-52876545D01*
M02*
