%TF.GenerationSoftware,KiCad,Pcbnew,(5.0.0)*%
%TF.CreationDate,2018-10-23T17:17:03+02:00*%
%TF.ProjectId,S80 Breakout 2in,53383020427265616B6F75742032696E,1.0*%
%TF.SameCoordinates,Original*%
%TF.FileFunction,Legend,Top*%
%TF.FilePolarity,Positive*%
%FSLAX46Y46*%
G04 Gerber Fmt 4.6, Leading zero omitted, Abs format (unit mm)*
G04 Created by KiCad (PCBNEW (5.0.0)) date 10/23/18 17:17:03*
%MOMM*%
%LPD*%
G01*
G04 APERTURE LIST*
%ADD10C,0.200000*%
%ADD11C,0.150000*%
%ADD12C,0.100000*%
%ADD13C,0.250000*%
%ADD14C,0.120000*%
G04 APERTURE END LIST*
D10*
X52832000Y-107950000D02*
X50800000Y-107950000D01*
X70866000Y-107950000D02*
X69088000Y-107950000D01*
D11*
X54531428Y-107863177D02*
X54745714Y-107934605D01*
X54817142Y-108006034D01*
X54888571Y-108148891D01*
X54888571Y-108363177D01*
X54817142Y-108506034D01*
X54745714Y-108577462D01*
X54602857Y-108648891D01*
X54031428Y-108648891D01*
X54031428Y-107148891D01*
X54531428Y-107148891D01*
X54674285Y-107220320D01*
X54745714Y-107291748D01*
X54817142Y-107434605D01*
X54817142Y-107577462D01*
X54745714Y-107720320D01*
X54674285Y-107791748D01*
X54531428Y-107863177D01*
X54031428Y-107863177D01*
X55531428Y-108648891D02*
X55531428Y-107648891D01*
X55531428Y-107934605D02*
X55602857Y-107791748D01*
X55674285Y-107720320D01*
X55817142Y-107648891D01*
X55960000Y-107648891D01*
X57031428Y-108577462D02*
X56888571Y-108648891D01*
X56602857Y-108648891D01*
X56460000Y-108577462D01*
X56388571Y-108434605D01*
X56388571Y-107863177D01*
X56460000Y-107720320D01*
X56602857Y-107648891D01*
X56888571Y-107648891D01*
X57031428Y-107720320D01*
X57102857Y-107863177D01*
X57102857Y-108006034D01*
X56388571Y-108148891D01*
X58388571Y-108648891D02*
X58388571Y-107863177D01*
X58317142Y-107720320D01*
X58174285Y-107648891D01*
X57888571Y-107648891D01*
X57745714Y-107720320D01*
X58388571Y-108577462D02*
X58245714Y-108648891D01*
X57888571Y-108648891D01*
X57745714Y-108577462D01*
X57674285Y-108434605D01*
X57674285Y-108291748D01*
X57745714Y-108148891D01*
X57888571Y-108077462D01*
X58245714Y-108077462D01*
X58388571Y-108006034D01*
X59102857Y-108648891D02*
X59102857Y-107148891D01*
X59245714Y-108077462D02*
X59674285Y-108648891D01*
X59674285Y-107648891D02*
X59102857Y-108220320D01*
X60531428Y-108648891D02*
X60388571Y-108577462D01*
X60317142Y-108506034D01*
X60245714Y-108363177D01*
X60245714Y-107934605D01*
X60317142Y-107791748D01*
X60388571Y-107720320D01*
X60531428Y-107648891D01*
X60745714Y-107648891D01*
X60888571Y-107720320D01*
X60960000Y-107791748D01*
X61031428Y-107934605D01*
X61031428Y-108363177D01*
X60960000Y-108506034D01*
X60888571Y-108577462D01*
X60745714Y-108648891D01*
X60531428Y-108648891D01*
X62317142Y-107648891D02*
X62317142Y-108648891D01*
X61674285Y-107648891D02*
X61674285Y-108434605D01*
X61745714Y-108577462D01*
X61888571Y-108648891D01*
X62102857Y-108648891D01*
X62245714Y-108577462D01*
X62317142Y-108506034D01*
X62817142Y-107648891D02*
X63388571Y-107648891D01*
X63031428Y-107148891D02*
X63031428Y-108434605D01*
X63102857Y-108577462D01*
X63245714Y-108648891D01*
X63388571Y-108648891D01*
X65817142Y-108648891D02*
X64960000Y-108648891D01*
X65388571Y-108648891D02*
X65388571Y-107148891D01*
X65245714Y-107363177D01*
X65102857Y-107506034D01*
X64960000Y-107577462D01*
X66460000Y-108506034D02*
X66531428Y-108577462D01*
X66460000Y-108648891D01*
X66388571Y-108577462D01*
X66460000Y-108506034D01*
X66460000Y-108648891D01*
X67460000Y-107148891D02*
X67602857Y-107148891D01*
X67745714Y-107220320D01*
X67817142Y-107291748D01*
X67888571Y-107434605D01*
X67960000Y-107720320D01*
X67960000Y-108077462D01*
X67888571Y-108363177D01*
X67817142Y-108506034D01*
X67745714Y-108577462D01*
X67602857Y-108648891D01*
X67460000Y-108648891D01*
X67317142Y-108577462D01*
X67245714Y-108506034D01*
X67174285Y-108363177D01*
X67102857Y-108077462D01*
X67102857Y-107720320D01*
X67174285Y-107434605D01*
X67245714Y-107291748D01*
X67317142Y-107220320D01*
X67460000Y-107148891D01*
D10*
X70866000Y-66040000D02*
X70866000Y-107950000D01*
X96774000Y-107950000D02*
X101473000Y-107950000D01*
X96774000Y-107950000D02*
X96774000Y-66294000D01*
D12*
X50749200Y-57965600D02*
X50749200Y-60505600D01*
X50749200Y-60505600D02*
X53289200Y-60505600D01*
X53289200Y-60505600D02*
X53289200Y-63045600D01*
X53289200Y-63045600D02*
X101549200Y-63045600D01*
X101549200Y-63045600D02*
X101549200Y-57965600D01*
X101549200Y-57965600D02*
X50749200Y-57965600D01*
X50749200Y-61775600D02*
X50749200Y-63045600D01*
X50749200Y-63045600D02*
X52019200Y-63045600D01*
X55422800Y-61775600D02*
G75*
G03X55422800Y-61775600I-853833J0D01*
G01*
X57962800Y-61775600D02*
G75*
G03X57962800Y-61775600I-853833J0D01*
G01*
X60502800Y-61775600D02*
G75*
G03X60502800Y-61775600I-853833J0D01*
G01*
X81940400Y-121596400D02*
X80619600Y-121596400D01*
X80619600Y-121596400D02*
X80619600Y-120275600D01*
X83235800Y-118954800D02*
X83235800Y-121571000D01*
X63017400Y-61775600D02*
G75*
G03X63017400Y-61775600I-853833J0D01*
G01*
X65582800Y-61775600D02*
G75*
G03X65582800Y-61775600I-853833J0D01*
G01*
X65582800Y-59235600D02*
G75*
G03X65582800Y-59235600I-853833J0D01*
G01*
X63042800Y-59235600D02*
G75*
G03X63042800Y-59235600I-853833J0D01*
G01*
X60508666Y-59235600D02*
G75*
G03X60508666Y-59235600I-853833J0D01*
G01*
X57943266Y-59235600D02*
G75*
G03X57943266Y-59235600I-853833J0D01*
G01*
X55428666Y-59235600D02*
G75*
G03X55428666Y-59235600I-853833J0D01*
G01*
X52888666Y-59235600D02*
G75*
G03X52888666Y-59235600I-853833J0D01*
G01*
X78257400Y-59235600D02*
G75*
G03X78257400Y-59235600I-853833J0D01*
G01*
X75717400Y-61775600D02*
G75*
G03X75717400Y-61775600I-853833J0D01*
G01*
X73177400Y-61775600D02*
G75*
G03X73177400Y-61775600I-853833J0D01*
G01*
X95519255Y-120250200D02*
G75*
G03X95519255Y-120250200I-853455J0D01*
G01*
X98094800Y-120275600D02*
G75*
G03X98094800Y-120275600I-889000J0D01*
G01*
X100609773Y-120275600D02*
G75*
G03X100609773Y-120275600I-863973J0D01*
G01*
X75723266Y-59235600D02*
G75*
G03X75723266Y-59235600I-853833J0D01*
G01*
X73157866Y-59235600D02*
G75*
G03X73157866Y-59235600I-853833J0D01*
G01*
X80797400Y-59235600D02*
G75*
G03X80797400Y-59235600I-853833J0D01*
G01*
X80797400Y-61775600D02*
G75*
G03X80797400Y-61775600I-853833J0D01*
G01*
X68103266Y-59235600D02*
G75*
G03X68103266Y-59235600I-853833J0D01*
G01*
X70637400Y-61775600D02*
G75*
G03X70637400Y-61775600I-853833J0D01*
G01*
X70643266Y-59235600D02*
G75*
G03X70643266Y-59235600I-853833J0D01*
G01*
X78232000Y-61775600D02*
G75*
G03X78232000Y-61775600I-853833J0D01*
G01*
X83343266Y-59235600D02*
G75*
G03X83343266Y-59235600I-853833J0D01*
G01*
X96037400Y-59235600D02*
G75*
G03X96037400Y-59235600I-853833J0D01*
G01*
X85883266Y-59235600D02*
G75*
G03X85883266Y-59235600I-853833J0D01*
G01*
X90957400Y-61775600D02*
G75*
G03X90957400Y-61775600I-853833J0D01*
G01*
X88417400Y-61775600D02*
G75*
G03X88417400Y-61775600I-853833J0D01*
G01*
X90963266Y-59235600D02*
G75*
G03X90963266Y-59235600I-853833J0D01*
G01*
X85877400Y-61775600D02*
G75*
G03X85877400Y-61775600I-853833J0D01*
G01*
X93472000Y-61775600D02*
G75*
G03X93472000Y-61775600I-853833J0D01*
G01*
X96037400Y-61775600D02*
G75*
G03X96037400Y-61775600I-853833J0D01*
G01*
X88397866Y-59235600D02*
G75*
G03X88397866Y-59235600I-853833J0D01*
G01*
X93497400Y-59235600D02*
G75*
G03X93497400Y-59235600I-853833J0D01*
G01*
X98583266Y-59235600D02*
G75*
G03X98583266Y-59235600I-853833J0D01*
G01*
X101123266Y-59235600D02*
G75*
G03X101123266Y-59235600I-853833J0D01*
G01*
X101117400Y-61775600D02*
G75*
G03X101117400Y-61775600I-853833J0D01*
G01*
X83343266Y-61775600D02*
G75*
G03X83343266Y-61775600I-853833J0D01*
G01*
X68103266Y-61775600D02*
G75*
G03X68103266Y-61775600I-853833J0D01*
G01*
X98583266Y-61775600D02*
G75*
G03X98583266Y-61775600I-853833J0D01*
G01*
X83235800Y-118954800D02*
X101066600Y-118980200D01*
X101066600Y-118980200D02*
X101066600Y-121596400D01*
X101066600Y-121596400D02*
X83235800Y-121571000D01*
X82829400Y-121139200D02*
X82829400Y-119412000D01*
X82829400Y-119412000D02*
X81076800Y-119412000D01*
X81076800Y-119412000D02*
X81076800Y-121139200D01*
X81076800Y-121139200D02*
X82829400Y-121139200D01*
X85419837Y-120275600D02*
G75*
G03X85419837Y-120275600I-888637J0D01*
G01*
X87905281Y-120275600D02*
G75*
G03X87905281Y-120275600I-859481J0D01*
G01*
X90495835Y-120275600D02*
G75*
G03X90495835Y-120275600I-884635J0D01*
G01*
X92976240Y-120275600D02*
G75*
G03X92976240Y-120275600I-875840J0D01*
G01*
D11*
X61848409Y-123471714D02*
X61796028Y-123543142D01*
X61638885Y-123614571D01*
X61534123Y-123614571D01*
X61376980Y-123543142D01*
X61272219Y-123400285D01*
X61219838Y-123257428D01*
X61167457Y-122971714D01*
X61167457Y-122757428D01*
X61219838Y-122471714D01*
X61272219Y-122328857D01*
X61376980Y-122186000D01*
X61534123Y-122114571D01*
X61638885Y-122114571D01*
X61796028Y-122186000D01*
X61848409Y-122257428D01*
X62476980Y-123614571D02*
X62372219Y-123543142D01*
X62319838Y-123471714D01*
X62267457Y-123328857D01*
X62267457Y-122900285D01*
X62319838Y-122757428D01*
X62372219Y-122686000D01*
X62476980Y-122614571D01*
X62634123Y-122614571D01*
X62738885Y-122686000D01*
X62791266Y-122757428D01*
X62843647Y-122900285D01*
X62843647Y-123328857D01*
X62791266Y-123471714D01*
X62738885Y-123543142D01*
X62634123Y-123614571D01*
X62476980Y-123614571D01*
X63315076Y-122614571D02*
X63315076Y-124114571D01*
X63315076Y-122686000D02*
X63419838Y-122614571D01*
X63629361Y-122614571D01*
X63734123Y-122686000D01*
X63786504Y-122757428D01*
X63838885Y-122900285D01*
X63838885Y-123328857D01*
X63786504Y-123471714D01*
X63734123Y-123543142D01*
X63629361Y-123614571D01*
X63419838Y-123614571D01*
X63315076Y-123543142D01*
X64205552Y-122614571D02*
X64467457Y-123614571D01*
X64729361Y-122614571D02*
X64467457Y-123614571D01*
X64362695Y-123971714D01*
X64310314Y-124043142D01*
X64205552Y-124114571D01*
X65148409Y-123614571D02*
X65148409Y-122614571D01*
X65148409Y-122900285D02*
X65200790Y-122757428D01*
X65253171Y-122686000D01*
X65357933Y-122614571D01*
X65462695Y-122614571D01*
X65829361Y-123614571D02*
X65829361Y-122614571D01*
X65829361Y-122114571D02*
X65776980Y-122186000D01*
X65829361Y-122257428D01*
X65881742Y-122186000D01*
X65829361Y-122114571D01*
X65829361Y-122257428D01*
X66824599Y-122614571D02*
X66824599Y-123828857D01*
X66772219Y-123971714D01*
X66719838Y-124043142D01*
X66615076Y-124114571D01*
X66457933Y-124114571D01*
X66353171Y-124043142D01*
X66824599Y-123543142D02*
X66719838Y-123614571D01*
X66510314Y-123614571D01*
X66405552Y-123543142D01*
X66353171Y-123471714D01*
X66300790Y-123328857D01*
X66300790Y-122900285D01*
X66353171Y-122757428D01*
X66405552Y-122686000D01*
X66510314Y-122614571D01*
X66719838Y-122614571D01*
X66824599Y-122686000D01*
X67348409Y-123614571D02*
X67348409Y-122114571D01*
X67819838Y-123614571D02*
X67819838Y-122828857D01*
X67767457Y-122686000D01*
X67662695Y-122614571D01*
X67505552Y-122614571D01*
X67400790Y-122686000D01*
X67348409Y-122757428D01*
X68186504Y-122614571D02*
X68605552Y-122614571D01*
X68343647Y-122114571D02*
X68343647Y-123400285D01*
X68396028Y-123543142D01*
X68500790Y-123614571D01*
X68605552Y-123614571D01*
X70700790Y-122471714D02*
X70596028Y-122400285D01*
X70386504Y-122400285D01*
X70281742Y-122471714D01*
X70176980Y-122614571D01*
X70124600Y-122757428D01*
X70124600Y-123043142D01*
X70176980Y-123186000D01*
X70281742Y-123328857D01*
X70386504Y-123400285D01*
X70596028Y-123400285D01*
X70700790Y-123328857D01*
X70491266Y-121900285D02*
X70229361Y-121971714D01*
X69967457Y-122186000D01*
X69810314Y-122543142D01*
X69757933Y-122900285D01*
X69810314Y-123257428D01*
X69967457Y-123614571D01*
X70229361Y-123828857D01*
X70491266Y-123900285D01*
X70753171Y-123828857D01*
X71015076Y-123614571D01*
X71172219Y-123257428D01*
X71224600Y-122900285D01*
X71172219Y-122543142D01*
X71015076Y-122186000D01*
X70753171Y-121971714D01*
X70491266Y-121900285D01*
X72481742Y-122257428D02*
X72534123Y-122186000D01*
X72638885Y-122114571D01*
X72900790Y-122114571D01*
X73005552Y-122186000D01*
X73057933Y-122257428D01*
X73110314Y-122400285D01*
X73110314Y-122543142D01*
X73057933Y-122757428D01*
X72429361Y-123614571D01*
X73110314Y-123614571D01*
X73791266Y-122114571D02*
X73896028Y-122114571D01*
X74000790Y-122186000D01*
X74053171Y-122257428D01*
X74105552Y-122400285D01*
X74157933Y-122686000D01*
X74157933Y-123043142D01*
X74105552Y-123328857D01*
X74053171Y-123471714D01*
X74000790Y-123543142D01*
X73896028Y-123614571D01*
X73791266Y-123614571D01*
X73686504Y-123543142D01*
X73634123Y-123471714D01*
X73581742Y-123328857D01*
X73529361Y-123043142D01*
X73529361Y-122686000D01*
X73581742Y-122400285D01*
X73634123Y-122257428D01*
X73686504Y-122186000D01*
X73791266Y-122114571D01*
X75205552Y-123614571D02*
X74576980Y-123614571D01*
X74891266Y-123614571D02*
X74891266Y-122114571D01*
X74786504Y-122328857D01*
X74681742Y-122471714D01*
X74576980Y-122543142D01*
X75834123Y-122757428D02*
X75729361Y-122686000D01*
X75676980Y-122614571D01*
X75624600Y-122471714D01*
X75624600Y-122400285D01*
X75676980Y-122257428D01*
X75729361Y-122186000D01*
X75834123Y-122114571D01*
X76043647Y-122114571D01*
X76148409Y-122186000D01*
X76200790Y-122257428D01*
X76253171Y-122400285D01*
X76253171Y-122471714D01*
X76200790Y-122614571D01*
X76148409Y-122686000D01*
X76043647Y-122757428D01*
X75834123Y-122757428D01*
X75729361Y-122828857D01*
X75676980Y-122900285D01*
X75624600Y-123043142D01*
X75624600Y-123328857D01*
X75676980Y-123471714D01*
X75729361Y-123543142D01*
X75834123Y-123614571D01*
X76043647Y-123614571D01*
X76148409Y-123543142D01*
X76200790Y-123471714D01*
X76253171Y-123328857D01*
X76253171Y-123043142D01*
X76200790Y-122900285D01*
X76148409Y-122828857D01*
X76043647Y-122757428D01*
X77562695Y-123614571D02*
X77562695Y-122114571D01*
X77562695Y-122686000D02*
X77667457Y-122614571D01*
X77876980Y-122614571D01*
X77981742Y-122686000D01*
X78034123Y-122757428D01*
X78086504Y-122900285D01*
X78086504Y-123328857D01*
X78034123Y-123471714D01*
X77981742Y-123543142D01*
X77876980Y-123614571D01*
X77667457Y-123614571D01*
X77562695Y-123543142D01*
X78453171Y-122614571D02*
X78715076Y-123614571D01*
X78976980Y-122614571D02*
X78715076Y-123614571D01*
X78610314Y-123971714D01*
X78557933Y-124043142D01*
X78453171Y-124114571D01*
X80862695Y-123614571D02*
X80496028Y-122900285D01*
X80234123Y-123614571D02*
X80234123Y-122114571D01*
X80653171Y-122114571D01*
X80757933Y-122186000D01*
X80810314Y-122257428D01*
X80862695Y-122400285D01*
X80862695Y-122614571D01*
X80810314Y-122757428D01*
X80757933Y-122828857D01*
X80653171Y-122900285D01*
X80234123Y-122900285D01*
X82224600Y-123614571D02*
X82172219Y-123614571D01*
X82067457Y-123543142D01*
X81910314Y-123328857D01*
X81648409Y-122900285D01*
X81543647Y-122686000D01*
X81491266Y-122471714D01*
X81491266Y-122328857D01*
X81543647Y-122186000D01*
X81648409Y-122114571D01*
X81700790Y-122114571D01*
X81805552Y-122186000D01*
X81857933Y-122328857D01*
X81857933Y-122400285D01*
X81805552Y-122543142D01*
X81753171Y-122614571D01*
X81438885Y-122900285D01*
X81386504Y-122971714D01*
X81334123Y-123114571D01*
X81334123Y-123328857D01*
X81386504Y-123471714D01*
X81438885Y-123543142D01*
X81543647Y-123614571D01*
X81700790Y-123614571D01*
X81805552Y-123543142D01*
X81857933Y-123471714D01*
X82015076Y-123186000D01*
X82067457Y-122971714D01*
X82067457Y-122828857D01*
X83062695Y-122828857D02*
X82696028Y-122828857D01*
X82696028Y-123614571D02*
X82696028Y-122114571D01*
X83219838Y-122114571D01*
X84476980Y-123614571D02*
X84476980Y-122114571D01*
X84896028Y-122114571D01*
X85000790Y-122186000D01*
X85053171Y-122257428D01*
X85105552Y-122400285D01*
X85105552Y-122614571D01*
X85053171Y-122757428D01*
X85000790Y-122828857D01*
X84896028Y-122900285D01*
X84476980Y-122900285D01*
X85472219Y-122614571D02*
X85734123Y-123614571D01*
X85996028Y-122614571D02*
X85734123Y-123614571D01*
X85629361Y-123971714D01*
X85576980Y-124043142D01*
X85472219Y-124114571D01*
X86415076Y-122614571D02*
X86415076Y-123614571D01*
X86415076Y-122757428D02*
X86467457Y-122686000D01*
X86572219Y-122614571D01*
X86729361Y-122614571D01*
X86834123Y-122686000D01*
X86886504Y-122828857D01*
X86886504Y-123614571D01*
X87881742Y-123543142D02*
X87776980Y-123614571D01*
X87567457Y-123614571D01*
X87462695Y-123543142D01*
X87410314Y-123471714D01*
X87357933Y-123328857D01*
X87357933Y-122900285D01*
X87410314Y-122757428D01*
X87462695Y-122686000D01*
X87567457Y-122614571D01*
X87776980Y-122614571D01*
X87881742Y-122686000D01*
X88353171Y-123614571D02*
X88353171Y-122114571D01*
X88457933Y-123043142D02*
X88772219Y-123614571D01*
X88772219Y-122614571D02*
X88353171Y-123186000D01*
X89662695Y-123543142D02*
X89557933Y-123614571D01*
X89348409Y-123614571D01*
X89243647Y-123543142D01*
X89191266Y-123400285D01*
X89191266Y-122828857D01*
X89243647Y-122686000D01*
X89348409Y-122614571D01*
X89557933Y-122614571D01*
X89662695Y-122686000D01*
X89715076Y-122828857D01*
X89715076Y-122971714D01*
X89191266Y-123114571D01*
X90343647Y-123614571D02*
X90238885Y-123543142D01*
X90186504Y-123400285D01*
X90186504Y-122114571D01*
X90710314Y-123543142D02*
X90815076Y-123614571D01*
X91024600Y-123614571D01*
X91129361Y-123543142D01*
X91181742Y-123400285D01*
X91181742Y-123328857D01*
X91129361Y-123186000D01*
X91024600Y-123114571D01*
X90867457Y-123114571D01*
X90762695Y-123043142D01*
X90710314Y-122900285D01*
X90710314Y-122828857D01*
X90762695Y-122686000D01*
X90867457Y-122614571D01*
X91024600Y-122614571D01*
X91129361Y-122686000D01*
D12*
X55955837Y-120275600D02*
G75*
G03X55955837Y-120275600I-888637J0D01*
G01*
X51612800Y-121139200D02*
X53365400Y-121139200D01*
X61031835Y-120275600D02*
G75*
G03X61031835Y-120275600I-884635J0D01*
G01*
X51612800Y-119412000D02*
X51612800Y-121139200D01*
X53365400Y-119412000D02*
X51612800Y-119412000D01*
X53365400Y-121139200D02*
X53365400Y-119412000D01*
X66055255Y-120250200D02*
G75*
G03X66055255Y-120250200I-853455J0D01*
G01*
X63512240Y-120275600D02*
G75*
G03X63512240Y-120275600I-875840J0D01*
G01*
X71145773Y-120275600D02*
G75*
G03X71145773Y-120275600I-863973J0D01*
G01*
X68630800Y-120275600D02*
G75*
G03X68630800Y-120275600I-889000J0D01*
G01*
X58441281Y-120275600D02*
G75*
G03X58441281Y-120275600I-859481J0D01*
G01*
X71602600Y-121596400D02*
X53771800Y-121571000D01*
X51155600Y-121596400D02*
X51155600Y-120275600D01*
X71602600Y-118980200D02*
X71602600Y-121596400D01*
X52476400Y-121596400D02*
X51155600Y-121596400D01*
X53771800Y-118954800D02*
X71602600Y-118980200D01*
X53771800Y-118954800D02*
X53771800Y-121571000D01*
D13*
X53104761Y-55884485D02*
X53390476Y-56027342D01*
X53866666Y-56027342D01*
X54057142Y-55884485D01*
X54152380Y-55741628D01*
X54247619Y-55455914D01*
X54247619Y-55170200D01*
X54152380Y-54884485D01*
X54057142Y-54741628D01*
X53866666Y-54598771D01*
X53485714Y-54455914D01*
X53295238Y-54313057D01*
X53200000Y-54170200D01*
X53104761Y-53884485D01*
X53104761Y-53598771D01*
X53200000Y-53313057D01*
X53295238Y-53170200D01*
X53485714Y-53027342D01*
X53961904Y-53027342D01*
X54247619Y-53170200D01*
X54819047Y-54027342D02*
X55580952Y-54027342D01*
X55104761Y-53027342D02*
X55104761Y-55598771D01*
X55200000Y-55884485D01*
X55390476Y-56027342D01*
X55580952Y-56027342D01*
X57104761Y-56027342D02*
X57104761Y-54455914D01*
X57009523Y-54170200D01*
X56819047Y-54027342D01*
X56438095Y-54027342D01*
X56247619Y-54170200D01*
X57104761Y-55884485D02*
X56914285Y-56027342D01*
X56438095Y-56027342D01*
X56247619Y-55884485D01*
X56152380Y-55598771D01*
X56152380Y-55313057D01*
X56247619Y-55027342D01*
X56438095Y-54884485D01*
X56914285Y-54884485D01*
X57104761Y-54741628D01*
X58914285Y-55884485D02*
X58723809Y-56027342D01*
X58342857Y-56027342D01*
X58152380Y-55884485D01*
X58057142Y-55741628D01*
X57961904Y-55455914D01*
X57961904Y-54598771D01*
X58057142Y-54313057D01*
X58152380Y-54170200D01*
X58342857Y-54027342D01*
X58723809Y-54027342D01*
X58914285Y-54170200D01*
X59771428Y-56027342D02*
X59771428Y-53027342D01*
X59961904Y-54884485D02*
X60533333Y-56027342D01*
X60533333Y-54027342D02*
X59771428Y-55170200D01*
X62247619Y-56027342D02*
X62247619Y-54455914D01*
X62152380Y-54170200D01*
X61961904Y-54027342D01*
X61580952Y-54027342D01*
X61390476Y-54170200D01*
X62247619Y-55884485D02*
X62057142Y-56027342D01*
X61580952Y-56027342D01*
X61390476Y-55884485D01*
X61295238Y-55598771D01*
X61295238Y-55313057D01*
X61390476Y-55027342D01*
X61580952Y-54884485D01*
X62057142Y-54884485D01*
X62247619Y-54741628D01*
X63200000Y-56027342D02*
X63200000Y-53027342D01*
X63200000Y-54170200D02*
X63390476Y-54027342D01*
X63771428Y-54027342D01*
X63961904Y-54170200D01*
X64057142Y-54313057D01*
X64152380Y-54598771D01*
X64152380Y-55455914D01*
X64057142Y-55741628D01*
X63961904Y-55884485D01*
X63771428Y-56027342D01*
X63390476Y-56027342D01*
X63200000Y-55884485D01*
X65295238Y-56027342D02*
X65104761Y-55884485D01*
X65009523Y-55598771D01*
X65009523Y-53027342D01*
X66819047Y-55884485D02*
X66628571Y-56027342D01*
X66247619Y-56027342D01*
X66057142Y-55884485D01*
X65961904Y-55598771D01*
X65961904Y-54455914D01*
X66057142Y-54170200D01*
X66247619Y-54027342D01*
X66628571Y-54027342D01*
X66819047Y-54170200D01*
X66914285Y-54455914D01*
X66914285Y-54741628D01*
X65961904Y-55027342D01*
X69104761Y-53027342D02*
X70438095Y-53027342D01*
X69104761Y-56027342D01*
X70438095Y-56027342D01*
X71485714Y-54313057D02*
X71295238Y-54170200D01*
X71200000Y-54027342D01*
X71104761Y-53741628D01*
X71104761Y-53598771D01*
X71200000Y-53313057D01*
X71295238Y-53170200D01*
X71485714Y-53027342D01*
X71866666Y-53027342D01*
X72057142Y-53170200D01*
X72152380Y-53313057D01*
X72247619Y-53598771D01*
X72247619Y-53741628D01*
X72152380Y-54027342D01*
X72057142Y-54170200D01*
X71866666Y-54313057D01*
X71485714Y-54313057D01*
X71295238Y-54455914D01*
X71200000Y-54598771D01*
X71104761Y-54884485D01*
X71104761Y-55455914D01*
X71200000Y-55741628D01*
X71295238Y-55884485D01*
X71485714Y-56027342D01*
X71866666Y-56027342D01*
X72057142Y-55884485D01*
X72152380Y-55741628D01*
X72247619Y-55455914D01*
X72247619Y-54884485D01*
X72152380Y-54598771D01*
X72057142Y-54455914D01*
X71866666Y-54313057D01*
X73485714Y-53027342D02*
X73676190Y-53027342D01*
X73866666Y-53170200D01*
X73961904Y-53313057D01*
X74057142Y-53598771D01*
X74152380Y-54170200D01*
X74152380Y-54884485D01*
X74057142Y-55455914D01*
X73961904Y-55741628D01*
X73866666Y-55884485D01*
X73676190Y-56027342D01*
X73485714Y-56027342D01*
X73295238Y-55884485D01*
X73200000Y-55741628D01*
X73104761Y-55455914D01*
X73009523Y-54884485D01*
X73009523Y-54170200D01*
X73104761Y-53598771D01*
X73200000Y-53313057D01*
X73295238Y-53170200D01*
X73485714Y-53027342D01*
X77676190Y-56027342D02*
X77009523Y-54598771D01*
X76533333Y-56027342D02*
X76533333Y-53027342D01*
X77295238Y-53027342D01*
X77485714Y-53170200D01*
X77580952Y-53313057D01*
X77676190Y-53598771D01*
X77676190Y-54027342D01*
X77580952Y-54313057D01*
X77485714Y-54455914D01*
X77295238Y-54598771D01*
X76533333Y-54598771D01*
X79295238Y-55884485D02*
X79104761Y-56027342D01*
X78723809Y-56027342D01*
X78533333Y-55884485D01*
X78438095Y-55598771D01*
X78438095Y-54455914D01*
X78533333Y-54170200D01*
X78723809Y-54027342D01*
X79104761Y-54027342D01*
X79295238Y-54170200D01*
X79390476Y-54455914D01*
X79390476Y-54741628D01*
X78438095Y-55027342D01*
X79961904Y-54027342D02*
X80723809Y-54027342D01*
X80247619Y-53027342D02*
X80247619Y-55598771D01*
X80342857Y-55884485D01*
X80533333Y-56027342D01*
X80723809Y-56027342D01*
X81390476Y-56027342D02*
X81390476Y-54027342D01*
X81390476Y-54598771D02*
X81485714Y-54313057D01*
X81580952Y-54170200D01*
X81771428Y-54027342D01*
X81961904Y-54027342D01*
X82914285Y-56027342D02*
X82723809Y-55884485D01*
X82628571Y-55741628D01*
X82533333Y-55455914D01*
X82533333Y-54598771D01*
X82628571Y-54313057D01*
X82723809Y-54170200D01*
X82914285Y-54027342D01*
X83200000Y-54027342D01*
X83390476Y-54170200D01*
X83485714Y-54313057D01*
X83580952Y-54598771D01*
X83580952Y-55455914D01*
X83485714Y-55741628D01*
X83390476Y-55884485D01*
X83200000Y-56027342D01*
X82914285Y-56027342D01*
X87104761Y-55741628D02*
X87009523Y-55884485D01*
X86723809Y-56027342D01*
X86533333Y-56027342D01*
X86247619Y-55884485D01*
X86057142Y-55598771D01*
X85961904Y-55313057D01*
X85866666Y-54741628D01*
X85866666Y-54313057D01*
X85961904Y-53741628D01*
X86057142Y-53455914D01*
X86247619Y-53170200D01*
X86533333Y-53027342D01*
X86723809Y-53027342D01*
X87009523Y-53170200D01*
X87104761Y-53313057D01*
X88247619Y-56027342D02*
X88057142Y-55884485D01*
X87961904Y-55741628D01*
X87866666Y-55455914D01*
X87866666Y-54598771D01*
X87961904Y-54313057D01*
X88057142Y-54170200D01*
X88247619Y-54027342D01*
X88533333Y-54027342D01*
X88723809Y-54170200D01*
X88819047Y-54313057D01*
X88914285Y-54598771D01*
X88914285Y-55455914D01*
X88819047Y-55741628D01*
X88723809Y-55884485D01*
X88533333Y-56027342D01*
X88247619Y-56027342D01*
X89771428Y-56027342D02*
X89771428Y-54027342D01*
X89771428Y-54313057D02*
X89866666Y-54170200D01*
X90057142Y-54027342D01*
X90342857Y-54027342D01*
X90533333Y-54170200D01*
X90628571Y-54455914D01*
X90628571Y-56027342D01*
X90628571Y-54455914D02*
X90723809Y-54170200D01*
X90914285Y-54027342D01*
X91199999Y-54027342D01*
X91390476Y-54170200D01*
X91485714Y-54455914D01*
X91485714Y-56027342D01*
X92438095Y-54027342D02*
X92438095Y-57027342D01*
X92438095Y-54170200D02*
X92628571Y-54027342D01*
X93009523Y-54027342D01*
X93199999Y-54170200D01*
X93295238Y-54313057D01*
X93390476Y-54598771D01*
X93390476Y-55455914D01*
X93295238Y-55741628D01*
X93199999Y-55884485D01*
X93009523Y-56027342D01*
X92628571Y-56027342D01*
X92438095Y-55884485D01*
X95104761Y-54027342D02*
X95104761Y-56027342D01*
X94247619Y-54027342D02*
X94247619Y-55598771D01*
X94342857Y-55884485D01*
X94533333Y-56027342D01*
X94819047Y-56027342D01*
X95009523Y-55884485D01*
X95104761Y-55741628D01*
X95771428Y-54027342D02*
X96533333Y-54027342D01*
X96057142Y-53027342D02*
X96057142Y-55598771D01*
X96152380Y-55884485D01*
X96342857Y-56027342D01*
X96533333Y-56027342D01*
X97961904Y-55884485D02*
X97771428Y-56027342D01*
X97390476Y-56027342D01*
X97199999Y-55884485D01*
X97104761Y-55598771D01*
X97104761Y-54455914D01*
X97199999Y-54170200D01*
X97390476Y-54027342D01*
X97771428Y-54027342D01*
X97961904Y-54170200D01*
X98057142Y-54455914D01*
X98057142Y-54741628D01*
X97104761Y-55027342D01*
X98914285Y-56027342D02*
X98914285Y-54027342D01*
X98914285Y-54598771D02*
X99009523Y-54313057D01*
X99104761Y-54170200D01*
X99295238Y-54027342D01*
X99485714Y-54027342D01*
D14*
X50714600Y-61747400D02*
X50714600Y-63077400D01*
X50714600Y-63077400D02*
X52044600Y-63077400D01*
X50714600Y-60477400D02*
X53314600Y-60477400D01*
X53314600Y-60477400D02*
X53314600Y-63077400D01*
X53314600Y-63077400D02*
X101634600Y-63077400D01*
X101634600Y-57877400D02*
X101634600Y-63077400D01*
X50714600Y-57877400D02*
X101634600Y-57877400D01*
X50714600Y-57877400D02*
X50714600Y-60477400D01*
X51171800Y-120269000D02*
X51171800Y-118939000D01*
X51171800Y-118939000D02*
X52501800Y-118939000D01*
X53771800Y-118939000D02*
X71611800Y-118939000D01*
X71611800Y-121599000D02*
X71611800Y-118939000D01*
X53771800Y-121599000D02*
X71611800Y-121599000D01*
X53771800Y-121599000D02*
X53771800Y-118939000D01*
X80635800Y-120269000D02*
X80635800Y-118939000D01*
X80635800Y-118939000D02*
X81965800Y-118939000D01*
X83235800Y-118939000D02*
X101075800Y-118939000D01*
X101075800Y-121599000D02*
X101075800Y-118939000D01*
X83235800Y-121599000D02*
X101075800Y-121599000D01*
X83235800Y-121599000D02*
X83235800Y-118939000D01*
D12*
X58721428Y-67476666D02*
X59007142Y-67476666D01*
X58664285Y-67762380D02*
X58864285Y-66762380D01*
X59064285Y-67762380D01*
X59378571Y-66762380D02*
X59435714Y-66762380D01*
X59492857Y-66810000D01*
X59521428Y-66857619D01*
X59550000Y-66952857D01*
X59578571Y-67143333D01*
X59578571Y-67381428D01*
X59550000Y-67571904D01*
X59521428Y-67667142D01*
X59492857Y-67714761D01*
X59435714Y-67762380D01*
X59378571Y-67762380D01*
X59321428Y-67714761D01*
X59292857Y-67667142D01*
X59264285Y-67571904D01*
X59235714Y-67381428D01*
X59235714Y-67143333D01*
X59264285Y-66952857D01*
X59292857Y-66857619D01*
X59321428Y-66810000D01*
X59378571Y-66762380D01*
X58721428Y-70016666D02*
X59007142Y-70016666D01*
X58664285Y-70302380D02*
X58864285Y-69302380D01*
X59064285Y-70302380D01*
X59578571Y-70302380D02*
X59235714Y-70302380D01*
X59407142Y-70302380D02*
X59407142Y-69302380D01*
X59350000Y-69445238D01*
X59292857Y-69540476D01*
X59235714Y-69588095D01*
X58721428Y-72556666D02*
X59007142Y-72556666D01*
X58664285Y-72842380D02*
X58864285Y-71842380D01*
X59064285Y-72842380D01*
X59235714Y-71937619D02*
X59264285Y-71890000D01*
X59321428Y-71842380D01*
X59464285Y-71842380D01*
X59521428Y-71890000D01*
X59550000Y-71937619D01*
X59578571Y-72032857D01*
X59578571Y-72128095D01*
X59550000Y-72270952D01*
X59207142Y-72842380D01*
X59578571Y-72842380D01*
X58721428Y-75096666D02*
X59007142Y-75096666D01*
X58664285Y-75382380D02*
X58864285Y-74382380D01*
X59064285Y-75382380D01*
X59207142Y-74382380D02*
X59578571Y-74382380D01*
X59378571Y-74763333D01*
X59464285Y-74763333D01*
X59521428Y-74810952D01*
X59550000Y-74858571D01*
X59578571Y-74953809D01*
X59578571Y-75191904D01*
X59550000Y-75287142D01*
X59521428Y-75334761D01*
X59464285Y-75382380D01*
X59292857Y-75382380D01*
X59235714Y-75334761D01*
X59207142Y-75287142D01*
X58721428Y-77636666D02*
X59007142Y-77636666D01*
X58664285Y-77922380D02*
X58864285Y-76922380D01*
X59064285Y-77922380D01*
X59521428Y-77255714D02*
X59521428Y-77922380D01*
X59378571Y-76874761D02*
X59235714Y-77589047D01*
X59607142Y-77589047D01*
X58721428Y-80176666D02*
X59007142Y-80176666D01*
X58664285Y-80462380D02*
X58864285Y-79462380D01*
X59064285Y-80462380D01*
X59550000Y-79462380D02*
X59264285Y-79462380D01*
X59235714Y-79938571D01*
X59264285Y-79890952D01*
X59321428Y-79843333D01*
X59464285Y-79843333D01*
X59521428Y-79890952D01*
X59550000Y-79938571D01*
X59578571Y-80033809D01*
X59578571Y-80271904D01*
X59550000Y-80367142D01*
X59521428Y-80414761D01*
X59464285Y-80462380D01*
X59321428Y-80462380D01*
X59264285Y-80414761D01*
X59235714Y-80367142D01*
X58721428Y-82716666D02*
X59007142Y-82716666D01*
X58664285Y-83002380D02*
X58864285Y-82002380D01*
X59064285Y-83002380D01*
X59521428Y-82002380D02*
X59407142Y-82002380D01*
X59350000Y-82050000D01*
X59321428Y-82097619D01*
X59264285Y-82240476D01*
X59235714Y-82430952D01*
X59235714Y-82811904D01*
X59264285Y-82907142D01*
X59292857Y-82954761D01*
X59350000Y-83002380D01*
X59464285Y-83002380D01*
X59521428Y-82954761D01*
X59550000Y-82907142D01*
X59578571Y-82811904D01*
X59578571Y-82573809D01*
X59550000Y-82478571D01*
X59521428Y-82430952D01*
X59464285Y-82383333D01*
X59350000Y-82383333D01*
X59292857Y-82430952D01*
X59264285Y-82478571D01*
X59235714Y-82573809D01*
X58721428Y-85256666D02*
X59007142Y-85256666D01*
X58664285Y-85542380D02*
X58864285Y-84542380D01*
X59064285Y-85542380D01*
X59207142Y-84542380D02*
X59607142Y-84542380D01*
X59350000Y-85542380D01*
X58721428Y-87796666D02*
X59007142Y-87796666D01*
X58664285Y-88082380D02*
X58864285Y-87082380D01*
X59064285Y-88082380D01*
X59350000Y-87510952D02*
X59292857Y-87463333D01*
X59264285Y-87415714D01*
X59235714Y-87320476D01*
X59235714Y-87272857D01*
X59264285Y-87177619D01*
X59292857Y-87130000D01*
X59350000Y-87082380D01*
X59464285Y-87082380D01*
X59521428Y-87130000D01*
X59550000Y-87177619D01*
X59578571Y-87272857D01*
X59578571Y-87320476D01*
X59550000Y-87415714D01*
X59521428Y-87463333D01*
X59464285Y-87510952D01*
X59350000Y-87510952D01*
X59292857Y-87558571D01*
X59264285Y-87606190D01*
X59235714Y-87701428D01*
X59235714Y-87891904D01*
X59264285Y-87987142D01*
X59292857Y-88034761D01*
X59350000Y-88082380D01*
X59464285Y-88082380D01*
X59521428Y-88034761D01*
X59550000Y-87987142D01*
X59578571Y-87891904D01*
X59578571Y-87701428D01*
X59550000Y-87606190D01*
X59521428Y-87558571D01*
X59464285Y-87510952D01*
X58721428Y-90336666D02*
X59007142Y-90336666D01*
X58664285Y-90622380D02*
X58864285Y-89622380D01*
X59064285Y-90622380D01*
X59292857Y-90622380D02*
X59407142Y-90622380D01*
X59464285Y-90574761D01*
X59492857Y-90527142D01*
X59550000Y-90384285D01*
X59578571Y-90193809D01*
X59578571Y-89812857D01*
X59550000Y-89717619D01*
X59521428Y-89670000D01*
X59464285Y-89622380D01*
X59350000Y-89622380D01*
X59292857Y-89670000D01*
X59264285Y-89717619D01*
X59235714Y-89812857D01*
X59235714Y-90050952D01*
X59264285Y-90146190D01*
X59292857Y-90193809D01*
X59350000Y-90241428D01*
X59464285Y-90241428D01*
X59521428Y-90193809D01*
X59550000Y-90146190D01*
X59578571Y-90050952D01*
X58685714Y-92876666D02*
X58971428Y-92876666D01*
X58628571Y-93162380D02*
X58828571Y-92162380D01*
X59028571Y-93162380D01*
X59542857Y-93162380D02*
X59200000Y-93162380D01*
X59371428Y-93162380D02*
X59371428Y-92162380D01*
X59314285Y-92305238D01*
X59257142Y-92400476D01*
X59200000Y-92448095D01*
X59914285Y-92162380D02*
X59971428Y-92162380D01*
X60028571Y-92210000D01*
X60057142Y-92257619D01*
X60085714Y-92352857D01*
X60114285Y-92543333D01*
X60114285Y-92781428D01*
X60085714Y-92971904D01*
X60057142Y-93067142D01*
X60028571Y-93114761D01*
X59971428Y-93162380D01*
X59914285Y-93162380D01*
X59857142Y-93114761D01*
X59828571Y-93067142D01*
X59800000Y-92971904D01*
X59771428Y-92781428D01*
X59771428Y-92543333D01*
X59800000Y-92352857D01*
X59828571Y-92257619D01*
X59857142Y-92210000D01*
X59914285Y-92162380D01*
X58685714Y-95416666D02*
X58971428Y-95416666D01*
X58628571Y-95702380D02*
X58828571Y-94702380D01*
X59028571Y-95702380D01*
X59542857Y-95702380D02*
X59200000Y-95702380D01*
X59371428Y-95702380D02*
X59371428Y-94702380D01*
X59314285Y-94845238D01*
X59257142Y-94940476D01*
X59200000Y-94988095D01*
X60114285Y-95702380D02*
X59771428Y-95702380D01*
X59942857Y-95702380D02*
X59942857Y-94702380D01*
X59885714Y-94845238D01*
X59828571Y-94940476D01*
X59771428Y-94988095D01*
X58685714Y-97956666D02*
X58971428Y-97956666D01*
X58628571Y-98242380D02*
X58828571Y-97242380D01*
X59028571Y-98242380D01*
X59542857Y-98242380D02*
X59200000Y-98242380D01*
X59371428Y-98242380D02*
X59371428Y-97242380D01*
X59314285Y-97385238D01*
X59257142Y-97480476D01*
X59200000Y-97528095D01*
X59771428Y-97337619D02*
X59800000Y-97290000D01*
X59857142Y-97242380D01*
X60000000Y-97242380D01*
X60057142Y-97290000D01*
X60085714Y-97337619D01*
X60114285Y-97432857D01*
X60114285Y-97528095D01*
X60085714Y-97670952D01*
X59742857Y-98242380D01*
X60114285Y-98242380D01*
X58685714Y-100496666D02*
X58971428Y-100496666D01*
X58628571Y-100782380D02*
X58828571Y-99782380D01*
X59028571Y-100782380D01*
X59542857Y-100782380D02*
X59200000Y-100782380D01*
X59371428Y-100782380D02*
X59371428Y-99782380D01*
X59314285Y-99925238D01*
X59257142Y-100020476D01*
X59200000Y-100068095D01*
X59742857Y-99782380D02*
X60114285Y-99782380D01*
X59914285Y-100163333D01*
X60000000Y-100163333D01*
X60057142Y-100210952D01*
X60085714Y-100258571D01*
X60114285Y-100353809D01*
X60114285Y-100591904D01*
X60085714Y-100687142D01*
X60057142Y-100734761D01*
X60000000Y-100782380D01*
X59828571Y-100782380D01*
X59771428Y-100734761D01*
X59742857Y-100687142D01*
X58685714Y-103036666D02*
X58971428Y-103036666D01*
X58628571Y-103322380D02*
X58828571Y-102322380D01*
X59028571Y-103322380D01*
X59542857Y-103322380D02*
X59200000Y-103322380D01*
X59371428Y-103322380D02*
X59371428Y-102322380D01*
X59314285Y-102465238D01*
X59257142Y-102560476D01*
X59200000Y-102608095D01*
X60057142Y-102655714D02*
X60057142Y-103322380D01*
X59914285Y-102274761D02*
X59771428Y-102989047D01*
X60142857Y-102989047D01*
X58685714Y-105576666D02*
X58971428Y-105576666D01*
X58628571Y-105862380D02*
X58828571Y-104862380D01*
X59028571Y-105862380D01*
X59542857Y-105862380D02*
X59200000Y-105862380D01*
X59371428Y-105862380D02*
X59371428Y-104862380D01*
X59314285Y-105005238D01*
X59257142Y-105100476D01*
X59200000Y-105148095D01*
X60085714Y-104862380D02*
X59800000Y-104862380D01*
X59771428Y-105338571D01*
X59800000Y-105290952D01*
X59857142Y-105243333D01*
X60000000Y-105243333D01*
X60057142Y-105290952D01*
X60085714Y-105338571D01*
X60114285Y-105433809D01*
X60114285Y-105671904D01*
X60085714Y-105767142D01*
X60057142Y-105814761D01*
X60000000Y-105862380D01*
X59857142Y-105862380D01*
X59800000Y-105814761D01*
X59771428Y-105767142D01*
X63787142Y-67762380D02*
X63787142Y-66762380D01*
X63930000Y-66762380D01*
X64015714Y-66810000D01*
X64072857Y-66905238D01*
X64101428Y-67000476D01*
X64130000Y-67190952D01*
X64130000Y-67333809D01*
X64101428Y-67524285D01*
X64072857Y-67619523D01*
X64015714Y-67714761D01*
X63930000Y-67762380D01*
X63787142Y-67762380D01*
X64501428Y-66762380D02*
X64558571Y-66762380D01*
X64615714Y-66810000D01*
X64644285Y-66857619D01*
X64672857Y-66952857D01*
X64701428Y-67143333D01*
X64701428Y-67381428D01*
X64672857Y-67571904D01*
X64644285Y-67667142D01*
X64615714Y-67714761D01*
X64558571Y-67762380D01*
X64501428Y-67762380D01*
X64444285Y-67714761D01*
X64415714Y-67667142D01*
X64387142Y-67571904D01*
X64358571Y-67381428D01*
X64358571Y-67143333D01*
X64387142Y-66952857D01*
X64415714Y-66857619D01*
X64444285Y-66810000D01*
X64501428Y-66762380D01*
X63787142Y-70302380D02*
X63787142Y-69302380D01*
X63930000Y-69302380D01*
X64015714Y-69350000D01*
X64072857Y-69445238D01*
X64101428Y-69540476D01*
X64130000Y-69730952D01*
X64130000Y-69873809D01*
X64101428Y-70064285D01*
X64072857Y-70159523D01*
X64015714Y-70254761D01*
X63930000Y-70302380D01*
X63787142Y-70302380D01*
X64701428Y-70302380D02*
X64358571Y-70302380D01*
X64530000Y-70302380D02*
X64530000Y-69302380D01*
X64472857Y-69445238D01*
X64415714Y-69540476D01*
X64358571Y-69588095D01*
X63787142Y-72842380D02*
X63787142Y-71842380D01*
X63930000Y-71842380D01*
X64015714Y-71890000D01*
X64072857Y-71985238D01*
X64101428Y-72080476D01*
X64130000Y-72270952D01*
X64130000Y-72413809D01*
X64101428Y-72604285D01*
X64072857Y-72699523D01*
X64015714Y-72794761D01*
X63930000Y-72842380D01*
X63787142Y-72842380D01*
X64358571Y-71937619D02*
X64387142Y-71890000D01*
X64444285Y-71842380D01*
X64587142Y-71842380D01*
X64644285Y-71890000D01*
X64672857Y-71937619D01*
X64701428Y-72032857D01*
X64701428Y-72128095D01*
X64672857Y-72270952D01*
X64330000Y-72842380D01*
X64701428Y-72842380D01*
X63787142Y-75382380D02*
X63787142Y-74382380D01*
X63930000Y-74382380D01*
X64015714Y-74430000D01*
X64072857Y-74525238D01*
X64101428Y-74620476D01*
X64130000Y-74810952D01*
X64130000Y-74953809D01*
X64101428Y-75144285D01*
X64072857Y-75239523D01*
X64015714Y-75334761D01*
X63930000Y-75382380D01*
X63787142Y-75382380D01*
X64330000Y-74382380D02*
X64701428Y-74382380D01*
X64501428Y-74763333D01*
X64587142Y-74763333D01*
X64644285Y-74810952D01*
X64672857Y-74858571D01*
X64701428Y-74953809D01*
X64701428Y-75191904D01*
X64672857Y-75287142D01*
X64644285Y-75334761D01*
X64587142Y-75382380D01*
X64415714Y-75382380D01*
X64358571Y-75334761D01*
X64330000Y-75287142D01*
X63787142Y-77922380D02*
X63787142Y-76922380D01*
X63930000Y-76922380D01*
X64015714Y-76970000D01*
X64072857Y-77065238D01*
X64101428Y-77160476D01*
X64130000Y-77350952D01*
X64130000Y-77493809D01*
X64101428Y-77684285D01*
X64072857Y-77779523D01*
X64015714Y-77874761D01*
X63930000Y-77922380D01*
X63787142Y-77922380D01*
X64644285Y-77255714D02*
X64644285Y-77922380D01*
X64501428Y-76874761D02*
X64358571Y-77589047D01*
X64730000Y-77589047D01*
X63787142Y-80462380D02*
X63787142Y-79462380D01*
X63930000Y-79462380D01*
X64015714Y-79510000D01*
X64072857Y-79605238D01*
X64101428Y-79700476D01*
X64130000Y-79890952D01*
X64130000Y-80033809D01*
X64101428Y-80224285D01*
X64072857Y-80319523D01*
X64015714Y-80414761D01*
X63930000Y-80462380D01*
X63787142Y-80462380D01*
X64672857Y-79462380D02*
X64387142Y-79462380D01*
X64358571Y-79938571D01*
X64387142Y-79890952D01*
X64444285Y-79843333D01*
X64587142Y-79843333D01*
X64644285Y-79890952D01*
X64672857Y-79938571D01*
X64701428Y-80033809D01*
X64701428Y-80271904D01*
X64672857Y-80367142D01*
X64644285Y-80414761D01*
X64587142Y-80462380D01*
X64444285Y-80462380D01*
X64387142Y-80414761D01*
X64358571Y-80367142D01*
X63787142Y-83002380D02*
X63787142Y-82002380D01*
X63930000Y-82002380D01*
X64015714Y-82050000D01*
X64072857Y-82145238D01*
X64101428Y-82240476D01*
X64130000Y-82430952D01*
X64130000Y-82573809D01*
X64101428Y-82764285D01*
X64072857Y-82859523D01*
X64015714Y-82954761D01*
X63930000Y-83002380D01*
X63787142Y-83002380D01*
X64644285Y-82002380D02*
X64530000Y-82002380D01*
X64472857Y-82050000D01*
X64444285Y-82097619D01*
X64387142Y-82240476D01*
X64358571Y-82430952D01*
X64358571Y-82811904D01*
X64387142Y-82907142D01*
X64415714Y-82954761D01*
X64472857Y-83002380D01*
X64587142Y-83002380D01*
X64644285Y-82954761D01*
X64672857Y-82907142D01*
X64701428Y-82811904D01*
X64701428Y-82573809D01*
X64672857Y-82478571D01*
X64644285Y-82430952D01*
X64587142Y-82383333D01*
X64472857Y-82383333D01*
X64415714Y-82430952D01*
X64387142Y-82478571D01*
X64358571Y-82573809D01*
X63787142Y-85542380D02*
X63787142Y-84542380D01*
X63930000Y-84542380D01*
X64015714Y-84590000D01*
X64072857Y-84685238D01*
X64101428Y-84780476D01*
X64130000Y-84970952D01*
X64130000Y-85113809D01*
X64101428Y-85304285D01*
X64072857Y-85399523D01*
X64015714Y-85494761D01*
X63930000Y-85542380D01*
X63787142Y-85542380D01*
X64330000Y-84542380D02*
X64730000Y-84542380D01*
X64472857Y-85542380D01*
X68495714Y-66460000D02*
X69095714Y-66460000D01*
X68981428Y-67762380D02*
X68781428Y-67286190D01*
X68638571Y-67762380D02*
X68638571Y-66762380D01*
X68867142Y-66762380D01*
X68924285Y-66810000D01*
X68952857Y-66857619D01*
X68981428Y-66952857D01*
X68981428Y-67095714D01*
X68952857Y-67190952D01*
X68924285Y-67238571D01*
X68867142Y-67286190D01*
X68638571Y-67286190D01*
X69095714Y-66460000D02*
X69667142Y-66460000D01*
X69210000Y-67714761D02*
X69295714Y-67762380D01*
X69438571Y-67762380D01*
X69495714Y-67714761D01*
X69524285Y-67667142D01*
X69552857Y-67571904D01*
X69552857Y-67476666D01*
X69524285Y-67381428D01*
X69495714Y-67333809D01*
X69438571Y-67286190D01*
X69324285Y-67238571D01*
X69267142Y-67190952D01*
X69238571Y-67143333D01*
X69210000Y-67048095D01*
X69210000Y-66952857D01*
X69238571Y-66857619D01*
X69267142Y-66810000D01*
X69324285Y-66762380D01*
X69467142Y-66762380D01*
X69552857Y-66810000D01*
X69667142Y-66460000D02*
X70124285Y-66460000D01*
X69724285Y-66762380D02*
X70067142Y-66762380D01*
X69895714Y-67762380D02*
X69895714Y-66762380D01*
X68467142Y-69000000D02*
X69067142Y-69000000D01*
X68952857Y-70207142D02*
X68924285Y-70254761D01*
X68838571Y-70302380D01*
X68781428Y-70302380D01*
X68695714Y-70254761D01*
X68638571Y-70159523D01*
X68610000Y-70064285D01*
X68581428Y-69873809D01*
X68581428Y-69730952D01*
X68610000Y-69540476D01*
X68638571Y-69445238D01*
X68695714Y-69350000D01*
X68781428Y-69302380D01*
X68838571Y-69302380D01*
X68924285Y-69350000D01*
X68952857Y-69397619D01*
X69067142Y-69000000D02*
X69552857Y-69000000D01*
X69495714Y-70302380D02*
X69210000Y-70302380D01*
X69210000Y-69302380D01*
X69552857Y-69000000D02*
X70152857Y-69000000D01*
X69695714Y-70302380D02*
X69695714Y-69302380D01*
X70038571Y-70302380D02*
X69781428Y-69730952D01*
X70038571Y-69302380D02*
X69695714Y-69873809D01*
X68510000Y-71540000D02*
X69138571Y-71540000D01*
X68652857Y-72842380D02*
X68652857Y-71842380D01*
X68995714Y-72842380D01*
X68995714Y-71842380D01*
X69138571Y-71540000D02*
X69824285Y-71540000D01*
X69281428Y-72842380D02*
X69281428Y-71842380D01*
X69481428Y-72556666D01*
X69681428Y-71842380D01*
X69681428Y-72842380D01*
X69824285Y-71540000D02*
X70110000Y-71540000D01*
X69967142Y-72842380D02*
X69967142Y-71842380D01*
X68524285Y-74080000D02*
X68810000Y-74080000D01*
X68667142Y-75382380D02*
X68667142Y-74382380D01*
X68810000Y-74080000D02*
X69438571Y-74080000D01*
X68952857Y-75382380D02*
X68952857Y-74382380D01*
X69295714Y-75382380D01*
X69295714Y-74382380D01*
X69438571Y-74080000D02*
X69895714Y-74080000D01*
X69495714Y-74382380D02*
X69838571Y-74382380D01*
X69667142Y-75382380D02*
X69667142Y-74382380D01*
X68459428Y-76620000D02*
X69145142Y-76620000D01*
X68602285Y-77922380D02*
X68602285Y-76922380D01*
X68802285Y-77636666D01*
X69002285Y-76922380D01*
X69002285Y-77922380D01*
X69145142Y-76620000D02*
X69716571Y-76620000D01*
X69602285Y-77922380D02*
X69259428Y-77922380D01*
X69430857Y-77922380D02*
X69430857Y-76922380D01*
X69373714Y-77065238D01*
X69316571Y-77160476D01*
X69259428Y-77208095D01*
X68470571Y-79160000D02*
X69070571Y-79160000D01*
X68956285Y-80462380D02*
X68756285Y-79986190D01*
X68613428Y-80462380D02*
X68613428Y-79462380D01*
X68842000Y-79462380D01*
X68899142Y-79510000D01*
X68927714Y-79557619D01*
X68956285Y-79652857D01*
X68956285Y-79795714D01*
X68927714Y-79890952D01*
X68899142Y-79938571D01*
X68842000Y-79986190D01*
X68613428Y-79986190D01*
X69070571Y-79160000D02*
X69584857Y-79160000D01*
X69413428Y-79938571D02*
X69213428Y-79938571D01*
X69213428Y-80462380D02*
X69213428Y-79462380D01*
X69499142Y-79462380D01*
X69584857Y-79160000D02*
X70213428Y-79160000D01*
X69727714Y-80462380D02*
X69727714Y-79462380D01*
X69727714Y-79938571D02*
X70070571Y-79938571D01*
X70070571Y-80462380D02*
X70070571Y-79462380D01*
X68516571Y-81700000D02*
X69202285Y-81700000D01*
X68602285Y-82002380D02*
X68745142Y-83002380D01*
X68859428Y-82288095D01*
X68973714Y-83002380D01*
X69116571Y-82002380D01*
X69202285Y-81700000D02*
X69659428Y-81700000D01*
X69259428Y-82002380D02*
X69602285Y-82002380D01*
X69430857Y-83002380D02*
X69430857Y-82002380D01*
X68524285Y-84240000D02*
X69152857Y-84240000D01*
X68667142Y-85542380D02*
X68667142Y-84542380D01*
X68667142Y-85018571D02*
X69010000Y-85018571D01*
X69010000Y-85542380D02*
X69010000Y-84542380D01*
X69152857Y-84240000D02*
X69638571Y-84240000D01*
X69581428Y-85542380D02*
X69295714Y-85542380D01*
X69295714Y-84542380D01*
X69638571Y-84240000D02*
X70095714Y-84240000D01*
X69695714Y-84542380D02*
X70038571Y-84542380D01*
X69867142Y-85542380D02*
X69867142Y-84542380D01*
X68488000Y-86780000D02*
X69088000Y-86780000D01*
X68973714Y-88082380D02*
X68773714Y-87606190D01*
X68630857Y-88082380D02*
X68630857Y-87082380D01*
X68859428Y-87082380D01*
X68916571Y-87130000D01*
X68945142Y-87177619D01*
X68973714Y-87272857D01*
X68973714Y-87415714D01*
X68945142Y-87510952D01*
X68916571Y-87558571D01*
X68859428Y-87606190D01*
X68630857Y-87606190D01*
X69088000Y-86780000D02*
X69688000Y-86780000D01*
X69230857Y-88082380D02*
X69230857Y-87082380D01*
X69373714Y-87082380D01*
X69459428Y-87130000D01*
X69516571Y-87225238D01*
X69545142Y-87320476D01*
X69573714Y-87510952D01*
X69573714Y-87653809D01*
X69545142Y-87844285D01*
X69516571Y-87939523D01*
X69459428Y-88034761D01*
X69373714Y-88082380D01*
X69230857Y-88082380D01*
X68445142Y-89320000D02*
X69130857Y-89320000D01*
X68530857Y-89622380D02*
X68673714Y-90622380D01*
X68788000Y-89908095D01*
X68902285Y-90622380D01*
X69045142Y-89622380D01*
X69130857Y-89320000D02*
X69730857Y-89320000D01*
X69616571Y-90622380D02*
X69416571Y-90146190D01*
X69273714Y-90622380D02*
X69273714Y-89622380D01*
X69502285Y-89622380D01*
X69559428Y-89670000D01*
X69588000Y-89717619D01*
X69616571Y-89812857D01*
X69616571Y-89955714D01*
X69588000Y-90050952D01*
X69559428Y-90098571D01*
X69502285Y-90146190D01*
X69273714Y-90146190D01*
X68352857Y-91860000D02*
X69038571Y-91860000D01*
X68495714Y-93162380D02*
X68495714Y-92162380D01*
X68695714Y-92876666D01*
X68895714Y-92162380D01*
X68895714Y-93162380D01*
X69038571Y-91860000D02*
X69638571Y-91860000D01*
X69524285Y-93162380D02*
X69324285Y-92686190D01*
X69181428Y-93162380D02*
X69181428Y-92162380D01*
X69410000Y-92162380D01*
X69467142Y-92210000D01*
X69495714Y-92257619D01*
X69524285Y-92352857D01*
X69524285Y-92495714D01*
X69495714Y-92590952D01*
X69467142Y-92638571D01*
X69410000Y-92686190D01*
X69181428Y-92686190D01*
X69638571Y-91860000D02*
X70267142Y-91860000D01*
X70181428Y-93257619D02*
X70124285Y-93210000D01*
X70067142Y-93114761D01*
X69981428Y-92971904D01*
X69924285Y-92924285D01*
X69867142Y-92924285D01*
X69895714Y-93162380D02*
X69838571Y-93114761D01*
X69781428Y-93019523D01*
X69752857Y-92829047D01*
X69752857Y-92495714D01*
X69781428Y-92305238D01*
X69838571Y-92210000D01*
X69895714Y-92162380D01*
X70010000Y-92162380D01*
X70067142Y-92210000D01*
X70124285Y-92305238D01*
X70152857Y-92495714D01*
X70152857Y-92829047D01*
X70124285Y-93019523D01*
X70067142Y-93114761D01*
X70010000Y-93162380D01*
X69895714Y-93162380D01*
X68452857Y-94400000D02*
X68738571Y-94400000D01*
X68595714Y-95702380D02*
X68595714Y-94702380D01*
X68738571Y-94400000D02*
X69367142Y-94400000D01*
X68995714Y-94702380D02*
X69110000Y-94702380D01*
X69167142Y-94750000D01*
X69224285Y-94845238D01*
X69252857Y-95035714D01*
X69252857Y-95369047D01*
X69224285Y-95559523D01*
X69167142Y-95654761D01*
X69110000Y-95702380D01*
X68995714Y-95702380D01*
X68938571Y-95654761D01*
X68881428Y-95559523D01*
X68852857Y-95369047D01*
X68852857Y-95035714D01*
X68881428Y-94845238D01*
X68938571Y-94750000D01*
X68995714Y-94702380D01*
X69367142Y-94400000D02*
X69967142Y-94400000D01*
X69852857Y-95702380D02*
X69652857Y-95226190D01*
X69510000Y-95702380D02*
X69510000Y-94702380D01*
X69738571Y-94702380D01*
X69795714Y-94750000D01*
X69824285Y-94797619D01*
X69852857Y-94892857D01*
X69852857Y-95035714D01*
X69824285Y-95130952D01*
X69795714Y-95178571D01*
X69738571Y-95226190D01*
X69510000Y-95226190D01*
X68395714Y-96940000D02*
X68995714Y-96940000D01*
X68738571Y-97718571D02*
X68824285Y-97766190D01*
X68852857Y-97813809D01*
X68881428Y-97909047D01*
X68881428Y-98051904D01*
X68852857Y-98147142D01*
X68824285Y-98194761D01*
X68767142Y-98242380D01*
X68538571Y-98242380D01*
X68538571Y-97242380D01*
X68738571Y-97242380D01*
X68795714Y-97290000D01*
X68824285Y-97337619D01*
X68852857Y-97432857D01*
X68852857Y-97528095D01*
X68824285Y-97623333D01*
X68795714Y-97670952D01*
X68738571Y-97718571D01*
X68538571Y-97718571D01*
X68995714Y-96940000D02*
X69595714Y-96940000D01*
X69481428Y-98242380D02*
X69281428Y-97766190D01*
X69138571Y-98242380D02*
X69138571Y-97242380D01*
X69367142Y-97242380D01*
X69424285Y-97290000D01*
X69452857Y-97337619D01*
X69481428Y-97432857D01*
X69481428Y-97575714D01*
X69452857Y-97670952D01*
X69424285Y-97718571D01*
X69367142Y-97766190D01*
X69138571Y-97766190D01*
X69595714Y-96940000D02*
X70224285Y-96940000D01*
X70138571Y-98337619D02*
X70081428Y-98290000D01*
X70024285Y-98194761D01*
X69938571Y-98051904D01*
X69881428Y-98004285D01*
X69824285Y-98004285D01*
X69852857Y-98242380D02*
X69795714Y-98194761D01*
X69738571Y-98099523D01*
X69710000Y-97909047D01*
X69710000Y-97575714D01*
X69738571Y-97385238D01*
X69795714Y-97290000D01*
X69852857Y-97242380D01*
X69967142Y-97242380D01*
X70024285Y-97290000D01*
X70081428Y-97385238D01*
X70110000Y-97575714D01*
X70110000Y-97909047D01*
X70081428Y-98099523D01*
X70024285Y-98194761D01*
X69967142Y-98242380D01*
X69852857Y-98242380D01*
X68410000Y-99480000D02*
X69010000Y-99480000D01*
X68752857Y-100258571D02*
X68838571Y-100306190D01*
X68867142Y-100353809D01*
X68895714Y-100449047D01*
X68895714Y-100591904D01*
X68867142Y-100687142D01*
X68838571Y-100734761D01*
X68781428Y-100782380D01*
X68552857Y-100782380D01*
X68552857Y-99782380D01*
X68752857Y-99782380D01*
X68810000Y-99830000D01*
X68838571Y-99877619D01*
X68867142Y-99972857D01*
X68867142Y-100068095D01*
X68838571Y-100163333D01*
X68810000Y-100210952D01*
X68752857Y-100258571D01*
X68552857Y-100258571D01*
X69010000Y-99480000D02*
X69610000Y-99480000D01*
X69495714Y-100687142D02*
X69467142Y-100734761D01*
X69381428Y-100782380D01*
X69324285Y-100782380D01*
X69238571Y-100734761D01*
X69181428Y-100639523D01*
X69152857Y-100544285D01*
X69124285Y-100353809D01*
X69124285Y-100210952D01*
X69152857Y-100020476D01*
X69181428Y-99925238D01*
X69238571Y-99830000D01*
X69324285Y-99782380D01*
X69381428Y-99782380D01*
X69467142Y-99830000D01*
X69495714Y-99877619D01*
X69610000Y-99480000D02*
X70210000Y-99480000D01*
X69752857Y-100782380D02*
X69752857Y-99782380D01*
X70095714Y-100782380D02*
X69838571Y-100210952D01*
X70095714Y-99782380D02*
X69752857Y-100353809D01*
X53684285Y-66810000D02*
X53627142Y-66762380D01*
X53541428Y-66762380D01*
X53455714Y-66810000D01*
X53398571Y-66905238D01*
X53370000Y-67000476D01*
X53341428Y-67190952D01*
X53341428Y-67333809D01*
X53370000Y-67524285D01*
X53398571Y-67619523D01*
X53455714Y-67714761D01*
X53541428Y-67762380D01*
X53598571Y-67762380D01*
X53684285Y-67714761D01*
X53712857Y-67667142D01*
X53712857Y-67333809D01*
X53598571Y-67333809D01*
X53970000Y-67095714D02*
X53970000Y-67762380D01*
X53970000Y-67190952D02*
X53998571Y-67143333D01*
X54055714Y-67095714D01*
X54141428Y-67095714D01*
X54198571Y-67143333D01*
X54227142Y-67238571D01*
X54227142Y-67762380D01*
X54770000Y-67762380D02*
X54770000Y-66762380D01*
X54770000Y-67714761D02*
X54712857Y-67762380D01*
X54598571Y-67762380D01*
X54541428Y-67714761D01*
X54512857Y-67667142D01*
X54484285Y-67571904D01*
X54484285Y-67286190D01*
X54512857Y-67190952D01*
X54541428Y-67143333D01*
X54598571Y-67095714D01*
X54712857Y-67095714D01*
X54770000Y-67143333D01*
X53955714Y-69302380D02*
X53670000Y-69302380D01*
X53641428Y-69778571D01*
X53670000Y-69730952D01*
X53727142Y-69683333D01*
X53870000Y-69683333D01*
X53927142Y-69730952D01*
X53955714Y-69778571D01*
X53984285Y-69873809D01*
X53984285Y-70111904D01*
X53955714Y-70207142D01*
X53927142Y-70254761D01*
X53870000Y-70302380D01*
X53727142Y-70302380D01*
X53670000Y-70254761D01*
X53641428Y-70207142D01*
X54155714Y-69302380D02*
X54355714Y-70302380D01*
X54555714Y-69302380D01*
X99967857Y-66762380D02*
X99967857Y-67571904D01*
X99996428Y-67667142D01*
X100025000Y-67714761D01*
X100082142Y-67762380D01*
X100196428Y-67762380D01*
X100253571Y-67714761D01*
X100282142Y-67667142D01*
X100310714Y-67571904D01*
X100310714Y-66762380D01*
X100710714Y-66762380D02*
X100767857Y-66762380D01*
X100825000Y-66810000D01*
X100853571Y-66857619D01*
X100882142Y-66952857D01*
X100910714Y-67143333D01*
X100910714Y-67381428D01*
X100882142Y-67571904D01*
X100853571Y-67667142D01*
X100825000Y-67714761D01*
X100767857Y-67762380D01*
X100710714Y-67762380D01*
X100653571Y-67714761D01*
X100625000Y-67667142D01*
X100596428Y-67571904D01*
X100567857Y-67381428D01*
X100567857Y-67143333D01*
X100596428Y-66952857D01*
X100625000Y-66857619D01*
X100653571Y-66810000D01*
X100710714Y-66762380D01*
X99967857Y-69302380D02*
X99967857Y-70111904D01*
X99996428Y-70207142D01*
X100025000Y-70254761D01*
X100082142Y-70302380D01*
X100196428Y-70302380D01*
X100253571Y-70254761D01*
X100282142Y-70207142D01*
X100310714Y-70111904D01*
X100310714Y-69302380D01*
X100910714Y-70302380D02*
X100567857Y-70302380D01*
X100739285Y-70302380D02*
X100739285Y-69302380D01*
X100682142Y-69445238D01*
X100625000Y-69540476D01*
X100567857Y-69588095D01*
X99967857Y-71842380D02*
X99967857Y-72651904D01*
X99996428Y-72747142D01*
X100025000Y-72794761D01*
X100082142Y-72842380D01*
X100196428Y-72842380D01*
X100253571Y-72794761D01*
X100282142Y-72747142D01*
X100310714Y-72651904D01*
X100310714Y-71842380D01*
X100567857Y-71937619D02*
X100596428Y-71890000D01*
X100653571Y-71842380D01*
X100796428Y-71842380D01*
X100853571Y-71890000D01*
X100882142Y-71937619D01*
X100910714Y-72032857D01*
X100910714Y-72128095D01*
X100882142Y-72270952D01*
X100539285Y-72842380D01*
X100910714Y-72842380D01*
X99967857Y-74382380D02*
X99967857Y-75191904D01*
X99996428Y-75287142D01*
X100025000Y-75334761D01*
X100082142Y-75382380D01*
X100196428Y-75382380D01*
X100253571Y-75334761D01*
X100282142Y-75287142D01*
X100310714Y-75191904D01*
X100310714Y-74382380D01*
X100539285Y-74382380D02*
X100910714Y-74382380D01*
X100710714Y-74763333D01*
X100796428Y-74763333D01*
X100853571Y-74810952D01*
X100882142Y-74858571D01*
X100910714Y-74953809D01*
X100910714Y-75191904D01*
X100882142Y-75287142D01*
X100853571Y-75334761D01*
X100796428Y-75382380D01*
X100625000Y-75382380D01*
X100567857Y-75334761D01*
X100539285Y-75287142D01*
X99967857Y-76922380D02*
X99967857Y-77731904D01*
X99996428Y-77827142D01*
X100025000Y-77874761D01*
X100082142Y-77922380D01*
X100196428Y-77922380D01*
X100253571Y-77874761D01*
X100282142Y-77827142D01*
X100310714Y-77731904D01*
X100310714Y-76922380D01*
X100853571Y-77255714D02*
X100853571Y-77922380D01*
X100710714Y-76874761D02*
X100567857Y-77589047D01*
X100939285Y-77589047D01*
X99967857Y-79462380D02*
X99967857Y-80271904D01*
X99996428Y-80367142D01*
X100025000Y-80414761D01*
X100082142Y-80462380D01*
X100196428Y-80462380D01*
X100253571Y-80414761D01*
X100282142Y-80367142D01*
X100310714Y-80271904D01*
X100310714Y-79462380D01*
X100882142Y-79462380D02*
X100596428Y-79462380D01*
X100567857Y-79938571D01*
X100596428Y-79890952D01*
X100653571Y-79843333D01*
X100796428Y-79843333D01*
X100853571Y-79890952D01*
X100882142Y-79938571D01*
X100910714Y-80033809D01*
X100910714Y-80271904D01*
X100882142Y-80367142D01*
X100853571Y-80414761D01*
X100796428Y-80462380D01*
X100653571Y-80462380D01*
X100596428Y-80414761D01*
X100567857Y-80367142D01*
X99967857Y-82002380D02*
X99967857Y-82811904D01*
X99996428Y-82907142D01*
X100025000Y-82954761D01*
X100082142Y-83002380D01*
X100196428Y-83002380D01*
X100253571Y-82954761D01*
X100282142Y-82907142D01*
X100310714Y-82811904D01*
X100310714Y-82002380D01*
X100853571Y-82002380D02*
X100739285Y-82002380D01*
X100682142Y-82050000D01*
X100653571Y-82097619D01*
X100596428Y-82240476D01*
X100567857Y-82430952D01*
X100567857Y-82811904D01*
X100596428Y-82907142D01*
X100625000Y-82954761D01*
X100682142Y-83002380D01*
X100796428Y-83002380D01*
X100853571Y-82954761D01*
X100882142Y-82907142D01*
X100910714Y-82811904D01*
X100910714Y-82573809D01*
X100882142Y-82478571D01*
X100853571Y-82430952D01*
X100796428Y-82383333D01*
X100682142Y-82383333D01*
X100625000Y-82430952D01*
X100596428Y-82478571D01*
X100567857Y-82573809D01*
X99967857Y-84542380D02*
X99967857Y-85351904D01*
X99996428Y-85447142D01*
X100025000Y-85494761D01*
X100082142Y-85542380D01*
X100196428Y-85542380D01*
X100253571Y-85494761D01*
X100282142Y-85447142D01*
X100310714Y-85351904D01*
X100310714Y-84542380D01*
X100539285Y-84542380D02*
X100939285Y-84542380D01*
X100682142Y-85542380D01*
X99967857Y-87082380D02*
X99967857Y-87891904D01*
X99996428Y-87987142D01*
X100025000Y-88034761D01*
X100082142Y-88082380D01*
X100196428Y-88082380D01*
X100253571Y-88034761D01*
X100282142Y-87987142D01*
X100310714Y-87891904D01*
X100310714Y-87082380D01*
X100682142Y-87510952D02*
X100625000Y-87463333D01*
X100596428Y-87415714D01*
X100567857Y-87320476D01*
X100567857Y-87272857D01*
X100596428Y-87177619D01*
X100625000Y-87130000D01*
X100682142Y-87082380D01*
X100796428Y-87082380D01*
X100853571Y-87130000D01*
X100882142Y-87177619D01*
X100910714Y-87272857D01*
X100910714Y-87320476D01*
X100882142Y-87415714D01*
X100853571Y-87463333D01*
X100796428Y-87510952D01*
X100682142Y-87510952D01*
X100625000Y-87558571D01*
X100596428Y-87606190D01*
X100567857Y-87701428D01*
X100567857Y-87891904D01*
X100596428Y-87987142D01*
X100625000Y-88034761D01*
X100682142Y-88082380D01*
X100796428Y-88082380D01*
X100853571Y-88034761D01*
X100882142Y-87987142D01*
X100910714Y-87891904D01*
X100910714Y-87701428D01*
X100882142Y-87606190D01*
X100853571Y-87558571D01*
X100796428Y-87510952D01*
X99967857Y-89622380D02*
X99967857Y-90431904D01*
X99996428Y-90527142D01*
X100025000Y-90574761D01*
X100082142Y-90622380D01*
X100196428Y-90622380D01*
X100253571Y-90574761D01*
X100282142Y-90527142D01*
X100310714Y-90431904D01*
X100310714Y-89622380D01*
X100625000Y-90622380D02*
X100739285Y-90622380D01*
X100796428Y-90574761D01*
X100825000Y-90527142D01*
X100882142Y-90384285D01*
X100910714Y-90193809D01*
X100910714Y-89812857D01*
X100882142Y-89717619D01*
X100853571Y-89670000D01*
X100796428Y-89622380D01*
X100682142Y-89622380D01*
X100625000Y-89670000D01*
X100596428Y-89717619D01*
X100567857Y-89812857D01*
X100567857Y-90050952D01*
X100596428Y-90146190D01*
X100625000Y-90193809D01*
X100682142Y-90241428D01*
X100796428Y-90241428D01*
X100853571Y-90193809D01*
X100882142Y-90146190D01*
X100910714Y-90050952D01*
X99932142Y-92162380D02*
X99932142Y-92971904D01*
X99960714Y-93067142D01*
X99989285Y-93114761D01*
X100046428Y-93162380D01*
X100160714Y-93162380D01*
X100217857Y-93114761D01*
X100246428Y-93067142D01*
X100275000Y-92971904D01*
X100275000Y-92162380D01*
X100875000Y-93162380D02*
X100532142Y-93162380D01*
X100703571Y-93162380D02*
X100703571Y-92162380D01*
X100646428Y-92305238D01*
X100589285Y-92400476D01*
X100532142Y-92448095D01*
X101246428Y-92162380D02*
X101303571Y-92162380D01*
X101360714Y-92210000D01*
X101389285Y-92257619D01*
X101417857Y-92352857D01*
X101446428Y-92543333D01*
X101446428Y-92781428D01*
X101417857Y-92971904D01*
X101389285Y-93067142D01*
X101360714Y-93114761D01*
X101303571Y-93162380D01*
X101246428Y-93162380D01*
X101189285Y-93114761D01*
X101160714Y-93067142D01*
X101132142Y-92971904D01*
X101103571Y-92781428D01*
X101103571Y-92543333D01*
X101132142Y-92352857D01*
X101160714Y-92257619D01*
X101189285Y-92210000D01*
X101246428Y-92162380D01*
X99932142Y-94702380D02*
X99932142Y-95511904D01*
X99960714Y-95607142D01*
X99989285Y-95654761D01*
X100046428Y-95702380D01*
X100160714Y-95702380D01*
X100217857Y-95654761D01*
X100246428Y-95607142D01*
X100275000Y-95511904D01*
X100275000Y-94702380D01*
X100875000Y-95702380D02*
X100532142Y-95702380D01*
X100703571Y-95702380D02*
X100703571Y-94702380D01*
X100646428Y-94845238D01*
X100589285Y-94940476D01*
X100532142Y-94988095D01*
X101446428Y-95702380D02*
X101103571Y-95702380D01*
X101275000Y-95702380D02*
X101275000Y-94702380D01*
X101217857Y-94845238D01*
X101160714Y-94940476D01*
X101103571Y-94988095D01*
X99932142Y-97242380D02*
X99932142Y-98051904D01*
X99960714Y-98147142D01*
X99989285Y-98194761D01*
X100046428Y-98242380D01*
X100160714Y-98242380D01*
X100217857Y-98194761D01*
X100246428Y-98147142D01*
X100275000Y-98051904D01*
X100275000Y-97242380D01*
X100875000Y-98242380D02*
X100532142Y-98242380D01*
X100703571Y-98242380D02*
X100703571Y-97242380D01*
X100646428Y-97385238D01*
X100589285Y-97480476D01*
X100532142Y-97528095D01*
X101103571Y-97337619D02*
X101132142Y-97290000D01*
X101189285Y-97242380D01*
X101332142Y-97242380D01*
X101389285Y-97290000D01*
X101417857Y-97337619D01*
X101446428Y-97432857D01*
X101446428Y-97528095D01*
X101417857Y-97670952D01*
X101075000Y-98242380D01*
X101446428Y-98242380D01*
X99932142Y-99782380D02*
X99932142Y-100591904D01*
X99960714Y-100687142D01*
X99989285Y-100734761D01*
X100046428Y-100782380D01*
X100160714Y-100782380D01*
X100217857Y-100734761D01*
X100246428Y-100687142D01*
X100275000Y-100591904D01*
X100275000Y-99782380D01*
X100875000Y-100782380D02*
X100532142Y-100782380D01*
X100703571Y-100782380D02*
X100703571Y-99782380D01*
X100646428Y-99925238D01*
X100589285Y-100020476D01*
X100532142Y-100068095D01*
X101075000Y-99782380D02*
X101446428Y-99782380D01*
X101246428Y-100163333D01*
X101332142Y-100163333D01*
X101389285Y-100210952D01*
X101417857Y-100258571D01*
X101446428Y-100353809D01*
X101446428Y-100591904D01*
X101417857Y-100687142D01*
X101389285Y-100734761D01*
X101332142Y-100782380D01*
X101160714Y-100782380D01*
X101103571Y-100734761D01*
X101075000Y-100687142D01*
X99932142Y-102322380D02*
X99932142Y-103131904D01*
X99960714Y-103227142D01*
X99989285Y-103274761D01*
X100046428Y-103322380D01*
X100160714Y-103322380D01*
X100217857Y-103274761D01*
X100246428Y-103227142D01*
X100275000Y-103131904D01*
X100275000Y-102322380D01*
X100875000Y-103322380D02*
X100532142Y-103322380D01*
X100703571Y-103322380D02*
X100703571Y-102322380D01*
X100646428Y-102465238D01*
X100589285Y-102560476D01*
X100532142Y-102608095D01*
X101389285Y-102655714D02*
X101389285Y-103322380D01*
X101246428Y-102274761D02*
X101103571Y-102989047D01*
X101475000Y-102989047D01*
X99932142Y-104862380D02*
X99932142Y-105671904D01*
X99960714Y-105767142D01*
X99989285Y-105814761D01*
X100046428Y-105862380D01*
X100160714Y-105862380D01*
X100217857Y-105814761D01*
X100246428Y-105767142D01*
X100275000Y-105671904D01*
X100275000Y-104862380D01*
X100875000Y-105862380D02*
X100532142Y-105862380D01*
X100703571Y-105862380D02*
X100703571Y-104862380D01*
X100646428Y-105005238D01*
X100589285Y-105100476D01*
X100532142Y-105148095D01*
X101417857Y-104862380D02*
X101132142Y-104862380D01*
X101103571Y-105338571D01*
X101132142Y-105290952D01*
X101189285Y-105243333D01*
X101332142Y-105243333D01*
X101389285Y-105290952D01*
X101417857Y-105338571D01*
X101446428Y-105433809D01*
X101446428Y-105671904D01*
X101417857Y-105767142D01*
X101389285Y-105814761D01*
X101332142Y-105862380D01*
X101189285Y-105862380D01*
X101132142Y-105814761D01*
X101103571Y-105767142D01*
M02*
