M48
;DRILL file {KiCad (5.0.0)} date 10/23/18 17:18:11
;FORMAT={-:-/ absolute / inch / decimal}
FMAT,2
INCH,TZ
T1C0.0130
T2C0.0315
T3C0.0394
%
G90
G05
M72
T1
X2.05Y-2.25
X2.05Y-2.875
T2
X3.45Y-3.35
X3.25Y-3.65
X3.45Y-4.45
X3.875Y-3.95
X3.05Y-2.65
X2.25Y-2.85
X2.25Y-3.85
X3.55Y-3.45
X2.45Y-2.95
X3.45Y-3.85
X3.55Y-4.55
X2.65Y-3.25
X3.65Y-2.95
X3.55Y-4.45
X3.15Y-3.25
X2.25Y-3.55
X2.15Y-4.35
X2.45Y-4.35
X3.05Y-3.35
X3.75Y-2.95
X2.55Y-4.45
X3.75Y-2.85
X3.15Y-3.65
X2.85Y-4.15
X3.75Y-2.65
X2.65Y-4.55
X3.65Y-3.85
X3.05Y-2.75
X2.95Y-3.85
X3.15Y-2.75
X2.95Y-2.95
X2.95Y-3.55
X3.875Y-3.15
X3.85Y-4.35
X3.35Y-4.05
X2.95Y-2.85
X3.55Y-3.55
X3.65Y-4.35
X3.25Y-2.95
X3.875Y-2.75
X3.85Y-4.45
X3.45Y-3.45
X3.15Y-4.15
X3.45Y-4.55
X3.875Y-2.65
X2.45Y-3.25
X2.45Y-3.05
X2.25Y-3.75
X3.55Y-3.15
X2.45Y-3.35
X2.05Y-4.55
X3.45Y-3.75
X3.25Y-4.05
X2.65Y-2.65
X2.05Y-4.35
X3.35Y-2.75
X3.15Y-3.15
X3.65Y-2.85
X2.55Y-4.55
X3.15Y-3.85
X2.85Y-2.85
X3.75Y-3.85
X2.95Y-4.35
X3.75Y-3.45
X3.25Y-4.55
X2.85Y-3.35
X2.95Y-4.55
X3.95Y-4.55
X3.05Y-2.85
X2.95Y-3.25
X3.15Y-2.85
X3.15Y-4.45
X3.35Y-2.65
X3.875Y-3.65
X3.55Y-4.25
X3.45Y-2.75
X2.85Y-2.75
X3.875Y-4.05
X2.35Y-4.45
X3.65Y-4.45
X3.25Y-3.55
X2.65Y-3.75
X3.55Y-3.95
X3.45Y-3.25
X3.45Y-4.35
X2.05Y-2.75
X3.25Y-2.85
X2.25Y-3.25
X2.45Y-2.85
X2.25Y-3.95
X3.75Y-4.55
X3.25Y-2.65
X2.25Y-4.55
X3.45Y-3.95
X3.25Y-3.95
X2.65Y-3.15
X2.15Y-4.55
X3.35Y-2.85
X3.25Y-4.45
X2.25Y-4.35
X2.65Y-4.45
X3.95Y-4.45
X3.05Y-3.65
X2.95Y-4.05
X3.75Y-3.15
X2.05Y-4.45
X3.75Y-3.95
X3.05Y-3.55
X2.85Y-3.75
X3.05Y-4.35
X3.75Y-3.05
X3.05Y-3.15
X2.95Y-3.65
X2.95Y-4.15
X2.95Y-3.95
X2.85Y-4.25
X2.65Y-3.95
X3.55Y-3.65
X3.45Y-3.55
X2.35Y-4.35
X3.65Y-4.55
X3.25Y-3.25
X3.35Y-3.95
X3.15Y-4.25
X3.25Y-3.05
X3.875Y-2.95
X2.25Y-2.75
X2.25Y-4.05
X3.75Y-4.35
X2.65Y-3.35
X3.45Y-4.25
X3.35Y-3.45
X2.25Y-4.15
X3.65Y-3.15
X3.55Y-2.95
X3.25Y-4.25
X2.45Y-2.65
X3.65Y-2.75
X3.35Y-3.25
X3.05Y-3.05
X2.25Y-4.45
X2.95Y-4.45
X3.75Y-4.15
X3.35Y-4.35
X2.85Y-2.95
X3.75Y-2.75
X2.85Y-4.45
X3.75Y-3.35
X3.05Y-3.85
X2.85Y-3.85
X3.65Y-4.05
X3.05Y-3.25
X2.95Y-3.05
X2.95Y-4.25
X2.85Y-3.45
X2.95Y-3.45
X2.65Y-3.55
X3.55Y-4.05
X3.35Y-3.75
X3.875Y-3.25
X2.35Y-4.55
X3.45Y-2.95
X3.25Y-3.35
X3.875Y-3.35
X3.25Y-2.75
X3.875Y-3.45
X2.45Y-3.15
X2.25Y-3.45
X3.75Y-4.45
X2.65Y-3.05
X3.55Y-3.35
X3.25Y-3.85
X2.25Y-2.65
X3.65Y-3.35
X3.55Y-3.05
X3.55Y-4.35
X2.65Y-2.95
X3.65Y-3.25
X3.75Y-3.75
X3.35Y-3.05
X3.05Y-3.95
X3.65Y-3.45
X2.45Y-4.55
X3.75Y-4.05
X3.35Y-4.45
X2.85Y-3.05
X3.75Y-3.65
X3.05Y-4.45
X3.75Y-3.25
X3.15Y-3.75
X3.15Y-4.35
X3.65Y-4.25
X3.15Y-3.55
X2.85Y-3.15
X3.05Y-4.15
X2.85Y-3.65
X3.45Y-2.65
X3.875Y-2.85
X3.55Y-3.85
X3.35Y-3.85
X3.875Y-4.15
X2.75Y-4.45
X3.45Y-3.15
X3.15Y-3.95
X3.875Y-3.05
X3.25Y-3.15
X2.05Y-2.65
X2.65Y-3.45
X2.25Y-3.15
X2.95Y-2.65
X3.55Y-3.25
X3.15Y-2.65
X3.45Y-3.65
X3.35Y-2.95
X2.45Y-2.75
X3.65Y-3.65
X3.45Y-4.05
X3.35Y-3.35
X2.65Y-2.85
X2.15Y-4.45
X3.35Y-3.15
X3.15Y-2.95
X2.55Y-4.35
X3.65Y-3.95
X3.15Y-3.05
X2.95Y-3.75
X3.75Y-4.25
X2.45Y-4.45
X3.65Y-4.15
X3.25Y-4.35
X2.95Y-2.75
X3.95Y-4.35
X3.15Y-3.35
X2.85Y-3.95
X3.05Y-2.95
X3.15Y-4.55
X3.55Y-4.15
X2.95Y-3.35
X2.85Y-2.65
X3.85Y-4.55
X3.35Y-4.25
X3.875Y-3.75
X2.75Y-4.35
X3.45Y-2.85
X3.15Y-4.05
X3.875Y-3.85
X3.25Y-3.45
X2.65Y-3.85
X2.25Y-3.35
X2.25Y-2.95
X3.55Y-2.75
X2.25Y-3.05
X3.55Y-2.85
X3.25Y-4.15
X2.25Y-3.65
X3.65Y-3.55
X3.45Y-4.15
X3.35Y-3.55
X3.05Y-4.25
X2.65Y-2.75
X3.65Y-3.05
X3.05Y-4.55
X3.35Y-3.65
X3.05Y-3.45
X2.65Y-4.35
X3.65Y-2.65
X3.15Y-3.45
X2.85Y-3.25
X3.75Y-3.55
X2.85Y-4.55
X3.65Y-3.75
X3.05Y-4.05
X2.85Y-4.05
X3.05Y-3.75
X2.85Y-3.55
X3.35Y-4.55
X2.95Y-3.15
X2.85Y-4.35
X3.35Y-4.15
X3.55Y-2.65
X3.875Y-3.55
X2.75Y-4.55
X3.45Y-3.05
X3.25Y-3.75
X2.65Y-3.65
X3.55Y-3.75
T3
X2.067Y-4.735
X2.167Y-4.735
X2.267Y-4.735
X2.367Y-4.735
X2.467Y-4.735
X2.567Y-4.735
X2.667Y-4.735
X2.767Y-4.735
X2.049Y-2.331
X2.049Y-2.431
X2.149Y-2.331
X2.149Y-2.431
X2.249Y-2.331
X2.249Y-2.431
X2.349Y-2.331
X2.349Y-2.431
X2.449Y-2.331
X2.449Y-2.431
X2.549Y-2.331
X2.549Y-2.431
X2.649Y-2.331
X2.649Y-2.431
X2.749Y-2.331
X2.749Y-2.431
X2.849Y-2.331
X2.849Y-2.431
X2.949Y-2.331
X2.949Y-2.431
X3.049Y-2.331
X3.049Y-2.431
X3.149Y-2.331
X3.149Y-2.431
X3.249Y-2.331
X3.249Y-2.431
X3.349Y-2.331
X3.349Y-2.431
X3.449Y-2.331
X3.449Y-2.431
X3.549Y-2.331
X3.549Y-2.431
X3.649Y-2.331
X3.649Y-2.431
X3.749Y-2.331
X3.749Y-2.431
X3.849Y-2.331
X3.849Y-2.431
X3.949Y-2.331
X3.949Y-2.431
X3.227Y-4.735
X3.327Y-4.735
X3.427Y-4.735
X3.527Y-4.735
X3.627Y-4.735
X3.727Y-4.735
X3.827Y-4.735
X3.927Y-4.735
T0
M30
