%TF.GenerationSoftware,KiCad,Pcbnew,(5.0.0)*%
%TF.CreationDate,2018-10-23T17:24:24+02:00*%
%TF.ProjectId,S80 Memory,533830204D656D6F72792E6B69636164,1.0*%
%TF.SameCoordinates,Original*%
%TF.FileFunction,Legend,Bot*%
%TF.FilePolarity,Positive*%
%FSLAX46Y46*%
G04 Gerber Fmt 4.6, Leading zero omitted, Abs format (unit mm)*
G04 Created by KiCad (PCBNEW (5.0.0)) date 10/23/18 17:24:24*
%MOMM*%
%LPD*%
G01*
G04 APERTURE LIST*
%ADD10C,0.150000*%
%ADD11C,0.250000*%
%ADD12C,0.010000*%
G04 APERTURE END LIST*
D10*
X164079510Y-138833634D02*
X164131891Y-138905062D01*
X164289034Y-138976491D01*
X164393796Y-138976491D01*
X164550939Y-138905062D01*
X164655700Y-138762205D01*
X164708081Y-138619348D01*
X164760462Y-138333634D01*
X164760462Y-138119348D01*
X164708081Y-137833634D01*
X164655700Y-137690777D01*
X164550939Y-137547920D01*
X164393796Y-137476491D01*
X164289034Y-137476491D01*
X164131891Y-137547920D01*
X164079510Y-137619348D01*
X163450939Y-138976491D02*
X163555700Y-138905062D01*
X163608081Y-138833634D01*
X163660462Y-138690777D01*
X163660462Y-138262205D01*
X163608081Y-138119348D01*
X163555700Y-138047920D01*
X163450939Y-137976491D01*
X163293796Y-137976491D01*
X163189034Y-138047920D01*
X163136653Y-138119348D01*
X163084272Y-138262205D01*
X163084272Y-138690777D01*
X163136653Y-138833634D01*
X163189034Y-138905062D01*
X163293796Y-138976491D01*
X163450939Y-138976491D01*
X162612843Y-137976491D02*
X162612843Y-139476491D01*
X162612843Y-138047920D02*
X162508081Y-137976491D01*
X162298558Y-137976491D01*
X162193796Y-138047920D01*
X162141415Y-138119348D01*
X162089034Y-138262205D01*
X162089034Y-138690777D01*
X162141415Y-138833634D01*
X162193796Y-138905062D01*
X162298558Y-138976491D01*
X162508081Y-138976491D01*
X162612843Y-138905062D01*
X161722367Y-137976491D02*
X161460462Y-138976491D01*
X161198558Y-137976491D02*
X161460462Y-138976491D01*
X161565224Y-139333634D01*
X161617605Y-139405062D01*
X161722367Y-139476491D01*
X160779510Y-138976491D02*
X160779510Y-137976491D01*
X160779510Y-138262205D02*
X160727129Y-138119348D01*
X160674748Y-138047920D01*
X160569986Y-137976491D01*
X160465224Y-137976491D01*
X160098558Y-138976491D02*
X160098558Y-137976491D01*
X160098558Y-137476491D02*
X160150939Y-137547920D01*
X160098558Y-137619348D01*
X160046177Y-137547920D01*
X160098558Y-137476491D01*
X160098558Y-137619348D01*
X159103320Y-137976491D02*
X159103320Y-139190777D01*
X159155700Y-139333634D01*
X159208081Y-139405062D01*
X159312843Y-139476491D01*
X159469986Y-139476491D01*
X159574748Y-139405062D01*
X159103320Y-138905062D02*
X159208081Y-138976491D01*
X159417605Y-138976491D01*
X159522367Y-138905062D01*
X159574748Y-138833634D01*
X159627129Y-138690777D01*
X159627129Y-138262205D01*
X159574748Y-138119348D01*
X159522367Y-138047920D01*
X159417605Y-137976491D01*
X159208081Y-137976491D01*
X159103320Y-138047920D01*
X158579510Y-138976491D02*
X158579510Y-137476491D01*
X158108081Y-138976491D02*
X158108081Y-138190777D01*
X158160462Y-138047920D01*
X158265224Y-137976491D01*
X158422367Y-137976491D01*
X158527129Y-138047920D01*
X158579510Y-138119348D01*
X157741415Y-137976491D02*
X157322367Y-137976491D01*
X157584272Y-137476491D02*
X157584272Y-138762205D01*
X157531891Y-138905062D01*
X157427129Y-138976491D01*
X157322367Y-138976491D01*
X155227129Y-137833634D02*
X155331891Y-137762205D01*
X155541415Y-137762205D01*
X155646177Y-137833634D01*
X155750939Y-137976491D01*
X155803320Y-138119348D01*
X155803320Y-138405062D01*
X155750939Y-138547920D01*
X155646177Y-138690777D01*
X155541415Y-138762205D01*
X155331891Y-138762205D01*
X155227129Y-138690777D01*
X155436653Y-137262205D02*
X155698558Y-137333634D01*
X155960462Y-137547920D01*
X156117605Y-137905062D01*
X156169986Y-138262205D01*
X156117605Y-138619348D01*
X155960462Y-138976491D01*
X155698558Y-139190777D01*
X155436653Y-139262205D01*
X155174748Y-139190777D01*
X154912843Y-138976491D01*
X154755700Y-138619348D01*
X154703320Y-138262205D01*
X154755700Y-137905062D01*
X154912843Y-137547920D01*
X155174748Y-137333634D01*
X155436653Y-137262205D01*
X153446177Y-137619348D02*
X153393796Y-137547920D01*
X153289034Y-137476491D01*
X153027129Y-137476491D01*
X152922367Y-137547920D01*
X152869986Y-137619348D01*
X152817605Y-137762205D01*
X152817605Y-137905062D01*
X152869986Y-138119348D01*
X153498558Y-138976491D01*
X152817605Y-138976491D01*
X152136653Y-137476491D02*
X152031891Y-137476491D01*
X151927129Y-137547920D01*
X151874748Y-137619348D01*
X151822367Y-137762205D01*
X151769986Y-138047920D01*
X151769986Y-138405062D01*
X151822367Y-138690777D01*
X151874748Y-138833634D01*
X151927129Y-138905062D01*
X152031891Y-138976491D01*
X152136653Y-138976491D01*
X152241415Y-138905062D01*
X152293796Y-138833634D01*
X152346177Y-138690777D01*
X152398558Y-138405062D01*
X152398558Y-138047920D01*
X152346177Y-137762205D01*
X152293796Y-137619348D01*
X152241415Y-137547920D01*
X152136653Y-137476491D01*
X150722367Y-138976491D02*
X151350939Y-138976491D01*
X151036653Y-138976491D02*
X151036653Y-137476491D01*
X151141415Y-137690777D01*
X151246177Y-137833634D01*
X151350939Y-137905062D01*
X150093796Y-138119348D02*
X150198558Y-138047920D01*
X150250939Y-137976491D01*
X150303320Y-137833634D01*
X150303320Y-137762205D01*
X150250939Y-137619348D01*
X150198558Y-137547920D01*
X150093796Y-137476491D01*
X149884272Y-137476491D01*
X149779510Y-137547920D01*
X149727129Y-137619348D01*
X149674748Y-137762205D01*
X149674748Y-137833634D01*
X149727129Y-137976491D01*
X149779510Y-138047920D01*
X149884272Y-138119348D01*
X150093796Y-138119348D01*
X150198558Y-138190777D01*
X150250939Y-138262205D01*
X150303320Y-138405062D01*
X150303320Y-138690777D01*
X150250939Y-138833634D01*
X150198558Y-138905062D01*
X150093796Y-138976491D01*
X149884272Y-138976491D01*
X149779510Y-138905062D01*
X149727129Y-138833634D01*
X149674748Y-138690777D01*
X149674748Y-138405062D01*
X149727129Y-138262205D01*
X149779510Y-138190777D01*
X149884272Y-138119348D01*
X148365224Y-138976491D02*
X148365224Y-137476491D01*
X148365224Y-138047920D02*
X148260462Y-137976491D01*
X148050939Y-137976491D01*
X147946177Y-138047920D01*
X147893796Y-138119348D01*
X147841415Y-138262205D01*
X147841415Y-138690777D01*
X147893796Y-138833634D01*
X147946177Y-138905062D01*
X148050939Y-138976491D01*
X148260462Y-138976491D01*
X148365224Y-138905062D01*
X147474748Y-137976491D02*
X147212843Y-138976491D01*
X146950939Y-137976491D02*
X147212843Y-138976491D01*
X147317605Y-139333634D01*
X147369986Y-139405062D01*
X147474748Y-139476491D01*
X145065224Y-138976491D02*
X145431891Y-138262205D01*
X145693796Y-138976491D02*
X145693796Y-137476491D01*
X145274748Y-137476491D01*
X145169986Y-137547920D01*
X145117605Y-137619348D01*
X145065224Y-137762205D01*
X145065224Y-137976491D01*
X145117605Y-138119348D01*
X145169986Y-138190777D01*
X145274748Y-138262205D01*
X145693796Y-138262205D01*
X143703320Y-138976491D02*
X143755700Y-138976491D01*
X143860462Y-138905062D01*
X144017605Y-138690777D01*
X144279510Y-138262205D01*
X144384272Y-138047920D01*
X144436653Y-137833634D01*
X144436653Y-137690777D01*
X144384272Y-137547920D01*
X144279510Y-137476491D01*
X144227129Y-137476491D01*
X144122367Y-137547920D01*
X144069986Y-137690777D01*
X144069986Y-137762205D01*
X144122367Y-137905062D01*
X144174748Y-137976491D01*
X144489034Y-138262205D01*
X144541415Y-138333634D01*
X144593796Y-138476491D01*
X144593796Y-138690777D01*
X144541415Y-138833634D01*
X144489034Y-138905062D01*
X144384272Y-138976491D01*
X144227129Y-138976491D01*
X144122367Y-138905062D01*
X144069986Y-138833634D01*
X143912843Y-138547920D01*
X143860462Y-138333634D01*
X143860462Y-138190777D01*
X142865224Y-138190777D02*
X143231891Y-138190777D01*
X143231891Y-138976491D02*
X143231891Y-137476491D01*
X142708081Y-137476491D01*
X141450939Y-138976491D02*
X141450939Y-137476491D01*
X141031891Y-137476491D01*
X140927129Y-137547920D01*
X140874748Y-137619348D01*
X140822367Y-137762205D01*
X140822367Y-137976491D01*
X140874748Y-138119348D01*
X140927129Y-138190777D01*
X141031891Y-138262205D01*
X141450939Y-138262205D01*
X140455700Y-137976491D02*
X140193796Y-138976491D01*
X139931891Y-137976491D02*
X140193796Y-138976491D01*
X140298558Y-139333634D01*
X140350939Y-139405062D01*
X140455700Y-139476491D01*
X139512843Y-137976491D02*
X139512843Y-138976491D01*
X139512843Y-138119348D02*
X139460462Y-138047920D01*
X139355700Y-137976491D01*
X139198558Y-137976491D01*
X139093796Y-138047920D01*
X139041415Y-138190777D01*
X139041415Y-138976491D01*
X138046177Y-138905062D02*
X138150939Y-138976491D01*
X138360462Y-138976491D01*
X138465224Y-138905062D01*
X138517605Y-138833634D01*
X138569986Y-138690777D01*
X138569986Y-138262205D01*
X138517605Y-138119348D01*
X138465224Y-138047920D01*
X138360462Y-137976491D01*
X138150939Y-137976491D01*
X138046177Y-138047920D01*
X137574748Y-138976491D02*
X137574748Y-137476491D01*
X137469986Y-138405062D02*
X137155700Y-138976491D01*
X137155700Y-137976491D02*
X137574748Y-138547920D01*
X136265224Y-138905062D02*
X136369986Y-138976491D01*
X136579510Y-138976491D01*
X136684272Y-138905062D01*
X136736653Y-138762205D01*
X136736653Y-138190777D01*
X136684272Y-138047920D01*
X136579510Y-137976491D01*
X136369986Y-137976491D01*
X136265224Y-138047920D01*
X136212843Y-138190777D01*
X136212843Y-138333634D01*
X136736653Y-138476491D01*
X135584272Y-138976491D02*
X135689034Y-138905062D01*
X135741415Y-138762205D01*
X135741415Y-137476491D01*
X135217605Y-138905062D02*
X135112843Y-138976491D01*
X134903320Y-138976491D01*
X134798558Y-138905062D01*
X134746177Y-138762205D01*
X134746177Y-138690777D01*
X134798558Y-138547920D01*
X134903320Y-138476491D01*
X135060462Y-138476491D01*
X135165224Y-138405062D01*
X135217605Y-138262205D01*
X135217605Y-138190777D01*
X135165224Y-138047920D01*
X135060462Y-137976491D01*
X134903320Y-137976491D01*
X134798558Y-138047920D01*
D11*
X172879038Y-71175285D02*
X172593323Y-71318142D01*
X172117133Y-71318142D01*
X171926657Y-71175285D01*
X171831419Y-71032428D01*
X171736180Y-70746714D01*
X171736180Y-70461000D01*
X171831419Y-70175285D01*
X171926657Y-70032428D01*
X172117133Y-69889571D01*
X172498085Y-69746714D01*
X172688561Y-69603857D01*
X172783800Y-69461000D01*
X172879038Y-69175285D01*
X172879038Y-68889571D01*
X172783800Y-68603857D01*
X172688561Y-68461000D01*
X172498085Y-68318142D01*
X172021895Y-68318142D01*
X171736180Y-68461000D01*
X171164752Y-69318142D02*
X170402847Y-69318142D01*
X170879038Y-68318142D02*
X170879038Y-70889571D01*
X170783800Y-71175285D01*
X170593323Y-71318142D01*
X170402847Y-71318142D01*
X168879038Y-71318142D02*
X168879038Y-69746714D01*
X168974276Y-69461000D01*
X169164752Y-69318142D01*
X169545704Y-69318142D01*
X169736180Y-69461000D01*
X168879038Y-71175285D02*
X169069514Y-71318142D01*
X169545704Y-71318142D01*
X169736180Y-71175285D01*
X169831419Y-70889571D01*
X169831419Y-70603857D01*
X169736180Y-70318142D01*
X169545704Y-70175285D01*
X169069514Y-70175285D01*
X168879038Y-70032428D01*
X167069514Y-71175285D02*
X167259990Y-71318142D01*
X167640942Y-71318142D01*
X167831419Y-71175285D01*
X167926657Y-71032428D01*
X168021895Y-70746714D01*
X168021895Y-69889571D01*
X167926657Y-69603857D01*
X167831419Y-69461000D01*
X167640942Y-69318142D01*
X167259990Y-69318142D01*
X167069514Y-69461000D01*
X166212371Y-71318142D02*
X166212371Y-68318142D01*
X166021895Y-70175285D02*
X165450466Y-71318142D01*
X165450466Y-69318142D02*
X166212371Y-70461000D01*
X163736180Y-71318142D02*
X163736180Y-69746714D01*
X163831419Y-69461000D01*
X164021895Y-69318142D01*
X164402847Y-69318142D01*
X164593323Y-69461000D01*
X163736180Y-71175285D02*
X163926657Y-71318142D01*
X164402847Y-71318142D01*
X164593323Y-71175285D01*
X164688561Y-70889571D01*
X164688561Y-70603857D01*
X164593323Y-70318142D01*
X164402847Y-70175285D01*
X163926657Y-70175285D01*
X163736180Y-70032428D01*
X162783800Y-71318142D02*
X162783800Y-68318142D01*
X162783800Y-69461000D02*
X162593323Y-69318142D01*
X162212371Y-69318142D01*
X162021895Y-69461000D01*
X161926657Y-69603857D01*
X161831419Y-69889571D01*
X161831419Y-70746714D01*
X161926657Y-71032428D01*
X162021895Y-71175285D01*
X162212371Y-71318142D01*
X162593323Y-71318142D01*
X162783800Y-71175285D01*
X160688561Y-71318142D02*
X160879038Y-71175285D01*
X160974276Y-70889571D01*
X160974276Y-68318142D01*
X159164752Y-71175285D02*
X159355228Y-71318142D01*
X159736180Y-71318142D01*
X159926657Y-71175285D01*
X160021895Y-70889571D01*
X160021895Y-69746714D01*
X159926657Y-69461000D01*
X159736180Y-69318142D01*
X159355228Y-69318142D01*
X159164752Y-69461000D01*
X159069514Y-69746714D01*
X159069514Y-70032428D01*
X160021895Y-70318142D01*
X156879038Y-68318142D02*
X155545704Y-68318142D01*
X156879038Y-71318142D01*
X155545704Y-71318142D01*
X154498085Y-69603857D02*
X154688561Y-69461000D01*
X154783800Y-69318142D01*
X154879038Y-69032428D01*
X154879038Y-68889571D01*
X154783800Y-68603857D01*
X154688561Y-68461000D01*
X154498085Y-68318142D01*
X154117133Y-68318142D01*
X153926657Y-68461000D01*
X153831419Y-68603857D01*
X153736180Y-68889571D01*
X153736180Y-69032428D01*
X153831419Y-69318142D01*
X153926657Y-69461000D01*
X154117133Y-69603857D01*
X154498085Y-69603857D01*
X154688561Y-69746714D01*
X154783800Y-69889571D01*
X154879038Y-70175285D01*
X154879038Y-70746714D01*
X154783800Y-71032428D01*
X154688561Y-71175285D01*
X154498085Y-71318142D01*
X154117133Y-71318142D01*
X153926657Y-71175285D01*
X153831419Y-71032428D01*
X153736180Y-70746714D01*
X153736180Y-70175285D01*
X153831419Y-69889571D01*
X153926657Y-69746714D01*
X154117133Y-69603857D01*
X152498085Y-68318142D02*
X152307609Y-68318142D01*
X152117133Y-68461000D01*
X152021895Y-68603857D01*
X151926657Y-68889571D01*
X151831419Y-69461000D01*
X151831419Y-70175285D01*
X151926657Y-70746714D01*
X152021895Y-71032428D01*
X152117133Y-71175285D01*
X152307609Y-71318142D01*
X152498085Y-71318142D01*
X152688561Y-71175285D01*
X152783800Y-71032428D01*
X152879038Y-70746714D01*
X152974276Y-70175285D01*
X152974276Y-69461000D01*
X152879038Y-68889571D01*
X152783800Y-68603857D01*
X152688561Y-68461000D01*
X152498085Y-68318142D01*
X148307609Y-71318142D02*
X148974276Y-69889571D01*
X149450466Y-71318142D02*
X149450466Y-68318142D01*
X148688561Y-68318142D01*
X148498085Y-68461000D01*
X148402847Y-68603857D01*
X148307609Y-68889571D01*
X148307609Y-69318142D01*
X148402847Y-69603857D01*
X148498085Y-69746714D01*
X148688561Y-69889571D01*
X149450466Y-69889571D01*
X146688561Y-71175285D02*
X146879038Y-71318142D01*
X147259990Y-71318142D01*
X147450466Y-71175285D01*
X147545704Y-70889571D01*
X147545704Y-69746714D01*
X147450466Y-69461000D01*
X147259990Y-69318142D01*
X146879038Y-69318142D01*
X146688561Y-69461000D01*
X146593323Y-69746714D01*
X146593323Y-70032428D01*
X147545704Y-70318142D01*
X146021895Y-69318142D02*
X145259990Y-69318142D01*
X145736180Y-68318142D02*
X145736180Y-70889571D01*
X145640942Y-71175285D01*
X145450466Y-71318142D01*
X145259990Y-71318142D01*
X144593323Y-71318142D02*
X144593323Y-69318142D01*
X144593323Y-69889571D02*
X144498085Y-69603857D01*
X144402847Y-69461000D01*
X144212371Y-69318142D01*
X144021895Y-69318142D01*
X143069514Y-71318142D02*
X143259990Y-71175285D01*
X143355228Y-71032428D01*
X143450466Y-70746714D01*
X143450466Y-69889571D01*
X143355228Y-69603857D01*
X143259990Y-69461000D01*
X143069514Y-69318142D01*
X142783800Y-69318142D01*
X142593323Y-69461000D01*
X142498085Y-69603857D01*
X142402847Y-69889571D01*
X142402847Y-70746714D01*
X142498085Y-71032428D01*
X142593323Y-71175285D01*
X142783800Y-71318142D01*
X143069514Y-71318142D01*
X138879038Y-71032428D02*
X138974276Y-71175285D01*
X139259990Y-71318142D01*
X139450466Y-71318142D01*
X139736180Y-71175285D01*
X139926657Y-70889571D01*
X140021895Y-70603857D01*
X140117133Y-70032428D01*
X140117133Y-69603857D01*
X140021895Y-69032428D01*
X139926657Y-68746714D01*
X139736180Y-68461000D01*
X139450466Y-68318142D01*
X139259990Y-68318142D01*
X138974276Y-68461000D01*
X138879038Y-68603857D01*
X137736180Y-71318142D02*
X137926657Y-71175285D01*
X138021895Y-71032428D01*
X138117133Y-70746714D01*
X138117133Y-69889571D01*
X138021895Y-69603857D01*
X137926657Y-69461000D01*
X137736180Y-69318142D01*
X137450466Y-69318142D01*
X137259990Y-69461000D01*
X137164752Y-69603857D01*
X137069514Y-69889571D01*
X137069514Y-70746714D01*
X137164752Y-71032428D01*
X137259990Y-71175285D01*
X137450466Y-71318142D01*
X137736180Y-71318142D01*
X136212371Y-71318142D02*
X136212371Y-69318142D01*
X136212371Y-69603857D02*
X136117133Y-69461000D01*
X135926657Y-69318142D01*
X135640942Y-69318142D01*
X135450466Y-69461000D01*
X135355228Y-69746714D01*
X135355228Y-71318142D01*
X135355228Y-69746714D02*
X135259990Y-69461000D01*
X135069514Y-69318142D01*
X134783800Y-69318142D01*
X134593323Y-69461000D01*
X134498085Y-69746714D01*
X134498085Y-71318142D01*
X133545704Y-69318142D02*
X133545704Y-72318142D01*
X133545704Y-69461000D02*
X133355228Y-69318142D01*
X132974276Y-69318142D01*
X132783800Y-69461000D01*
X132688561Y-69603857D01*
X132593323Y-69889571D01*
X132593323Y-70746714D01*
X132688561Y-71032428D01*
X132783800Y-71175285D01*
X132974276Y-71318142D01*
X133355228Y-71318142D01*
X133545704Y-71175285D01*
X130879038Y-69318142D02*
X130879038Y-71318142D01*
X131736180Y-69318142D02*
X131736180Y-70889571D01*
X131640942Y-71175285D01*
X131450466Y-71318142D01*
X131164752Y-71318142D01*
X130974276Y-71175285D01*
X130879038Y-71032428D01*
X130212371Y-69318142D02*
X129450466Y-69318142D01*
X129926657Y-68318142D02*
X129926657Y-70889571D01*
X129831419Y-71175285D01*
X129640942Y-71318142D01*
X129450466Y-71318142D01*
X128021895Y-71175285D02*
X128212371Y-71318142D01*
X128593323Y-71318142D01*
X128783800Y-71175285D01*
X128879038Y-70889571D01*
X128879038Y-69746714D01*
X128783800Y-69461000D01*
X128593323Y-69318142D01*
X128212371Y-69318142D01*
X128021895Y-69461000D01*
X127926657Y-69746714D01*
X127926657Y-70032428D01*
X128879038Y-70318142D01*
X127069514Y-71318142D02*
X127069514Y-69318142D01*
X127069514Y-69889571D02*
X126974276Y-69603857D01*
X126879038Y-69461000D01*
X126688561Y-69318142D01*
X126498085Y-69318142D01*
D10*
X174700523Y-79461619D02*
X174071952Y-79461619D01*
X174386238Y-80561619D02*
X174386238Y-79461619D01*
X173705285Y-80561619D02*
X173705285Y-79461619D01*
X173233857Y-80561619D02*
X173233857Y-79985428D01*
X173286238Y-79880666D01*
X173391000Y-79828285D01*
X173548142Y-79828285D01*
X173652904Y-79880666D01*
X173705285Y-79933047D01*
X172710047Y-80561619D02*
X172710047Y-79828285D01*
X172710047Y-79461619D02*
X172762428Y-79514000D01*
X172710047Y-79566380D01*
X172657666Y-79514000D01*
X172710047Y-79461619D01*
X172710047Y-79566380D01*
X172238619Y-80509238D02*
X172133857Y-80561619D01*
X171924333Y-80561619D01*
X171819571Y-80509238D01*
X171767190Y-80404476D01*
X171767190Y-80352095D01*
X171819571Y-80247333D01*
X171924333Y-80194952D01*
X172081476Y-80194952D01*
X172186238Y-80142571D01*
X172238619Y-80037809D01*
X172238619Y-79985428D01*
X172186238Y-79880666D01*
X172081476Y-79828285D01*
X171924333Y-79828285D01*
X171819571Y-79880666D01*
X170457666Y-80561619D02*
X170457666Y-79461619D01*
X170038619Y-79461619D01*
X169933857Y-79514000D01*
X169881476Y-79566380D01*
X169829095Y-79671142D01*
X169829095Y-79828285D01*
X169881476Y-79933047D01*
X169933857Y-79985428D01*
X170038619Y-80037809D01*
X170457666Y-80037809D01*
X168729095Y-80456857D02*
X168781476Y-80509238D01*
X168938619Y-80561619D01*
X169043380Y-80561619D01*
X169200523Y-80509238D01*
X169305285Y-80404476D01*
X169357666Y-80299714D01*
X169410047Y-80090190D01*
X169410047Y-79933047D01*
X169357666Y-79723523D01*
X169305285Y-79618761D01*
X169200523Y-79514000D01*
X169043380Y-79461619D01*
X168938619Y-79461619D01*
X168781476Y-79514000D01*
X168729095Y-79566380D01*
X167891000Y-79985428D02*
X167733857Y-80037809D01*
X167681476Y-80090190D01*
X167629095Y-80194952D01*
X167629095Y-80352095D01*
X167681476Y-80456857D01*
X167733857Y-80509238D01*
X167838619Y-80561619D01*
X168257666Y-80561619D01*
X168257666Y-79461619D01*
X167891000Y-79461619D01*
X167786238Y-79514000D01*
X167733857Y-79566380D01*
X167681476Y-79671142D01*
X167681476Y-79775904D01*
X167733857Y-79880666D01*
X167786238Y-79933047D01*
X167891000Y-79985428D01*
X168257666Y-79985428D01*
X166319571Y-80561619D02*
X166319571Y-79828285D01*
X166319571Y-79461619D02*
X166371952Y-79514000D01*
X166319571Y-79566380D01*
X166267190Y-79514000D01*
X166319571Y-79461619D01*
X166319571Y-79566380D01*
X165848142Y-80509238D02*
X165743380Y-80561619D01*
X165533857Y-80561619D01*
X165429095Y-80509238D01*
X165376714Y-80404476D01*
X165376714Y-80352095D01*
X165429095Y-80247333D01*
X165533857Y-80194952D01*
X165691000Y-80194952D01*
X165795761Y-80142571D01*
X165848142Y-80037809D01*
X165848142Y-79985428D01*
X165795761Y-79880666D01*
X165691000Y-79828285D01*
X165533857Y-79828285D01*
X165429095Y-79880666D01*
X164224333Y-79828285D02*
X163805285Y-79828285D01*
X164067190Y-80561619D02*
X164067190Y-79618761D01*
X164014809Y-79514000D01*
X163910047Y-79461619D01*
X163805285Y-79461619D01*
X162967190Y-80561619D02*
X162967190Y-79985428D01*
X163019571Y-79880666D01*
X163124333Y-79828285D01*
X163333857Y-79828285D01*
X163438619Y-79880666D01*
X162967190Y-80509238D02*
X163071952Y-80561619D01*
X163333857Y-80561619D01*
X163438619Y-80509238D01*
X163491000Y-80404476D01*
X163491000Y-80299714D01*
X163438619Y-80194952D01*
X163333857Y-80142571D01*
X163071952Y-80142571D01*
X162967190Y-80090190D01*
X162443380Y-80561619D02*
X162443380Y-79461619D01*
X162443380Y-79880666D02*
X162338619Y-79828285D01*
X162129095Y-79828285D01*
X162024333Y-79880666D01*
X161971952Y-79933047D01*
X161919571Y-80037809D01*
X161919571Y-80352095D01*
X161971952Y-80456857D01*
X162024333Y-80509238D01*
X162129095Y-80561619D01*
X162338619Y-80561619D01*
X162443380Y-80509238D01*
X161448142Y-80561619D02*
X161448142Y-79828285D01*
X161448142Y-80037809D02*
X161395761Y-79933047D01*
X161343380Y-79880666D01*
X161238619Y-79828285D01*
X161133857Y-79828285D01*
X160767190Y-80561619D02*
X160767190Y-79828285D01*
X160767190Y-79461619D02*
X160819571Y-79514000D01*
X160767190Y-79566380D01*
X160714809Y-79514000D01*
X160767190Y-79461619D01*
X160767190Y-79566380D01*
X159771952Y-80509238D02*
X159876714Y-80561619D01*
X160086238Y-80561619D01*
X160191000Y-80509238D01*
X160243380Y-80456857D01*
X160295761Y-80352095D01*
X160295761Y-80037809D01*
X160243380Y-79933047D01*
X160191000Y-79880666D01*
X160086238Y-79828285D01*
X159876714Y-79828285D01*
X159771952Y-79880666D01*
X158829095Y-80561619D02*
X158829095Y-79985428D01*
X158881476Y-79880666D01*
X158986238Y-79828285D01*
X159195761Y-79828285D01*
X159300523Y-79880666D01*
X158829095Y-80509238D02*
X158933857Y-80561619D01*
X159195761Y-80561619D01*
X159300523Y-80509238D01*
X159352904Y-80404476D01*
X159352904Y-80299714D01*
X159300523Y-80194952D01*
X159195761Y-80142571D01*
X158933857Y-80142571D01*
X158829095Y-80090190D01*
X158462428Y-79828285D02*
X158043380Y-79828285D01*
X158305285Y-79461619D02*
X158305285Y-80404476D01*
X158252904Y-80509238D01*
X158148142Y-80561619D01*
X158043380Y-80561619D01*
X157257666Y-80509238D02*
X157362428Y-80561619D01*
X157571952Y-80561619D01*
X157676714Y-80509238D01*
X157729095Y-80404476D01*
X157729095Y-79985428D01*
X157676714Y-79880666D01*
X157571952Y-79828285D01*
X157362428Y-79828285D01*
X157257666Y-79880666D01*
X157205285Y-79985428D01*
X157205285Y-80090190D01*
X157729095Y-80194952D01*
X156262428Y-80561619D02*
X156262428Y-79461619D01*
X156262428Y-80509238D02*
X156367190Y-80561619D01*
X156576714Y-80561619D01*
X156681476Y-80509238D01*
X156733857Y-80456857D01*
X156786238Y-80352095D01*
X156786238Y-80037809D01*
X156733857Y-79933047D01*
X156681476Y-79880666D01*
X156576714Y-79828285D01*
X156367190Y-79828285D01*
X156262428Y-79880666D01*
X154900523Y-80561619D02*
X154900523Y-79461619D01*
X154900523Y-79880666D02*
X154795761Y-79828285D01*
X154586238Y-79828285D01*
X154481476Y-79880666D01*
X154429095Y-79933047D01*
X154376714Y-80037809D01*
X154376714Y-80352095D01*
X154429095Y-80456857D01*
X154481476Y-80509238D01*
X154586238Y-80561619D01*
X154795761Y-80561619D01*
X154900523Y-80509238D01*
X154010047Y-79828285D02*
X153748142Y-80561619D01*
X153486238Y-79828285D02*
X153748142Y-80561619D01*
X153852904Y-80823523D01*
X153905285Y-80875904D01*
X154010047Y-80928285D01*
X151914809Y-79461619D02*
X151914809Y-80247333D01*
X151967190Y-80404476D01*
X152071952Y-80509238D01*
X152229095Y-80561619D01*
X152333857Y-80561619D01*
X150867190Y-80561619D02*
X151391000Y-80561619D01*
X151391000Y-79461619D01*
X149871952Y-80456857D02*
X149924333Y-80509238D01*
X150081476Y-80561619D01*
X150186238Y-80561619D01*
X150343380Y-80509238D01*
X150448142Y-80404476D01*
X150500523Y-80299714D01*
X150552904Y-80090190D01*
X150552904Y-79933047D01*
X150500523Y-79723523D01*
X150448142Y-79618761D01*
X150343380Y-79514000D01*
X150186238Y-79461619D01*
X150081476Y-79461619D01*
X149924333Y-79514000D01*
X149871952Y-79566380D01*
X149400523Y-80561619D02*
X149400523Y-79461619D01*
X148981476Y-79461619D01*
X148876714Y-79514000D01*
X148824333Y-79566380D01*
X148771952Y-79671142D01*
X148771952Y-79828285D01*
X148824333Y-79933047D01*
X148876714Y-79985428D01*
X148981476Y-80037809D01*
X149400523Y-80037809D01*
X147671952Y-80456857D02*
X147724333Y-80509238D01*
X147881476Y-80561619D01*
X147986238Y-80561619D01*
X148143380Y-80509238D01*
X148248142Y-80404476D01*
X148300523Y-80299714D01*
X148352904Y-80090190D01*
X148352904Y-79933047D01*
X148300523Y-79723523D01*
X148248142Y-79618761D01*
X148143380Y-79514000D01*
X147986238Y-79461619D01*
X147881476Y-79461619D01*
X147724333Y-79514000D01*
X147671952Y-79566380D01*
X146833857Y-79985428D02*
X146676714Y-80037809D01*
X146624333Y-80090190D01*
X146571952Y-80194952D01*
X146571952Y-80352095D01*
X146624333Y-80456857D01*
X146676714Y-80509238D01*
X146781476Y-80561619D01*
X147200523Y-80561619D01*
X147200523Y-79461619D01*
X146833857Y-79461619D01*
X146729095Y-79514000D01*
X146676714Y-79566380D01*
X146624333Y-79671142D01*
X146624333Y-79775904D01*
X146676714Y-79880666D01*
X146729095Y-79933047D01*
X146833857Y-79985428D01*
X147200523Y-79985428D01*
X144948142Y-80980666D02*
X145000523Y-80928285D01*
X145105285Y-80771142D01*
X145157666Y-80666380D01*
X145210047Y-80509238D01*
X145262428Y-80247333D01*
X145262428Y-80037809D01*
X145210047Y-79775904D01*
X145157666Y-79618761D01*
X145105285Y-79514000D01*
X145000523Y-79356857D01*
X144948142Y-79304476D01*
X144529095Y-80561619D02*
X144529095Y-79461619D01*
X144529095Y-79880666D02*
X144424333Y-79828285D01*
X144214809Y-79828285D01*
X144110047Y-79880666D01*
X144057666Y-79933047D01*
X144005285Y-80037809D01*
X144005285Y-80352095D01*
X144057666Y-80456857D01*
X144110047Y-80509238D01*
X144214809Y-80561619D01*
X144424333Y-80561619D01*
X144529095Y-80509238D01*
X143062428Y-80561619D02*
X143062428Y-79985428D01*
X143114809Y-79880666D01*
X143219571Y-79828285D01*
X143429095Y-79828285D01*
X143533857Y-79880666D01*
X143062428Y-80509238D02*
X143167190Y-80561619D01*
X143429095Y-80561619D01*
X143533857Y-80509238D01*
X143586238Y-80404476D01*
X143586238Y-80299714D01*
X143533857Y-80194952D01*
X143429095Y-80142571D01*
X143167190Y-80142571D01*
X143062428Y-80090190D01*
X142695761Y-79828285D02*
X142276714Y-79828285D01*
X142538619Y-79461619D02*
X142538619Y-80404476D01*
X142486238Y-80509238D01*
X142381476Y-80561619D01*
X142276714Y-80561619D01*
X141438619Y-80509238D02*
X141543380Y-80561619D01*
X141752904Y-80561619D01*
X141857666Y-80509238D01*
X141910047Y-80456857D01*
X141962428Y-80352095D01*
X141962428Y-80037809D01*
X141910047Y-79933047D01*
X141857666Y-79880666D01*
X141752904Y-79828285D01*
X141543380Y-79828285D01*
X141438619Y-79880666D01*
X140967190Y-80561619D02*
X140967190Y-79461619D01*
X140495761Y-80561619D02*
X140495761Y-79985428D01*
X140548142Y-79880666D01*
X140652904Y-79828285D01*
X140810047Y-79828285D01*
X140914809Y-79880666D01*
X140967190Y-79933047D01*
X139133857Y-79828285D02*
X139133857Y-80561619D01*
X139133857Y-79933047D02*
X139081476Y-79880666D01*
X138976714Y-79828285D01*
X138819571Y-79828285D01*
X138714809Y-79880666D01*
X138662428Y-79985428D01*
X138662428Y-80561619D01*
X137981476Y-79461619D02*
X138086238Y-79514000D01*
X138138619Y-79618761D01*
X138086238Y-79723523D01*
X137981476Y-79775904D01*
X137876714Y-79723523D01*
X137824333Y-79618761D01*
X137876714Y-79514000D01*
X137981476Y-79461619D01*
X136148142Y-79461619D02*
X136148142Y-80247333D01*
X136200523Y-80404476D01*
X136305285Y-80509238D01*
X136462428Y-80561619D01*
X136567190Y-80561619D01*
X135100523Y-80561619D02*
X135624333Y-80561619D01*
X135624333Y-79461619D01*
X134105285Y-80456857D02*
X134157666Y-80509238D01*
X134314809Y-80561619D01*
X134419571Y-80561619D01*
X134576714Y-80509238D01*
X134681476Y-80404476D01*
X134733857Y-80299714D01*
X134786238Y-80090190D01*
X134786238Y-79933047D01*
X134733857Y-79723523D01*
X134681476Y-79618761D01*
X134576714Y-79514000D01*
X134419571Y-79461619D01*
X134314809Y-79461619D01*
X134157666Y-79514000D01*
X134105285Y-79566380D01*
X133319571Y-79461619D02*
X133319571Y-80247333D01*
X133371952Y-80404476D01*
X133476714Y-80509238D01*
X133633857Y-80561619D01*
X133738619Y-80561619D01*
X132271952Y-80561619D02*
X132795761Y-80561619D01*
X132795761Y-79461619D01*
X131276714Y-80456857D02*
X131329095Y-80509238D01*
X131486238Y-80561619D01*
X131590999Y-80561619D01*
X131748142Y-80509238D01*
X131852904Y-80404476D01*
X131905285Y-80299714D01*
X131957666Y-80090190D01*
X131957666Y-79933047D01*
X131905285Y-79723523D01*
X131852904Y-79618761D01*
X131748142Y-79514000D01*
X131590999Y-79461619D01*
X131486238Y-79461619D01*
X131329095Y-79514000D01*
X131276714Y-79566380D01*
X130490999Y-79461619D02*
X130490999Y-80247333D01*
X130543380Y-80404476D01*
X130648142Y-80509238D01*
X130805285Y-80561619D01*
X130910047Y-80561619D01*
X129443380Y-80561619D02*
X129967190Y-80561619D01*
X129967190Y-79461619D01*
X128448142Y-80456857D02*
X128500523Y-80509238D01*
X128657666Y-80561619D01*
X128762428Y-80561619D01*
X128919571Y-80509238D01*
X129024333Y-80404476D01*
X129076714Y-80299714D01*
X129129095Y-80090190D01*
X129129095Y-79933047D01*
X129076714Y-79723523D01*
X129024333Y-79618761D01*
X128919571Y-79514000D01*
X128762428Y-79461619D01*
X128657666Y-79461619D01*
X128500523Y-79514000D01*
X128448142Y-79566380D01*
X127662428Y-79461619D02*
X127662428Y-80247333D01*
X127714809Y-80404476D01*
X127819571Y-80509238D01*
X127976714Y-80561619D01*
X128081476Y-80561619D01*
X126614809Y-80561619D02*
X127138619Y-80561619D01*
X127138619Y-79461619D01*
X125619571Y-80456857D02*
X125671952Y-80509238D01*
X125829095Y-80561619D01*
X125933857Y-80561619D01*
X126090999Y-80509238D01*
X126195761Y-80404476D01*
X126248142Y-80299714D01*
X126300523Y-80090190D01*
X126300523Y-79933047D01*
X126248142Y-79723523D01*
X126195761Y-79618761D01*
X126090999Y-79514000D01*
X125933857Y-79461619D01*
X125829095Y-79461619D01*
X125671952Y-79514000D01*
X125619571Y-79566380D01*
X125252904Y-80980666D02*
X125200523Y-80928285D01*
X125095761Y-80771142D01*
X125043380Y-80666380D01*
X124990999Y-80509238D01*
X124938619Y-80247333D01*
X124938619Y-80037809D01*
X124990999Y-79775904D01*
X125043380Y-79618761D01*
X125095761Y-79514000D01*
X125200523Y-79356857D01*
X125252904Y-79304476D01*
D12*
G36*
X123164094Y-85615062D02*
X122901519Y-85798190D01*
X122717995Y-86007698D01*
X122671451Y-86204731D01*
X122754694Y-86505292D01*
X122843560Y-86732704D01*
X123038923Y-87145474D01*
X123362618Y-87747679D01*
X123777392Y-88475739D01*
X124245994Y-89266073D01*
X124731170Y-90055103D01*
X125195668Y-90779247D01*
X125351399Y-91012919D01*
X126007443Y-91800652D01*
X126828411Y-92515884D01*
X127597193Y-93000578D01*
X127964612Y-93139791D01*
X128535589Y-93302581D01*
X129215331Y-93463319D01*
X129590476Y-93539524D01*
X130280859Y-93685539D01*
X130904900Y-93843283D01*
X131371691Y-93988600D01*
X131528651Y-94054572D01*
X132033516Y-94424258D01*
X132631765Y-95045911D01*
X133305919Y-95890170D01*
X134038498Y-96927677D01*
X134812021Y-98129074D01*
X135609009Y-99465001D01*
X136411981Y-100906100D01*
X137203460Y-102423013D01*
X137965963Y-103986380D01*
X138682012Y-105566843D01*
X139334126Y-107135043D01*
X139368540Y-107222262D01*
X140108501Y-109188218D01*
X140762341Y-111097576D01*
X141325129Y-112926355D01*
X141791932Y-114650577D01*
X142157822Y-116246263D01*
X142417866Y-117689435D01*
X142567134Y-118956113D01*
X142600695Y-120022320D01*
X142513617Y-120864076D01*
X142300971Y-121457403D01*
X142297142Y-121463729D01*
X141845956Y-121929566D01*
X141207084Y-122186394D01*
X140405865Y-122239807D01*
X139467636Y-122095399D01*
X138417736Y-121758766D01*
X137281503Y-121235502D01*
X136084275Y-120531201D01*
X135162907Y-119888532D01*
X134098918Y-119066194D01*
X132898491Y-118087708D01*
X131634560Y-117015090D01*
X130380061Y-115910359D01*
X129207930Y-114835531D01*
X129092517Y-114726851D01*
X128451341Y-114137935D01*
X127879675Y-113644122D01*
X127418410Y-113278587D01*
X127108437Y-113074503D01*
X127017133Y-113043095D01*
X126685960Y-113176618D01*
X126435270Y-113507642D01*
X126327131Y-113931847D01*
X126350159Y-114164147D01*
X126509588Y-114428955D01*
X126879584Y-114852602D01*
X127430927Y-115409705D01*
X128134401Y-116074881D01*
X128960785Y-116822749D01*
X129880862Y-117627926D01*
X130865414Y-118465029D01*
X131885221Y-119308677D01*
X132911065Y-120133487D01*
X133913727Y-120914076D01*
X134863990Y-121625062D01*
X135301443Y-121940208D01*
X137040290Y-123069533D01*
X138727285Y-123940889D01*
X140419882Y-124578240D01*
X142175534Y-125005550D01*
X142943976Y-125127938D01*
X143742583Y-125226996D01*
X144331116Y-125268157D01*
X144796617Y-125249690D01*
X145226133Y-125169861D01*
X145553812Y-125075973D01*
X146344644Y-124764203D01*
X146939301Y-124358023D01*
X147389636Y-123800007D01*
X147747502Y-123032731D01*
X147945533Y-122427261D01*
X148138088Y-121497057D01*
X148187785Y-120472706D01*
X148089857Y-119325446D01*
X147839538Y-118026513D01*
X147432063Y-116547142D01*
X146862665Y-114858570D01*
X146553493Y-114025833D01*
X146247068Y-113251955D01*
X145869944Y-112347477D01*
X145459319Y-111397280D01*
X145052388Y-110486242D01*
X144686347Y-109699245D01*
X144433337Y-109187738D01*
X144154868Y-108637673D01*
X143875352Y-108065402D01*
X143833954Y-107978214D01*
X143638368Y-107588376D01*
X143340322Y-107023249D01*
X142986545Y-106370558D01*
X142746738Y-105937143D01*
X142356999Y-105238132D01*
X141965847Y-104535026D01*
X141631073Y-103931777D01*
X141485884Y-103669286D01*
X141174678Y-103133418D01*
X140857454Y-102630740D01*
X140675959Y-102369895D01*
X140450207Y-102045318D01*
X140330699Y-101827398D01*
X140325000Y-101801817D01*
X140244418Y-101641903D01*
X140027721Y-101293550D01*
X139712483Y-100815840D01*
X139493453Y-100494285D01*
X139136708Y-99963323D01*
X138856538Y-99521554D01*
X138690753Y-99229963D01*
X138661905Y-99153198D01*
X138558238Y-98956564D01*
X138425754Y-98823418D01*
X138221301Y-98598651D01*
X137923776Y-98208211D01*
X137637487Y-97795632D01*
X137175156Y-97192259D01*
X136494024Y-96437492D01*
X135619758Y-95557894D01*
X134578026Y-94580026D01*
X134201786Y-94240209D01*
X133597024Y-93698896D01*
X134504167Y-93697965D01*
X134850578Y-93693492D01*
X135461912Y-93681107D01*
X136300837Y-93661742D01*
X137330024Y-93636328D01*
X138512143Y-93605798D01*
X139809865Y-93571084D01*
X141185859Y-93533117D01*
X141789388Y-93516106D01*
X143481541Y-93470561D01*
X144889613Y-93438307D01*
X146031609Y-93419308D01*
X146925536Y-93413531D01*
X147589399Y-93420939D01*
X148041204Y-93441499D01*
X148298958Y-93475175D01*
X148370141Y-93503380D01*
X148549796Y-93748967D01*
X148739574Y-94145440D01*
X148778346Y-94248113D01*
X148898657Y-94531771D01*
X149135873Y-95045741D01*
X149470520Y-95750455D01*
X149883128Y-96606346D01*
X150354223Y-97573844D01*
X150864334Y-98613383D01*
X151393988Y-99685393D01*
X151923713Y-100750306D01*
X152434036Y-101768554D01*
X152905487Y-102700569D01*
X153318592Y-103506782D01*
X153600676Y-104047262D01*
X154140600Y-105057212D01*
X154709243Y-106099919D01*
X155282873Y-107133776D01*
X155837758Y-108117176D01*
X156350167Y-109008511D01*
X156796366Y-109766175D01*
X157152624Y-110348559D01*
X157395210Y-110714056D01*
X157428187Y-110757709D01*
X157630448Y-111052813D01*
X157711905Y-111244778D01*
X157790000Y-111433437D01*
X157989650Y-111777085D01*
X158145515Y-112018139D01*
X158370715Y-112355528D01*
X158726270Y-112889851D01*
X159175531Y-113565961D01*
X159681853Y-114328712D01*
X160124702Y-114996417D01*
X161417826Y-116880388D01*
X162688882Y-118602147D01*
X163921777Y-120143640D01*
X165100420Y-121486813D01*
X166208719Y-122613612D01*
X167230582Y-123505984D01*
X168149916Y-124145874D01*
X168406026Y-124287302D01*
X168883668Y-124472736D01*
X169442383Y-124611347D01*
X169553474Y-124628924D01*
X169950505Y-124645996D01*
X170339744Y-124566618D01*
X170763615Y-124365581D01*
X171264544Y-124017673D01*
X171884957Y-123497683D01*
X172667278Y-122780400D01*
X172672608Y-122775392D01*
X173678437Y-121793586D01*
X174460470Y-120950201D01*
X175011842Y-120253718D01*
X175325691Y-119712617D01*
X175401191Y-119403758D01*
X175338213Y-118989727D01*
X175122079Y-118769368D01*
X174711984Y-118722758D01*
X174176327Y-118805747D01*
X173436623Y-118897181D01*
X172506299Y-118913656D01*
X171486002Y-118861443D01*
X170476380Y-118746810D01*
X169578078Y-118576028D01*
X169301562Y-118502079D01*
X168440907Y-118219892D01*
X167662313Y-117893036D01*
X166867305Y-117473911D01*
X165957407Y-116914915D01*
X165780317Y-116800008D01*
X165229065Y-116401734D01*
X164559100Y-115859230D01*
X163826458Y-115224216D01*
X163087172Y-114548413D01*
X162397278Y-113883539D01*
X161812811Y-113281316D01*
X161389807Y-112793463D01*
X161283508Y-112649484D01*
X161045417Y-112314476D01*
X160687419Y-111825881D01*
X160273238Y-111270352D01*
X160116083Y-111061984D01*
X159717078Y-110523691D01*
X159272938Y-109906591D01*
X158818067Y-109260756D01*
X158386869Y-108636258D01*
X158013749Y-108083167D01*
X157733112Y-107651555D01*
X157579361Y-107391492D01*
X157560714Y-107342975D01*
X157481401Y-107183381D01*
X157285478Y-106883337D01*
X157233779Y-106809802D01*
X156920876Y-106326822D01*
X156497216Y-105607837D01*
X155982060Y-104689842D01*
X155394667Y-103609834D01*
X154754297Y-102404810D01*
X154080208Y-101111765D01*
X153391661Y-99767696D01*
X152707916Y-98409599D01*
X152048231Y-97074471D01*
X151431867Y-95799307D01*
X150878082Y-94621105D01*
X150797766Y-94446666D01*
X150346728Y-93463928D01*
X151723662Y-93417169D01*
X152407852Y-93411255D01*
X153285824Y-93428747D01*
X154250163Y-93466314D01*
X155193453Y-93520625D01*
X155299784Y-93528084D01*
X156790283Y-93677396D01*
X158032438Y-93906960D01*
X159074856Y-94240003D01*
X159966148Y-94699752D01*
X160754924Y-95309433D01*
X161489793Y-96092273D01*
X161968481Y-96714524D01*
X162268364Y-97185189D01*
X162634521Y-97839916D01*
X163018491Y-98582997D01*
X163371816Y-99318724D01*
X163646036Y-99951390D01*
X163748913Y-100230863D01*
X164031491Y-100762517D01*
X164433182Y-101033794D01*
X164897458Y-101035957D01*
X165167038Y-100909866D01*
X165314557Y-100678906D01*
X165334645Y-100316456D01*
X165221929Y-99795899D01*
X164971037Y-99090614D01*
X164576599Y-98173985D01*
X164125629Y-97211254D01*
X163846393Y-96621592D01*
X163624389Y-96138093D01*
X163487463Y-95822280D01*
X163457143Y-95734143D01*
X163383520Y-95566161D01*
X163198144Y-95241930D01*
X163102092Y-95086222D01*
X162803700Y-94591190D01*
X162481013Y-94025824D01*
X162380317Y-93841905D01*
X161788698Y-92840827D01*
X161102683Y-91838644D01*
X160365175Y-90886451D01*
X159619074Y-90035348D01*
X158907283Y-89336432D01*
X158272705Y-88840802D01*
X158089881Y-88731820D01*
X157694894Y-88595553D01*
X157072400Y-88498817D01*
X156189584Y-88436963D01*
X155936648Y-88426840D01*
X155200741Y-88414357D01*
X154211690Y-88417895D01*
X153018214Y-88435761D01*
X151669029Y-88466259D01*
X150212856Y-88507695D01*
X148698411Y-88558374D01*
X147174412Y-88616602D01*
X145689577Y-88680684D01*
X144292625Y-88748924D01*
X143032273Y-88819629D01*
X141957240Y-88891105D01*
X141458929Y-88930444D01*
X139673418Y-89071131D01*
X137886952Y-89190780D01*
X136133113Y-89288524D01*
X134445486Y-89363499D01*
X132857653Y-89414839D01*
X131403197Y-89441680D01*
X130115704Y-89443157D01*
X129028755Y-89418404D01*
X128175934Y-89366557D01*
X127594644Y-89287562D01*
X126787883Y-89075062D01*
X126129254Y-88788162D01*
X125556830Y-88379545D01*
X125008680Y-87801897D01*
X124422878Y-87007899D01*
X124226263Y-86713946D01*
X123892223Y-86225500D01*
X123602983Y-85836757D01*
X123411321Y-85617847D01*
X123387530Y-85599467D01*
X123164094Y-85615062D01*
X123164094Y-85615062D01*
G37*
X123164094Y-85615062D02*
X122901519Y-85798190D01*
X122717995Y-86007698D01*
X122671451Y-86204731D01*
X122754694Y-86505292D01*
X122843560Y-86732704D01*
X123038923Y-87145474D01*
X123362618Y-87747679D01*
X123777392Y-88475739D01*
X124245994Y-89266073D01*
X124731170Y-90055103D01*
X125195668Y-90779247D01*
X125351399Y-91012919D01*
X126007443Y-91800652D01*
X126828411Y-92515884D01*
X127597193Y-93000578D01*
X127964612Y-93139791D01*
X128535589Y-93302581D01*
X129215331Y-93463319D01*
X129590476Y-93539524D01*
X130280859Y-93685539D01*
X130904900Y-93843283D01*
X131371691Y-93988600D01*
X131528651Y-94054572D01*
X132033516Y-94424258D01*
X132631765Y-95045911D01*
X133305919Y-95890170D01*
X134038498Y-96927677D01*
X134812021Y-98129074D01*
X135609009Y-99465001D01*
X136411981Y-100906100D01*
X137203460Y-102423013D01*
X137965963Y-103986380D01*
X138682012Y-105566843D01*
X139334126Y-107135043D01*
X139368540Y-107222262D01*
X140108501Y-109188218D01*
X140762341Y-111097576D01*
X141325129Y-112926355D01*
X141791932Y-114650577D01*
X142157822Y-116246263D01*
X142417866Y-117689435D01*
X142567134Y-118956113D01*
X142600695Y-120022320D01*
X142513617Y-120864076D01*
X142300971Y-121457403D01*
X142297142Y-121463729D01*
X141845956Y-121929566D01*
X141207084Y-122186394D01*
X140405865Y-122239807D01*
X139467636Y-122095399D01*
X138417736Y-121758766D01*
X137281503Y-121235502D01*
X136084275Y-120531201D01*
X135162907Y-119888532D01*
X134098918Y-119066194D01*
X132898491Y-118087708D01*
X131634560Y-117015090D01*
X130380061Y-115910359D01*
X129207930Y-114835531D01*
X129092517Y-114726851D01*
X128451341Y-114137935D01*
X127879675Y-113644122D01*
X127418410Y-113278587D01*
X127108437Y-113074503D01*
X127017133Y-113043095D01*
X126685960Y-113176618D01*
X126435270Y-113507642D01*
X126327131Y-113931847D01*
X126350159Y-114164147D01*
X126509588Y-114428955D01*
X126879584Y-114852602D01*
X127430927Y-115409705D01*
X128134401Y-116074881D01*
X128960785Y-116822749D01*
X129880862Y-117627926D01*
X130865414Y-118465029D01*
X131885221Y-119308677D01*
X132911065Y-120133487D01*
X133913727Y-120914076D01*
X134863990Y-121625062D01*
X135301443Y-121940208D01*
X137040290Y-123069533D01*
X138727285Y-123940889D01*
X140419882Y-124578240D01*
X142175534Y-125005550D01*
X142943976Y-125127938D01*
X143742583Y-125226996D01*
X144331116Y-125268157D01*
X144796617Y-125249690D01*
X145226133Y-125169861D01*
X145553812Y-125075973D01*
X146344644Y-124764203D01*
X146939301Y-124358023D01*
X147389636Y-123800007D01*
X147747502Y-123032731D01*
X147945533Y-122427261D01*
X148138088Y-121497057D01*
X148187785Y-120472706D01*
X148089857Y-119325446D01*
X147839538Y-118026513D01*
X147432063Y-116547142D01*
X146862665Y-114858570D01*
X146553493Y-114025833D01*
X146247068Y-113251955D01*
X145869944Y-112347477D01*
X145459319Y-111397280D01*
X145052388Y-110486242D01*
X144686347Y-109699245D01*
X144433337Y-109187738D01*
X144154868Y-108637673D01*
X143875352Y-108065402D01*
X143833954Y-107978214D01*
X143638368Y-107588376D01*
X143340322Y-107023249D01*
X142986545Y-106370558D01*
X142746738Y-105937143D01*
X142356999Y-105238132D01*
X141965847Y-104535026D01*
X141631073Y-103931777D01*
X141485884Y-103669286D01*
X141174678Y-103133418D01*
X140857454Y-102630740D01*
X140675959Y-102369895D01*
X140450207Y-102045318D01*
X140330699Y-101827398D01*
X140325000Y-101801817D01*
X140244418Y-101641903D01*
X140027721Y-101293550D01*
X139712483Y-100815840D01*
X139493453Y-100494285D01*
X139136708Y-99963323D01*
X138856538Y-99521554D01*
X138690753Y-99229963D01*
X138661905Y-99153198D01*
X138558238Y-98956564D01*
X138425754Y-98823418D01*
X138221301Y-98598651D01*
X137923776Y-98208211D01*
X137637487Y-97795632D01*
X137175156Y-97192259D01*
X136494024Y-96437492D01*
X135619758Y-95557894D01*
X134578026Y-94580026D01*
X134201786Y-94240209D01*
X133597024Y-93698896D01*
X134504167Y-93697965D01*
X134850578Y-93693492D01*
X135461912Y-93681107D01*
X136300837Y-93661742D01*
X137330024Y-93636328D01*
X138512143Y-93605798D01*
X139809865Y-93571084D01*
X141185859Y-93533117D01*
X141789388Y-93516106D01*
X143481541Y-93470561D01*
X144889613Y-93438307D01*
X146031609Y-93419308D01*
X146925536Y-93413531D01*
X147589399Y-93420939D01*
X148041204Y-93441499D01*
X148298958Y-93475175D01*
X148370141Y-93503380D01*
X148549796Y-93748967D01*
X148739574Y-94145440D01*
X148778346Y-94248113D01*
X148898657Y-94531771D01*
X149135873Y-95045741D01*
X149470520Y-95750455D01*
X149883128Y-96606346D01*
X150354223Y-97573844D01*
X150864334Y-98613383D01*
X151393988Y-99685393D01*
X151923713Y-100750306D01*
X152434036Y-101768554D01*
X152905487Y-102700569D01*
X153318592Y-103506782D01*
X153600676Y-104047262D01*
X154140600Y-105057212D01*
X154709243Y-106099919D01*
X155282873Y-107133776D01*
X155837758Y-108117176D01*
X156350167Y-109008511D01*
X156796366Y-109766175D01*
X157152624Y-110348559D01*
X157395210Y-110714056D01*
X157428187Y-110757709D01*
X157630448Y-111052813D01*
X157711905Y-111244778D01*
X157790000Y-111433437D01*
X157989650Y-111777085D01*
X158145515Y-112018139D01*
X158370715Y-112355528D01*
X158726270Y-112889851D01*
X159175531Y-113565961D01*
X159681853Y-114328712D01*
X160124702Y-114996417D01*
X161417826Y-116880388D01*
X162688882Y-118602147D01*
X163921777Y-120143640D01*
X165100420Y-121486813D01*
X166208719Y-122613612D01*
X167230582Y-123505984D01*
X168149916Y-124145874D01*
X168406026Y-124287302D01*
X168883668Y-124472736D01*
X169442383Y-124611347D01*
X169553474Y-124628924D01*
X169950505Y-124645996D01*
X170339744Y-124566618D01*
X170763615Y-124365581D01*
X171264544Y-124017673D01*
X171884957Y-123497683D01*
X172667278Y-122780400D01*
X172672608Y-122775392D01*
X173678437Y-121793586D01*
X174460470Y-120950201D01*
X175011842Y-120253718D01*
X175325691Y-119712617D01*
X175401191Y-119403758D01*
X175338213Y-118989727D01*
X175122079Y-118769368D01*
X174711984Y-118722758D01*
X174176327Y-118805747D01*
X173436623Y-118897181D01*
X172506299Y-118913656D01*
X171486002Y-118861443D01*
X170476380Y-118746810D01*
X169578078Y-118576028D01*
X169301562Y-118502079D01*
X168440907Y-118219892D01*
X167662313Y-117893036D01*
X166867305Y-117473911D01*
X165957407Y-116914915D01*
X165780317Y-116800008D01*
X165229065Y-116401734D01*
X164559100Y-115859230D01*
X163826458Y-115224216D01*
X163087172Y-114548413D01*
X162397278Y-113883539D01*
X161812811Y-113281316D01*
X161389807Y-112793463D01*
X161283508Y-112649484D01*
X161045417Y-112314476D01*
X160687419Y-111825881D01*
X160273238Y-111270352D01*
X160116083Y-111061984D01*
X159717078Y-110523691D01*
X159272938Y-109906591D01*
X158818067Y-109260756D01*
X158386869Y-108636258D01*
X158013749Y-108083167D01*
X157733112Y-107651555D01*
X157579361Y-107391492D01*
X157560714Y-107342975D01*
X157481401Y-107183381D01*
X157285478Y-106883337D01*
X157233779Y-106809802D01*
X156920876Y-106326822D01*
X156497216Y-105607837D01*
X155982060Y-104689842D01*
X155394667Y-103609834D01*
X154754297Y-102404810D01*
X154080208Y-101111765D01*
X153391661Y-99767696D01*
X152707916Y-98409599D01*
X152048231Y-97074471D01*
X151431867Y-95799307D01*
X150878082Y-94621105D01*
X150797766Y-94446666D01*
X150346728Y-93463928D01*
X151723662Y-93417169D01*
X152407852Y-93411255D01*
X153285824Y-93428747D01*
X154250163Y-93466314D01*
X155193453Y-93520625D01*
X155299784Y-93528084D01*
X156790283Y-93677396D01*
X158032438Y-93906960D01*
X159074856Y-94240003D01*
X159966148Y-94699752D01*
X160754924Y-95309433D01*
X161489793Y-96092273D01*
X161968481Y-96714524D01*
X162268364Y-97185189D01*
X162634521Y-97839916D01*
X163018491Y-98582997D01*
X163371816Y-99318724D01*
X163646036Y-99951390D01*
X163748913Y-100230863D01*
X164031491Y-100762517D01*
X164433182Y-101033794D01*
X164897458Y-101035957D01*
X165167038Y-100909866D01*
X165314557Y-100678906D01*
X165334645Y-100316456D01*
X165221929Y-99795899D01*
X164971037Y-99090614D01*
X164576599Y-98173985D01*
X164125629Y-97211254D01*
X163846393Y-96621592D01*
X163624389Y-96138093D01*
X163487463Y-95822280D01*
X163457143Y-95734143D01*
X163383520Y-95566161D01*
X163198144Y-95241930D01*
X163102092Y-95086222D01*
X162803700Y-94591190D01*
X162481013Y-94025824D01*
X162380317Y-93841905D01*
X161788698Y-92840827D01*
X161102683Y-91838644D01*
X160365175Y-90886451D01*
X159619074Y-90035348D01*
X158907283Y-89336432D01*
X158272705Y-88840802D01*
X158089881Y-88731820D01*
X157694894Y-88595553D01*
X157072400Y-88498817D01*
X156189584Y-88436963D01*
X155936648Y-88426840D01*
X155200741Y-88414357D01*
X154211690Y-88417895D01*
X153018214Y-88435761D01*
X151669029Y-88466259D01*
X150212856Y-88507695D01*
X148698411Y-88558374D01*
X147174412Y-88616602D01*
X145689577Y-88680684D01*
X144292625Y-88748924D01*
X143032273Y-88819629D01*
X141957240Y-88891105D01*
X141458929Y-88930444D01*
X139673418Y-89071131D01*
X137886952Y-89190780D01*
X136133113Y-89288524D01*
X134445486Y-89363499D01*
X132857653Y-89414839D01*
X131403197Y-89441680D01*
X130115704Y-89443157D01*
X129028755Y-89418404D01*
X128175934Y-89366557D01*
X127594644Y-89287562D01*
X126787883Y-89075062D01*
X126129254Y-88788162D01*
X125556830Y-88379545D01*
X125008680Y-87801897D01*
X124422878Y-87007899D01*
X124226263Y-86713946D01*
X123892223Y-86225500D01*
X123602983Y-85836757D01*
X123411321Y-85617847D01*
X123387530Y-85599467D01*
X123164094Y-85615062D01*
M02*
