%TF.GenerationSoftware,KiCad,Pcbnew,(5.0.0)*%
%TF.CreationDate,2018-10-23T17:24:24+02:00*%
%TF.ProjectId,S80 Memory,533830204D656D6F72792E6B69636164,1.0*%
%TF.SameCoordinates,Original*%
%TF.FileFunction,Legend,Top*%
%TF.FilePolarity,Positive*%
%FSLAX46Y46*%
G04 Gerber Fmt 4.6, Leading zero omitted, Abs format (unit mm)*
G04 Created by KiCad (PCBNEW (5.0.0)) date 10/23/18 17:24:24*
%MOMM*%
%LPD*%
G01*
G04 APERTURE LIST*
%ADD10C,0.100000*%
%ADD11C,0.150000*%
%ADD12C,0.250000*%
%ADD13C,0.120000*%
G04 APERTURE END LIST*
D10*
X74848333Y-105290952D02*
X74781666Y-105243333D01*
X74748333Y-105195714D01*
X74715000Y-105100476D01*
X74715000Y-105052857D01*
X74748333Y-104957619D01*
X74781666Y-104910000D01*
X74848333Y-104862380D01*
X74981666Y-104862380D01*
X75048333Y-104910000D01*
X75081666Y-104957619D01*
X75115000Y-105052857D01*
X75115000Y-105100476D01*
X75081666Y-105195714D01*
X75048333Y-105243333D01*
X74981666Y-105290952D01*
X74848333Y-105290952D01*
X74781666Y-105338571D01*
X74748333Y-105386190D01*
X74715000Y-105481428D01*
X74715000Y-105671904D01*
X74748333Y-105767142D01*
X74781666Y-105814761D01*
X74848333Y-105862380D01*
X74981666Y-105862380D01*
X75048333Y-105814761D01*
X75081666Y-105767142D01*
X75115000Y-105671904D01*
X75115000Y-105481428D01*
X75081666Y-105386190D01*
X75048333Y-105338571D01*
X74981666Y-105290952D01*
X75548333Y-104862380D02*
X75615000Y-104862380D01*
X75681666Y-104910000D01*
X75715000Y-104957619D01*
X75748333Y-105052857D01*
X75781666Y-105243333D01*
X75781666Y-105481428D01*
X75748333Y-105671904D01*
X75715000Y-105767142D01*
X75681666Y-105814761D01*
X75615000Y-105862380D01*
X75548333Y-105862380D01*
X75481666Y-105814761D01*
X75448333Y-105767142D01*
X75415000Y-105671904D01*
X75381666Y-105481428D01*
X75381666Y-105243333D01*
X75415000Y-105052857D01*
X75448333Y-104957619D01*
X75481666Y-104910000D01*
X75548333Y-104862380D01*
X76081666Y-105862380D02*
X76081666Y-104862380D01*
X76381666Y-105862380D02*
X76381666Y-105338571D01*
X76348333Y-105243333D01*
X76281666Y-105195714D01*
X76181666Y-105195714D01*
X76115000Y-105243333D01*
X76081666Y-105290952D01*
X75048333Y-102655714D02*
X75048333Y-103322380D01*
X74881666Y-102274761D02*
X74715000Y-102989047D01*
X75148333Y-102989047D01*
X75548333Y-102322380D02*
X75615000Y-102322380D01*
X75681666Y-102370000D01*
X75715000Y-102417619D01*
X75748333Y-102512857D01*
X75781666Y-102703333D01*
X75781666Y-102941428D01*
X75748333Y-103131904D01*
X75715000Y-103227142D01*
X75681666Y-103274761D01*
X75615000Y-103322380D01*
X75548333Y-103322380D01*
X75481666Y-103274761D01*
X75448333Y-103227142D01*
X75415000Y-103131904D01*
X75381666Y-102941428D01*
X75381666Y-102703333D01*
X75415000Y-102512857D01*
X75448333Y-102417619D01*
X75481666Y-102370000D01*
X75548333Y-102322380D01*
X76081666Y-103322380D02*
X76081666Y-102322380D01*
X76381666Y-103322380D02*
X76381666Y-102798571D01*
X76348333Y-102703333D01*
X76281666Y-102655714D01*
X76181666Y-102655714D01*
X76115000Y-102703333D01*
X76081666Y-102750952D01*
X74715000Y-99877619D02*
X74748333Y-99830000D01*
X74815000Y-99782380D01*
X74981666Y-99782380D01*
X75048333Y-99830000D01*
X75081666Y-99877619D01*
X75115000Y-99972857D01*
X75115000Y-100068095D01*
X75081666Y-100210952D01*
X74681666Y-100782380D01*
X75115000Y-100782380D01*
X75548333Y-99782380D02*
X75615000Y-99782380D01*
X75681666Y-99830000D01*
X75715000Y-99877619D01*
X75748333Y-99972857D01*
X75781666Y-100163333D01*
X75781666Y-100401428D01*
X75748333Y-100591904D01*
X75715000Y-100687142D01*
X75681666Y-100734761D01*
X75615000Y-100782380D01*
X75548333Y-100782380D01*
X75481666Y-100734761D01*
X75448333Y-100687142D01*
X75415000Y-100591904D01*
X75381666Y-100401428D01*
X75381666Y-100163333D01*
X75415000Y-99972857D01*
X75448333Y-99877619D01*
X75481666Y-99830000D01*
X75548333Y-99782380D01*
X76081666Y-100782380D02*
X76081666Y-99782380D01*
X76381666Y-100782380D02*
X76381666Y-100258571D01*
X76348333Y-100163333D01*
X76281666Y-100115714D01*
X76181666Y-100115714D01*
X76115000Y-100163333D01*
X76081666Y-100210952D01*
X75115000Y-98242380D02*
X74715000Y-98242380D01*
X74915000Y-98242380D02*
X74915000Y-97242380D01*
X74848333Y-97385238D01*
X74781666Y-97480476D01*
X74715000Y-97528095D01*
X75548333Y-97242380D02*
X75615000Y-97242380D01*
X75681666Y-97290000D01*
X75715000Y-97337619D01*
X75748333Y-97432857D01*
X75781666Y-97623333D01*
X75781666Y-97861428D01*
X75748333Y-98051904D01*
X75715000Y-98147142D01*
X75681666Y-98194761D01*
X75615000Y-98242380D01*
X75548333Y-98242380D01*
X75481666Y-98194761D01*
X75448333Y-98147142D01*
X75415000Y-98051904D01*
X75381666Y-97861428D01*
X75381666Y-97623333D01*
X75415000Y-97432857D01*
X75448333Y-97337619D01*
X75481666Y-97290000D01*
X75548333Y-97242380D01*
X76081666Y-98242380D02*
X76081666Y-97242380D01*
X76381666Y-98242380D02*
X76381666Y-97718571D01*
X76348333Y-97623333D01*
X76281666Y-97575714D01*
X76181666Y-97575714D01*
X76115000Y-97623333D01*
X76081666Y-97670952D01*
X74881666Y-94702380D02*
X74948333Y-94702380D01*
X75015000Y-94750000D01*
X75048333Y-94797619D01*
X75081666Y-94892857D01*
X75115000Y-95083333D01*
X75115000Y-95321428D01*
X75081666Y-95511904D01*
X75048333Y-95607142D01*
X75015000Y-95654761D01*
X74948333Y-95702380D01*
X74881666Y-95702380D01*
X74815000Y-95654761D01*
X74781666Y-95607142D01*
X74748333Y-95511904D01*
X74715000Y-95321428D01*
X74715000Y-95083333D01*
X74748333Y-94892857D01*
X74781666Y-94797619D01*
X74815000Y-94750000D01*
X74881666Y-94702380D01*
X75515000Y-95130952D02*
X75448333Y-95083333D01*
X75415000Y-95035714D01*
X75381666Y-94940476D01*
X75381666Y-94892857D01*
X75415000Y-94797619D01*
X75448333Y-94750000D01*
X75515000Y-94702380D01*
X75648333Y-94702380D01*
X75715000Y-94750000D01*
X75748333Y-94797619D01*
X75781666Y-94892857D01*
X75781666Y-94940476D01*
X75748333Y-95035714D01*
X75715000Y-95083333D01*
X75648333Y-95130952D01*
X75515000Y-95130952D01*
X75448333Y-95178571D01*
X75415000Y-95226190D01*
X75381666Y-95321428D01*
X75381666Y-95511904D01*
X75415000Y-95607142D01*
X75448333Y-95654761D01*
X75515000Y-95702380D01*
X75648333Y-95702380D01*
X75715000Y-95654761D01*
X75748333Y-95607142D01*
X75781666Y-95511904D01*
X75781666Y-95321428D01*
X75748333Y-95226190D01*
X75715000Y-95178571D01*
X75648333Y-95130952D01*
X76081666Y-95702380D02*
X76081666Y-94702380D01*
X76381666Y-95702380D02*
X76381666Y-95178571D01*
X76348333Y-95083333D01*
X76281666Y-95035714D01*
X76181666Y-95035714D01*
X76115000Y-95083333D01*
X76081666Y-95130952D01*
X74881666Y-92162380D02*
X74948333Y-92162380D01*
X75015000Y-92210000D01*
X75048333Y-92257619D01*
X75081666Y-92352857D01*
X75115000Y-92543333D01*
X75115000Y-92781428D01*
X75081666Y-92971904D01*
X75048333Y-93067142D01*
X75015000Y-93114761D01*
X74948333Y-93162380D01*
X74881666Y-93162380D01*
X74815000Y-93114761D01*
X74781666Y-93067142D01*
X74748333Y-92971904D01*
X74715000Y-92781428D01*
X74715000Y-92543333D01*
X74748333Y-92352857D01*
X74781666Y-92257619D01*
X74815000Y-92210000D01*
X74881666Y-92162380D01*
X75715000Y-92495714D02*
X75715000Y-93162380D01*
X75548333Y-92114761D02*
X75381666Y-92829047D01*
X75815000Y-92829047D01*
X76081666Y-93162380D02*
X76081666Y-92162380D01*
X76381666Y-93162380D02*
X76381666Y-92638571D01*
X76348333Y-92543333D01*
X76281666Y-92495714D01*
X76181666Y-92495714D01*
X76115000Y-92543333D01*
X76081666Y-92590952D01*
X74881666Y-89622380D02*
X74948333Y-89622380D01*
X75015000Y-89670000D01*
X75048333Y-89717619D01*
X75081666Y-89812857D01*
X75115000Y-90003333D01*
X75115000Y-90241428D01*
X75081666Y-90431904D01*
X75048333Y-90527142D01*
X75015000Y-90574761D01*
X74948333Y-90622380D01*
X74881666Y-90622380D01*
X74815000Y-90574761D01*
X74781666Y-90527142D01*
X74748333Y-90431904D01*
X74715000Y-90241428D01*
X74715000Y-90003333D01*
X74748333Y-89812857D01*
X74781666Y-89717619D01*
X74815000Y-89670000D01*
X74881666Y-89622380D01*
X75381666Y-89717619D02*
X75415000Y-89670000D01*
X75481666Y-89622380D01*
X75648333Y-89622380D01*
X75715000Y-89670000D01*
X75748333Y-89717619D01*
X75781666Y-89812857D01*
X75781666Y-89908095D01*
X75748333Y-90050952D01*
X75348333Y-90622380D01*
X75781666Y-90622380D01*
X76081666Y-90622380D02*
X76081666Y-89622380D01*
X76381666Y-90622380D02*
X76381666Y-90098571D01*
X76348333Y-90003333D01*
X76281666Y-89955714D01*
X76181666Y-89955714D01*
X76115000Y-90003333D01*
X76081666Y-90050952D01*
X74881666Y-87082380D02*
X74948333Y-87082380D01*
X75015000Y-87130000D01*
X75048333Y-87177619D01*
X75081666Y-87272857D01*
X75115000Y-87463333D01*
X75115000Y-87701428D01*
X75081666Y-87891904D01*
X75048333Y-87987142D01*
X75015000Y-88034761D01*
X74948333Y-88082380D01*
X74881666Y-88082380D01*
X74815000Y-88034761D01*
X74781666Y-87987142D01*
X74748333Y-87891904D01*
X74715000Y-87701428D01*
X74715000Y-87463333D01*
X74748333Y-87272857D01*
X74781666Y-87177619D01*
X74815000Y-87130000D01*
X74881666Y-87082380D01*
X75781666Y-88082380D02*
X75381666Y-88082380D01*
X75581666Y-88082380D02*
X75581666Y-87082380D01*
X75515000Y-87225238D01*
X75448333Y-87320476D01*
X75381666Y-87368095D01*
X76081666Y-88082380D02*
X76081666Y-87082380D01*
X76381666Y-88082380D02*
X76381666Y-87558571D01*
X76348333Y-87463333D01*
X76281666Y-87415714D01*
X76181666Y-87415714D01*
X76115000Y-87463333D01*
X76081666Y-87510952D01*
X75839666Y-118832380D02*
X76273000Y-118832380D01*
X76039666Y-119213333D01*
X76139666Y-119213333D01*
X76206333Y-119260952D01*
X76239666Y-119308571D01*
X76273000Y-119403809D01*
X76273000Y-119641904D01*
X76239666Y-119737142D01*
X76206333Y-119784761D01*
X76139666Y-119832380D01*
X75939666Y-119832380D01*
X75873000Y-119784761D01*
X75839666Y-119737142D01*
X75873000Y-116387619D02*
X75906333Y-116340000D01*
X75973000Y-116292380D01*
X76139666Y-116292380D01*
X76206333Y-116340000D01*
X76239666Y-116387619D01*
X76273000Y-116482857D01*
X76273000Y-116578095D01*
X76239666Y-116720952D01*
X75839666Y-117292380D01*
X76273000Y-117292380D01*
X76273000Y-114752380D02*
X75873000Y-114752380D01*
X76073000Y-114752380D02*
X76073000Y-113752380D01*
X76006333Y-113895238D01*
X75939666Y-113990476D01*
X75873000Y-114038095D01*
D11*
X77803571Y-80987380D02*
X77803571Y-81796904D01*
X77851190Y-81892142D01*
X77898809Y-81939761D01*
X77994047Y-81987380D01*
X78184523Y-81987380D01*
X78279761Y-81939761D01*
X78327380Y-81892142D01*
X78375000Y-81796904D01*
X78375000Y-80987380D01*
X78803571Y-81939761D02*
X78898809Y-81987380D01*
X79089285Y-81987380D01*
X79184523Y-81939761D01*
X79232142Y-81844523D01*
X79232142Y-81796904D01*
X79184523Y-81701666D01*
X79089285Y-81654047D01*
X78946428Y-81654047D01*
X78851190Y-81606428D01*
X78803571Y-81511190D01*
X78803571Y-81463571D01*
X78851190Y-81368333D01*
X78946428Y-81320714D01*
X79089285Y-81320714D01*
X79184523Y-81368333D01*
X80041666Y-81939761D02*
X79946428Y-81987380D01*
X79755952Y-81987380D01*
X79660714Y-81939761D01*
X79613095Y-81844523D01*
X79613095Y-81463571D01*
X79660714Y-81368333D01*
X79755952Y-81320714D01*
X79946428Y-81320714D01*
X80041666Y-81368333D01*
X80089285Y-81463571D01*
X80089285Y-81558809D01*
X79613095Y-81654047D01*
X80946428Y-81987380D02*
X80946428Y-80987380D01*
X80946428Y-81939761D02*
X80851190Y-81987380D01*
X80660714Y-81987380D01*
X80565476Y-81939761D01*
X80517857Y-81892142D01*
X80470238Y-81796904D01*
X80470238Y-81511190D01*
X80517857Y-81415952D01*
X80565476Y-81368333D01*
X80660714Y-81320714D01*
X80851190Y-81320714D01*
X80946428Y-81368333D01*
X76613095Y-83113571D02*
X76946428Y-83113571D01*
X77089285Y-83637380D02*
X76613095Y-83637380D01*
X76613095Y-82637380D01*
X77089285Y-82637380D01*
X77517857Y-83113571D02*
X77851190Y-83113571D01*
X77994047Y-83637380D02*
X77517857Y-83637380D01*
X77517857Y-82637380D01*
X77994047Y-82637380D01*
X78422619Y-83637380D02*
X78422619Y-82637380D01*
X78803571Y-82637380D01*
X78898809Y-82685000D01*
X78946428Y-82732619D01*
X78994047Y-82827857D01*
X78994047Y-82970714D01*
X78946428Y-83065952D01*
X78898809Y-83113571D01*
X78803571Y-83161190D01*
X78422619Y-83161190D01*
X79994047Y-83637380D02*
X79660714Y-83161190D01*
X79422619Y-83637380D02*
X79422619Y-82637380D01*
X79803571Y-82637380D01*
X79898809Y-82685000D01*
X79946428Y-82732619D01*
X79994047Y-82827857D01*
X79994047Y-82970714D01*
X79946428Y-83065952D01*
X79898809Y-83113571D01*
X79803571Y-83161190D01*
X79422619Y-83161190D01*
X80613095Y-82637380D02*
X80803571Y-82637380D01*
X80898809Y-82685000D01*
X80994047Y-82780238D01*
X81041666Y-82970714D01*
X81041666Y-83304047D01*
X80994047Y-83494523D01*
X80898809Y-83589761D01*
X80803571Y-83637380D01*
X80613095Y-83637380D01*
X80517857Y-83589761D01*
X80422619Y-83494523D01*
X80375000Y-83304047D01*
X80375000Y-82970714D01*
X80422619Y-82780238D01*
X80517857Y-82685000D01*
X80613095Y-82637380D01*
X81470238Y-83637380D02*
X81470238Y-82637380D01*
X81803571Y-83351666D01*
X82136904Y-82637380D01*
X82136904Y-83637380D01*
X76041666Y-85239761D02*
X76136904Y-85287380D01*
X76327380Y-85287380D01*
X76422619Y-85239761D01*
X76470238Y-85144523D01*
X76470238Y-85096904D01*
X76422619Y-85001666D01*
X76327380Y-84954047D01*
X76184523Y-84954047D01*
X76089285Y-84906428D01*
X76041666Y-84811190D01*
X76041666Y-84763571D01*
X76089285Y-84668333D01*
X76184523Y-84620714D01*
X76327380Y-84620714D01*
X76422619Y-84668333D01*
X77279761Y-85239761D02*
X77184523Y-85287380D01*
X76994047Y-85287380D01*
X76898809Y-85239761D01*
X76851190Y-85144523D01*
X76851190Y-84763571D01*
X76898809Y-84668333D01*
X76994047Y-84620714D01*
X77184523Y-84620714D01*
X77279761Y-84668333D01*
X77327380Y-84763571D01*
X77327380Y-84858809D01*
X76851190Y-84954047D01*
X78184523Y-84620714D02*
X78184523Y-85430238D01*
X78136904Y-85525476D01*
X78089285Y-85573095D01*
X77994047Y-85620714D01*
X77851190Y-85620714D01*
X77755952Y-85573095D01*
X78184523Y-85239761D02*
X78089285Y-85287380D01*
X77898809Y-85287380D01*
X77803571Y-85239761D01*
X77755952Y-85192142D01*
X77708333Y-85096904D01*
X77708333Y-84811190D01*
X77755952Y-84715952D01*
X77803571Y-84668333D01*
X77898809Y-84620714D01*
X78089285Y-84620714D01*
X78184523Y-84668333D01*
X78660714Y-85287380D02*
X78660714Y-84620714D01*
X78660714Y-84715952D02*
X78708333Y-84668333D01*
X78803571Y-84620714D01*
X78946428Y-84620714D01*
X79041666Y-84668333D01*
X79089285Y-84763571D01*
X79089285Y-85287380D01*
X79089285Y-84763571D02*
X79136904Y-84668333D01*
X79232142Y-84620714D01*
X79375000Y-84620714D01*
X79470238Y-84668333D01*
X79517857Y-84763571D01*
X79517857Y-85287380D01*
X80375000Y-85239761D02*
X80279761Y-85287380D01*
X80089285Y-85287380D01*
X79994047Y-85239761D01*
X79946428Y-85144523D01*
X79946428Y-84763571D01*
X79994047Y-84668333D01*
X80089285Y-84620714D01*
X80279761Y-84620714D01*
X80375000Y-84668333D01*
X80422619Y-84763571D01*
X80422619Y-84858809D01*
X79946428Y-84954047D01*
X80851190Y-84620714D02*
X80851190Y-85287380D01*
X80851190Y-84715952D02*
X80898809Y-84668333D01*
X80994047Y-84620714D01*
X81136904Y-84620714D01*
X81232142Y-84668333D01*
X81279761Y-84763571D01*
X81279761Y-85287380D01*
X81613095Y-84620714D02*
X81994047Y-84620714D01*
X81755952Y-84287380D02*
X81755952Y-85144523D01*
X81803571Y-85239761D01*
X81898809Y-85287380D01*
X81994047Y-85287380D01*
X82279761Y-85239761D02*
X82375000Y-85287380D01*
X82565476Y-85287380D01*
X82660714Y-85239761D01*
X82708333Y-85144523D01*
X82708333Y-85096904D01*
X82660714Y-85001666D01*
X82565476Y-84954047D01*
X82422619Y-84954047D01*
X82327380Y-84906428D01*
X82279761Y-84811190D01*
X82279761Y-84763571D01*
X82327380Y-84668333D01*
X82422619Y-84620714D01*
X82565476Y-84620714D01*
X82660714Y-84668333D01*
X76613095Y-111434571D02*
X76946428Y-111434571D01*
X77089285Y-111958380D02*
X76613095Y-111958380D01*
X76613095Y-110958380D01*
X77089285Y-110958380D01*
X77517857Y-111434571D02*
X77851190Y-111434571D01*
X77994047Y-111958380D02*
X77517857Y-111958380D01*
X77517857Y-110958380D01*
X77994047Y-110958380D01*
X78422619Y-111958380D02*
X78422619Y-110958380D01*
X78803571Y-110958380D01*
X78898809Y-111006000D01*
X78946428Y-111053619D01*
X78994047Y-111148857D01*
X78994047Y-111291714D01*
X78946428Y-111386952D01*
X78898809Y-111434571D01*
X78803571Y-111482190D01*
X78422619Y-111482190D01*
X79994047Y-111958380D02*
X79660714Y-111482190D01*
X79422619Y-111958380D02*
X79422619Y-110958380D01*
X79803571Y-110958380D01*
X79898809Y-111006000D01*
X79946428Y-111053619D01*
X79994047Y-111148857D01*
X79994047Y-111291714D01*
X79946428Y-111386952D01*
X79898809Y-111434571D01*
X79803571Y-111482190D01*
X79422619Y-111482190D01*
X80613095Y-110958380D02*
X80803571Y-110958380D01*
X80898809Y-111006000D01*
X80994047Y-111101238D01*
X81041666Y-111291714D01*
X81041666Y-111625047D01*
X80994047Y-111815523D01*
X80898809Y-111910761D01*
X80803571Y-111958380D01*
X80613095Y-111958380D01*
X80517857Y-111910761D01*
X80422619Y-111815523D01*
X80375000Y-111625047D01*
X80375000Y-111291714D01*
X80422619Y-111101238D01*
X80517857Y-111006000D01*
X80613095Y-110958380D01*
X81470238Y-111958380D02*
X81470238Y-110958380D01*
X81803571Y-111672666D01*
X82136904Y-110958380D01*
X82136904Y-111958380D01*
X212844285Y-127842141D02*
X212987142Y-127889760D01*
X213225238Y-127889760D01*
X213320476Y-127842141D01*
X213368095Y-127794522D01*
X213415714Y-127699284D01*
X213415714Y-127604046D01*
X213368095Y-127508808D01*
X213320476Y-127461189D01*
X213225238Y-127413570D01*
X213034761Y-127365951D01*
X212939523Y-127318332D01*
X212891904Y-127270713D01*
X212844285Y-127175475D01*
X212844285Y-127080237D01*
X212891904Y-126984999D01*
X212939523Y-126937380D01*
X213034761Y-126889760D01*
X213272857Y-126889760D01*
X213415714Y-126937380D01*
X214415714Y-127889760D02*
X214082380Y-127413570D01*
X213844285Y-127889760D02*
X213844285Y-126889760D01*
X214225238Y-126889760D01*
X214320476Y-126937380D01*
X214368095Y-126984999D01*
X214415714Y-127080237D01*
X214415714Y-127223094D01*
X214368095Y-127318332D01*
X214320476Y-127365951D01*
X214225238Y-127413570D01*
X213844285Y-127413570D01*
X214796666Y-127604046D02*
X215272857Y-127604046D01*
X214701428Y-127889760D02*
X215034761Y-126889760D01*
X215368095Y-127889760D01*
X215701428Y-127889760D02*
X215701428Y-126889760D01*
X216034761Y-127604046D01*
X216368095Y-126889760D01*
X216368095Y-127889760D01*
X210868095Y-128539760D02*
X210868095Y-129349284D01*
X210915714Y-129444522D01*
X210963333Y-129492141D01*
X211058571Y-129539760D01*
X211249047Y-129539760D01*
X211344285Y-129492141D01*
X211391904Y-129444522D01*
X211439523Y-129349284D01*
X211439523Y-128539760D01*
X211915714Y-128873094D02*
X211915714Y-129873094D01*
X211915714Y-128920713D02*
X212010952Y-128873094D01*
X212201428Y-128873094D01*
X212296666Y-128920713D01*
X212344285Y-128968332D01*
X212391904Y-129063570D01*
X212391904Y-129349284D01*
X212344285Y-129444522D01*
X212296666Y-129492141D01*
X212201428Y-129539760D01*
X212010952Y-129539760D01*
X211915714Y-129492141D01*
X212820476Y-128873094D02*
X212820476Y-129873094D01*
X212820476Y-128920713D02*
X212915714Y-128873094D01*
X213106190Y-128873094D01*
X213201428Y-128920713D01*
X213249047Y-128968332D01*
X213296666Y-129063570D01*
X213296666Y-129349284D01*
X213249047Y-129444522D01*
X213201428Y-129492141D01*
X213106190Y-129539760D01*
X212915714Y-129539760D01*
X212820476Y-129492141D01*
X214106190Y-129492141D02*
X214010952Y-129539760D01*
X213820476Y-129539760D01*
X213725238Y-129492141D01*
X213677619Y-129396903D01*
X213677619Y-129015951D01*
X213725238Y-128920713D01*
X213820476Y-128873094D01*
X214010952Y-128873094D01*
X214106190Y-128920713D01*
X214153809Y-129015951D01*
X214153809Y-129111189D01*
X213677619Y-129206427D01*
X214582380Y-129539760D02*
X214582380Y-128873094D01*
X214582380Y-129063570D02*
X214630000Y-128968332D01*
X214677619Y-128920713D01*
X214772857Y-128873094D01*
X214868095Y-128873094D01*
X215868095Y-128539760D02*
X216487142Y-128539760D01*
X216153809Y-128920713D01*
X216296666Y-128920713D01*
X216391904Y-128968332D01*
X216439523Y-129015951D01*
X216487142Y-129111189D01*
X216487142Y-129349284D01*
X216439523Y-129444522D01*
X216391904Y-129492141D01*
X216296666Y-129539760D01*
X216010952Y-129539760D01*
X215915714Y-129492141D01*
X215868095Y-129444522D01*
X216868095Y-128634999D02*
X216915714Y-128587380D01*
X217010952Y-128539760D01*
X217249047Y-128539760D01*
X217344285Y-128587380D01*
X217391904Y-128634999D01*
X217439523Y-128730237D01*
X217439523Y-128825475D01*
X217391904Y-128968332D01*
X216820476Y-129539760D01*
X217439523Y-129539760D01*
X217868095Y-129539760D02*
X217868095Y-128539760D01*
X218439523Y-129539760D02*
X218010952Y-128968332D01*
X218439523Y-128539760D02*
X217868095Y-129111189D01*
X191254285Y-127849761D02*
X191397142Y-127897380D01*
X191635238Y-127897380D01*
X191730476Y-127849761D01*
X191778095Y-127802142D01*
X191825714Y-127706904D01*
X191825714Y-127611666D01*
X191778095Y-127516428D01*
X191730476Y-127468809D01*
X191635238Y-127421190D01*
X191444761Y-127373571D01*
X191349523Y-127325952D01*
X191301904Y-127278333D01*
X191254285Y-127183095D01*
X191254285Y-127087857D01*
X191301904Y-126992619D01*
X191349523Y-126945000D01*
X191444761Y-126897380D01*
X191682857Y-126897380D01*
X191825714Y-126945000D01*
X192825714Y-127897380D02*
X192492380Y-127421190D01*
X192254285Y-127897380D02*
X192254285Y-126897380D01*
X192635238Y-126897380D01*
X192730476Y-126945000D01*
X192778095Y-126992619D01*
X192825714Y-127087857D01*
X192825714Y-127230714D01*
X192778095Y-127325952D01*
X192730476Y-127373571D01*
X192635238Y-127421190D01*
X192254285Y-127421190D01*
X193206666Y-127611666D02*
X193682857Y-127611666D01*
X193111428Y-127897380D02*
X193444761Y-126897380D01*
X193778095Y-127897380D01*
X194111428Y-127897380D02*
X194111428Y-126897380D01*
X194444761Y-127611666D01*
X194778095Y-126897380D01*
X194778095Y-127897380D01*
X189801904Y-129547380D02*
X189325714Y-129547380D01*
X189325714Y-128547380D01*
X190278095Y-129547380D02*
X190182857Y-129499761D01*
X190135238Y-129452142D01*
X190087619Y-129356904D01*
X190087619Y-129071190D01*
X190135238Y-128975952D01*
X190182857Y-128928333D01*
X190278095Y-128880714D01*
X190420952Y-128880714D01*
X190516190Y-128928333D01*
X190563809Y-128975952D01*
X190611428Y-129071190D01*
X190611428Y-129356904D01*
X190563809Y-129452142D01*
X190516190Y-129499761D01*
X190420952Y-129547380D01*
X190278095Y-129547380D01*
X190944761Y-128880714D02*
X191135238Y-129547380D01*
X191325714Y-129071190D01*
X191516190Y-129547380D01*
X191706666Y-128880714D01*
X192468571Y-129499761D02*
X192373333Y-129547380D01*
X192182857Y-129547380D01*
X192087619Y-129499761D01*
X192040000Y-129404523D01*
X192040000Y-129023571D01*
X192087619Y-128928333D01*
X192182857Y-128880714D01*
X192373333Y-128880714D01*
X192468571Y-128928333D01*
X192516190Y-129023571D01*
X192516190Y-129118809D01*
X192040000Y-129214047D01*
X192944761Y-129547380D02*
X192944761Y-128880714D01*
X192944761Y-129071190D02*
X192992380Y-128975952D01*
X193040000Y-128928333D01*
X193135238Y-128880714D01*
X193230476Y-128880714D01*
X194230476Y-128547380D02*
X194849523Y-128547380D01*
X194516190Y-128928333D01*
X194659047Y-128928333D01*
X194754285Y-128975952D01*
X194801904Y-129023571D01*
X194849523Y-129118809D01*
X194849523Y-129356904D01*
X194801904Y-129452142D01*
X194754285Y-129499761D01*
X194659047Y-129547380D01*
X194373333Y-129547380D01*
X194278095Y-129499761D01*
X194230476Y-129452142D01*
X195230476Y-128642619D02*
X195278095Y-128595000D01*
X195373333Y-128547380D01*
X195611428Y-128547380D01*
X195706666Y-128595000D01*
X195754285Y-128642619D01*
X195801904Y-128737857D01*
X195801904Y-128833095D01*
X195754285Y-128975952D01*
X195182857Y-129547380D01*
X195801904Y-129547380D01*
X196230476Y-129547380D02*
X196230476Y-128547380D01*
X196801904Y-129547380D02*
X196373333Y-128975952D01*
X196801904Y-128547380D02*
X196230476Y-129118809D01*
X169100952Y-127563571D02*
X169434285Y-127563571D01*
X169577142Y-128087380D02*
X169100952Y-128087380D01*
X169100952Y-127087380D01*
X169577142Y-127087380D01*
X170005714Y-127563571D02*
X170339047Y-127563571D01*
X170481904Y-128087380D02*
X170005714Y-128087380D01*
X170005714Y-127087380D01*
X170481904Y-127087380D01*
X170910476Y-128087380D02*
X170910476Y-127087380D01*
X171291428Y-127087380D01*
X171386666Y-127135000D01*
X171434285Y-127182619D01*
X171481904Y-127277857D01*
X171481904Y-127420714D01*
X171434285Y-127515952D01*
X171386666Y-127563571D01*
X171291428Y-127611190D01*
X170910476Y-127611190D01*
X172481904Y-128087380D02*
X172148571Y-127611190D01*
X171910476Y-128087380D02*
X171910476Y-127087380D01*
X172291428Y-127087380D01*
X172386666Y-127135000D01*
X172434285Y-127182619D01*
X172481904Y-127277857D01*
X172481904Y-127420714D01*
X172434285Y-127515952D01*
X172386666Y-127563571D01*
X172291428Y-127611190D01*
X171910476Y-127611190D01*
X173100952Y-127087380D02*
X173291428Y-127087380D01*
X173386666Y-127135000D01*
X173481904Y-127230238D01*
X173529523Y-127420714D01*
X173529523Y-127754047D01*
X173481904Y-127944523D01*
X173386666Y-128039761D01*
X173291428Y-128087380D01*
X173100952Y-128087380D01*
X173005714Y-128039761D01*
X172910476Y-127944523D01*
X172862857Y-127754047D01*
X172862857Y-127420714D01*
X172910476Y-127230238D01*
X173005714Y-127135000D01*
X173100952Y-127087380D01*
X173958095Y-128087380D02*
X173958095Y-127087380D01*
X174291428Y-127801666D01*
X174624761Y-127087380D01*
X174624761Y-128087380D01*
X175767619Y-127087380D02*
X176386666Y-127087380D01*
X176053333Y-127468333D01*
X176196190Y-127468333D01*
X176291428Y-127515952D01*
X176339047Y-127563571D01*
X176386666Y-127658809D01*
X176386666Y-127896904D01*
X176339047Y-127992142D01*
X176291428Y-128039761D01*
X176196190Y-128087380D01*
X175910476Y-128087380D01*
X175815238Y-128039761D01*
X175767619Y-127992142D01*
X148780952Y-127563571D02*
X149114285Y-127563571D01*
X149257142Y-128087380D02*
X148780952Y-128087380D01*
X148780952Y-127087380D01*
X149257142Y-127087380D01*
X149685714Y-127563571D02*
X150019047Y-127563571D01*
X150161904Y-128087380D02*
X149685714Y-128087380D01*
X149685714Y-127087380D01*
X150161904Y-127087380D01*
X150590476Y-128087380D02*
X150590476Y-127087380D01*
X150971428Y-127087380D01*
X151066666Y-127135000D01*
X151114285Y-127182619D01*
X151161904Y-127277857D01*
X151161904Y-127420714D01*
X151114285Y-127515952D01*
X151066666Y-127563571D01*
X150971428Y-127611190D01*
X150590476Y-127611190D01*
X152161904Y-128087380D02*
X151828571Y-127611190D01*
X151590476Y-128087380D02*
X151590476Y-127087380D01*
X151971428Y-127087380D01*
X152066666Y-127135000D01*
X152114285Y-127182619D01*
X152161904Y-127277857D01*
X152161904Y-127420714D01*
X152114285Y-127515952D01*
X152066666Y-127563571D01*
X151971428Y-127611190D01*
X151590476Y-127611190D01*
X152780952Y-127087380D02*
X152971428Y-127087380D01*
X153066666Y-127135000D01*
X153161904Y-127230238D01*
X153209523Y-127420714D01*
X153209523Y-127754047D01*
X153161904Y-127944523D01*
X153066666Y-128039761D01*
X152971428Y-128087380D01*
X152780952Y-128087380D01*
X152685714Y-128039761D01*
X152590476Y-127944523D01*
X152542857Y-127754047D01*
X152542857Y-127420714D01*
X152590476Y-127230238D01*
X152685714Y-127135000D01*
X152780952Y-127087380D01*
X153638095Y-128087380D02*
X153638095Y-127087380D01*
X153971428Y-127801666D01*
X154304761Y-127087380D01*
X154304761Y-128087380D01*
X155495238Y-127182619D02*
X155542857Y-127135000D01*
X155638095Y-127087380D01*
X155876190Y-127087380D01*
X155971428Y-127135000D01*
X156019047Y-127182619D01*
X156066666Y-127277857D01*
X156066666Y-127373095D01*
X156019047Y-127515952D01*
X155447619Y-128087380D01*
X156066666Y-128087380D01*
X128460952Y-127563571D02*
X128794285Y-127563571D01*
X128937142Y-128087380D02*
X128460952Y-128087380D01*
X128460952Y-127087380D01*
X128937142Y-127087380D01*
X129365714Y-127563571D02*
X129699047Y-127563571D01*
X129841904Y-128087380D02*
X129365714Y-128087380D01*
X129365714Y-127087380D01*
X129841904Y-127087380D01*
X130270476Y-128087380D02*
X130270476Y-127087380D01*
X130651428Y-127087380D01*
X130746666Y-127135000D01*
X130794285Y-127182619D01*
X130841904Y-127277857D01*
X130841904Y-127420714D01*
X130794285Y-127515952D01*
X130746666Y-127563571D01*
X130651428Y-127611190D01*
X130270476Y-127611190D01*
X131841904Y-128087380D02*
X131508571Y-127611190D01*
X131270476Y-128087380D02*
X131270476Y-127087380D01*
X131651428Y-127087380D01*
X131746666Y-127135000D01*
X131794285Y-127182619D01*
X131841904Y-127277857D01*
X131841904Y-127420714D01*
X131794285Y-127515952D01*
X131746666Y-127563571D01*
X131651428Y-127611190D01*
X131270476Y-127611190D01*
X132460952Y-127087380D02*
X132651428Y-127087380D01*
X132746666Y-127135000D01*
X132841904Y-127230238D01*
X132889523Y-127420714D01*
X132889523Y-127754047D01*
X132841904Y-127944523D01*
X132746666Y-128039761D01*
X132651428Y-128087380D01*
X132460952Y-128087380D01*
X132365714Y-128039761D01*
X132270476Y-127944523D01*
X132222857Y-127754047D01*
X132222857Y-127420714D01*
X132270476Y-127230238D01*
X132365714Y-127135000D01*
X132460952Y-127087380D01*
X133318095Y-128087380D02*
X133318095Y-127087380D01*
X133651428Y-127801666D01*
X133984761Y-127087380D01*
X133984761Y-128087380D01*
X135746666Y-128087380D02*
X135175238Y-128087380D01*
X135460952Y-128087380D02*
X135460952Y-127087380D01*
X135365714Y-127230238D01*
X135270476Y-127325476D01*
X135175238Y-127373095D01*
X139890634Y-80736831D02*
X139890634Y-79236831D01*
X140390634Y-80308260D01*
X140890634Y-79236831D01*
X140890634Y-80736831D01*
X142176348Y-80665402D02*
X142033491Y-80736831D01*
X141747777Y-80736831D01*
X141604920Y-80665402D01*
X141533491Y-80522545D01*
X141533491Y-79951117D01*
X141604920Y-79808260D01*
X141747777Y-79736831D01*
X142033491Y-79736831D01*
X142176348Y-79808260D01*
X142247777Y-79951117D01*
X142247777Y-80093974D01*
X141533491Y-80236831D01*
X142890634Y-80736831D02*
X142890634Y-79736831D01*
X142890634Y-79879688D02*
X142962062Y-79808260D01*
X143104920Y-79736831D01*
X143319205Y-79736831D01*
X143462062Y-79808260D01*
X143533491Y-79951117D01*
X143533491Y-80736831D01*
X143533491Y-79951117D02*
X143604920Y-79808260D01*
X143747777Y-79736831D01*
X143962062Y-79736831D01*
X144104920Y-79808260D01*
X144176348Y-79951117D01*
X144176348Y-80736831D01*
X145104920Y-80736831D02*
X144962062Y-80665402D01*
X144890634Y-80593974D01*
X144819205Y-80451117D01*
X144819205Y-80022545D01*
X144890634Y-79879688D01*
X144962062Y-79808260D01*
X145104920Y-79736831D01*
X145319205Y-79736831D01*
X145462062Y-79808260D01*
X145533491Y-79879688D01*
X145604920Y-80022545D01*
X145604920Y-80451117D01*
X145533491Y-80593974D01*
X145462062Y-80665402D01*
X145319205Y-80736831D01*
X145104920Y-80736831D01*
X146247777Y-80736831D02*
X146247777Y-79736831D01*
X146247777Y-80022545D02*
X146319205Y-79879688D01*
X146390634Y-79808260D01*
X146533491Y-79736831D01*
X146676348Y-79736831D01*
X147033491Y-79736831D02*
X147390634Y-80736831D01*
X147747777Y-79736831D02*
X147390634Y-80736831D01*
X147247777Y-81093974D01*
X147176348Y-81165402D01*
X147033491Y-81236831D01*
X149462062Y-80736831D02*
X149462062Y-79236831D01*
X149462062Y-79808260D02*
X149604920Y-79736831D01*
X149890634Y-79736831D01*
X150033491Y-79808260D01*
X150104920Y-79879688D01*
X150176348Y-80022545D01*
X150176348Y-80451117D01*
X150104920Y-80593974D01*
X150033491Y-80665402D01*
X149890634Y-80736831D01*
X149604920Y-80736831D01*
X149462062Y-80665402D01*
X151033491Y-80736831D02*
X150890634Y-80665402D01*
X150819205Y-80593974D01*
X150747777Y-80451117D01*
X150747777Y-80022545D01*
X150819205Y-79879688D01*
X150890634Y-79808260D01*
X151033491Y-79736831D01*
X151247777Y-79736831D01*
X151390634Y-79808260D01*
X151462062Y-79879688D01*
X151533491Y-80022545D01*
X151533491Y-80451117D01*
X151462062Y-80593974D01*
X151390634Y-80665402D01*
X151247777Y-80736831D01*
X151033491Y-80736831D01*
X152819205Y-80736831D02*
X152819205Y-79951117D01*
X152747777Y-79808260D01*
X152604920Y-79736831D01*
X152319205Y-79736831D01*
X152176348Y-79808260D01*
X152819205Y-80665402D02*
X152676348Y-80736831D01*
X152319205Y-80736831D01*
X152176348Y-80665402D01*
X152104920Y-80522545D01*
X152104920Y-80379688D01*
X152176348Y-80236831D01*
X152319205Y-80165402D01*
X152676348Y-80165402D01*
X152819205Y-80093974D01*
X153533491Y-80736831D02*
X153533491Y-79736831D01*
X153533491Y-80022545D02*
X153604920Y-79879688D01*
X153676348Y-79808260D01*
X153819205Y-79736831D01*
X153962062Y-79736831D01*
X155104920Y-80736831D02*
X155104920Y-79236831D01*
X155104920Y-80665402D02*
X154962062Y-80736831D01*
X154676348Y-80736831D01*
X154533491Y-80665402D01*
X154462062Y-80593974D01*
X154390634Y-80451117D01*
X154390634Y-80022545D01*
X154462062Y-79879688D01*
X154533491Y-79808260D01*
X154676348Y-79736831D01*
X154962062Y-79736831D01*
X155104920Y-79808260D01*
X157747777Y-80736831D02*
X156890634Y-80736831D01*
X157319205Y-80736831D02*
X157319205Y-79236831D01*
X157176348Y-79451117D01*
X157033491Y-79593974D01*
X156890634Y-79665402D01*
X158390634Y-80593974D02*
X158462062Y-80665402D01*
X158390634Y-80736831D01*
X158319205Y-80665402D01*
X158390634Y-80593974D01*
X158390634Y-80736831D01*
X159390634Y-79236831D02*
X159533491Y-79236831D01*
X159676348Y-79308260D01*
X159747777Y-79379688D01*
X159819205Y-79522545D01*
X159890634Y-79808260D01*
X159890634Y-80165402D01*
X159819205Y-80451117D01*
X159747777Y-80593974D01*
X159676348Y-80665402D01*
X159533491Y-80736831D01*
X159390634Y-80736831D01*
X159247777Y-80665402D01*
X159176348Y-80593974D01*
X159104920Y-80451117D01*
X159033491Y-80165402D01*
X159033491Y-79808260D01*
X159104920Y-79522545D01*
X159176348Y-79379688D01*
X159247777Y-79308260D01*
X159390634Y-79236831D01*
X135427129Y-138833634D02*
X135374748Y-138905062D01*
X135217605Y-138976491D01*
X135112843Y-138976491D01*
X134955700Y-138905062D01*
X134850939Y-138762205D01*
X134798558Y-138619348D01*
X134746177Y-138333634D01*
X134746177Y-138119348D01*
X134798558Y-137833634D01*
X134850939Y-137690777D01*
X134955700Y-137547920D01*
X135112843Y-137476491D01*
X135217605Y-137476491D01*
X135374748Y-137547920D01*
X135427129Y-137619348D01*
X136055700Y-138976491D02*
X135950939Y-138905062D01*
X135898558Y-138833634D01*
X135846177Y-138690777D01*
X135846177Y-138262205D01*
X135898558Y-138119348D01*
X135950939Y-138047920D01*
X136055700Y-137976491D01*
X136212843Y-137976491D01*
X136317605Y-138047920D01*
X136369986Y-138119348D01*
X136422367Y-138262205D01*
X136422367Y-138690777D01*
X136369986Y-138833634D01*
X136317605Y-138905062D01*
X136212843Y-138976491D01*
X136055700Y-138976491D01*
X136893796Y-137976491D02*
X136893796Y-139476491D01*
X136893796Y-138047920D02*
X136998558Y-137976491D01*
X137208081Y-137976491D01*
X137312843Y-138047920D01*
X137365224Y-138119348D01*
X137417605Y-138262205D01*
X137417605Y-138690777D01*
X137365224Y-138833634D01*
X137312843Y-138905062D01*
X137208081Y-138976491D01*
X136998558Y-138976491D01*
X136893796Y-138905062D01*
X137784272Y-137976491D02*
X138046177Y-138976491D01*
X138308081Y-137976491D02*
X138046177Y-138976491D01*
X137941415Y-139333634D01*
X137889034Y-139405062D01*
X137784272Y-139476491D01*
X138727129Y-138976491D02*
X138727129Y-137976491D01*
X138727129Y-138262205D02*
X138779510Y-138119348D01*
X138831891Y-138047920D01*
X138936653Y-137976491D01*
X139041415Y-137976491D01*
X139408081Y-138976491D02*
X139408081Y-137976491D01*
X139408081Y-137476491D02*
X139355700Y-137547920D01*
X139408081Y-137619348D01*
X139460462Y-137547920D01*
X139408081Y-137476491D01*
X139408081Y-137619348D01*
X140403320Y-137976491D02*
X140403320Y-139190777D01*
X140350939Y-139333634D01*
X140298558Y-139405062D01*
X140193796Y-139476491D01*
X140036653Y-139476491D01*
X139931891Y-139405062D01*
X140403320Y-138905062D02*
X140298558Y-138976491D01*
X140089034Y-138976491D01*
X139984272Y-138905062D01*
X139931891Y-138833634D01*
X139879510Y-138690777D01*
X139879510Y-138262205D01*
X139931891Y-138119348D01*
X139984272Y-138047920D01*
X140089034Y-137976491D01*
X140298558Y-137976491D01*
X140403320Y-138047920D01*
X140927129Y-138976491D02*
X140927129Y-137476491D01*
X141398558Y-138976491D02*
X141398558Y-138190777D01*
X141346177Y-138047920D01*
X141241415Y-137976491D01*
X141084272Y-137976491D01*
X140979510Y-138047920D01*
X140927129Y-138119348D01*
X141765224Y-137976491D02*
X142184272Y-137976491D01*
X141922367Y-137476491D02*
X141922367Y-138762205D01*
X141974748Y-138905062D01*
X142079510Y-138976491D01*
X142184272Y-138976491D01*
X144279510Y-137833634D02*
X144174748Y-137762205D01*
X143965224Y-137762205D01*
X143860462Y-137833634D01*
X143755700Y-137976491D01*
X143703320Y-138119348D01*
X143703320Y-138405062D01*
X143755700Y-138547920D01*
X143860462Y-138690777D01*
X143965224Y-138762205D01*
X144174748Y-138762205D01*
X144279510Y-138690777D01*
X144069986Y-137262205D02*
X143808081Y-137333634D01*
X143546177Y-137547920D01*
X143389034Y-137905062D01*
X143336653Y-138262205D01*
X143389034Y-138619348D01*
X143546177Y-138976491D01*
X143808081Y-139190777D01*
X144069986Y-139262205D01*
X144331891Y-139190777D01*
X144593796Y-138976491D01*
X144750939Y-138619348D01*
X144803320Y-138262205D01*
X144750939Y-137905062D01*
X144593796Y-137547920D01*
X144331891Y-137333634D01*
X144069986Y-137262205D01*
X146060462Y-137619348D02*
X146112843Y-137547920D01*
X146217605Y-137476491D01*
X146479510Y-137476491D01*
X146584272Y-137547920D01*
X146636653Y-137619348D01*
X146689034Y-137762205D01*
X146689034Y-137905062D01*
X146636653Y-138119348D01*
X146008081Y-138976491D01*
X146689034Y-138976491D01*
X147369986Y-137476491D02*
X147474748Y-137476491D01*
X147579510Y-137547920D01*
X147631891Y-137619348D01*
X147684272Y-137762205D01*
X147736653Y-138047920D01*
X147736653Y-138405062D01*
X147684272Y-138690777D01*
X147631891Y-138833634D01*
X147579510Y-138905062D01*
X147474748Y-138976491D01*
X147369986Y-138976491D01*
X147265224Y-138905062D01*
X147212843Y-138833634D01*
X147160462Y-138690777D01*
X147108081Y-138405062D01*
X147108081Y-138047920D01*
X147160462Y-137762205D01*
X147212843Y-137619348D01*
X147265224Y-137547920D01*
X147369986Y-137476491D01*
X148784272Y-138976491D02*
X148155700Y-138976491D01*
X148469986Y-138976491D02*
X148469986Y-137476491D01*
X148365224Y-137690777D01*
X148260462Y-137833634D01*
X148155700Y-137905062D01*
X149412843Y-138119348D02*
X149308081Y-138047920D01*
X149255700Y-137976491D01*
X149203320Y-137833634D01*
X149203320Y-137762205D01*
X149255700Y-137619348D01*
X149308081Y-137547920D01*
X149412843Y-137476491D01*
X149622367Y-137476491D01*
X149727129Y-137547920D01*
X149779510Y-137619348D01*
X149831891Y-137762205D01*
X149831891Y-137833634D01*
X149779510Y-137976491D01*
X149727129Y-138047920D01*
X149622367Y-138119348D01*
X149412843Y-138119348D01*
X149308081Y-138190777D01*
X149255700Y-138262205D01*
X149203320Y-138405062D01*
X149203320Y-138690777D01*
X149255700Y-138833634D01*
X149308081Y-138905062D01*
X149412843Y-138976491D01*
X149622367Y-138976491D01*
X149727129Y-138905062D01*
X149779510Y-138833634D01*
X149831891Y-138690777D01*
X149831891Y-138405062D01*
X149779510Y-138262205D01*
X149727129Y-138190777D01*
X149622367Y-138119348D01*
X151141415Y-138976491D02*
X151141415Y-137476491D01*
X151141415Y-138047920D02*
X151246177Y-137976491D01*
X151455700Y-137976491D01*
X151560462Y-138047920D01*
X151612843Y-138119348D01*
X151665224Y-138262205D01*
X151665224Y-138690777D01*
X151612843Y-138833634D01*
X151560462Y-138905062D01*
X151455700Y-138976491D01*
X151246177Y-138976491D01*
X151141415Y-138905062D01*
X152031891Y-137976491D02*
X152293796Y-138976491D01*
X152555700Y-137976491D02*
X152293796Y-138976491D01*
X152189034Y-139333634D01*
X152136653Y-139405062D01*
X152031891Y-139476491D01*
X154441415Y-138976491D02*
X154074748Y-138262205D01*
X153812843Y-138976491D02*
X153812843Y-137476491D01*
X154231891Y-137476491D01*
X154336653Y-137547920D01*
X154389034Y-137619348D01*
X154441415Y-137762205D01*
X154441415Y-137976491D01*
X154389034Y-138119348D01*
X154336653Y-138190777D01*
X154231891Y-138262205D01*
X153812843Y-138262205D01*
X155803320Y-138976491D02*
X155750939Y-138976491D01*
X155646177Y-138905062D01*
X155489034Y-138690777D01*
X155227129Y-138262205D01*
X155122367Y-138047920D01*
X155069986Y-137833634D01*
X155069986Y-137690777D01*
X155122367Y-137547920D01*
X155227129Y-137476491D01*
X155279510Y-137476491D01*
X155384272Y-137547920D01*
X155436653Y-137690777D01*
X155436653Y-137762205D01*
X155384272Y-137905062D01*
X155331891Y-137976491D01*
X155017605Y-138262205D01*
X154965224Y-138333634D01*
X154912843Y-138476491D01*
X154912843Y-138690777D01*
X154965224Y-138833634D01*
X155017605Y-138905062D01*
X155122367Y-138976491D01*
X155279510Y-138976491D01*
X155384272Y-138905062D01*
X155436653Y-138833634D01*
X155593796Y-138547920D01*
X155646177Y-138333634D01*
X155646177Y-138190777D01*
X156641415Y-138190777D02*
X156274748Y-138190777D01*
X156274748Y-138976491D02*
X156274748Y-137476491D01*
X156798558Y-137476491D01*
X158055700Y-138976491D02*
X158055700Y-137476491D01*
X158474748Y-137476491D01*
X158579510Y-137547920D01*
X158631891Y-137619348D01*
X158684272Y-137762205D01*
X158684272Y-137976491D01*
X158631891Y-138119348D01*
X158579510Y-138190777D01*
X158474748Y-138262205D01*
X158055700Y-138262205D01*
X159050939Y-137976491D02*
X159312843Y-138976491D01*
X159574748Y-137976491D02*
X159312843Y-138976491D01*
X159208081Y-139333634D01*
X159155700Y-139405062D01*
X159050939Y-139476491D01*
X159993796Y-137976491D02*
X159993796Y-138976491D01*
X159993796Y-138119348D02*
X160046177Y-138047920D01*
X160150939Y-137976491D01*
X160308081Y-137976491D01*
X160412843Y-138047920D01*
X160465224Y-138190777D01*
X160465224Y-138976491D01*
X161460462Y-138905062D02*
X161355700Y-138976491D01*
X161146177Y-138976491D01*
X161041415Y-138905062D01*
X160989034Y-138833634D01*
X160936653Y-138690777D01*
X160936653Y-138262205D01*
X160989034Y-138119348D01*
X161041415Y-138047920D01*
X161146177Y-137976491D01*
X161355700Y-137976491D01*
X161460462Y-138047920D01*
X161931891Y-138976491D02*
X161931891Y-137476491D01*
X162036653Y-138405062D02*
X162350939Y-138976491D01*
X162350939Y-137976491D02*
X161931891Y-138547920D01*
X163241415Y-138905062D02*
X163136653Y-138976491D01*
X162927129Y-138976491D01*
X162822367Y-138905062D01*
X162769986Y-138762205D01*
X162769986Y-138190777D01*
X162822367Y-138047920D01*
X162927129Y-137976491D01*
X163136653Y-137976491D01*
X163241415Y-138047920D01*
X163293796Y-138190777D01*
X163293796Y-138333634D01*
X162769986Y-138476491D01*
X163922367Y-138976491D02*
X163817605Y-138905062D01*
X163765224Y-138762205D01*
X163765224Y-137476491D01*
X164289034Y-138905062D02*
X164393796Y-138976491D01*
X164603320Y-138976491D01*
X164708081Y-138905062D01*
X164760462Y-138762205D01*
X164760462Y-138690777D01*
X164708081Y-138547920D01*
X164603320Y-138476491D01*
X164446177Y-138476491D01*
X164341415Y-138405062D01*
X164289034Y-138262205D01*
X164289034Y-138190777D01*
X164341415Y-138047920D01*
X164446177Y-137976491D01*
X164603320Y-137976491D01*
X164708081Y-138047920D01*
D12*
X126688561Y-71175285D02*
X126974276Y-71318142D01*
X127450466Y-71318142D01*
X127640942Y-71175285D01*
X127736180Y-71032428D01*
X127831419Y-70746714D01*
X127831419Y-70461000D01*
X127736180Y-70175285D01*
X127640942Y-70032428D01*
X127450466Y-69889571D01*
X127069514Y-69746714D01*
X126879038Y-69603857D01*
X126783800Y-69461000D01*
X126688561Y-69175285D01*
X126688561Y-68889571D01*
X126783800Y-68603857D01*
X126879038Y-68461000D01*
X127069514Y-68318142D01*
X127545704Y-68318142D01*
X127831419Y-68461000D01*
X128402847Y-69318142D02*
X129164752Y-69318142D01*
X128688561Y-68318142D02*
X128688561Y-70889571D01*
X128783800Y-71175285D01*
X128974276Y-71318142D01*
X129164752Y-71318142D01*
X130688561Y-71318142D02*
X130688561Y-69746714D01*
X130593323Y-69461000D01*
X130402847Y-69318142D01*
X130021895Y-69318142D01*
X129831419Y-69461000D01*
X130688561Y-71175285D02*
X130498085Y-71318142D01*
X130021895Y-71318142D01*
X129831419Y-71175285D01*
X129736180Y-70889571D01*
X129736180Y-70603857D01*
X129831419Y-70318142D01*
X130021895Y-70175285D01*
X130498085Y-70175285D01*
X130688561Y-70032428D01*
X132498085Y-71175285D02*
X132307609Y-71318142D01*
X131926657Y-71318142D01*
X131736180Y-71175285D01*
X131640942Y-71032428D01*
X131545704Y-70746714D01*
X131545704Y-69889571D01*
X131640942Y-69603857D01*
X131736180Y-69461000D01*
X131926657Y-69318142D01*
X132307609Y-69318142D01*
X132498085Y-69461000D01*
X133355228Y-71318142D02*
X133355228Y-68318142D01*
X133545704Y-70175285D02*
X134117133Y-71318142D01*
X134117133Y-69318142D02*
X133355228Y-70461000D01*
X135831419Y-71318142D02*
X135831419Y-69746714D01*
X135736180Y-69461000D01*
X135545704Y-69318142D01*
X135164752Y-69318142D01*
X134974276Y-69461000D01*
X135831419Y-71175285D02*
X135640942Y-71318142D01*
X135164752Y-71318142D01*
X134974276Y-71175285D01*
X134879038Y-70889571D01*
X134879038Y-70603857D01*
X134974276Y-70318142D01*
X135164752Y-70175285D01*
X135640942Y-70175285D01*
X135831419Y-70032428D01*
X136783800Y-71318142D02*
X136783800Y-68318142D01*
X136783800Y-69461000D02*
X136974276Y-69318142D01*
X137355228Y-69318142D01*
X137545704Y-69461000D01*
X137640942Y-69603857D01*
X137736180Y-69889571D01*
X137736180Y-70746714D01*
X137640942Y-71032428D01*
X137545704Y-71175285D01*
X137355228Y-71318142D01*
X136974276Y-71318142D01*
X136783800Y-71175285D01*
X138879038Y-71318142D02*
X138688561Y-71175285D01*
X138593323Y-70889571D01*
X138593323Y-68318142D01*
X140402847Y-71175285D02*
X140212371Y-71318142D01*
X139831419Y-71318142D01*
X139640942Y-71175285D01*
X139545704Y-70889571D01*
X139545704Y-69746714D01*
X139640942Y-69461000D01*
X139831419Y-69318142D01*
X140212371Y-69318142D01*
X140402847Y-69461000D01*
X140498085Y-69746714D01*
X140498085Y-70032428D01*
X139545704Y-70318142D01*
X142688561Y-68318142D02*
X144021895Y-68318142D01*
X142688561Y-71318142D01*
X144021895Y-71318142D01*
X145069514Y-69603857D02*
X144879038Y-69461000D01*
X144783800Y-69318142D01*
X144688561Y-69032428D01*
X144688561Y-68889571D01*
X144783800Y-68603857D01*
X144879038Y-68461000D01*
X145069514Y-68318142D01*
X145450466Y-68318142D01*
X145640942Y-68461000D01*
X145736180Y-68603857D01*
X145831419Y-68889571D01*
X145831419Y-69032428D01*
X145736180Y-69318142D01*
X145640942Y-69461000D01*
X145450466Y-69603857D01*
X145069514Y-69603857D01*
X144879038Y-69746714D01*
X144783800Y-69889571D01*
X144688561Y-70175285D01*
X144688561Y-70746714D01*
X144783800Y-71032428D01*
X144879038Y-71175285D01*
X145069514Y-71318142D01*
X145450466Y-71318142D01*
X145640942Y-71175285D01*
X145736180Y-71032428D01*
X145831419Y-70746714D01*
X145831419Y-70175285D01*
X145736180Y-69889571D01*
X145640942Y-69746714D01*
X145450466Y-69603857D01*
X147069514Y-68318142D02*
X147259990Y-68318142D01*
X147450466Y-68461000D01*
X147545704Y-68603857D01*
X147640942Y-68889571D01*
X147736180Y-69461000D01*
X147736180Y-70175285D01*
X147640942Y-70746714D01*
X147545704Y-71032428D01*
X147450466Y-71175285D01*
X147259990Y-71318142D01*
X147069514Y-71318142D01*
X146879038Y-71175285D01*
X146783800Y-71032428D01*
X146688561Y-70746714D01*
X146593323Y-70175285D01*
X146593323Y-69461000D01*
X146688561Y-68889571D01*
X146783800Y-68603857D01*
X146879038Y-68461000D01*
X147069514Y-68318142D01*
X151259990Y-71318142D02*
X150593323Y-69889571D01*
X150117133Y-71318142D02*
X150117133Y-68318142D01*
X150879038Y-68318142D01*
X151069514Y-68461000D01*
X151164752Y-68603857D01*
X151259990Y-68889571D01*
X151259990Y-69318142D01*
X151164752Y-69603857D01*
X151069514Y-69746714D01*
X150879038Y-69889571D01*
X150117133Y-69889571D01*
X152879038Y-71175285D02*
X152688561Y-71318142D01*
X152307609Y-71318142D01*
X152117133Y-71175285D01*
X152021895Y-70889571D01*
X152021895Y-69746714D01*
X152117133Y-69461000D01*
X152307609Y-69318142D01*
X152688561Y-69318142D01*
X152879038Y-69461000D01*
X152974276Y-69746714D01*
X152974276Y-70032428D01*
X152021895Y-70318142D01*
X153545704Y-69318142D02*
X154307609Y-69318142D01*
X153831419Y-68318142D02*
X153831419Y-70889571D01*
X153926657Y-71175285D01*
X154117133Y-71318142D01*
X154307609Y-71318142D01*
X154974276Y-71318142D02*
X154974276Y-69318142D01*
X154974276Y-69889571D02*
X155069514Y-69603857D01*
X155164752Y-69461000D01*
X155355228Y-69318142D01*
X155545704Y-69318142D01*
X156498085Y-71318142D02*
X156307609Y-71175285D01*
X156212371Y-71032428D01*
X156117133Y-70746714D01*
X156117133Y-69889571D01*
X156212371Y-69603857D01*
X156307609Y-69461000D01*
X156498085Y-69318142D01*
X156783800Y-69318142D01*
X156974276Y-69461000D01*
X157069514Y-69603857D01*
X157164752Y-69889571D01*
X157164752Y-70746714D01*
X157069514Y-71032428D01*
X156974276Y-71175285D01*
X156783800Y-71318142D01*
X156498085Y-71318142D01*
X160688561Y-71032428D02*
X160593323Y-71175285D01*
X160307609Y-71318142D01*
X160117133Y-71318142D01*
X159831419Y-71175285D01*
X159640942Y-70889571D01*
X159545704Y-70603857D01*
X159450466Y-70032428D01*
X159450466Y-69603857D01*
X159545704Y-69032428D01*
X159640942Y-68746714D01*
X159831419Y-68461000D01*
X160117133Y-68318142D01*
X160307609Y-68318142D01*
X160593323Y-68461000D01*
X160688561Y-68603857D01*
X161831419Y-71318142D02*
X161640942Y-71175285D01*
X161545704Y-71032428D01*
X161450466Y-70746714D01*
X161450466Y-69889571D01*
X161545704Y-69603857D01*
X161640942Y-69461000D01*
X161831419Y-69318142D01*
X162117133Y-69318142D01*
X162307609Y-69461000D01*
X162402847Y-69603857D01*
X162498085Y-69889571D01*
X162498085Y-70746714D01*
X162402847Y-71032428D01*
X162307609Y-71175285D01*
X162117133Y-71318142D01*
X161831419Y-71318142D01*
X163355228Y-71318142D02*
X163355228Y-69318142D01*
X163355228Y-69603857D02*
X163450466Y-69461000D01*
X163640942Y-69318142D01*
X163926657Y-69318142D01*
X164117133Y-69461000D01*
X164212371Y-69746714D01*
X164212371Y-71318142D01*
X164212371Y-69746714D02*
X164307609Y-69461000D01*
X164498085Y-69318142D01*
X164783800Y-69318142D01*
X164974276Y-69461000D01*
X165069514Y-69746714D01*
X165069514Y-71318142D01*
X166021895Y-69318142D02*
X166021895Y-72318142D01*
X166021895Y-69461000D02*
X166212371Y-69318142D01*
X166593323Y-69318142D01*
X166783800Y-69461000D01*
X166879038Y-69603857D01*
X166974276Y-69889571D01*
X166974276Y-70746714D01*
X166879038Y-71032428D01*
X166783800Y-71175285D01*
X166593323Y-71318142D01*
X166212371Y-71318142D01*
X166021895Y-71175285D01*
X168688561Y-69318142D02*
X168688561Y-71318142D01*
X167831419Y-69318142D02*
X167831419Y-70889571D01*
X167926657Y-71175285D01*
X168117133Y-71318142D01*
X168402847Y-71318142D01*
X168593323Y-71175285D01*
X168688561Y-71032428D01*
X169355228Y-69318142D02*
X170117133Y-69318142D01*
X169640942Y-68318142D02*
X169640942Y-70889571D01*
X169736180Y-71175285D01*
X169926657Y-71318142D01*
X170117133Y-71318142D01*
X171545704Y-71175285D02*
X171355228Y-71318142D01*
X170974276Y-71318142D01*
X170783799Y-71175285D01*
X170688561Y-70889571D01*
X170688561Y-69746714D01*
X170783799Y-69461000D01*
X170974276Y-69318142D01*
X171355228Y-69318142D01*
X171545704Y-69461000D01*
X171640942Y-69746714D01*
X171640942Y-70032428D01*
X170688561Y-70318142D01*
X172498085Y-71318142D02*
X172498085Y-69318142D01*
X172498085Y-69889571D02*
X172593323Y-69603857D01*
X172688561Y-69461000D01*
X172879038Y-69318142D01*
X173069514Y-69318142D01*
D13*
X76775000Y-86300000D02*
X78105000Y-86300000D01*
X76775000Y-87630000D02*
X76775000Y-86300000D01*
X79375000Y-86300000D02*
X81975000Y-86300000D01*
X79375000Y-88900000D02*
X79375000Y-86300000D01*
X76775000Y-88900000D02*
X79375000Y-88900000D01*
X81975000Y-86300000D02*
X81975000Y-106740000D01*
X76775000Y-88900000D02*
X76775000Y-106740000D01*
X76775000Y-106740000D02*
X81975000Y-106740000D01*
X124425400Y-76708000D02*
X124425400Y-78038000D01*
X124425400Y-78038000D02*
X125755400Y-78038000D01*
X124425400Y-75438000D02*
X127025400Y-75438000D01*
X127025400Y-75438000D02*
X127025400Y-78038000D01*
X127025400Y-78038000D02*
X175345400Y-78038000D01*
X175345400Y-72838000D02*
X175345400Y-78038000D01*
X124425400Y-72838000D02*
X175345400Y-72838000D01*
X124425400Y-72838000D02*
X124425400Y-75438000D01*
X124908000Y-135178800D02*
X124908000Y-133848800D01*
X124908000Y-133848800D02*
X126238000Y-133848800D01*
X127508000Y-133848800D02*
X145348000Y-133848800D01*
X145348000Y-136508800D02*
X145348000Y-133848800D01*
X127508000Y-136508800D02*
X145348000Y-136508800D01*
X127508000Y-136508800D02*
X127508000Y-133848800D01*
X156972000Y-136508800D02*
X156972000Y-133848800D01*
X156972000Y-136508800D02*
X174812000Y-136508800D01*
X174812000Y-136508800D02*
X174812000Y-133848800D01*
X156972000Y-133848800D02*
X174812000Y-133848800D01*
X154372000Y-133848800D02*
X155702000Y-133848800D01*
X154372000Y-135178800D02*
X154372000Y-133848800D01*
X92750000Y-107735000D02*
X92750000Y-108050000D01*
X92750000Y-105310000D02*
X92750000Y-105625000D01*
X87510000Y-107735000D02*
X87510000Y-108050000D01*
X87510000Y-105310000D02*
X87510000Y-105625000D01*
X87510000Y-108050000D02*
X92750000Y-108050000D01*
X87510000Y-105310000D02*
X92750000Y-105310000D01*
X129420000Y-123090000D02*
X134660000Y-123090000D01*
X129420000Y-125830000D02*
X134660000Y-125830000D01*
X129420000Y-123090000D02*
X129420000Y-123405000D01*
X129420000Y-125515000D02*
X129420000Y-125830000D01*
X134660000Y-123090000D02*
X134660000Y-123405000D01*
X134660000Y-125515000D02*
X134660000Y-125830000D01*
X105450000Y-107735000D02*
X105450000Y-108050000D01*
X105450000Y-105310000D02*
X105450000Y-105625000D01*
X100210000Y-107735000D02*
X100210000Y-108050000D01*
X100210000Y-105310000D02*
X100210000Y-105625000D01*
X100210000Y-108050000D02*
X105450000Y-108050000D01*
X100210000Y-105310000D02*
X105450000Y-105310000D01*
X149740000Y-123090000D02*
X154980000Y-123090000D01*
X149740000Y-125830000D02*
X154980000Y-125830000D01*
X149740000Y-123090000D02*
X149740000Y-123405000D01*
X149740000Y-125515000D02*
X149740000Y-125830000D01*
X154980000Y-123090000D02*
X154980000Y-123405000D01*
X154980000Y-125515000D02*
X154980000Y-125830000D01*
X175300000Y-125515000D02*
X175300000Y-125830000D01*
X175300000Y-123090000D02*
X175300000Y-123405000D01*
X170060000Y-125515000D02*
X170060000Y-125830000D01*
X170060000Y-123090000D02*
X170060000Y-123405000D01*
X170060000Y-125830000D02*
X175300000Y-125830000D01*
X170060000Y-123090000D02*
X175300000Y-123090000D01*
X190380000Y-123090000D02*
X195620000Y-123090000D01*
X190380000Y-125830000D02*
X195620000Y-125830000D01*
X190380000Y-123090000D02*
X190380000Y-123405000D01*
X190380000Y-125515000D02*
X190380000Y-125830000D01*
X195620000Y-123090000D02*
X195620000Y-123405000D01*
X195620000Y-125515000D02*
X195620000Y-125830000D01*
X217210000Y-125515000D02*
X217210000Y-125830000D01*
X217210000Y-123090000D02*
X217210000Y-123405000D01*
X211970000Y-125515000D02*
X211970000Y-125830000D01*
X211970000Y-123090000D02*
X211970000Y-123405000D01*
X211970000Y-125830000D02*
X217210000Y-125830000D01*
X211970000Y-123090000D02*
X217210000Y-123090000D01*
X112910000Y-112930000D02*
X118150000Y-112930000D01*
X112910000Y-115670000D02*
X118150000Y-115670000D01*
X112910000Y-112930000D02*
X112910000Y-113245000D01*
X112910000Y-115355000D02*
X112910000Y-115670000D01*
X118150000Y-112930000D02*
X118150000Y-113245000D01*
X118150000Y-115355000D02*
X118150000Y-115670000D01*
X99444999Y-128170000D02*
X99444999Y-128500000D01*
X105984999Y-128170000D02*
X99444999Y-128170000D01*
X105984999Y-128500000D02*
X105984999Y-128170000D01*
X99444999Y-130910000D02*
X99444999Y-130580000D01*
X105984999Y-130910000D02*
X99444999Y-130910000D01*
X105984999Y-130580000D02*
X105984999Y-130910000D01*
X106140000Y-126770000D02*
X106140000Y-127100000D01*
X106140000Y-127100000D02*
X99600000Y-127100000D01*
X99600000Y-127100000D02*
X99600000Y-126770000D01*
X106140000Y-124690000D02*
X106140000Y-124360000D01*
X106140000Y-124360000D02*
X99600000Y-124360000D01*
X99600000Y-124360000D02*
X99600000Y-124690000D01*
X99600000Y-120550000D02*
X99600000Y-120880000D01*
X106140000Y-120550000D02*
X99600000Y-120550000D01*
X106140000Y-120880000D02*
X106140000Y-120550000D01*
X99600000Y-123290000D02*
X99600000Y-122960000D01*
X106140000Y-123290000D02*
X99600000Y-123290000D01*
X106140000Y-122960000D02*
X106140000Y-123290000D01*
X99600000Y-116740000D02*
X99600000Y-117070000D01*
X106140000Y-116740000D02*
X99600000Y-116740000D01*
X106140000Y-117070000D02*
X106140000Y-116740000D01*
X99600000Y-119480000D02*
X99600000Y-119150000D01*
X106140000Y-119480000D02*
X99600000Y-119480000D01*
X106140000Y-119150000D02*
X106140000Y-119480000D01*
X106140000Y-115340000D02*
X106140000Y-115670000D01*
X106140000Y-115670000D02*
X99600000Y-115670000D01*
X99600000Y-115670000D02*
X99600000Y-115340000D01*
X106140000Y-113260000D02*
X106140000Y-112930000D01*
X106140000Y-112930000D02*
X99600000Y-112930000D01*
X99600000Y-112930000D02*
X99600000Y-113260000D01*
X106140000Y-111530000D02*
X106140000Y-111860000D01*
X106140000Y-111860000D02*
X99600000Y-111860000D01*
X99600000Y-111860000D02*
X99600000Y-111530000D01*
X106140000Y-109450000D02*
X106140000Y-109120000D01*
X106140000Y-109120000D02*
X99600000Y-109120000D01*
X99600000Y-109120000D02*
X99600000Y-109450000D01*
X86900000Y-112930000D02*
X86900000Y-113260000D01*
X93440000Y-112930000D02*
X86900000Y-112930000D01*
X93440000Y-113260000D02*
X93440000Y-112930000D01*
X86900000Y-115670000D02*
X86900000Y-115340000D01*
X93440000Y-115670000D02*
X86900000Y-115670000D01*
X93440000Y-115340000D02*
X93440000Y-115670000D01*
X86900000Y-116740000D02*
X86900000Y-117070000D01*
X93440000Y-116740000D02*
X86900000Y-116740000D01*
X93440000Y-117070000D02*
X93440000Y-116740000D01*
X86900000Y-119480000D02*
X86900000Y-119150000D01*
X93440000Y-119480000D02*
X86900000Y-119480000D01*
X93440000Y-119150000D02*
X93440000Y-119480000D01*
X93440000Y-123290000D02*
X93440000Y-122960000D01*
X86900000Y-123290000D02*
X93440000Y-123290000D01*
X86900000Y-122960000D02*
X86900000Y-123290000D01*
X93440000Y-120550000D02*
X93440000Y-120880000D01*
X86900000Y-120550000D02*
X93440000Y-120550000D01*
X86900000Y-120880000D02*
X86900000Y-120550000D01*
X86900000Y-124690000D02*
X86900000Y-124360000D01*
X86900000Y-124360000D02*
X93440000Y-124360000D01*
X93440000Y-124360000D02*
X93440000Y-124690000D01*
X86900000Y-126770000D02*
X86900000Y-127100000D01*
X86900000Y-127100000D02*
X93440000Y-127100000D01*
X93440000Y-127100000D02*
X93440000Y-126770000D01*
X93440000Y-130910000D02*
X93440000Y-130580000D01*
X86900000Y-130910000D02*
X93440000Y-130910000D01*
X86900000Y-130580000D02*
X86900000Y-130910000D01*
X93440000Y-128170000D02*
X93440000Y-128500000D01*
X86900000Y-128170000D02*
X93440000Y-128170000D01*
X86900000Y-128500000D02*
X86900000Y-128170000D01*
X91170000Y-86300000D02*
G75*
G02X89170000Y-86300000I-1000000J0D01*
G01*
X89170000Y-86300000D02*
X87520000Y-86300000D01*
X87520000Y-86300000D02*
X87520000Y-104200000D01*
X87520000Y-104200000D02*
X92820000Y-104200000D01*
X92820000Y-104200000D02*
X92820000Y-86300000D01*
X92820000Y-86300000D02*
X91170000Y-86300000D01*
X138540000Y-86300000D02*
X133080000Y-86300000D01*
X138540000Y-121980000D02*
X138540000Y-86300000D01*
X125620000Y-121980000D02*
X138540000Y-121980000D01*
X125620000Y-86300000D02*
X125620000Y-121980000D01*
X131080000Y-86300000D02*
X125620000Y-86300000D01*
X133080000Y-86300000D02*
G75*
G02X131080000Y-86300000I-1000000J0D01*
G01*
X103870000Y-86300000D02*
G75*
G02X101870000Y-86300000I-1000000J0D01*
G01*
X101870000Y-86300000D02*
X100220000Y-86300000D01*
X100220000Y-86300000D02*
X100220000Y-104200000D01*
X100220000Y-104200000D02*
X105520000Y-104200000D01*
X105520000Y-104200000D02*
X105520000Y-86300000D01*
X105520000Y-86300000D02*
X103870000Y-86300000D01*
X153400000Y-86300000D02*
G75*
G02X151400000Y-86300000I-1000000J0D01*
G01*
X151400000Y-86300000D02*
X145940000Y-86300000D01*
X145940000Y-86300000D02*
X145940000Y-121980000D01*
X145940000Y-121980000D02*
X158860000Y-121980000D01*
X158860000Y-121980000D02*
X158860000Y-86300000D01*
X158860000Y-86300000D02*
X153400000Y-86300000D01*
X179180000Y-86300000D02*
X173720000Y-86300000D01*
X179180000Y-121980000D02*
X179180000Y-86300000D01*
X166260000Y-121980000D02*
X179180000Y-121980000D01*
X166260000Y-86300000D02*
X166260000Y-121980000D01*
X171720000Y-86300000D02*
X166260000Y-86300000D01*
X173720000Y-86300000D02*
G75*
G02X171720000Y-86300000I-1000000J0D01*
G01*
X194040000Y-86300000D02*
G75*
G02X192040000Y-86300000I-1000000J0D01*
G01*
X192040000Y-86300000D02*
X186580000Y-86300000D01*
X186580000Y-86300000D02*
X186580000Y-121980000D01*
X186580000Y-121980000D02*
X199500000Y-121980000D01*
X199500000Y-121980000D02*
X199500000Y-86300000D01*
X199500000Y-86300000D02*
X194040000Y-86300000D01*
X214360000Y-86300000D02*
G75*
G02X212360000Y-86300000I-1000000J0D01*
G01*
X212360000Y-86300000D02*
X206900000Y-86300000D01*
X206900000Y-86300000D02*
X206900000Y-121980000D01*
X206900000Y-121980000D02*
X219820000Y-121980000D01*
X219820000Y-121980000D02*
X219820000Y-86300000D01*
X219820000Y-86300000D02*
X214360000Y-86300000D01*
X116570000Y-86300000D02*
G75*
G02X114570000Y-86300000I-1000000J0D01*
G01*
X114570000Y-86300000D02*
X112920000Y-86300000D01*
X112920000Y-86300000D02*
X112920000Y-111820000D01*
X112920000Y-111820000D02*
X118220000Y-111820000D01*
X118220000Y-111820000D02*
X118220000Y-86300000D01*
X118220000Y-86300000D02*
X116570000Y-86300000D01*
X76775000Y-120710000D02*
X81975000Y-120710000D01*
X76775000Y-115570000D02*
X76775000Y-120710000D01*
X81975000Y-112970000D02*
X81975000Y-120710000D01*
X76775000Y-115570000D02*
X79375000Y-115570000D01*
X79375000Y-115570000D02*
X79375000Y-112970000D01*
X79375000Y-112970000D02*
X81975000Y-112970000D01*
X76775000Y-114300000D02*
X76775000Y-112970000D01*
X76775000Y-112970000D02*
X78105000Y-112970000D01*
D11*
X89010952Y-107037142D02*
X88963333Y-107084761D01*
X88820476Y-107132380D01*
X88725238Y-107132380D01*
X88582380Y-107084761D01*
X88487142Y-106989523D01*
X88439523Y-106894285D01*
X88391904Y-106703809D01*
X88391904Y-106560952D01*
X88439523Y-106370476D01*
X88487142Y-106275238D01*
X88582380Y-106180000D01*
X88725238Y-106132380D01*
X88820476Y-106132380D01*
X88963333Y-106180000D01*
X89010952Y-106227619D01*
X89344285Y-106132380D02*
X89963333Y-106132380D01*
X89630000Y-106513333D01*
X89772857Y-106513333D01*
X89868095Y-106560952D01*
X89915714Y-106608571D01*
X89963333Y-106703809D01*
X89963333Y-106941904D01*
X89915714Y-107037142D01*
X89868095Y-107084761D01*
X89772857Y-107132380D01*
X89487142Y-107132380D01*
X89391904Y-107084761D01*
X89344285Y-107037142D01*
X90582380Y-106132380D02*
X90677619Y-106132380D01*
X90772857Y-106180000D01*
X90820476Y-106227619D01*
X90868095Y-106322857D01*
X90915714Y-106513333D01*
X90915714Y-106751428D01*
X90868095Y-106941904D01*
X90820476Y-107037142D01*
X90772857Y-107084761D01*
X90677619Y-107132380D01*
X90582380Y-107132380D01*
X90487142Y-107084761D01*
X90439523Y-107037142D01*
X90391904Y-106941904D01*
X90344285Y-106751428D01*
X90344285Y-106513333D01*
X90391904Y-106322857D01*
X90439523Y-106227619D01*
X90487142Y-106180000D01*
X90582380Y-106132380D01*
X91868095Y-107132380D02*
X91296666Y-107132380D01*
X91582380Y-107132380D02*
X91582380Y-106132380D01*
X91487142Y-106275238D01*
X91391904Y-106370476D01*
X91296666Y-106418095D01*
X130920952Y-124817142D02*
X130873333Y-124864761D01*
X130730476Y-124912380D01*
X130635238Y-124912380D01*
X130492380Y-124864761D01*
X130397142Y-124769523D01*
X130349523Y-124674285D01*
X130301904Y-124483809D01*
X130301904Y-124340952D01*
X130349523Y-124150476D01*
X130397142Y-124055238D01*
X130492380Y-123960000D01*
X130635238Y-123912380D01*
X130730476Y-123912380D01*
X130873333Y-123960000D01*
X130920952Y-124007619D01*
X131254285Y-123912380D02*
X131873333Y-123912380D01*
X131540000Y-124293333D01*
X131682857Y-124293333D01*
X131778095Y-124340952D01*
X131825714Y-124388571D01*
X131873333Y-124483809D01*
X131873333Y-124721904D01*
X131825714Y-124817142D01*
X131778095Y-124864761D01*
X131682857Y-124912380D01*
X131397142Y-124912380D01*
X131301904Y-124864761D01*
X131254285Y-124817142D01*
X132492380Y-123912380D02*
X132587619Y-123912380D01*
X132682857Y-123960000D01*
X132730476Y-124007619D01*
X132778095Y-124102857D01*
X132825714Y-124293333D01*
X132825714Y-124531428D01*
X132778095Y-124721904D01*
X132730476Y-124817142D01*
X132682857Y-124864761D01*
X132587619Y-124912380D01*
X132492380Y-124912380D01*
X132397142Y-124864761D01*
X132349523Y-124817142D01*
X132301904Y-124721904D01*
X132254285Y-124531428D01*
X132254285Y-124293333D01*
X132301904Y-124102857D01*
X132349523Y-124007619D01*
X132397142Y-123960000D01*
X132492380Y-123912380D01*
X133206666Y-124007619D02*
X133254285Y-123960000D01*
X133349523Y-123912380D01*
X133587619Y-123912380D01*
X133682857Y-123960000D01*
X133730476Y-124007619D01*
X133778095Y-124102857D01*
X133778095Y-124198095D01*
X133730476Y-124340952D01*
X133159047Y-124912380D01*
X133778095Y-124912380D01*
X101710952Y-107037142D02*
X101663333Y-107084761D01*
X101520476Y-107132380D01*
X101425238Y-107132380D01*
X101282380Y-107084761D01*
X101187142Y-106989523D01*
X101139523Y-106894285D01*
X101091904Y-106703809D01*
X101091904Y-106560952D01*
X101139523Y-106370476D01*
X101187142Y-106275238D01*
X101282380Y-106180000D01*
X101425238Y-106132380D01*
X101520476Y-106132380D01*
X101663333Y-106180000D01*
X101710952Y-106227619D01*
X102044285Y-106132380D02*
X102663333Y-106132380D01*
X102330000Y-106513333D01*
X102472857Y-106513333D01*
X102568095Y-106560952D01*
X102615714Y-106608571D01*
X102663333Y-106703809D01*
X102663333Y-106941904D01*
X102615714Y-107037142D01*
X102568095Y-107084761D01*
X102472857Y-107132380D01*
X102187142Y-107132380D01*
X102091904Y-107084761D01*
X102044285Y-107037142D01*
X103282380Y-106132380D02*
X103377619Y-106132380D01*
X103472857Y-106180000D01*
X103520476Y-106227619D01*
X103568095Y-106322857D01*
X103615714Y-106513333D01*
X103615714Y-106751428D01*
X103568095Y-106941904D01*
X103520476Y-107037142D01*
X103472857Y-107084761D01*
X103377619Y-107132380D01*
X103282380Y-107132380D01*
X103187142Y-107084761D01*
X103139523Y-107037142D01*
X103091904Y-106941904D01*
X103044285Y-106751428D01*
X103044285Y-106513333D01*
X103091904Y-106322857D01*
X103139523Y-106227619D01*
X103187142Y-106180000D01*
X103282380Y-106132380D01*
X103949047Y-106132380D02*
X104568095Y-106132380D01*
X104234761Y-106513333D01*
X104377619Y-106513333D01*
X104472857Y-106560952D01*
X104520476Y-106608571D01*
X104568095Y-106703809D01*
X104568095Y-106941904D01*
X104520476Y-107037142D01*
X104472857Y-107084761D01*
X104377619Y-107132380D01*
X104091904Y-107132380D01*
X103996666Y-107084761D01*
X103949047Y-107037142D01*
X151240952Y-124817142D02*
X151193333Y-124864761D01*
X151050476Y-124912380D01*
X150955238Y-124912380D01*
X150812380Y-124864761D01*
X150717142Y-124769523D01*
X150669523Y-124674285D01*
X150621904Y-124483809D01*
X150621904Y-124340952D01*
X150669523Y-124150476D01*
X150717142Y-124055238D01*
X150812380Y-123960000D01*
X150955238Y-123912380D01*
X151050476Y-123912380D01*
X151193333Y-123960000D01*
X151240952Y-124007619D01*
X151574285Y-123912380D02*
X152193333Y-123912380D01*
X151860000Y-124293333D01*
X152002857Y-124293333D01*
X152098095Y-124340952D01*
X152145714Y-124388571D01*
X152193333Y-124483809D01*
X152193333Y-124721904D01*
X152145714Y-124817142D01*
X152098095Y-124864761D01*
X152002857Y-124912380D01*
X151717142Y-124912380D01*
X151621904Y-124864761D01*
X151574285Y-124817142D01*
X152812380Y-123912380D02*
X152907619Y-123912380D01*
X153002857Y-123960000D01*
X153050476Y-124007619D01*
X153098095Y-124102857D01*
X153145714Y-124293333D01*
X153145714Y-124531428D01*
X153098095Y-124721904D01*
X153050476Y-124817142D01*
X153002857Y-124864761D01*
X152907619Y-124912380D01*
X152812380Y-124912380D01*
X152717142Y-124864761D01*
X152669523Y-124817142D01*
X152621904Y-124721904D01*
X152574285Y-124531428D01*
X152574285Y-124293333D01*
X152621904Y-124102857D01*
X152669523Y-124007619D01*
X152717142Y-123960000D01*
X152812380Y-123912380D01*
X154002857Y-124245714D02*
X154002857Y-124912380D01*
X153764761Y-123864761D02*
X153526666Y-124579047D01*
X154145714Y-124579047D01*
X171600952Y-124817142D02*
X171553333Y-124864761D01*
X171410476Y-124912380D01*
X171315238Y-124912380D01*
X171172380Y-124864761D01*
X171077142Y-124769523D01*
X171029523Y-124674285D01*
X170981904Y-124483809D01*
X170981904Y-124340952D01*
X171029523Y-124150476D01*
X171077142Y-124055238D01*
X171172380Y-123960000D01*
X171315238Y-123912380D01*
X171410476Y-123912380D01*
X171553333Y-123960000D01*
X171600952Y-124007619D01*
X171934285Y-123912380D02*
X172553333Y-123912380D01*
X172220000Y-124293333D01*
X172362857Y-124293333D01*
X172458095Y-124340952D01*
X172505714Y-124388571D01*
X172553333Y-124483809D01*
X172553333Y-124721904D01*
X172505714Y-124817142D01*
X172458095Y-124864761D01*
X172362857Y-124912380D01*
X172077142Y-124912380D01*
X171981904Y-124864761D01*
X171934285Y-124817142D01*
X173172380Y-123912380D02*
X173267619Y-123912380D01*
X173362857Y-123960000D01*
X173410476Y-124007619D01*
X173458095Y-124102857D01*
X173505714Y-124293333D01*
X173505714Y-124531428D01*
X173458095Y-124721904D01*
X173410476Y-124817142D01*
X173362857Y-124864761D01*
X173267619Y-124912380D01*
X173172380Y-124912380D01*
X173077142Y-124864761D01*
X173029523Y-124817142D01*
X172981904Y-124721904D01*
X172934285Y-124531428D01*
X172934285Y-124293333D01*
X172981904Y-124102857D01*
X173029523Y-124007619D01*
X173077142Y-123960000D01*
X173172380Y-123912380D01*
X174410476Y-123912380D02*
X173934285Y-123912380D01*
X173886666Y-124388571D01*
X173934285Y-124340952D01*
X174029523Y-124293333D01*
X174267619Y-124293333D01*
X174362857Y-124340952D01*
X174410476Y-124388571D01*
X174458095Y-124483809D01*
X174458095Y-124721904D01*
X174410476Y-124817142D01*
X174362857Y-124864761D01*
X174267619Y-124912380D01*
X174029523Y-124912380D01*
X173934285Y-124864761D01*
X173886666Y-124817142D01*
X191880952Y-124817142D02*
X191833333Y-124864761D01*
X191690476Y-124912380D01*
X191595238Y-124912380D01*
X191452380Y-124864761D01*
X191357142Y-124769523D01*
X191309523Y-124674285D01*
X191261904Y-124483809D01*
X191261904Y-124340952D01*
X191309523Y-124150476D01*
X191357142Y-124055238D01*
X191452380Y-123960000D01*
X191595238Y-123912380D01*
X191690476Y-123912380D01*
X191833333Y-123960000D01*
X191880952Y-124007619D01*
X192214285Y-123912380D02*
X192833333Y-123912380D01*
X192500000Y-124293333D01*
X192642857Y-124293333D01*
X192738095Y-124340952D01*
X192785714Y-124388571D01*
X192833333Y-124483809D01*
X192833333Y-124721904D01*
X192785714Y-124817142D01*
X192738095Y-124864761D01*
X192642857Y-124912380D01*
X192357142Y-124912380D01*
X192261904Y-124864761D01*
X192214285Y-124817142D01*
X193452380Y-123912380D02*
X193547619Y-123912380D01*
X193642857Y-123960000D01*
X193690476Y-124007619D01*
X193738095Y-124102857D01*
X193785714Y-124293333D01*
X193785714Y-124531428D01*
X193738095Y-124721904D01*
X193690476Y-124817142D01*
X193642857Y-124864761D01*
X193547619Y-124912380D01*
X193452380Y-124912380D01*
X193357142Y-124864761D01*
X193309523Y-124817142D01*
X193261904Y-124721904D01*
X193214285Y-124531428D01*
X193214285Y-124293333D01*
X193261904Y-124102857D01*
X193309523Y-124007619D01*
X193357142Y-123960000D01*
X193452380Y-123912380D01*
X194642857Y-123912380D02*
X194452380Y-123912380D01*
X194357142Y-123960000D01*
X194309523Y-124007619D01*
X194214285Y-124150476D01*
X194166666Y-124340952D01*
X194166666Y-124721904D01*
X194214285Y-124817142D01*
X194261904Y-124864761D01*
X194357142Y-124912380D01*
X194547619Y-124912380D01*
X194642857Y-124864761D01*
X194690476Y-124817142D01*
X194738095Y-124721904D01*
X194738095Y-124483809D01*
X194690476Y-124388571D01*
X194642857Y-124340952D01*
X194547619Y-124293333D01*
X194357142Y-124293333D01*
X194261904Y-124340952D01*
X194214285Y-124388571D01*
X194166666Y-124483809D01*
X213510952Y-124817142D02*
X213463333Y-124864761D01*
X213320476Y-124912380D01*
X213225238Y-124912380D01*
X213082380Y-124864761D01*
X212987142Y-124769523D01*
X212939523Y-124674285D01*
X212891904Y-124483809D01*
X212891904Y-124340952D01*
X212939523Y-124150476D01*
X212987142Y-124055238D01*
X213082380Y-123960000D01*
X213225238Y-123912380D01*
X213320476Y-123912380D01*
X213463333Y-123960000D01*
X213510952Y-124007619D01*
X213844285Y-123912380D02*
X214463333Y-123912380D01*
X214130000Y-124293333D01*
X214272857Y-124293333D01*
X214368095Y-124340952D01*
X214415714Y-124388571D01*
X214463333Y-124483809D01*
X214463333Y-124721904D01*
X214415714Y-124817142D01*
X214368095Y-124864761D01*
X214272857Y-124912380D01*
X213987142Y-124912380D01*
X213891904Y-124864761D01*
X213844285Y-124817142D01*
X215082380Y-123912380D02*
X215177619Y-123912380D01*
X215272857Y-123960000D01*
X215320476Y-124007619D01*
X215368095Y-124102857D01*
X215415714Y-124293333D01*
X215415714Y-124531428D01*
X215368095Y-124721904D01*
X215320476Y-124817142D01*
X215272857Y-124864761D01*
X215177619Y-124912380D01*
X215082380Y-124912380D01*
X214987142Y-124864761D01*
X214939523Y-124817142D01*
X214891904Y-124721904D01*
X214844285Y-124531428D01*
X214844285Y-124293333D01*
X214891904Y-124102857D01*
X214939523Y-124007619D01*
X214987142Y-123960000D01*
X215082380Y-123912380D01*
X215749047Y-123912380D02*
X216415714Y-123912380D01*
X215987142Y-124912380D01*
X114450952Y-114657142D02*
X114403333Y-114704761D01*
X114260476Y-114752380D01*
X114165238Y-114752380D01*
X114022380Y-114704761D01*
X113927142Y-114609523D01*
X113879523Y-114514285D01*
X113831904Y-114323809D01*
X113831904Y-114180952D01*
X113879523Y-113990476D01*
X113927142Y-113895238D01*
X114022380Y-113800000D01*
X114165238Y-113752380D01*
X114260476Y-113752380D01*
X114403333Y-113800000D01*
X114450952Y-113847619D01*
X114784285Y-113752380D02*
X115403333Y-113752380D01*
X115070000Y-114133333D01*
X115212857Y-114133333D01*
X115308095Y-114180952D01*
X115355714Y-114228571D01*
X115403333Y-114323809D01*
X115403333Y-114561904D01*
X115355714Y-114657142D01*
X115308095Y-114704761D01*
X115212857Y-114752380D01*
X114927142Y-114752380D01*
X114831904Y-114704761D01*
X114784285Y-114657142D01*
X116022380Y-113752380D02*
X116117619Y-113752380D01*
X116212857Y-113800000D01*
X116260476Y-113847619D01*
X116308095Y-113942857D01*
X116355714Y-114133333D01*
X116355714Y-114371428D01*
X116308095Y-114561904D01*
X116260476Y-114657142D01*
X116212857Y-114704761D01*
X116117619Y-114752380D01*
X116022380Y-114752380D01*
X115927142Y-114704761D01*
X115879523Y-114657142D01*
X115831904Y-114561904D01*
X115784285Y-114371428D01*
X115784285Y-114133333D01*
X115831904Y-113942857D01*
X115879523Y-113847619D01*
X115927142Y-113800000D01*
X116022380Y-113752380D01*
X116927142Y-114180952D02*
X116831904Y-114133333D01*
X116784285Y-114085714D01*
X116736666Y-113990476D01*
X116736666Y-113942857D01*
X116784285Y-113847619D01*
X116831904Y-113800000D01*
X116927142Y-113752380D01*
X117117619Y-113752380D01*
X117212857Y-113800000D01*
X117260476Y-113847619D01*
X117308095Y-113942857D01*
X117308095Y-113990476D01*
X117260476Y-114085714D01*
X117212857Y-114133333D01*
X117117619Y-114180952D01*
X116927142Y-114180952D01*
X116831904Y-114228571D01*
X116784285Y-114276190D01*
X116736666Y-114371428D01*
X116736666Y-114561904D01*
X116784285Y-114657142D01*
X116831904Y-114704761D01*
X116927142Y-114752380D01*
X117117619Y-114752380D01*
X117212857Y-114704761D01*
X117260476Y-114657142D01*
X117308095Y-114561904D01*
X117308095Y-114371428D01*
X117260476Y-114276190D01*
X117212857Y-114228571D01*
X117117619Y-114180952D01*
X101595951Y-129992380D02*
X101262618Y-129516190D01*
X101024522Y-129992380D02*
X101024522Y-128992380D01*
X101405475Y-128992380D01*
X101500713Y-129040000D01*
X101548332Y-129087619D01*
X101595951Y-129182857D01*
X101595951Y-129325714D01*
X101548332Y-129420952D01*
X101500713Y-129468571D01*
X101405475Y-129516190D01*
X101024522Y-129516190D01*
X101929284Y-128992380D02*
X102548332Y-128992380D01*
X102214999Y-129373333D01*
X102357856Y-129373333D01*
X102453094Y-129420952D01*
X102500713Y-129468571D01*
X102548332Y-129563809D01*
X102548332Y-129801904D01*
X102500713Y-129897142D01*
X102453094Y-129944761D01*
X102357856Y-129992380D01*
X102072141Y-129992380D01*
X101976903Y-129944761D01*
X101929284Y-129897142D01*
X103167379Y-128992380D02*
X103262618Y-128992380D01*
X103357856Y-129040000D01*
X103405475Y-129087619D01*
X103453094Y-129182857D01*
X103500713Y-129373333D01*
X103500713Y-129611428D01*
X103453094Y-129801904D01*
X103405475Y-129897142D01*
X103357856Y-129944761D01*
X103262618Y-129992380D01*
X103167379Y-129992380D01*
X103072141Y-129944761D01*
X103024522Y-129897142D01*
X102976903Y-129801904D01*
X102929284Y-129611428D01*
X102929284Y-129373333D01*
X102976903Y-129182857D01*
X103024522Y-129087619D01*
X103072141Y-129040000D01*
X103167379Y-128992380D01*
X104453094Y-129992380D02*
X103881665Y-129992380D01*
X104167379Y-129992380D02*
X104167379Y-128992380D01*
X104072141Y-129135238D01*
X103976903Y-129230476D01*
X103881665Y-129278095D01*
X101750952Y-126182380D02*
X101417619Y-125706190D01*
X101179523Y-126182380D02*
X101179523Y-125182380D01*
X101560476Y-125182380D01*
X101655714Y-125230000D01*
X101703333Y-125277619D01*
X101750952Y-125372857D01*
X101750952Y-125515714D01*
X101703333Y-125610952D01*
X101655714Y-125658571D01*
X101560476Y-125706190D01*
X101179523Y-125706190D01*
X102084285Y-125182380D02*
X102703333Y-125182380D01*
X102370000Y-125563333D01*
X102512857Y-125563333D01*
X102608095Y-125610952D01*
X102655714Y-125658571D01*
X102703333Y-125753809D01*
X102703333Y-125991904D01*
X102655714Y-126087142D01*
X102608095Y-126134761D01*
X102512857Y-126182380D01*
X102227142Y-126182380D01*
X102131904Y-126134761D01*
X102084285Y-126087142D01*
X103322380Y-125182380D02*
X103417619Y-125182380D01*
X103512857Y-125230000D01*
X103560476Y-125277619D01*
X103608095Y-125372857D01*
X103655714Y-125563333D01*
X103655714Y-125801428D01*
X103608095Y-125991904D01*
X103560476Y-126087142D01*
X103512857Y-126134761D01*
X103417619Y-126182380D01*
X103322380Y-126182380D01*
X103227142Y-126134761D01*
X103179523Y-126087142D01*
X103131904Y-125991904D01*
X103084285Y-125801428D01*
X103084285Y-125563333D01*
X103131904Y-125372857D01*
X103179523Y-125277619D01*
X103227142Y-125230000D01*
X103322380Y-125182380D01*
X104036666Y-125277619D02*
X104084285Y-125230000D01*
X104179523Y-125182380D01*
X104417619Y-125182380D01*
X104512857Y-125230000D01*
X104560476Y-125277619D01*
X104608095Y-125372857D01*
X104608095Y-125468095D01*
X104560476Y-125610952D01*
X103989047Y-126182380D01*
X104608095Y-126182380D01*
X101750952Y-122372380D02*
X101417619Y-121896190D01*
X101179523Y-122372380D02*
X101179523Y-121372380D01*
X101560476Y-121372380D01*
X101655714Y-121420000D01*
X101703333Y-121467619D01*
X101750952Y-121562857D01*
X101750952Y-121705714D01*
X101703333Y-121800952D01*
X101655714Y-121848571D01*
X101560476Y-121896190D01*
X101179523Y-121896190D01*
X102084285Y-121372380D02*
X102703333Y-121372380D01*
X102370000Y-121753333D01*
X102512857Y-121753333D01*
X102608095Y-121800952D01*
X102655714Y-121848571D01*
X102703333Y-121943809D01*
X102703333Y-122181904D01*
X102655714Y-122277142D01*
X102608095Y-122324761D01*
X102512857Y-122372380D01*
X102227142Y-122372380D01*
X102131904Y-122324761D01*
X102084285Y-122277142D01*
X103322380Y-121372380D02*
X103417619Y-121372380D01*
X103512857Y-121420000D01*
X103560476Y-121467619D01*
X103608095Y-121562857D01*
X103655714Y-121753333D01*
X103655714Y-121991428D01*
X103608095Y-122181904D01*
X103560476Y-122277142D01*
X103512857Y-122324761D01*
X103417619Y-122372380D01*
X103322380Y-122372380D01*
X103227142Y-122324761D01*
X103179523Y-122277142D01*
X103131904Y-122181904D01*
X103084285Y-121991428D01*
X103084285Y-121753333D01*
X103131904Y-121562857D01*
X103179523Y-121467619D01*
X103227142Y-121420000D01*
X103322380Y-121372380D01*
X103989047Y-121372380D02*
X104608095Y-121372380D01*
X104274761Y-121753333D01*
X104417619Y-121753333D01*
X104512857Y-121800952D01*
X104560476Y-121848571D01*
X104608095Y-121943809D01*
X104608095Y-122181904D01*
X104560476Y-122277142D01*
X104512857Y-122324761D01*
X104417619Y-122372380D01*
X104131904Y-122372380D01*
X104036666Y-122324761D01*
X103989047Y-122277142D01*
X101750952Y-118562380D02*
X101417619Y-118086190D01*
X101179523Y-118562380D02*
X101179523Y-117562380D01*
X101560476Y-117562380D01*
X101655714Y-117610000D01*
X101703333Y-117657619D01*
X101750952Y-117752857D01*
X101750952Y-117895714D01*
X101703333Y-117990952D01*
X101655714Y-118038571D01*
X101560476Y-118086190D01*
X101179523Y-118086190D01*
X102084285Y-117562380D02*
X102703333Y-117562380D01*
X102370000Y-117943333D01*
X102512857Y-117943333D01*
X102608095Y-117990952D01*
X102655714Y-118038571D01*
X102703333Y-118133809D01*
X102703333Y-118371904D01*
X102655714Y-118467142D01*
X102608095Y-118514761D01*
X102512857Y-118562380D01*
X102227142Y-118562380D01*
X102131904Y-118514761D01*
X102084285Y-118467142D01*
X103322380Y-117562380D02*
X103417619Y-117562380D01*
X103512857Y-117610000D01*
X103560476Y-117657619D01*
X103608095Y-117752857D01*
X103655714Y-117943333D01*
X103655714Y-118181428D01*
X103608095Y-118371904D01*
X103560476Y-118467142D01*
X103512857Y-118514761D01*
X103417619Y-118562380D01*
X103322380Y-118562380D01*
X103227142Y-118514761D01*
X103179523Y-118467142D01*
X103131904Y-118371904D01*
X103084285Y-118181428D01*
X103084285Y-117943333D01*
X103131904Y-117752857D01*
X103179523Y-117657619D01*
X103227142Y-117610000D01*
X103322380Y-117562380D01*
X104512857Y-117895714D02*
X104512857Y-118562380D01*
X104274761Y-117514761D02*
X104036666Y-118229047D01*
X104655714Y-118229047D01*
X101750952Y-114752380D02*
X101417619Y-114276190D01*
X101179523Y-114752380D02*
X101179523Y-113752380D01*
X101560476Y-113752380D01*
X101655714Y-113800000D01*
X101703333Y-113847619D01*
X101750952Y-113942857D01*
X101750952Y-114085714D01*
X101703333Y-114180952D01*
X101655714Y-114228571D01*
X101560476Y-114276190D01*
X101179523Y-114276190D01*
X102084285Y-113752380D02*
X102703333Y-113752380D01*
X102370000Y-114133333D01*
X102512857Y-114133333D01*
X102608095Y-114180952D01*
X102655714Y-114228571D01*
X102703333Y-114323809D01*
X102703333Y-114561904D01*
X102655714Y-114657142D01*
X102608095Y-114704761D01*
X102512857Y-114752380D01*
X102227142Y-114752380D01*
X102131904Y-114704761D01*
X102084285Y-114657142D01*
X103322380Y-113752380D02*
X103417619Y-113752380D01*
X103512857Y-113800000D01*
X103560476Y-113847619D01*
X103608095Y-113942857D01*
X103655714Y-114133333D01*
X103655714Y-114371428D01*
X103608095Y-114561904D01*
X103560476Y-114657142D01*
X103512857Y-114704761D01*
X103417619Y-114752380D01*
X103322380Y-114752380D01*
X103227142Y-114704761D01*
X103179523Y-114657142D01*
X103131904Y-114561904D01*
X103084285Y-114371428D01*
X103084285Y-114133333D01*
X103131904Y-113942857D01*
X103179523Y-113847619D01*
X103227142Y-113800000D01*
X103322380Y-113752380D01*
X104560476Y-113752380D02*
X104084285Y-113752380D01*
X104036666Y-114228571D01*
X104084285Y-114180952D01*
X104179523Y-114133333D01*
X104417619Y-114133333D01*
X104512857Y-114180952D01*
X104560476Y-114228571D01*
X104608095Y-114323809D01*
X104608095Y-114561904D01*
X104560476Y-114657142D01*
X104512857Y-114704761D01*
X104417619Y-114752380D01*
X104179523Y-114752380D01*
X104084285Y-114704761D01*
X104036666Y-114657142D01*
X101905953Y-110942380D02*
X101572620Y-110466190D01*
X101334524Y-110942380D02*
X101334524Y-109942380D01*
X101715477Y-109942380D01*
X101810715Y-109990000D01*
X101858334Y-110037619D01*
X101905953Y-110132857D01*
X101905953Y-110275714D01*
X101858334Y-110370952D01*
X101810715Y-110418571D01*
X101715477Y-110466190D01*
X101334524Y-110466190D01*
X102239286Y-109942380D02*
X102858334Y-109942380D01*
X102525001Y-110323333D01*
X102667858Y-110323333D01*
X102763096Y-110370952D01*
X102810715Y-110418571D01*
X102858334Y-110513809D01*
X102858334Y-110751904D01*
X102810715Y-110847142D01*
X102763096Y-110894761D01*
X102667858Y-110942380D01*
X102382143Y-110942380D01*
X102286905Y-110894761D01*
X102239286Y-110847142D01*
X103477381Y-109942380D02*
X103572620Y-109942380D01*
X103667858Y-109990000D01*
X103715477Y-110037619D01*
X103763096Y-110132857D01*
X103810715Y-110323333D01*
X103810715Y-110561428D01*
X103763096Y-110751904D01*
X103715477Y-110847142D01*
X103667858Y-110894761D01*
X103572620Y-110942380D01*
X103477381Y-110942380D01*
X103382143Y-110894761D01*
X103334524Y-110847142D01*
X103286905Y-110751904D01*
X103239286Y-110561428D01*
X103239286Y-110323333D01*
X103286905Y-110132857D01*
X103334524Y-110037619D01*
X103382143Y-109990000D01*
X103477381Y-109942380D01*
X104667858Y-109942380D02*
X104477381Y-109942380D01*
X104382143Y-109990000D01*
X104334524Y-110037619D01*
X104239286Y-110180476D01*
X104191667Y-110370952D01*
X104191667Y-110751904D01*
X104239286Y-110847142D01*
X104286905Y-110894761D01*
X104382143Y-110942380D01*
X104572620Y-110942380D01*
X104667858Y-110894761D01*
X104715477Y-110847142D01*
X104763096Y-110751904D01*
X104763096Y-110513809D01*
X104715477Y-110418571D01*
X104667858Y-110370952D01*
X104572620Y-110323333D01*
X104382143Y-110323333D01*
X104286905Y-110370952D01*
X104239286Y-110418571D01*
X104191667Y-110513809D01*
X89050952Y-114752380D02*
X88717619Y-114276190D01*
X88479523Y-114752380D02*
X88479523Y-113752380D01*
X88860476Y-113752380D01*
X88955714Y-113800000D01*
X89003333Y-113847619D01*
X89050952Y-113942857D01*
X89050952Y-114085714D01*
X89003333Y-114180952D01*
X88955714Y-114228571D01*
X88860476Y-114276190D01*
X88479523Y-114276190D01*
X89384285Y-113752380D02*
X90003333Y-113752380D01*
X89670000Y-114133333D01*
X89812857Y-114133333D01*
X89908095Y-114180952D01*
X89955714Y-114228571D01*
X90003333Y-114323809D01*
X90003333Y-114561904D01*
X89955714Y-114657142D01*
X89908095Y-114704761D01*
X89812857Y-114752380D01*
X89527142Y-114752380D01*
X89431904Y-114704761D01*
X89384285Y-114657142D01*
X90622380Y-113752380D02*
X90717619Y-113752380D01*
X90812857Y-113800000D01*
X90860476Y-113847619D01*
X90908095Y-113942857D01*
X90955714Y-114133333D01*
X90955714Y-114371428D01*
X90908095Y-114561904D01*
X90860476Y-114657142D01*
X90812857Y-114704761D01*
X90717619Y-114752380D01*
X90622380Y-114752380D01*
X90527142Y-114704761D01*
X90479523Y-114657142D01*
X90431904Y-114561904D01*
X90384285Y-114371428D01*
X90384285Y-114133333D01*
X90431904Y-113942857D01*
X90479523Y-113847619D01*
X90527142Y-113800000D01*
X90622380Y-113752380D01*
X91289047Y-113752380D02*
X91955714Y-113752380D01*
X91527142Y-114752380D01*
X89050952Y-118562380D02*
X88717619Y-118086190D01*
X88479523Y-118562380D02*
X88479523Y-117562380D01*
X88860476Y-117562380D01*
X88955714Y-117610000D01*
X89003333Y-117657619D01*
X89050952Y-117752857D01*
X89050952Y-117895714D01*
X89003333Y-117990952D01*
X88955714Y-118038571D01*
X88860476Y-118086190D01*
X88479523Y-118086190D01*
X89384285Y-117562380D02*
X90003333Y-117562380D01*
X89670000Y-117943333D01*
X89812857Y-117943333D01*
X89908095Y-117990952D01*
X89955714Y-118038571D01*
X90003333Y-118133809D01*
X90003333Y-118371904D01*
X89955714Y-118467142D01*
X89908095Y-118514761D01*
X89812857Y-118562380D01*
X89527142Y-118562380D01*
X89431904Y-118514761D01*
X89384285Y-118467142D01*
X90622380Y-117562380D02*
X90717619Y-117562380D01*
X90812857Y-117610000D01*
X90860476Y-117657619D01*
X90908095Y-117752857D01*
X90955714Y-117943333D01*
X90955714Y-118181428D01*
X90908095Y-118371904D01*
X90860476Y-118467142D01*
X90812857Y-118514761D01*
X90717619Y-118562380D01*
X90622380Y-118562380D01*
X90527142Y-118514761D01*
X90479523Y-118467142D01*
X90431904Y-118371904D01*
X90384285Y-118181428D01*
X90384285Y-117943333D01*
X90431904Y-117752857D01*
X90479523Y-117657619D01*
X90527142Y-117610000D01*
X90622380Y-117562380D01*
X91527142Y-117990952D02*
X91431904Y-117943333D01*
X91384285Y-117895714D01*
X91336666Y-117800476D01*
X91336666Y-117752857D01*
X91384285Y-117657619D01*
X91431904Y-117610000D01*
X91527142Y-117562380D01*
X91717619Y-117562380D01*
X91812857Y-117610000D01*
X91860476Y-117657619D01*
X91908095Y-117752857D01*
X91908095Y-117800476D01*
X91860476Y-117895714D01*
X91812857Y-117943333D01*
X91717619Y-117990952D01*
X91527142Y-117990952D01*
X91431904Y-118038571D01*
X91384285Y-118086190D01*
X91336666Y-118181428D01*
X91336666Y-118371904D01*
X91384285Y-118467142D01*
X91431904Y-118514761D01*
X91527142Y-118562380D01*
X91717619Y-118562380D01*
X91812857Y-118514761D01*
X91860476Y-118467142D01*
X91908095Y-118371904D01*
X91908095Y-118181428D01*
X91860476Y-118086190D01*
X91812857Y-118038571D01*
X91717619Y-117990952D01*
X89050952Y-122372380D02*
X88717619Y-121896190D01*
X88479523Y-122372380D02*
X88479523Y-121372380D01*
X88860476Y-121372380D01*
X88955714Y-121420000D01*
X89003333Y-121467619D01*
X89050952Y-121562857D01*
X89050952Y-121705714D01*
X89003333Y-121800952D01*
X88955714Y-121848571D01*
X88860476Y-121896190D01*
X88479523Y-121896190D01*
X89384285Y-121372380D02*
X90003333Y-121372380D01*
X89670000Y-121753333D01*
X89812857Y-121753333D01*
X89908095Y-121800952D01*
X89955714Y-121848571D01*
X90003333Y-121943809D01*
X90003333Y-122181904D01*
X89955714Y-122277142D01*
X89908095Y-122324761D01*
X89812857Y-122372380D01*
X89527142Y-122372380D01*
X89431904Y-122324761D01*
X89384285Y-122277142D01*
X90622380Y-121372380D02*
X90717619Y-121372380D01*
X90812857Y-121420000D01*
X90860476Y-121467619D01*
X90908095Y-121562857D01*
X90955714Y-121753333D01*
X90955714Y-121991428D01*
X90908095Y-122181904D01*
X90860476Y-122277142D01*
X90812857Y-122324761D01*
X90717619Y-122372380D01*
X90622380Y-122372380D01*
X90527142Y-122324761D01*
X90479523Y-122277142D01*
X90431904Y-122181904D01*
X90384285Y-121991428D01*
X90384285Y-121753333D01*
X90431904Y-121562857D01*
X90479523Y-121467619D01*
X90527142Y-121420000D01*
X90622380Y-121372380D01*
X91431904Y-122372380D02*
X91622380Y-122372380D01*
X91717619Y-122324761D01*
X91765238Y-122277142D01*
X91860476Y-122134285D01*
X91908095Y-121943809D01*
X91908095Y-121562857D01*
X91860476Y-121467619D01*
X91812857Y-121420000D01*
X91717619Y-121372380D01*
X91527142Y-121372380D01*
X91431904Y-121420000D01*
X91384285Y-121467619D01*
X91336666Y-121562857D01*
X91336666Y-121800952D01*
X91384285Y-121896190D01*
X91431904Y-121943809D01*
X91527142Y-121991428D01*
X91717619Y-121991428D01*
X91812857Y-121943809D01*
X91860476Y-121896190D01*
X91908095Y-121800952D01*
X89050952Y-126182380D02*
X88717619Y-125706190D01*
X88479523Y-126182380D02*
X88479523Y-125182380D01*
X88860476Y-125182380D01*
X88955714Y-125230000D01*
X89003333Y-125277619D01*
X89050952Y-125372857D01*
X89050952Y-125515714D01*
X89003333Y-125610952D01*
X88955714Y-125658571D01*
X88860476Y-125706190D01*
X88479523Y-125706190D01*
X89384285Y-125182380D02*
X90003333Y-125182380D01*
X89670000Y-125563333D01*
X89812857Y-125563333D01*
X89908095Y-125610952D01*
X89955714Y-125658571D01*
X90003333Y-125753809D01*
X90003333Y-125991904D01*
X89955714Y-126087142D01*
X89908095Y-126134761D01*
X89812857Y-126182380D01*
X89527142Y-126182380D01*
X89431904Y-126134761D01*
X89384285Y-126087142D01*
X90955714Y-126182380D02*
X90384285Y-126182380D01*
X90670000Y-126182380D02*
X90670000Y-125182380D01*
X90574761Y-125325238D01*
X90479523Y-125420476D01*
X90384285Y-125468095D01*
X91574761Y-125182380D02*
X91670000Y-125182380D01*
X91765238Y-125230000D01*
X91812857Y-125277619D01*
X91860476Y-125372857D01*
X91908095Y-125563333D01*
X91908095Y-125801428D01*
X91860476Y-125991904D01*
X91812857Y-126087142D01*
X91765238Y-126134761D01*
X91670000Y-126182380D01*
X91574761Y-126182380D01*
X91479523Y-126134761D01*
X91431904Y-126087142D01*
X91384285Y-125991904D01*
X91336666Y-125801428D01*
X91336666Y-125563333D01*
X91384285Y-125372857D01*
X91431904Y-125277619D01*
X91479523Y-125230000D01*
X91574761Y-125182380D01*
X88895951Y-129992380D02*
X88562618Y-129516190D01*
X88324522Y-129992380D02*
X88324522Y-128992380D01*
X88705475Y-128992380D01*
X88800713Y-129040000D01*
X88848332Y-129087619D01*
X88895951Y-129182857D01*
X88895951Y-129325714D01*
X88848332Y-129420952D01*
X88800713Y-129468571D01*
X88705475Y-129516190D01*
X88324522Y-129516190D01*
X89229284Y-128992380D02*
X89848332Y-128992380D01*
X89514999Y-129373333D01*
X89657856Y-129373333D01*
X89753094Y-129420952D01*
X89800713Y-129468571D01*
X89848332Y-129563809D01*
X89848332Y-129801904D01*
X89800713Y-129897142D01*
X89753094Y-129944761D01*
X89657856Y-129992380D01*
X89372141Y-129992380D01*
X89276903Y-129944761D01*
X89229284Y-129897142D01*
X90800713Y-129992380D02*
X90229284Y-129992380D01*
X90514999Y-129992380D02*
X90514999Y-128992380D01*
X90419760Y-129135238D01*
X90324522Y-129230476D01*
X90229284Y-129278095D01*
X91753094Y-129992380D02*
X91181665Y-129992380D01*
X91467379Y-129992380D02*
X91467379Y-128992380D01*
X91372141Y-129135238D01*
X91276903Y-129230476D01*
X91181665Y-129278095D01*
X89622380Y-93154285D02*
X90431904Y-93154285D01*
X90527142Y-93106666D01*
X90574761Y-93059047D01*
X90622380Y-92963809D01*
X90622380Y-92773333D01*
X90574761Y-92678095D01*
X90527142Y-92630476D01*
X90431904Y-92582857D01*
X89622380Y-92582857D01*
X89622380Y-92201904D02*
X89622380Y-91582857D01*
X90003333Y-91916190D01*
X90003333Y-91773333D01*
X90050952Y-91678095D01*
X90098571Y-91630476D01*
X90193809Y-91582857D01*
X90431904Y-91582857D01*
X90527142Y-91630476D01*
X90574761Y-91678095D01*
X90622380Y-91773333D01*
X90622380Y-92059047D01*
X90574761Y-92154285D01*
X90527142Y-92201904D01*
X89622380Y-90963809D02*
X89622380Y-90868571D01*
X89670000Y-90773333D01*
X89717619Y-90725714D01*
X89812857Y-90678095D01*
X90003333Y-90630476D01*
X90241428Y-90630476D01*
X90431904Y-90678095D01*
X90527142Y-90725714D01*
X90574761Y-90773333D01*
X90622380Y-90868571D01*
X90622380Y-90963809D01*
X90574761Y-91059047D01*
X90527142Y-91106666D01*
X90431904Y-91154285D01*
X90241428Y-91201904D01*
X90003333Y-91201904D01*
X89812857Y-91154285D01*
X89717619Y-91106666D01*
X89670000Y-91059047D01*
X89622380Y-90963809D01*
X90622380Y-89678095D02*
X90622380Y-90249523D01*
X90622380Y-89963809D02*
X89622380Y-89963809D01*
X89765238Y-90059047D01*
X89860476Y-90154285D01*
X89908095Y-90249523D01*
X89622380Y-101702857D02*
X89622380Y-101036190D01*
X90622380Y-101464761D01*
X89955714Y-100226666D02*
X90622380Y-100226666D01*
X89574761Y-100464761D02*
X90289047Y-100702857D01*
X90289047Y-100083809D01*
X90622380Y-99226666D02*
X90622380Y-99702857D01*
X89622380Y-99702857D01*
X90574761Y-98940952D02*
X90622380Y-98798095D01*
X90622380Y-98560000D01*
X90574761Y-98464761D01*
X90527142Y-98417142D01*
X90431904Y-98369523D01*
X90336666Y-98369523D01*
X90241428Y-98417142D01*
X90193809Y-98464761D01*
X90146190Y-98560000D01*
X90098571Y-98750476D01*
X90050952Y-98845714D01*
X90003333Y-98893333D01*
X89908095Y-98940952D01*
X89812857Y-98940952D01*
X89717619Y-98893333D01*
X89670000Y-98845714D01*
X89622380Y-98750476D01*
X89622380Y-98512380D01*
X89670000Y-98369523D01*
X89622380Y-98036190D02*
X89622380Y-97417142D01*
X90003333Y-97750476D01*
X90003333Y-97607619D01*
X90050952Y-97512380D01*
X90098571Y-97464761D01*
X90193809Y-97417142D01*
X90431904Y-97417142D01*
X90527142Y-97464761D01*
X90574761Y-97512380D01*
X90622380Y-97607619D01*
X90622380Y-97893333D01*
X90574761Y-97988571D01*
X90527142Y-98036190D01*
X89717619Y-97036190D02*
X89670000Y-96988571D01*
X89622380Y-96893333D01*
X89622380Y-96655238D01*
X89670000Y-96560000D01*
X89717619Y-96512380D01*
X89812857Y-96464761D01*
X89908095Y-96464761D01*
X90050952Y-96512380D01*
X90622380Y-97083809D01*
X90622380Y-96464761D01*
X131532380Y-93154285D02*
X132341904Y-93154285D01*
X132437142Y-93106666D01*
X132484761Y-93059047D01*
X132532380Y-92963809D01*
X132532380Y-92773333D01*
X132484761Y-92678095D01*
X132437142Y-92630476D01*
X132341904Y-92582857D01*
X131532380Y-92582857D01*
X131532380Y-92201904D02*
X131532380Y-91582857D01*
X131913333Y-91916190D01*
X131913333Y-91773333D01*
X131960952Y-91678095D01*
X132008571Y-91630476D01*
X132103809Y-91582857D01*
X132341904Y-91582857D01*
X132437142Y-91630476D01*
X132484761Y-91678095D01*
X132532380Y-91773333D01*
X132532380Y-92059047D01*
X132484761Y-92154285D01*
X132437142Y-92201904D01*
X131532380Y-90963809D02*
X131532380Y-90868571D01*
X131580000Y-90773333D01*
X131627619Y-90725714D01*
X131722857Y-90678095D01*
X131913333Y-90630476D01*
X132151428Y-90630476D01*
X132341904Y-90678095D01*
X132437142Y-90725714D01*
X132484761Y-90773333D01*
X132532380Y-90868571D01*
X132532380Y-90963809D01*
X132484761Y-91059047D01*
X132437142Y-91106666D01*
X132341904Y-91154285D01*
X132151428Y-91201904D01*
X131913333Y-91201904D01*
X131722857Y-91154285D01*
X131627619Y-91106666D01*
X131580000Y-91059047D01*
X131532380Y-90963809D01*
X131627619Y-90249523D02*
X131580000Y-90201904D01*
X131532380Y-90106666D01*
X131532380Y-89868571D01*
X131580000Y-89773333D01*
X131627619Y-89725714D01*
X131722857Y-89678095D01*
X131818095Y-89678095D01*
X131960952Y-89725714D01*
X132532380Y-90297142D01*
X132532380Y-89678095D01*
X132246666Y-119070000D02*
X132246666Y-118593809D01*
X132532380Y-119165238D02*
X131532380Y-118831904D01*
X132532380Y-118498571D01*
X131532380Y-118308095D02*
X131532380Y-117736666D01*
X132532380Y-118022380D02*
X131532380Y-118022380D01*
X131627619Y-117450952D02*
X131580000Y-117403333D01*
X131532380Y-117308095D01*
X131532380Y-117070000D01*
X131580000Y-116974761D01*
X131627619Y-116927142D01*
X131722857Y-116879523D01*
X131818095Y-116879523D01*
X131960952Y-116927142D01*
X132532380Y-117498571D01*
X132532380Y-116879523D01*
X131960952Y-116308095D02*
X131913333Y-116403333D01*
X131865714Y-116450952D01*
X131770476Y-116498571D01*
X131722857Y-116498571D01*
X131627619Y-116450952D01*
X131580000Y-116403333D01*
X131532380Y-116308095D01*
X131532380Y-116117619D01*
X131580000Y-116022380D01*
X131627619Y-115974761D01*
X131722857Y-115927142D01*
X131770476Y-115927142D01*
X131865714Y-115974761D01*
X131913333Y-116022380D01*
X131960952Y-116117619D01*
X131960952Y-116308095D01*
X132008571Y-116403333D01*
X132056190Y-116450952D01*
X132151428Y-116498571D01*
X132341904Y-116498571D01*
X132437142Y-116450952D01*
X132484761Y-116403333D01*
X132532380Y-116308095D01*
X132532380Y-116117619D01*
X132484761Y-116022380D01*
X132437142Y-115974761D01*
X132341904Y-115927142D01*
X132151428Y-115927142D01*
X132056190Y-115974761D01*
X132008571Y-116022380D01*
X131960952Y-116117619D01*
X132437142Y-114927142D02*
X132484761Y-114974761D01*
X132532380Y-115117619D01*
X132532380Y-115212857D01*
X132484761Y-115355714D01*
X132389523Y-115450952D01*
X132294285Y-115498571D01*
X132103809Y-115546190D01*
X131960952Y-115546190D01*
X131770476Y-115498571D01*
X131675238Y-115450952D01*
X131580000Y-115355714D01*
X131532380Y-115212857D01*
X131532380Y-115117619D01*
X131580000Y-114974761D01*
X131627619Y-114927142D01*
X131627619Y-114546190D02*
X131580000Y-114498571D01*
X131532380Y-114403333D01*
X131532380Y-114165238D01*
X131580000Y-114070000D01*
X131627619Y-114022380D01*
X131722857Y-113974761D01*
X131818095Y-113974761D01*
X131960952Y-114022380D01*
X132532380Y-114593809D01*
X132532380Y-113974761D01*
X131532380Y-113070000D02*
X131532380Y-113546190D01*
X132008571Y-113593809D01*
X131960952Y-113546190D01*
X131913333Y-113450952D01*
X131913333Y-113212857D01*
X131960952Y-113117619D01*
X132008571Y-113070000D01*
X132103809Y-113022380D01*
X132341904Y-113022380D01*
X132437142Y-113070000D01*
X132484761Y-113117619D01*
X132532380Y-113212857D01*
X132532380Y-113450952D01*
X132484761Y-113546190D01*
X132437142Y-113593809D01*
X131532380Y-112165238D02*
X131532380Y-112355714D01*
X131580000Y-112450952D01*
X131627619Y-112498571D01*
X131770476Y-112593809D01*
X131960952Y-112641428D01*
X132341904Y-112641428D01*
X132437142Y-112593809D01*
X132484761Y-112546190D01*
X132532380Y-112450952D01*
X132532380Y-112260476D01*
X132484761Y-112165238D01*
X132437142Y-112117619D01*
X132341904Y-112070000D01*
X132103809Y-112070000D01*
X132008571Y-112117619D01*
X131960952Y-112165238D01*
X131913333Y-112260476D01*
X131913333Y-112450952D01*
X131960952Y-112546190D01*
X132008571Y-112593809D01*
X132103809Y-112641428D01*
X102322380Y-93154285D02*
X103131904Y-93154285D01*
X103227142Y-93106666D01*
X103274761Y-93059047D01*
X103322380Y-92963809D01*
X103322380Y-92773333D01*
X103274761Y-92678095D01*
X103227142Y-92630476D01*
X103131904Y-92582857D01*
X102322380Y-92582857D01*
X102322380Y-92201904D02*
X102322380Y-91582857D01*
X102703333Y-91916190D01*
X102703333Y-91773333D01*
X102750952Y-91678095D01*
X102798571Y-91630476D01*
X102893809Y-91582857D01*
X103131904Y-91582857D01*
X103227142Y-91630476D01*
X103274761Y-91678095D01*
X103322380Y-91773333D01*
X103322380Y-92059047D01*
X103274761Y-92154285D01*
X103227142Y-92201904D01*
X102322380Y-90963809D02*
X102322380Y-90868571D01*
X102370000Y-90773333D01*
X102417619Y-90725714D01*
X102512857Y-90678095D01*
X102703333Y-90630476D01*
X102941428Y-90630476D01*
X103131904Y-90678095D01*
X103227142Y-90725714D01*
X103274761Y-90773333D01*
X103322380Y-90868571D01*
X103322380Y-90963809D01*
X103274761Y-91059047D01*
X103227142Y-91106666D01*
X103131904Y-91154285D01*
X102941428Y-91201904D01*
X102703333Y-91201904D01*
X102512857Y-91154285D01*
X102417619Y-91106666D01*
X102370000Y-91059047D01*
X102322380Y-90963809D01*
X102322380Y-90297142D02*
X102322380Y-89678095D01*
X102703333Y-90011428D01*
X102703333Y-89868571D01*
X102750952Y-89773333D01*
X102798571Y-89725714D01*
X102893809Y-89678095D01*
X103131904Y-89678095D01*
X103227142Y-89725714D01*
X103274761Y-89773333D01*
X103322380Y-89868571D01*
X103322380Y-90154285D01*
X103274761Y-90249523D01*
X103227142Y-90297142D01*
X102322380Y-101702857D02*
X102322380Y-101036190D01*
X103322380Y-101464761D01*
X102655714Y-100226666D02*
X103322380Y-100226666D01*
X102274761Y-100464761D02*
X102989047Y-100702857D01*
X102989047Y-100083809D01*
X103322380Y-99226666D02*
X103322380Y-99702857D01*
X102322380Y-99702857D01*
X103274761Y-98940952D02*
X103322380Y-98798095D01*
X103322380Y-98560000D01*
X103274761Y-98464761D01*
X103227142Y-98417142D01*
X103131904Y-98369523D01*
X103036666Y-98369523D01*
X102941428Y-98417142D01*
X102893809Y-98464761D01*
X102846190Y-98560000D01*
X102798571Y-98750476D01*
X102750952Y-98845714D01*
X102703333Y-98893333D01*
X102608095Y-98940952D01*
X102512857Y-98940952D01*
X102417619Y-98893333D01*
X102370000Y-98845714D01*
X102322380Y-98750476D01*
X102322380Y-98512380D01*
X102370000Y-98369523D01*
X102322380Y-97750476D02*
X102322380Y-97655238D01*
X102370000Y-97560000D01*
X102417619Y-97512380D01*
X102512857Y-97464761D01*
X102703333Y-97417142D01*
X102941428Y-97417142D01*
X103131904Y-97464761D01*
X103227142Y-97512380D01*
X103274761Y-97560000D01*
X103322380Y-97655238D01*
X103322380Y-97750476D01*
X103274761Y-97845714D01*
X103227142Y-97893333D01*
X103131904Y-97940952D01*
X102941428Y-97988571D01*
X102703333Y-97988571D01*
X102512857Y-97940952D01*
X102417619Y-97893333D01*
X102370000Y-97845714D01*
X102322380Y-97750476D01*
X102655714Y-96560000D02*
X103322380Y-96560000D01*
X102274761Y-96798095D02*
X102989047Y-97036190D01*
X102989047Y-96417142D01*
X151852380Y-93154285D02*
X152661904Y-93154285D01*
X152757142Y-93106666D01*
X152804761Y-93059047D01*
X152852380Y-92963809D01*
X152852380Y-92773333D01*
X152804761Y-92678095D01*
X152757142Y-92630476D01*
X152661904Y-92582857D01*
X151852380Y-92582857D01*
X151852380Y-92201904D02*
X151852380Y-91582857D01*
X152233333Y-91916190D01*
X152233333Y-91773333D01*
X152280952Y-91678095D01*
X152328571Y-91630476D01*
X152423809Y-91582857D01*
X152661904Y-91582857D01*
X152757142Y-91630476D01*
X152804761Y-91678095D01*
X152852380Y-91773333D01*
X152852380Y-92059047D01*
X152804761Y-92154285D01*
X152757142Y-92201904D01*
X151852380Y-90963809D02*
X151852380Y-90868571D01*
X151900000Y-90773333D01*
X151947619Y-90725714D01*
X152042857Y-90678095D01*
X152233333Y-90630476D01*
X152471428Y-90630476D01*
X152661904Y-90678095D01*
X152757142Y-90725714D01*
X152804761Y-90773333D01*
X152852380Y-90868571D01*
X152852380Y-90963809D01*
X152804761Y-91059047D01*
X152757142Y-91106666D01*
X152661904Y-91154285D01*
X152471428Y-91201904D01*
X152233333Y-91201904D01*
X152042857Y-91154285D01*
X151947619Y-91106666D01*
X151900000Y-91059047D01*
X151852380Y-90963809D01*
X152185714Y-89773333D02*
X152852380Y-89773333D01*
X151804761Y-90011428D02*
X152519047Y-90249523D01*
X152519047Y-89630476D01*
X152566666Y-119070000D02*
X152566666Y-118593809D01*
X152852380Y-119165238D02*
X151852380Y-118831904D01*
X152852380Y-118498571D01*
X151852380Y-118308095D02*
X151852380Y-117736666D01*
X152852380Y-118022380D02*
X151852380Y-118022380D01*
X151947619Y-117450952D02*
X151900000Y-117403333D01*
X151852380Y-117308095D01*
X151852380Y-117070000D01*
X151900000Y-116974761D01*
X151947619Y-116927142D01*
X152042857Y-116879523D01*
X152138095Y-116879523D01*
X152280952Y-116927142D01*
X152852380Y-117498571D01*
X152852380Y-116879523D01*
X152280952Y-116308095D02*
X152233333Y-116403333D01*
X152185714Y-116450952D01*
X152090476Y-116498571D01*
X152042857Y-116498571D01*
X151947619Y-116450952D01*
X151900000Y-116403333D01*
X151852380Y-116308095D01*
X151852380Y-116117619D01*
X151900000Y-116022380D01*
X151947619Y-115974761D01*
X152042857Y-115927142D01*
X152090476Y-115927142D01*
X152185714Y-115974761D01*
X152233333Y-116022380D01*
X152280952Y-116117619D01*
X152280952Y-116308095D01*
X152328571Y-116403333D01*
X152376190Y-116450952D01*
X152471428Y-116498571D01*
X152661904Y-116498571D01*
X152757142Y-116450952D01*
X152804761Y-116403333D01*
X152852380Y-116308095D01*
X152852380Y-116117619D01*
X152804761Y-116022380D01*
X152757142Y-115974761D01*
X152661904Y-115927142D01*
X152471428Y-115927142D01*
X152376190Y-115974761D01*
X152328571Y-116022380D01*
X152280952Y-116117619D01*
X152757142Y-114927142D02*
X152804761Y-114974761D01*
X152852380Y-115117619D01*
X152852380Y-115212857D01*
X152804761Y-115355714D01*
X152709523Y-115450952D01*
X152614285Y-115498571D01*
X152423809Y-115546190D01*
X152280952Y-115546190D01*
X152090476Y-115498571D01*
X151995238Y-115450952D01*
X151900000Y-115355714D01*
X151852380Y-115212857D01*
X151852380Y-115117619D01*
X151900000Y-114974761D01*
X151947619Y-114927142D01*
X151947619Y-114546190D02*
X151900000Y-114498571D01*
X151852380Y-114403333D01*
X151852380Y-114165238D01*
X151900000Y-114070000D01*
X151947619Y-114022380D01*
X152042857Y-113974761D01*
X152138095Y-113974761D01*
X152280952Y-114022380D01*
X152852380Y-114593809D01*
X152852380Y-113974761D01*
X151852380Y-113070000D02*
X151852380Y-113546190D01*
X152328571Y-113593809D01*
X152280952Y-113546190D01*
X152233333Y-113450952D01*
X152233333Y-113212857D01*
X152280952Y-113117619D01*
X152328571Y-113070000D01*
X152423809Y-113022380D01*
X152661904Y-113022380D01*
X152757142Y-113070000D01*
X152804761Y-113117619D01*
X152852380Y-113212857D01*
X152852380Y-113450952D01*
X152804761Y-113546190D01*
X152757142Y-113593809D01*
X151852380Y-112165238D02*
X151852380Y-112355714D01*
X151900000Y-112450952D01*
X151947619Y-112498571D01*
X152090476Y-112593809D01*
X152280952Y-112641428D01*
X152661904Y-112641428D01*
X152757142Y-112593809D01*
X152804761Y-112546190D01*
X152852380Y-112450952D01*
X152852380Y-112260476D01*
X152804761Y-112165238D01*
X152757142Y-112117619D01*
X152661904Y-112070000D01*
X152423809Y-112070000D01*
X152328571Y-112117619D01*
X152280952Y-112165238D01*
X152233333Y-112260476D01*
X152233333Y-112450952D01*
X152280952Y-112546190D01*
X152328571Y-112593809D01*
X152423809Y-112641428D01*
X172172380Y-93154285D02*
X172981904Y-93154285D01*
X173077142Y-93106666D01*
X173124761Y-93059047D01*
X173172380Y-92963809D01*
X173172380Y-92773333D01*
X173124761Y-92678095D01*
X173077142Y-92630476D01*
X172981904Y-92582857D01*
X172172380Y-92582857D01*
X172172380Y-92201904D02*
X172172380Y-91582857D01*
X172553333Y-91916190D01*
X172553333Y-91773333D01*
X172600952Y-91678095D01*
X172648571Y-91630476D01*
X172743809Y-91582857D01*
X172981904Y-91582857D01*
X173077142Y-91630476D01*
X173124761Y-91678095D01*
X173172380Y-91773333D01*
X173172380Y-92059047D01*
X173124761Y-92154285D01*
X173077142Y-92201904D01*
X172172380Y-90963809D02*
X172172380Y-90868571D01*
X172220000Y-90773333D01*
X172267619Y-90725714D01*
X172362857Y-90678095D01*
X172553333Y-90630476D01*
X172791428Y-90630476D01*
X172981904Y-90678095D01*
X173077142Y-90725714D01*
X173124761Y-90773333D01*
X173172380Y-90868571D01*
X173172380Y-90963809D01*
X173124761Y-91059047D01*
X173077142Y-91106666D01*
X172981904Y-91154285D01*
X172791428Y-91201904D01*
X172553333Y-91201904D01*
X172362857Y-91154285D01*
X172267619Y-91106666D01*
X172220000Y-91059047D01*
X172172380Y-90963809D01*
X172172380Y-89725714D02*
X172172380Y-90201904D01*
X172648571Y-90249523D01*
X172600952Y-90201904D01*
X172553333Y-90106666D01*
X172553333Y-89868571D01*
X172600952Y-89773333D01*
X172648571Y-89725714D01*
X172743809Y-89678095D01*
X172981904Y-89678095D01*
X173077142Y-89725714D01*
X173124761Y-89773333D01*
X173172380Y-89868571D01*
X173172380Y-90106666D01*
X173124761Y-90201904D01*
X173077142Y-90249523D01*
X172886666Y-119070000D02*
X172886666Y-118593809D01*
X173172380Y-119165238D02*
X172172380Y-118831904D01*
X173172380Y-118498571D01*
X172172380Y-118308095D02*
X172172380Y-117736666D01*
X173172380Y-118022380D02*
X172172380Y-118022380D01*
X172267619Y-117450952D02*
X172220000Y-117403333D01*
X172172380Y-117308095D01*
X172172380Y-117070000D01*
X172220000Y-116974761D01*
X172267619Y-116927142D01*
X172362857Y-116879523D01*
X172458095Y-116879523D01*
X172600952Y-116927142D01*
X173172380Y-117498571D01*
X173172380Y-116879523D01*
X172600952Y-116308095D02*
X172553333Y-116403333D01*
X172505714Y-116450952D01*
X172410476Y-116498571D01*
X172362857Y-116498571D01*
X172267619Y-116450952D01*
X172220000Y-116403333D01*
X172172380Y-116308095D01*
X172172380Y-116117619D01*
X172220000Y-116022380D01*
X172267619Y-115974761D01*
X172362857Y-115927142D01*
X172410476Y-115927142D01*
X172505714Y-115974761D01*
X172553333Y-116022380D01*
X172600952Y-116117619D01*
X172600952Y-116308095D01*
X172648571Y-116403333D01*
X172696190Y-116450952D01*
X172791428Y-116498571D01*
X172981904Y-116498571D01*
X173077142Y-116450952D01*
X173124761Y-116403333D01*
X173172380Y-116308095D01*
X173172380Y-116117619D01*
X173124761Y-116022380D01*
X173077142Y-115974761D01*
X172981904Y-115927142D01*
X172791428Y-115927142D01*
X172696190Y-115974761D01*
X172648571Y-116022380D01*
X172600952Y-116117619D01*
X173077142Y-114927142D02*
X173124761Y-114974761D01*
X173172380Y-115117619D01*
X173172380Y-115212857D01*
X173124761Y-115355714D01*
X173029523Y-115450952D01*
X172934285Y-115498571D01*
X172743809Y-115546190D01*
X172600952Y-115546190D01*
X172410476Y-115498571D01*
X172315238Y-115450952D01*
X172220000Y-115355714D01*
X172172380Y-115212857D01*
X172172380Y-115117619D01*
X172220000Y-114974761D01*
X172267619Y-114927142D01*
X172267619Y-114546190D02*
X172220000Y-114498571D01*
X172172380Y-114403333D01*
X172172380Y-114165238D01*
X172220000Y-114070000D01*
X172267619Y-114022380D01*
X172362857Y-113974761D01*
X172458095Y-113974761D01*
X172600952Y-114022380D01*
X173172380Y-114593809D01*
X173172380Y-113974761D01*
X172172380Y-113070000D02*
X172172380Y-113546190D01*
X172648571Y-113593809D01*
X172600952Y-113546190D01*
X172553333Y-113450952D01*
X172553333Y-113212857D01*
X172600952Y-113117619D01*
X172648571Y-113070000D01*
X172743809Y-113022380D01*
X172981904Y-113022380D01*
X173077142Y-113070000D01*
X173124761Y-113117619D01*
X173172380Y-113212857D01*
X173172380Y-113450952D01*
X173124761Y-113546190D01*
X173077142Y-113593809D01*
X172172380Y-112165238D02*
X172172380Y-112355714D01*
X172220000Y-112450952D01*
X172267619Y-112498571D01*
X172410476Y-112593809D01*
X172600952Y-112641428D01*
X172981904Y-112641428D01*
X173077142Y-112593809D01*
X173124761Y-112546190D01*
X173172380Y-112450952D01*
X173172380Y-112260476D01*
X173124761Y-112165238D01*
X173077142Y-112117619D01*
X172981904Y-112070000D01*
X172743809Y-112070000D01*
X172648571Y-112117619D01*
X172600952Y-112165238D01*
X172553333Y-112260476D01*
X172553333Y-112450952D01*
X172600952Y-112546190D01*
X172648571Y-112593809D01*
X172743809Y-112641428D01*
X192492380Y-93154285D02*
X193301904Y-93154285D01*
X193397142Y-93106666D01*
X193444761Y-93059047D01*
X193492380Y-92963809D01*
X193492380Y-92773333D01*
X193444761Y-92678095D01*
X193397142Y-92630476D01*
X193301904Y-92582857D01*
X192492380Y-92582857D01*
X192492380Y-92201904D02*
X192492380Y-91582857D01*
X192873333Y-91916190D01*
X192873333Y-91773333D01*
X192920952Y-91678095D01*
X192968571Y-91630476D01*
X193063809Y-91582857D01*
X193301904Y-91582857D01*
X193397142Y-91630476D01*
X193444761Y-91678095D01*
X193492380Y-91773333D01*
X193492380Y-92059047D01*
X193444761Y-92154285D01*
X193397142Y-92201904D01*
X192492380Y-90963809D02*
X192492380Y-90868571D01*
X192540000Y-90773333D01*
X192587619Y-90725714D01*
X192682857Y-90678095D01*
X192873333Y-90630476D01*
X193111428Y-90630476D01*
X193301904Y-90678095D01*
X193397142Y-90725714D01*
X193444761Y-90773333D01*
X193492380Y-90868571D01*
X193492380Y-90963809D01*
X193444761Y-91059047D01*
X193397142Y-91106666D01*
X193301904Y-91154285D01*
X193111428Y-91201904D01*
X192873333Y-91201904D01*
X192682857Y-91154285D01*
X192587619Y-91106666D01*
X192540000Y-91059047D01*
X192492380Y-90963809D01*
X192492380Y-89773333D02*
X192492380Y-89963809D01*
X192540000Y-90059047D01*
X192587619Y-90106666D01*
X192730476Y-90201904D01*
X192920952Y-90249523D01*
X193301904Y-90249523D01*
X193397142Y-90201904D01*
X193444761Y-90154285D01*
X193492380Y-90059047D01*
X193492380Y-89868571D01*
X193444761Y-89773333D01*
X193397142Y-89725714D01*
X193301904Y-89678095D01*
X193063809Y-89678095D01*
X192968571Y-89725714D01*
X192920952Y-89773333D01*
X192873333Y-89868571D01*
X192873333Y-90059047D01*
X192920952Y-90154285D01*
X192968571Y-90201904D01*
X193063809Y-90249523D01*
X193492380Y-118808095D02*
X192492380Y-118808095D01*
X192968571Y-118808095D02*
X192968571Y-118236666D01*
X193492380Y-118236666D02*
X192492380Y-118236666D01*
X193492380Y-117760476D02*
X192492380Y-117760476D01*
X193206666Y-117427142D01*
X192492380Y-117093809D01*
X193492380Y-117093809D01*
X192492380Y-116189047D02*
X192492380Y-116379523D01*
X192540000Y-116474761D01*
X192587619Y-116522380D01*
X192730476Y-116617619D01*
X192920952Y-116665238D01*
X193301904Y-116665238D01*
X193397142Y-116617619D01*
X193444761Y-116570000D01*
X193492380Y-116474761D01*
X193492380Y-116284285D01*
X193444761Y-116189047D01*
X193397142Y-116141428D01*
X193301904Y-116093809D01*
X193063809Y-116093809D01*
X192968571Y-116141428D01*
X192920952Y-116189047D01*
X192873333Y-116284285D01*
X192873333Y-116474761D01*
X192920952Y-116570000D01*
X192968571Y-116617619D01*
X193063809Y-116665238D01*
X192587619Y-115712857D02*
X192540000Y-115665238D01*
X192492380Y-115570000D01*
X192492380Y-115331904D01*
X192540000Y-115236666D01*
X192587619Y-115189047D01*
X192682857Y-115141428D01*
X192778095Y-115141428D01*
X192920952Y-115189047D01*
X193492380Y-115760476D01*
X193492380Y-115141428D01*
X192587619Y-114760476D02*
X192540000Y-114712857D01*
X192492380Y-114617619D01*
X192492380Y-114379523D01*
X192540000Y-114284285D01*
X192587619Y-114236666D01*
X192682857Y-114189047D01*
X192778095Y-114189047D01*
X192920952Y-114236666D01*
X193492380Y-114808095D01*
X193492380Y-114189047D01*
X192492380Y-113284285D02*
X192492380Y-113760476D01*
X192968571Y-113808095D01*
X192920952Y-113760476D01*
X192873333Y-113665238D01*
X192873333Y-113427142D01*
X192920952Y-113331904D01*
X192968571Y-113284285D01*
X193063809Y-113236666D01*
X193301904Y-113236666D01*
X193397142Y-113284285D01*
X193444761Y-113331904D01*
X193492380Y-113427142D01*
X193492380Y-113665238D01*
X193444761Y-113760476D01*
X193397142Y-113808095D01*
X192492380Y-112379523D02*
X192492380Y-112570000D01*
X192540000Y-112665238D01*
X192587619Y-112712857D01*
X192730476Y-112808095D01*
X192920952Y-112855714D01*
X193301904Y-112855714D01*
X193397142Y-112808095D01*
X193444761Y-112760476D01*
X193492380Y-112665238D01*
X193492380Y-112474761D01*
X193444761Y-112379523D01*
X193397142Y-112331904D01*
X193301904Y-112284285D01*
X193063809Y-112284285D01*
X192968571Y-112331904D01*
X192920952Y-112379523D01*
X192873333Y-112474761D01*
X192873333Y-112665238D01*
X192920952Y-112760476D01*
X192968571Y-112808095D01*
X193063809Y-112855714D01*
X212812380Y-93154285D02*
X213621904Y-93154285D01*
X213717142Y-93106666D01*
X213764761Y-93059047D01*
X213812380Y-92963809D01*
X213812380Y-92773333D01*
X213764761Y-92678095D01*
X213717142Y-92630476D01*
X213621904Y-92582857D01*
X212812380Y-92582857D01*
X212812380Y-92201904D02*
X212812380Y-91582857D01*
X213193333Y-91916190D01*
X213193333Y-91773333D01*
X213240952Y-91678095D01*
X213288571Y-91630476D01*
X213383809Y-91582857D01*
X213621904Y-91582857D01*
X213717142Y-91630476D01*
X213764761Y-91678095D01*
X213812380Y-91773333D01*
X213812380Y-92059047D01*
X213764761Y-92154285D01*
X213717142Y-92201904D01*
X212812380Y-90963809D02*
X212812380Y-90868571D01*
X212860000Y-90773333D01*
X212907619Y-90725714D01*
X213002857Y-90678095D01*
X213193333Y-90630476D01*
X213431428Y-90630476D01*
X213621904Y-90678095D01*
X213717142Y-90725714D01*
X213764761Y-90773333D01*
X213812380Y-90868571D01*
X213812380Y-90963809D01*
X213764761Y-91059047D01*
X213717142Y-91106666D01*
X213621904Y-91154285D01*
X213431428Y-91201904D01*
X213193333Y-91201904D01*
X213002857Y-91154285D01*
X212907619Y-91106666D01*
X212860000Y-91059047D01*
X212812380Y-90963809D01*
X212812380Y-90297142D02*
X212812380Y-89630476D01*
X213812380Y-90059047D01*
X213812380Y-118808095D02*
X212812380Y-118808095D01*
X213288571Y-118808095D02*
X213288571Y-118236666D01*
X213812380Y-118236666D02*
X212812380Y-118236666D01*
X213812380Y-117760476D02*
X212812380Y-117760476D01*
X213526666Y-117427142D01*
X212812380Y-117093809D01*
X213812380Y-117093809D01*
X212812380Y-116189047D02*
X212812380Y-116379523D01*
X212860000Y-116474761D01*
X212907619Y-116522380D01*
X213050476Y-116617619D01*
X213240952Y-116665238D01*
X213621904Y-116665238D01*
X213717142Y-116617619D01*
X213764761Y-116570000D01*
X213812380Y-116474761D01*
X213812380Y-116284285D01*
X213764761Y-116189047D01*
X213717142Y-116141428D01*
X213621904Y-116093809D01*
X213383809Y-116093809D01*
X213288571Y-116141428D01*
X213240952Y-116189047D01*
X213193333Y-116284285D01*
X213193333Y-116474761D01*
X213240952Y-116570000D01*
X213288571Y-116617619D01*
X213383809Y-116665238D01*
X212907619Y-115712857D02*
X212860000Y-115665238D01*
X212812380Y-115570000D01*
X212812380Y-115331904D01*
X212860000Y-115236666D01*
X212907619Y-115189047D01*
X213002857Y-115141428D01*
X213098095Y-115141428D01*
X213240952Y-115189047D01*
X213812380Y-115760476D01*
X213812380Y-115141428D01*
X212907619Y-114760476D02*
X212860000Y-114712857D01*
X212812380Y-114617619D01*
X212812380Y-114379523D01*
X212860000Y-114284285D01*
X212907619Y-114236666D01*
X213002857Y-114189047D01*
X213098095Y-114189047D01*
X213240952Y-114236666D01*
X213812380Y-114808095D01*
X213812380Y-114189047D01*
X212812380Y-113284285D02*
X212812380Y-113760476D01*
X213288571Y-113808095D01*
X213240952Y-113760476D01*
X213193333Y-113665238D01*
X213193333Y-113427142D01*
X213240952Y-113331904D01*
X213288571Y-113284285D01*
X213383809Y-113236666D01*
X213621904Y-113236666D01*
X213717142Y-113284285D01*
X213764761Y-113331904D01*
X213812380Y-113427142D01*
X213812380Y-113665238D01*
X213764761Y-113760476D01*
X213717142Y-113808095D01*
X212812380Y-112379523D02*
X212812380Y-112570000D01*
X212860000Y-112665238D01*
X212907619Y-112712857D01*
X213050476Y-112808095D01*
X213240952Y-112855714D01*
X213621904Y-112855714D01*
X213717142Y-112808095D01*
X213764761Y-112760476D01*
X213812380Y-112665238D01*
X213812380Y-112474761D01*
X213764761Y-112379523D01*
X213717142Y-112331904D01*
X213621904Y-112284285D01*
X213383809Y-112284285D01*
X213288571Y-112331904D01*
X213240952Y-112379523D01*
X213193333Y-112474761D01*
X213193333Y-112665238D01*
X213240952Y-112760476D01*
X213288571Y-112808095D01*
X213383809Y-112855714D01*
X115022380Y-93154285D02*
X115831904Y-93154285D01*
X115927142Y-93106666D01*
X115974761Y-93059047D01*
X116022380Y-92963809D01*
X116022380Y-92773333D01*
X115974761Y-92678095D01*
X115927142Y-92630476D01*
X115831904Y-92582857D01*
X115022380Y-92582857D01*
X115022380Y-92201904D02*
X115022380Y-91582857D01*
X115403333Y-91916190D01*
X115403333Y-91773333D01*
X115450952Y-91678095D01*
X115498571Y-91630476D01*
X115593809Y-91582857D01*
X115831904Y-91582857D01*
X115927142Y-91630476D01*
X115974761Y-91678095D01*
X116022380Y-91773333D01*
X116022380Y-92059047D01*
X115974761Y-92154285D01*
X115927142Y-92201904D01*
X115022380Y-90963809D02*
X115022380Y-90868571D01*
X115070000Y-90773333D01*
X115117619Y-90725714D01*
X115212857Y-90678095D01*
X115403333Y-90630476D01*
X115641428Y-90630476D01*
X115831904Y-90678095D01*
X115927142Y-90725714D01*
X115974761Y-90773333D01*
X116022380Y-90868571D01*
X116022380Y-90963809D01*
X115974761Y-91059047D01*
X115927142Y-91106666D01*
X115831904Y-91154285D01*
X115641428Y-91201904D01*
X115403333Y-91201904D01*
X115212857Y-91154285D01*
X115117619Y-91106666D01*
X115070000Y-91059047D01*
X115022380Y-90963809D01*
X115450952Y-90059047D02*
X115403333Y-90154285D01*
X115355714Y-90201904D01*
X115260476Y-90249523D01*
X115212857Y-90249523D01*
X115117619Y-90201904D01*
X115070000Y-90154285D01*
X115022380Y-90059047D01*
X115022380Y-89868571D01*
X115070000Y-89773333D01*
X115117619Y-89725714D01*
X115212857Y-89678095D01*
X115260476Y-89678095D01*
X115355714Y-89725714D01*
X115403333Y-89773333D01*
X115450952Y-89868571D01*
X115450952Y-90059047D01*
X115498571Y-90154285D01*
X115546190Y-90201904D01*
X115641428Y-90249523D01*
X115831904Y-90249523D01*
X115927142Y-90201904D01*
X115974761Y-90154285D01*
X116022380Y-90059047D01*
X116022380Y-89868571D01*
X115974761Y-89773333D01*
X115927142Y-89725714D01*
X115831904Y-89678095D01*
X115641428Y-89678095D01*
X115546190Y-89725714D01*
X115498571Y-89773333D01*
X115450952Y-89868571D01*
X115022380Y-109164047D02*
X115022380Y-108497380D01*
X116022380Y-108925952D01*
X115355714Y-107687857D02*
X116022380Y-107687857D01*
X114974761Y-107925952D02*
X115689047Y-108164047D01*
X115689047Y-107545000D01*
X116022380Y-106687857D02*
X116022380Y-107164047D01*
X115022380Y-107164047D01*
X115974761Y-106402142D02*
X116022380Y-106259285D01*
X116022380Y-106021190D01*
X115974761Y-105925952D01*
X115927142Y-105878333D01*
X115831904Y-105830714D01*
X115736666Y-105830714D01*
X115641428Y-105878333D01*
X115593809Y-105925952D01*
X115546190Y-106021190D01*
X115498571Y-106211666D01*
X115450952Y-106306904D01*
X115403333Y-106354523D01*
X115308095Y-106402142D01*
X115212857Y-106402142D01*
X115117619Y-106354523D01*
X115070000Y-106306904D01*
X115022380Y-106211666D01*
X115022380Y-105973571D01*
X115070000Y-105830714D01*
X115022380Y-104973571D02*
X115022380Y-105164047D01*
X115070000Y-105259285D01*
X115117619Y-105306904D01*
X115260476Y-105402142D01*
X115450952Y-105449761D01*
X115831904Y-105449761D01*
X115927142Y-105402142D01*
X115974761Y-105354523D01*
X116022380Y-105259285D01*
X116022380Y-105068809D01*
X115974761Y-104973571D01*
X115927142Y-104925952D01*
X115831904Y-104878333D01*
X115593809Y-104878333D01*
X115498571Y-104925952D01*
X115450952Y-104973571D01*
X115403333Y-105068809D01*
X115403333Y-105259285D01*
X115450952Y-105354523D01*
X115498571Y-105402142D01*
X115593809Y-105449761D01*
X115450952Y-104306904D02*
X115403333Y-104402142D01*
X115355714Y-104449761D01*
X115260476Y-104497380D01*
X115212857Y-104497380D01*
X115117619Y-104449761D01*
X115070000Y-104402142D01*
X115022380Y-104306904D01*
X115022380Y-104116428D01*
X115070000Y-104021190D01*
X115117619Y-103973571D01*
X115212857Y-103925952D01*
X115260476Y-103925952D01*
X115355714Y-103973571D01*
X115403333Y-104021190D01*
X115450952Y-104116428D01*
X115450952Y-104306904D01*
X115498571Y-104402142D01*
X115546190Y-104449761D01*
X115641428Y-104497380D01*
X115831904Y-104497380D01*
X115927142Y-104449761D01*
X115974761Y-104402142D01*
X116022380Y-104306904D01*
X116022380Y-104116428D01*
X115974761Y-104021190D01*
X115927142Y-103973571D01*
X115831904Y-103925952D01*
X115641428Y-103925952D01*
X115546190Y-103973571D01*
X115498571Y-104021190D01*
X115450952Y-104116428D01*
X115117619Y-103545000D02*
X115070000Y-103497380D01*
X115022380Y-103402142D01*
X115022380Y-103164047D01*
X115070000Y-103068809D01*
X115117619Y-103021190D01*
X115212857Y-102973571D01*
X115308095Y-102973571D01*
X115450952Y-103021190D01*
X116022380Y-103592619D01*
X116022380Y-102973571D01*
M02*
