%TF.GenerationSoftware,KiCad,Pcbnew,(5.0.0)*%
%TF.CreationDate,2018-10-23T17:24:24+02:00*%
%TF.ProjectId,S80 Memory,533830204D656D6F72792E6B69636164,1.0*%
%TF.SameCoordinates,Original*%
%TF.FileFunction,Soldermask,Top*%
%TF.FilePolarity,Negative*%
%FSLAX46Y46*%
G04 Gerber Fmt 4.6, Leading zero omitted, Abs format (unit mm)*
G04 Created by KiCad (PCBNEW (5.0.0)) date 10/23/18 17:24:24*
%MOMM*%
%LPD*%
G01*
G04 APERTURE LIST*
%ADD10C,3.301600*%
%ADD11O,1.801600X1.801600*%
%ADD12R,1.801600X1.801600*%
%ADD13C,1.701600*%
%ADD14O,1.701600X1.701600*%
%ADD15R,1.701600X1.701600*%
G04 APERTURE END LIST*
D10*
X221032000Y-137100000D03*
X116892000Y-137100000D03*
X104192000Y-137100000D03*
X91492000Y-137100000D03*
X195632000Y-137100000D03*
X78792000Y-71060000D03*
X208332000Y-137100000D03*
X182932000Y-137100000D03*
X182932000Y-71060000D03*
X208332000Y-71060000D03*
X221032000Y-71060000D03*
X104192000Y-71060000D03*
X116892000Y-71060000D03*
X78792000Y-137100000D03*
X195632000Y-71060000D03*
X91492000Y-71060000D03*
D11*
X80645000Y-105410000D03*
X78105000Y-105410000D03*
X80645000Y-102870000D03*
X78105000Y-102870000D03*
X80645000Y-100330000D03*
X78105000Y-100330000D03*
X80645000Y-97790000D03*
X78105000Y-97790000D03*
X80645000Y-95250000D03*
X78105000Y-95250000D03*
X80645000Y-92710000D03*
X78105000Y-92710000D03*
X80645000Y-90170000D03*
X78105000Y-90170000D03*
X80645000Y-87630000D03*
D12*
X78105000Y-87630000D03*
D11*
X174015400Y-74168000D03*
X174015400Y-76708000D03*
X171475400Y-74168000D03*
X171475400Y-76708000D03*
X168935400Y-74168000D03*
X168935400Y-76708000D03*
X166395400Y-74168000D03*
X166395400Y-76708000D03*
X163855400Y-74168000D03*
X163855400Y-76708000D03*
X161315400Y-74168000D03*
X161315400Y-76708000D03*
X158775400Y-74168000D03*
X158775400Y-76708000D03*
X156235400Y-74168000D03*
X156235400Y-76708000D03*
X153695400Y-74168000D03*
X153695400Y-76708000D03*
X151155400Y-74168000D03*
X151155400Y-76708000D03*
X148615400Y-74168000D03*
X148615400Y-76708000D03*
X146075400Y-74168000D03*
X146075400Y-76708000D03*
X143535400Y-74168000D03*
X143535400Y-76708000D03*
X140995400Y-74168000D03*
X140995400Y-76708000D03*
X138455400Y-74168000D03*
X138455400Y-76708000D03*
X135915400Y-74168000D03*
X135915400Y-76708000D03*
X133375400Y-74168000D03*
X133375400Y-76708000D03*
X130835400Y-74168000D03*
X130835400Y-76708000D03*
X128295400Y-74168000D03*
X128295400Y-76708000D03*
X125755400Y-74168000D03*
D12*
X125755400Y-76708000D03*
D11*
X144018000Y-135178800D03*
X141478000Y-135178800D03*
X138938000Y-135178800D03*
X136398000Y-135178800D03*
X133858000Y-135178800D03*
X131318000Y-135178800D03*
X128778000Y-135178800D03*
D12*
X126238000Y-135178800D03*
X155702000Y-135178800D03*
D11*
X158242000Y-135178800D03*
X160782000Y-135178800D03*
X163322000Y-135178800D03*
X165862000Y-135178800D03*
X168402000Y-135178800D03*
X170942000Y-135178800D03*
X173482000Y-135178800D03*
D13*
X92630000Y-106680000D03*
X87630000Y-106680000D03*
X129540000Y-124460000D03*
X134540000Y-124460000D03*
X105330000Y-106680000D03*
X100330000Y-106680000D03*
X149860000Y-124460000D03*
X154860000Y-124460000D03*
X175180000Y-124460000D03*
X170180000Y-124460000D03*
X190500000Y-124460000D03*
X195500000Y-124460000D03*
X217090000Y-124460000D03*
X212090000Y-124460000D03*
X113030000Y-114300000D03*
X118030000Y-114300000D03*
D14*
X98904999Y-129540000D03*
D13*
X106524999Y-129540000D03*
X106680000Y-125730000D03*
D14*
X99060000Y-125730000D03*
X99060000Y-121920000D03*
D13*
X106680000Y-121920000D03*
D14*
X99060000Y-118110000D03*
D13*
X106680000Y-118110000D03*
X106680000Y-114300000D03*
D14*
X99060000Y-114300000D03*
D13*
X106680000Y-110490000D03*
D14*
X99060000Y-110490000D03*
X86360000Y-114300000D03*
D13*
X93980000Y-114300000D03*
D14*
X86360000Y-118110000D03*
D13*
X93980000Y-118110000D03*
D14*
X93980000Y-121920000D03*
D13*
X86360000Y-121920000D03*
X86360000Y-125730000D03*
D14*
X93980000Y-125730000D03*
X93980000Y-129540000D03*
D13*
X86360000Y-129540000D03*
D15*
X86360000Y-87630000D03*
D14*
X93980000Y-102870000D03*
X86360000Y-90170000D03*
X93980000Y-100330000D03*
X86360000Y-92710000D03*
X93980000Y-97790000D03*
X86360000Y-95250000D03*
X93980000Y-95250000D03*
X86360000Y-97790000D03*
X93980000Y-92710000D03*
X86360000Y-100330000D03*
X93980000Y-90170000D03*
X86360000Y-102870000D03*
X93980000Y-87630000D03*
X139700000Y-87630000D03*
X124460000Y-120650000D03*
X139700000Y-90170000D03*
X124460000Y-118110000D03*
X139700000Y-92710000D03*
X124460000Y-115570000D03*
X139700000Y-95250000D03*
X124460000Y-113030000D03*
X139700000Y-97790000D03*
X124460000Y-110490000D03*
X139700000Y-100330000D03*
X124460000Y-107950000D03*
X139700000Y-102870000D03*
X124460000Y-105410000D03*
X139700000Y-105410000D03*
X124460000Y-102870000D03*
X139700000Y-107950000D03*
X124460000Y-100330000D03*
X139700000Y-110490000D03*
X124460000Y-97790000D03*
X139700000Y-113030000D03*
X124460000Y-95250000D03*
X139700000Y-115570000D03*
X124460000Y-92710000D03*
X139700000Y-118110000D03*
X124460000Y-90170000D03*
X139700000Y-120650000D03*
D15*
X124460000Y-87630000D03*
X99060000Y-87630000D03*
D14*
X106680000Y-102870000D03*
X99060000Y-90170000D03*
X106680000Y-100330000D03*
X99060000Y-92710000D03*
X106680000Y-97790000D03*
X99060000Y-95250000D03*
X106680000Y-95250000D03*
X99060000Y-97790000D03*
X106680000Y-92710000D03*
X99060000Y-100330000D03*
X106680000Y-90170000D03*
X99060000Y-102870000D03*
X106680000Y-87630000D03*
D15*
X144780000Y-87630000D03*
D14*
X160020000Y-120650000D03*
X144780000Y-90170000D03*
X160020000Y-118110000D03*
X144780000Y-92710000D03*
X160020000Y-115570000D03*
X144780000Y-95250000D03*
X160020000Y-113030000D03*
X144780000Y-97790000D03*
X160020000Y-110490000D03*
X144780000Y-100330000D03*
X160020000Y-107950000D03*
X144780000Y-102870000D03*
X160020000Y-105410000D03*
X144780000Y-105410000D03*
X160020000Y-102870000D03*
X144780000Y-107950000D03*
X160020000Y-100330000D03*
X144780000Y-110490000D03*
X160020000Y-97790000D03*
X144780000Y-113030000D03*
X160020000Y-95250000D03*
X144780000Y-115570000D03*
X160020000Y-92710000D03*
X144780000Y-118110000D03*
X160020000Y-90170000D03*
X144780000Y-120650000D03*
X160020000Y-87630000D03*
X180340000Y-87630000D03*
X165100000Y-120650000D03*
X180340000Y-90170000D03*
X165100000Y-118110000D03*
X180340000Y-92710000D03*
X165100000Y-115570000D03*
X180340000Y-95250000D03*
X165100000Y-113030000D03*
X180340000Y-97790000D03*
X165100000Y-110490000D03*
X180340000Y-100330000D03*
X165100000Y-107950000D03*
X180340000Y-102870000D03*
X165100000Y-105410000D03*
X180340000Y-105410000D03*
X165100000Y-102870000D03*
X180340000Y-107950000D03*
X165100000Y-100330000D03*
X180340000Y-110490000D03*
X165100000Y-97790000D03*
X180340000Y-113030000D03*
X165100000Y-95250000D03*
X180340000Y-115570000D03*
X165100000Y-92710000D03*
X180340000Y-118110000D03*
X165100000Y-90170000D03*
X180340000Y-120650000D03*
D15*
X165100000Y-87630000D03*
X185420000Y-87630000D03*
D14*
X200660000Y-120650000D03*
X185420000Y-90170000D03*
X200660000Y-118110000D03*
X185420000Y-92710000D03*
X200660000Y-115570000D03*
X185420000Y-95250000D03*
X200660000Y-113030000D03*
X185420000Y-97790000D03*
X200660000Y-110490000D03*
X185420000Y-100330000D03*
X200660000Y-107950000D03*
X185420000Y-102870000D03*
X200660000Y-105410000D03*
X185420000Y-105410000D03*
X200660000Y-102870000D03*
X185420000Y-107950000D03*
X200660000Y-100330000D03*
X185420000Y-110490000D03*
X200660000Y-97790000D03*
X185420000Y-113030000D03*
X200660000Y-95250000D03*
X185420000Y-115570000D03*
X200660000Y-92710000D03*
X185420000Y-118110000D03*
X200660000Y-90170000D03*
X185420000Y-120650000D03*
X200660000Y-87630000D03*
D15*
X205740000Y-87630000D03*
D14*
X220980000Y-120650000D03*
X205740000Y-90170000D03*
X220980000Y-118110000D03*
X205740000Y-92710000D03*
X220980000Y-115570000D03*
X205740000Y-95250000D03*
X220980000Y-113030000D03*
X205740000Y-97790000D03*
X220980000Y-110490000D03*
X205740000Y-100330000D03*
X220980000Y-107950000D03*
X205740000Y-102870000D03*
X220980000Y-105410000D03*
X205740000Y-105410000D03*
X220980000Y-102870000D03*
X205740000Y-107950000D03*
X220980000Y-100330000D03*
X205740000Y-110490000D03*
X220980000Y-97790000D03*
X205740000Y-113030000D03*
X220980000Y-95250000D03*
X205740000Y-115570000D03*
X220980000Y-92710000D03*
X205740000Y-118110000D03*
X220980000Y-90170000D03*
X205740000Y-120650000D03*
X220980000Y-87630000D03*
D15*
X111760000Y-87630000D03*
D14*
X119380000Y-110490000D03*
X111760000Y-90170000D03*
X119380000Y-107950000D03*
X111760000Y-92710000D03*
X119380000Y-105410000D03*
X111760000Y-95250000D03*
X119380000Y-102870000D03*
X111760000Y-97790000D03*
X119380000Y-100330000D03*
X111760000Y-100330000D03*
X119380000Y-97790000D03*
X111760000Y-102870000D03*
X119380000Y-95250000D03*
X111760000Y-105410000D03*
X119380000Y-92710000D03*
X111760000Y-107950000D03*
X119380000Y-90170000D03*
X111760000Y-110490000D03*
X119380000Y-87630000D03*
D12*
X78105000Y-114300000D03*
D11*
X80645000Y-114300000D03*
X78105000Y-116840000D03*
X80645000Y-116840000D03*
X78105000Y-119380000D03*
X80645000Y-119380000D03*
M02*
