M48
;DRILL file {KiCad (5.0.0)} date 10/23/18 17:24:37
;FORMAT={-:-/ absolute / inch / decimal}
FMAT,2
INCH,TZ
T1C0.0130
T2C0.0315
T3C0.0394
T4C0.1260
%
G90
G05
M72
T1
X3.29Y-3.655
X3.29Y-3.75
X3.29Y-3.95
X3.29Y-4.05
X3.4665Y-3.75
X3.485Y-3.6
X3.5506Y-3.77
X3.5506Y-4.6499
X3.605Y-3.95
X3.6055Y-3.6248
X3.6055Y-3.6736
X3.6055Y-3.7441
X3.6055Y-3.848
X3.765Y-4.77
X3.765Y-4.875
X3.765Y-5.02
X3.765Y-5.165
X3.775Y-3.665
X3.775Y-3.745
X3.84Y-3.859
X3.84Y-3.95
X3.97Y-3.77
X3.97Y-3.859
X3.97Y-3.95
X4.47Y-3.85
X4.47Y-4.05
X4.47Y-4.2
X4.56Y-3.85
X4.56Y-4.05
X4.56Y-4.2
X4.5745Y-4.2798
X4.5781Y-4.4598
X4.5785Y-4.4937
X4.6035Y-3.8502
X4.6143Y-4.2841
X4.6208Y-3.5094
X4.8Y-3.55
X4.8Y-3.65
X4.8Y-3.75
X4.8Y-3.85
X4.8Y-3.95
X4.8Y-4.05
X4.8Y-4.15
X4.8Y-4.25
X4.8Y-4.35
X4.875Y-2.92
X4.9894Y-4.238
X4.9936Y-3.0723
X5.0004Y-2.884
X5.0171Y-2.9698
X5.0332Y-3.8283
X5.2Y-3.45
X5.2Y-3.55
X5.2Y-3.65
X5.2Y-3.75
X5.2Y-3.85
X5.2Y-3.95
X5.2Y-4.05
X5.2Y-4.15
X5.2Y-4.25
X5.2Y-4.35
X5.2Y-4.45
X5.2Y-4.55
X5.2Y-4.65
X5.2Y-4.75
X5.3586Y-4.0456
X5.413Y-4.3462
X5.4133Y-3.9438
X5.58Y-3.55
X5.58Y-3.65
X5.58Y-3.75
X5.58Y-3.85
X5.58Y-3.95
X5.58Y-4.05
X5.58Y-4.15
X5.58Y-4.25
X5.58Y-4.35
X5.58Y-4.45
X5.58Y-4.55
X5.58Y-4.65
X5.58Y-4.75
X5.5878Y-3.4575
X5.7736Y-3.463
X5.774Y-3.5193
X5.7755Y-4.0515
X5.817Y-3.951
X5.8596Y-3.8501
X5.905Y-3.95
X5.905Y-4.05
X5.905Y-4.15
X5.905Y-4.25
X5.905Y-4.35
X5.905Y-4.75
X5.9092Y-3.7502
X5.9138Y-3.8646
X5.9323Y-3.6502
X5.9444Y-4.4502
X5.9525Y-4.5505
X5.9655Y-4.6497
X5.9945Y-4.7495
X6.0194Y-4.6504
X6.0331Y-4.5496
X6.0441Y-4.4499
X6.0546Y-4.3498
X6.0654Y-3.7437
X6.0669Y-3.8441
X6.0683Y-3.65
X6.0837Y-3.5501
X6.1094Y-3.9501
X6.1492Y-4.1503
X6.1887Y-3.8556
X6.2321Y-3.7499
X6.4Y-3.445
X6.4Y-3.55
X6.4Y-3.65
X6.4Y-3.75
X6.4Y-3.85
X6.4Y-3.95
X6.4Y-4.05
X6.4Y-4.15
X6.4Y-4.25
X6.4Y-4.35
X6.4Y-4.45
X6.4Y-4.55
X6.4Y-4.65
X6.4Y-4.75
X6.5168Y-2.9702
X6.8Y-3.445
X6.8Y-3.55
X6.8Y-3.65
X6.8Y-3.75
X6.8Y-3.85
X6.8Y-3.95
X6.8Y-4.05
X6.8Y-4.15
X6.8Y-4.25
X6.8Y-4.35
X6.8Y-4.45
X6.8Y-4.55
X6.8Y-4.65
X6.8Y-4.75
X7.2Y-3.445
X7.2Y-3.55
X7.2Y-3.65
X7.2Y-3.75
X7.2Y-3.85
X7.2Y-3.95
X7.2Y-4.05
X7.2Y-4.15
X7.2Y-4.25
X7.2Y-4.35
X7.2Y-4.45
X7.2Y-4.55
X7.2Y-4.65
X7.2Y-4.75
X7.61Y-3.445
X7.61Y-3.54
X7.61Y-3.65
X7.61Y-3.75
X7.61Y-3.845
X7.61Y-3.95
X7.61Y-4.05
X7.61Y-4.15
X7.61Y-4.25
X7.61Y-4.35
X7.61Y-4.45
X7.61Y-4.55
X7.61Y-4.65
X7.61Y-4.75
X8.Y-3.45
X8.Y-3.55
X8.Y-3.65
X8.Y-3.75
X8.Y-3.85
X8.Y-3.95
X8.Y-4.05
X8.Y-4.15
X8.Y-4.25
X8.Y-4.35
X8.Y-4.45
X8.Y-4.55
X8.Y-4.65
X8.Y-4.75
X8.4Y-3.445
X8.4Y-3.55
X8.4Y-3.65
X8.4Y-3.75
X8.4Y-3.85
X8.4Y-3.95
X8.4Y-4.05
X8.4Y-4.2
X8.4Y-4.355
X8.4Y-4.45
X8.4Y-4.55
X8.4Y-4.65
X8.4Y-4.75
T2
X3.4Y-4.95
X3.7Y-4.95
X3.4Y-4.8
X3.7Y-4.8
X3.9Y-4.35
X4.2Y-4.35
X5.9Y-4.9
X6.0969Y-4.9
X8.35Y-4.9
X8.5469Y-4.9
X3.45Y-4.2
X3.6469Y-4.2
X3.4Y-4.65
X3.7Y-4.65
X6.5Y-3.45
X6.5Y-3.55
X6.5Y-3.65
X6.5Y-3.75
X6.5Y-3.85
X6.5Y-3.95
X6.5Y-4.05
X6.5Y-4.15
X6.5Y-4.25
X6.5Y-4.35
X6.5Y-4.45
X6.5Y-4.55
X6.5Y-4.65
X6.5Y-4.75
X7.1Y-3.45
X7.1Y-3.55
X7.1Y-3.65
X7.1Y-3.75
X7.1Y-3.85
X7.1Y-3.95
X7.1Y-4.05
X7.1Y-4.15
X7.1Y-4.25
X7.1Y-4.35
X7.1Y-4.45
X7.1Y-4.55
X7.1Y-4.65
X7.1Y-4.75
X5.1Y-4.9
X5.2969Y-4.9
X3.9Y-4.95
X4.2Y-4.95
X3.9Y-3.45
X3.9Y-3.55
X3.9Y-3.65
X3.9Y-3.75
X3.9Y-3.85
X3.9Y-3.95
X3.9Y-4.05
X4.2Y-3.45
X4.2Y-3.55
X4.2Y-3.65
X4.2Y-3.75
X4.2Y-3.85
X4.2Y-3.95
X4.2Y-4.05
X3.4Y-3.45
X3.4Y-3.55
X3.4Y-3.65
X3.4Y-3.75
X3.4Y-3.85
X3.4Y-3.95
X3.4Y-4.05
X3.7Y-3.45
X3.7Y-3.55
X3.7Y-3.65
X3.7Y-3.75
X3.7Y-3.85
X3.7Y-3.95
X3.7Y-4.05
X3.4Y-5.1
X3.7Y-5.1
X3.95Y-4.2
X4.1469Y-4.2
X7.3Y-3.45
X7.3Y-3.55
X7.3Y-3.65
X7.3Y-3.75
X7.3Y-3.85
X7.3Y-3.95
X7.3Y-4.05
X7.3Y-4.15
X7.3Y-4.25
X7.3Y-4.35
X7.3Y-4.45
X7.3Y-4.55
X7.3Y-4.65
X7.3Y-4.75
X7.9Y-3.45
X7.9Y-3.55
X7.9Y-3.65
X7.9Y-3.75
X7.9Y-3.85
X7.9Y-3.95
X7.9Y-4.05
X7.9Y-4.15
X7.9Y-4.25
X7.9Y-4.35
X7.9Y-4.45
X7.9Y-4.55
X7.9Y-4.65
X7.9Y-4.75
X5.7Y-3.45
X5.7Y-3.55
X5.7Y-3.65
X5.7Y-3.75
X5.7Y-3.85
X5.7Y-3.95
X5.7Y-4.05
X5.7Y-4.15
X5.7Y-4.25
X5.7Y-4.35
X5.7Y-4.45
X5.7Y-4.55
X5.7Y-4.65
X5.7Y-4.75
X6.3Y-3.45
X6.3Y-3.55
X6.3Y-3.65
X6.3Y-3.75
X6.3Y-3.85
X6.3Y-3.95
X6.3Y-4.05
X6.3Y-4.15
X6.3Y-4.25
X6.3Y-4.35
X6.3Y-4.45
X6.3Y-4.55
X6.3Y-4.65
X6.3Y-4.75
X3.9Y-4.5
X4.2Y-4.5
X7.5Y-4.9
X7.6969Y-4.9
X3.4Y-4.5
X3.7Y-4.5
X4.4Y-3.45
X4.4Y-3.55
X4.4Y-3.65
X4.4Y-3.75
X4.4Y-3.85
X4.4Y-3.95
X4.4Y-4.05
X4.4Y-4.15
X4.4Y-4.25
X4.4Y-4.35
X4.7Y-3.45
X4.7Y-3.55
X4.7Y-3.65
X4.7Y-3.75
X4.7Y-3.85
X4.7Y-3.95
X4.7Y-4.05
X4.7Y-4.15
X4.7Y-4.25
X4.7Y-4.35
X3.9Y-4.65
X4.2Y-4.65
X8.1Y-3.45
X8.1Y-3.55
X8.1Y-3.65
X8.1Y-3.75
X8.1Y-3.85
X8.1Y-3.95
X8.1Y-4.05
X8.1Y-4.15
X8.1Y-4.25
X8.1Y-4.35
X8.1Y-4.45
X8.1Y-4.55
X8.1Y-4.65
X8.1Y-4.75
X8.7Y-3.45
X8.7Y-3.55
X8.7Y-3.65
X8.7Y-3.75
X8.7Y-3.85
X8.7Y-3.95
X8.7Y-4.05
X8.7Y-4.15
X8.7Y-4.25
X8.7Y-4.35
X8.7Y-4.45
X8.7Y-4.55
X8.7Y-4.65
X8.7Y-4.75
X3.9Y-4.8
X4.2Y-4.8
X4.9Y-3.45
X4.9Y-3.55
X4.9Y-3.65
X4.9Y-3.75
X4.9Y-3.85
X4.9Y-3.95
X4.9Y-4.05
X4.9Y-4.15
X4.9Y-4.25
X4.9Y-4.35
X4.9Y-4.45
X4.9Y-4.55
X4.9Y-4.65
X4.9Y-4.75
X5.5Y-3.45
X5.5Y-3.55
X5.5Y-3.65
X5.5Y-3.75
X5.5Y-3.85
X5.5Y-3.95
X5.5Y-4.05
X5.5Y-4.15
X5.5Y-4.25
X5.5Y-4.35
X5.5Y-4.45
X5.5Y-4.55
X5.5Y-4.65
X5.5Y-4.75
X3.8939Y-5.1
X4.1939Y-5.1
X4.45Y-4.5
X4.6469Y-4.5
X6.7Y-4.9
X6.8969Y-4.9
T3
X3.075Y-3.45
X3.075Y-3.55
X3.075Y-3.65
X3.075Y-3.75
X3.075Y-3.85
X3.075Y-3.95
X3.075Y-4.05
X3.075Y-4.15
X3.175Y-3.45
X3.175Y-3.55
X3.175Y-3.65
X3.175Y-3.75
X3.175Y-3.85
X3.175Y-3.95
X3.175Y-4.05
X3.175Y-4.15
X4.951Y-2.92
X4.951Y-3.02
X5.051Y-2.92
X5.051Y-3.02
X5.151Y-2.92
X5.151Y-3.02
X5.251Y-2.92
X5.251Y-3.02
X5.351Y-2.92
X5.351Y-3.02
X5.451Y-2.92
X5.451Y-3.02
X5.551Y-2.92
X5.551Y-3.02
X5.651Y-2.92
X5.651Y-3.02
X5.751Y-2.92
X5.751Y-3.02
X5.851Y-2.92
X5.851Y-3.02
X5.951Y-2.92
X5.951Y-3.02
X6.051Y-2.92
X6.051Y-3.02
X6.151Y-2.92
X6.151Y-3.02
X6.251Y-2.92
X6.251Y-3.02
X6.351Y-2.92
X6.351Y-3.02
X6.451Y-2.92
X6.451Y-3.02
X6.551Y-2.92
X6.551Y-3.02
X6.651Y-2.92
X6.651Y-3.02
X6.751Y-2.92
X6.751Y-3.02
X6.851Y-2.92
X6.851Y-3.02
X4.97Y-5.322
X5.07Y-5.322
X5.17Y-5.322
X5.27Y-5.322
X5.37Y-5.322
X5.47Y-5.322
X5.57Y-5.322
X5.67Y-5.322
X6.13Y-5.322
X6.23Y-5.322
X6.33Y-5.322
X6.43Y-5.322
X6.53Y-5.322
X6.63Y-5.322
X6.73Y-5.322
X6.83Y-5.322
X3.075Y-4.5
X3.075Y-4.6
X3.075Y-4.7
X3.175Y-4.5
X3.175Y-4.6
X3.175Y-4.7
T4
X7.702Y-2.7976
X4.102Y-2.7976
X8.702Y-2.7976
X8.202Y-2.7976
X7.202Y-5.3976
X3.602Y-5.3976
X3.602Y-2.7976
X8.702Y-5.3976
X3.102Y-2.7976
X7.202Y-2.7976
X4.102Y-5.3976
X3.102Y-5.3976
X7.702Y-5.3976
X4.602Y-5.3976
X8.202Y-5.3976
X4.602Y-2.7976
T0
M30
