M48
;DRILL file {KiCad (5.0.1)-3} date 22/11/2018 17:32:49
;FORMAT={-:-/ absolute / inch / decimal}
FMAT,2
INCH,TZ
T1C0.0130
T2C0.0315
T3C0.0394
T4C0.0433
%
G90
G05
M72
T1
X3.7679Y-2.5006
X3.8648Y-2.6271
X3.8694Y-2.6789
X3.8694Y-2.7904
X3.872Y-3.1504
X3.877Y-2.5508
X3.887Y-2.4492
X3.8944Y-3.6604
X3.8948Y-3.4967
X3.899Y-2.349
X3.9Y-2.75
X3.911Y-2.2512
X3.9233Y-2.1716
X3.9356Y-2.0725
X3.9356Y-2.1405
X3.9474Y-1.973
X3.9481Y-2.0407
X3.9602Y-1.9416
X3.9648Y-1.8499
X3.969Y-2.4723
X3.969Y-2.9502
X3.9693Y-2.8502
X3.972Y-1.7844
X3.9729Y-1.7504
X3.9883Y-1.818
X4.0148Y-2.5736
X4.0277Y-2.6505
X4.0376Y-2.5006
X4.0379Y-2.326
X4.0565Y-3.0052
X4.0692Y-2.9502
X4.0957Y-2.2171
X4.1123Y-3.0501
X4.1189Y-2.9816
X4.1787Y-3.3495
X4.2155Y-3.2978
X4.2169Y-3.2556
X4.223Y-3.5495
X4.2585Y-3.45
X4.2725Y-3.2484
X4.2845Y-3.65
X4.2943Y-1.9035
X4.3011Y-1.7975
X4.3149Y-3.2158
X4.3149Y-3.3089
X4.3149Y-3.3089
X4.3151Y-3.3979
X4.3159Y-3.1025
X4.3228Y-1.8731
X4.3316Y-2.2084
X4.3316Y-2.2961
X4.3316Y-2.4006
X4.3316Y-2.4985
X4.3316Y-2.5909
X4.3316Y-2.6793
X4.3316Y-2.6793
X4.3316Y-2.6793
X4.3317Y-2.1203
X4.3322Y-2.0388
X4.3353Y-1.8228
X4.3375Y-1.9426
X4.4307Y-1.7986
X4.454Y-2.0168
X4.4568Y-1.9267
T2
X4.65Y-2.93
X4.65Y-3.03
X4.65Y-3.13
X4.65Y-3.23
X4.65Y-3.33
X4.65Y-3.43
X4.65Y-3.53
X4.95Y-2.93
X4.95Y-3.03
X4.95Y-3.13
X4.95Y-3.23
X4.95Y-3.33
X4.95Y-3.43
X4.95Y-3.53
X3.55Y-3.35
X3.55Y-3.5469
X4.7Y-3.65
X4.8969Y-3.65
X4.0005Y-3.775
X4.1974Y-3.775
X4.875Y-2.155
X4.875Y-2.455
X3.25Y-1.825
X3.25Y-2.425
X3.55Y-1.825
X3.55Y-2.425
X3.425Y-3.3
X3.425Y-3.6
X4.725Y-2.155
X4.725Y-2.455
X4.75Y-2.65
X4.8484Y-2.65
X3.8Y-1.75
X3.8Y-1.85
X3.8Y-1.95
X3.8Y-2.05
X3.8Y-2.15
X3.8Y-2.25
X3.8Y-2.35
X3.8Y-2.45
X3.8Y-2.55
X3.8Y-2.65
X3.8Y-2.75
X3.8Y-2.85
X3.8Y-2.95
X3.8Y-3.05
X3.8Y-3.15
X3.8Y-3.25
X3.8Y-3.35
X3.8Y-3.45
X3.8Y-3.55
X3.8Y-3.65
X4.4Y-1.75
X4.4Y-1.85
X4.4Y-1.95
X4.4Y-2.05
X4.4Y-2.15
X4.4Y-2.25
X4.4Y-2.35
X4.4Y-2.45
X4.4Y-2.55
X4.4Y-2.65
X4.4Y-2.75
X4.4Y-2.85
X4.4Y-2.95
X4.4Y-3.05
X4.4Y-3.15
X4.4Y-3.25
X4.4Y-3.35
X4.4Y-3.45
X4.4Y-3.55
X4.4Y-3.65
X3.3Y-2.75
X3.4969Y-2.75
X3.25Y-2.625
X3.55Y-2.625
T3
X3.2697Y-3.3
X3.2697Y-3.4
X3.2697Y-3.5
X3.2697Y-3.6
X4.3302Y-3.8213
X4.4302Y-3.8213
X4.5302Y-3.8213
X4.6302Y-3.8213
X4.7302Y-3.8213
X4.8302Y-3.8213
X4.9302Y-3.8213
X5.0302Y-3.8213
X3.1506Y-1.418
X3.1506Y-1.518
X3.2506Y-1.418
X3.2506Y-1.518
X3.3506Y-1.418
X3.3506Y-1.518
X3.4506Y-1.418
X3.4506Y-1.518
X3.5506Y-1.418
X3.5506Y-1.518
X3.6506Y-1.418
X3.6506Y-1.518
X3.7506Y-1.418
X3.7506Y-1.518
X3.8506Y-1.418
X3.8506Y-1.518
X3.9506Y-1.418
X3.9506Y-1.518
X4.0506Y-1.418
X4.0506Y-1.518
X4.1506Y-1.418
X4.1506Y-1.518
X4.2506Y-1.418
X4.2506Y-1.518
X4.3506Y-1.418
X4.3506Y-1.518
X4.4506Y-1.418
X4.4506Y-1.518
X4.5506Y-1.418
X4.5506Y-1.518
X4.6506Y-1.418
X4.6506Y-1.518
X4.7506Y-1.418
X4.7506Y-1.518
X4.8506Y-1.418
X4.8506Y-1.518
X4.9506Y-1.418
X4.9506Y-1.518
X5.0506Y-1.418
X5.0506Y-1.518
X3.1697Y-3.821
X3.2697Y-3.821
X3.3697Y-3.821
X3.4697Y-3.821
X3.5697Y-3.821
X3.6697Y-3.821
X3.7697Y-3.821
X3.8697Y-3.821
T4
X4.71Y-1.7691
X4.71Y-2.025
X4.8872Y-1.7691
X4.8872Y-2.025
T0
M30
