%TF.GenerationSoftware,KiCad,Pcbnew,(5.0.1)-3*%
%TF.CreationDate,2018-11-22T17:32:38+01:00*%
%TF.ProjectId,S80 Processor,5338302050726F636573736F722E6B69,2.0*%
%TF.SameCoordinates,Original*%
%TF.FileFunction,Copper,L2,Bot,Signal*%
%TF.FilePolarity,Positive*%
%FSLAX46Y46*%
G04 Gerber Fmt 4.6, Leading zero omitted, Abs format (unit mm)*
G04 Created by KiCad (PCBNEW (5.0.1)-3) date 22/11/2018 17:32:38*
%MOMM*%
%LPD*%
G01*
G04 APERTURE LIST*
%ADD10O,1.600000X1.600000*%
%ADD11R,1.600000X1.600000*%
%ADD12C,1.600000*%
%ADD13R,1.700000X1.700000*%
%ADD14O,1.700000X1.700000*%
%ADD15C,2.000000*%
%ADD16C,0.685800*%
%ADD17C,0.254000*%
%ADD18C,0.457200*%
%ADD19C,0.152400*%
G04 APERTURE END LIST*
D10*
X111760000Y-44450000D03*
X96520000Y-92710000D03*
X111760000Y-46990000D03*
X96520000Y-90170000D03*
X111760000Y-49530000D03*
X96520000Y-87630000D03*
X111760000Y-52070000D03*
X96520000Y-85090000D03*
X111760000Y-54610000D03*
X96520000Y-82550000D03*
X111760000Y-57150000D03*
X96520000Y-80010000D03*
X111760000Y-59690000D03*
X96520000Y-77470000D03*
X111760000Y-62230000D03*
X96520000Y-74930000D03*
X111760000Y-64770000D03*
X96520000Y-72390000D03*
X111760000Y-67310000D03*
X96520000Y-69850000D03*
X111760000Y-69850000D03*
X96520000Y-67310000D03*
X111760000Y-72390000D03*
X96520000Y-64770000D03*
X111760000Y-74930000D03*
X96520000Y-62230000D03*
X111760000Y-77470000D03*
X96520000Y-59690000D03*
X111760000Y-80010000D03*
X96520000Y-57150000D03*
X111760000Y-82550000D03*
X96520000Y-54610000D03*
X111760000Y-85090000D03*
X96520000Y-52070000D03*
X111760000Y-87630000D03*
X96520000Y-49530000D03*
X111760000Y-90170000D03*
X96520000Y-46990000D03*
X111760000Y-92710000D03*
D11*
X96520000Y-44450000D03*
D12*
X106613960Y-95885000D03*
X101613960Y-95885000D03*
X90170000Y-85090000D03*
X90170000Y-90090000D03*
D11*
X120650000Y-67310000D03*
D12*
X123150000Y-67310000D03*
X119380000Y-92710000D03*
X124380000Y-92710000D03*
X88820000Y-69850000D03*
X83820000Y-69850000D03*
D10*
X86995000Y-91440000D03*
X86995000Y-83820000D03*
X82550000Y-66675000D03*
X90170000Y-66675000D03*
D13*
X80510380Y-97053400D03*
D14*
X83050380Y-97053400D03*
X85590380Y-97053400D03*
X88130380Y-97053400D03*
X90670380Y-97053400D03*
X93210380Y-97053400D03*
X95750380Y-97053400D03*
X98290380Y-97053400D03*
D13*
X80025240Y-38557200D03*
D14*
X80025240Y-36017200D03*
X82565240Y-38557200D03*
X82565240Y-36017200D03*
X85105240Y-38557200D03*
X85105240Y-36017200D03*
X87645240Y-38557200D03*
X87645240Y-36017200D03*
X90185240Y-38557200D03*
X90185240Y-36017200D03*
X92725240Y-38557200D03*
X92725240Y-36017200D03*
X95265240Y-38557200D03*
X95265240Y-36017200D03*
X97805240Y-38557200D03*
X97805240Y-36017200D03*
X100345240Y-38557200D03*
X100345240Y-36017200D03*
X102885240Y-38557200D03*
X102885240Y-36017200D03*
X105425240Y-38557200D03*
X105425240Y-36017200D03*
X107965240Y-38557200D03*
X107965240Y-36017200D03*
X110505240Y-38557200D03*
X110505240Y-36017200D03*
X113045240Y-38557200D03*
X113045240Y-36017200D03*
X115585240Y-38557200D03*
X115585240Y-36017200D03*
X118125240Y-38557200D03*
X118125240Y-36017200D03*
X120665240Y-38557200D03*
X120665240Y-36017200D03*
X123205240Y-38557200D03*
X123205240Y-36017200D03*
X125745240Y-38557200D03*
X125745240Y-36017200D03*
X128285240Y-38557200D03*
X128285240Y-36017200D03*
X127767080Y-97061020D03*
X125227080Y-97061020D03*
X122687080Y-97061020D03*
X120147080Y-97061020D03*
X117607080Y-97061020D03*
X115067080Y-97061020D03*
X112527080Y-97061020D03*
D13*
X109987080Y-97061020D03*
X83050380Y-83820000D03*
D14*
X83050380Y-86360000D03*
X83050380Y-88900000D03*
X83050380Y-91440000D03*
D12*
X123825000Y-62357000D03*
D10*
X123825000Y-54737000D03*
X120015000Y-54737000D03*
D12*
X120015000Y-62357000D03*
D15*
X124134000Y-51435000D03*
X119634000Y-51435000D03*
X124134000Y-44935000D03*
X119634000Y-44935000D03*
D10*
X125730000Y-74422000D03*
X118110000Y-89662000D03*
X125730000Y-76962000D03*
X118110000Y-87122000D03*
X125730000Y-79502000D03*
X118110000Y-84582000D03*
X125730000Y-82042000D03*
X118110000Y-82042000D03*
X125730000Y-84582000D03*
X118110000Y-79502000D03*
X125730000Y-87122000D03*
X118110000Y-76962000D03*
X125730000Y-89662000D03*
D11*
X118110000Y-74422000D03*
D12*
X82550000Y-61595000D03*
X90170000Y-61595000D03*
X90170000Y-46355000D03*
D11*
X82550000Y-46355000D03*
D16*
X113202720Y-48938180D03*
X95704660Y-63515240D03*
X110116620Y-46299120D03*
X98282760Y-70876160D03*
X98282760Y-68044060D03*
X103035100Y-76332080D03*
X104620060Y-75732640D03*
X102555040Y-63515240D03*
X110172500Y-49342040D03*
X112539780Y-45684440D03*
X113131600Y-51226720D03*
X109799130Y-47576740D03*
X109603540Y-86306660D03*
X109598460Y-84046060D03*
X109598460Y-84046060D03*
X109598460Y-81681320D03*
X109623860Y-78803500D03*
X98917760Y-92974160D03*
X98927920Y-88816180D03*
X110022640Y-68054220D03*
X110022640Y-68054220D03*
X110022640Y-68054220D03*
X110022640Y-58320940D03*
X110022640Y-60975240D03*
X110022640Y-63461900D03*
X110022640Y-65808860D03*
X110022640Y-56093360D03*
X110025180Y-53855620D03*
X110037880Y-51785520D03*
X109075220Y-48348900D03*
X109247940Y-45656500D03*
X104030780Y-56314340D03*
X99060000Y-69850000D03*
X98165920Y-66728340D03*
X98475800Y-64790320D03*
X98729733Y-62209680D03*
X99034544Y-59664600D03*
X99339355Y-57180480D03*
X99651820Y-55158640D03*
X99964240Y-52641500D03*
X100263960Y-50114200D03*
X100705920Y-46987460D03*
X100911660Y-44460160D03*
X100888800Y-45323760D03*
X101302820Y-46177200D03*
X100589080Y-49316640D03*
X100281740Y-51833780D03*
X99964240Y-54368700D03*
X100820220Y-72395080D03*
X100812600Y-62796420D03*
X102562660Y-59080400D03*
X101975920Y-65369440D03*
X102303580Y-67322700D03*
X100812600Y-74935080D03*
X108826300Y-92710000D03*
X107264200Y-90157300D03*
X107109260Y-82692240D03*
X98348800Y-80020160D03*
X104452420Y-77472540D03*
X103357680Y-74935080D03*
X106138980Y-85077300D03*
X107073700Y-83764120D03*
X108521500Y-82509360D03*
X108165900Y-87630000D03*
D17*
X104620060Y-75732640D02*
X104620060Y-72430640D01*
D18*
X110731300Y-45684440D02*
X112539780Y-45684440D01*
X110116620Y-46299120D02*
X110731300Y-45684440D01*
X110116620Y-46299120D02*
X110116620Y-47259250D01*
X110116620Y-47259250D02*
X109799130Y-47576740D01*
X88900000Y-83820000D02*
X90170000Y-85090000D01*
X86995000Y-83820000D02*
X88900000Y-83820000D01*
X82550000Y-61595000D02*
X82550000Y-66675000D01*
X82550000Y-68580000D02*
X83820000Y-69850000D01*
X82550000Y-66675000D02*
X82550000Y-68580000D01*
X110274199Y-73875801D02*
X110274199Y-93560801D01*
X111760000Y-72390000D02*
X110274199Y-73875801D01*
X108749999Y-95085001D02*
X110274199Y-93560801D01*
X107413959Y-95085001D02*
X108749999Y-95085001D01*
X106613960Y-95885000D02*
X107413959Y-95085001D01*
X119380000Y-90932000D02*
X118110000Y-89662000D01*
X119380000Y-92710000D02*
X119380000Y-90932000D01*
X118909999Y-88862001D02*
X118110000Y-89662000D01*
X119595801Y-88176199D02*
X118909999Y-88862001D01*
X119595801Y-86067801D02*
X119595801Y-88176199D01*
X118110000Y-84582000D02*
X119595801Y-86067801D01*
X124930001Y-82841999D02*
X125730000Y-82042000D01*
X124244199Y-83527801D02*
X124930001Y-82841999D01*
X124244199Y-85636199D02*
X124244199Y-83527801D01*
X125730000Y-87122000D02*
X124244199Y-85636199D01*
X124930001Y-77761999D02*
X125730000Y-76962000D01*
X124244199Y-78447801D02*
X124930001Y-77761999D01*
X124244199Y-80556199D02*
X124244199Y-78447801D01*
X125730000Y-82042000D02*
X124244199Y-80556199D01*
X124968000Y-87122000D02*
X125730000Y-87122000D01*
X119380000Y-92710000D02*
X124968000Y-87122000D01*
X109603540Y-86306660D02*
X109603540Y-84051140D01*
X109603540Y-84051140D02*
X109598460Y-84046060D01*
X109598460Y-84046060D02*
X109598460Y-81681320D01*
X109598460Y-81681320D02*
X109598460Y-78828900D01*
X109598460Y-78828900D02*
X109623860Y-78803500D01*
X98917760Y-92974160D02*
X98917760Y-88826340D01*
X98917760Y-88826340D02*
X98927920Y-88816180D01*
X110022640Y-68054220D02*
X110022640Y-65808860D01*
X110022640Y-58320940D02*
X110022640Y-57403410D01*
X110022640Y-60975240D02*
X110022640Y-58320940D01*
X110022640Y-63461900D02*
X110022640Y-60975240D01*
X110022640Y-65808860D02*
X110022640Y-63461900D01*
X110022640Y-57434480D02*
X110022639Y-53973227D01*
X86995000Y-83820000D02*
X83050380Y-83820000D01*
X109075220Y-48348900D02*
X109075220Y-45915580D01*
X110025180Y-51798220D02*
X110037880Y-51785520D01*
X110025180Y-53855620D02*
X110025180Y-51798220D01*
D19*
X119062400Y-74422000D02*
X118110000Y-74422000D01*
X120650000Y-72834400D02*
X119062400Y-74422000D01*
X120650000Y-67310000D02*
X120650000Y-72834400D01*
X120650000Y-62992000D02*
X120015000Y-62357000D01*
X120650000Y-67310000D02*
X120650000Y-62992000D01*
X94615000Y-57150000D02*
X96520000Y-57150000D01*
X90170000Y-61595000D02*
X94615000Y-57150000D01*
X113045240Y-36017200D02*
X112788700Y-36017200D01*
X105450666Y-54894454D02*
X104030780Y-56314340D01*
X105450666Y-41790158D02*
X105450666Y-54894454D01*
X106953880Y-40286944D02*
X105450666Y-41790158D01*
X110307116Y-40286944D02*
X106953880Y-40286944D01*
X111592360Y-39001700D02*
X110307116Y-40286944D01*
X111592360Y-37213540D02*
X111592360Y-39001700D01*
X112788700Y-36017200D02*
X111592360Y-37213540D01*
X90170000Y-61595000D02*
X90170000Y-66675000D01*
X82565240Y-38557200D02*
X82565240Y-40096440D01*
X82565240Y-40096440D02*
X82565240Y-40096462D01*
X82565240Y-40568880D02*
X82565240Y-40096440D01*
X85410040Y-43413680D02*
X82565240Y-40568880D01*
X97548601Y-43532961D02*
X97429320Y-43413680D01*
X97429320Y-43413680D02*
X85410040Y-43413680D01*
X97548601Y-68338601D02*
X99060000Y-69850000D01*
X97548601Y-43532961D02*
X97548601Y-68338601D01*
X86008723Y-43108878D02*
X83647280Y-40747435D01*
X97555574Y-43108878D02*
X86008723Y-43108878D01*
X97853412Y-43406716D02*
X97555574Y-43108878D01*
X97853412Y-43806896D02*
X97853412Y-43406716D01*
X97853412Y-65930899D02*
X98165920Y-66243407D01*
X82565240Y-36017200D02*
X83647280Y-37099240D01*
X97853412Y-43806896D02*
X97853412Y-65930899D01*
X98165920Y-66243407D02*
X98165920Y-66728340D01*
X83647280Y-37099240D02*
X83647280Y-40747435D01*
X98158223Y-63987810D02*
X98475800Y-64305387D01*
X98475800Y-64305387D02*
X98475800Y-64790320D01*
X85105240Y-38557200D02*
X85105240Y-41774328D01*
X98158214Y-43680640D02*
X98158223Y-43680640D01*
X98158214Y-43280462D02*
X98158214Y-43680640D01*
X97681828Y-42804076D02*
X98158214Y-43280462D01*
X86134977Y-42804076D02*
X97681828Y-42804076D01*
X85105240Y-41774339D02*
X86134977Y-42804076D01*
X85105240Y-41774328D02*
X85105240Y-41774339D01*
X98158223Y-43680640D02*
X98158223Y-43680640D01*
X98158223Y-43680640D02*
X98158223Y-63987810D01*
X86192360Y-41572180D02*
X87119454Y-42499274D01*
X97808082Y-42499274D02*
X87119454Y-42499274D01*
X98463034Y-43154226D02*
X97808082Y-42499274D01*
X98463034Y-43554384D02*
X98463034Y-43154226D01*
X98729733Y-61724747D02*
X98729733Y-62209680D01*
X98463034Y-61458048D02*
X98729733Y-61724747D01*
X98463034Y-43554384D02*
X98463034Y-61458048D01*
X85105240Y-36017200D02*
X86192360Y-37104320D01*
X86192360Y-37104320D02*
X86192360Y-41572180D01*
X98767845Y-43428128D02*
X98767845Y-43434000D01*
X98767845Y-43434000D02*
X98767845Y-58912968D01*
X99034544Y-59179667D02*
X99034544Y-59664600D01*
X87645240Y-38557200D02*
X87645240Y-39759281D01*
X87645240Y-41203880D02*
X87645240Y-39759281D01*
X88635832Y-42194472D02*
X87645240Y-41203880D01*
X97934336Y-42194472D02*
X88635832Y-42194472D01*
X98767845Y-43027981D02*
X97934336Y-42194472D01*
X98767845Y-43027981D02*
X98767845Y-43434000D01*
X98767845Y-58912968D02*
X99034544Y-59179667D01*
X88729820Y-37101780D02*
X88729820Y-40366414D01*
X88729820Y-40805100D02*
X88729820Y-40412805D01*
X89814390Y-41889670D02*
X88729820Y-40805100D01*
X98060590Y-41889670D02*
X89814390Y-41889670D01*
X99072700Y-42901780D02*
X98060590Y-41889670D01*
X99072700Y-43301927D02*
X99072700Y-42901780D01*
X88729820Y-40366414D02*
X88729820Y-40412805D01*
X87645240Y-36017200D02*
X88729820Y-37101780D01*
X99072700Y-43301927D02*
X99072700Y-43317160D01*
X99072700Y-43301920D02*
X99072700Y-43317160D01*
X99072700Y-43317160D02*
X99072700Y-56913825D01*
X99072700Y-56913825D02*
X99339355Y-57180480D01*
X90185240Y-38557200D02*
X90185240Y-40048914D01*
X90185240Y-40048914D02*
X90185240Y-40680628D01*
X90185240Y-40680628D02*
X91089480Y-41584868D01*
X91089480Y-41584868D02*
X98186844Y-41584868D01*
X98186844Y-41584868D02*
X99382580Y-42780604D01*
X99382580Y-42780604D02*
X99382580Y-54889400D01*
X99382580Y-54889400D02*
X99651820Y-55158640D01*
X90185240Y-36017200D02*
X90530680Y-36017200D01*
X99687382Y-52364642D02*
X99964240Y-52641500D01*
X99687382Y-42654350D02*
X99687382Y-52364642D01*
X98313098Y-41280066D02*
X99687382Y-42654350D01*
X91942920Y-41280066D02*
X98313098Y-41280066D01*
X91267280Y-40604426D02*
X91942920Y-41280066D01*
X91267280Y-36753800D02*
X91267280Y-40604426D01*
X90530680Y-36017200D02*
X91267280Y-36753800D01*
X92725240Y-38557200D02*
X92725240Y-40256444D01*
X92725240Y-40256444D02*
X92725240Y-40258984D01*
X92725240Y-40258984D02*
X93441520Y-40975264D01*
X93441520Y-40975264D02*
X98439352Y-40975264D01*
X98439352Y-40975264D02*
X99992184Y-42528096D01*
X99992184Y-42528096D02*
X99992184Y-49842424D01*
X99992184Y-49842424D02*
X100263960Y-50114200D01*
X98565606Y-40670462D02*
X100296986Y-42401842D01*
X94310200Y-40670462D02*
X98565606Y-40670462D01*
X93804740Y-40165002D02*
X94310200Y-40670462D01*
X92725240Y-36017200D02*
X93804740Y-37096700D01*
X100296986Y-46756212D02*
X100571627Y-47030853D01*
X93804740Y-37096700D02*
X93804740Y-40165002D01*
X100296986Y-42401842D02*
X100296986Y-46756212D01*
X95265240Y-38557200D02*
X95265240Y-39639240D01*
X100911660Y-42585460D02*
X100512514Y-42186314D01*
X100911660Y-44460160D02*
X100911660Y-42585460D01*
X95265240Y-39639240D02*
X95991660Y-40365660D01*
X95991660Y-40365660D02*
X98691860Y-40365660D01*
X98691860Y-40365660D02*
X100512514Y-42186314D01*
X100512514Y-42186314D02*
X100601788Y-42275588D01*
X95265240Y-36017200D02*
X95719900Y-36017200D01*
X101488240Y-42611040D02*
X100952300Y-42075100D01*
X101488240Y-44221400D02*
X101488240Y-42611040D01*
X95719900Y-36017200D02*
X96393000Y-36690300D01*
X96393000Y-36690300D02*
X96393000Y-39438558D01*
X96393000Y-39438558D02*
X97015300Y-40060858D01*
X97015300Y-40060858D02*
X98938058Y-40060858D01*
X98938058Y-40060858D02*
X100952300Y-42075100D01*
X101488240Y-44221400D02*
X101488240Y-44724320D01*
X101488240Y-44724320D02*
X100888800Y-45323760D01*
X101793042Y-45686978D02*
X101302820Y-46177200D01*
X101793042Y-42484786D02*
X101793042Y-45686978D01*
X97805240Y-38557200D02*
X97865456Y-38557200D01*
X97865456Y-38557200D02*
X101793042Y-42484786D01*
X97805240Y-36017200D02*
X98084640Y-36017200D01*
X102097844Y-42358532D02*
X101561904Y-41822592D01*
X102097844Y-42358532D02*
X102097844Y-43985180D01*
X98084640Y-36017200D02*
X98902520Y-36835080D01*
X98902520Y-36835080D02*
X98902520Y-39163208D01*
X98902520Y-39163208D02*
X101561904Y-41822592D01*
X102097844Y-43968892D02*
X102097844Y-43985180D01*
X101074013Y-49316640D02*
X100589080Y-49316640D01*
X102097844Y-48292809D02*
X101074013Y-49316640D01*
X102097844Y-43985180D02*
X102097844Y-48292809D01*
X102402646Y-42232278D02*
X102402646Y-50418996D01*
X100987862Y-51833780D02*
X100766673Y-51833780D01*
X100345240Y-40174872D02*
X102402646Y-42232278D01*
X100766673Y-51833780D02*
X100281740Y-51833780D01*
X100345240Y-38557200D02*
X100345240Y-40174872D01*
X102402646Y-50418996D02*
X100987862Y-51833780D01*
X100345240Y-36017200D02*
X101424740Y-37096700D01*
X102707448Y-42106024D02*
X102707448Y-52633874D01*
X100972622Y-54368700D02*
X100449173Y-54368700D01*
X101424740Y-40823316D02*
X102707448Y-42106024D01*
X100449173Y-54368700D02*
X99964240Y-54368700D01*
X101424740Y-37096700D02*
X101424740Y-40823316D01*
X102707448Y-52633874D02*
X100972622Y-54368700D01*
X102885240Y-38557200D02*
X102938580Y-38557200D01*
X99921060Y-74068940D02*
X96520000Y-77470000D01*
X99921060Y-64317880D02*
X99921060Y-74068940D01*
X99921060Y-56012080D02*
X99921060Y-64317880D01*
X103012250Y-52920890D02*
X99921060Y-56012080D01*
X103012250Y-38630870D02*
X103012250Y-52920890D01*
X102938580Y-38557200D02*
X103012250Y-38630870D01*
X102885240Y-36017200D02*
X103162100Y-36017200D01*
X100228400Y-76301600D02*
X96520000Y-80010000D01*
X100228400Y-64441596D02*
X100228400Y-76301600D01*
X103162100Y-36017200D02*
X103972360Y-36827460D01*
X103972360Y-36827460D02*
X103972360Y-39034720D01*
X103972360Y-39034720D02*
X103317052Y-39690028D01*
X103317052Y-39690028D02*
X103317052Y-53047144D01*
X103317052Y-53047144D02*
X100228400Y-56135796D01*
X100228400Y-56135796D02*
X100228400Y-64441596D01*
X105425240Y-38557200D02*
X105311992Y-38557200D01*
X101401880Y-71813420D02*
X100820220Y-72395080D01*
X101401880Y-55824428D02*
X101401880Y-71813420D01*
X103926656Y-53299652D02*
X101401880Y-55824428D01*
X103926656Y-39942536D02*
X103926656Y-53299652D01*
X105311992Y-38557200D02*
X103926656Y-39942536D01*
X105425240Y-36017200D02*
X105257600Y-36017200D01*
X104277162Y-39160974D02*
X103621854Y-39816282D01*
X104277162Y-36997638D02*
X104277162Y-39160974D01*
X105257600Y-36017200D02*
X104277162Y-36997638D01*
X103621854Y-39816282D02*
X103621854Y-53173398D01*
X103621854Y-53173398D02*
X100812600Y-55982652D01*
X100812600Y-55982652D02*
X100812600Y-62796420D01*
X107965240Y-38557200D02*
X107390456Y-38557200D01*
X102562660Y-55525760D02*
X102562660Y-59080400D01*
X104536260Y-53552160D02*
X102562660Y-55525760D01*
X104536260Y-41411396D02*
X104536260Y-53552160D01*
X107390456Y-38557200D02*
X104536260Y-41411396D01*
X107965240Y-36017200D02*
X107541060Y-36017200D01*
X101975920Y-55681444D02*
X101975920Y-65369440D01*
X104231458Y-53425906D02*
X101975920Y-55681444D01*
X104231458Y-41285142D02*
X104231458Y-53425906D01*
X106517440Y-38999160D02*
X104231458Y-41285142D01*
X106517440Y-37040820D02*
X106517440Y-38999160D01*
X107541060Y-36017200D02*
X106517440Y-37040820D01*
X110505240Y-38557200D02*
X109958396Y-38557200D01*
X103449122Y-66177158D02*
X102303580Y-67322700D01*
X103449122Y-55501410D02*
X103449122Y-66177158D01*
X105145864Y-53804668D02*
X103449122Y-55501410D01*
X105145864Y-41663904D02*
X105145864Y-53804668D01*
X106827626Y-39982142D02*
X105145864Y-41663904D01*
X108533454Y-39982142D02*
X106827626Y-39982142D01*
X109958396Y-38557200D02*
X108533454Y-39982142D01*
X110505240Y-36017200D02*
X110142020Y-36017200D01*
X101706682Y-74040998D02*
X100812600Y-74935080D01*
X101706682Y-66469258D02*
X101706682Y-74040998D01*
X103144320Y-65031620D02*
X101706682Y-66469258D01*
X103144320Y-55375156D02*
X103144320Y-65031620D01*
X104841062Y-53678414D02*
X103144320Y-55375156D01*
X104841062Y-41537650D02*
X104841062Y-53678414D01*
X106701372Y-39677340D02*
X104841062Y-41537650D01*
X108407200Y-39677340D02*
X106701372Y-39677340D01*
X109044740Y-39039800D02*
X108407200Y-39677340D01*
X109044740Y-37114480D02*
X109044740Y-39039800D01*
X110142020Y-36017200D02*
X109044740Y-37114480D01*
X123205240Y-38557200D02*
X122631200Y-38557200D01*
X108193884Y-56430264D02*
X108193884Y-43261280D01*
X106213178Y-58410970D02*
X108193884Y-56430264D01*
X106213178Y-83780106D02*
X106213178Y-58410970D01*
X107027982Y-84594910D02*
X106213178Y-83780106D01*
X107027982Y-89044780D02*
X107027982Y-84594910D01*
X107845860Y-89862658D02*
X107027982Y-89044780D01*
X107845860Y-91734640D02*
X107845860Y-89862658D01*
X108192570Y-92081350D02*
X107845860Y-91734640D01*
X108192570Y-92081350D02*
X108197650Y-92081350D01*
X122631200Y-38557200D02*
X118148096Y-43040304D01*
X118148096Y-43040304D02*
X108414860Y-43040304D01*
X108414860Y-43040304D02*
X108193884Y-43261280D01*
X108193884Y-92077584D02*
X108197650Y-92081350D01*
X108197650Y-92081350D02*
X108826300Y-92710000D01*
X123205240Y-36017200D02*
X122778520Y-36017200D01*
X105908376Y-58284716D02*
X106723180Y-57469912D01*
X105908376Y-83906360D02*
X105908376Y-58284716D01*
X106723180Y-84721164D02*
X105908376Y-83906360D01*
X106723180Y-89616280D02*
X106723180Y-84721164D01*
X122778520Y-36017200D02*
X121757440Y-37038280D01*
X121757440Y-37038280D02*
X121757440Y-38996620D01*
X121757440Y-38996620D02*
X118018558Y-42735502D01*
X118018558Y-42735502D02*
X108148160Y-42735502D01*
X108148160Y-42735502D02*
X107889082Y-42994580D01*
X107889082Y-42994580D02*
X107889082Y-56304010D01*
X107889082Y-56304010D02*
X106723180Y-57469912D01*
X106723180Y-89616280D02*
X107264200Y-90157300D01*
X125745240Y-38557200D02*
X125206016Y-38557200D01*
X124895241Y-39407199D02*
X125745240Y-38557200D01*
X110202991Y-48046631D02*
X118791783Y-48046631D01*
X108803496Y-56682774D02*
X108803496Y-49446126D01*
X121180842Y-45657572D02*
X121180842Y-43121598D01*
X121180842Y-43121598D02*
X124895241Y-39407199D01*
X118791783Y-48046631D02*
X121180842Y-45657572D01*
X108803496Y-49446126D02*
X110202991Y-48046631D01*
X107109260Y-58377010D02*
X108803496Y-56682774D01*
X107109260Y-82692240D02*
X107109260Y-58377010D01*
X106365072Y-42168920D02*
X106365072Y-55672740D01*
X96520000Y-85090000D02*
X99237802Y-82372198D01*
X99237802Y-78599554D02*
X99237802Y-82372198D01*
X102621088Y-75216268D02*
X99237802Y-78599554D01*
X102621088Y-68697884D02*
X102621088Y-75216268D01*
X104384366Y-66934606D02*
X102621088Y-68697884D01*
X104384366Y-57653446D02*
X104384366Y-66934606D01*
X106365072Y-55672740D02*
X104384366Y-57653446D01*
X115010456Y-38557200D02*
X115585240Y-38557200D01*
X115010456Y-38557200D02*
X112366306Y-41201350D01*
X112366306Y-41201350D02*
X107332642Y-41201350D01*
X107332642Y-41201350D02*
X106365072Y-42168920D01*
X113045240Y-38557200D02*
X112467916Y-38557200D01*
X97977588Y-79648948D02*
X98348800Y-80020160D01*
X97977588Y-78983468D02*
X97977588Y-79648948D01*
X98404680Y-78556376D02*
X97977588Y-78983468D01*
X105755468Y-55420232D02*
X103753924Y-57421776D01*
X105755468Y-41916412D02*
X105755468Y-55420232D01*
X107080134Y-40591746D02*
X105755468Y-41916412D01*
X110433370Y-40591746D02*
X107080134Y-40591746D01*
X112467916Y-38557200D02*
X110433370Y-40591746D01*
X103753924Y-57421776D02*
X103753924Y-66702936D01*
X103753924Y-66702936D02*
X102011484Y-68445376D01*
X102011484Y-68445376D02*
X102011484Y-74949572D01*
X102011484Y-74949572D02*
X98404680Y-78556376D01*
X113792000Y-82042000D02*
X118110000Y-82042000D01*
X111760000Y-80010000D02*
X113792000Y-82042000D01*
X115585240Y-36017200D02*
X115417600Y-36017200D01*
X97553780Y-82550000D02*
X96520000Y-82550000D01*
X98933000Y-81170780D02*
X97553780Y-82550000D01*
X98933000Y-78473300D02*
X98933000Y-81170780D01*
X102316286Y-75090014D02*
X98933000Y-78473300D01*
X102316286Y-68571630D02*
X102316286Y-75090014D01*
X104058726Y-66829190D02*
X102316286Y-68571630D01*
X104058726Y-58925460D02*
X104058726Y-66829190D01*
X115417600Y-36017200D02*
X114129820Y-37304980D01*
X114129820Y-37304980D02*
X114129820Y-39006780D01*
X114129820Y-39006780D02*
X112240052Y-40896548D01*
X112240052Y-40896548D02*
X107206388Y-40896548D01*
X107206388Y-40896548D02*
X106060270Y-42042666D01*
X106060270Y-42042666D02*
X106060270Y-55546486D01*
X106060270Y-55546486D02*
X104058726Y-57548030D01*
X104058726Y-57548030D02*
X104058726Y-58925460D01*
X118125240Y-38557200D02*
X117563156Y-38557200D01*
X103939340Y-76959460D02*
X104452420Y-77472540D01*
X103939340Y-68241744D02*
X103939340Y-76959460D01*
X104993970Y-67187114D02*
X103939340Y-68241744D01*
X104993970Y-57905954D02*
X104993970Y-67187114D01*
X106974676Y-55925248D02*
X104993970Y-57905954D01*
X106974676Y-42421428D02*
X106974676Y-55925248D01*
X107585150Y-41810954D02*
X106974676Y-42421428D01*
X114309402Y-41810954D02*
X107585150Y-41810954D01*
X117563156Y-38557200D02*
X114309402Y-41810954D01*
X118125240Y-36017200D02*
X117497860Y-36017200D01*
X102925890Y-74503290D02*
X103357680Y-74935080D01*
X102925890Y-68824138D02*
X102925890Y-74503290D01*
X104689168Y-67060860D02*
X102925890Y-68824138D01*
X104689168Y-57779700D02*
X104689168Y-67060860D01*
X106669874Y-55798994D02*
X104689168Y-57779700D01*
X106669874Y-42295174D02*
X106669874Y-55798994D01*
X107458896Y-41506152D02*
X106669874Y-42295174D01*
X114183148Y-41506152D02*
X107458896Y-41506152D01*
X116667280Y-39022020D02*
X114183148Y-41506152D01*
X116667280Y-36847780D02*
X116667280Y-39022020D01*
X117497860Y-36017200D02*
X116667280Y-36847780D01*
X120665240Y-38557200D02*
X120090456Y-38557200D01*
X105603574Y-84541894D02*
X106138980Y-85077300D01*
X105603574Y-58158462D02*
X105603574Y-84541894D01*
X107584280Y-56177756D02*
X105603574Y-58158462D01*
X107584280Y-42673936D02*
X107584280Y-56177756D01*
X107827516Y-42430700D02*
X107584280Y-42673936D01*
X116216956Y-42430700D02*
X107827516Y-42430700D01*
X120090456Y-38557200D02*
X116216956Y-42430700D01*
X120665240Y-36017200D02*
X119971820Y-36017200D01*
X105298772Y-78851228D02*
X96520000Y-87630000D01*
X105298772Y-58032208D02*
X105298772Y-78851228D01*
X107279478Y-56051502D02*
X105298772Y-58032208D01*
X107279478Y-42547682D02*
X107279478Y-56051502D01*
X107711404Y-42115756D02*
X107279478Y-42547682D01*
X116100844Y-42115756D02*
X107711404Y-42115756D01*
X119207280Y-39009320D02*
X116100844Y-42115756D01*
X119207280Y-36781740D02*
X119207280Y-39009320D01*
X119971820Y-36017200D02*
X119207280Y-36781740D01*
X106517980Y-58537224D02*
X106517980Y-83208400D01*
X125745240Y-36017200D02*
X124302520Y-37459920D01*
X108498686Y-43688000D02*
X108498686Y-56556518D01*
X124302520Y-37459920D02*
X124302520Y-39027834D01*
X106517980Y-83208400D02*
X106730801Y-83421221D01*
X106730801Y-83421221D02*
X107073700Y-83764120D01*
X108498686Y-56556518D02*
X106517980Y-58537224D01*
X108841580Y-43345106D02*
X108498686Y-43688000D01*
X119985247Y-43345106D02*
X108841580Y-43345106D01*
X124302520Y-39027834D02*
X119985247Y-43345106D01*
X121790464Y-45051976D02*
X121790464Y-45910104D01*
X117131708Y-50568860D02*
X110223352Y-50568860D01*
X110223352Y-50568860D02*
X109413118Y-51379094D01*
X109413118Y-51379094D02*
X109413118Y-56935286D01*
X109413118Y-56935286D02*
X108521500Y-57826904D01*
X128285240Y-38557200D02*
X121790464Y-45051976D01*
X108521500Y-57826904D02*
X108521500Y-82024427D01*
X108521500Y-82024427D02*
X108521500Y-82509360D01*
X121790464Y-45910104D02*
X117131708Y-50568860D01*
X107823001Y-87287101D02*
X108165900Y-87630000D01*
X121485653Y-45783848D02*
X118918059Y-48351442D01*
X118918059Y-48351442D02*
X110329247Y-48351442D01*
X121485653Y-44371257D02*
X121485653Y-45783848D01*
X126832360Y-37470080D02*
X126832360Y-39024550D01*
X110329247Y-48351442D02*
X109108307Y-49572382D01*
X109108307Y-49572382D02*
X109108307Y-56809030D01*
X128285240Y-36017200D02*
X126832360Y-37470080D01*
X107823001Y-58094336D02*
X107823001Y-87287101D01*
X109108307Y-56809030D02*
X107823001Y-58094336D01*
X126832360Y-39024550D02*
X121485653Y-44371257D01*
X122693630Y-54737000D02*
X120015000Y-54737000D01*
X123825000Y-54737000D02*
X122693630Y-54737000D01*
X123825000Y-54737000D02*
X123825000Y-51744000D01*
X123825000Y-51744000D02*
X124134000Y-51435000D01*
X124134000Y-51435000D02*
X124134000Y-44935000D01*
X118110000Y-79502000D02*
X118110000Y-76962000D01*
X82200381Y-96203401D02*
X83050380Y-97053400D01*
X81971779Y-95974799D02*
X82200381Y-96203401D01*
X81971779Y-89978601D02*
X81971779Y-95974799D01*
X83050380Y-88900000D02*
X81971779Y-89978601D01*
X83050380Y-91440000D02*
X83050380Y-94988380D01*
X111224060Y-95758000D02*
X112527080Y-97061020D01*
X108712000Y-95758000D02*
X111224060Y-95758000D01*
X106934000Y-97536000D02*
X108712000Y-95758000D01*
X100838000Y-97536000D02*
X106934000Y-97536000D01*
X99060000Y-95758000D02*
X100838000Y-97536000D01*
X83820000Y-95758000D02*
X99060000Y-95758000D01*
X83050380Y-94988380D02*
X83820000Y-95758000D01*
D17*
G36*
X126544356Y-29763984D02*
X127332977Y-29979726D01*
X128070927Y-30331712D01*
X128734882Y-30808811D01*
X129303855Y-31395946D01*
X129759866Y-32074560D01*
X130088499Y-32823208D01*
X130280245Y-33621892D01*
X130330600Y-34307585D01*
X130330601Y-97768640D01*
X130256015Y-98604358D01*
X130040273Y-99392979D01*
X129688288Y-100130927D01*
X129211191Y-100794879D01*
X128624056Y-101363853D01*
X127945440Y-101819866D01*
X127196794Y-102148499D01*
X126398108Y-102340245D01*
X125712414Y-102390600D01*
X82571349Y-102390600D01*
X81735642Y-102316015D01*
X80947021Y-102100273D01*
X80209073Y-101748288D01*
X79545121Y-101271191D01*
X78976147Y-100684056D01*
X78520134Y-100005440D01*
X78191501Y-99256794D01*
X77999755Y-98458108D01*
X77949400Y-97772414D01*
X77949400Y-96203400D01*
X79375507Y-96203400D01*
X79375507Y-97903400D01*
X79397192Y-98012416D01*
X79458944Y-98104836D01*
X79551364Y-98166588D01*
X79660380Y-98188273D01*
X81360380Y-98188273D01*
X81469396Y-98166588D01*
X81561816Y-98104836D01*
X81623568Y-98012416D01*
X81645253Y-97903400D01*
X81645253Y-96203400D01*
X81623568Y-96094384D01*
X81561816Y-96001964D01*
X81469396Y-95940212D01*
X81360380Y-95918527D01*
X79660380Y-95918527D01*
X79551364Y-95940212D01*
X79458944Y-96001964D01*
X79397192Y-96094384D01*
X79375507Y-96203400D01*
X77949400Y-96203400D01*
X77949400Y-86003110D01*
X81608904Y-86003110D01*
X81730225Y-86233000D01*
X82923380Y-86233000D01*
X82923380Y-86213000D01*
X83177380Y-86213000D01*
X83177380Y-86233000D01*
X84370535Y-86233000D01*
X84491856Y-86003110D01*
X84322025Y-85593076D01*
X83931738Y-85164817D01*
X83484693Y-84954873D01*
X83900380Y-84954873D01*
X84009396Y-84933188D01*
X84101816Y-84871436D01*
X84163568Y-84779016D01*
X84185253Y-84670000D01*
X84185253Y-84328000D01*
X86036252Y-84328000D01*
X86216796Y-84598204D01*
X86573839Y-84836772D01*
X86888692Y-84899400D01*
X87101308Y-84899400D01*
X87416161Y-84836772D01*
X87773204Y-84598204D01*
X87953748Y-84328000D01*
X88689580Y-84328000D01*
X89133443Y-84771863D01*
X89090600Y-84875294D01*
X89090600Y-85304706D01*
X89254929Y-85701431D01*
X89558569Y-86005071D01*
X89955294Y-86169400D01*
X90384706Y-86169400D01*
X90781431Y-86005071D01*
X91085071Y-85701431D01*
X91249400Y-85304706D01*
X91249400Y-84875294D01*
X91085071Y-84478569D01*
X90781431Y-84174929D01*
X90384706Y-84010600D01*
X89955294Y-84010600D01*
X89851863Y-84053443D01*
X89294588Y-83496168D01*
X89266247Y-83453753D01*
X89098212Y-83341475D01*
X88950032Y-83312000D01*
X88950028Y-83312000D01*
X88900000Y-83302049D01*
X88849972Y-83312000D01*
X87953748Y-83312000D01*
X87773204Y-83041796D01*
X87416161Y-82803228D01*
X87101308Y-82740600D01*
X86888692Y-82740600D01*
X86573839Y-82803228D01*
X86216796Y-83041796D01*
X86036252Y-83312000D01*
X84185253Y-83312000D01*
X84185253Y-82970000D01*
X84163568Y-82860984D01*
X84101816Y-82768564D01*
X84009396Y-82706812D01*
X83900380Y-82685127D01*
X82200380Y-82685127D01*
X82091364Y-82706812D01*
X81998944Y-82768564D01*
X81937192Y-82860984D01*
X81915507Y-82970000D01*
X81915507Y-84670000D01*
X81937192Y-84779016D01*
X81998944Y-84871436D01*
X82091364Y-84933188D01*
X82200380Y-84954873D01*
X82616067Y-84954873D01*
X82169022Y-85164817D01*
X81778735Y-85593076D01*
X81608904Y-86003110D01*
X77949400Y-86003110D01*
X77949400Y-74930000D01*
X95419454Y-74930000D01*
X95503228Y-75351161D01*
X95741796Y-75708204D01*
X96098839Y-75946772D01*
X96413692Y-76009400D01*
X96626308Y-76009400D01*
X96941161Y-75946772D01*
X97298204Y-75708204D01*
X97536772Y-75351161D01*
X97620546Y-74930000D01*
X97536772Y-74508839D01*
X97298204Y-74151796D01*
X96941161Y-73913228D01*
X96626308Y-73850600D01*
X96413692Y-73850600D01*
X96098839Y-73913228D01*
X95741796Y-74151796D01*
X95503228Y-74508839D01*
X95419454Y-74930000D01*
X77949400Y-74930000D01*
X77949400Y-72390000D01*
X95419454Y-72390000D01*
X95503228Y-72811161D01*
X95741796Y-73168204D01*
X96098839Y-73406772D01*
X96413692Y-73469400D01*
X96626308Y-73469400D01*
X96941161Y-73406772D01*
X97298204Y-73168204D01*
X97536772Y-72811161D01*
X97620546Y-72390000D01*
X97536772Y-71968839D01*
X97298204Y-71611796D01*
X96941161Y-71373228D01*
X96626308Y-71310600D01*
X96413692Y-71310600D01*
X96098839Y-71373228D01*
X95741796Y-71611796D01*
X95503228Y-71968839D01*
X95419454Y-72390000D01*
X77949400Y-72390000D01*
X77949400Y-66675000D01*
X81449454Y-66675000D01*
X81533228Y-67096161D01*
X81771796Y-67453204D01*
X82042001Y-67633748D01*
X82042001Y-68529967D01*
X82032049Y-68580000D01*
X82071475Y-68778211D01*
X82155412Y-68903832D01*
X82155415Y-68903835D01*
X82183754Y-68946247D01*
X82226166Y-68974586D01*
X82783443Y-69531863D01*
X82740600Y-69635294D01*
X82740600Y-70064706D01*
X82904929Y-70461431D01*
X83208569Y-70765071D01*
X83605294Y-70929400D01*
X84034706Y-70929400D01*
X84207696Y-70857745D01*
X87991861Y-70857745D01*
X88065995Y-71103864D01*
X88603223Y-71296965D01*
X89173454Y-71269778D01*
X89574005Y-71103864D01*
X89648139Y-70857745D01*
X88820000Y-70029605D01*
X87991861Y-70857745D01*
X84207696Y-70857745D01*
X84431431Y-70765071D01*
X84735071Y-70461431D01*
X84899400Y-70064706D01*
X84899400Y-69635294D01*
X84898543Y-69633223D01*
X87373035Y-69633223D01*
X87400222Y-70203454D01*
X87566136Y-70604005D01*
X87812255Y-70678139D01*
X88640395Y-69850000D01*
X88999605Y-69850000D01*
X89827745Y-70678139D01*
X90073864Y-70604005D01*
X90219424Y-70199039D01*
X95128096Y-70199039D01*
X95288959Y-70587423D01*
X95664866Y-71002389D01*
X96170959Y-71241914D01*
X96393000Y-71120629D01*
X96393000Y-69977000D01*
X96647000Y-69977000D01*
X96647000Y-71120629D01*
X96869041Y-71241914D01*
X97375134Y-71002389D01*
X97751041Y-70587423D01*
X97911904Y-70199039D01*
X97789915Y-69977000D01*
X96647000Y-69977000D01*
X96393000Y-69977000D01*
X95250085Y-69977000D01*
X95128096Y-70199039D01*
X90219424Y-70199039D01*
X90266965Y-70066777D01*
X90239989Y-69500961D01*
X95128096Y-69500961D01*
X95250085Y-69723000D01*
X96393000Y-69723000D01*
X96393000Y-68579371D01*
X96647000Y-68579371D01*
X96647000Y-69723000D01*
X97789915Y-69723000D01*
X97911904Y-69500961D01*
X97751041Y-69112577D01*
X97375134Y-68697611D01*
X96869041Y-68458086D01*
X96647000Y-68579371D01*
X96393000Y-68579371D01*
X96170959Y-68458086D01*
X95664866Y-68697611D01*
X95288959Y-69112577D01*
X95128096Y-69500961D01*
X90239989Y-69500961D01*
X90239778Y-69496546D01*
X90073864Y-69095995D01*
X89827745Y-69021861D01*
X88999605Y-69850000D01*
X88640395Y-69850000D01*
X87812255Y-69021861D01*
X87566136Y-69095995D01*
X87373035Y-69633223D01*
X84898543Y-69633223D01*
X84735071Y-69238569D01*
X84431431Y-68934929D01*
X84207697Y-68842255D01*
X87991861Y-68842255D01*
X88820000Y-69670395D01*
X89648139Y-68842255D01*
X89574005Y-68596136D01*
X89036777Y-68403035D01*
X88466546Y-68430222D01*
X88065995Y-68596136D01*
X87991861Y-68842255D01*
X84207697Y-68842255D01*
X84034706Y-68770600D01*
X83605294Y-68770600D01*
X83501863Y-68813443D01*
X83058000Y-68369580D01*
X83058000Y-67633748D01*
X83328204Y-67453204D01*
X83566772Y-67096161D01*
X83650546Y-66675000D01*
X83566772Y-66253839D01*
X83328204Y-65896796D01*
X83058000Y-65716252D01*
X83058000Y-62552914D01*
X83161431Y-62510071D01*
X83465071Y-62206431D01*
X83629400Y-61809706D01*
X83629400Y-61380294D01*
X83465071Y-60983569D01*
X83161431Y-60679929D01*
X82764706Y-60515600D01*
X82335294Y-60515600D01*
X81938569Y-60679929D01*
X81634929Y-60983569D01*
X81470600Y-61380294D01*
X81470600Y-61809706D01*
X81634929Y-62206431D01*
X81938569Y-62510071D01*
X82042000Y-62552914D01*
X82042001Y-65716251D01*
X81771796Y-65896796D01*
X81533228Y-66253839D01*
X81449454Y-66675000D01*
X77949400Y-66675000D01*
X77949400Y-46640750D01*
X81115000Y-46640750D01*
X81115000Y-47281309D01*
X81211673Y-47514698D01*
X81390301Y-47693327D01*
X81623690Y-47790000D01*
X82264250Y-47790000D01*
X82423000Y-47631250D01*
X82423000Y-46482000D01*
X82677000Y-46482000D01*
X82677000Y-47631250D01*
X82835750Y-47790000D01*
X83476310Y-47790000D01*
X83709699Y-47693327D01*
X83888327Y-47514698D01*
X83951268Y-47362745D01*
X89341861Y-47362745D01*
X89415995Y-47608864D01*
X89953223Y-47801965D01*
X90523454Y-47774778D01*
X90924005Y-47608864D01*
X90998139Y-47362745D01*
X90170000Y-46534605D01*
X89341861Y-47362745D01*
X83951268Y-47362745D01*
X83985000Y-47281309D01*
X83985000Y-46640750D01*
X83826250Y-46482000D01*
X82677000Y-46482000D01*
X82423000Y-46482000D01*
X81273750Y-46482000D01*
X81115000Y-46640750D01*
X77949400Y-46640750D01*
X77949400Y-45428691D01*
X81115000Y-45428691D01*
X81115000Y-46069250D01*
X81273750Y-46228000D01*
X82423000Y-46228000D01*
X82423000Y-45078750D01*
X82677000Y-45078750D01*
X82677000Y-46228000D01*
X83826250Y-46228000D01*
X83916027Y-46138223D01*
X88723035Y-46138223D01*
X88750222Y-46708454D01*
X88916136Y-47109005D01*
X89162255Y-47183139D01*
X89990395Y-46355000D01*
X90349605Y-46355000D01*
X91177745Y-47183139D01*
X91423864Y-47109005D01*
X91616965Y-46571777D01*
X91589778Y-46001546D01*
X91423864Y-45600995D01*
X91177745Y-45526861D01*
X90349605Y-46355000D01*
X89990395Y-46355000D01*
X89162255Y-45526861D01*
X88916136Y-45600995D01*
X88723035Y-46138223D01*
X83916027Y-46138223D01*
X83985000Y-46069250D01*
X83985000Y-45428691D01*
X83951269Y-45347255D01*
X89341861Y-45347255D01*
X90170000Y-46175395D01*
X90998139Y-45347255D01*
X90924005Y-45101136D01*
X90386777Y-44908035D01*
X89816546Y-44935222D01*
X89415995Y-45101136D01*
X89341861Y-45347255D01*
X83951269Y-45347255D01*
X83888327Y-45195302D01*
X83709699Y-45016673D01*
X83476310Y-44920000D01*
X82835750Y-44920000D01*
X82677000Y-45078750D01*
X82423000Y-45078750D01*
X82264250Y-44920000D01*
X81623690Y-44920000D01*
X81390301Y-45016673D01*
X81211673Y-45195302D01*
X81115000Y-45428691D01*
X77949400Y-45428691D01*
X77949400Y-36374092D01*
X78583754Y-36374092D01*
X78830057Y-36898558D01*
X79258316Y-37288845D01*
X79580590Y-37422327D01*
X79175240Y-37422327D01*
X79066224Y-37444012D01*
X78973804Y-37505764D01*
X78912052Y-37598184D01*
X78890367Y-37707200D01*
X78890367Y-39407200D01*
X78912052Y-39516216D01*
X78973804Y-39608636D01*
X79066224Y-39670388D01*
X79175240Y-39692073D01*
X80875240Y-39692073D01*
X80984256Y-39670388D01*
X81076676Y-39608636D01*
X81138428Y-39516216D01*
X81160113Y-39407200D01*
X81160113Y-37707200D01*
X81138428Y-37598184D01*
X81076676Y-37505764D01*
X80984256Y-37444012D01*
X80875240Y-37422327D01*
X80469890Y-37422327D01*
X80792164Y-37288845D01*
X81220423Y-36898558D01*
X81466726Y-36374092D01*
X81346060Y-36144202D01*
X81438976Y-36144202D01*
X81501369Y-36457870D01*
X81750988Y-36831452D01*
X82124570Y-37081071D01*
X82454005Y-37146600D01*
X82676475Y-37146600D01*
X83005910Y-37081071D01*
X83078028Y-37032883D01*
X83291680Y-37246535D01*
X83291680Y-37684274D01*
X83005910Y-37493329D01*
X82676475Y-37427800D01*
X82454005Y-37427800D01*
X82124570Y-37493329D01*
X81750988Y-37742948D01*
X81501369Y-38116530D01*
X81413714Y-38557200D01*
X81501369Y-38997870D01*
X81750988Y-39371452D01*
X82124570Y-39621071D01*
X82209641Y-39637993D01*
X82209641Y-40061416D01*
X82209640Y-40061421D01*
X82209640Y-40131482D01*
X82209641Y-40131486D01*
X82209640Y-40533860D01*
X82202674Y-40568880D01*
X82230273Y-40707627D01*
X82254025Y-40743174D01*
X82308867Y-40825252D01*
X82338555Y-40845089D01*
X85133831Y-43640366D01*
X85153667Y-43670053D01*
X85183354Y-43689889D01*
X85183355Y-43689890D01*
X85271292Y-43748647D01*
X85410040Y-43776246D01*
X85445060Y-43769280D01*
X95435127Y-43769280D01*
X95435127Y-45250000D01*
X95456812Y-45359016D01*
X95518564Y-45451436D01*
X95610984Y-45513188D01*
X95720000Y-45534873D01*
X97193001Y-45534873D01*
X97193001Y-46141502D01*
X96941161Y-45973228D01*
X96626308Y-45910600D01*
X96413692Y-45910600D01*
X96098839Y-45973228D01*
X95741796Y-46211796D01*
X95503228Y-46568839D01*
X95419454Y-46990000D01*
X95503228Y-47411161D01*
X95741796Y-47768204D01*
X96098839Y-48006772D01*
X96413692Y-48069400D01*
X96626308Y-48069400D01*
X96941161Y-48006772D01*
X97193001Y-47838498D01*
X97193001Y-48681502D01*
X96941161Y-48513228D01*
X96626308Y-48450600D01*
X96413692Y-48450600D01*
X96098839Y-48513228D01*
X95741796Y-48751796D01*
X95503228Y-49108839D01*
X95419454Y-49530000D01*
X95503228Y-49951161D01*
X95741796Y-50308204D01*
X96098839Y-50546772D01*
X96413692Y-50609400D01*
X96626308Y-50609400D01*
X96941161Y-50546772D01*
X97193001Y-50378498D01*
X97193001Y-51221502D01*
X96941161Y-51053228D01*
X96626308Y-50990600D01*
X96413692Y-50990600D01*
X96098839Y-51053228D01*
X95741796Y-51291796D01*
X95503228Y-51648839D01*
X95419454Y-52070000D01*
X95503228Y-52491161D01*
X95741796Y-52848204D01*
X96098839Y-53086772D01*
X96413692Y-53149400D01*
X96626308Y-53149400D01*
X96941161Y-53086772D01*
X97193001Y-52918498D01*
X97193001Y-53761502D01*
X96941161Y-53593228D01*
X96626308Y-53530600D01*
X96413692Y-53530600D01*
X96098839Y-53593228D01*
X95741796Y-53831796D01*
X95503228Y-54188839D01*
X95419454Y-54610000D01*
X95503228Y-55031161D01*
X95741796Y-55388204D01*
X96098839Y-55626772D01*
X96413692Y-55689400D01*
X96626308Y-55689400D01*
X96941161Y-55626772D01*
X97193001Y-55458498D01*
X97193002Y-56301502D01*
X96941161Y-56133228D01*
X96626308Y-56070600D01*
X96413692Y-56070600D01*
X96098839Y-56133228D01*
X95741796Y-56371796D01*
X95503228Y-56728839D01*
X95490187Y-56794400D01*
X94650014Y-56794400D01*
X94614999Y-56787435D01*
X94579984Y-56794400D01*
X94579980Y-56794400D01*
X94476252Y-56815033D01*
X94358627Y-56893627D01*
X94338789Y-56923317D01*
X90640537Y-60621569D01*
X90384706Y-60515600D01*
X89955294Y-60515600D01*
X89558569Y-60679929D01*
X89254929Y-60983569D01*
X89090600Y-61380294D01*
X89090600Y-61809706D01*
X89254929Y-62206431D01*
X89558569Y-62510071D01*
X89814400Y-62616040D01*
X89814401Y-65645187D01*
X89748839Y-65658228D01*
X89391796Y-65896796D01*
X89153228Y-66253839D01*
X89069454Y-66675000D01*
X89153228Y-67096161D01*
X89391796Y-67453204D01*
X89748839Y-67691772D01*
X90063692Y-67754400D01*
X90276308Y-67754400D01*
X90591161Y-67691772D01*
X90948204Y-67453204D01*
X91186772Y-67096161D01*
X91270546Y-66675000D01*
X91186772Y-66253839D01*
X90948204Y-65896796D01*
X90591161Y-65658228D01*
X90525600Y-65645187D01*
X90525600Y-62616040D01*
X90781431Y-62510071D01*
X91085071Y-62206431D01*
X91249400Y-61809706D01*
X91249400Y-61380294D01*
X91143431Y-61124463D01*
X94762294Y-57505600D01*
X95490187Y-57505600D01*
X95503228Y-57571161D01*
X95741796Y-57928204D01*
X96098839Y-58166772D01*
X96413692Y-58229400D01*
X96626308Y-58229400D01*
X96941161Y-58166772D01*
X97193002Y-57998498D01*
X97193002Y-58841502D01*
X96941161Y-58673228D01*
X96626308Y-58610600D01*
X96413692Y-58610600D01*
X96098839Y-58673228D01*
X95741796Y-58911796D01*
X95503228Y-59268839D01*
X95419454Y-59690000D01*
X95503228Y-60111161D01*
X95741796Y-60468204D01*
X96098839Y-60706772D01*
X96413692Y-60769400D01*
X96626308Y-60769400D01*
X96941161Y-60706772D01*
X97193002Y-60538498D01*
X97193002Y-61381502D01*
X96941161Y-61213228D01*
X96626308Y-61150600D01*
X96413692Y-61150600D01*
X96098839Y-61213228D01*
X95741796Y-61451796D01*
X95503228Y-61808839D01*
X95419454Y-62230000D01*
X95503228Y-62651161D01*
X95741796Y-63008204D01*
X96098839Y-63246772D01*
X96413692Y-63309400D01*
X96626308Y-63309400D01*
X96941161Y-63246772D01*
X97193002Y-63078498D01*
X97193002Y-63921502D01*
X96941161Y-63753228D01*
X96626308Y-63690600D01*
X96413692Y-63690600D01*
X96098839Y-63753228D01*
X95741796Y-63991796D01*
X95503228Y-64348839D01*
X95419454Y-64770000D01*
X95503228Y-65191161D01*
X95741796Y-65548204D01*
X96098839Y-65786772D01*
X96413692Y-65849400D01*
X96626308Y-65849400D01*
X96941161Y-65786772D01*
X97193002Y-65618498D01*
X97193002Y-66461502D01*
X96941161Y-66293228D01*
X96626308Y-66230600D01*
X96413692Y-66230600D01*
X96098839Y-66293228D01*
X95741796Y-66531796D01*
X95503228Y-66888839D01*
X95419454Y-67310000D01*
X95503228Y-67731161D01*
X95741796Y-68088204D01*
X96098839Y-68326772D01*
X96413692Y-68389400D01*
X96626308Y-68389400D01*
X96941161Y-68326772D01*
X97193002Y-68158498D01*
X97193002Y-68303576D01*
X97186035Y-68338601D01*
X97213634Y-68477348D01*
X97272391Y-68565285D01*
X97272393Y-68565287D01*
X97292229Y-68594974D01*
X97321916Y-68614810D01*
X98437700Y-69730595D01*
X98437700Y-69973783D01*
X98532439Y-70202505D01*
X98707495Y-70377561D01*
X98936217Y-70472300D01*
X99183783Y-70472300D01*
X99412505Y-70377561D01*
X99565461Y-70224605D01*
X99565461Y-73921645D01*
X96996741Y-76490365D01*
X96941161Y-76453228D01*
X96626308Y-76390600D01*
X96413692Y-76390600D01*
X96098839Y-76453228D01*
X95741796Y-76691796D01*
X95503228Y-77048839D01*
X95419454Y-77470000D01*
X95503228Y-77891161D01*
X95741796Y-78248204D01*
X96098839Y-78486772D01*
X96413692Y-78549400D01*
X96626308Y-78549400D01*
X96941161Y-78486772D01*
X97298204Y-78248204D01*
X97536772Y-77891161D01*
X97620546Y-77470000D01*
X97536772Y-77048839D01*
X97499635Y-76993259D01*
X99872801Y-74620093D01*
X99872801Y-76154305D01*
X96996741Y-79030365D01*
X96941161Y-78993228D01*
X96626308Y-78930600D01*
X96413692Y-78930600D01*
X96098839Y-78993228D01*
X95741796Y-79231796D01*
X95503228Y-79588839D01*
X95419454Y-80010000D01*
X95503228Y-80431161D01*
X95741796Y-80788204D01*
X96098839Y-81026772D01*
X96413692Y-81089400D01*
X96626308Y-81089400D01*
X96941161Y-81026772D01*
X97298204Y-80788204D01*
X97536772Y-80431161D01*
X97620546Y-80010000D01*
X97536772Y-79588839D01*
X97499635Y-79533259D01*
X97621989Y-79410905D01*
X97621989Y-79613924D01*
X97615022Y-79648948D01*
X97642621Y-79787695D01*
X97701378Y-79875632D01*
X97701380Y-79875634D01*
X97721216Y-79905321D01*
X97726500Y-79908852D01*
X97726500Y-80143943D01*
X97821239Y-80372665D01*
X97996295Y-80547721D01*
X98225017Y-80642460D01*
X98472583Y-80642460D01*
X98577401Y-80599043D01*
X98577401Y-81023484D01*
X97510847Y-82090039D01*
X97298204Y-81771796D01*
X96941161Y-81533228D01*
X96626308Y-81470600D01*
X96413692Y-81470600D01*
X96098839Y-81533228D01*
X95741796Y-81771796D01*
X95503228Y-82128839D01*
X95419454Y-82550000D01*
X95503228Y-82971161D01*
X95741796Y-83328204D01*
X96098839Y-83566772D01*
X96413692Y-83629400D01*
X96626308Y-83629400D01*
X96941161Y-83566772D01*
X97298204Y-83328204D01*
X97536772Y-82971161D01*
X97548631Y-82911542D01*
X97553780Y-82912566D01*
X97588800Y-82905600D01*
X97692528Y-82884967D01*
X97810153Y-82806373D01*
X97829991Y-82776683D01*
X98882203Y-81724472D01*
X98882203Y-82224903D01*
X96996741Y-84110365D01*
X96941161Y-84073228D01*
X96626308Y-84010600D01*
X96413692Y-84010600D01*
X96098839Y-84073228D01*
X95741796Y-84311796D01*
X95503228Y-84668839D01*
X95419454Y-85090000D01*
X95503228Y-85511161D01*
X95741796Y-85868204D01*
X96098839Y-86106772D01*
X96413692Y-86169400D01*
X96626308Y-86169400D01*
X96941161Y-86106772D01*
X97298204Y-85868204D01*
X97536772Y-85511161D01*
X97620546Y-85090000D01*
X97536772Y-84668839D01*
X97499635Y-84613259D01*
X99464485Y-82648409D01*
X99494175Y-82628571D01*
X99572769Y-82510946D01*
X99593402Y-82407218D01*
X99593402Y-82407214D01*
X99600367Y-82372199D01*
X99593402Y-82337184D01*
X99593402Y-78746848D01*
X102847774Y-75492477D01*
X102877461Y-75472641D01*
X102932621Y-75390087D01*
X103005175Y-75462641D01*
X103233897Y-75557380D01*
X103481463Y-75557380D01*
X103583741Y-75515015D01*
X103583741Y-76924435D01*
X103576774Y-76959460D01*
X103604373Y-77098207D01*
X103663130Y-77186144D01*
X103663132Y-77186146D01*
X103682968Y-77215833D01*
X103712655Y-77235669D01*
X103830120Y-77353134D01*
X103830120Y-77596323D01*
X103924859Y-77825045D01*
X104099915Y-78000101D01*
X104328637Y-78094840D01*
X104576203Y-78094840D01*
X104804925Y-78000101D01*
X104943173Y-77861853D01*
X104943173Y-78703933D01*
X96996741Y-86650365D01*
X96941161Y-86613228D01*
X96626308Y-86550600D01*
X96413692Y-86550600D01*
X96098839Y-86613228D01*
X95741796Y-86851796D01*
X95503228Y-87208839D01*
X95419454Y-87630000D01*
X95503228Y-88051161D01*
X95741796Y-88408204D01*
X96098839Y-88646772D01*
X96413692Y-88709400D01*
X96626308Y-88709400D01*
X96941161Y-88646772D01*
X97298204Y-88408204D01*
X97536772Y-88051161D01*
X97620546Y-87630000D01*
X97536772Y-87208839D01*
X97499635Y-87153259D01*
X105247975Y-79404919D01*
X105247975Y-84506869D01*
X105241008Y-84541894D01*
X105268607Y-84680641D01*
X105327364Y-84768578D01*
X105327366Y-84768580D01*
X105347202Y-84798267D01*
X105376889Y-84818103D01*
X105516680Y-84957894D01*
X105516680Y-85201083D01*
X105611419Y-85429805D01*
X105786475Y-85604861D01*
X106015197Y-85699600D01*
X106262763Y-85699600D01*
X106367581Y-85656183D01*
X106367580Y-89581260D01*
X106360614Y-89616280D01*
X106388213Y-89755027D01*
X106444892Y-89839853D01*
X106466807Y-89872652D01*
X106496495Y-89892489D01*
X106641900Y-90037894D01*
X106641900Y-90281083D01*
X106736639Y-90509805D01*
X106911695Y-90684861D01*
X107140417Y-90779600D01*
X107387983Y-90779600D01*
X107490261Y-90737236D01*
X107490260Y-91699620D01*
X107483294Y-91734640D01*
X107510893Y-91873387D01*
X107566090Y-91955995D01*
X107589487Y-91991012D01*
X107619175Y-92010849D01*
X107916360Y-92308035D01*
X107936197Y-92337723D01*
X107965884Y-92357559D01*
X107965885Y-92357560D01*
X107981197Y-92367791D01*
X108204000Y-92590594D01*
X108204000Y-92833783D01*
X108298739Y-93062505D01*
X108473795Y-93237561D01*
X108702517Y-93332300D01*
X108950083Y-93332300D01*
X109178805Y-93237561D01*
X109353861Y-93062505D01*
X109448600Y-92833783D01*
X109448600Y-92586217D01*
X109353861Y-92357495D01*
X109178805Y-92182439D01*
X108950083Y-92087700D01*
X108706894Y-92087700D01*
X108473860Y-91854666D01*
X108454023Y-91824977D01*
X108424333Y-91805139D01*
X108420568Y-91801374D01*
X108405261Y-91791147D01*
X108201460Y-91587346D01*
X108201460Y-89897676D01*
X108208426Y-89862657D01*
X108196916Y-89804795D01*
X108180827Y-89723910D01*
X108102233Y-89606285D01*
X108072543Y-89586447D01*
X107383582Y-88897486D01*
X107383582Y-84629930D01*
X107390548Y-84594910D01*
X107362949Y-84456162D01*
X107304192Y-84368225D01*
X107304191Y-84368224D01*
X107290583Y-84347857D01*
X107426205Y-84291681D01*
X107467402Y-84250484D01*
X107467402Y-87252076D01*
X107460435Y-87287101D01*
X107488034Y-87425848D01*
X107543600Y-87509009D01*
X107543600Y-87753783D01*
X107638339Y-87982505D01*
X107813395Y-88157561D01*
X108042117Y-88252300D01*
X108289683Y-88252300D01*
X108518405Y-88157561D01*
X108693461Y-87982505D01*
X108788200Y-87753783D01*
X108788200Y-87506217D01*
X108693461Y-87277495D01*
X108518405Y-87102439D01*
X108289683Y-87007700D01*
X108178601Y-87007700D01*
X108178601Y-83040900D01*
X108397717Y-83131660D01*
X108645283Y-83131660D01*
X108874005Y-83036921D01*
X109049061Y-82861865D01*
X109090461Y-82761917D01*
X109090460Y-83673994D01*
X109070899Y-83693555D01*
X108976160Y-83922277D01*
X108976160Y-84169843D01*
X109070899Y-84398565D01*
X109095541Y-84423207D01*
X109095540Y-85934594D01*
X109075979Y-85954155D01*
X108981240Y-86182877D01*
X108981240Y-86430443D01*
X109075979Y-86659165D01*
X109251035Y-86834221D01*
X109479757Y-86928960D01*
X109727323Y-86928960D01*
X109766200Y-86912857D01*
X109766200Y-93350380D01*
X108539579Y-94577001D01*
X107463986Y-94577001D01*
X107413958Y-94567050D01*
X107363930Y-94577001D01*
X107363927Y-94577001D01*
X107215747Y-94606476D01*
X107047712Y-94718754D01*
X107019371Y-94761169D01*
X106932097Y-94848443D01*
X106828666Y-94805600D01*
X106399254Y-94805600D01*
X106002529Y-94969929D01*
X105698889Y-95273569D01*
X105534560Y-95670294D01*
X105534560Y-96099706D01*
X105698889Y-96496431D01*
X106002529Y-96800071D01*
X106399254Y-96964400D01*
X106828666Y-96964400D01*
X107125771Y-96841335D01*
X106786706Y-97180400D01*
X102267688Y-97180400D01*
X102367965Y-97138864D01*
X102442099Y-96892745D01*
X101613960Y-96064605D01*
X101599818Y-96078748D01*
X101420212Y-95899142D01*
X101434355Y-95885000D01*
X101793565Y-95885000D01*
X102621705Y-96713139D01*
X102867824Y-96639005D01*
X103060925Y-96101777D01*
X103033738Y-95531546D01*
X102867824Y-95130995D01*
X102621705Y-95056861D01*
X101793565Y-95885000D01*
X101434355Y-95885000D01*
X100606215Y-95056861D01*
X100360096Y-95130995D01*
X100166995Y-95668223D01*
X100194182Y-96238454D01*
X100300838Y-96495943D01*
X99336211Y-95531317D01*
X99316373Y-95501627D01*
X99198748Y-95423033D01*
X99095020Y-95402400D01*
X99060000Y-95395434D01*
X99024980Y-95402400D01*
X83967295Y-95402400D01*
X83442150Y-94877255D01*
X100785821Y-94877255D01*
X101613960Y-95705395D01*
X102442099Y-94877255D01*
X102367965Y-94631136D01*
X101830737Y-94438035D01*
X101260506Y-94465222D01*
X100859955Y-94631136D01*
X100785821Y-94877255D01*
X83442150Y-94877255D01*
X83405980Y-94841086D01*
X83405980Y-92520793D01*
X83491050Y-92503871D01*
X83864632Y-92254252D01*
X84114251Y-91880670D01*
X84132477Y-91789041D01*
X85603086Y-91789041D01*
X85842611Y-92295134D01*
X86257577Y-92671041D01*
X86645961Y-92831904D01*
X86868000Y-92709915D01*
X86868000Y-91567000D01*
X87122000Y-91567000D01*
X87122000Y-92709915D01*
X87344039Y-92831904D01*
X87638361Y-92710000D01*
X95419454Y-92710000D01*
X95503228Y-93131161D01*
X95741796Y-93488204D01*
X96098839Y-93726772D01*
X96413692Y-93789400D01*
X96626308Y-93789400D01*
X96941161Y-93726772D01*
X97298204Y-93488204D01*
X97536772Y-93131161D01*
X97592623Y-92850377D01*
X98295460Y-92850377D01*
X98295460Y-93097943D01*
X98390199Y-93326665D01*
X98565255Y-93501721D01*
X98793977Y-93596460D01*
X99041543Y-93596460D01*
X99270265Y-93501721D01*
X99445321Y-93326665D01*
X99540060Y-93097943D01*
X99540060Y-92850377D01*
X99445321Y-92621655D01*
X99425760Y-92602094D01*
X99425760Y-89198406D01*
X99455481Y-89168685D01*
X99550220Y-88939963D01*
X99550220Y-88692397D01*
X99455481Y-88463675D01*
X99280425Y-88288619D01*
X99051703Y-88193880D01*
X98804137Y-88193880D01*
X98575415Y-88288619D01*
X98400359Y-88463675D01*
X98305620Y-88692397D01*
X98305620Y-88939963D01*
X98400359Y-89168685D01*
X98409761Y-89178087D01*
X98409760Y-92602094D01*
X98390199Y-92621655D01*
X98295460Y-92850377D01*
X97592623Y-92850377D01*
X97620546Y-92710000D01*
X97536772Y-92288839D01*
X97298204Y-91931796D01*
X96941161Y-91693228D01*
X96626308Y-91630600D01*
X96413692Y-91630600D01*
X96098839Y-91693228D01*
X95741796Y-91931796D01*
X95503228Y-92288839D01*
X95419454Y-92710000D01*
X87638361Y-92710000D01*
X87732423Y-92671041D01*
X88147389Y-92295134D01*
X88386914Y-91789041D01*
X88265629Y-91567000D01*
X87122000Y-91567000D01*
X86868000Y-91567000D01*
X85724371Y-91567000D01*
X85603086Y-91789041D01*
X84132477Y-91789041D01*
X84201906Y-91440000D01*
X84132478Y-91090959D01*
X85603086Y-91090959D01*
X85724371Y-91313000D01*
X86868000Y-91313000D01*
X86868000Y-90170085D01*
X87122000Y-90170085D01*
X87122000Y-91313000D01*
X88265629Y-91313000D01*
X88383207Y-91097745D01*
X89341861Y-91097745D01*
X89415995Y-91343864D01*
X89953223Y-91536965D01*
X90523454Y-91509778D01*
X90924005Y-91343864D01*
X90998139Y-91097745D01*
X90170000Y-90269605D01*
X89341861Y-91097745D01*
X88383207Y-91097745D01*
X88386914Y-91090959D01*
X88147389Y-90584866D01*
X87732423Y-90208959D01*
X87344039Y-90048096D01*
X87122000Y-90170085D01*
X86868000Y-90170085D01*
X86645961Y-90048096D01*
X86257577Y-90208959D01*
X85842611Y-90584866D01*
X85603086Y-91090959D01*
X84132478Y-91090959D01*
X84114251Y-90999330D01*
X83864632Y-90625748D01*
X83491050Y-90376129D01*
X83161615Y-90310600D01*
X82939145Y-90310600D01*
X82609710Y-90376129D01*
X82327379Y-90564776D01*
X82327379Y-90125895D01*
X82537591Y-89915683D01*
X82609710Y-89963871D01*
X82939145Y-90029400D01*
X83161615Y-90029400D01*
X83491050Y-89963871D01*
X83626714Y-89873223D01*
X88723035Y-89873223D01*
X88750222Y-90443454D01*
X88916136Y-90844005D01*
X89162255Y-90918139D01*
X89990395Y-90090000D01*
X90349605Y-90090000D01*
X91177745Y-90918139D01*
X91423864Y-90844005D01*
X91616965Y-90306777D01*
X91610444Y-90170000D01*
X95419454Y-90170000D01*
X95503228Y-90591161D01*
X95741796Y-90948204D01*
X96098839Y-91186772D01*
X96413692Y-91249400D01*
X96626308Y-91249400D01*
X96941161Y-91186772D01*
X97298204Y-90948204D01*
X97536772Y-90591161D01*
X97620546Y-90170000D01*
X97536772Y-89748839D01*
X97298204Y-89391796D01*
X96941161Y-89153228D01*
X96626308Y-89090600D01*
X96413692Y-89090600D01*
X96098839Y-89153228D01*
X95741796Y-89391796D01*
X95503228Y-89748839D01*
X95419454Y-90170000D01*
X91610444Y-90170000D01*
X91589778Y-89736546D01*
X91423864Y-89335995D01*
X91177745Y-89261861D01*
X90349605Y-90090000D01*
X89990395Y-90090000D01*
X89162255Y-89261861D01*
X88916136Y-89335995D01*
X88723035Y-89873223D01*
X83626714Y-89873223D01*
X83864632Y-89714252D01*
X84114251Y-89340670D01*
X84165653Y-89082255D01*
X89341861Y-89082255D01*
X90170000Y-89910395D01*
X90998139Y-89082255D01*
X90924005Y-88836136D01*
X90386777Y-88643035D01*
X89816546Y-88670222D01*
X89415995Y-88836136D01*
X89341861Y-89082255D01*
X84165653Y-89082255D01*
X84201906Y-88900000D01*
X84114251Y-88459330D01*
X83864632Y-88085748D01*
X83491050Y-87836129D01*
X83177382Y-87773736D01*
X83177382Y-87680820D01*
X83407272Y-87801486D01*
X83931738Y-87555183D01*
X84322025Y-87126924D01*
X84491856Y-86716890D01*
X84370535Y-86487000D01*
X83177380Y-86487000D01*
X83177380Y-86507000D01*
X82923380Y-86507000D01*
X82923380Y-86487000D01*
X81730225Y-86487000D01*
X81608904Y-86716890D01*
X81778735Y-87126924D01*
X82169022Y-87555183D01*
X82693488Y-87801486D01*
X82923378Y-87680820D01*
X82923378Y-87773736D01*
X82609710Y-87836129D01*
X82236128Y-88085748D01*
X81986509Y-88459330D01*
X81898854Y-88900000D01*
X81986509Y-89340670D01*
X82034697Y-89412789D01*
X81745094Y-89702392D01*
X81715406Y-89722229D01*
X81695570Y-89751916D01*
X81695569Y-89751917D01*
X81636812Y-89839854D01*
X81609213Y-89978601D01*
X81616179Y-90013621D01*
X81616180Y-95939774D01*
X81609213Y-95974799D01*
X81636812Y-96113546D01*
X81695569Y-96201483D01*
X81695571Y-96201485D01*
X81715407Y-96231172D01*
X81745094Y-96251008D01*
X81973696Y-96479611D01*
X81973699Y-96479613D01*
X82034697Y-96540611D01*
X81986509Y-96612730D01*
X81898854Y-97053400D01*
X81986509Y-97494070D01*
X82236128Y-97867652D01*
X82609710Y-98117271D01*
X82939145Y-98182800D01*
X83161615Y-98182800D01*
X83491050Y-98117271D01*
X83864632Y-97867652D01*
X84114251Y-97494070D01*
X84201906Y-97053400D01*
X84114251Y-96612730D01*
X83864632Y-96239148D01*
X83491050Y-95989529D01*
X83161615Y-95924000D01*
X82939145Y-95924000D01*
X82609710Y-95989529D01*
X82537591Y-96037717D01*
X82476593Y-95976719D01*
X82476591Y-95976716D01*
X82327379Y-95827505D01*
X82327379Y-92315224D01*
X82609710Y-92503871D01*
X82694780Y-92520793D01*
X82694781Y-94953355D01*
X82687814Y-94988380D01*
X82715413Y-95127127D01*
X82774170Y-95215064D01*
X82774172Y-95215066D01*
X82794008Y-95244753D01*
X82823695Y-95264589D01*
X83543790Y-95984685D01*
X83563627Y-96014373D01*
X83593314Y-96034209D01*
X83593315Y-96034210D01*
X83681252Y-96092967D01*
X83819999Y-96120566D01*
X83855019Y-96113600D01*
X84964024Y-96113600D01*
X84776128Y-96239148D01*
X84526509Y-96612730D01*
X84438854Y-97053400D01*
X84526509Y-97494070D01*
X84776128Y-97867652D01*
X85149710Y-98117271D01*
X85479145Y-98182800D01*
X85701615Y-98182800D01*
X86031050Y-98117271D01*
X86404632Y-97867652D01*
X86654251Y-97494070D01*
X86741906Y-97053400D01*
X86654251Y-96612730D01*
X86404632Y-96239148D01*
X86216736Y-96113600D01*
X87504024Y-96113600D01*
X87316128Y-96239148D01*
X87066509Y-96612730D01*
X86978854Y-97053400D01*
X87066509Y-97494070D01*
X87316128Y-97867652D01*
X87689710Y-98117271D01*
X88019145Y-98182800D01*
X88241615Y-98182800D01*
X88571050Y-98117271D01*
X88944632Y-97867652D01*
X89194251Y-97494070D01*
X89281906Y-97053400D01*
X89194251Y-96612730D01*
X88944632Y-96239148D01*
X88756736Y-96113600D01*
X90044024Y-96113600D01*
X89856128Y-96239148D01*
X89606509Y-96612730D01*
X89518854Y-97053400D01*
X89606509Y-97494070D01*
X89856128Y-97867652D01*
X90229710Y-98117271D01*
X90559145Y-98182800D01*
X90781615Y-98182800D01*
X91111050Y-98117271D01*
X91484632Y-97867652D01*
X91734251Y-97494070D01*
X91821906Y-97053400D01*
X91734251Y-96612730D01*
X91484632Y-96239148D01*
X91296736Y-96113600D01*
X92584024Y-96113600D01*
X92396128Y-96239148D01*
X92146509Y-96612730D01*
X92058854Y-97053400D01*
X92146509Y-97494070D01*
X92396128Y-97867652D01*
X92769710Y-98117271D01*
X93099145Y-98182800D01*
X93321615Y-98182800D01*
X93651050Y-98117271D01*
X94024632Y-97867652D01*
X94274251Y-97494070D01*
X94361906Y-97053400D01*
X94274251Y-96612730D01*
X94024632Y-96239148D01*
X93836736Y-96113600D01*
X95124024Y-96113600D01*
X94936128Y-96239148D01*
X94686509Y-96612730D01*
X94598854Y-97053400D01*
X94686509Y-97494070D01*
X94936128Y-97867652D01*
X95309710Y-98117271D01*
X95639145Y-98182800D01*
X95861615Y-98182800D01*
X96191050Y-98117271D01*
X96564632Y-97867652D01*
X96814251Y-97494070D01*
X96901906Y-97053400D01*
X96814251Y-96612730D01*
X96564632Y-96239148D01*
X96376736Y-96113600D01*
X97664024Y-96113600D01*
X97476128Y-96239148D01*
X97226509Y-96612730D01*
X97138854Y-97053400D01*
X97226509Y-97494070D01*
X97476128Y-97867652D01*
X97849710Y-98117271D01*
X98179145Y-98182800D01*
X98401615Y-98182800D01*
X98731050Y-98117271D01*
X99104632Y-97867652D01*
X99354251Y-97494070D01*
X99441906Y-97053400D01*
X99354251Y-96612730D01*
X99238295Y-96439189D01*
X100561791Y-97762686D01*
X100581627Y-97792373D01*
X100611314Y-97812209D01*
X100611315Y-97812210D01*
X100699252Y-97870967D01*
X100838000Y-97898566D01*
X100873020Y-97891600D01*
X106898980Y-97891600D01*
X106934000Y-97898566D01*
X106969020Y-97891600D01*
X107072748Y-97870967D01*
X107190373Y-97792373D01*
X107210211Y-97762683D01*
X108859295Y-96113600D01*
X108871585Y-96113600D01*
X108852207Y-96211020D01*
X108852207Y-97911020D01*
X108873892Y-98020036D01*
X108935644Y-98112456D01*
X109028064Y-98174208D01*
X109137080Y-98195893D01*
X110837080Y-98195893D01*
X110946096Y-98174208D01*
X111038516Y-98112456D01*
X111100268Y-98020036D01*
X111121953Y-97911020D01*
X111121953Y-96211020D01*
X111108983Y-96145817D01*
X111511397Y-96548231D01*
X111463209Y-96620350D01*
X111375554Y-97061020D01*
X111463209Y-97501690D01*
X111712828Y-97875272D01*
X112086410Y-98124891D01*
X112415845Y-98190420D01*
X112638315Y-98190420D01*
X112967750Y-98124891D01*
X113341332Y-97875272D01*
X113590951Y-97501690D01*
X113678606Y-97061020D01*
X113915554Y-97061020D01*
X114003209Y-97501690D01*
X114252828Y-97875272D01*
X114626410Y-98124891D01*
X114955845Y-98190420D01*
X115178315Y-98190420D01*
X115507750Y-98124891D01*
X115881332Y-97875272D01*
X116130951Y-97501690D01*
X116218606Y-97061020D01*
X116455554Y-97061020D01*
X116543209Y-97501690D01*
X116792828Y-97875272D01*
X117166410Y-98124891D01*
X117495845Y-98190420D01*
X117718315Y-98190420D01*
X118047750Y-98124891D01*
X118421332Y-97875272D01*
X118670951Y-97501690D01*
X118758606Y-97061020D01*
X118995554Y-97061020D01*
X119083209Y-97501690D01*
X119332828Y-97875272D01*
X119706410Y-98124891D01*
X120035845Y-98190420D01*
X120258315Y-98190420D01*
X120587750Y-98124891D01*
X120961332Y-97875272D01*
X121210951Y-97501690D01*
X121298606Y-97061020D01*
X121535554Y-97061020D01*
X121623209Y-97501690D01*
X121872828Y-97875272D01*
X122246410Y-98124891D01*
X122575845Y-98190420D01*
X122798315Y-98190420D01*
X123127750Y-98124891D01*
X123501332Y-97875272D01*
X123750951Y-97501690D01*
X123838606Y-97061020D01*
X124075554Y-97061020D01*
X124163209Y-97501690D01*
X124412828Y-97875272D01*
X124786410Y-98124891D01*
X125115845Y-98190420D01*
X125338315Y-98190420D01*
X125667750Y-98124891D01*
X126041332Y-97875272D01*
X126290951Y-97501690D01*
X126378606Y-97061020D01*
X126615554Y-97061020D01*
X126703209Y-97501690D01*
X126952828Y-97875272D01*
X127326410Y-98124891D01*
X127655845Y-98190420D01*
X127878315Y-98190420D01*
X128207750Y-98124891D01*
X128581332Y-97875272D01*
X128830951Y-97501690D01*
X128918606Y-97061020D01*
X128830951Y-96620350D01*
X128581332Y-96246768D01*
X128207750Y-95997149D01*
X127878315Y-95931620D01*
X127655845Y-95931620D01*
X127326410Y-95997149D01*
X126952828Y-96246768D01*
X126703209Y-96620350D01*
X126615554Y-97061020D01*
X126378606Y-97061020D01*
X126290951Y-96620350D01*
X126041332Y-96246768D01*
X125667750Y-95997149D01*
X125338315Y-95931620D01*
X125115845Y-95931620D01*
X124786410Y-95997149D01*
X124412828Y-96246768D01*
X124163209Y-96620350D01*
X124075554Y-97061020D01*
X123838606Y-97061020D01*
X123750951Y-96620350D01*
X123501332Y-96246768D01*
X123127750Y-95997149D01*
X122798315Y-95931620D01*
X122575845Y-95931620D01*
X122246410Y-95997149D01*
X121872828Y-96246768D01*
X121623209Y-96620350D01*
X121535554Y-97061020D01*
X121298606Y-97061020D01*
X121210951Y-96620350D01*
X120961332Y-96246768D01*
X120587750Y-95997149D01*
X120258315Y-95931620D01*
X120035845Y-95931620D01*
X119706410Y-95997149D01*
X119332828Y-96246768D01*
X119083209Y-96620350D01*
X118995554Y-97061020D01*
X118758606Y-97061020D01*
X118670951Y-96620350D01*
X118421332Y-96246768D01*
X118047750Y-95997149D01*
X117718315Y-95931620D01*
X117495845Y-95931620D01*
X117166410Y-95997149D01*
X116792828Y-96246768D01*
X116543209Y-96620350D01*
X116455554Y-97061020D01*
X116218606Y-97061020D01*
X116130951Y-96620350D01*
X115881332Y-96246768D01*
X115507750Y-95997149D01*
X115178315Y-95931620D01*
X114955845Y-95931620D01*
X114626410Y-95997149D01*
X114252828Y-96246768D01*
X114003209Y-96620350D01*
X113915554Y-97061020D01*
X113678606Y-97061020D01*
X113590951Y-96620350D01*
X113341332Y-96246768D01*
X112967750Y-95997149D01*
X112638315Y-95931620D01*
X112415845Y-95931620D01*
X112086410Y-95997149D01*
X112014291Y-96045337D01*
X111500271Y-95531317D01*
X111480433Y-95501627D01*
X111362808Y-95423033D01*
X111259080Y-95402400D01*
X111224060Y-95395434D01*
X111189040Y-95402400D01*
X109151020Y-95402400D01*
X110598031Y-93955389D01*
X110640446Y-93927048D01*
X110752724Y-93759013D01*
X110782199Y-93610833D01*
X110782199Y-93610830D01*
X110792150Y-93560802D01*
X110782199Y-93510774D01*
X110782199Y-93189485D01*
X110981796Y-93488204D01*
X111338839Y-93726772D01*
X111653692Y-93789400D01*
X111866308Y-93789400D01*
X112181161Y-93726772D01*
X112538204Y-93488204D01*
X112776772Y-93131161D01*
X112860546Y-92710000D01*
X112776772Y-92288839D01*
X112538204Y-91931796D01*
X112181161Y-91693228D01*
X111866308Y-91630600D01*
X111653692Y-91630600D01*
X111338839Y-91693228D01*
X110981796Y-91931796D01*
X110782199Y-92230515D01*
X110782199Y-90649485D01*
X110981796Y-90948204D01*
X111338839Y-91186772D01*
X111653692Y-91249400D01*
X111866308Y-91249400D01*
X112181161Y-91186772D01*
X112538204Y-90948204D01*
X112776772Y-90591161D01*
X112860546Y-90170000D01*
X112776772Y-89748839D01*
X112538204Y-89391796D01*
X112181161Y-89153228D01*
X111866308Y-89090600D01*
X111653692Y-89090600D01*
X111338839Y-89153228D01*
X110981796Y-89391796D01*
X110782199Y-89690515D01*
X110782199Y-88109485D01*
X110981796Y-88408204D01*
X111338839Y-88646772D01*
X111653692Y-88709400D01*
X111866308Y-88709400D01*
X112181161Y-88646772D01*
X112538204Y-88408204D01*
X112776772Y-88051161D01*
X112860546Y-87630000D01*
X112776772Y-87208839D01*
X112538204Y-86851796D01*
X112181161Y-86613228D01*
X111866308Y-86550600D01*
X111653692Y-86550600D01*
X111338839Y-86613228D01*
X110981796Y-86851796D01*
X110782199Y-87150515D01*
X110782199Y-85569485D01*
X110981796Y-85868204D01*
X111338839Y-86106772D01*
X111653692Y-86169400D01*
X111866308Y-86169400D01*
X112181161Y-86106772D01*
X112538204Y-85868204D01*
X112776772Y-85511161D01*
X112860546Y-85090000D01*
X112776772Y-84668839D01*
X112718749Y-84582000D01*
X117009454Y-84582000D01*
X117093228Y-85003161D01*
X117331796Y-85360204D01*
X117688839Y-85598772D01*
X118003692Y-85661400D01*
X118216308Y-85661400D01*
X118428727Y-85619147D01*
X119087801Y-86278222D01*
X119087801Y-86642515D01*
X118888204Y-86343796D01*
X118531161Y-86105228D01*
X118216308Y-86042600D01*
X118003692Y-86042600D01*
X117688839Y-86105228D01*
X117331796Y-86343796D01*
X117093228Y-86700839D01*
X117009454Y-87122000D01*
X117093228Y-87543161D01*
X117331796Y-87900204D01*
X117688839Y-88138772D01*
X118003692Y-88201400D01*
X118216308Y-88201400D01*
X118531161Y-88138772D01*
X118888204Y-87900204D01*
X119087802Y-87601484D01*
X119087802Y-87965778D01*
X118428727Y-88624853D01*
X118216308Y-88582600D01*
X118003692Y-88582600D01*
X117688839Y-88645228D01*
X117331796Y-88883796D01*
X117093228Y-89240839D01*
X117009454Y-89662000D01*
X117093228Y-90083161D01*
X117331796Y-90440204D01*
X117688839Y-90678772D01*
X118003692Y-90741400D01*
X118216308Y-90741400D01*
X118428727Y-90699147D01*
X118872001Y-91142422D01*
X118872001Y-91752086D01*
X118768569Y-91794929D01*
X118464929Y-92098569D01*
X118300600Y-92495294D01*
X118300600Y-92924706D01*
X118464929Y-93321431D01*
X118768569Y-93625071D01*
X119165294Y-93789400D01*
X119594706Y-93789400D01*
X119767696Y-93717745D01*
X123551861Y-93717745D01*
X123625995Y-93963864D01*
X124163223Y-94156965D01*
X124733454Y-94129778D01*
X125134005Y-93963864D01*
X125208139Y-93717745D01*
X124380000Y-92889605D01*
X123551861Y-93717745D01*
X119767696Y-93717745D01*
X119991431Y-93625071D01*
X120295071Y-93321431D01*
X120459400Y-92924706D01*
X120459400Y-92495294D01*
X120458543Y-92493223D01*
X122933035Y-92493223D01*
X122960222Y-93063454D01*
X123126136Y-93464005D01*
X123372255Y-93538139D01*
X124200395Y-92710000D01*
X124559605Y-92710000D01*
X125387745Y-93538139D01*
X125633864Y-93464005D01*
X125826965Y-92926777D01*
X125799778Y-92356546D01*
X125633864Y-91955995D01*
X125387745Y-91881861D01*
X124559605Y-92710000D01*
X124200395Y-92710000D01*
X123372255Y-91881861D01*
X123126136Y-91955995D01*
X122933035Y-92493223D01*
X120458543Y-92493223D01*
X120416557Y-92391863D01*
X121106165Y-91702255D01*
X123551861Y-91702255D01*
X124380000Y-92530395D01*
X125208139Y-91702255D01*
X125134005Y-91456136D01*
X124596777Y-91263035D01*
X124026546Y-91290222D01*
X123625995Y-91456136D01*
X123551861Y-91702255D01*
X121106165Y-91702255D01*
X123146420Y-89662000D01*
X124629454Y-89662000D01*
X124713228Y-90083161D01*
X124951796Y-90440204D01*
X125308839Y-90678772D01*
X125623692Y-90741400D01*
X125836308Y-90741400D01*
X126151161Y-90678772D01*
X126508204Y-90440204D01*
X126746772Y-90083161D01*
X126830546Y-89662000D01*
X126746772Y-89240839D01*
X126508204Y-88883796D01*
X126151161Y-88645228D01*
X125836308Y-88582600D01*
X125623692Y-88582600D01*
X125308839Y-88645228D01*
X124951796Y-88883796D01*
X124713228Y-89240839D01*
X124629454Y-89662000D01*
X123146420Y-89662000D01*
X124934340Y-87874080D01*
X124951796Y-87900204D01*
X125308839Y-88138772D01*
X125623692Y-88201400D01*
X125836308Y-88201400D01*
X126151161Y-88138772D01*
X126508204Y-87900204D01*
X126746772Y-87543161D01*
X126830546Y-87122000D01*
X126746772Y-86700839D01*
X126508204Y-86343796D01*
X126151161Y-86105228D01*
X125836308Y-86042600D01*
X125623692Y-86042600D01*
X125411273Y-86084853D01*
X124752199Y-85425779D01*
X124752199Y-85061485D01*
X124951796Y-85360204D01*
X125308839Y-85598772D01*
X125623692Y-85661400D01*
X125836308Y-85661400D01*
X126151161Y-85598772D01*
X126508204Y-85360204D01*
X126746772Y-85003161D01*
X126830546Y-84582000D01*
X126746772Y-84160839D01*
X126508204Y-83803796D01*
X126151161Y-83565228D01*
X125836308Y-83502600D01*
X125623692Y-83502600D01*
X125308839Y-83565228D01*
X124951796Y-83803796D01*
X124752199Y-84102515D01*
X124752199Y-83738221D01*
X125411273Y-83079147D01*
X125623692Y-83121400D01*
X125836308Y-83121400D01*
X126151161Y-83058772D01*
X126508204Y-82820204D01*
X126746772Y-82463161D01*
X126830546Y-82042000D01*
X126746772Y-81620839D01*
X126508204Y-81263796D01*
X126151161Y-81025228D01*
X125836308Y-80962600D01*
X125623692Y-80962600D01*
X125411273Y-81004853D01*
X124752199Y-80345779D01*
X124752199Y-79981485D01*
X124951796Y-80280204D01*
X125308839Y-80518772D01*
X125623692Y-80581400D01*
X125836308Y-80581400D01*
X126151161Y-80518772D01*
X126508204Y-80280204D01*
X126746772Y-79923161D01*
X126830546Y-79502000D01*
X126746772Y-79080839D01*
X126508204Y-78723796D01*
X126151161Y-78485228D01*
X125836308Y-78422600D01*
X125623692Y-78422600D01*
X125308839Y-78485228D01*
X124951796Y-78723796D01*
X124752199Y-79022515D01*
X124752199Y-78658221D01*
X125411273Y-77999147D01*
X125623692Y-78041400D01*
X125836308Y-78041400D01*
X126151161Y-77978772D01*
X126508204Y-77740204D01*
X126746772Y-77383161D01*
X126830546Y-76962000D01*
X126746772Y-76540839D01*
X126508204Y-76183796D01*
X126151161Y-75945228D01*
X125836308Y-75882600D01*
X125623692Y-75882600D01*
X125308839Y-75945228D01*
X124951796Y-76183796D01*
X124713228Y-76540839D01*
X124629454Y-76962000D01*
X124692853Y-77280727D01*
X123920365Y-78053215D01*
X123877953Y-78081554D01*
X123849614Y-78123966D01*
X123849611Y-78123969D01*
X123765674Y-78249590D01*
X123726248Y-78447801D01*
X123736200Y-78497834D01*
X123736199Y-80506171D01*
X123726248Y-80556199D01*
X123736199Y-80606227D01*
X123736199Y-80606230D01*
X123765674Y-80754410D01*
X123877952Y-80922446D01*
X123920367Y-80950787D01*
X124692853Y-81723273D01*
X124629454Y-82042000D01*
X124692853Y-82360727D01*
X123920365Y-83133215D01*
X123877953Y-83161554D01*
X123849614Y-83203966D01*
X123849611Y-83203969D01*
X123765674Y-83329590D01*
X123726248Y-83527801D01*
X123736200Y-83577834D01*
X123736199Y-85586171D01*
X123726248Y-85636199D01*
X123736199Y-85686227D01*
X123736199Y-85686230D01*
X123747684Y-85743968D01*
X123765674Y-85834410D01*
X123789181Y-85869590D01*
X123877952Y-86002446D01*
X123920367Y-86030787D01*
X124627877Y-86738297D01*
X124601753Y-86755753D01*
X124573413Y-86798167D01*
X119888000Y-91483580D01*
X119888000Y-90982027D01*
X119897951Y-90931999D01*
X119888000Y-90881971D01*
X119888000Y-90881968D01*
X119858525Y-90733788D01*
X119825833Y-90684861D01*
X119774588Y-90608167D01*
X119774586Y-90608165D01*
X119746247Y-90565753D01*
X119703835Y-90537414D01*
X119147147Y-89980727D01*
X119210546Y-89662000D01*
X119147147Y-89343273D01*
X119919633Y-88570787D01*
X119962048Y-88542446D01*
X120074326Y-88374411D01*
X120103801Y-88226231D01*
X120103801Y-88226227D01*
X120113752Y-88176200D01*
X120103801Y-88126173D01*
X120103801Y-86117829D01*
X120113752Y-86067801D01*
X120103801Y-86017773D01*
X120103801Y-86017769D01*
X120074326Y-85869589D01*
X120050820Y-85834410D01*
X119990389Y-85743968D01*
X119990387Y-85743966D01*
X119962048Y-85701554D01*
X119919637Y-85673216D01*
X119147147Y-84900727D01*
X119210546Y-84582000D01*
X119126772Y-84160839D01*
X118888204Y-83803796D01*
X118531161Y-83565228D01*
X118216308Y-83502600D01*
X118003692Y-83502600D01*
X117688839Y-83565228D01*
X117331796Y-83803796D01*
X117093228Y-84160839D01*
X117009454Y-84582000D01*
X112718749Y-84582000D01*
X112538204Y-84311796D01*
X112181161Y-84073228D01*
X111866308Y-84010600D01*
X111653692Y-84010600D01*
X111338839Y-84073228D01*
X110981796Y-84311796D01*
X110782199Y-84610515D01*
X110782199Y-83029485D01*
X110981796Y-83328204D01*
X111338839Y-83566772D01*
X111653692Y-83629400D01*
X111866308Y-83629400D01*
X112181161Y-83566772D01*
X112538204Y-83328204D01*
X112776772Y-82971161D01*
X112860546Y-82550000D01*
X112776772Y-82128839D01*
X112538204Y-81771796D01*
X112181161Y-81533228D01*
X111866308Y-81470600D01*
X111653692Y-81470600D01*
X111338839Y-81533228D01*
X110981796Y-81771796D01*
X110782199Y-82070515D01*
X110782199Y-80489485D01*
X110981796Y-80788204D01*
X111338839Y-81026772D01*
X111653692Y-81089400D01*
X111866308Y-81089400D01*
X112181161Y-81026772D01*
X112236741Y-80989635D01*
X113515791Y-82268686D01*
X113535627Y-82298373D01*
X113565314Y-82318209D01*
X113565315Y-82318210D01*
X113653252Y-82376967D01*
X113792000Y-82404566D01*
X113827020Y-82397600D01*
X117080187Y-82397600D01*
X117093228Y-82463161D01*
X117331796Y-82820204D01*
X117688839Y-83058772D01*
X118003692Y-83121400D01*
X118216308Y-83121400D01*
X118531161Y-83058772D01*
X118888204Y-82820204D01*
X119126772Y-82463161D01*
X119210546Y-82042000D01*
X119126772Y-81620839D01*
X118888204Y-81263796D01*
X118531161Y-81025228D01*
X118216308Y-80962600D01*
X118003692Y-80962600D01*
X117688839Y-81025228D01*
X117331796Y-81263796D01*
X117093228Y-81620839D01*
X117080187Y-81686400D01*
X113939295Y-81686400D01*
X112739635Y-80486741D01*
X112776772Y-80431161D01*
X112860546Y-80010000D01*
X112776772Y-79588839D01*
X112538204Y-79231796D01*
X112181161Y-78993228D01*
X111866308Y-78930600D01*
X111653692Y-78930600D01*
X111338839Y-78993228D01*
X110981796Y-79231796D01*
X110782199Y-79530515D01*
X110782199Y-77949485D01*
X110981796Y-78248204D01*
X111338839Y-78486772D01*
X111653692Y-78549400D01*
X111866308Y-78549400D01*
X112181161Y-78486772D01*
X112538204Y-78248204D01*
X112776772Y-77891161D01*
X112860546Y-77470000D01*
X112776772Y-77048839D01*
X112718749Y-76962000D01*
X117009454Y-76962000D01*
X117093228Y-77383161D01*
X117331796Y-77740204D01*
X117688839Y-77978772D01*
X117754401Y-77991813D01*
X117754400Y-78472187D01*
X117688839Y-78485228D01*
X117331796Y-78723796D01*
X117093228Y-79080839D01*
X117009454Y-79502000D01*
X117093228Y-79923161D01*
X117331796Y-80280204D01*
X117688839Y-80518772D01*
X118003692Y-80581400D01*
X118216308Y-80581400D01*
X118531161Y-80518772D01*
X118888204Y-80280204D01*
X119126772Y-79923161D01*
X119210546Y-79502000D01*
X119126772Y-79080839D01*
X118888204Y-78723796D01*
X118531161Y-78485228D01*
X118465600Y-78472187D01*
X118465600Y-77991813D01*
X118531161Y-77978772D01*
X118888204Y-77740204D01*
X119126772Y-77383161D01*
X119210546Y-76962000D01*
X119126772Y-76540839D01*
X118888204Y-76183796D01*
X118531161Y-75945228D01*
X118216308Y-75882600D01*
X118003692Y-75882600D01*
X117688839Y-75945228D01*
X117331796Y-76183796D01*
X117093228Y-76540839D01*
X117009454Y-76962000D01*
X112718749Y-76962000D01*
X112538204Y-76691796D01*
X112181161Y-76453228D01*
X111866308Y-76390600D01*
X111653692Y-76390600D01*
X111338839Y-76453228D01*
X110981796Y-76691796D01*
X110782199Y-76990515D01*
X110782199Y-75409485D01*
X110981796Y-75708204D01*
X111338839Y-75946772D01*
X111653692Y-76009400D01*
X111866308Y-76009400D01*
X112181161Y-75946772D01*
X112538204Y-75708204D01*
X112776772Y-75351161D01*
X112860546Y-74930000D01*
X112776772Y-74508839D01*
X112538204Y-74151796D01*
X112181161Y-73913228D01*
X111866308Y-73850600D01*
X111653692Y-73850600D01*
X111338839Y-73913228D01*
X110981796Y-74151796D01*
X110782199Y-74450515D01*
X110782199Y-74086221D01*
X111246420Y-73622000D01*
X117025127Y-73622000D01*
X117025127Y-75222000D01*
X117046812Y-75331016D01*
X117108564Y-75423436D01*
X117200984Y-75485188D01*
X117310000Y-75506873D01*
X118910000Y-75506873D01*
X119019016Y-75485188D01*
X119111436Y-75423436D01*
X119173188Y-75331016D01*
X119194873Y-75222000D01*
X119194873Y-74771039D01*
X124338096Y-74771039D01*
X124498959Y-75159423D01*
X124874866Y-75574389D01*
X125380959Y-75813914D01*
X125603000Y-75692629D01*
X125603000Y-74549000D01*
X125857000Y-74549000D01*
X125857000Y-75692629D01*
X126079041Y-75813914D01*
X126585134Y-75574389D01*
X126961041Y-75159423D01*
X127121904Y-74771039D01*
X126999915Y-74549000D01*
X125857000Y-74549000D01*
X125603000Y-74549000D01*
X124460085Y-74549000D01*
X124338096Y-74771039D01*
X119194873Y-74771039D01*
X119194873Y-74758215D01*
X119201148Y-74756967D01*
X119318773Y-74678373D01*
X119338611Y-74648683D01*
X119914333Y-74072961D01*
X124338096Y-74072961D01*
X124460085Y-74295000D01*
X125603000Y-74295000D01*
X125603000Y-73151371D01*
X125857000Y-73151371D01*
X125857000Y-74295000D01*
X126999915Y-74295000D01*
X127121904Y-74072961D01*
X126961041Y-73684577D01*
X126585134Y-73269611D01*
X126079041Y-73030086D01*
X125857000Y-73151371D01*
X125603000Y-73151371D01*
X125380959Y-73030086D01*
X124874866Y-73269611D01*
X124498959Y-73684577D01*
X124338096Y-74072961D01*
X119914333Y-74072961D01*
X120876683Y-73110611D01*
X120906373Y-73090773D01*
X120984967Y-72973148D01*
X121005600Y-72869420D01*
X121005600Y-72869416D01*
X121012565Y-72834401D01*
X121005600Y-72799386D01*
X121005600Y-68394873D01*
X121450000Y-68394873D01*
X121559016Y-68373188D01*
X121651436Y-68311436D01*
X121713188Y-68219016D01*
X121734873Y-68110000D01*
X121734873Y-67095294D01*
X122070600Y-67095294D01*
X122070600Y-67524706D01*
X122234929Y-67921431D01*
X122538569Y-68225071D01*
X122935294Y-68389400D01*
X123364706Y-68389400D01*
X123761431Y-68225071D01*
X124065071Y-67921431D01*
X124229400Y-67524706D01*
X124229400Y-67095294D01*
X124065071Y-66698569D01*
X123761431Y-66394929D01*
X123364706Y-66230600D01*
X122935294Y-66230600D01*
X122538569Y-66394929D01*
X122234929Y-66698569D01*
X122070600Y-67095294D01*
X121734873Y-67095294D01*
X121734873Y-66510000D01*
X121713188Y-66400984D01*
X121651436Y-66308564D01*
X121559016Y-66246812D01*
X121450000Y-66225127D01*
X121005600Y-66225127D01*
X121005600Y-63364745D01*
X122996861Y-63364745D01*
X123070995Y-63610864D01*
X123608223Y-63803965D01*
X124178454Y-63776778D01*
X124579005Y-63610864D01*
X124653139Y-63364745D01*
X123825000Y-62536605D01*
X122996861Y-63364745D01*
X121005600Y-63364745D01*
X121005600Y-63027020D01*
X121012566Y-62992000D01*
X120984967Y-62853252D01*
X120980530Y-62846612D01*
X121094400Y-62571706D01*
X121094400Y-62142294D01*
X121093543Y-62140223D01*
X122378035Y-62140223D01*
X122405222Y-62710454D01*
X122571136Y-63111005D01*
X122817255Y-63185139D01*
X123645395Y-62357000D01*
X124004605Y-62357000D01*
X124832745Y-63185139D01*
X125078864Y-63111005D01*
X125271965Y-62573777D01*
X125244778Y-62003546D01*
X125078864Y-61602995D01*
X124832745Y-61528861D01*
X124004605Y-62357000D01*
X123645395Y-62357000D01*
X122817255Y-61528861D01*
X122571136Y-61602995D01*
X122378035Y-62140223D01*
X121093543Y-62140223D01*
X120930071Y-61745569D01*
X120626431Y-61441929D01*
X120402697Y-61349255D01*
X122996861Y-61349255D01*
X123825000Y-62177395D01*
X124653139Y-61349255D01*
X124579005Y-61103136D01*
X124041777Y-60910035D01*
X123471546Y-60937222D01*
X123070995Y-61103136D01*
X122996861Y-61349255D01*
X120402697Y-61349255D01*
X120229706Y-61277600D01*
X119800294Y-61277600D01*
X119403569Y-61441929D01*
X119099929Y-61745569D01*
X118935600Y-62142294D01*
X118935600Y-62571706D01*
X119099929Y-62968431D01*
X119403569Y-63272071D01*
X119800294Y-63436400D01*
X120229706Y-63436400D01*
X120294401Y-63409602D01*
X120294400Y-66225127D01*
X119850000Y-66225127D01*
X119740984Y-66246812D01*
X119648564Y-66308564D01*
X119586812Y-66400984D01*
X119565127Y-66510000D01*
X119565127Y-68110000D01*
X119586812Y-68219016D01*
X119648564Y-68311436D01*
X119740984Y-68373188D01*
X119850000Y-68394873D01*
X120294400Y-68394873D01*
X120294401Y-72687105D01*
X119194873Y-73786633D01*
X119194873Y-73622000D01*
X119173188Y-73512984D01*
X119111436Y-73420564D01*
X119019016Y-73358812D01*
X118910000Y-73337127D01*
X117310000Y-73337127D01*
X117200984Y-73358812D01*
X117108564Y-73420564D01*
X117046812Y-73512984D01*
X117025127Y-73622000D01*
X111246420Y-73622000D01*
X111441273Y-73427147D01*
X111653692Y-73469400D01*
X111866308Y-73469400D01*
X112181161Y-73406772D01*
X112538204Y-73168204D01*
X112776772Y-72811161D01*
X112860546Y-72390000D01*
X112776772Y-71968839D01*
X112538204Y-71611796D01*
X112181161Y-71373228D01*
X111866308Y-71310600D01*
X111653692Y-71310600D01*
X111338839Y-71373228D01*
X110981796Y-71611796D01*
X110743228Y-71968839D01*
X110659454Y-72390000D01*
X110722853Y-72708727D01*
X109950367Y-73481213D01*
X109907952Y-73509554D01*
X109795674Y-73677590D01*
X109766199Y-73825770D01*
X109766199Y-73825773D01*
X109756248Y-73875801D01*
X109766199Y-73925829D01*
X109766199Y-78188886D01*
X109747643Y-78181200D01*
X109500077Y-78181200D01*
X109271355Y-78275939D01*
X109096299Y-78450995D01*
X109001560Y-78679717D01*
X109001560Y-78927283D01*
X109090461Y-79141910D01*
X109090460Y-81309254D01*
X109070899Y-81328815D01*
X108976160Y-81557537D01*
X108976160Y-81805103D01*
X109070899Y-82033825D01*
X109090461Y-82053387D01*
X109090461Y-82256804D01*
X109049061Y-82156855D01*
X108877100Y-81984894D01*
X108877100Y-69850000D01*
X110659454Y-69850000D01*
X110743228Y-70271161D01*
X110981796Y-70628204D01*
X111338839Y-70866772D01*
X111653692Y-70929400D01*
X111866308Y-70929400D01*
X112181161Y-70866772D01*
X112538204Y-70628204D01*
X112776772Y-70271161D01*
X112860546Y-69850000D01*
X112776772Y-69428839D01*
X112538204Y-69071796D01*
X112181161Y-68833228D01*
X111866308Y-68770600D01*
X111653692Y-68770600D01*
X111338839Y-68833228D01*
X110981796Y-69071796D01*
X110743228Y-69428839D01*
X110659454Y-69850000D01*
X108877100Y-69850000D01*
X108877100Y-57974198D01*
X109514641Y-57336657D01*
X109514641Y-57353378D01*
X109514640Y-57948874D01*
X109495079Y-57968435D01*
X109400340Y-58197157D01*
X109400340Y-58444723D01*
X109495079Y-58673445D01*
X109514641Y-58693007D01*
X109514640Y-60603174D01*
X109495079Y-60622735D01*
X109400340Y-60851457D01*
X109400340Y-61099023D01*
X109495079Y-61327745D01*
X109514641Y-61347307D01*
X109514640Y-63089834D01*
X109495079Y-63109395D01*
X109400340Y-63338117D01*
X109400340Y-63585683D01*
X109495079Y-63814405D01*
X109514641Y-63833967D01*
X109514640Y-65436794D01*
X109495079Y-65456355D01*
X109400340Y-65685077D01*
X109400340Y-65932643D01*
X109495079Y-66161365D01*
X109514641Y-66180927D01*
X109514640Y-67682154D01*
X109495079Y-67701715D01*
X109400340Y-67930437D01*
X109400340Y-68178003D01*
X109495079Y-68406725D01*
X109670135Y-68581781D01*
X109898857Y-68676520D01*
X110146423Y-68676520D01*
X110375145Y-68581781D01*
X110550201Y-68406725D01*
X110644940Y-68178003D01*
X110644940Y-67930437D01*
X110550201Y-67701715D01*
X110530640Y-67682154D01*
X110530640Y-67310000D01*
X110659454Y-67310000D01*
X110743228Y-67731161D01*
X110981796Y-68088204D01*
X111338839Y-68326772D01*
X111653692Y-68389400D01*
X111866308Y-68389400D01*
X112181161Y-68326772D01*
X112538204Y-68088204D01*
X112776772Y-67731161D01*
X112860546Y-67310000D01*
X112776772Y-66888839D01*
X112538204Y-66531796D01*
X112181161Y-66293228D01*
X111866308Y-66230600D01*
X111653692Y-66230600D01*
X111338839Y-66293228D01*
X110981796Y-66531796D01*
X110743228Y-66888839D01*
X110659454Y-67310000D01*
X110530640Y-67310000D01*
X110530640Y-66180926D01*
X110550201Y-66161365D01*
X110644940Y-65932643D01*
X110644940Y-65685077D01*
X110550201Y-65456355D01*
X110530640Y-65436794D01*
X110530640Y-64770000D01*
X110659454Y-64770000D01*
X110743228Y-65191161D01*
X110981796Y-65548204D01*
X111338839Y-65786772D01*
X111653692Y-65849400D01*
X111866308Y-65849400D01*
X112181161Y-65786772D01*
X112538204Y-65548204D01*
X112776772Y-65191161D01*
X112860546Y-64770000D01*
X112776772Y-64348839D01*
X112538204Y-63991796D01*
X112181161Y-63753228D01*
X111866308Y-63690600D01*
X111653692Y-63690600D01*
X111338839Y-63753228D01*
X110981796Y-63991796D01*
X110743228Y-64348839D01*
X110659454Y-64770000D01*
X110530640Y-64770000D01*
X110530640Y-63833966D01*
X110550201Y-63814405D01*
X110644940Y-63585683D01*
X110644940Y-63338117D01*
X110550201Y-63109395D01*
X110530640Y-63089834D01*
X110530640Y-62230000D01*
X110659454Y-62230000D01*
X110743228Y-62651161D01*
X110981796Y-63008204D01*
X111338839Y-63246772D01*
X111653692Y-63309400D01*
X111866308Y-63309400D01*
X112181161Y-63246772D01*
X112538204Y-63008204D01*
X112776772Y-62651161D01*
X112860546Y-62230000D01*
X112776772Y-61808839D01*
X112538204Y-61451796D01*
X112181161Y-61213228D01*
X111866308Y-61150600D01*
X111653692Y-61150600D01*
X111338839Y-61213228D01*
X110981796Y-61451796D01*
X110743228Y-61808839D01*
X110659454Y-62230000D01*
X110530640Y-62230000D01*
X110530640Y-61347306D01*
X110550201Y-61327745D01*
X110644940Y-61099023D01*
X110644940Y-60851457D01*
X110550201Y-60622735D01*
X110530640Y-60603174D01*
X110530640Y-59690000D01*
X110659454Y-59690000D01*
X110743228Y-60111161D01*
X110981796Y-60468204D01*
X111338839Y-60706772D01*
X111653692Y-60769400D01*
X111866308Y-60769400D01*
X112181161Y-60706772D01*
X112538204Y-60468204D01*
X112776772Y-60111161D01*
X112860546Y-59690000D01*
X112776772Y-59268839D01*
X112538204Y-58911796D01*
X112181161Y-58673228D01*
X111866308Y-58610600D01*
X111653692Y-58610600D01*
X111338839Y-58673228D01*
X110981796Y-58911796D01*
X110743228Y-59268839D01*
X110659454Y-59690000D01*
X110530640Y-59690000D01*
X110530640Y-58693006D01*
X110550201Y-58673445D01*
X110644940Y-58444723D01*
X110644940Y-58197157D01*
X110550201Y-57968435D01*
X110530640Y-57948874D01*
X110530640Y-57353378D01*
X110530640Y-57150000D01*
X110659454Y-57150000D01*
X110743228Y-57571161D01*
X110981796Y-57928204D01*
X111338839Y-58166772D01*
X111653692Y-58229400D01*
X111866308Y-58229400D01*
X112181161Y-58166772D01*
X112538204Y-57928204D01*
X112776772Y-57571161D01*
X112860546Y-57150000D01*
X112776772Y-56728839D01*
X112538204Y-56371796D01*
X112181161Y-56133228D01*
X111866308Y-56070600D01*
X111653692Y-56070600D01*
X111338839Y-56133228D01*
X110981796Y-56371796D01*
X110743228Y-56728839D01*
X110659454Y-57150000D01*
X110530640Y-57150000D01*
X110530639Y-56465427D01*
X110550201Y-56445865D01*
X110644940Y-56217143D01*
X110644940Y-55969577D01*
X110550201Y-55740855D01*
X110530639Y-55721293D01*
X110530639Y-54610000D01*
X110659454Y-54610000D01*
X110743228Y-55031161D01*
X110981796Y-55388204D01*
X111338839Y-55626772D01*
X111653692Y-55689400D01*
X111866308Y-55689400D01*
X112181161Y-55626772D01*
X112538204Y-55388204D01*
X112776772Y-55031161D01*
X112860546Y-54610000D01*
X112776772Y-54188839D01*
X112538204Y-53831796D01*
X112181161Y-53593228D01*
X111866308Y-53530600D01*
X111653692Y-53530600D01*
X111338839Y-53593228D01*
X110981796Y-53831796D01*
X110743228Y-54188839D01*
X110659454Y-54610000D01*
X110530639Y-54610000D01*
X110530638Y-54230228D01*
X110552741Y-54208125D01*
X110647480Y-53979403D01*
X110647480Y-53731837D01*
X110552741Y-53503115D01*
X110533180Y-53483554D01*
X110533180Y-52170286D01*
X110565441Y-52138025D01*
X110593617Y-52070000D01*
X110659454Y-52070000D01*
X110743228Y-52491161D01*
X110981796Y-52848204D01*
X111338839Y-53086772D01*
X111653692Y-53149400D01*
X111866308Y-53149400D01*
X112181161Y-53086772D01*
X112538204Y-52848204D01*
X112776772Y-52491161D01*
X112860546Y-52070000D01*
X112776772Y-51648839D01*
X112538204Y-51291796D01*
X112371656Y-51180512D01*
X118354600Y-51180512D01*
X118354600Y-51689488D01*
X118549377Y-52159722D01*
X118909278Y-52519623D01*
X119379512Y-52714400D01*
X119888488Y-52714400D01*
X120358722Y-52519623D01*
X120718623Y-52159722D01*
X120913400Y-51689488D01*
X120913400Y-51180512D01*
X120718623Y-50710278D01*
X120358722Y-50350377D01*
X119888488Y-50155600D01*
X119379512Y-50155600D01*
X118909278Y-50350377D01*
X118549377Y-50710278D01*
X118354600Y-51180512D01*
X112371656Y-51180512D01*
X112181161Y-51053228D01*
X111866308Y-50990600D01*
X111653692Y-50990600D01*
X111338839Y-51053228D01*
X110981796Y-51291796D01*
X110743228Y-51648839D01*
X110659454Y-52070000D01*
X110593617Y-52070000D01*
X110660180Y-51909303D01*
X110660180Y-51661737D01*
X110565441Y-51433015D01*
X110390385Y-51257959D01*
X110161663Y-51163220D01*
X110131887Y-51163220D01*
X110370647Y-50924460D01*
X117096688Y-50924460D01*
X117131708Y-50931426D01*
X117166728Y-50924460D01*
X117270456Y-50903827D01*
X117388081Y-50825233D01*
X117407919Y-50795543D01*
X122017150Y-46186313D01*
X122046837Y-46166477D01*
X122125431Y-46048852D01*
X122146064Y-45945124D01*
X122153030Y-45910104D01*
X122146064Y-45875084D01*
X122146064Y-45199270D01*
X122988793Y-44356541D01*
X122854600Y-44680512D01*
X122854600Y-45189488D01*
X123049377Y-45659722D01*
X123409278Y-46019623D01*
X123778401Y-46172518D01*
X123778400Y-50197482D01*
X123409278Y-50350377D01*
X123049377Y-50710278D01*
X122854600Y-51180512D01*
X122854600Y-51689488D01*
X123049377Y-52159722D01*
X123409278Y-52519623D01*
X123469401Y-52544527D01*
X123469400Y-53707187D01*
X123403839Y-53720228D01*
X123046796Y-53958796D01*
X122808228Y-54315839D01*
X122795187Y-54381400D01*
X121044813Y-54381400D01*
X121031772Y-54315839D01*
X120793204Y-53958796D01*
X120436161Y-53720228D01*
X120121308Y-53657600D01*
X119908692Y-53657600D01*
X119593839Y-53720228D01*
X119236796Y-53958796D01*
X118998228Y-54315839D01*
X118914454Y-54737000D01*
X118998228Y-55158161D01*
X119236796Y-55515204D01*
X119593839Y-55753772D01*
X119908692Y-55816400D01*
X120121308Y-55816400D01*
X120436161Y-55753772D01*
X120793204Y-55515204D01*
X121031772Y-55158161D01*
X121044813Y-55092600D01*
X122795187Y-55092600D01*
X122808228Y-55158161D01*
X123046796Y-55515204D01*
X123403839Y-55753772D01*
X123718692Y-55816400D01*
X123931308Y-55816400D01*
X124246161Y-55753772D01*
X124603204Y-55515204D01*
X124841772Y-55158161D01*
X124925546Y-54737000D01*
X124841772Y-54315839D01*
X124603204Y-53958796D01*
X124246161Y-53720228D01*
X124180600Y-53707187D01*
X124180600Y-52714400D01*
X124388488Y-52714400D01*
X124858722Y-52519623D01*
X125218623Y-52159722D01*
X125413400Y-51689488D01*
X125413400Y-51180512D01*
X125218623Y-50710278D01*
X124858722Y-50350377D01*
X124489600Y-50197482D01*
X124489600Y-46172518D01*
X124858722Y-46019623D01*
X125218623Y-45659722D01*
X125413400Y-45189488D01*
X125413400Y-44680512D01*
X125218623Y-44210278D01*
X124858722Y-43850377D01*
X124388488Y-43655600D01*
X123879512Y-43655600D01*
X123555541Y-43789793D01*
X127772451Y-39572883D01*
X127844570Y-39621071D01*
X128174005Y-39686600D01*
X128396475Y-39686600D01*
X128725910Y-39621071D01*
X129099492Y-39371452D01*
X129349111Y-38997870D01*
X129436766Y-38557200D01*
X129349111Y-38116530D01*
X129099492Y-37742948D01*
X128725910Y-37493329D01*
X128396475Y-37427800D01*
X128174005Y-37427800D01*
X127844570Y-37493329D01*
X127470988Y-37742948D01*
X127221369Y-38116530D01*
X127187960Y-38284488D01*
X127187960Y-37617374D01*
X127772451Y-37032883D01*
X127844570Y-37081071D01*
X128174005Y-37146600D01*
X128396475Y-37146600D01*
X128725910Y-37081071D01*
X129099492Y-36831452D01*
X129349111Y-36457870D01*
X129436766Y-36017200D01*
X129349111Y-35576530D01*
X129099492Y-35202948D01*
X128725910Y-34953329D01*
X128396475Y-34887800D01*
X128174005Y-34887800D01*
X127844570Y-34953329D01*
X127470988Y-35202948D01*
X127221369Y-35576530D01*
X127133714Y-36017200D01*
X127221369Y-36457870D01*
X127269557Y-36529989D01*
X126605675Y-37193871D01*
X126575987Y-37213708D01*
X126556151Y-37243395D01*
X126556150Y-37243396D01*
X126497393Y-37331333D01*
X126469794Y-37470080D01*
X126476760Y-37505100D01*
X126476760Y-37687668D01*
X126185910Y-37493329D01*
X125856475Y-37427800D01*
X125634005Y-37427800D01*
X125304570Y-37493329D01*
X124930988Y-37742948D01*
X124681369Y-38116530D01*
X124658120Y-38233410D01*
X124658120Y-37607214D01*
X125232451Y-37032883D01*
X125304570Y-37081071D01*
X125634005Y-37146600D01*
X125856475Y-37146600D01*
X126185910Y-37081071D01*
X126559492Y-36831452D01*
X126809111Y-36457870D01*
X126896766Y-36017200D01*
X126809111Y-35576530D01*
X126559492Y-35202948D01*
X126185910Y-34953329D01*
X125856475Y-34887800D01*
X125634005Y-34887800D01*
X125304570Y-34953329D01*
X124930988Y-35202948D01*
X124681369Y-35576530D01*
X124593714Y-36017200D01*
X124681369Y-36457870D01*
X124729557Y-36529989D01*
X124075835Y-37183711D01*
X124046147Y-37203548D01*
X124026311Y-37233235D01*
X124026310Y-37233236D01*
X123967553Y-37321173D01*
X123939954Y-37459920D01*
X123946920Y-37494940D01*
X123946920Y-37694457D01*
X123645910Y-37493329D01*
X123316475Y-37427800D01*
X123094005Y-37427800D01*
X122764570Y-37493329D01*
X122390988Y-37742948D01*
X122141369Y-38116530D01*
X122113040Y-38258949D01*
X122113040Y-37185574D01*
X122436651Y-36861963D01*
X122764570Y-37081071D01*
X123094005Y-37146600D01*
X123316475Y-37146600D01*
X123645910Y-37081071D01*
X124019492Y-36831452D01*
X124269111Y-36457870D01*
X124356766Y-36017200D01*
X124269111Y-35576530D01*
X124019492Y-35202948D01*
X123645910Y-34953329D01*
X123316475Y-34887800D01*
X123094005Y-34887800D01*
X122764570Y-34953329D01*
X122390988Y-35202948D01*
X122141369Y-35576530D01*
X122053714Y-36017200D01*
X122090532Y-36202294D01*
X121530755Y-36762071D01*
X121521895Y-36767991D01*
X121729111Y-36457870D01*
X121816766Y-36017200D01*
X121729111Y-35576530D01*
X121479492Y-35202948D01*
X121105910Y-34953329D01*
X120776475Y-34887800D01*
X120554005Y-34887800D01*
X120224570Y-34953329D01*
X119850988Y-35202948D01*
X119601369Y-35576530D01*
X119524835Y-35961290D01*
X119229052Y-36257074D01*
X119276766Y-36017200D01*
X119189111Y-35576530D01*
X118939492Y-35202948D01*
X118565910Y-34953329D01*
X118236475Y-34887800D01*
X118014005Y-34887800D01*
X117684570Y-34953329D01*
X117310988Y-35202948D01*
X117061369Y-35576530D01*
X116973714Y-36017200D01*
X116977240Y-36034926D01*
X116672654Y-36339512D01*
X116736766Y-36017200D01*
X116649111Y-35576530D01*
X116399492Y-35202948D01*
X116025910Y-34953329D01*
X115696475Y-34887800D01*
X115474005Y-34887800D01*
X115144570Y-34953329D01*
X114770988Y-35202948D01*
X114521369Y-35576530D01*
X114433714Y-36017200D01*
X114513516Y-36418390D01*
X113903135Y-37028771D01*
X113873447Y-37048608D01*
X113853611Y-37078295D01*
X113853610Y-37078296D01*
X113794853Y-37166233D01*
X113767254Y-37304980D01*
X113774220Y-37340000D01*
X113774220Y-37685971D01*
X113485910Y-37493329D01*
X113156475Y-37427800D01*
X112934005Y-37427800D01*
X112604570Y-37493329D01*
X112230988Y-37742948D01*
X111981369Y-38116530D01*
X111947960Y-38284488D01*
X111947960Y-37360834D01*
X112378667Y-36930127D01*
X112604570Y-37081071D01*
X112934005Y-37146600D01*
X113156475Y-37146600D01*
X113485910Y-37081071D01*
X113859492Y-36831452D01*
X114109111Y-36457870D01*
X114196766Y-36017200D01*
X114109111Y-35576530D01*
X113859492Y-35202948D01*
X113485910Y-34953329D01*
X113156475Y-34887800D01*
X112934005Y-34887800D01*
X112604570Y-34953329D01*
X112230988Y-35202948D01*
X111981369Y-35576530D01*
X111893714Y-36017200D01*
X111958766Y-36344240D01*
X111365675Y-36937331D01*
X111335987Y-36957168D01*
X111316151Y-36986855D01*
X111316150Y-36986856D01*
X111257393Y-37074793D01*
X111229794Y-37213540D01*
X111236760Y-37248560D01*
X111236760Y-37687669D01*
X110945910Y-37493329D01*
X110616475Y-37427800D01*
X110394005Y-37427800D01*
X110064570Y-37493329D01*
X109690988Y-37742948D01*
X109441369Y-38116530D01*
X109400340Y-38322796D01*
X109400340Y-37261774D01*
X109774717Y-36887397D01*
X110064570Y-37081071D01*
X110394005Y-37146600D01*
X110616475Y-37146600D01*
X110945910Y-37081071D01*
X111319492Y-36831452D01*
X111569111Y-36457870D01*
X111656766Y-36017200D01*
X111569111Y-35576530D01*
X111319492Y-35202948D01*
X110945910Y-34953329D01*
X110616475Y-34887800D01*
X110394005Y-34887800D01*
X110064570Y-34953329D01*
X109690988Y-35202948D01*
X109441369Y-35576530D01*
X109353714Y-36017200D01*
X109401067Y-36255259D01*
X108818055Y-36838271D01*
X108788367Y-36858108D01*
X108768531Y-36887795D01*
X108768530Y-36887796D01*
X108709773Y-36975733D01*
X108682174Y-37114480D01*
X108689140Y-37149500D01*
X108689140Y-37682577D01*
X108405910Y-37493329D01*
X108076475Y-37427800D01*
X107854005Y-37427800D01*
X107524570Y-37493329D01*
X107150988Y-37742948D01*
X106901369Y-38116530D01*
X106873040Y-38258949D01*
X106873040Y-37188114D01*
X107198174Y-36862980D01*
X107524570Y-37081071D01*
X107854005Y-37146600D01*
X108076475Y-37146600D01*
X108405910Y-37081071D01*
X108779492Y-36831452D01*
X109029111Y-36457870D01*
X109116766Y-36017200D01*
X109029111Y-35576530D01*
X108779492Y-35202948D01*
X108405910Y-34953329D01*
X108076475Y-34887800D01*
X107854005Y-34887800D01*
X107524570Y-34953329D01*
X107150988Y-35202948D01*
X106901369Y-35576530D01*
X106813714Y-36017200D01*
X106850953Y-36204413D01*
X106290755Y-36764611D01*
X106278829Y-36772580D01*
X106489111Y-36457870D01*
X106576766Y-36017200D01*
X106489111Y-35576530D01*
X106239492Y-35202948D01*
X105865910Y-34953329D01*
X105536475Y-34887800D01*
X105314005Y-34887800D01*
X104984570Y-34953329D01*
X104610988Y-35202948D01*
X104361369Y-35576530D01*
X104273714Y-36017200D01*
X104353516Y-36418390D01*
X104211999Y-36559907D01*
X104199048Y-36551253D01*
X103975085Y-36327290D01*
X104036766Y-36017200D01*
X103949111Y-35576530D01*
X103699492Y-35202948D01*
X103325910Y-34953329D01*
X102996475Y-34887800D01*
X102774005Y-34887800D01*
X102444570Y-34953329D01*
X102070988Y-35202948D01*
X101821369Y-35576530D01*
X101733714Y-36017200D01*
X101821369Y-36457870D01*
X102070988Y-36831452D01*
X102444570Y-37081071D01*
X102774005Y-37146600D01*
X102996475Y-37146600D01*
X103325910Y-37081071D01*
X103563994Y-36921989D01*
X103616760Y-36974755D01*
X103616760Y-37687669D01*
X103325910Y-37493329D01*
X102996475Y-37427800D01*
X102774005Y-37427800D01*
X102444570Y-37493329D01*
X102070988Y-37742948D01*
X101821369Y-38116530D01*
X101780340Y-38322796D01*
X101780340Y-37131720D01*
X101787306Y-37096700D01*
X101759707Y-36957952D01*
X101700950Y-36870016D01*
X101700949Y-36870015D01*
X101681112Y-36840327D01*
X101651425Y-36820491D01*
X101360923Y-36529989D01*
X101409111Y-36457870D01*
X101496766Y-36017200D01*
X101409111Y-35576530D01*
X101159492Y-35202948D01*
X100785910Y-34953329D01*
X100456475Y-34887800D01*
X100234005Y-34887800D01*
X99904570Y-34953329D01*
X99530988Y-35202948D01*
X99281369Y-35576530D01*
X99193714Y-36017200D01*
X99281369Y-36457870D01*
X99530988Y-36831452D01*
X99904570Y-37081071D01*
X100234005Y-37146600D01*
X100456475Y-37146600D01*
X100785910Y-37081071D01*
X100858029Y-37032883D01*
X101069140Y-37243994D01*
X101069140Y-37682577D01*
X100785910Y-37493329D01*
X100456475Y-37427800D01*
X100234005Y-37427800D01*
X99904570Y-37493329D01*
X99530988Y-37742948D01*
X99281369Y-38116530D01*
X99258120Y-38233410D01*
X99258120Y-36870100D01*
X99265086Y-36835080D01*
X99237487Y-36696332D01*
X99178730Y-36608395D01*
X99178727Y-36608392D01*
X99158892Y-36578707D01*
X99129208Y-36558873D01*
X98895506Y-36325172D01*
X98956766Y-36017200D01*
X98869111Y-35576530D01*
X98619492Y-35202948D01*
X98245910Y-34953329D01*
X97916475Y-34887800D01*
X97694005Y-34887800D01*
X97364570Y-34953329D01*
X96990988Y-35202948D01*
X96741369Y-35576530D01*
X96653714Y-36017200D01*
X96741369Y-36457870D01*
X96990988Y-36831452D01*
X97364570Y-37081071D01*
X97694005Y-37146600D01*
X97916475Y-37146600D01*
X98245910Y-37081071D01*
X98485517Y-36920971D01*
X98546920Y-36982375D01*
X98546920Y-37694457D01*
X98245910Y-37493329D01*
X97916475Y-37427800D01*
X97694005Y-37427800D01*
X97364570Y-37493329D01*
X96990988Y-37742948D01*
X96748600Y-38105708D01*
X96748600Y-36725318D01*
X96755566Y-36690299D01*
X96740598Y-36615052D01*
X96727967Y-36551552D01*
X96649372Y-36433927D01*
X96619685Y-36414091D01*
X96384584Y-36178990D01*
X96416766Y-36017200D01*
X96329111Y-35576530D01*
X96079492Y-35202948D01*
X95705910Y-34953329D01*
X95376475Y-34887800D01*
X95154005Y-34887800D01*
X94824570Y-34953329D01*
X94450988Y-35202948D01*
X94201369Y-35576530D01*
X94113714Y-36017200D01*
X94201369Y-36457870D01*
X94450988Y-36831452D01*
X94824570Y-37081071D01*
X95154005Y-37146600D01*
X95376475Y-37146600D01*
X95705910Y-37081071D01*
X96037400Y-36859577D01*
X96037400Y-37714823D01*
X95705910Y-37493329D01*
X95376475Y-37427800D01*
X95154005Y-37427800D01*
X94824570Y-37493329D01*
X94450988Y-37742948D01*
X94201369Y-38116530D01*
X94160340Y-38322796D01*
X94160340Y-37131720D01*
X94167306Y-37096700D01*
X94139707Y-36957952D01*
X94080950Y-36870016D01*
X94080949Y-36870015D01*
X94061112Y-36840327D01*
X94031425Y-36820491D01*
X93740923Y-36529989D01*
X93789111Y-36457870D01*
X93876766Y-36017200D01*
X93789111Y-35576530D01*
X93539492Y-35202948D01*
X93165910Y-34953329D01*
X92836475Y-34887800D01*
X92614005Y-34887800D01*
X92284570Y-34953329D01*
X91910988Y-35202948D01*
X91661369Y-35576530D01*
X91573714Y-36017200D01*
X91661369Y-36457870D01*
X91910988Y-36831452D01*
X92284570Y-37081071D01*
X92614005Y-37146600D01*
X92836475Y-37146600D01*
X93165910Y-37081071D01*
X93238029Y-37032883D01*
X93449140Y-37243994D01*
X93449140Y-37682577D01*
X93165910Y-37493329D01*
X92836475Y-37427800D01*
X92614005Y-37427800D01*
X92284570Y-37493329D01*
X91910988Y-37742948D01*
X91661369Y-38116530D01*
X91622880Y-38310027D01*
X91622880Y-36788820D01*
X91629846Y-36753800D01*
X91602247Y-36615052D01*
X91543490Y-36527115D01*
X91543487Y-36527112D01*
X91523652Y-36497427D01*
X91493968Y-36477593D01*
X91286463Y-36270089D01*
X91336766Y-36017200D01*
X91249111Y-35576530D01*
X90999492Y-35202948D01*
X90625910Y-34953329D01*
X90296475Y-34887800D01*
X90074005Y-34887800D01*
X89744570Y-34953329D01*
X89370988Y-35202948D01*
X89121369Y-35576530D01*
X89033714Y-36017200D01*
X89121369Y-36457870D01*
X89370988Y-36831452D01*
X89744570Y-37081071D01*
X90074005Y-37146600D01*
X90296475Y-37146600D01*
X90625910Y-37081071D01*
X90905105Y-36894519D01*
X90911680Y-36901095D01*
X90911680Y-37684274D01*
X90625910Y-37493329D01*
X90296475Y-37427800D01*
X90074005Y-37427800D01*
X89744570Y-37493329D01*
X89370988Y-37742948D01*
X89121369Y-38116530D01*
X89085420Y-38297257D01*
X89085420Y-37136800D01*
X89092386Y-37101780D01*
X89064787Y-36963032D01*
X89006030Y-36875095D01*
X89006027Y-36875092D01*
X88986192Y-36845407D01*
X88956508Y-36825573D01*
X88660923Y-36529988D01*
X88709111Y-36457870D01*
X88796766Y-36017200D01*
X88709111Y-35576530D01*
X88459492Y-35202948D01*
X88085910Y-34953329D01*
X87756475Y-34887800D01*
X87534005Y-34887800D01*
X87204570Y-34953329D01*
X86830988Y-35202948D01*
X86581369Y-35576530D01*
X86493714Y-36017200D01*
X86581369Y-36457870D01*
X86830988Y-36831452D01*
X87204570Y-37081071D01*
X87534005Y-37146600D01*
X87756475Y-37146600D01*
X88085910Y-37081071D01*
X88158028Y-37032883D01*
X88374220Y-37249075D01*
X88374220Y-37685971D01*
X88085910Y-37493329D01*
X87756475Y-37427800D01*
X87534005Y-37427800D01*
X87204570Y-37493329D01*
X86830988Y-37742948D01*
X86581369Y-38116530D01*
X86547960Y-38284488D01*
X86547960Y-37139340D01*
X86554926Y-37104320D01*
X86527327Y-36965572D01*
X86468570Y-36877635D01*
X86468567Y-36877632D01*
X86448732Y-36847947D01*
X86419048Y-36828113D01*
X86120923Y-36529988D01*
X86169111Y-36457870D01*
X86256766Y-36017200D01*
X86169111Y-35576530D01*
X85919492Y-35202948D01*
X85545910Y-34953329D01*
X85216475Y-34887800D01*
X84994005Y-34887800D01*
X84664570Y-34953329D01*
X84290988Y-35202948D01*
X84041369Y-35576530D01*
X83953714Y-36017200D01*
X84041369Y-36457870D01*
X84290988Y-36831452D01*
X84664570Y-37081071D01*
X84994005Y-37146600D01*
X85216475Y-37146600D01*
X85545910Y-37081071D01*
X85618028Y-37032883D01*
X85836760Y-37251615D01*
X85836760Y-37687668D01*
X85545910Y-37493329D01*
X85216475Y-37427800D01*
X84994005Y-37427800D01*
X84664570Y-37493329D01*
X84290988Y-37742948D01*
X84041369Y-38116530D01*
X84002880Y-38310027D01*
X84002880Y-37134260D01*
X84009846Y-37099240D01*
X83982247Y-36960492D01*
X83923490Y-36872555D01*
X83923487Y-36872552D01*
X83903652Y-36842867D01*
X83873968Y-36823033D01*
X83580923Y-36529988D01*
X83629111Y-36457870D01*
X83716766Y-36017200D01*
X83629111Y-35576530D01*
X83379492Y-35202948D01*
X83005910Y-34953329D01*
X82676475Y-34887800D01*
X82454005Y-34887800D01*
X82124570Y-34953329D01*
X81750988Y-35202948D01*
X81501369Y-35576530D01*
X81438976Y-35890198D01*
X81346060Y-35890198D01*
X81466726Y-35660308D01*
X81220423Y-35135842D01*
X80792164Y-34745555D01*
X80382130Y-34575724D01*
X80152240Y-34697045D01*
X80152240Y-35890200D01*
X80172240Y-35890200D01*
X80172240Y-36144200D01*
X80152240Y-36144200D01*
X80152240Y-36164200D01*
X79898240Y-36164200D01*
X79898240Y-36144200D01*
X78704421Y-36144200D01*
X78583754Y-36374092D01*
X77949400Y-36374092D01*
X77949400Y-35660308D01*
X78583754Y-35660308D01*
X78704421Y-35890200D01*
X79898240Y-35890200D01*
X79898240Y-34697045D01*
X79668350Y-34575724D01*
X79258316Y-34745555D01*
X78830057Y-35135842D01*
X78583754Y-35660308D01*
X77949400Y-35660308D01*
X77949400Y-34311349D01*
X78023984Y-33475644D01*
X78239726Y-32687023D01*
X78591712Y-31949073D01*
X79068811Y-31285118D01*
X79655946Y-30716145D01*
X80334560Y-30260134D01*
X81083208Y-29931501D01*
X81881892Y-29739755D01*
X82567585Y-29689400D01*
X125708651Y-29689400D01*
X126544356Y-29763984D01*
X126544356Y-29763984D01*
G37*
X126544356Y-29763984D02*
X127332977Y-29979726D01*
X128070927Y-30331712D01*
X128734882Y-30808811D01*
X129303855Y-31395946D01*
X129759866Y-32074560D01*
X130088499Y-32823208D01*
X130280245Y-33621892D01*
X130330600Y-34307585D01*
X130330601Y-97768640D01*
X130256015Y-98604358D01*
X130040273Y-99392979D01*
X129688288Y-100130927D01*
X129211191Y-100794879D01*
X128624056Y-101363853D01*
X127945440Y-101819866D01*
X127196794Y-102148499D01*
X126398108Y-102340245D01*
X125712414Y-102390600D01*
X82571349Y-102390600D01*
X81735642Y-102316015D01*
X80947021Y-102100273D01*
X80209073Y-101748288D01*
X79545121Y-101271191D01*
X78976147Y-100684056D01*
X78520134Y-100005440D01*
X78191501Y-99256794D01*
X77999755Y-98458108D01*
X77949400Y-97772414D01*
X77949400Y-96203400D01*
X79375507Y-96203400D01*
X79375507Y-97903400D01*
X79397192Y-98012416D01*
X79458944Y-98104836D01*
X79551364Y-98166588D01*
X79660380Y-98188273D01*
X81360380Y-98188273D01*
X81469396Y-98166588D01*
X81561816Y-98104836D01*
X81623568Y-98012416D01*
X81645253Y-97903400D01*
X81645253Y-96203400D01*
X81623568Y-96094384D01*
X81561816Y-96001964D01*
X81469396Y-95940212D01*
X81360380Y-95918527D01*
X79660380Y-95918527D01*
X79551364Y-95940212D01*
X79458944Y-96001964D01*
X79397192Y-96094384D01*
X79375507Y-96203400D01*
X77949400Y-96203400D01*
X77949400Y-86003110D01*
X81608904Y-86003110D01*
X81730225Y-86233000D01*
X82923380Y-86233000D01*
X82923380Y-86213000D01*
X83177380Y-86213000D01*
X83177380Y-86233000D01*
X84370535Y-86233000D01*
X84491856Y-86003110D01*
X84322025Y-85593076D01*
X83931738Y-85164817D01*
X83484693Y-84954873D01*
X83900380Y-84954873D01*
X84009396Y-84933188D01*
X84101816Y-84871436D01*
X84163568Y-84779016D01*
X84185253Y-84670000D01*
X84185253Y-84328000D01*
X86036252Y-84328000D01*
X86216796Y-84598204D01*
X86573839Y-84836772D01*
X86888692Y-84899400D01*
X87101308Y-84899400D01*
X87416161Y-84836772D01*
X87773204Y-84598204D01*
X87953748Y-84328000D01*
X88689580Y-84328000D01*
X89133443Y-84771863D01*
X89090600Y-84875294D01*
X89090600Y-85304706D01*
X89254929Y-85701431D01*
X89558569Y-86005071D01*
X89955294Y-86169400D01*
X90384706Y-86169400D01*
X90781431Y-86005071D01*
X91085071Y-85701431D01*
X91249400Y-85304706D01*
X91249400Y-84875294D01*
X91085071Y-84478569D01*
X90781431Y-84174929D01*
X90384706Y-84010600D01*
X89955294Y-84010600D01*
X89851863Y-84053443D01*
X89294588Y-83496168D01*
X89266247Y-83453753D01*
X89098212Y-83341475D01*
X88950032Y-83312000D01*
X88950028Y-83312000D01*
X88900000Y-83302049D01*
X88849972Y-83312000D01*
X87953748Y-83312000D01*
X87773204Y-83041796D01*
X87416161Y-82803228D01*
X87101308Y-82740600D01*
X86888692Y-82740600D01*
X86573839Y-82803228D01*
X86216796Y-83041796D01*
X86036252Y-83312000D01*
X84185253Y-83312000D01*
X84185253Y-82970000D01*
X84163568Y-82860984D01*
X84101816Y-82768564D01*
X84009396Y-82706812D01*
X83900380Y-82685127D01*
X82200380Y-82685127D01*
X82091364Y-82706812D01*
X81998944Y-82768564D01*
X81937192Y-82860984D01*
X81915507Y-82970000D01*
X81915507Y-84670000D01*
X81937192Y-84779016D01*
X81998944Y-84871436D01*
X82091364Y-84933188D01*
X82200380Y-84954873D01*
X82616067Y-84954873D01*
X82169022Y-85164817D01*
X81778735Y-85593076D01*
X81608904Y-86003110D01*
X77949400Y-86003110D01*
X77949400Y-74930000D01*
X95419454Y-74930000D01*
X95503228Y-75351161D01*
X95741796Y-75708204D01*
X96098839Y-75946772D01*
X96413692Y-76009400D01*
X96626308Y-76009400D01*
X96941161Y-75946772D01*
X97298204Y-75708204D01*
X97536772Y-75351161D01*
X97620546Y-74930000D01*
X97536772Y-74508839D01*
X97298204Y-74151796D01*
X96941161Y-73913228D01*
X96626308Y-73850600D01*
X96413692Y-73850600D01*
X96098839Y-73913228D01*
X95741796Y-74151796D01*
X95503228Y-74508839D01*
X95419454Y-74930000D01*
X77949400Y-74930000D01*
X77949400Y-72390000D01*
X95419454Y-72390000D01*
X95503228Y-72811161D01*
X95741796Y-73168204D01*
X96098839Y-73406772D01*
X96413692Y-73469400D01*
X96626308Y-73469400D01*
X96941161Y-73406772D01*
X97298204Y-73168204D01*
X97536772Y-72811161D01*
X97620546Y-72390000D01*
X97536772Y-71968839D01*
X97298204Y-71611796D01*
X96941161Y-71373228D01*
X96626308Y-71310600D01*
X96413692Y-71310600D01*
X96098839Y-71373228D01*
X95741796Y-71611796D01*
X95503228Y-71968839D01*
X95419454Y-72390000D01*
X77949400Y-72390000D01*
X77949400Y-66675000D01*
X81449454Y-66675000D01*
X81533228Y-67096161D01*
X81771796Y-67453204D01*
X82042001Y-67633748D01*
X82042001Y-68529967D01*
X82032049Y-68580000D01*
X82071475Y-68778211D01*
X82155412Y-68903832D01*
X82155415Y-68903835D01*
X82183754Y-68946247D01*
X82226166Y-68974586D01*
X82783443Y-69531863D01*
X82740600Y-69635294D01*
X82740600Y-70064706D01*
X82904929Y-70461431D01*
X83208569Y-70765071D01*
X83605294Y-70929400D01*
X84034706Y-70929400D01*
X84207696Y-70857745D01*
X87991861Y-70857745D01*
X88065995Y-71103864D01*
X88603223Y-71296965D01*
X89173454Y-71269778D01*
X89574005Y-71103864D01*
X89648139Y-70857745D01*
X88820000Y-70029605D01*
X87991861Y-70857745D01*
X84207696Y-70857745D01*
X84431431Y-70765071D01*
X84735071Y-70461431D01*
X84899400Y-70064706D01*
X84899400Y-69635294D01*
X84898543Y-69633223D01*
X87373035Y-69633223D01*
X87400222Y-70203454D01*
X87566136Y-70604005D01*
X87812255Y-70678139D01*
X88640395Y-69850000D01*
X88999605Y-69850000D01*
X89827745Y-70678139D01*
X90073864Y-70604005D01*
X90219424Y-70199039D01*
X95128096Y-70199039D01*
X95288959Y-70587423D01*
X95664866Y-71002389D01*
X96170959Y-71241914D01*
X96393000Y-71120629D01*
X96393000Y-69977000D01*
X96647000Y-69977000D01*
X96647000Y-71120629D01*
X96869041Y-71241914D01*
X97375134Y-71002389D01*
X97751041Y-70587423D01*
X97911904Y-70199039D01*
X97789915Y-69977000D01*
X96647000Y-69977000D01*
X96393000Y-69977000D01*
X95250085Y-69977000D01*
X95128096Y-70199039D01*
X90219424Y-70199039D01*
X90266965Y-70066777D01*
X90239989Y-69500961D01*
X95128096Y-69500961D01*
X95250085Y-69723000D01*
X96393000Y-69723000D01*
X96393000Y-68579371D01*
X96647000Y-68579371D01*
X96647000Y-69723000D01*
X97789915Y-69723000D01*
X97911904Y-69500961D01*
X97751041Y-69112577D01*
X97375134Y-68697611D01*
X96869041Y-68458086D01*
X96647000Y-68579371D01*
X96393000Y-68579371D01*
X96170959Y-68458086D01*
X95664866Y-68697611D01*
X95288959Y-69112577D01*
X95128096Y-69500961D01*
X90239989Y-69500961D01*
X90239778Y-69496546D01*
X90073864Y-69095995D01*
X89827745Y-69021861D01*
X88999605Y-69850000D01*
X88640395Y-69850000D01*
X87812255Y-69021861D01*
X87566136Y-69095995D01*
X87373035Y-69633223D01*
X84898543Y-69633223D01*
X84735071Y-69238569D01*
X84431431Y-68934929D01*
X84207697Y-68842255D01*
X87991861Y-68842255D01*
X88820000Y-69670395D01*
X89648139Y-68842255D01*
X89574005Y-68596136D01*
X89036777Y-68403035D01*
X88466546Y-68430222D01*
X88065995Y-68596136D01*
X87991861Y-68842255D01*
X84207697Y-68842255D01*
X84034706Y-68770600D01*
X83605294Y-68770600D01*
X83501863Y-68813443D01*
X83058000Y-68369580D01*
X83058000Y-67633748D01*
X83328204Y-67453204D01*
X83566772Y-67096161D01*
X83650546Y-66675000D01*
X83566772Y-66253839D01*
X83328204Y-65896796D01*
X83058000Y-65716252D01*
X83058000Y-62552914D01*
X83161431Y-62510071D01*
X83465071Y-62206431D01*
X83629400Y-61809706D01*
X83629400Y-61380294D01*
X83465071Y-60983569D01*
X83161431Y-60679929D01*
X82764706Y-60515600D01*
X82335294Y-60515600D01*
X81938569Y-60679929D01*
X81634929Y-60983569D01*
X81470600Y-61380294D01*
X81470600Y-61809706D01*
X81634929Y-62206431D01*
X81938569Y-62510071D01*
X82042000Y-62552914D01*
X82042001Y-65716251D01*
X81771796Y-65896796D01*
X81533228Y-66253839D01*
X81449454Y-66675000D01*
X77949400Y-66675000D01*
X77949400Y-46640750D01*
X81115000Y-46640750D01*
X81115000Y-47281309D01*
X81211673Y-47514698D01*
X81390301Y-47693327D01*
X81623690Y-47790000D01*
X82264250Y-47790000D01*
X82423000Y-47631250D01*
X82423000Y-46482000D01*
X82677000Y-46482000D01*
X82677000Y-47631250D01*
X82835750Y-47790000D01*
X83476310Y-47790000D01*
X83709699Y-47693327D01*
X83888327Y-47514698D01*
X83951268Y-47362745D01*
X89341861Y-47362745D01*
X89415995Y-47608864D01*
X89953223Y-47801965D01*
X90523454Y-47774778D01*
X90924005Y-47608864D01*
X90998139Y-47362745D01*
X90170000Y-46534605D01*
X89341861Y-47362745D01*
X83951268Y-47362745D01*
X83985000Y-47281309D01*
X83985000Y-46640750D01*
X83826250Y-46482000D01*
X82677000Y-46482000D01*
X82423000Y-46482000D01*
X81273750Y-46482000D01*
X81115000Y-46640750D01*
X77949400Y-46640750D01*
X77949400Y-45428691D01*
X81115000Y-45428691D01*
X81115000Y-46069250D01*
X81273750Y-46228000D01*
X82423000Y-46228000D01*
X82423000Y-45078750D01*
X82677000Y-45078750D01*
X82677000Y-46228000D01*
X83826250Y-46228000D01*
X83916027Y-46138223D01*
X88723035Y-46138223D01*
X88750222Y-46708454D01*
X88916136Y-47109005D01*
X89162255Y-47183139D01*
X89990395Y-46355000D01*
X90349605Y-46355000D01*
X91177745Y-47183139D01*
X91423864Y-47109005D01*
X91616965Y-46571777D01*
X91589778Y-46001546D01*
X91423864Y-45600995D01*
X91177745Y-45526861D01*
X90349605Y-46355000D01*
X89990395Y-46355000D01*
X89162255Y-45526861D01*
X88916136Y-45600995D01*
X88723035Y-46138223D01*
X83916027Y-46138223D01*
X83985000Y-46069250D01*
X83985000Y-45428691D01*
X83951269Y-45347255D01*
X89341861Y-45347255D01*
X90170000Y-46175395D01*
X90998139Y-45347255D01*
X90924005Y-45101136D01*
X90386777Y-44908035D01*
X89816546Y-44935222D01*
X89415995Y-45101136D01*
X89341861Y-45347255D01*
X83951269Y-45347255D01*
X83888327Y-45195302D01*
X83709699Y-45016673D01*
X83476310Y-44920000D01*
X82835750Y-44920000D01*
X82677000Y-45078750D01*
X82423000Y-45078750D01*
X82264250Y-44920000D01*
X81623690Y-44920000D01*
X81390301Y-45016673D01*
X81211673Y-45195302D01*
X81115000Y-45428691D01*
X77949400Y-45428691D01*
X77949400Y-36374092D01*
X78583754Y-36374092D01*
X78830057Y-36898558D01*
X79258316Y-37288845D01*
X79580590Y-37422327D01*
X79175240Y-37422327D01*
X79066224Y-37444012D01*
X78973804Y-37505764D01*
X78912052Y-37598184D01*
X78890367Y-37707200D01*
X78890367Y-39407200D01*
X78912052Y-39516216D01*
X78973804Y-39608636D01*
X79066224Y-39670388D01*
X79175240Y-39692073D01*
X80875240Y-39692073D01*
X80984256Y-39670388D01*
X81076676Y-39608636D01*
X81138428Y-39516216D01*
X81160113Y-39407200D01*
X81160113Y-37707200D01*
X81138428Y-37598184D01*
X81076676Y-37505764D01*
X80984256Y-37444012D01*
X80875240Y-37422327D01*
X80469890Y-37422327D01*
X80792164Y-37288845D01*
X81220423Y-36898558D01*
X81466726Y-36374092D01*
X81346060Y-36144202D01*
X81438976Y-36144202D01*
X81501369Y-36457870D01*
X81750988Y-36831452D01*
X82124570Y-37081071D01*
X82454005Y-37146600D01*
X82676475Y-37146600D01*
X83005910Y-37081071D01*
X83078028Y-37032883D01*
X83291680Y-37246535D01*
X83291680Y-37684274D01*
X83005910Y-37493329D01*
X82676475Y-37427800D01*
X82454005Y-37427800D01*
X82124570Y-37493329D01*
X81750988Y-37742948D01*
X81501369Y-38116530D01*
X81413714Y-38557200D01*
X81501369Y-38997870D01*
X81750988Y-39371452D01*
X82124570Y-39621071D01*
X82209641Y-39637993D01*
X82209641Y-40061416D01*
X82209640Y-40061421D01*
X82209640Y-40131482D01*
X82209641Y-40131486D01*
X82209640Y-40533860D01*
X82202674Y-40568880D01*
X82230273Y-40707627D01*
X82254025Y-40743174D01*
X82308867Y-40825252D01*
X82338555Y-40845089D01*
X85133831Y-43640366D01*
X85153667Y-43670053D01*
X85183354Y-43689889D01*
X85183355Y-43689890D01*
X85271292Y-43748647D01*
X85410040Y-43776246D01*
X85445060Y-43769280D01*
X95435127Y-43769280D01*
X95435127Y-45250000D01*
X95456812Y-45359016D01*
X95518564Y-45451436D01*
X95610984Y-45513188D01*
X95720000Y-45534873D01*
X97193001Y-45534873D01*
X97193001Y-46141502D01*
X96941161Y-45973228D01*
X96626308Y-45910600D01*
X96413692Y-45910600D01*
X96098839Y-45973228D01*
X95741796Y-46211796D01*
X95503228Y-46568839D01*
X95419454Y-46990000D01*
X95503228Y-47411161D01*
X95741796Y-47768204D01*
X96098839Y-48006772D01*
X96413692Y-48069400D01*
X96626308Y-48069400D01*
X96941161Y-48006772D01*
X97193001Y-47838498D01*
X97193001Y-48681502D01*
X96941161Y-48513228D01*
X96626308Y-48450600D01*
X96413692Y-48450600D01*
X96098839Y-48513228D01*
X95741796Y-48751796D01*
X95503228Y-49108839D01*
X95419454Y-49530000D01*
X95503228Y-49951161D01*
X95741796Y-50308204D01*
X96098839Y-50546772D01*
X96413692Y-50609400D01*
X96626308Y-50609400D01*
X96941161Y-50546772D01*
X97193001Y-50378498D01*
X97193001Y-51221502D01*
X96941161Y-51053228D01*
X96626308Y-50990600D01*
X96413692Y-50990600D01*
X96098839Y-51053228D01*
X95741796Y-51291796D01*
X95503228Y-51648839D01*
X95419454Y-52070000D01*
X95503228Y-52491161D01*
X95741796Y-52848204D01*
X96098839Y-53086772D01*
X96413692Y-53149400D01*
X96626308Y-53149400D01*
X96941161Y-53086772D01*
X97193001Y-52918498D01*
X97193001Y-53761502D01*
X96941161Y-53593228D01*
X96626308Y-53530600D01*
X96413692Y-53530600D01*
X96098839Y-53593228D01*
X95741796Y-53831796D01*
X95503228Y-54188839D01*
X95419454Y-54610000D01*
X95503228Y-55031161D01*
X95741796Y-55388204D01*
X96098839Y-55626772D01*
X96413692Y-55689400D01*
X96626308Y-55689400D01*
X96941161Y-55626772D01*
X97193001Y-55458498D01*
X97193002Y-56301502D01*
X96941161Y-56133228D01*
X96626308Y-56070600D01*
X96413692Y-56070600D01*
X96098839Y-56133228D01*
X95741796Y-56371796D01*
X95503228Y-56728839D01*
X95490187Y-56794400D01*
X94650014Y-56794400D01*
X94614999Y-56787435D01*
X94579984Y-56794400D01*
X94579980Y-56794400D01*
X94476252Y-56815033D01*
X94358627Y-56893627D01*
X94338789Y-56923317D01*
X90640537Y-60621569D01*
X90384706Y-60515600D01*
X89955294Y-60515600D01*
X89558569Y-60679929D01*
X89254929Y-60983569D01*
X89090600Y-61380294D01*
X89090600Y-61809706D01*
X89254929Y-62206431D01*
X89558569Y-62510071D01*
X89814400Y-62616040D01*
X89814401Y-65645187D01*
X89748839Y-65658228D01*
X89391796Y-65896796D01*
X89153228Y-66253839D01*
X89069454Y-66675000D01*
X89153228Y-67096161D01*
X89391796Y-67453204D01*
X89748839Y-67691772D01*
X90063692Y-67754400D01*
X90276308Y-67754400D01*
X90591161Y-67691772D01*
X90948204Y-67453204D01*
X91186772Y-67096161D01*
X91270546Y-66675000D01*
X91186772Y-66253839D01*
X90948204Y-65896796D01*
X90591161Y-65658228D01*
X90525600Y-65645187D01*
X90525600Y-62616040D01*
X90781431Y-62510071D01*
X91085071Y-62206431D01*
X91249400Y-61809706D01*
X91249400Y-61380294D01*
X91143431Y-61124463D01*
X94762294Y-57505600D01*
X95490187Y-57505600D01*
X95503228Y-57571161D01*
X95741796Y-57928204D01*
X96098839Y-58166772D01*
X96413692Y-58229400D01*
X96626308Y-58229400D01*
X96941161Y-58166772D01*
X97193002Y-57998498D01*
X97193002Y-58841502D01*
X96941161Y-58673228D01*
X96626308Y-58610600D01*
X96413692Y-58610600D01*
X96098839Y-58673228D01*
X95741796Y-58911796D01*
X95503228Y-59268839D01*
X95419454Y-59690000D01*
X95503228Y-60111161D01*
X95741796Y-60468204D01*
X96098839Y-60706772D01*
X96413692Y-60769400D01*
X96626308Y-60769400D01*
X96941161Y-60706772D01*
X97193002Y-60538498D01*
X97193002Y-61381502D01*
X96941161Y-61213228D01*
X96626308Y-61150600D01*
X96413692Y-61150600D01*
X96098839Y-61213228D01*
X95741796Y-61451796D01*
X95503228Y-61808839D01*
X95419454Y-62230000D01*
X95503228Y-62651161D01*
X95741796Y-63008204D01*
X96098839Y-63246772D01*
X96413692Y-63309400D01*
X96626308Y-63309400D01*
X96941161Y-63246772D01*
X97193002Y-63078498D01*
X97193002Y-63921502D01*
X96941161Y-63753228D01*
X96626308Y-63690600D01*
X96413692Y-63690600D01*
X96098839Y-63753228D01*
X95741796Y-63991796D01*
X95503228Y-64348839D01*
X95419454Y-64770000D01*
X95503228Y-65191161D01*
X95741796Y-65548204D01*
X96098839Y-65786772D01*
X96413692Y-65849400D01*
X96626308Y-65849400D01*
X96941161Y-65786772D01*
X97193002Y-65618498D01*
X97193002Y-66461502D01*
X96941161Y-66293228D01*
X96626308Y-66230600D01*
X96413692Y-66230600D01*
X96098839Y-66293228D01*
X95741796Y-66531796D01*
X95503228Y-66888839D01*
X95419454Y-67310000D01*
X95503228Y-67731161D01*
X95741796Y-68088204D01*
X96098839Y-68326772D01*
X96413692Y-68389400D01*
X96626308Y-68389400D01*
X96941161Y-68326772D01*
X97193002Y-68158498D01*
X97193002Y-68303576D01*
X97186035Y-68338601D01*
X97213634Y-68477348D01*
X97272391Y-68565285D01*
X97272393Y-68565287D01*
X97292229Y-68594974D01*
X97321916Y-68614810D01*
X98437700Y-69730595D01*
X98437700Y-69973783D01*
X98532439Y-70202505D01*
X98707495Y-70377561D01*
X98936217Y-70472300D01*
X99183783Y-70472300D01*
X99412505Y-70377561D01*
X99565461Y-70224605D01*
X99565461Y-73921645D01*
X96996741Y-76490365D01*
X96941161Y-76453228D01*
X96626308Y-76390600D01*
X96413692Y-76390600D01*
X96098839Y-76453228D01*
X95741796Y-76691796D01*
X95503228Y-77048839D01*
X95419454Y-77470000D01*
X95503228Y-77891161D01*
X95741796Y-78248204D01*
X96098839Y-78486772D01*
X96413692Y-78549400D01*
X96626308Y-78549400D01*
X96941161Y-78486772D01*
X97298204Y-78248204D01*
X97536772Y-77891161D01*
X97620546Y-77470000D01*
X97536772Y-77048839D01*
X97499635Y-76993259D01*
X99872801Y-74620093D01*
X99872801Y-76154305D01*
X96996741Y-79030365D01*
X96941161Y-78993228D01*
X96626308Y-78930600D01*
X96413692Y-78930600D01*
X96098839Y-78993228D01*
X95741796Y-79231796D01*
X95503228Y-79588839D01*
X95419454Y-80010000D01*
X95503228Y-80431161D01*
X95741796Y-80788204D01*
X96098839Y-81026772D01*
X96413692Y-81089400D01*
X96626308Y-81089400D01*
X96941161Y-81026772D01*
X97298204Y-80788204D01*
X97536772Y-80431161D01*
X97620546Y-80010000D01*
X97536772Y-79588839D01*
X97499635Y-79533259D01*
X97621989Y-79410905D01*
X97621989Y-79613924D01*
X97615022Y-79648948D01*
X97642621Y-79787695D01*
X97701378Y-79875632D01*
X97701380Y-79875634D01*
X97721216Y-79905321D01*
X97726500Y-79908852D01*
X97726500Y-80143943D01*
X97821239Y-80372665D01*
X97996295Y-80547721D01*
X98225017Y-80642460D01*
X98472583Y-80642460D01*
X98577401Y-80599043D01*
X98577401Y-81023484D01*
X97510847Y-82090039D01*
X97298204Y-81771796D01*
X96941161Y-81533228D01*
X96626308Y-81470600D01*
X96413692Y-81470600D01*
X96098839Y-81533228D01*
X95741796Y-81771796D01*
X95503228Y-82128839D01*
X95419454Y-82550000D01*
X95503228Y-82971161D01*
X95741796Y-83328204D01*
X96098839Y-83566772D01*
X96413692Y-83629400D01*
X96626308Y-83629400D01*
X96941161Y-83566772D01*
X97298204Y-83328204D01*
X97536772Y-82971161D01*
X97548631Y-82911542D01*
X97553780Y-82912566D01*
X97588800Y-82905600D01*
X97692528Y-82884967D01*
X97810153Y-82806373D01*
X97829991Y-82776683D01*
X98882203Y-81724472D01*
X98882203Y-82224903D01*
X96996741Y-84110365D01*
X96941161Y-84073228D01*
X96626308Y-84010600D01*
X96413692Y-84010600D01*
X96098839Y-84073228D01*
X95741796Y-84311796D01*
X95503228Y-84668839D01*
X95419454Y-85090000D01*
X95503228Y-85511161D01*
X95741796Y-85868204D01*
X96098839Y-86106772D01*
X96413692Y-86169400D01*
X96626308Y-86169400D01*
X96941161Y-86106772D01*
X97298204Y-85868204D01*
X97536772Y-85511161D01*
X97620546Y-85090000D01*
X97536772Y-84668839D01*
X97499635Y-84613259D01*
X99464485Y-82648409D01*
X99494175Y-82628571D01*
X99572769Y-82510946D01*
X99593402Y-82407218D01*
X99593402Y-82407214D01*
X99600367Y-82372199D01*
X99593402Y-82337184D01*
X99593402Y-78746848D01*
X102847774Y-75492477D01*
X102877461Y-75472641D01*
X102932621Y-75390087D01*
X103005175Y-75462641D01*
X103233897Y-75557380D01*
X103481463Y-75557380D01*
X103583741Y-75515015D01*
X103583741Y-76924435D01*
X103576774Y-76959460D01*
X103604373Y-77098207D01*
X103663130Y-77186144D01*
X103663132Y-77186146D01*
X103682968Y-77215833D01*
X103712655Y-77235669D01*
X103830120Y-77353134D01*
X103830120Y-77596323D01*
X103924859Y-77825045D01*
X104099915Y-78000101D01*
X104328637Y-78094840D01*
X104576203Y-78094840D01*
X104804925Y-78000101D01*
X104943173Y-77861853D01*
X104943173Y-78703933D01*
X96996741Y-86650365D01*
X96941161Y-86613228D01*
X96626308Y-86550600D01*
X96413692Y-86550600D01*
X96098839Y-86613228D01*
X95741796Y-86851796D01*
X95503228Y-87208839D01*
X95419454Y-87630000D01*
X95503228Y-88051161D01*
X95741796Y-88408204D01*
X96098839Y-88646772D01*
X96413692Y-88709400D01*
X96626308Y-88709400D01*
X96941161Y-88646772D01*
X97298204Y-88408204D01*
X97536772Y-88051161D01*
X97620546Y-87630000D01*
X97536772Y-87208839D01*
X97499635Y-87153259D01*
X105247975Y-79404919D01*
X105247975Y-84506869D01*
X105241008Y-84541894D01*
X105268607Y-84680641D01*
X105327364Y-84768578D01*
X105327366Y-84768580D01*
X105347202Y-84798267D01*
X105376889Y-84818103D01*
X105516680Y-84957894D01*
X105516680Y-85201083D01*
X105611419Y-85429805D01*
X105786475Y-85604861D01*
X106015197Y-85699600D01*
X106262763Y-85699600D01*
X106367581Y-85656183D01*
X106367580Y-89581260D01*
X106360614Y-89616280D01*
X106388213Y-89755027D01*
X106444892Y-89839853D01*
X106466807Y-89872652D01*
X106496495Y-89892489D01*
X106641900Y-90037894D01*
X106641900Y-90281083D01*
X106736639Y-90509805D01*
X106911695Y-90684861D01*
X107140417Y-90779600D01*
X107387983Y-90779600D01*
X107490261Y-90737236D01*
X107490260Y-91699620D01*
X107483294Y-91734640D01*
X107510893Y-91873387D01*
X107566090Y-91955995D01*
X107589487Y-91991012D01*
X107619175Y-92010849D01*
X107916360Y-92308035D01*
X107936197Y-92337723D01*
X107965884Y-92357559D01*
X107965885Y-92357560D01*
X107981197Y-92367791D01*
X108204000Y-92590594D01*
X108204000Y-92833783D01*
X108298739Y-93062505D01*
X108473795Y-93237561D01*
X108702517Y-93332300D01*
X108950083Y-93332300D01*
X109178805Y-93237561D01*
X109353861Y-93062505D01*
X109448600Y-92833783D01*
X109448600Y-92586217D01*
X109353861Y-92357495D01*
X109178805Y-92182439D01*
X108950083Y-92087700D01*
X108706894Y-92087700D01*
X108473860Y-91854666D01*
X108454023Y-91824977D01*
X108424333Y-91805139D01*
X108420568Y-91801374D01*
X108405261Y-91791147D01*
X108201460Y-91587346D01*
X108201460Y-89897676D01*
X108208426Y-89862657D01*
X108196916Y-89804795D01*
X108180827Y-89723910D01*
X108102233Y-89606285D01*
X108072543Y-89586447D01*
X107383582Y-88897486D01*
X107383582Y-84629930D01*
X107390548Y-84594910D01*
X107362949Y-84456162D01*
X107304192Y-84368225D01*
X107304191Y-84368224D01*
X107290583Y-84347857D01*
X107426205Y-84291681D01*
X107467402Y-84250484D01*
X107467402Y-87252076D01*
X107460435Y-87287101D01*
X107488034Y-87425848D01*
X107543600Y-87509009D01*
X107543600Y-87753783D01*
X107638339Y-87982505D01*
X107813395Y-88157561D01*
X108042117Y-88252300D01*
X108289683Y-88252300D01*
X108518405Y-88157561D01*
X108693461Y-87982505D01*
X108788200Y-87753783D01*
X108788200Y-87506217D01*
X108693461Y-87277495D01*
X108518405Y-87102439D01*
X108289683Y-87007700D01*
X108178601Y-87007700D01*
X108178601Y-83040900D01*
X108397717Y-83131660D01*
X108645283Y-83131660D01*
X108874005Y-83036921D01*
X109049061Y-82861865D01*
X109090461Y-82761917D01*
X109090460Y-83673994D01*
X109070899Y-83693555D01*
X108976160Y-83922277D01*
X108976160Y-84169843D01*
X109070899Y-84398565D01*
X109095541Y-84423207D01*
X109095540Y-85934594D01*
X109075979Y-85954155D01*
X108981240Y-86182877D01*
X108981240Y-86430443D01*
X109075979Y-86659165D01*
X109251035Y-86834221D01*
X109479757Y-86928960D01*
X109727323Y-86928960D01*
X109766200Y-86912857D01*
X109766200Y-93350380D01*
X108539579Y-94577001D01*
X107463986Y-94577001D01*
X107413958Y-94567050D01*
X107363930Y-94577001D01*
X107363927Y-94577001D01*
X107215747Y-94606476D01*
X107047712Y-94718754D01*
X107019371Y-94761169D01*
X106932097Y-94848443D01*
X106828666Y-94805600D01*
X106399254Y-94805600D01*
X106002529Y-94969929D01*
X105698889Y-95273569D01*
X105534560Y-95670294D01*
X105534560Y-96099706D01*
X105698889Y-96496431D01*
X106002529Y-96800071D01*
X106399254Y-96964400D01*
X106828666Y-96964400D01*
X107125771Y-96841335D01*
X106786706Y-97180400D01*
X102267688Y-97180400D01*
X102367965Y-97138864D01*
X102442099Y-96892745D01*
X101613960Y-96064605D01*
X101599818Y-96078748D01*
X101420212Y-95899142D01*
X101434355Y-95885000D01*
X101793565Y-95885000D01*
X102621705Y-96713139D01*
X102867824Y-96639005D01*
X103060925Y-96101777D01*
X103033738Y-95531546D01*
X102867824Y-95130995D01*
X102621705Y-95056861D01*
X101793565Y-95885000D01*
X101434355Y-95885000D01*
X100606215Y-95056861D01*
X100360096Y-95130995D01*
X100166995Y-95668223D01*
X100194182Y-96238454D01*
X100300838Y-96495943D01*
X99336211Y-95531317D01*
X99316373Y-95501627D01*
X99198748Y-95423033D01*
X99095020Y-95402400D01*
X99060000Y-95395434D01*
X99024980Y-95402400D01*
X83967295Y-95402400D01*
X83442150Y-94877255D01*
X100785821Y-94877255D01*
X101613960Y-95705395D01*
X102442099Y-94877255D01*
X102367965Y-94631136D01*
X101830737Y-94438035D01*
X101260506Y-94465222D01*
X100859955Y-94631136D01*
X100785821Y-94877255D01*
X83442150Y-94877255D01*
X83405980Y-94841086D01*
X83405980Y-92520793D01*
X83491050Y-92503871D01*
X83864632Y-92254252D01*
X84114251Y-91880670D01*
X84132477Y-91789041D01*
X85603086Y-91789041D01*
X85842611Y-92295134D01*
X86257577Y-92671041D01*
X86645961Y-92831904D01*
X86868000Y-92709915D01*
X86868000Y-91567000D01*
X87122000Y-91567000D01*
X87122000Y-92709915D01*
X87344039Y-92831904D01*
X87638361Y-92710000D01*
X95419454Y-92710000D01*
X95503228Y-93131161D01*
X95741796Y-93488204D01*
X96098839Y-93726772D01*
X96413692Y-93789400D01*
X96626308Y-93789400D01*
X96941161Y-93726772D01*
X97298204Y-93488204D01*
X97536772Y-93131161D01*
X97592623Y-92850377D01*
X98295460Y-92850377D01*
X98295460Y-93097943D01*
X98390199Y-93326665D01*
X98565255Y-93501721D01*
X98793977Y-93596460D01*
X99041543Y-93596460D01*
X99270265Y-93501721D01*
X99445321Y-93326665D01*
X99540060Y-93097943D01*
X99540060Y-92850377D01*
X99445321Y-92621655D01*
X99425760Y-92602094D01*
X99425760Y-89198406D01*
X99455481Y-89168685D01*
X99550220Y-88939963D01*
X99550220Y-88692397D01*
X99455481Y-88463675D01*
X99280425Y-88288619D01*
X99051703Y-88193880D01*
X98804137Y-88193880D01*
X98575415Y-88288619D01*
X98400359Y-88463675D01*
X98305620Y-88692397D01*
X98305620Y-88939963D01*
X98400359Y-89168685D01*
X98409761Y-89178087D01*
X98409760Y-92602094D01*
X98390199Y-92621655D01*
X98295460Y-92850377D01*
X97592623Y-92850377D01*
X97620546Y-92710000D01*
X97536772Y-92288839D01*
X97298204Y-91931796D01*
X96941161Y-91693228D01*
X96626308Y-91630600D01*
X96413692Y-91630600D01*
X96098839Y-91693228D01*
X95741796Y-91931796D01*
X95503228Y-92288839D01*
X95419454Y-92710000D01*
X87638361Y-92710000D01*
X87732423Y-92671041D01*
X88147389Y-92295134D01*
X88386914Y-91789041D01*
X88265629Y-91567000D01*
X87122000Y-91567000D01*
X86868000Y-91567000D01*
X85724371Y-91567000D01*
X85603086Y-91789041D01*
X84132477Y-91789041D01*
X84201906Y-91440000D01*
X84132478Y-91090959D01*
X85603086Y-91090959D01*
X85724371Y-91313000D01*
X86868000Y-91313000D01*
X86868000Y-90170085D01*
X87122000Y-90170085D01*
X87122000Y-91313000D01*
X88265629Y-91313000D01*
X88383207Y-91097745D01*
X89341861Y-91097745D01*
X89415995Y-91343864D01*
X89953223Y-91536965D01*
X90523454Y-91509778D01*
X90924005Y-91343864D01*
X90998139Y-91097745D01*
X90170000Y-90269605D01*
X89341861Y-91097745D01*
X88383207Y-91097745D01*
X88386914Y-91090959D01*
X88147389Y-90584866D01*
X87732423Y-90208959D01*
X87344039Y-90048096D01*
X87122000Y-90170085D01*
X86868000Y-90170085D01*
X86645961Y-90048096D01*
X86257577Y-90208959D01*
X85842611Y-90584866D01*
X85603086Y-91090959D01*
X84132478Y-91090959D01*
X84114251Y-90999330D01*
X83864632Y-90625748D01*
X83491050Y-90376129D01*
X83161615Y-90310600D01*
X82939145Y-90310600D01*
X82609710Y-90376129D01*
X82327379Y-90564776D01*
X82327379Y-90125895D01*
X82537591Y-89915683D01*
X82609710Y-89963871D01*
X82939145Y-90029400D01*
X83161615Y-90029400D01*
X83491050Y-89963871D01*
X83626714Y-89873223D01*
X88723035Y-89873223D01*
X88750222Y-90443454D01*
X88916136Y-90844005D01*
X89162255Y-90918139D01*
X89990395Y-90090000D01*
X90349605Y-90090000D01*
X91177745Y-90918139D01*
X91423864Y-90844005D01*
X91616965Y-90306777D01*
X91610444Y-90170000D01*
X95419454Y-90170000D01*
X95503228Y-90591161D01*
X95741796Y-90948204D01*
X96098839Y-91186772D01*
X96413692Y-91249400D01*
X96626308Y-91249400D01*
X96941161Y-91186772D01*
X97298204Y-90948204D01*
X97536772Y-90591161D01*
X97620546Y-90170000D01*
X97536772Y-89748839D01*
X97298204Y-89391796D01*
X96941161Y-89153228D01*
X96626308Y-89090600D01*
X96413692Y-89090600D01*
X96098839Y-89153228D01*
X95741796Y-89391796D01*
X95503228Y-89748839D01*
X95419454Y-90170000D01*
X91610444Y-90170000D01*
X91589778Y-89736546D01*
X91423864Y-89335995D01*
X91177745Y-89261861D01*
X90349605Y-90090000D01*
X89990395Y-90090000D01*
X89162255Y-89261861D01*
X88916136Y-89335995D01*
X88723035Y-89873223D01*
X83626714Y-89873223D01*
X83864632Y-89714252D01*
X84114251Y-89340670D01*
X84165653Y-89082255D01*
X89341861Y-89082255D01*
X90170000Y-89910395D01*
X90998139Y-89082255D01*
X90924005Y-88836136D01*
X90386777Y-88643035D01*
X89816546Y-88670222D01*
X89415995Y-88836136D01*
X89341861Y-89082255D01*
X84165653Y-89082255D01*
X84201906Y-88900000D01*
X84114251Y-88459330D01*
X83864632Y-88085748D01*
X83491050Y-87836129D01*
X83177382Y-87773736D01*
X83177382Y-87680820D01*
X83407272Y-87801486D01*
X83931738Y-87555183D01*
X84322025Y-87126924D01*
X84491856Y-86716890D01*
X84370535Y-86487000D01*
X83177380Y-86487000D01*
X83177380Y-86507000D01*
X82923380Y-86507000D01*
X82923380Y-86487000D01*
X81730225Y-86487000D01*
X81608904Y-86716890D01*
X81778735Y-87126924D01*
X82169022Y-87555183D01*
X82693488Y-87801486D01*
X82923378Y-87680820D01*
X82923378Y-87773736D01*
X82609710Y-87836129D01*
X82236128Y-88085748D01*
X81986509Y-88459330D01*
X81898854Y-88900000D01*
X81986509Y-89340670D01*
X82034697Y-89412789D01*
X81745094Y-89702392D01*
X81715406Y-89722229D01*
X81695570Y-89751916D01*
X81695569Y-89751917D01*
X81636812Y-89839854D01*
X81609213Y-89978601D01*
X81616179Y-90013621D01*
X81616180Y-95939774D01*
X81609213Y-95974799D01*
X81636812Y-96113546D01*
X81695569Y-96201483D01*
X81695571Y-96201485D01*
X81715407Y-96231172D01*
X81745094Y-96251008D01*
X81973696Y-96479611D01*
X81973699Y-96479613D01*
X82034697Y-96540611D01*
X81986509Y-96612730D01*
X81898854Y-97053400D01*
X81986509Y-97494070D01*
X82236128Y-97867652D01*
X82609710Y-98117271D01*
X82939145Y-98182800D01*
X83161615Y-98182800D01*
X83491050Y-98117271D01*
X83864632Y-97867652D01*
X84114251Y-97494070D01*
X84201906Y-97053400D01*
X84114251Y-96612730D01*
X83864632Y-96239148D01*
X83491050Y-95989529D01*
X83161615Y-95924000D01*
X82939145Y-95924000D01*
X82609710Y-95989529D01*
X82537591Y-96037717D01*
X82476593Y-95976719D01*
X82476591Y-95976716D01*
X82327379Y-95827505D01*
X82327379Y-92315224D01*
X82609710Y-92503871D01*
X82694780Y-92520793D01*
X82694781Y-94953355D01*
X82687814Y-94988380D01*
X82715413Y-95127127D01*
X82774170Y-95215064D01*
X82774172Y-95215066D01*
X82794008Y-95244753D01*
X82823695Y-95264589D01*
X83543790Y-95984685D01*
X83563627Y-96014373D01*
X83593314Y-96034209D01*
X83593315Y-96034210D01*
X83681252Y-96092967D01*
X83819999Y-96120566D01*
X83855019Y-96113600D01*
X84964024Y-96113600D01*
X84776128Y-96239148D01*
X84526509Y-96612730D01*
X84438854Y-97053400D01*
X84526509Y-97494070D01*
X84776128Y-97867652D01*
X85149710Y-98117271D01*
X85479145Y-98182800D01*
X85701615Y-98182800D01*
X86031050Y-98117271D01*
X86404632Y-97867652D01*
X86654251Y-97494070D01*
X86741906Y-97053400D01*
X86654251Y-96612730D01*
X86404632Y-96239148D01*
X86216736Y-96113600D01*
X87504024Y-96113600D01*
X87316128Y-96239148D01*
X87066509Y-96612730D01*
X86978854Y-97053400D01*
X87066509Y-97494070D01*
X87316128Y-97867652D01*
X87689710Y-98117271D01*
X88019145Y-98182800D01*
X88241615Y-98182800D01*
X88571050Y-98117271D01*
X88944632Y-97867652D01*
X89194251Y-97494070D01*
X89281906Y-97053400D01*
X89194251Y-96612730D01*
X88944632Y-96239148D01*
X88756736Y-96113600D01*
X90044024Y-96113600D01*
X89856128Y-96239148D01*
X89606509Y-96612730D01*
X89518854Y-97053400D01*
X89606509Y-97494070D01*
X89856128Y-97867652D01*
X90229710Y-98117271D01*
X90559145Y-98182800D01*
X90781615Y-98182800D01*
X91111050Y-98117271D01*
X91484632Y-97867652D01*
X91734251Y-97494070D01*
X91821906Y-97053400D01*
X91734251Y-96612730D01*
X91484632Y-96239148D01*
X91296736Y-96113600D01*
X92584024Y-96113600D01*
X92396128Y-96239148D01*
X92146509Y-96612730D01*
X92058854Y-97053400D01*
X92146509Y-97494070D01*
X92396128Y-97867652D01*
X92769710Y-98117271D01*
X93099145Y-98182800D01*
X93321615Y-98182800D01*
X93651050Y-98117271D01*
X94024632Y-97867652D01*
X94274251Y-97494070D01*
X94361906Y-97053400D01*
X94274251Y-96612730D01*
X94024632Y-96239148D01*
X93836736Y-96113600D01*
X95124024Y-96113600D01*
X94936128Y-96239148D01*
X94686509Y-96612730D01*
X94598854Y-97053400D01*
X94686509Y-97494070D01*
X94936128Y-97867652D01*
X95309710Y-98117271D01*
X95639145Y-98182800D01*
X95861615Y-98182800D01*
X96191050Y-98117271D01*
X96564632Y-97867652D01*
X96814251Y-97494070D01*
X96901906Y-97053400D01*
X96814251Y-96612730D01*
X96564632Y-96239148D01*
X96376736Y-96113600D01*
X97664024Y-96113600D01*
X97476128Y-96239148D01*
X97226509Y-96612730D01*
X97138854Y-97053400D01*
X97226509Y-97494070D01*
X97476128Y-97867652D01*
X97849710Y-98117271D01*
X98179145Y-98182800D01*
X98401615Y-98182800D01*
X98731050Y-98117271D01*
X99104632Y-97867652D01*
X99354251Y-97494070D01*
X99441906Y-97053400D01*
X99354251Y-96612730D01*
X99238295Y-96439189D01*
X100561791Y-97762686D01*
X100581627Y-97792373D01*
X100611314Y-97812209D01*
X100611315Y-97812210D01*
X100699252Y-97870967D01*
X100838000Y-97898566D01*
X100873020Y-97891600D01*
X106898980Y-97891600D01*
X106934000Y-97898566D01*
X106969020Y-97891600D01*
X107072748Y-97870967D01*
X107190373Y-97792373D01*
X107210211Y-97762683D01*
X108859295Y-96113600D01*
X108871585Y-96113600D01*
X108852207Y-96211020D01*
X108852207Y-97911020D01*
X108873892Y-98020036D01*
X108935644Y-98112456D01*
X109028064Y-98174208D01*
X109137080Y-98195893D01*
X110837080Y-98195893D01*
X110946096Y-98174208D01*
X111038516Y-98112456D01*
X111100268Y-98020036D01*
X111121953Y-97911020D01*
X111121953Y-96211020D01*
X111108983Y-96145817D01*
X111511397Y-96548231D01*
X111463209Y-96620350D01*
X111375554Y-97061020D01*
X111463209Y-97501690D01*
X111712828Y-97875272D01*
X112086410Y-98124891D01*
X112415845Y-98190420D01*
X112638315Y-98190420D01*
X112967750Y-98124891D01*
X113341332Y-97875272D01*
X113590951Y-97501690D01*
X113678606Y-97061020D01*
X113915554Y-97061020D01*
X114003209Y-97501690D01*
X114252828Y-97875272D01*
X114626410Y-98124891D01*
X114955845Y-98190420D01*
X115178315Y-98190420D01*
X115507750Y-98124891D01*
X115881332Y-97875272D01*
X116130951Y-97501690D01*
X116218606Y-97061020D01*
X116455554Y-97061020D01*
X116543209Y-97501690D01*
X116792828Y-97875272D01*
X117166410Y-98124891D01*
X117495845Y-98190420D01*
X117718315Y-98190420D01*
X118047750Y-98124891D01*
X118421332Y-97875272D01*
X118670951Y-97501690D01*
X118758606Y-97061020D01*
X118995554Y-97061020D01*
X119083209Y-97501690D01*
X119332828Y-97875272D01*
X119706410Y-98124891D01*
X120035845Y-98190420D01*
X120258315Y-98190420D01*
X120587750Y-98124891D01*
X120961332Y-97875272D01*
X121210951Y-97501690D01*
X121298606Y-97061020D01*
X121535554Y-97061020D01*
X121623209Y-97501690D01*
X121872828Y-97875272D01*
X122246410Y-98124891D01*
X122575845Y-98190420D01*
X122798315Y-98190420D01*
X123127750Y-98124891D01*
X123501332Y-97875272D01*
X123750951Y-97501690D01*
X123838606Y-97061020D01*
X124075554Y-97061020D01*
X124163209Y-97501690D01*
X124412828Y-97875272D01*
X124786410Y-98124891D01*
X125115845Y-98190420D01*
X125338315Y-98190420D01*
X125667750Y-98124891D01*
X126041332Y-97875272D01*
X126290951Y-97501690D01*
X126378606Y-97061020D01*
X126615554Y-97061020D01*
X126703209Y-97501690D01*
X126952828Y-97875272D01*
X127326410Y-98124891D01*
X127655845Y-98190420D01*
X127878315Y-98190420D01*
X128207750Y-98124891D01*
X128581332Y-97875272D01*
X128830951Y-97501690D01*
X128918606Y-97061020D01*
X128830951Y-96620350D01*
X128581332Y-96246768D01*
X128207750Y-95997149D01*
X127878315Y-95931620D01*
X127655845Y-95931620D01*
X127326410Y-95997149D01*
X126952828Y-96246768D01*
X126703209Y-96620350D01*
X126615554Y-97061020D01*
X126378606Y-97061020D01*
X126290951Y-96620350D01*
X126041332Y-96246768D01*
X125667750Y-95997149D01*
X125338315Y-95931620D01*
X125115845Y-95931620D01*
X124786410Y-95997149D01*
X124412828Y-96246768D01*
X124163209Y-96620350D01*
X124075554Y-97061020D01*
X123838606Y-97061020D01*
X123750951Y-96620350D01*
X123501332Y-96246768D01*
X123127750Y-95997149D01*
X122798315Y-95931620D01*
X122575845Y-95931620D01*
X122246410Y-95997149D01*
X121872828Y-96246768D01*
X121623209Y-96620350D01*
X121535554Y-97061020D01*
X121298606Y-97061020D01*
X121210951Y-96620350D01*
X120961332Y-96246768D01*
X120587750Y-95997149D01*
X120258315Y-95931620D01*
X120035845Y-95931620D01*
X119706410Y-95997149D01*
X119332828Y-96246768D01*
X119083209Y-96620350D01*
X118995554Y-97061020D01*
X118758606Y-97061020D01*
X118670951Y-96620350D01*
X118421332Y-96246768D01*
X118047750Y-95997149D01*
X117718315Y-95931620D01*
X117495845Y-95931620D01*
X117166410Y-95997149D01*
X116792828Y-96246768D01*
X116543209Y-96620350D01*
X116455554Y-97061020D01*
X116218606Y-97061020D01*
X116130951Y-96620350D01*
X115881332Y-96246768D01*
X115507750Y-95997149D01*
X115178315Y-95931620D01*
X114955845Y-95931620D01*
X114626410Y-95997149D01*
X114252828Y-96246768D01*
X114003209Y-96620350D01*
X113915554Y-97061020D01*
X113678606Y-97061020D01*
X113590951Y-96620350D01*
X113341332Y-96246768D01*
X112967750Y-95997149D01*
X112638315Y-95931620D01*
X112415845Y-95931620D01*
X112086410Y-95997149D01*
X112014291Y-96045337D01*
X111500271Y-95531317D01*
X111480433Y-95501627D01*
X111362808Y-95423033D01*
X111259080Y-95402400D01*
X111224060Y-95395434D01*
X111189040Y-95402400D01*
X109151020Y-95402400D01*
X110598031Y-93955389D01*
X110640446Y-93927048D01*
X110752724Y-93759013D01*
X110782199Y-93610833D01*
X110782199Y-93610830D01*
X110792150Y-93560802D01*
X110782199Y-93510774D01*
X110782199Y-93189485D01*
X110981796Y-93488204D01*
X111338839Y-93726772D01*
X111653692Y-93789400D01*
X111866308Y-93789400D01*
X112181161Y-93726772D01*
X112538204Y-93488204D01*
X112776772Y-93131161D01*
X112860546Y-92710000D01*
X112776772Y-92288839D01*
X112538204Y-91931796D01*
X112181161Y-91693228D01*
X111866308Y-91630600D01*
X111653692Y-91630600D01*
X111338839Y-91693228D01*
X110981796Y-91931796D01*
X110782199Y-92230515D01*
X110782199Y-90649485D01*
X110981796Y-90948204D01*
X111338839Y-91186772D01*
X111653692Y-91249400D01*
X111866308Y-91249400D01*
X112181161Y-91186772D01*
X112538204Y-90948204D01*
X112776772Y-90591161D01*
X112860546Y-90170000D01*
X112776772Y-89748839D01*
X112538204Y-89391796D01*
X112181161Y-89153228D01*
X111866308Y-89090600D01*
X111653692Y-89090600D01*
X111338839Y-89153228D01*
X110981796Y-89391796D01*
X110782199Y-89690515D01*
X110782199Y-88109485D01*
X110981796Y-88408204D01*
X111338839Y-88646772D01*
X111653692Y-88709400D01*
X111866308Y-88709400D01*
X112181161Y-88646772D01*
X112538204Y-88408204D01*
X112776772Y-88051161D01*
X112860546Y-87630000D01*
X112776772Y-87208839D01*
X112538204Y-86851796D01*
X112181161Y-86613228D01*
X111866308Y-86550600D01*
X111653692Y-86550600D01*
X111338839Y-86613228D01*
X110981796Y-86851796D01*
X110782199Y-87150515D01*
X110782199Y-85569485D01*
X110981796Y-85868204D01*
X111338839Y-86106772D01*
X111653692Y-86169400D01*
X111866308Y-86169400D01*
X112181161Y-86106772D01*
X112538204Y-85868204D01*
X112776772Y-85511161D01*
X112860546Y-85090000D01*
X112776772Y-84668839D01*
X112718749Y-84582000D01*
X117009454Y-84582000D01*
X117093228Y-85003161D01*
X117331796Y-85360204D01*
X117688839Y-85598772D01*
X118003692Y-85661400D01*
X118216308Y-85661400D01*
X118428727Y-85619147D01*
X119087801Y-86278222D01*
X119087801Y-86642515D01*
X118888204Y-86343796D01*
X118531161Y-86105228D01*
X118216308Y-86042600D01*
X118003692Y-86042600D01*
X117688839Y-86105228D01*
X117331796Y-86343796D01*
X117093228Y-86700839D01*
X117009454Y-87122000D01*
X117093228Y-87543161D01*
X117331796Y-87900204D01*
X117688839Y-88138772D01*
X118003692Y-88201400D01*
X118216308Y-88201400D01*
X118531161Y-88138772D01*
X118888204Y-87900204D01*
X119087802Y-87601484D01*
X119087802Y-87965778D01*
X118428727Y-88624853D01*
X118216308Y-88582600D01*
X118003692Y-88582600D01*
X117688839Y-88645228D01*
X117331796Y-88883796D01*
X117093228Y-89240839D01*
X117009454Y-89662000D01*
X117093228Y-90083161D01*
X117331796Y-90440204D01*
X117688839Y-90678772D01*
X118003692Y-90741400D01*
X118216308Y-90741400D01*
X118428727Y-90699147D01*
X118872001Y-91142422D01*
X118872001Y-91752086D01*
X118768569Y-91794929D01*
X118464929Y-92098569D01*
X118300600Y-92495294D01*
X118300600Y-92924706D01*
X118464929Y-93321431D01*
X118768569Y-93625071D01*
X119165294Y-93789400D01*
X119594706Y-93789400D01*
X119767696Y-93717745D01*
X123551861Y-93717745D01*
X123625995Y-93963864D01*
X124163223Y-94156965D01*
X124733454Y-94129778D01*
X125134005Y-93963864D01*
X125208139Y-93717745D01*
X124380000Y-92889605D01*
X123551861Y-93717745D01*
X119767696Y-93717745D01*
X119991431Y-93625071D01*
X120295071Y-93321431D01*
X120459400Y-92924706D01*
X120459400Y-92495294D01*
X120458543Y-92493223D01*
X122933035Y-92493223D01*
X122960222Y-93063454D01*
X123126136Y-93464005D01*
X123372255Y-93538139D01*
X124200395Y-92710000D01*
X124559605Y-92710000D01*
X125387745Y-93538139D01*
X125633864Y-93464005D01*
X125826965Y-92926777D01*
X125799778Y-92356546D01*
X125633864Y-91955995D01*
X125387745Y-91881861D01*
X124559605Y-92710000D01*
X124200395Y-92710000D01*
X123372255Y-91881861D01*
X123126136Y-91955995D01*
X122933035Y-92493223D01*
X120458543Y-92493223D01*
X120416557Y-92391863D01*
X121106165Y-91702255D01*
X123551861Y-91702255D01*
X124380000Y-92530395D01*
X125208139Y-91702255D01*
X125134005Y-91456136D01*
X124596777Y-91263035D01*
X124026546Y-91290222D01*
X123625995Y-91456136D01*
X123551861Y-91702255D01*
X121106165Y-91702255D01*
X123146420Y-89662000D01*
X124629454Y-89662000D01*
X124713228Y-90083161D01*
X124951796Y-90440204D01*
X125308839Y-90678772D01*
X125623692Y-90741400D01*
X125836308Y-90741400D01*
X126151161Y-90678772D01*
X126508204Y-90440204D01*
X126746772Y-90083161D01*
X126830546Y-89662000D01*
X126746772Y-89240839D01*
X126508204Y-88883796D01*
X126151161Y-88645228D01*
X125836308Y-88582600D01*
X125623692Y-88582600D01*
X125308839Y-88645228D01*
X124951796Y-88883796D01*
X124713228Y-89240839D01*
X124629454Y-89662000D01*
X123146420Y-89662000D01*
X124934340Y-87874080D01*
X124951796Y-87900204D01*
X125308839Y-88138772D01*
X125623692Y-88201400D01*
X125836308Y-88201400D01*
X126151161Y-88138772D01*
X126508204Y-87900204D01*
X126746772Y-87543161D01*
X126830546Y-87122000D01*
X126746772Y-86700839D01*
X126508204Y-86343796D01*
X126151161Y-86105228D01*
X125836308Y-86042600D01*
X125623692Y-86042600D01*
X125411273Y-86084853D01*
X124752199Y-85425779D01*
X124752199Y-85061485D01*
X124951796Y-85360204D01*
X125308839Y-85598772D01*
X125623692Y-85661400D01*
X125836308Y-85661400D01*
X126151161Y-85598772D01*
X126508204Y-85360204D01*
X126746772Y-85003161D01*
X126830546Y-84582000D01*
X126746772Y-84160839D01*
X126508204Y-83803796D01*
X126151161Y-83565228D01*
X125836308Y-83502600D01*
X125623692Y-83502600D01*
X125308839Y-83565228D01*
X124951796Y-83803796D01*
X124752199Y-84102515D01*
X124752199Y-83738221D01*
X125411273Y-83079147D01*
X125623692Y-83121400D01*
X125836308Y-83121400D01*
X126151161Y-83058772D01*
X126508204Y-82820204D01*
X126746772Y-82463161D01*
X126830546Y-82042000D01*
X126746772Y-81620839D01*
X126508204Y-81263796D01*
X126151161Y-81025228D01*
X125836308Y-80962600D01*
X125623692Y-80962600D01*
X125411273Y-81004853D01*
X124752199Y-80345779D01*
X124752199Y-79981485D01*
X124951796Y-80280204D01*
X125308839Y-80518772D01*
X125623692Y-80581400D01*
X125836308Y-80581400D01*
X126151161Y-80518772D01*
X126508204Y-80280204D01*
X126746772Y-79923161D01*
X126830546Y-79502000D01*
X126746772Y-79080839D01*
X126508204Y-78723796D01*
X126151161Y-78485228D01*
X125836308Y-78422600D01*
X125623692Y-78422600D01*
X125308839Y-78485228D01*
X124951796Y-78723796D01*
X124752199Y-79022515D01*
X124752199Y-78658221D01*
X125411273Y-77999147D01*
X125623692Y-78041400D01*
X125836308Y-78041400D01*
X126151161Y-77978772D01*
X126508204Y-77740204D01*
X126746772Y-77383161D01*
X126830546Y-76962000D01*
X126746772Y-76540839D01*
X126508204Y-76183796D01*
X126151161Y-75945228D01*
X125836308Y-75882600D01*
X125623692Y-75882600D01*
X125308839Y-75945228D01*
X124951796Y-76183796D01*
X124713228Y-76540839D01*
X124629454Y-76962000D01*
X124692853Y-77280727D01*
X123920365Y-78053215D01*
X123877953Y-78081554D01*
X123849614Y-78123966D01*
X123849611Y-78123969D01*
X123765674Y-78249590D01*
X123726248Y-78447801D01*
X123736200Y-78497834D01*
X123736199Y-80506171D01*
X123726248Y-80556199D01*
X123736199Y-80606227D01*
X123736199Y-80606230D01*
X123765674Y-80754410D01*
X123877952Y-80922446D01*
X123920367Y-80950787D01*
X124692853Y-81723273D01*
X124629454Y-82042000D01*
X124692853Y-82360727D01*
X123920365Y-83133215D01*
X123877953Y-83161554D01*
X123849614Y-83203966D01*
X123849611Y-83203969D01*
X123765674Y-83329590D01*
X123726248Y-83527801D01*
X123736200Y-83577834D01*
X123736199Y-85586171D01*
X123726248Y-85636199D01*
X123736199Y-85686227D01*
X123736199Y-85686230D01*
X123747684Y-85743968D01*
X123765674Y-85834410D01*
X123789181Y-85869590D01*
X123877952Y-86002446D01*
X123920367Y-86030787D01*
X124627877Y-86738297D01*
X124601753Y-86755753D01*
X124573413Y-86798167D01*
X119888000Y-91483580D01*
X119888000Y-90982027D01*
X119897951Y-90931999D01*
X119888000Y-90881971D01*
X119888000Y-90881968D01*
X119858525Y-90733788D01*
X119825833Y-90684861D01*
X119774588Y-90608167D01*
X119774586Y-90608165D01*
X119746247Y-90565753D01*
X119703835Y-90537414D01*
X119147147Y-89980727D01*
X119210546Y-89662000D01*
X119147147Y-89343273D01*
X119919633Y-88570787D01*
X119962048Y-88542446D01*
X120074326Y-88374411D01*
X120103801Y-88226231D01*
X120103801Y-88226227D01*
X120113752Y-88176200D01*
X120103801Y-88126173D01*
X120103801Y-86117829D01*
X120113752Y-86067801D01*
X120103801Y-86017773D01*
X120103801Y-86017769D01*
X120074326Y-85869589D01*
X120050820Y-85834410D01*
X119990389Y-85743968D01*
X119990387Y-85743966D01*
X119962048Y-85701554D01*
X119919637Y-85673216D01*
X119147147Y-84900727D01*
X119210546Y-84582000D01*
X119126772Y-84160839D01*
X118888204Y-83803796D01*
X118531161Y-83565228D01*
X118216308Y-83502600D01*
X118003692Y-83502600D01*
X117688839Y-83565228D01*
X117331796Y-83803796D01*
X117093228Y-84160839D01*
X117009454Y-84582000D01*
X112718749Y-84582000D01*
X112538204Y-84311796D01*
X112181161Y-84073228D01*
X111866308Y-84010600D01*
X111653692Y-84010600D01*
X111338839Y-84073228D01*
X110981796Y-84311796D01*
X110782199Y-84610515D01*
X110782199Y-83029485D01*
X110981796Y-83328204D01*
X111338839Y-83566772D01*
X111653692Y-83629400D01*
X111866308Y-83629400D01*
X112181161Y-83566772D01*
X112538204Y-83328204D01*
X112776772Y-82971161D01*
X112860546Y-82550000D01*
X112776772Y-82128839D01*
X112538204Y-81771796D01*
X112181161Y-81533228D01*
X111866308Y-81470600D01*
X111653692Y-81470600D01*
X111338839Y-81533228D01*
X110981796Y-81771796D01*
X110782199Y-82070515D01*
X110782199Y-80489485D01*
X110981796Y-80788204D01*
X111338839Y-81026772D01*
X111653692Y-81089400D01*
X111866308Y-81089400D01*
X112181161Y-81026772D01*
X112236741Y-80989635D01*
X113515791Y-82268686D01*
X113535627Y-82298373D01*
X113565314Y-82318209D01*
X113565315Y-82318210D01*
X113653252Y-82376967D01*
X113792000Y-82404566D01*
X113827020Y-82397600D01*
X117080187Y-82397600D01*
X117093228Y-82463161D01*
X117331796Y-82820204D01*
X117688839Y-83058772D01*
X118003692Y-83121400D01*
X118216308Y-83121400D01*
X118531161Y-83058772D01*
X118888204Y-82820204D01*
X119126772Y-82463161D01*
X119210546Y-82042000D01*
X119126772Y-81620839D01*
X118888204Y-81263796D01*
X118531161Y-81025228D01*
X118216308Y-80962600D01*
X118003692Y-80962600D01*
X117688839Y-81025228D01*
X117331796Y-81263796D01*
X117093228Y-81620839D01*
X117080187Y-81686400D01*
X113939295Y-81686400D01*
X112739635Y-80486741D01*
X112776772Y-80431161D01*
X112860546Y-80010000D01*
X112776772Y-79588839D01*
X112538204Y-79231796D01*
X112181161Y-78993228D01*
X111866308Y-78930600D01*
X111653692Y-78930600D01*
X111338839Y-78993228D01*
X110981796Y-79231796D01*
X110782199Y-79530515D01*
X110782199Y-77949485D01*
X110981796Y-78248204D01*
X111338839Y-78486772D01*
X111653692Y-78549400D01*
X111866308Y-78549400D01*
X112181161Y-78486772D01*
X112538204Y-78248204D01*
X112776772Y-77891161D01*
X112860546Y-77470000D01*
X112776772Y-77048839D01*
X112718749Y-76962000D01*
X117009454Y-76962000D01*
X117093228Y-77383161D01*
X117331796Y-77740204D01*
X117688839Y-77978772D01*
X117754401Y-77991813D01*
X117754400Y-78472187D01*
X117688839Y-78485228D01*
X117331796Y-78723796D01*
X117093228Y-79080839D01*
X117009454Y-79502000D01*
X117093228Y-79923161D01*
X117331796Y-80280204D01*
X117688839Y-80518772D01*
X118003692Y-80581400D01*
X118216308Y-80581400D01*
X118531161Y-80518772D01*
X118888204Y-80280204D01*
X119126772Y-79923161D01*
X119210546Y-79502000D01*
X119126772Y-79080839D01*
X118888204Y-78723796D01*
X118531161Y-78485228D01*
X118465600Y-78472187D01*
X118465600Y-77991813D01*
X118531161Y-77978772D01*
X118888204Y-77740204D01*
X119126772Y-77383161D01*
X119210546Y-76962000D01*
X119126772Y-76540839D01*
X118888204Y-76183796D01*
X118531161Y-75945228D01*
X118216308Y-75882600D01*
X118003692Y-75882600D01*
X117688839Y-75945228D01*
X117331796Y-76183796D01*
X117093228Y-76540839D01*
X117009454Y-76962000D01*
X112718749Y-76962000D01*
X112538204Y-76691796D01*
X112181161Y-76453228D01*
X111866308Y-76390600D01*
X111653692Y-76390600D01*
X111338839Y-76453228D01*
X110981796Y-76691796D01*
X110782199Y-76990515D01*
X110782199Y-75409485D01*
X110981796Y-75708204D01*
X111338839Y-75946772D01*
X111653692Y-76009400D01*
X111866308Y-76009400D01*
X112181161Y-75946772D01*
X112538204Y-75708204D01*
X112776772Y-75351161D01*
X112860546Y-74930000D01*
X112776772Y-74508839D01*
X112538204Y-74151796D01*
X112181161Y-73913228D01*
X111866308Y-73850600D01*
X111653692Y-73850600D01*
X111338839Y-73913228D01*
X110981796Y-74151796D01*
X110782199Y-74450515D01*
X110782199Y-74086221D01*
X111246420Y-73622000D01*
X117025127Y-73622000D01*
X117025127Y-75222000D01*
X117046812Y-75331016D01*
X117108564Y-75423436D01*
X117200984Y-75485188D01*
X117310000Y-75506873D01*
X118910000Y-75506873D01*
X119019016Y-75485188D01*
X119111436Y-75423436D01*
X119173188Y-75331016D01*
X119194873Y-75222000D01*
X119194873Y-74771039D01*
X124338096Y-74771039D01*
X124498959Y-75159423D01*
X124874866Y-75574389D01*
X125380959Y-75813914D01*
X125603000Y-75692629D01*
X125603000Y-74549000D01*
X125857000Y-74549000D01*
X125857000Y-75692629D01*
X126079041Y-75813914D01*
X126585134Y-75574389D01*
X126961041Y-75159423D01*
X127121904Y-74771039D01*
X126999915Y-74549000D01*
X125857000Y-74549000D01*
X125603000Y-74549000D01*
X124460085Y-74549000D01*
X124338096Y-74771039D01*
X119194873Y-74771039D01*
X119194873Y-74758215D01*
X119201148Y-74756967D01*
X119318773Y-74678373D01*
X119338611Y-74648683D01*
X119914333Y-74072961D01*
X124338096Y-74072961D01*
X124460085Y-74295000D01*
X125603000Y-74295000D01*
X125603000Y-73151371D01*
X125857000Y-73151371D01*
X125857000Y-74295000D01*
X126999915Y-74295000D01*
X127121904Y-74072961D01*
X126961041Y-73684577D01*
X126585134Y-73269611D01*
X126079041Y-73030086D01*
X125857000Y-73151371D01*
X125603000Y-73151371D01*
X125380959Y-73030086D01*
X124874866Y-73269611D01*
X124498959Y-73684577D01*
X124338096Y-74072961D01*
X119914333Y-74072961D01*
X120876683Y-73110611D01*
X120906373Y-73090773D01*
X120984967Y-72973148D01*
X121005600Y-72869420D01*
X121005600Y-72869416D01*
X121012565Y-72834401D01*
X121005600Y-72799386D01*
X121005600Y-68394873D01*
X121450000Y-68394873D01*
X121559016Y-68373188D01*
X121651436Y-68311436D01*
X121713188Y-68219016D01*
X121734873Y-68110000D01*
X121734873Y-67095294D01*
X122070600Y-67095294D01*
X122070600Y-67524706D01*
X122234929Y-67921431D01*
X122538569Y-68225071D01*
X122935294Y-68389400D01*
X123364706Y-68389400D01*
X123761431Y-68225071D01*
X124065071Y-67921431D01*
X124229400Y-67524706D01*
X124229400Y-67095294D01*
X124065071Y-66698569D01*
X123761431Y-66394929D01*
X123364706Y-66230600D01*
X122935294Y-66230600D01*
X122538569Y-66394929D01*
X122234929Y-66698569D01*
X122070600Y-67095294D01*
X121734873Y-67095294D01*
X121734873Y-66510000D01*
X121713188Y-66400984D01*
X121651436Y-66308564D01*
X121559016Y-66246812D01*
X121450000Y-66225127D01*
X121005600Y-66225127D01*
X121005600Y-63364745D01*
X122996861Y-63364745D01*
X123070995Y-63610864D01*
X123608223Y-63803965D01*
X124178454Y-63776778D01*
X124579005Y-63610864D01*
X124653139Y-63364745D01*
X123825000Y-62536605D01*
X122996861Y-63364745D01*
X121005600Y-63364745D01*
X121005600Y-63027020D01*
X121012566Y-62992000D01*
X120984967Y-62853252D01*
X120980530Y-62846612D01*
X121094400Y-62571706D01*
X121094400Y-62142294D01*
X121093543Y-62140223D01*
X122378035Y-62140223D01*
X122405222Y-62710454D01*
X122571136Y-63111005D01*
X122817255Y-63185139D01*
X123645395Y-62357000D01*
X124004605Y-62357000D01*
X124832745Y-63185139D01*
X125078864Y-63111005D01*
X125271965Y-62573777D01*
X125244778Y-62003546D01*
X125078864Y-61602995D01*
X124832745Y-61528861D01*
X124004605Y-62357000D01*
X123645395Y-62357000D01*
X122817255Y-61528861D01*
X122571136Y-61602995D01*
X122378035Y-62140223D01*
X121093543Y-62140223D01*
X120930071Y-61745569D01*
X120626431Y-61441929D01*
X120402697Y-61349255D01*
X122996861Y-61349255D01*
X123825000Y-62177395D01*
X124653139Y-61349255D01*
X124579005Y-61103136D01*
X124041777Y-60910035D01*
X123471546Y-60937222D01*
X123070995Y-61103136D01*
X122996861Y-61349255D01*
X120402697Y-61349255D01*
X120229706Y-61277600D01*
X119800294Y-61277600D01*
X119403569Y-61441929D01*
X119099929Y-61745569D01*
X118935600Y-62142294D01*
X118935600Y-62571706D01*
X119099929Y-62968431D01*
X119403569Y-63272071D01*
X119800294Y-63436400D01*
X120229706Y-63436400D01*
X120294401Y-63409602D01*
X120294400Y-66225127D01*
X119850000Y-66225127D01*
X119740984Y-66246812D01*
X119648564Y-66308564D01*
X119586812Y-66400984D01*
X119565127Y-66510000D01*
X119565127Y-68110000D01*
X119586812Y-68219016D01*
X119648564Y-68311436D01*
X119740984Y-68373188D01*
X119850000Y-68394873D01*
X120294400Y-68394873D01*
X120294401Y-72687105D01*
X119194873Y-73786633D01*
X119194873Y-73622000D01*
X119173188Y-73512984D01*
X119111436Y-73420564D01*
X119019016Y-73358812D01*
X118910000Y-73337127D01*
X117310000Y-73337127D01*
X117200984Y-73358812D01*
X117108564Y-73420564D01*
X117046812Y-73512984D01*
X117025127Y-73622000D01*
X111246420Y-73622000D01*
X111441273Y-73427147D01*
X111653692Y-73469400D01*
X111866308Y-73469400D01*
X112181161Y-73406772D01*
X112538204Y-73168204D01*
X112776772Y-72811161D01*
X112860546Y-72390000D01*
X112776772Y-71968839D01*
X112538204Y-71611796D01*
X112181161Y-71373228D01*
X111866308Y-71310600D01*
X111653692Y-71310600D01*
X111338839Y-71373228D01*
X110981796Y-71611796D01*
X110743228Y-71968839D01*
X110659454Y-72390000D01*
X110722853Y-72708727D01*
X109950367Y-73481213D01*
X109907952Y-73509554D01*
X109795674Y-73677590D01*
X109766199Y-73825770D01*
X109766199Y-73825773D01*
X109756248Y-73875801D01*
X109766199Y-73925829D01*
X109766199Y-78188886D01*
X109747643Y-78181200D01*
X109500077Y-78181200D01*
X109271355Y-78275939D01*
X109096299Y-78450995D01*
X109001560Y-78679717D01*
X109001560Y-78927283D01*
X109090461Y-79141910D01*
X109090460Y-81309254D01*
X109070899Y-81328815D01*
X108976160Y-81557537D01*
X108976160Y-81805103D01*
X109070899Y-82033825D01*
X109090461Y-82053387D01*
X109090461Y-82256804D01*
X109049061Y-82156855D01*
X108877100Y-81984894D01*
X108877100Y-69850000D01*
X110659454Y-69850000D01*
X110743228Y-70271161D01*
X110981796Y-70628204D01*
X111338839Y-70866772D01*
X111653692Y-70929400D01*
X111866308Y-70929400D01*
X112181161Y-70866772D01*
X112538204Y-70628204D01*
X112776772Y-70271161D01*
X112860546Y-69850000D01*
X112776772Y-69428839D01*
X112538204Y-69071796D01*
X112181161Y-68833228D01*
X111866308Y-68770600D01*
X111653692Y-68770600D01*
X111338839Y-68833228D01*
X110981796Y-69071796D01*
X110743228Y-69428839D01*
X110659454Y-69850000D01*
X108877100Y-69850000D01*
X108877100Y-57974198D01*
X109514641Y-57336657D01*
X109514641Y-57353378D01*
X109514640Y-57948874D01*
X109495079Y-57968435D01*
X109400340Y-58197157D01*
X109400340Y-58444723D01*
X109495079Y-58673445D01*
X109514641Y-58693007D01*
X109514640Y-60603174D01*
X109495079Y-60622735D01*
X109400340Y-60851457D01*
X109400340Y-61099023D01*
X109495079Y-61327745D01*
X109514641Y-61347307D01*
X109514640Y-63089834D01*
X109495079Y-63109395D01*
X109400340Y-63338117D01*
X109400340Y-63585683D01*
X109495079Y-63814405D01*
X109514641Y-63833967D01*
X109514640Y-65436794D01*
X109495079Y-65456355D01*
X109400340Y-65685077D01*
X109400340Y-65932643D01*
X109495079Y-66161365D01*
X109514641Y-66180927D01*
X109514640Y-67682154D01*
X109495079Y-67701715D01*
X109400340Y-67930437D01*
X109400340Y-68178003D01*
X109495079Y-68406725D01*
X109670135Y-68581781D01*
X109898857Y-68676520D01*
X110146423Y-68676520D01*
X110375145Y-68581781D01*
X110550201Y-68406725D01*
X110644940Y-68178003D01*
X110644940Y-67930437D01*
X110550201Y-67701715D01*
X110530640Y-67682154D01*
X110530640Y-67310000D01*
X110659454Y-67310000D01*
X110743228Y-67731161D01*
X110981796Y-68088204D01*
X111338839Y-68326772D01*
X111653692Y-68389400D01*
X111866308Y-68389400D01*
X112181161Y-68326772D01*
X112538204Y-68088204D01*
X112776772Y-67731161D01*
X112860546Y-67310000D01*
X112776772Y-66888839D01*
X112538204Y-66531796D01*
X112181161Y-66293228D01*
X111866308Y-66230600D01*
X111653692Y-66230600D01*
X111338839Y-66293228D01*
X110981796Y-66531796D01*
X110743228Y-66888839D01*
X110659454Y-67310000D01*
X110530640Y-67310000D01*
X110530640Y-66180926D01*
X110550201Y-66161365D01*
X110644940Y-65932643D01*
X110644940Y-65685077D01*
X110550201Y-65456355D01*
X110530640Y-65436794D01*
X110530640Y-64770000D01*
X110659454Y-64770000D01*
X110743228Y-65191161D01*
X110981796Y-65548204D01*
X111338839Y-65786772D01*
X111653692Y-65849400D01*
X111866308Y-65849400D01*
X112181161Y-65786772D01*
X112538204Y-65548204D01*
X112776772Y-65191161D01*
X112860546Y-64770000D01*
X112776772Y-64348839D01*
X112538204Y-63991796D01*
X112181161Y-63753228D01*
X111866308Y-63690600D01*
X111653692Y-63690600D01*
X111338839Y-63753228D01*
X110981796Y-63991796D01*
X110743228Y-64348839D01*
X110659454Y-64770000D01*
X110530640Y-64770000D01*
X110530640Y-63833966D01*
X110550201Y-63814405D01*
X110644940Y-63585683D01*
X110644940Y-63338117D01*
X110550201Y-63109395D01*
X110530640Y-63089834D01*
X110530640Y-62230000D01*
X110659454Y-62230000D01*
X110743228Y-62651161D01*
X110981796Y-63008204D01*
X111338839Y-63246772D01*
X111653692Y-63309400D01*
X111866308Y-63309400D01*
X112181161Y-63246772D01*
X112538204Y-63008204D01*
X112776772Y-62651161D01*
X112860546Y-62230000D01*
X112776772Y-61808839D01*
X112538204Y-61451796D01*
X112181161Y-61213228D01*
X111866308Y-61150600D01*
X111653692Y-61150600D01*
X111338839Y-61213228D01*
X110981796Y-61451796D01*
X110743228Y-61808839D01*
X110659454Y-62230000D01*
X110530640Y-62230000D01*
X110530640Y-61347306D01*
X110550201Y-61327745D01*
X110644940Y-61099023D01*
X110644940Y-60851457D01*
X110550201Y-60622735D01*
X110530640Y-60603174D01*
X110530640Y-59690000D01*
X110659454Y-59690000D01*
X110743228Y-60111161D01*
X110981796Y-60468204D01*
X111338839Y-60706772D01*
X111653692Y-60769400D01*
X111866308Y-60769400D01*
X112181161Y-60706772D01*
X112538204Y-60468204D01*
X112776772Y-60111161D01*
X112860546Y-59690000D01*
X112776772Y-59268839D01*
X112538204Y-58911796D01*
X112181161Y-58673228D01*
X111866308Y-58610600D01*
X111653692Y-58610600D01*
X111338839Y-58673228D01*
X110981796Y-58911796D01*
X110743228Y-59268839D01*
X110659454Y-59690000D01*
X110530640Y-59690000D01*
X110530640Y-58693006D01*
X110550201Y-58673445D01*
X110644940Y-58444723D01*
X110644940Y-58197157D01*
X110550201Y-57968435D01*
X110530640Y-57948874D01*
X110530640Y-57353378D01*
X110530640Y-57150000D01*
X110659454Y-57150000D01*
X110743228Y-57571161D01*
X110981796Y-57928204D01*
X111338839Y-58166772D01*
X111653692Y-58229400D01*
X111866308Y-58229400D01*
X112181161Y-58166772D01*
X112538204Y-57928204D01*
X112776772Y-57571161D01*
X112860546Y-57150000D01*
X112776772Y-56728839D01*
X112538204Y-56371796D01*
X112181161Y-56133228D01*
X111866308Y-56070600D01*
X111653692Y-56070600D01*
X111338839Y-56133228D01*
X110981796Y-56371796D01*
X110743228Y-56728839D01*
X110659454Y-57150000D01*
X110530640Y-57150000D01*
X110530639Y-56465427D01*
X110550201Y-56445865D01*
X110644940Y-56217143D01*
X110644940Y-55969577D01*
X110550201Y-55740855D01*
X110530639Y-55721293D01*
X110530639Y-54610000D01*
X110659454Y-54610000D01*
X110743228Y-55031161D01*
X110981796Y-55388204D01*
X111338839Y-55626772D01*
X111653692Y-55689400D01*
X111866308Y-55689400D01*
X112181161Y-55626772D01*
X112538204Y-55388204D01*
X112776772Y-55031161D01*
X112860546Y-54610000D01*
X112776772Y-54188839D01*
X112538204Y-53831796D01*
X112181161Y-53593228D01*
X111866308Y-53530600D01*
X111653692Y-53530600D01*
X111338839Y-53593228D01*
X110981796Y-53831796D01*
X110743228Y-54188839D01*
X110659454Y-54610000D01*
X110530639Y-54610000D01*
X110530638Y-54230228D01*
X110552741Y-54208125D01*
X110647480Y-53979403D01*
X110647480Y-53731837D01*
X110552741Y-53503115D01*
X110533180Y-53483554D01*
X110533180Y-52170286D01*
X110565441Y-52138025D01*
X110593617Y-52070000D01*
X110659454Y-52070000D01*
X110743228Y-52491161D01*
X110981796Y-52848204D01*
X111338839Y-53086772D01*
X111653692Y-53149400D01*
X111866308Y-53149400D01*
X112181161Y-53086772D01*
X112538204Y-52848204D01*
X112776772Y-52491161D01*
X112860546Y-52070000D01*
X112776772Y-51648839D01*
X112538204Y-51291796D01*
X112371656Y-51180512D01*
X118354600Y-51180512D01*
X118354600Y-51689488D01*
X118549377Y-52159722D01*
X118909278Y-52519623D01*
X119379512Y-52714400D01*
X119888488Y-52714400D01*
X120358722Y-52519623D01*
X120718623Y-52159722D01*
X120913400Y-51689488D01*
X120913400Y-51180512D01*
X120718623Y-50710278D01*
X120358722Y-50350377D01*
X119888488Y-50155600D01*
X119379512Y-50155600D01*
X118909278Y-50350377D01*
X118549377Y-50710278D01*
X118354600Y-51180512D01*
X112371656Y-51180512D01*
X112181161Y-51053228D01*
X111866308Y-50990600D01*
X111653692Y-50990600D01*
X111338839Y-51053228D01*
X110981796Y-51291796D01*
X110743228Y-51648839D01*
X110659454Y-52070000D01*
X110593617Y-52070000D01*
X110660180Y-51909303D01*
X110660180Y-51661737D01*
X110565441Y-51433015D01*
X110390385Y-51257959D01*
X110161663Y-51163220D01*
X110131887Y-51163220D01*
X110370647Y-50924460D01*
X117096688Y-50924460D01*
X117131708Y-50931426D01*
X117166728Y-50924460D01*
X117270456Y-50903827D01*
X117388081Y-50825233D01*
X117407919Y-50795543D01*
X122017150Y-46186313D01*
X122046837Y-46166477D01*
X122125431Y-46048852D01*
X122146064Y-45945124D01*
X122153030Y-45910104D01*
X122146064Y-45875084D01*
X122146064Y-45199270D01*
X122988793Y-44356541D01*
X122854600Y-44680512D01*
X122854600Y-45189488D01*
X123049377Y-45659722D01*
X123409278Y-46019623D01*
X123778401Y-46172518D01*
X123778400Y-50197482D01*
X123409278Y-50350377D01*
X123049377Y-50710278D01*
X122854600Y-51180512D01*
X122854600Y-51689488D01*
X123049377Y-52159722D01*
X123409278Y-52519623D01*
X123469401Y-52544527D01*
X123469400Y-53707187D01*
X123403839Y-53720228D01*
X123046796Y-53958796D01*
X122808228Y-54315839D01*
X122795187Y-54381400D01*
X121044813Y-54381400D01*
X121031772Y-54315839D01*
X120793204Y-53958796D01*
X120436161Y-53720228D01*
X120121308Y-53657600D01*
X119908692Y-53657600D01*
X119593839Y-53720228D01*
X119236796Y-53958796D01*
X118998228Y-54315839D01*
X118914454Y-54737000D01*
X118998228Y-55158161D01*
X119236796Y-55515204D01*
X119593839Y-55753772D01*
X119908692Y-55816400D01*
X120121308Y-55816400D01*
X120436161Y-55753772D01*
X120793204Y-55515204D01*
X121031772Y-55158161D01*
X121044813Y-55092600D01*
X122795187Y-55092600D01*
X122808228Y-55158161D01*
X123046796Y-55515204D01*
X123403839Y-55753772D01*
X123718692Y-55816400D01*
X123931308Y-55816400D01*
X124246161Y-55753772D01*
X124603204Y-55515204D01*
X124841772Y-55158161D01*
X124925546Y-54737000D01*
X124841772Y-54315839D01*
X124603204Y-53958796D01*
X124246161Y-53720228D01*
X124180600Y-53707187D01*
X124180600Y-52714400D01*
X124388488Y-52714400D01*
X124858722Y-52519623D01*
X125218623Y-52159722D01*
X125413400Y-51689488D01*
X125413400Y-51180512D01*
X125218623Y-50710278D01*
X124858722Y-50350377D01*
X124489600Y-50197482D01*
X124489600Y-46172518D01*
X124858722Y-46019623D01*
X125218623Y-45659722D01*
X125413400Y-45189488D01*
X125413400Y-44680512D01*
X125218623Y-44210278D01*
X124858722Y-43850377D01*
X124388488Y-43655600D01*
X123879512Y-43655600D01*
X123555541Y-43789793D01*
X127772451Y-39572883D01*
X127844570Y-39621071D01*
X128174005Y-39686600D01*
X128396475Y-39686600D01*
X128725910Y-39621071D01*
X129099492Y-39371452D01*
X129349111Y-38997870D01*
X129436766Y-38557200D01*
X129349111Y-38116530D01*
X129099492Y-37742948D01*
X128725910Y-37493329D01*
X128396475Y-37427800D01*
X128174005Y-37427800D01*
X127844570Y-37493329D01*
X127470988Y-37742948D01*
X127221369Y-38116530D01*
X127187960Y-38284488D01*
X127187960Y-37617374D01*
X127772451Y-37032883D01*
X127844570Y-37081071D01*
X128174005Y-37146600D01*
X128396475Y-37146600D01*
X128725910Y-37081071D01*
X129099492Y-36831452D01*
X129349111Y-36457870D01*
X129436766Y-36017200D01*
X129349111Y-35576530D01*
X129099492Y-35202948D01*
X128725910Y-34953329D01*
X128396475Y-34887800D01*
X128174005Y-34887800D01*
X127844570Y-34953329D01*
X127470988Y-35202948D01*
X127221369Y-35576530D01*
X127133714Y-36017200D01*
X127221369Y-36457870D01*
X127269557Y-36529989D01*
X126605675Y-37193871D01*
X126575987Y-37213708D01*
X126556151Y-37243395D01*
X126556150Y-37243396D01*
X126497393Y-37331333D01*
X126469794Y-37470080D01*
X126476760Y-37505100D01*
X126476760Y-37687668D01*
X126185910Y-37493329D01*
X125856475Y-37427800D01*
X125634005Y-37427800D01*
X125304570Y-37493329D01*
X124930988Y-37742948D01*
X124681369Y-38116530D01*
X124658120Y-38233410D01*
X124658120Y-37607214D01*
X125232451Y-37032883D01*
X125304570Y-37081071D01*
X125634005Y-37146600D01*
X125856475Y-37146600D01*
X126185910Y-37081071D01*
X126559492Y-36831452D01*
X126809111Y-36457870D01*
X126896766Y-36017200D01*
X126809111Y-35576530D01*
X126559492Y-35202948D01*
X126185910Y-34953329D01*
X125856475Y-34887800D01*
X125634005Y-34887800D01*
X125304570Y-34953329D01*
X124930988Y-35202948D01*
X124681369Y-35576530D01*
X124593714Y-36017200D01*
X124681369Y-36457870D01*
X124729557Y-36529989D01*
X124075835Y-37183711D01*
X124046147Y-37203548D01*
X124026311Y-37233235D01*
X124026310Y-37233236D01*
X123967553Y-37321173D01*
X123939954Y-37459920D01*
X123946920Y-37494940D01*
X123946920Y-37694457D01*
X123645910Y-37493329D01*
X123316475Y-37427800D01*
X123094005Y-37427800D01*
X122764570Y-37493329D01*
X122390988Y-37742948D01*
X122141369Y-38116530D01*
X122113040Y-38258949D01*
X122113040Y-37185574D01*
X122436651Y-36861963D01*
X122764570Y-37081071D01*
X123094005Y-37146600D01*
X123316475Y-37146600D01*
X123645910Y-37081071D01*
X124019492Y-36831452D01*
X124269111Y-36457870D01*
X124356766Y-36017200D01*
X124269111Y-35576530D01*
X124019492Y-35202948D01*
X123645910Y-34953329D01*
X123316475Y-34887800D01*
X123094005Y-34887800D01*
X122764570Y-34953329D01*
X122390988Y-35202948D01*
X122141369Y-35576530D01*
X122053714Y-36017200D01*
X122090532Y-36202294D01*
X121530755Y-36762071D01*
X121521895Y-36767991D01*
X121729111Y-36457870D01*
X121816766Y-36017200D01*
X121729111Y-35576530D01*
X121479492Y-35202948D01*
X121105910Y-34953329D01*
X120776475Y-34887800D01*
X120554005Y-34887800D01*
X120224570Y-34953329D01*
X119850988Y-35202948D01*
X119601369Y-35576530D01*
X119524835Y-35961290D01*
X119229052Y-36257074D01*
X119276766Y-36017200D01*
X119189111Y-35576530D01*
X118939492Y-35202948D01*
X118565910Y-34953329D01*
X118236475Y-34887800D01*
X118014005Y-34887800D01*
X117684570Y-34953329D01*
X117310988Y-35202948D01*
X117061369Y-35576530D01*
X116973714Y-36017200D01*
X116977240Y-36034926D01*
X116672654Y-36339512D01*
X116736766Y-36017200D01*
X116649111Y-35576530D01*
X116399492Y-35202948D01*
X116025910Y-34953329D01*
X115696475Y-34887800D01*
X115474005Y-34887800D01*
X115144570Y-34953329D01*
X114770988Y-35202948D01*
X114521369Y-35576530D01*
X114433714Y-36017200D01*
X114513516Y-36418390D01*
X113903135Y-37028771D01*
X113873447Y-37048608D01*
X113853611Y-37078295D01*
X113853610Y-37078296D01*
X113794853Y-37166233D01*
X113767254Y-37304980D01*
X113774220Y-37340000D01*
X113774220Y-37685971D01*
X113485910Y-37493329D01*
X113156475Y-37427800D01*
X112934005Y-37427800D01*
X112604570Y-37493329D01*
X112230988Y-37742948D01*
X111981369Y-38116530D01*
X111947960Y-38284488D01*
X111947960Y-37360834D01*
X112378667Y-36930127D01*
X112604570Y-37081071D01*
X112934005Y-37146600D01*
X113156475Y-37146600D01*
X113485910Y-37081071D01*
X113859492Y-36831452D01*
X114109111Y-36457870D01*
X114196766Y-36017200D01*
X114109111Y-35576530D01*
X113859492Y-35202948D01*
X113485910Y-34953329D01*
X113156475Y-34887800D01*
X112934005Y-34887800D01*
X112604570Y-34953329D01*
X112230988Y-35202948D01*
X111981369Y-35576530D01*
X111893714Y-36017200D01*
X111958766Y-36344240D01*
X111365675Y-36937331D01*
X111335987Y-36957168D01*
X111316151Y-36986855D01*
X111316150Y-36986856D01*
X111257393Y-37074793D01*
X111229794Y-37213540D01*
X111236760Y-37248560D01*
X111236760Y-37687669D01*
X110945910Y-37493329D01*
X110616475Y-37427800D01*
X110394005Y-37427800D01*
X110064570Y-37493329D01*
X109690988Y-37742948D01*
X109441369Y-38116530D01*
X109400340Y-38322796D01*
X109400340Y-37261774D01*
X109774717Y-36887397D01*
X110064570Y-37081071D01*
X110394005Y-37146600D01*
X110616475Y-37146600D01*
X110945910Y-37081071D01*
X111319492Y-36831452D01*
X111569111Y-36457870D01*
X111656766Y-36017200D01*
X111569111Y-35576530D01*
X111319492Y-35202948D01*
X110945910Y-34953329D01*
X110616475Y-34887800D01*
X110394005Y-34887800D01*
X110064570Y-34953329D01*
X109690988Y-35202948D01*
X109441369Y-35576530D01*
X109353714Y-36017200D01*
X109401067Y-36255259D01*
X108818055Y-36838271D01*
X108788367Y-36858108D01*
X108768531Y-36887795D01*
X108768530Y-36887796D01*
X108709773Y-36975733D01*
X108682174Y-37114480D01*
X108689140Y-37149500D01*
X108689140Y-37682577D01*
X108405910Y-37493329D01*
X108076475Y-37427800D01*
X107854005Y-37427800D01*
X107524570Y-37493329D01*
X107150988Y-37742948D01*
X106901369Y-38116530D01*
X106873040Y-38258949D01*
X106873040Y-37188114D01*
X107198174Y-36862980D01*
X107524570Y-37081071D01*
X107854005Y-37146600D01*
X108076475Y-37146600D01*
X108405910Y-37081071D01*
X108779492Y-36831452D01*
X109029111Y-36457870D01*
X109116766Y-36017200D01*
X109029111Y-35576530D01*
X108779492Y-35202948D01*
X108405910Y-34953329D01*
X108076475Y-34887800D01*
X107854005Y-34887800D01*
X107524570Y-34953329D01*
X107150988Y-35202948D01*
X106901369Y-35576530D01*
X106813714Y-36017200D01*
X106850953Y-36204413D01*
X106290755Y-36764611D01*
X106278829Y-36772580D01*
X106489111Y-36457870D01*
X106576766Y-36017200D01*
X106489111Y-35576530D01*
X106239492Y-35202948D01*
X105865910Y-34953329D01*
X105536475Y-34887800D01*
X105314005Y-34887800D01*
X104984570Y-34953329D01*
X104610988Y-35202948D01*
X104361369Y-35576530D01*
X104273714Y-36017200D01*
X104353516Y-36418390D01*
X104211999Y-36559907D01*
X104199048Y-36551253D01*
X103975085Y-36327290D01*
X104036766Y-36017200D01*
X103949111Y-35576530D01*
X103699492Y-35202948D01*
X103325910Y-34953329D01*
X102996475Y-34887800D01*
X102774005Y-34887800D01*
X102444570Y-34953329D01*
X102070988Y-35202948D01*
X101821369Y-35576530D01*
X101733714Y-36017200D01*
X101821369Y-36457870D01*
X102070988Y-36831452D01*
X102444570Y-37081071D01*
X102774005Y-37146600D01*
X102996475Y-37146600D01*
X103325910Y-37081071D01*
X103563994Y-36921989D01*
X103616760Y-36974755D01*
X103616760Y-37687669D01*
X103325910Y-37493329D01*
X102996475Y-37427800D01*
X102774005Y-37427800D01*
X102444570Y-37493329D01*
X102070988Y-37742948D01*
X101821369Y-38116530D01*
X101780340Y-38322796D01*
X101780340Y-37131720D01*
X101787306Y-37096700D01*
X101759707Y-36957952D01*
X101700950Y-36870016D01*
X101700949Y-36870015D01*
X101681112Y-36840327D01*
X101651425Y-36820491D01*
X101360923Y-36529989D01*
X101409111Y-36457870D01*
X101496766Y-36017200D01*
X101409111Y-35576530D01*
X101159492Y-35202948D01*
X100785910Y-34953329D01*
X100456475Y-34887800D01*
X100234005Y-34887800D01*
X99904570Y-34953329D01*
X99530988Y-35202948D01*
X99281369Y-35576530D01*
X99193714Y-36017200D01*
X99281369Y-36457870D01*
X99530988Y-36831452D01*
X99904570Y-37081071D01*
X100234005Y-37146600D01*
X100456475Y-37146600D01*
X100785910Y-37081071D01*
X100858029Y-37032883D01*
X101069140Y-37243994D01*
X101069140Y-37682577D01*
X100785910Y-37493329D01*
X100456475Y-37427800D01*
X100234005Y-37427800D01*
X99904570Y-37493329D01*
X99530988Y-37742948D01*
X99281369Y-38116530D01*
X99258120Y-38233410D01*
X99258120Y-36870100D01*
X99265086Y-36835080D01*
X99237487Y-36696332D01*
X99178730Y-36608395D01*
X99178727Y-36608392D01*
X99158892Y-36578707D01*
X99129208Y-36558873D01*
X98895506Y-36325172D01*
X98956766Y-36017200D01*
X98869111Y-35576530D01*
X98619492Y-35202948D01*
X98245910Y-34953329D01*
X97916475Y-34887800D01*
X97694005Y-34887800D01*
X97364570Y-34953329D01*
X96990988Y-35202948D01*
X96741369Y-35576530D01*
X96653714Y-36017200D01*
X96741369Y-36457870D01*
X96990988Y-36831452D01*
X97364570Y-37081071D01*
X97694005Y-37146600D01*
X97916475Y-37146600D01*
X98245910Y-37081071D01*
X98485517Y-36920971D01*
X98546920Y-36982375D01*
X98546920Y-37694457D01*
X98245910Y-37493329D01*
X97916475Y-37427800D01*
X97694005Y-37427800D01*
X97364570Y-37493329D01*
X96990988Y-37742948D01*
X96748600Y-38105708D01*
X96748600Y-36725318D01*
X96755566Y-36690299D01*
X96740598Y-36615052D01*
X96727967Y-36551552D01*
X96649372Y-36433927D01*
X96619685Y-36414091D01*
X96384584Y-36178990D01*
X96416766Y-36017200D01*
X96329111Y-35576530D01*
X96079492Y-35202948D01*
X95705910Y-34953329D01*
X95376475Y-34887800D01*
X95154005Y-34887800D01*
X94824570Y-34953329D01*
X94450988Y-35202948D01*
X94201369Y-35576530D01*
X94113714Y-36017200D01*
X94201369Y-36457870D01*
X94450988Y-36831452D01*
X94824570Y-37081071D01*
X95154005Y-37146600D01*
X95376475Y-37146600D01*
X95705910Y-37081071D01*
X96037400Y-36859577D01*
X96037400Y-37714823D01*
X95705910Y-37493329D01*
X95376475Y-37427800D01*
X95154005Y-37427800D01*
X94824570Y-37493329D01*
X94450988Y-37742948D01*
X94201369Y-38116530D01*
X94160340Y-38322796D01*
X94160340Y-37131720D01*
X94167306Y-37096700D01*
X94139707Y-36957952D01*
X94080950Y-36870016D01*
X94080949Y-36870015D01*
X94061112Y-36840327D01*
X94031425Y-36820491D01*
X93740923Y-36529989D01*
X93789111Y-36457870D01*
X93876766Y-36017200D01*
X93789111Y-35576530D01*
X93539492Y-35202948D01*
X93165910Y-34953329D01*
X92836475Y-34887800D01*
X92614005Y-34887800D01*
X92284570Y-34953329D01*
X91910988Y-35202948D01*
X91661369Y-35576530D01*
X91573714Y-36017200D01*
X91661369Y-36457870D01*
X91910988Y-36831452D01*
X92284570Y-37081071D01*
X92614005Y-37146600D01*
X92836475Y-37146600D01*
X93165910Y-37081071D01*
X93238029Y-37032883D01*
X93449140Y-37243994D01*
X93449140Y-37682577D01*
X93165910Y-37493329D01*
X92836475Y-37427800D01*
X92614005Y-37427800D01*
X92284570Y-37493329D01*
X91910988Y-37742948D01*
X91661369Y-38116530D01*
X91622880Y-38310027D01*
X91622880Y-36788820D01*
X91629846Y-36753800D01*
X91602247Y-36615052D01*
X91543490Y-36527115D01*
X91543487Y-36527112D01*
X91523652Y-36497427D01*
X91493968Y-36477593D01*
X91286463Y-36270089D01*
X91336766Y-36017200D01*
X91249111Y-35576530D01*
X90999492Y-35202948D01*
X90625910Y-34953329D01*
X90296475Y-34887800D01*
X90074005Y-34887800D01*
X89744570Y-34953329D01*
X89370988Y-35202948D01*
X89121369Y-35576530D01*
X89033714Y-36017200D01*
X89121369Y-36457870D01*
X89370988Y-36831452D01*
X89744570Y-37081071D01*
X90074005Y-37146600D01*
X90296475Y-37146600D01*
X90625910Y-37081071D01*
X90905105Y-36894519D01*
X90911680Y-36901095D01*
X90911680Y-37684274D01*
X90625910Y-37493329D01*
X90296475Y-37427800D01*
X90074005Y-37427800D01*
X89744570Y-37493329D01*
X89370988Y-37742948D01*
X89121369Y-38116530D01*
X89085420Y-38297257D01*
X89085420Y-37136800D01*
X89092386Y-37101780D01*
X89064787Y-36963032D01*
X89006030Y-36875095D01*
X89006027Y-36875092D01*
X88986192Y-36845407D01*
X88956508Y-36825573D01*
X88660923Y-36529988D01*
X88709111Y-36457870D01*
X88796766Y-36017200D01*
X88709111Y-35576530D01*
X88459492Y-35202948D01*
X88085910Y-34953329D01*
X87756475Y-34887800D01*
X87534005Y-34887800D01*
X87204570Y-34953329D01*
X86830988Y-35202948D01*
X86581369Y-35576530D01*
X86493714Y-36017200D01*
X86581369Y-36457870D01*
X86830988Y-36831452D01*
X87204570Y-37081071D01*
X87534005Y-37146600D01*
X87756475Y-37146600D01*
X88085910Y-37081071D01*
X88158028Y-37032883D01*
X88374220Y-37249075D01*
X88374220Y-37685971D01*
X88085910Y-37493329D01*
X87756475Y-37427800D01*
X87534005Y-37427800D01*
X87204570Y-37493329D01*
X86830988Y-37742948D01*
X86581369Y-38116530D01*
X86547960Y-38284488D01*
X86547960Y-37139340D01*
X86554926Y-37104320D01*
X86527327Y-36965572D01*
X86468570Y-36877635D01*
X86468567Y-36877632D01*
X86448732Y-36847947D01*
X86419048Y-36828113D01*
X86120923Y-36529988D01*
X86169111Y-36457870D01*
X86256766Y-36017200D01*
X86169111Y-35576530D01*
X85919492Y-35202948D01*
X85545910Y-34953329D01*
X85216475Y-34887800D01*
X84994005Y-34887800D01*
X84664570Y-34953329D01*
X84290988Y-35202948D01*
X84041369Y-35576530D01*
X83953714Y-36017200D01*
X84041369Y-36457870D01*
X84290988Y-36831452D01*
X84664570Y-37081071D01*
X84994005Y-37146600D01*
X85216475Y-37146600D01*
X85545910Y-37081071D01*
X85618028Y-37032883D01*
X85836760Y-37251615D01*
X85836760Y-37687668D01*
X85545910Y-37493329D01*
X85216475Y-37427800D01*
X84994005Y-37427800D01*
X84664570Y-37493329D01*
X84290988Y-37742948D01*
X84041369Y-38116530D01*
X84002880Y-38310027D01*
X84002880Y-37134260D01*
X84009846Y-37099240D01*
X83982247Y-36960492D01*
X83923490Y-36872555D01*
X83923487Y-36872552D01*
X83903652Y-36842867D01*
X83873968Y-36823033D01*
X83580923Y-36529988D01*
X83629111Y-36457870D01*
X83716766Y-36017200D01*
X83629111Y-35576530D01*
X83379492Y-35202948D01*
X83005910Y-34953329D01*
X82676475Y-34887800D01*
X82454005Y-34887800D01*
X82124570Y-34953329D01*
X81750988Y-35202948D01*
X81501369Y-35576530D01*
X81438976Y-35890198D01*
X81346060Y-35890198D01*
X81466726Y-35660308D01*
X81220423Y-35135842D01*
X80792164Y-34745555D01*
X80382130Y-34575724D01*
X80152240Y-34697045D01*
X80152240Y-35890200D01*
X80172240Y-35890200D01*
X80172240Y-36144200D01*
X80152240Y-36144200D01*
X80152240Y-36164200D01*
X79898240Y-36164200D01*
X79898240Y-36144200D01*
X78704421Y-36144200D01*
X78583754Y-36374092D01*
X77949400Y-36374092D01*
X77949400Y-35660308D01*
X78583754Y-35660308D01*
X78704421Y-35890200D01*
X79898240Y-35890200D01*
X79898240Y-34697045D01*
X79668350Y-34575724D01*
X79258316Y-34745555D01*
X78830057Y-35135842D01*
X78583754Y-35660308D01*
X77949400Y-35660308D01*
X77949400Y-34311349D01*
X78023984Y-33475644D01*
X78239726Y-32687023D01*
X78591712Y-31949073D01*
X79068811Y-31285118D01*
X79655946Y-30716145D01*
X80334560Y-30260134D01*
X81083208Y-29931501D01*
X81881892Y-29739755D01*
X82567585Y-29689400D01*
X125708651Y-29689400D01*
X126544356Y-29763984D01*
G36*
X104943173Y-77083227D02*
X104804925Y-76944979D01*
X104576203Y-76850240D01*
X104333014Y-76850240D01*
X104294940Y-76812166D01*
X104294940Y-68389038D01*
X104943172Y-67740806D01*
X104943173Y-77083227D01*
X104943173Y-77083227D01*
G37*
X104943173Y-77083227D02*
X104804925Y-76944979D01*
X104576203Y-76850240D01*
X104333014Y-76850240D01*
X104294940Y-76812166D01*
X104294940Y-68389038D01*
X104943172Y-67740806D01*
X104943173Y-77083227D01*
G36*
X99565461Y-64282856D02*
X99565460Y-64282861D01*
X99565461Y-69475395D01*
X99412505Y-69322439D01*
X99183783Y-69227700D01*
X98940595Y-69227700D01*
X97904201Y-68191307D01*
X97904201Y-67293505D01*
X98042137Y-67350640D01*
X98289703Y-67350640D01*
X98518425Y-67255901D01*
X98693481Y-67080845D01*
X98788220Y-66852123D01*
X98788220Y-66604557D01*
X98693481Y-66375835D01*
X98520400Y-66202754D01*
X98500887Y-66104659D01*
X98442130Y-66016722D01*
X98442127Y-66016719D01*
X98422292Y-65987034D01*
X98392607Y-65967199D01*
X98209012Y-65783605D01*
X98209012Y-65353386D01*
X98352017Y-65412620D01*
X98599583Y-65412620D01*
X98828305Y-65317881D01*
X99003361Y-65142825D01*
X99098100Y-64914103D01*
X99098100Y-64666537D01*
X99003361Y-64437815D01*
X98830279Y-64264733D01*
X98810767Y-64166639D01*
X98752010Y-64078702D01*
X98752007Y-64078699D01*
X98732172Y-64049014D01*
X98702487Y-64029179D01*
X98513823Y-63840516D01*
X98513823Y-62793820D01*
X98605950Y-62831980D01*
X98853516Y-62831980D01*
X99082238Y-62737241D01*
X99257294Y-62562185D01*
X99352033Y-62333463D01*
X99352033Y-62085897D01*
X99257294Y-61857175D01*
X99084212Y-61684093D01*
X99064700Y-61585999D01*
X98986105Y-61468374D01*
X98956418Y-61448538D01*
X98818634Y-61310754D01*
X98818634Y-60248740D01*
X98910761Y-60286900D01*
X99158327Y-60286900D01*
X99387049Y-60192161D01*
X99562105Y-60017105D01*
X99565460Y-60009004D01*
X99565461Y-64282856D01*
X99565461Y-64282856D01*
G37*
X99565461Y-64282856D02*
X99565460Y-64282861D01*
X99565461Y-69475395D01*
X99412505Y-69322439D01*
X99183783Y-69227700D01*
X98940595Y-69227700D01*
X97904201Y-68191307D01*
X97904201Y-67293505D01*
X98042137Y-67350640D01*
X98289703Y-67350640D01*
X98518425Y-67255901D01*
X98693481Y-67080845D01*
X98788220Y-66852123D01*
X98788220Y-66604557D01*
X98693481Y-66375835D01*
X98520400Y-66202754D01*
X98500887Y-66104659D01*
X98442130Y-66016722D01*
X98442127Y-66016719D01*
X98422292Y-65987034D01*
X98392607Y-65967199D01*
X98209012Y-65783605D01*
X98209012Y-65353386D01*
X98352017Y-65412620D01*
X98599583Y-65412620D01*
X98828305Y-65317881D01*
X99003361Y-65142825D01*
X99098100Y-64914103D01*
X99098100Y-64666537D01*
X99003361Y-64437815D01*
X98830279Y-64264733D01*
X98810767Y-64166639D01*
X98752010Y-64078702D01*
X98752007Y-64078699D01*
X98732172Y-64049014D01*
X98702487Y-64029179D01*
X98513823Y-63840516D01*
X98513823Y-62793820D01*
X98605950Y-62831980D01*
X98853516Y-62831980D01*
X99082238Y-62737241D01*
X99257294Y-62562185D01*
X99352033Y-62333463D01*
X99352033Y-62085897D01*
X99257294Y-61857175D01*
X99084212Y-61684093D01*
X99064700Y-61585999D01*
X98986105Y-61468374D01*
X98956418Y-61448538D01*
X98818634Y-61310754D01*
X98818634Y-60248740D01*
X98910761Y-60286900D01*
X99158327Y-60286900D01*
X99387049Y-60192161D01*
X99562105Y-60017105D01*
X99565460Y-60009004D01*
X99565461Y-64282856D01*
G36*
X102438877Y-59702700D02*
X102686443Y-59702700D01*
X102788720Y-59660336D01*
X102788721Y-64884325D01*
X102548185Y-65124861D01*
X102503481Y-65016935D01*
X102331520Y-64844974D01*
X102331520Y-59658232D01*
X102438877Y-59702700D01*
X102438877Y-59702700D01*
G37*
X102438877Y-59702700D02*
X102686443Y-59702700D01*
X102788720Y-59660336D01*
X102788721Y-64884325D01*
X102548185Y-65124861D01*
X102503481Y-65016935D01*
X102331520Y-64844974D01*
X102331520Y-59658232D01*
X102438877Y-59702700D01*
G36*
X110981796Y-48751796D02*
X110743228Y-49108839D01*
X110659454Y-49530000D01*
X110743228Y-49951161D01*
X110918357Y-50213260D01*
X110258372Y-50213260D01*
X110223352Y-50206294D01*
X110188332Y-50213260D01*
X110084604Y-50233893D01*
X109966979Y-50312487D01*
X109947143Y-50342174D01*
X109463907Y-50825411D01*
X109463907Y-49719676D01*
X110476542Y-48707042D01*
X111048775Y-48707042D01*
X110981796Y-48751796D01*
X110981796Y-48751796D01*
G37*
X110981796Y-48751796D02*
X110743228Y-49108839D01*
X110659454Y-49530000D01*
X110743228Y-49951161D01*
X110918357Y-50213260D01*
X110258372Y-50213260D01*
X110223352Y-50206294D01*
X110188332Y-50213260D01*
X110084604Y-50233893D01*
X109966979Y-50312487D01*
X109947143Y-50342174D01*
X109463907Y-50825411D01*
X109463907Y-49719676D01*
X110476542Y-48707042D01*
X111048775Y-48707042D01*
X110981796Y-48751796D01*
G36*
X116984414Y-50213260D02*
X112601643Y-50213260D01*
X112776772Y-49951161D01*
X112860546Y-49530000D01*
X112776772Y-49108839D01*
X112538204Y-48751796D01*
X112471225Y-48707042D01*
X118490632Y-48707042D01*
X116984414Y-50213260D01*
X116984414Y-50213260D01*
G37*
X116984414Y-50213260D02*
X112601643Y-50213260D01*
X112776772Y-49951161D01*
X112860546Y-49530000D01*
X112776772Y-49108839D01*
X112538204Y-48751796D01*
X112471225Y-48707042D01*
X118490632Y-48707042D01*
X116984414Y-50213260D01*
G36*
X110743228Y-44028839D02*
X110659454Y-44450000D01*
X110743228Y-44871161D01*
X110981796Y-45228204D01*
X111338839Y-45466772D01*
X111653692Y-45529400D01*
X111866308Y-45529400D01*
X112181161Y-45466772D01*
X112538204Y-45228204D01*
X112776772Y-44871161D01*
X112860546Y-44450000D01*
X112776772Y-44028839D01*
X112557521Y-43700706D01*
X119270616Y-43700706D01*
X118909278Y-43850377D01*
X118549377Y-44210278D01*
X118354600Y-44680512D01*
X118354600Y-45189488D01*
X118549377Y-45659722D01*
X118909278Y-46019623D01*
X119379512Y-46214400D01*
X119888488Y-46214400D01*
X120285614Y-46049905D01*
X118644489Y-47691031D01*
X112589769Y-47691031D01*
X112776772Y-47411161D01*
X112860546Y-46990000D01*
X112776772Y-46568839D01*
X112538204Y-46211796D01*
X112181161Y-45973228D01*
X111866308Y-45910600D01*
X111653692Y-45910600D01*
X111338839Y-45973228D01*
X110981796Y-46211796D01*
X110743228Y-46568839D01*
X110659454Y-46990000D01*
X110743228Y-47411161D01*
X110930231Y-47691031D01*
X110238011Y-47691031D01*
X110202991Y-47684065D01*
X110064243Y-47711664D01*
X110041890Y-47726600D01*
X109946618Y-47790258D01*
X109926782Y-47819945D01*
X109645998Y-48100730D01*
X109602781Y-47996395D01*
X109583220Y-47976834D01*
X109583220Y-46191196D01*
X109600445Y-46184061D01*
X109775501Y-46009005D01*
X109870240Y-45780283D01*
X109870240Y-45532717D01*
X109775501Y-45303995D01*
X109600445Y-45128939D01*
X109371723Y-45034200D01*
X109124157Y-45034200D01*
X108895435Y-45128939D01*
X108854286Y-45170088D01*
X108854286Y-43835294D01*
X108988874Y-43700706D01*
X110962479Y-43700706D01*
X110743228Y-44028839D01*
X110743228Y-44028839D01*
G37*
X110743228Y-44028839D02*
X110659454Y-44450000D01*
X110743228Y-44871161D01*
X110981796Y-45228204D01*
X111338839Y-45466772D01*
X111653692Y-45529400D01*
X111866308Y-45529400D01*
X112181161Y-45466772D01*
X112538204Y-45228204D01*
X112776772Y-44871161D01*
X112860546Y-44450000D01*
X112776772Y-44028839D01*
X112557521Y-43700706D01*
X119270616Y-43700706D01*
X118909278Y-43850377D01*
X118549377Y-44210278D01*
X118354600Y-44680512D01*
X118354600Y-45189488D01*
X118549377Y-45659722D01*
X118909278Y-46019623D01*
X119379512Y-46214400D01*
X119888488Y-46214400D01*
X120285614Y-46049905D01*
X118644489Y-47691031D01*
X112589769Y-47691031D01*
X112776772Y-47411161D01*
X112860546Y-46990000D01*
X112776772Y-46568839D01*
X112538204Y-46211796D01*
X112181161Y-45973228D01*
X111866308Y-45910600D01*
X111653692Y-45910600D01*
X111338839Y-45973228D01*
X110981796Y-46211796D01*
X110743228Y-46568839D01*
X110659454Y-46990000D01*
X110743228Y-47411161D01*
X110930231Y-47691031D01*
X110238011Y-47691031D01*
X110202991Y-47684065D01*
X110064243Y-47711664D01*
X110041890Y-47726600D01*
X109946618Y-47790258D01*
X109926782Y-47819945D01*
X109645998Y-48100730D01*
X109602781Y-47996395D01*
X109583220Y-47976834D01*
X109583220Y-46191196D01*
X109600445Y-46184061D01*
X109775501Y-46009005D01*
X109870240Y-45780283D01*
X109870240Y-45532717D01*
X109775501Y-45303995D01*
X109600445Y-45128939D01*
X109371723Y-45034200D01*
X109124157Y-45034200D01*
X108895435Y-45128939D01*
X108854286Y-45170088D01*
X108854286Y-43835294D01*
X108988874Y-43700706D01*
X110962479Y-43700706D01*
X110743228Y-44028839D01*
M02*
