%TF.GenerationSoftware,KiCad,Pcbnew,(5.0.1)-3*%
%TF.CreationDate,2018-11-22T17:32:38+01:00*%
%TF.ProjectId,S80 Processor,5338302050726F636573736F722E6B69,2.0*%
%TF.SameCoordinates,Original*%
%TF.FileFunction,Copper,L1,Top,Signal*%
%TF.FilePolarity,Positive*%
%FSLAX46Y46*%
G04 Gerber Fmt 4.6, Leading zero omitted, Abs format (unit mm)*
G04 Created by KiCad (PCBNEW (5.0.1)-3) date 22/11/2018 17:32:38*
%MOMM*%
%LPD*%
G01*
G04 APERTURE LIST*
%ADD10O,1.600000X1.600000*%
%ADD11R,1.600000X1.600000*%
%ADD12C,1.600000*%
%ADD13R,1.700000X1.700000*%
%ADD14O,1.700000X1.700000*%
%ADD15C,2.000000*%
%ADD16C,0.685800*%
%ADD17C,0.457200*%
%ADD18C,0.254000*%
%ADD19C,0.152400*%
G04 APERTURE END LIST*
D10*
X111760000Y-44450000D03*
X96520000Y-92710000D03*
X111760000Y-46990000D03*
X96520000Y-90170000D03*
X111760000Y-49530000D03*
X96520000Y-87630000D03*
X111760000Y-52070000D03*
X96520000Y-85090000D03*
X111760000Y-54610000D03*
X96520000Y-82550000D03*
X111760000Y-57150000D03*
X96520000Y-80010000D03*
X111760000Y-59690000D03*
X96520000Y-77470000D03*
X111760000Y-62230000D03*
X96520000Y-74930000D03*
X111760000Y-64770000D03*
X96520000Y-72390000D03*
X111760000Y-67310000D03*
X96520000Y-69850000D03*
X111760000Y-69850000D03*
X96520000Y-67310000D03*
X111760000Y-72390000D03*
X96520000Y-64770000D03*
X111760000Y-74930000D03*
X96520000Y-62230000D03*
X111760000Y-77470000D03*
X96520000Y-59690000D03*
X111760000Y-80010000D03*
X96520000Y-57150000D03*
X111760000Y-82550000D03*
X96520000Y-54610000D03*
X111760000Y-85090000D03*
X96520000Y-52070000D03*
X111760000Y-87630000D03*
X96520000Y-49530000D03*
X111760000Y-90170000D03*
X96520000Y-46990000D03*
X111760000Y-92710000D03*
D11*
X96520000Y-44450000D03*
D12*
X106613960Y-95885000D03*
X101613960Y-95885000D03*
X90170000Y-85090000D03*
X90170000Y-90090000D03*
D11*
X120650000Y-67310000D03*
D12*
X123150000Y-67310000D03*
X119380000Y-92710000D03*
X124380000Y-92710000D03*
X88820000Y-69850000D03*
X83820000Y-69850000D03*
D10*
X86995000Y-91440000D03*
X86995000Y-83820000D03*
X82550000Y-66675000D03*
X90170000Y-66675000D03*
D13*
X80510380Y-97053400D03*
D14*
X83050380Y-97053400D03*
X85590380Y-97053400D03*
X88130380Y-97053400D03*
X90670380Y-97053400D03*
X93210380Y-97053400D03*
X95750380Y-97053400D03*
X98290380Y-97053400D03*
D13*
X80025240Y-38557200D03*
D14*
X80025240Y-36017200D03*
X82565240Y-38557200D03*
X82565240Y-36017200D03*
X85105240Y-38557200D03*
X85105240Y-36017200D03*
X87645240Y-38557200D03*
X87645240Y-36017200D03*
X90185240Y-38557200D03*
X90185240Y-36017200D03*
X92725240Y-38557200D03*
X92725240Y-36017200D03*
X95265240Y-38557200D03*
X95265240Y-36017200D03*
X97805240Y-38557200D03*
X97805240Y-36017200D03*
X100345240Y-38557200D03*
X100345240Y-36017200D03*
X102885240Y-38557200D03*
X102885240Y-36017200D03*
X105425240Y-38557200D03*
X105425240Y-36017200D03*
X107965240Y-38557200D03*
X107965240Y-36017200D03*
X110505240Y-38557200D03*
X110505240Y-36017200D03*
X113045240Y-38557200D03*
X113045240Y-36017200D03*
X115585240Y-38557200D03*
X115585240Y-36017200D03*
X118125240Y-38557200D03*
X118125240Y-36017200D03*
X120665240Y-38557200D03*
X120665240Y-36017200D03*
X123205240Y-38557200D03*
X123205240Y-36017200D03*
X125745240Y-38557200D03*
X125745240Y-36017200D03*
X128285240Y-38557200D03*
X128285240Y-36017200D03*
X127767080Y-97061020D03*
X125227080Y-97061020D03*
X122687080Y-97061020D03*
X120147080Y-97061020D03*
X117607080Y-97061020D03*
X115067080Y-97061020D03*
X112527080Y-97061020D03*
D13*
X109987080Y-97061020D03*
X83050380Y-83820000D03*
D14*
X83050380Y-86360000D03*
X83050380Y-88900000D03*
X83050380Y-91440000D03*
D12*
X123825000Y-62357000D03*
D10*
X123825000Y-54737000D03*
X120015000Y-54737000D03*
D12*
X120015000Y-62357000D03*
D15*
X124134000Y-51435000D03*
X119634000Y-51435000D03*
X124134000Y-44935000D03*
X119634000Y-44935000D03*
D10*
X125730000Y-74422000D03*
X118110000Y-89662000D03*
X125730000Y-76962000D03*
X118110000Y-87122000D03*
X125730000Y-79502000D03*
X118110000Y-84582000D03*
X125730000Y-82042000D03*
X118110000Y-82042000D03*
X125730000Y-84582000D03*
X118110000Y-79502000D03*
X125730000Y-87122000D03*
X118110000Y-76962000D03*
X125730000Y-89662000D03*
D11*
X118110000Y-74422000D03*
D12*
X82550000Y-61595000D03*
X90170000Y-61595000D03*
X90170000Y-46355000D03*
D11*
X82550000Y-46355000D03*
D16*
X113202720Y-48938180D03*
X95704660Y-63515240D03*
X110116620Y-46299120D03*
X98282760Y-70876160D03*
X98282760Y-68044060D03*
X103035100Y-76332080D03*
X104620060Y-75732640D03*
X102555040Y-63515240D03*
X110172500Y-49342040D03*
X112539780Y-45684440D03*
X113131600Y-51226720D03*
X109799130Y-47576740D03*
X109603540Y-86306660D03*
X109598460Y-84046060D03*
X109598460Y-84046060D03*
X109598460Y-81681320D03*
X109623860Y-78803500D03*
X98917760Y-92974160D03*
X98927920Y-88816180D03*
X110022640Y-68054220D03*
X110022640Y-68054220D03*
X110022640Y-68054220D03*
X110022640Y-58320940D03*
X110022640Y-60975240D03*
X110022640Y-63461900D03*
X110022640Y-65808860D03*
X110022640Y-56093360D03*
X110025180Y-53855620D03*
X110037880Y-51785520D03*
X109075220Y-48348900D03*
X109247940Y-45656500D03*
X104030780Y-56314340D03*
X99060000Y-69850000D03*
X98165920Y-66728340D03*
X98475800Y-64790320D03*
X98729733Y-62209680D03*
X99034544Y-59664600D03*
X99339355Y-57180480D03*
X99651820Y-55158640D03*
X99964240Y-52641500D03*
X100263960Y-50114200D03*
X100705920Y-46987460D03*
X100911660Y-44460160D03*
X100888800Y-45323760D03*
X101302820Y-46177200D03*
X100589080Y-49316640D03*
X100281740Y-51833780D03*
X99964240Y-54368700D03*
X100820220Y-72395080D03*
X100812600Y-62796420D03*
X102562660Y-59080400D03*
X101975920Y-65369440D03*
X102303580Y-67322700D03*
X100812600Y-74935080D03*
X108826300Y-92710000D03*
X107264200Y-90157300D03*
X107109260Y-82692240D03*
X98348800Y-80020160D03*
X104452420Y-77472540D03*
X103357680Y-74935080D03*
X106138980Y-85077300D03*
X107073700Y-83764120D03*
X108521500Y-82509360D03*
X108165900Y-87630000D03*
D17*
X86360000Y-91440000D02*
X86995000Y-91440000D01*
X88820000Y-91440000D02*
X90170000Y-90090000D01*
X86995000Y-91440000D02*
X88820000Y-91440000D01*
X89370001Y-47154999D02*
X90170000Y-46355000D01*
X88020001Y-48504999D02*
X89370001Y-47154999D01*
X88020001Y-69050001D02*
X88020001Y-48504999D01*
X88820000Y-69850000D02*
X88020001Y-69050001D01*
X83807200Y-46355000D02*
X90170000Y-46355000D01*
X82550000Y-46355000D02*
X83807200Y-46355000D01*
X100813961Y-95085001D02*
X101613960Y-95885000D01*
X96696015Y-95085001D02*
X100813961Y-95085001D01*
X95034199Y-93423185D02*
X96696015Y-95085001D01*
X95034199Y-71335801D02*
X95034199Y-93423185D01*
X96520000Y-69850000D02*
X95034199Y-71335801D01*
X124930001Y-75221999D02*
X125730000Y-74422000D01*
X123580001Y-76571999D02*
X124930001Y-75221999D01*
X123580001Y-91910001D02*
X123580001Y-76571999D01*
X124380000Y-92710000D02*
X123580001Y-91910001D01*
D18*
X98282760Y-70876160D02*
X98282760Y-68044060D01*
X103035100Y-76332080D02*
X104020620Y-76332080D01*
X104020620Y-76332080D02*
X104620060Y-75732640D01*
X95704660Y-63515240D02*
X102555040Y-63515240D01*
D17*
X86360000Y-86360000D02*
X83050380Y-86360000D01*
X86995000Y-91440000D02*
X86995000Y-86995000D01*
X86995000Y-86995000D02*
X86360000Y-86360000D01*
X110172500Y-47950110D02*
X110142029Y-47919639D01*
X110142029Y-47919639D02*
X109799130Y-47576740D01*
X110172500Y-49342040D02*
X110172500Y-47950110D01*
X112613539Y-48348999D02*
X113202720Y-48938180D01*
X110172500Y-49342040D02*
X111165541Y-48348999D01*
X111165541Y-48348999D02*
X112613539Y-48348999D01*
X113202720Y-51155600D02*
X113131600Y-51226720D01*
X113202720Y-48938180D02*
X113202720Y-51155600D01*
D19*
X97360740Y-56309260D02*
X96520000Y-57150000D01*
X104025700Y-56309260D02*
X97360740Y-56309260D01*
X104030780Y-56314340D02*
X104025700Y-56309260D01*
X99060000Y-69850000D02*
X111760000Y-69850000D01*
X98165920Y-66728340D02*
X111178340Y-66728340D01*
X111178340Y-66728340D02*
X111760000Y-67310000D01*
X111739680Y-64790320D02*
X111760000Y-64770000D01*
X98475800Y-64790320D02*
X111739680Y-64790320D01*
X98729733Y-62209680D02*
X111739680Y-62209680D01*
X111739680Y-62209680D02*
X111760000Y-62230000D01*
X111734600Y-59664600D02*
X111760000Y-59690000D01*
X99034544Y-59664600D02*
X111734600Y-59664600D01*
X99339355Y-57180480D02*
X111729520Y-57180480D01*
X111729520Y-57180480D02*
X111760000Y-57150000D01*
X111211360Y-55158640D02*
X111760000Y-54610000D01*
X99651820Y-55158640D02*
X111211360Y-55158640D01*
X111191040Y-52638960D02*
X111760000Y-52070000D01*
X99966780Y-52638960D02*
X111191040Y-52638960D01*
X99964240Y-52641500D02*
X99966780Y-52638960D01*
X111175800Y-50114200D02*
X111760000Y-49530000D01*
X100263960Y-50114200D02*
X111175800Y-50114200D01*
X111760000Y-46990000D02*
X100705920Y-46987460D01*
X111721900Y-44488100D02*
X100939600Y-44488100D01*
X100911660Y-44460160D02*
X100939600Y-44488100D01*
X100888800Y-45323760D02*
X100891340Y-45323760D01*
X100891340Y-45323760D02*
X100886260Y-45328840D01*
X100886260Y-45328840D02*
X97398840Y-45328840D01*
X97398840Y-45328840D02*
X96520000Y-44450000D01*
X101302820Y-46177200D02*
X97332800Y-46177200D01*
X97332800Y-46177200D02*
X96520000Y-46990000D01*
X100581460Y-49324260D02*
X100159820Y-49324260D01*
X100589080Y-49316640D02*
X100581460Y-49324260D01*
X100159820Y-49324260D02*
X96725740Y-49324260D01*
X96725740Y-49324260D02*
X96520000Y-49530000D01*
X96740980Y-51849020D02*
X96520000Y-52070000D01*
X100266500Y-51849020D02*
X96740980Y-51849020D01*
X100281740Y-51833780D02*
X100266500Y-51849020D01*
X96756220Y-54373780D02*
X96520000Y-54610000D01*
X99959160Y-54373780D02*
X96756220Y-54373780D01*
X99964240Y-54368700D02*
X99959160Y-54373780D01*
X100815140Y-72390000D02*
X96520000Y-72390000D01*
X100820220Y-72395080D02*
X100815140Y-72390000D01*
X97086420Y-62796420D02*
X96520000Y-62230000D01*
X98234500Y-62796420D02*
X97086420Y-62796420D01*
X100812600Y-62796420D02*
X98234500Y-62796420D01*
X97134680Y-59075320D02*
X96520000Y-59690000D01*
X102557580Y-59075320D02*
X97134680Y-59075320D01*
X102562660Y-59080400D02*
X102557580Y-59075320D01*
X97121980Y-65371980D02*
X96520000Y-64770000D01*
X101973380Y-65371980D02*
X97121980Y-65371980D01*
X101975920Y-65369440D02*
X101973380Y-65371980D01*
X102288340Y-67310000D02*
X96520000Y-67310000D01*
X102301040Y-67322700D02*
X102288340Y-67310000D01*
X102303580Y-67322700D02*
X102301040Y-67322700D01*
X100807520Y-74930000D02*
X96520000Y-74930000D01*
X100812600Y-74935080D02*
X100807520Y-74930000D01*
X108826300Y-92710000D02*
X111760000Y-92710000D01*
X107264200Y-90157300D02*
X107276900Y-90170000D01*
X107276900Y-90170000D02*
X111760000Y-90170000D01*
X99685584Y-90170000D02*
X96520000Y-90170000D01*
X107114340Y-82741244D02*
X99685584Y-90170000D01*
X107114340Y-82697320D02*
X107114340Y-82741244D01*
X107109260Y-82692240D02*
X107114340Y-82697320D01*
X98358960Y-80010000D02*
X99319080Y-80010000D01*
X98348800Y-80020160D02*
X98358960Y-80010000D01*
X99319080Y-80010000D02*
X111760000Y-80010000D01*
X104454960Y-77470000D02*
X111760000Y-77470000D01*
X104452420Y-77472540D02*
X104454960Y-77470000D01*
X103362760Y-74930000D02*
X111760000Y-74930000D01*
X103357680Y-74935080D02*
X103362760Y-74930000D01*
X106151680Y-85090000D02*
X111760000Y-85090000D01*
X106138980Y-85077300D02*
X106151680Y-85090000D01*
X97576640Y-92710000D02*
X96520000Y-92710000D01*
X105857040Y-84429600D02*
X97576640Y-92710000D01*
X106408220Y-84429600D02*
X105857040Y-84429600D01*
X107073700Y-83764120D02*
X106408220Y-84429600D01*
X108521500Y-82509360D02*
X108864399Y-82852259D01*
X111457741Y-82852259D02*
X111760000Y-82550000D01*
X108864399Y-82852259D02*
X111457741Y-82852259D01*
X108165900Y-87630000D02*
X111760000Y-87630000D01*
D18*
G36*
X126544356Y-29763984D02*
X127332977Y-29979726D01*
X128070927Y-30331712D01*
X128734882Y-30808811D01*
X129303855Y-31395946D01*
X129759866Y-32074560D01*
X130088499Y-32823208D01*
X130280245Y-33621892D01*
X130330600Y-34307585D01*
X130330601Y-97768640D01*
X130256015Y-98604358D01*
X130040273Y-99392979D01*
X129688288Y-100130927D01*
X129211191Y-100794879D01*
X128624056Y-101363853D01*
X127945440Y-101819866D01*
X127196794Y-102148499D01*
X126398108Y-102340245D01*
X125712414Y-102390600D01*
X82571349Y-102390600D01*
X81735642Y-102316015D01*
X80947021Y-102100273D01*
X80209073Y-101748288D01*
X79545121Y-101271191D01*
X78976147Y-100684056D01*
X78520134Y-100005440D01*
X78191501Y-99256794D01*
X77999755Y-98458108D01*
X77949400Y-97772414D01*
X77949400Y-96203400D01*
X79375507Y-96203400D01*
X79375507Y-97903400D01*
X79397192Y-98012416D01*
X79458944Y-98104836D01*
X79551364Y-98166588D01*
X79660380Y-98188273D01*
X81360380Y-98188273D01*
X81469396Y-98166588D01*
X81561816Y-98104836D01*
X81623568Y-98012416D01*
X81645253Y-97903400D01*
X81645253Y-97053400D01*
X81898854Y-97053400D01*
X81986509Y-97494070D01*
X82236128Y-97867652D01*
X82609710Y-98117271D01*
X82939145Y-98182800D01*
X83161615Y-98182800D01*
X83491050Y-98117271D01*
X83864632Y-97867652D01*
X84114251Y-97494070D01*
X84201906Y-97053400D01*
X84438854Y-97053400D01*
X84526509Y-97494070D01*
X84776128Y-97867652D01*
X85149710Y-98117271D01*
X85479145Y-98182800D01*
X85701615Y-98182800D01*
X86031050Y-98117271D01*
X86404632Y-97867652D01*
X86654251Y-97494070D01*
X86741906Y-97053400D01*
X86978854Y-97053400D01*
X87066509Y-97494070D01*
X87316128Y-97867652D01*
X87689710Y-98117271D01*
X88019145Y-98182800D01*
X88241615Y-98182800D01*
X88571050Y-98117271D01*
X88944632Y-97867652D01*
X89194251Y-97494070D01*
X89281906Y-97053400D01*
X89518854Y-97053400D01*
X89606509Y-97494070D01*
X89856128Y-97867652D01*
X90229710Y-98117271D01*
X90559145Y-98182800D01*
X90781615Y-98182800D01*
X91111050Y-98117271D01*
X91484632Y-97867652D01*
X91734251Y-97494070D01*
X91821906Y-97053400D01*
X92058854Y-97053400D01*
X92146509Y-97494070D01*
X92396128Y-97867652D01*
X92769710Y-98117271D01*
X93099145Y-98182800D01*
X93321615Y-98182800D01*
X93651050Y-98117271D01*
X94024632Y-97867652D01*
X94274251Y-97494070D01*
X94361906Y-97053400D01*
X94598854Y-97053400D01*
X94686509Y-97494070D01*
X94936128Y-97867652D01*
X95309710Y-98117271D01*
X95639145Y-98182800D01*
X95861615Y-98182800D01*
X96191050Y-98117271D01*
X96564632Y-97867652D01*
X96814251Y-97494070D01*
X96901906Y-97053400D01*
X97138854Y-97053400D01*
X97226509Y-97494070D01*
X97476128Y-97867652D01*
X97849710Y-98117271D01*
X98179145Y-98182800D01*
X98401615Y-98182800D01*
X98731050Y-98117271D01*
X99104632Y-97867652D01*
X99354251Y-97494070D01*
X99441906Y-97053400D01*
X99354251Y-96612730D01*
X99104632Y-96239148D01*
X98731050Y-95989529D01*
X98401615Y-95924000D01*
X98179145Y-95924000D01*
X97849710Y-95989529D01*
X97476128Y-96239148D01*
X97226509Y-96612730D01*
X97138854Y-97053400D01*
X96901906Y-97053400D01*
X96814251Y-96612730D01*
X96564632Y-96239148D01*
X96191050Y-95989529D01*
X95861615Y-95924000D01*
X95639145Y-95924000D01*
X95309710Y-95989529D01*
X94936128Y-96239148D01*
X94686509Y-96612730D01*
X94598854Y-97053400D01*
X94361906Y-97053400D01*
X94274251Y-96612730D01*
X94024632Y-96239148D01*
X93651050Y-95989529D01*
X93321615Y-95924000D01*
X93099145Y-95924000D01*
X92769710Y-95989529D01*
X92396128Y-96239148D01*
X92146509Y-96612730D01*
X92058854Y-97053400D01*
X91821906Y-97053400D01*
X91734251Y-96612730D01*
X91484632Y-96239148D01*
X91111050Y-95989529D01*
X90781615Y-95924000D01*
X90559145Y-95924000D01*
X90229710Y-95989529D01*
X89856128Y-96239148D01*
X89606509Y-96612730D01*
X89518854Y-97053400D01*
X89281906Y-97053400D01*
X89194251Y-96612730D01*
X88944632Y-96239148D01*
X88571050Y-95989529D01*
X88241615Y-95924000D01*
X88019145Y-95924000D01*
X87689710Y-95989529D01*
X87316128Y-96239148D01*
X87066509Y-96612730D01*
X86978854Y-97053400D01*
X86741906Y-97053400D01*
X86654251Y-96612730D01*
X86404632Y-96239148D01*
X86031050Y-95989529D01*
X85701615Y-95924000D01*
X85479145Y-95924000D01*
X85149710Y-95989529D01*
X84776128Y-96239148D01*
X84526509Y-96612730D01*
X84438854Y-97053400D01*
X84201906Y-97053400D01*
X84114251Y-96612730D01*
X83864632Y-96239148D01*
X83491050Y-95989529D01*
X83161615Y-95924000D01*
X82939145Y-95924000D01*
X82609710Y-95989529D01*
X82236128Y-96239148D01*
X81986509Y-96612730D01*
X81898854Y-97053400D01*
X81645253Y-97053400D01*
X81645253Y-96203400D01*
X81623568Y-96094384D01*
X81561816Y-96001964D01*
X81469396Y-95940212D01*
X81360380Y-95918527D01*
X79660380Y-95918527D01*
X79551364Y-95940212D01*
X79458944Y-96001964D01*
X79397192Y-96094384D01*
X79375507Y-96203400D01*
X77949400Y-96203400D01*
X77949400Y-91440000D01*
X81898854Y-91440000D01*
X81986509Y-91880670D01*
X82236128Y-92254252D01*
X82609710Y-92503871D01*
X82939145Y-92569400D01*
X83161615Y-92569400D01*
X83491050Y-92503871D01*
X83864632Y-92254252D01*
X84114251Y-91880670D01*
X84201906Y-91440000D01*
X84114251Y-90999330D01*
X83864632Y-90625748D01*
X83491050Y-90376129D01*
X83161615Y-90310600D01*
X82939145Y-90310600D01*
X82609710Y-90376129D01*
X82236128Y-90625748D01*
X81986509Y-90999330D01*
X81898854Y-91440000D01*
X77949400Y-91440000D01*
X77949400Y-88900000D01*
X81898854Y-88900000D01*
X81986509Y-89340670D01*
X82236128Y-89714252D01*
X82609710Y-89963871D01*
X82939145Y-90029400D01*
X83161615Y-90029400D01*
X83491050Y-89963871D01*
X83864632Y-89714252D01*
X84114251Y-89340670D01*
X84201906Y-88900000D01*
X84114251Y-88459330D01*
X83864632Y-88085748D01*
X83491050Y-87836129D01*
X83161615Y-87770600D01*
X82939145Y-87770600D01*
X82609710Y-87836129D01*
X82236128Y-88085748D01*
X81986509Y-88459330D01*
X81898854Y-88900000D01*
X77949400Y-88900000D01*
X77949400Y-84105750D01*
X81565380Y-84105750D01*
X81565380Y-84796310D01*
X81662053Y-85029699D01*
X81840682Y-85208327D01*
X82074071Y-85305000D01*
X82596434Y-85305000D01*
X82236128Y-85545748D01*
X81986509Y-85919330D01*
X81898854Y-86360000D01*
X81986509Y-86800670D01*
X82236128Y-87174252D01*
X82609710Y-87423871D01*
X82939145Y-87489400D01*
X83161615Y-87489400D01*
X83491050Y-87423871D01*
X83864632Y-87174252D01*
X84069263Y-86868000D01*
X86149580Y-86868000D01*
X86487001Y-87205422D01*
X86487000Y-90481252D01*
X86216796Y-90661796D01*
X85978228Y-91018839D01*
X85956094Y-91130113D01*
X85881475Y-91241788D01*
X85842048Y-91440000D01*
X85881475Y-91638212D01*
X85956094Y-91749887D01*
X85978228Y-91861161D01*
X86216796Y-92218204D01*
X86573839Y-92456772D01*
X86888692Y-92519400D01*
X87101308Y-92519400D01*
X87416161Y-92456772D01*
X87773204Y-92218204D01*
X87953748Y-91948000D01*
X88769972Y-91948000D01*
X88820000Y-91957951D01*
X88870028Y-91948000D01*
X88870032Y-91948000D01*
X89018212Y-91918525D01*
X89186247Y-91806247D01*
X89214588Y-91763832D01*
X89851863Y-91126557D01*
X89955294Y-91169400D01*
X90384706Y-91169400D01*
X90781431Y-91005071D01*
X91085071Y-90701431D01*
X91249400Y-90304706D01*
X91249400Y-89875294D01*
X91085071Y-89478569D01*
X90781431Y-89174929D01*
X90384706Y-89010600D01*
X89955294Y-89010600D01*
X89558569Y-89174929D01*
X89254929Y-89478569D01*
X89090600Y-89875294D01*
X89090600Y-90304706D01*
X89133443Y-90408137D01*
X88609580Y-90932000D01*
X87953748Y-90932000D01*
X87773204Y-90661796D01*
X87503000Y-90481252D01*
X87503000Y-87045028D01*
X87512951Y-86995000D01*
X87503000Y-86944972D01*
X87503000Y-86944968D01*
X87473525Y-86796788D01*
X87398050Y-86683832D01*
X87389588Y-86671167D01*
X87389586Y-86671165D01*
X87361247Y-86628753D01*
X87318835Y-86600414D01*
X86816166Y-86097745D01*
X89341861Y-86097745D01*
X89415995Y-86343864D01*
X89953223Y-86536965D01*
X90523454Y-86509778D01*
X90924005Y-86343864D01*
X90998139Y-86097745D01*
X90170000Y-85269605D01*
X89341861Y-86097745D01*
X86816166Y-86097745D01*
X86754588Y-86036168D01*
X86726247Y-85993753D01*
X86558212Y-85881475D01*
X86410032Y-85852000D01*
X86410028Y-85852000D01*
X86360000Y-85842049D01*
X86309972Y-85852000D01*
X84069263Y-85852000D01*
X83864632Y-85545748D01*
X83504326Y-85305000D01*
X84026689Y-85305000D01*
X84260078Y-85208327D01*
X84438707Y-85029699D01*
X84535380Y-84796310D01*
X84535380Y-84169041D01*
X85603086Y-84169041D01*
X85842611Y-84675134D01*
X86257577Y-85051041D01*
X86645961Y-85211904D01*
X86868000Y-85089915D01*
X86868000Y-83947000D01*
X87122000Y-83947000D01*
X87122000Y-85089915D01*
X87344039Y-85211904D01*
X87732423Y-85051041D01*
X87928717Y-84873223D01*
X88723035Y-84873223D01*
X88750222Y-85443454D01*
X88916136Y-85844005D01*
X89162255Y-85918139D01*
X89990395Y-85090000D01*
X90349605Y-85090000D01*
X91177745Y-85918139D01*
X91423864Y-85844005D01*
X91616965Y-85306777D01*
X91589778Y-84736546D01*
X91423864Y-84335995D01*
X91177745Y-84261861D01*
X90349605Y-85090000D01*
X89990395Y-85090000D01*
X89162255Y-84261861D01*
X88916136Y-84335995D01*
X88723035Y-84873223D01*
X87928717Y-84873223D01*
X88147389Y-84675134D01*
X88386914Y-84169041D01*
X88339510Y-84082255D01*
X89341861Y-84082255D01*
X90170000Y-84910395D01*
X90998139Y-84082255D01*
X90924005Y-83836136D01*
X90386777Y-83643035D01*
X89816546Y-83670222D01*
X89415995Y-83836136D01*
X89341861Y-84082255D01*
X88339510Y-84082255D01*
X88265629Y-83947000D01*
X87122000Y-83947000D01*
X86868000Y-83947000D01*
X85724371Y-83947000D01*
X85603086Y-84169041D01*
X84535380Y-84169041D01*
X84535380Y-84105750D01*
X84376630Y-83947000D01*
X83177380Y-83947000D01*
X83177380Y-83967000D01*
X82923380Y-83967000D01*
X82923380Y-83947000D01*
X81724130Y-83947000D01*
X81565380Y-84105750D01*
X77949400Y-84105750D01*
X77949400Y-82843690D01*
X81565380Y-82843690D01*
X81565380Y-83534250D01*
X81724130Y-83693000D01*
X82923380Y-83693000D01*
X82923380Y-82493750D01*
X83177380Y-82493750D01*
X83177380Y-83693000D01*
X84376630Y-83693000D01*
X84535380Y-83534250D01*
X84535380Y-83470959D01*
X85603086Y-83470959D01*
X85724371Y-83693000D01*
X86868000Y-83693000D01*
X86868000Y-82550085D01*
X87122000Y-82550085D01*
X87122000Y-83693000D01*
X88265629Y-83693000D01*
X88386914Y-83470959D01*
X88147389Y-82964866D01*
X87732423Y-82588959D01*
X87344039Y-82428096D01*
X87122000Y-82550085D01*
X86868000Y-82550085D01*
X86645961Y-82428096D01*
X86257577Y-82588959D01*
X85842611Y-82964866D01*
X85603086Y-83470959D01*
X84535380Y-83470959D01*
X84535380Y-82843690D01*
X84438707Y-82610301D01*
X84260078Y-82431673D01*
X84026689Y-82335000D01*
X83336130Y-82335000D01*
X83177380Y-82493750D01*
X82923380Y-82493750D01*
X82764630Y-82335000D01*
X82074071Y-82335000D01*
X81840682Y-82431673D01*
X81662053Y-82610301D01*
X81565380Y-82843690D01*
X77949400Y-82843690D01*
X77949400Y-71335801D01*
X94516248Y-71335801D01*
X94526199Y-71385829D01*
X94526200Y-93373152D01*
X94516248Y-93423185D01*
X94555674Y-93621396D01*
X94639611Y-93747017D01*
X94639614Y-93747020D01*
X94667953Y-93789432D01*
X94710365Y-93817771D01*
X96301429Y-95408836D01*
X96329768Y-95451248D01*
X96372180Y-95479587D01*
X96372182Y-95479589D01*
X96497803Y-95563526D01*
X96645983Y-95593001D01*
X96645987Y-95593001D01*
X96696015Y-95602952D01*
X96746043Y-95593001D01*
X100566576Y-95593001D01*
X100534560Y-95670294D01*
X100534560Y-96099706D01*
X100698889Y-96496431D01*
X101002529Y-96800071D01*
X101399254Y-96964400D01*
X101828666Y-96964400D01*
X102001656Y-96892745D01*
X105785821Y-96892745D01*
X105859955Y-97138864D01*
X106397183Y-97331965D01*
X106967414Y-97304778D01*
X107367965Y-97138864D01*
X107442099Y-96892745D01*
X106613960Y-96064605D01*
X105785821Y-96892745D01*
X102001656Y-96892745D01*
X102225391Y-96800071D01*
X102529031Y-96496431D01*
X102693360Y-96099706D01*
X102693360Y-95670294D01*
X102692503Y-95668223D01*
X105166995Y-95668223D01*
X105194182Y-96238454D01*
X105360096Y-96639005D01*
X105606215Y-96713139D01*
X106434355Y-95885000D01*
X106793565Y-95885000D01*
X107621705Y-96713139D01*
X107867824Y-96639005D01*
X108021658Y-96211020D01*
X108852207Y-96211020D01*
X108852207Y-97911020D01*
X108873892Y-98020036D01*
X108935644Y-98112456D01*
X109028064Y-98174208D01*
X109137080Y-98195893D01*
X110837080Y-98195893D01*
X110946096Y-98174208D01*
X111038516Y-98112456D01*
X111100268Y-98020036D01*
X111121953Y-97911020D01*
X111121953Y-97061020D01*
X111375554Y-97061020D01*
X111463209Y-97501690D01*
X111712828Y-97875272D01*
X112086410Y-98124891D01*
X112415845Y-98190420D01*
X112638315Y-98190420D01*
X112967750Y-98124891D01*
X113341332Y-97875272D01*
X113590951Y-97501690D01*
X113678606Y-97061020D01*
X113915554Y-97061020D01*
X114003209Y-97501690D01*
X114252828Y-97875272D01*
X114626410Y-98124891D01*
X114955845Y-98190420D01*
X115178315Y-98190420D01*
X115507750Y-98124891D01*
X115881332Y-97875272D01*
X116130951Y-97501690D01*
X116218606Y-97061020D01*
X116455554Y-97061020D01*
X116543209Y-97501690D01*
X116792828Y-97875272D01*
X117166410Y-98124891D01*
X117495845Y-98190420D01*
X117718315Y-98190420D01*
X118047750Y-98124891D01*
X118421332Y-97875272D01*
X118670951Y-97501690D01*
X118758606Y-97061020D01*
X118995554Y-97061020D01*
X119083209Y-97501690D01*
X119332828Y-97875272D01*
X119706410Y-98124891D01*
X120035845Y-98190420D01*
X120258315Y-98190420D01*
X120587750Y-98124891D01*
X120961332Y-97875272D01*
X121210951Y-97501690D01*
X121298606Y-97061020D01*
X121535554Y-97061020D01*
X121623209Y-97501690D01*
X121872828Y-97875272D01*
X122246410Y-98124891D01*
X122575845Y-98190420D01*
X122798315Y-98190420D01*
X123127750Y-98124891D01*
X123501332Y-97875272D01*
X123750951Y-97501690D01*
X123838606Y-97061020D01*
X124075554Y-97061020D01*
X124163209Y-97501690D01*
X124412828Y-97875272D01*
X124786410Y-98124891D01*
X125115845Y-98190420D01*
X125338315Y-98190420D01*
X125667750Y-98124891D01*
X126041332Y-97875272D01*
X126290951Y-97501690D01*
X126378606Y-97061020D01*
X126615554Y-97061020D01*
X126703209Y-97501690D01*
X126952828Y-97875272D01*
X127326410Y-98124891D01*
X127655845Y-98190420D01*
X127878315Y-98190420D01*
X128207750Y-98124891D01*
X128581332Y-97875272D01*
X128830951Y-97501690D01*
X128918606Y-97061020D01*
X128830951Y-96620350D01*
X128581332Y-96246768D01*
X128207750Y-95997149D01*
X127878315Y-95931620D01*
X127655845Y-95931620D01*
X127326410Y-95997149D01*
X126952828Y-96246768D01*
X126703209Y-96620350D01*
X126615554Y-97061020D01*
X126378606Y-97061020D01*
X126290951Y-96620350D01*
X126041332Y-96246768D01*
X125667750Y-95997149D01*
X125338315Y-95931620D01*
X125115845Y-95931620D01*
X124786410Y-95997149D01*
X124412828Y-96246768D01*
X124163209Y-96620350D01*
X124075554Y-97061020D01*
X123838606Y-97061020D01*
X123750951Y-96620350D01*
X123501332Y-96246768D01*
X123127750Y-95997149D01*
X122798315Y-95931620D01*
X122575845Y-95931620D01*
X122246410Y-95997149D01*
X121872828Y-96246768D01*
X121623209Y-96620350D01*
X121535554Y-97061020D01*
X121298606Y-97061020D01*
X121210951Y-96620350D01*
X120961332Y-96246768D01*
X120587750Y-95997149D01*
X120258315Y-95931620D01*
X120035845Y-95931620D01*
X119706410Y-95997149D01*
X119332828Y-96246768D01*
X119083209Y-96620350D01*
X118995554Y-97061020D01*
X118758606Y-97061020D01*
X118670951Y-96620350D01*
X118421332Y-96246768D01*
X118047750Y-95997149D01*
X117718315Y-95931620D01*
X117495845Y-95931620D01*
X117166410Y-95997149D01*
X116792828Y-96246768D01*
X116543209Y-96620350D01*
X116455554Y-97061020D01*
X116218606Y-97061020D01*
X116130951Y-96620350D01*
X115881332Y-96246768D01*
X115507750Y-95997149D01*
X115178315Y-95931620D01*
X114955845Y-95931620D01*
X114626410Y-95997149D01*
X114252828Y-96246768D01*
X114003209Y-96620350D01*
X113915554Y-97061020D01*
X113678606Y-97061020D01*
X113590951Y-96620350D01*
X113341332Y-96246768D01*
X112967750Y-95997149D01*
X112638315Y-95931620D01*
X112415845Y-95931620D01*
X112086410Y-95997149D01*
X111712828Y-96246768D01*
X111463209Y-96620350D01*
X111375554Y-97061020D01*
X111121953Y-97061020D01*
X111121953Y-96211020D01*
X111100268Y-96102004D01*
X111038516Y-96009584D01*
X110946096Y-95947832D01*
X110837080Y-95926147D01*
X109137080Y-95926147D01*
X109028064Y-95947832D01*
X108935644Y-96009584D01*
X108873892Y-96102004D01*
X108852207Y-96211020D01*
X108021658Y-96211020D01*
X108060925Y-96101777D01*
X108033738Y-95531546D01*
X107867824Y-95130995D01*
X107621705Y-95056861D01*
X106793565Y-95885000D01*
X106434355Y-95885000D01*
X105606215Y-95056861D01*
X105360096Y-95130995D01*
X105166995Y-95668223D01*
X102692503Y-95668223D01*
X102529031Y-95273569D01*
X102225391Y-94969929D01*
X102001657Y-94877255D01*
X105785821Y-94877255D01*
X106613960Y-95705395D01*
X107442099Y-94877255D01*
X107367965Y-94631136D01*
X106830737Y-94438035D01*
X106260506Y-94465222D01*
X105859955Y-94631136D01*
X105785821Y-94877255D01*
X102001657Y-94877255D01*
X101828666Y-94805600D01*
X101399254Y-94805600D01*
X101295823Y-94848443D01*
X101208548Y-94761168D01*
X101180208Y-94718754D01*
X101012173Y-94606476D01*
X100863993Y-94577001D01*
X100863989Y-94577001D01*
X100813961Y-94567050D01*
X100763933Y-94577001D01*
X96906436Y-94577001D01*
X95970359Y-93640924D01*
X96098839Y-93726772D01*
X96413692Y-93789400D01*
X96626308Y-93789400D01*
X96941161Y-93726772D01*
X97298204Y-93488204D01*
X97536772Y-93131161D01*
X97549501Y-93067168D01*
X97576640Y-93072566D01*
X97611660Y-93065600D01*
X97715388Y-93044967D01*
X97833013Y-92966373D01*
X97852851Y-92936683D01*
X98203317Y-92586217D01*
X108204000Y-92586217D01*
X108204000Y-92833783D01*
X108298739Y-93062505D01*
X108473795Y-93237561D01*
X108702517Y-93332300D01*
X108950083Y-93332300D01*
X109178805Y-93237561D01*
X109350766Y-93065600D01*
X110730187Y-93065600D01*
X110743228Y-93131161D01*
X110981796Y-93488204D01*
X111338839Y-93726772D01*
X111653692Y-93789400D01*
X111866308Y-93789400D01*
X112181161Y-93726772D01*
X112194670Y-93717745D01*
X118551861Y-93717745D01*
X118625995Y-93963864D01*
X119163223Y-94156965D01*
X119733454Y-94129778D01*
X120134005Y-93963864D01*
X120208139Y-93717745D01*
X119380000Y-92889605D01*
X118551861Y-93717745D01*
X112194670Y-93717745D01*
X112538204Y-93488204D01*
X112776772Y-93131161D01*
X112860546Y-92710000D01*
X112817427Y-92493223D01*
X117933035Y-92493223D01*
X117960222Y-93063454D01*
X118126136Y-93464005D01*
X118372255Y-93538139D01*
X119200395Y-92710000D01*
X119559605Y-92710000D01*
X120387745Y-93538139D01*
X120633864Y-93464005D01*
X120826965Y-92926777D01*
X120799778Y-92356546D01*
X120633864Y-91955995D01*
X120387745Y-91881861D01*
X119559605Y-92710000D01*
X119200395Y-92710000D01*
X118372255Y-91881861D01*
X118126136Y-91955995D01*
X117933035Y-92493223D01*
X112817427Y-92493223D01*
X112776772Y-92288839D01*
X112538204Y-91931796D01*
X112194671Y-91702255D01*
X118551861Y-91702255D01*
X119380000Y-92530395D01*
X120208139Y-91702255D01*
X120134005Y-91456136D01*
X119596777Y-91263035D01*
X119026546Y-91290222D01*
X118625995Y-91456136D01*
X118551861Y-91702255D01*
X112194671Y-91702255D01*
X112181161Y-91693228D01*
X111866308Y-91630600D01*
X111653692Y-91630600D01*
X111338839Y-91693228D01*
X110981796Y-91931796D01*
X110743228Y-92288839D01*
X110730187Y-92354400D01*
X109350766Y-92354400D01*
X109178805Y-92182439D01*
X108950083Y-92087700D01*
X108702517Y-92087700D01*
X108473795Y-92182439D01*
X108298739Y-92357495D01*
X108204000Y-92586217D01*
X98203317Y-92586217D01*
X100756017Y-90033517D01*
X106641900Y-90033517D01*
X106641900Y-90281083D01*
X106736639Y-90509805D01*
X106911695Y-90684861D01*
X107140417Y-90779600D01*
X107387983Y-90779600D01*
X107616705Y-90684861D01*
X107775966Y-90525600D01*
X110730187Y-90525600D01*
X110743228Y-90591161D01*
X110981796Y-90948204D01*
X111338839Y-91186772D01*
X111653692Y-91249400D01*
X111866308Y-91249400D01*
X112181161Y-91186772D01*
X112538204Y-90948204D01*
X112776772Y-90591161D01*
X112860546Y-90170000D01*
X112828927Y-90011039D01*
X116718096Y-90011039D01*
X116878959Y-90399423D01*
X117254866Y-90814389D01*
X117760959Y-91053914D01*
X117983000Y-90932629D01*
X117983000Y-89789000D01*
X118237000Y-89789000D01*
X118237000Y-90932629D01*
X118459041Y-91053914D01*
X118965134Y-90814389D01*
X119341041Y-90399423D01*
X119501904Y-90011039D01*
X119379915Y-89789000D01*
X118237000Y-89789000D01*
X117983000Y-89789000D01*
X116840085Y-89789000D01*
X116718096Y-90011039D01*
X112828927Y-90011039D01*
X112776772Y-89748839D01*
X112538204Y-89391796D01*
X112420219Y-89312961D01*
X116718096Y-89312961D01*
X116840085Y-89535000D01*
X117983000Y-89535000D01*
X117983000Y-88391371D01*
X118237000Y-88391371D01*
X118237000Y-89535000D01*
X119379915Y-89535000D01*
X119501904Y-89312961D01*
X119341041Y-88924577D01*
X118965134Y-88509611D01*
X118459041Y-88270086D01*
X118237000Y-88391371D01*
X117983000Y-88391371D01*
X117760959Y-88270086D01*
X117254866Y-88509611D01*
X116878959Y-88924577D01*
X116718096Y-89312961D01*
X112420219Y-89312961D01*
X112181161Y-89153228D01*
X111866308Y-89090600D01*
X111653692Y-89090600D01*
X111338839Y-89153228D01*
X110981796Y-89391796D01*
X110743228Y-89748839D01*
X110730187Y-89814400D01*
X107795739Y-89814400D01*
X107791761Y-89804795D01*
X107616705Y-89629739D01*
X107387983Y-89535000D01*
X107140417Y-89535000D01*
X106911695Y-89629739D01*
X106736639Y-89804795D01*
X106641900Y-90033517D01*
X100756017Y-90033517D01*
X103283317Y-87506217D01*
X107543600Y-87506217D01*
X107543600Y-87753783D01*
X107638339Y-87982505D01*
X107813395Y-88157561D01*
X108042117Y-88252300D01*
X108289683Y-88252300D01*
X108518405Y-88157561D01*
X108690366Y-87985600D01*
X110730187Y-87985600D01*
X110743228Y-88051161D01*
X110981796Y-88408204D01*
X111338839Y-88646772D01*
X111653692Y-88709400D01*
X111866308Y-88709400D01*
X112181161Y-88646772D01*
X112538204Y-88408204D01*
X112776772Y-88051161D01*
X112860546Y-87630000D01*
X112776772Y-87208839D01*
X112718749Y-87122000D01*
X117009454Y-87122000D01*
X117093228Y-87543161D01*
X117331796Y-87900204D01*
X117688839Y-88138772D01*
X118003692Y-88201400D01*
X118216308Y-88201400D01*
X118531161Y-88138772D01*
X118888204Y-87900204D01*
X119126772Y-87543161D01*
X119210546Y-87122000D01*
X119126772Y-86700839D01*
X118888204Y-86343796D01*
X118531161Y-86105228D01*
X118216308Y-86042600D01*
X118003692Y-86042600D01*
X117688839Y-86105228D01*
X117331796Y-86343796D01*
X117093228Y-86700839D01*
X117009454Y-87122000D01*
X112718749Y-87122000D01*
X112538204Y-86851796D01*
X112181161Y-86613228D01*
X111866308Y-86550600D01*
X111653692Y-86550600D01*
X111338839Y-86613228D01*
X110981796Y-86851796D01*
X110743228Y-87208839D01*
X110730187Y-87274400D01*
X108690366Y-87274400D01*
X108518405Y-87102439D01*
X108289683Y-87007700D01*
X108042117Y-87007700D01*
X107813395Y-87102439D01*
X107638339Y-87277495D01*
X107543600Y-87506217D01*
X103283317Y-87506217D01*
X105537701Y-85251834D01*
X105611419Y-85429805D01*
X105786475Y-85604861D01*
X106015197Y-85699600D01*
X106262763Y-85699600D01*
X106491485Y-85604861D01*
X106650746Y-85445600D01*
X110730187Y-85445600D01*
X110743228Y-85511161D01*
X110981796Y-85868204D01*
X111338839Y-86106772D01*
X111653692Y-86169400D01*
X111866308Y-86169400D01*
X112181161Y-86106772D01*
X112538204Y-85868204D01*
X112776772Y-85511161D01*
X112860546Y-85090000D01*
X112828927Y-84931039D01*
X116718096Y-84931039D01*
X116878959Y-85319423D01*
X117254866Y-85734389D01*
X117760959Y-85973914D01*
X117983000Y-85852629D01*
X117983000Y-84709000D01*
X118237000Y-84709000D01*
X118237000Y-85852629D01*
X118459041Y-85973914D01*
X118965134Y-85734389D01*
X119341041Y-85319423D01*
X119501904Y-84931039D01*
X119379915Y-84709000D01*
X118237000Y-84709000D01*
X117983000Y-84709000D01*
X116840085Y-84709000D01*
X116718096Y-84931039D01*
X112828927Y-84931039D01*
X112776772Y-84668839D01*
X112538204Y-84311796D01*
X112420219Y-84232961D01*
X116718096Y-84232961D01*
X116840085Y-84455000D01*
X117983000Y-84455000D01*
X117983000Y-83311371D01*
X118237000Y-83311371D01*
X118237000Y-84455000D01*
X119379915Y-84455000D01*
X119501904Y-84232961D01*
X119341041Y-83844577D01*
X118965134Y-83429611D01*
X118459041Y-83190086D01*
X118237000Y-83311371D01*
X117983000Y-83311371D01*
X117760959Y-83190086D01*
X117254866Y-83429611D01*
X116878959Y-83844577D01*
X116718096Y-84232961D01*
X112420219Y-84232961D01*
X112181161Y-84073228D01*
X111866308Y-84010600D01*
X111653692Y-84010600D01*
X111338839Y-84073228D01*
X110981796Y-84311796D01*
X110743228Y-84668839D01*
X110730187Y-84734400D01*
X106670519Y-84734400D01*
X106666541Y-84724795D01*
X106642489Y-84700743D01*
X106664593Y-84685973D01*
X106684431Y-84656283D01*
X106954294Y-84386420D01*
X107197483Y-84386420D01*
X107426205Y-84291681D01*
X107601261Y-84116625D01*
X107696000Y-83887903D01*
X107696000Y-83640337D01*
X107601261Y-83411615D01*
X107426205Y-83236559D01*
X107423756Y-83235545D01*
X107461765Y-83219801D01*
X107636821Y-83044745D01*
X107731560Y-82816023D01*
X107731560Y-82568457D01*
X107655810Y-82385577D01*
X107899200Y-82385577D01*
X107899200Y-82633143D01*
X107993939Y-82861865D01*
X108168995Y-83036921D01*
X108397717Y-83131660D01*
X108642490Y-83131660D01*
X108725651Y-83187226D01*
X108829379Y-83207859D01*
X108829383Y-83207859D01*
X108864398Y-83214824D01*
X108899413Y-83207859D01*
X110901384Y-83207859D01*
X110981796Y-83328204D01*
X111338839Y-83566772D01*
X111653692Y-83629400D01*
X111866308Y-83629400D01*
X112181161Y-83566772D01*
X112538204Y-83328204D01*
X112776772Y-82971161D01*
X112860546Y-82550000D01*
X112776772Y-82128839D01*
X112718749Y-82042000D01*
X117009454Y-82042000D01*
X117093228Y-82463161D01*
X117331796Y-82820204D01*
X117688839Y-83058772D01*
X118003692Y-83121400D01*
X118216308Y-83121400D01*
X118531161Y-83058772D01*
X118888204Y-82820204D01*
X119126772Y-82463161D01*
X119210546Y-82042000D01*
X119126772Y-81620839D01*
X118888204Y-81263796D01*
X118531161Y-81025228D01*
X118216308Y-80962600D01*
X118003692Y-80962600D01*
X117688839Y-81025228D01*
X117331796Y-81263796D01*
X117093228Y-81620839D01*
X117009454Y-82042000D01*
X112718749Y-82042000D01*
X112538204Y-81771796D01*
X112181161Y-81533228D01*
X111866308Y-81470600D01*
X111653692Y-81470600D01*
X111338839Y-81533228D01*
X110981796Y-81771796D01*
X110743228Y-82128839D01*
X110670064Y-82496659D01*
X109143800Y-82496659D01*
X109143800Y-82385577D01*
X109049061Y-82156855D01*
X108874005Y-81981799D01*
X108645283Y-81887060D01*
X108397717Y-81887060D01*
X108168995Y-81981799D01*
X107993939Y-82156855D01*
X107899200Y-82385577D01*
X107655810Y-82385577D01*
X107636821Y-82339735D01*
X107461765Y-82164679D01*
X107233043Y-82069940D01*
X106985477Y-82069940D01*
X106756755Y-82164679D01*
X106581699Y-82339735D01*
X106486960Y-82568457D01*
X106486960Y-82816023D01*
X106501519Y-82851171D01*
X99538290Y-89814400D01*
X97549813Y-89814400D01*
X97536772Y-89748839D01*
X97298204Y-89391796D01*
X96941161Y-89153228D01*
X96626308Y-89090600D01*
X96413692Y-89090600D01*
X96098839Y-89153228D01*
X95741796Y-89391796D01*
X95542199Y-89690515D01*
X95542199Y-88109485D01*
X95741796Y-88408204D01*
X96098839Y-88646772D01*
X96413692Y-88709400D01*
X96626308Y-88709400D01*
X96941161Y-88646772D01*
X97298204Y-88408204D01*
X97536772Y-88051161D01*
X97620546Y-87630000D01*
X97536772Y-87208839D01*
X97298204Y-86851796D01*
X96941161Y-86613228D01*
X96626308Y-86550600D01*
X96413692Y-86550600D01*
X96098839Y-86613228D01*
X95741796Y-86851796D01*
X95542199Y-87150515D01*
X95542199Y-85569485D01*
X95741796Y-85868204D01*
X96098839Y-86106772D01*
X96413692Y-86169400D01*
X96626308Y-86169400D01*
X96941161Y-86106772D01*
X97298204Y-85868204D01*
X97536772Y-85511161D01*
X97620546Y-85090000D01*
X97536772Y-84668839D01*
X97298204Y-84311796D01*
X96941161Y-84073228D01*
X96626308Y-84010600D01*
X96413692Y-84010600D01*
X96098839Y-84073228D01*
X95741796Y-84311796D01*
X95542199Y-84610515D01*
X95542199Y-83029485D01*
X95741796Y-83328204D01*
X96098839Y-83566772D01*
X96413692Y-83629400D01*
X96626308Y-83629400D01*
X96941161Y-83566772D01*
X97298204Y-83328204D01*
X97536772Y-82971161D01*
X97620546Y-82550000D01*
X97536772Y-82128839D01*
X97298204Y-81771796D01*
X96941161Y-81533228D01*
X96626308Y-81470600D01*
X96413692Y-81470600D01*
X96098839Y-81533228D01*
X95741796Y-81771796D01*
X95542199Y-82070515D01*
X95542199Y-80489485D01*
X95741796Y-80788204D01*
X96098839Y-81026772D01*
X96413692Y-81089400D01*
X96626308Y-81089400D01*
X96941161Y-81026772D01*
X97298204Y-80788204D01*
X97536772Y-80431161D01*
X97620546Y-80010000D01*
X97597946Y-79896377D01*
X97726500Y-79896377D01*
X97726500Y-80143943D01*
X97821239Y-80372665D01*
X97996295Y-80547721D01*
X98225017Y-80642460D01*
X98472583Y-80642460D01*
X98701305Y-80547721D01*
X98876361Y-80372665D01*
X98879287Y-80365600D01*
X110730187Y-80365600D01*
X110743228Y-80431161D01*
X110981796Y-80788204D01*
X111338839Y-81026772D01*
X111653692Y-81089400D01*
X111866308Y-81089400D01*
X112181161Y-81026772D01*
X112538204Y-80788204D01*
X112776772Y-80431161D01*
X112860546Y-80010000D01*
X112776772Y-79588839D01*
X112718749Y-79502000D01*
X117009454Y-79502000D01*
X117093228Y-79923161D01*
X117331796Y-80280204D01*
X117688839Y-80518772D01*
X118003692Y-80581400D01*
X118216308Y-80581400D01*
X118531161Y-80518772D01*
X118888204Y-80280204D01*
X119126772Y-79923161D01*
X119210546Y-79502000D01*
X119126772Y-79080839D01*
X118888204Y-78723796D01*
X118531161Y-78485228D01*
X118216308Y-78422600D01*
X118003692Y-78422600D01*
X117688839Y-78485228D01*
X117331796Y-78723796D01*
X117093228Y-79080839D01*
X117009454Y-79502000D01*
X112718749Y-79502000D01*
X112538204Y-79231796D01*
X112181161Y-78993228D01*
X111866308Y-78930600D01*
X111653692Y-78930600D01*
X111338839Y-78993228D01*
X110981796Y-79231796D01*
X110743228Y-79588839D01*
X110730187Y-79654400D01*
X98863106Y-79654400D01*
X98701305Y-79492599D01*
X98472583Y-79397860D01*
X98225017Y-79397860D01*
X97996295Y-79492599D01*
X97821239Y-79667655D01*
X97726500Y-79896377D01*
X97597946Y-79896377D01*
X97536772Y-79588839D01*
X97298204Y-79231796D01*
X96941161Y-78993228D01*
X96626308Y-78930600D01*
X96413692Y-78930600D01*
X96098839Y-78993228D01*
X95741796Y-79231796D01*
X95542199Y-79530515D01*
X95542199Y-77949485D01*
X95741796Y-78248204D01*
X96098839Y-78486772D01*
X96413692Y-78549400D01*
X96626308Y-78549400D01*
X96941161Y-78486772D01*
X97298204Y-78248204D01*
X97536772Y-77891161D01*
X97620546Y-77470000D01*
X97596430Y-77348757D01*
X103830120Y-77348757D01*
X103830120Y-77596323D01*
X103924859Y-77825045D01*
X104099915Y-78000101D01*
X104328637Y-78094840D01*
X104576203Y-78094840D01*
X104804925Y-78000101D01*
X104979426Y-77825600D01*
X110730187Y-77825600D01*
X110743228Y-77891161D01*
X110981796Y-78248204D01*
X111338839Y-78486772D01*
X111653692Y-78549400D01*
X111866308Y-78549400D01*
X112181161Y-78486772D01*
X112538204Y-78248204D01*
X112776772Y-77891161D01*
X112860546Y-77470000D01*
X112776772Y-77048839D01*
X112718749Y-76962000D01*
X117009454Y-76962000D01*
X117093228Y-77383161D01*
X117331796Y-77740204D01*
X117688839Y-77978772D01*
X118003692Y-78041400D01*
X118216308Y-78041400D01*
X118531161Y-77978772D01*
X118888204Y-77740204D01*
X119126772Y-77383161D01*
X119210546Y-76962000D01*
X119132971Y-76571999D01*
X123062050Y-76571999D01*
X123072002Y-76622032D01*
X123072001Y-91859973D01*
X123062050Y-91910001D01*
X123072001Y-91960029D01*
X123072001Y-91960032D01*
X123101476Y-92108212D01*
X123213754Y-92276248D01*
X123256169Y-92304589D01*
X123343443Y-92391863D01*
X123300600Y-92495294D01*
X123300600Y-92924706D01*
X123464929Y-93321431D01*
X123768569Y-93625071D01*
X124165294Y-93789400D01*
X124594706Y-93789400D01*
X124991431Y-93625071D01*
X125295071Y-93321431D01*
X125459400Y-92924706D01*
X125459400Y-92495294D01*
X125295071Y-92098569D01*
X124991431Y-91794929D01*
X124594706Y-91630600D01*
X124165294Y-91630600D01*
X124088001Y-91662616D01*
X124088001Y-89662000D01*
X124629454Y-89662000D01*
X124713228Y-90083161D01*
X124951796Y-90440204D01*
X125308839Y-90678772D01*
X125623692Y-90741400D01*
X125836308Y-90741400D01*
X126151161Y-90678772D01*
X126508204Y-90440204D01*
X126746772Y-90083161D01*
X126830546Y-89662000D01*
X126746772Y-89240839D01*
X126508204Y-88883796D01*
X126151161Y-88645228D01*
X125836308Y-88582600D01*
X125623692Y-88582600D01*
X125308839Y-88645228D01*
X124951796Y-88883796D01*
X124713228Y-89240839D01*
X124629454Y-89662000D01*
X124088001Y-89662000D01*
X124088001Y-87471039D01*
X124338096Y-87471039D01*
X124498959Y-87859423D01*
X124874866Y-88274389D01*
X125380959Y-88513914D01*
X125603000Y-88392629D01*
X125603000Y-87249000D01*
X125857000Y-87249000D01*
X125857000Y-88392629D01*
X126079041Y-88513914D01*
X126585134Y-88274389D01*
X126961041Y-87859423D01*
X127121904Y-87471039D01*
X126999915Y-87249000D01*
X125857000Y-87249000D01*
X125603000Y-87249000D01*
X124460085Y-87249000D01*
X124338096Y-87471039D01*
X124088001Y-87471039D01*
X124088001Y-86772961D01*
X124338096Y-86772961D01*
X124460085Y-86995000D01*
X125603000Y-86995000D01*
X125603000Y-85851371D01*
X125857000Y-85851371D01*
X125857000Y-86995000D01*
X126999915Y-86995000D01*
X127121904Y-86772961D01*
X126961041Y-86384577D01*
X126585134Y-85969611D01*
X126079041Y-85730086D01*
X125857000Y-85851371D01*
X125603000Y-85851371D01*
X125380959Y-85730086D01*
X124874866Y-85969611D01*
X124498959Y-86384577D01*
X124338096Y-86772961D01*
X124088001Y-86772961D01*
X124088001Y-84582000D01*
X124629454Y-84582000D01*
X124713228Y-85003161D01*
X124951796Y-85360204D01*
X125308839Y-85598772D01*
X125623692Y-85661400D01*
X125836308Y-85661400D01*
X126151161Y-85598772D01*
X126508204Y-85360204D01*
X126746772Y-85003161D01*
X126830546Y-84582000D01*
X126746772Y-84160839D01*
X126508204Y-83803796D01*
X126151161Y-83565228D01*
X125836308Y-83502600D01*
X125623692Y-83502600D01*
X125308839Y-83565228D01*
X124951796Y-83803796D01*
X124713228Y-84160839D01*
X124629454Y-84582000D01*
X124088001Y-84582000D01*
X124088001Y-82391039D01*
X124338096Y-82391039D01*
X124498959Y-82779423D01*
X124874866Y-83194389D01*
X125380959Y-83433914D01*
X125603000Y-83312629D01*
X125603000Y-82169000D01*
X125857000Y-82169000D01*
X125857000Y-83312629D01*
X126079041Y-83433914D01*
X126585134Y-83194389D01*
X126961041Y-82779423D01*
X127121904Y-82391039D01*
X126999915Y-82169000D01*
X125857000Y-82169000D01*
X125603000Y-82169000D01*
X124460085Y-82169000D01*
X124338096Y-82391039D01*
X124088001Y-82391039D01*
X124088001Y-81692961D01*
X124338096Y-81692961D01*
X124460085Y-81915000D01*
X125603000Y-81915000D01*
X125603000Y-80771371D01*
X125857000Y-80771371D01*
X125857000Y-81915000D01*
X126999915Y-81915000D01*
X127121904Y-81692961D01*
X126961041Y-81304577D01*
X126585134Y-80889611D01*
X126079041Y-80650086D01*
X125857000Y-80771371D01*
X125603000Y-80771371D01*
X125380959Y-80650086D01*
X124874866Y-80889611D01*
X124498959Y-81304577D01*
X124338096Y-81692961D01*
X124088001Y-81692961D01*
X124088001Y-79502000D01*
X124629454Y-79502000D01*
X124713228Y-79923161D01*
X124951796Y-80280204D01*
X125308839Y-80518772D01*
X125623692Y-80581400D01*
X125836308Y-80581400D01*
X126151161Y-80518772D01*
X126508204Y-80280204D01*
X126746772Y-79923161D01*
X126830546Y-79502000D01*
X126746772Y-79080839D01*
X126508204Y-78723796D01*
X126151161Y-78485228D01*
X125836308Y-78422600D01*
X125623692Y-78422600D01*
X125308839Y-78485228D01*
X124951796Y-78723796D01*
X124713228Y-79080839D01*
X124629454Y-79502000D01*
X124088001Y-79502000D01*
X124088001Y-77311039D01*
X124338096Y-77311039D01*
X124498959Y-77699423D01*
X124874866Y-78114389D01*
X125380959Y-78353914D01*
X125603000Y-78232629D01*
X125603000Y-77089000D01*
X125857000Y-77089000D01*
X125857000Y-78232629D01*
X126079041Y-78353914D01*
X126585134Y-78114389D01*
X126961041Y-77699423D01*
X127121904Y-77311039D01*
X126999915Y-77089000D01*
X125857000Y-77089000D01*
X125603000Y-77089000D01*
X124460085Y-77089000D01*
X124338096Y-77311039D01*
X124088001Y-77311039D01*
X124088001Y-76782419D01*
X124395108Y-76475312D01*
X124338096Y-76612961D01*
X124460085Y-76835000D01*
X125603000Y-76835000D01*
X125603000Y-75691371D01*
X125857000Y-75691371D01*
X125857000Y-76835000D01*
X126999915Y-76835000D01*
X127121904Y-76612961D01*
X126961041Y-76224577D01*
X126585134Y-75809611D01*
X126079041Y-75570086D01*
X125857000Y-75691371D01*
X125603000Y-75691371D01*
X125380959Y-75570086D01*
X125227888Y-75642532D01*
X125411273Y-75459147D01*
X125623692Y-75501400D01*
X125836308Y-75501400D01*
X126151161Y-75438772D01*
X126508204Y-75200204D01*
X126746772Y-74843161D01*
X126830546Y-74422000D01*
X126746772Y-74000839D01*
X126508204Y-73643796D01*
X126151161Y-73405228D01*
X125836308Y-73342600D01*
X125623692Y-73342600D01*
X125308839Y-73405228D01*
X124951796Y-73643796D01*
X124713228Y-74000839D01*
X124629454Y-74422000D01*
X124692853Y-74740727D01*
X123256167Y-76177413D01*
X123213755Y-76205752D01*
X123185416Y-76248164D01*
X123185413Y-76248167D01*
X123101476Y-76373788D01*
X123062050Y-76571999D01*
X119132971Y-76571999D01*
X119126772Y-76540839D01*
X118888204Y-76183796D01*
X118531161Y-75945228D01*
X118216308Y-75882600D01*
X118003692Y-75882600D01*
X117688839Y-75945228D01*
X117331796Y-76183796D01*
X117093228Y-76540839D01*
X117009454Y-76962000D01*
X112718749Y-76962000D01*
X112538204Y-76691796D01*
X112181161Y-76453228D01*
X111866308Y-76390600D01*
X111653692Y-76390600D01*
X111338839Y-76453228D01*
X110981796Y-76691796D01*
X110743228Y-77048839D01*
X110730187Y-77114400D01*
X104974346Y-77114400D01*
X104804925Y-76944979D01*
X104576203Y-76850240D01*
X104328637Y-76850240D01*
X104099915Y-76944979D01*
X103924859Y-77120035D01*
X103830120Y-77348757D01*
X97596430Y-77348757D01*
X97536772Y-77048839D01*
X97298204Y-76691796D01*
X96941161Y-76453228D01*
X96626308Y-76390600D01*
X96413692Y-76390600D01*
X96098839Y-76453228D01*
X95741796Y-76691796D01*
X95542199Y-76990515D01*
X95542199Y-76208297D01*
X102412800Y-76208297D01*
X102412800Y-76455863D01*
X102507539Y-76684585D01*
X102682595Y-76859641D01*
X102911317Y-76954380D01*
X103158883Y-76954380D01*
X103387605Y-76859641D01*
X103508766Y-76738480D01*
X103980602Y-76738480D01*
X104020620Y-76746440D01*
X104060638Y-76738480D01*
X104060643Y-76738480D01*
X104179189Y-76714900D01*
X104313617Y-76625077D01*
X104336290Y-76591146D01*
X104572495Y-76354940D01*
X104743843Y-76354940D01*
X104972565Y-76260201D01*
X105147621Y-76085145D01*
X105242360Y-75856423D01*
X105242360Y-75608857D01*
X105147621Y-75380135D01*
X105053086Y-75285600D01*
X110730187Y-75285600D01*
X110743228Y-75351161D01*
X110981796Y-75708204D01*
X111338839Y-75946772D01*
X111653692Y-76009400D01*
X111866308Y-76009400D01*
X112181161Y-75946772D01*
X112538204Y-75708204D01*
X112776772Y-75351161D01*
X112860546Y-74930000D01*
X112776772Y-74508839D01*
X112538204Y-74151796D01*
X112181161Y-73913228D01*
X111866308Y-73850600D01*
X111653692Y-73850600D01*
X111338839Y-73913228D01*
X110981796Y-74151796D01*
X110743228Y-74508839D01*
X110730187Y-74574400D01*
X103877066Y-74574400D01*
X103710185Y-74407519D01*
X103481463Y-74312780D01*
X103233897Y-74312780D01*
X103005175Y-74407519D01*
X102830119Y-74582575D01*
X102735380Y-74811297D01*
X102735380Y-75058863D01*
X102830119Y-75287585D01*
X103005175Y-75462641D01*
X103233897Y-75557380D01*
X103481463Y-75557380D01*
X103710185Y-75462641D01*
X103885241Y-75287585D01*
X103886063Y-75285600D01*
X104187034Y-75285600D01*
X104092499Y-75380135D01*
X103997760Y-75608857D01*
X103997760Y-75780205D01*
X103852285Y-75925680D01*
X103508766Y-75925680D01*
X103387605Y-75804519D01*
X103158883Y-75709780D01*
X102911317Y-75709780D01*
X102682595Y-75804519D01*
X102507539Y-75979575D01*
X102412800Y-76208297D01*
X95542199Y-76208297D01*
X95542199Y-75409485D01*
X95741796Y-75708204D01*
X96098839Y-75946772D01*
X96413692Y-76009400D01*
X96626308Y-76009400D01*
X96941161Y-75946772D01*
X97298204Y-75708204D01*
X97536772Y-75351161D01*
X97549813Y-75285600D01*
X100284217Y-75285600D01*
X100285039Y-75287585D01*
X100460095Y-75462641D01*
X100688817Y-75557380D01*
X100936383Y-75557380D01*
X101165105Y-75462641D01*
X101340161Y-75287585D01*
X101434900Y-75058863D01*
X101434900Y-74811297D01*
X101340161Y-74582575D01*
X101165105Y-74407519D01*
X100936383Y-74312780D01*
X100688817Y-74312780D01*
X100460095Y-74407519D01*
X100293214Y-74574400D01*
X97549813Y-74574400D01*
X97536772Y-74508839D01*
X97298204Y-74151796D01*
X96941161Y-73913228D01*
X96626308Y-73850600D01*
X96413692Y-73850600D01*
X96098839Y-73913228D01*
X95741796Y-74151796D01*
X95542199Y-74450515D01*
X95542199Y-72869485D01*
X95741796Y-73168204D01*
X96098839Y-73406772D01*
X96413692Y-73469400D01*
X96626308Y-73469400D01*
X96941161Y-73406772D01*
X97298204Y-73168204D01*
X97536772Y-72811161D01*
X97549813Y-72745600D01*
X100291837Y-72745600D01*
X100292659Y-72747585D01*
X100467715Y-72922641D01*
X100696437Y-73017380D01*
X100944003Y-73017380D01*
X101172725Y-72922641D01*
X101347781Y-72747585D01*
X101351320Y-72739039D01*
X110368096Y-72739039D01*
X110528959Y-73127423D01*
X110904866Y-73542389D01*
X111410959Y-73781914D01*
X111633000Y-73660629D01*
X111633000Y-72517000D01*
X111887000Y-72517000D01*
X111887000Y-73660629D01*
X112109041Y-73781914D01*
X112446923Y-73622000D01*
X117025127Y-73622000D01*
X117025127Y-75222000D01*
X117046812Y-75331016D01*
X117108564Y-75423436D01*
X117200984Y-75485188D01*
X117310000Y-75506873D01*
X118910000Y-75506873D01*
X119019016Y-75485188D01*
X119111436Y-75423436D01*
X119173188Y-75331016D01*
X119194873Y-75222000D01*
X119194873Y-73622000D01*
X119173188Y-73512984D01*
X119111436Y-73420564D01*
X119019016Y-73358812D01*
X118910000Y-73337127D01*
X117310000Y-73337127D01*
X117200984Y-73358812D01*
X117108564Y-73420564D01*
X117046812Y-73512984D01*
X117025127Y-73622000D01*
X112446923Y-73622000D01*
X112615134Y-73542389D01*
X112991041Y-73127423D01*
X113151904Y-72739039D01*
X113029915Y-72517000D01*
X111887000Y-72517000D01*
X111633000Y-72517000D01*
X110490085Y-72517000D01*
X110368096Y-72739039D01*
X101351320Y-72739039D01*
X101442520Y-72518863D01*
X101442520Y-72271297D01*
X101347781Y-72042575D01*
X101346167Y-72040961D01*
X110368096Y-72040961D01*
X110490085Y-72263000D01*
X111633000Y-72263000D01*
X111633000Y-71119371D01*
X111887000Y-71119371D01*
X111887000Y-72263000D01*
X113029915Y-72263000D01*
X113151904Y-72040961D01*
X112991041Y-71652577D01*
X112615134Y-71237611D01*
X112109041Y-70998086D01*
X111887000Y-71119371D01*
X111633000Y-71119371D01*
X111410959Y-70998086D01*
X110904866Y-71237611D01*
X110528959Y-71652577D01*
X110368096Y-72040961D01*
X101346167Y-72040961D01*
X101172725Y-71867519D01*
X100944003Y-71772780D01*
X100696437Y-71772780D01*
X100467715Y-71867519D01*
X100300834Y-72034400D01*
X97549813Y-72034400D01*
X97536772Y-71968839D01*
X97298204Y-71611796D01*
X96941161Y-71373228D01*
X96626308Y-71310600D01*
X96413692Y-71310600D01*
X96098839Y-71373228D01*
X95741796Y-71611796D01*
X95542199Y-71910515D01*
X95542199Y-71546221D01*
X96201273Y-70887147D01*
X96413692Y-70929400D01*
X96626308Y-70929400D01*
X96941161Y-70866772D01*
X97298204Y-70628204D01*
X97536772Y-70271161D01*
X97620546Y-69850000D01*
X97536772Y-69428839D01*
X97298204Y-69071796D01*
X96941161Y-68833228D01*
X96626308Y-68770600D01*
X96413692Y-68770600D01*
X96098839Y-68833228D01*
X95741796Y-69071796D01*
X95503228Y-69428839D01*
X95419454Y-69850000D01*
X95482853Y-70168727D01*
X94710367Y-70941213D01*
X94667952Y-70969554D01*
X94555674Y-71137590D01*
X94526199Y-71285770D01*
X94526199Y-71285773D01*
X94516248Y-71335801D01*
X77949400Y-71335801D01*
X77949400Y-70857745D01*
X82991861Y-70857745D01*
X83065995Y-71103864D01*
X83603223Y-71296965D01*
X84173454Y-71269778D01*
X84574005Y-71103864D01*
X84648139Y-70857745D01*
X83820000Y-70029605D01*
X82991861Y-70857745D01*
X77949400Y-70857745D01*
X77949400Y-69633223D01*
X82373035Y-69633223D01*
X82400222Y-70203454D01*
X82566136Y-70604005D01*
X82812255Y-70678139D01*
X83640395Y-69850000D01*
X83999605Y-69850000D01*
X84827745Y-70678139D01*
X85073864Y-70604005D01*
X85266965Y-70066777D01*
X85239778Y-69496546D01*
X85073864Y-69095995D01*
X84827745Y-69021861D01*
X83999605Y-69850000D01*
X83640395Y-69850000D01*
X82812255Y-69021861D01*
X82566136Y-69095995D01*
X82373035Y-69633223D01*
X77949400Y-69633223D01*
X77949400Y-68842255D01*
X82991861Y-68842255D01*
X83820000Y-69670395D01*
X84648139Y-68842255D01*
X84574005Y-68596136D01*
X84036777Y-68403035D01*
X83466546Y-68430222D01*
X83065995Y-68596136D01*
X82991861Y-68842255D01*
X77949400Y-68842255D01*
X77949400Y-67024039D01*
X81158096Y-67024039D01*
X81318959Y-67412423D01*
X81694866Y-67827389D01*
X82200959Y-68066914D01*
X82423000Y-67945629D01*
X82423000Y-66802000D01*
X82677000Y-66802000D01*
X82677000Y-67945629D01*
X82899041Y-68066914D01*
X83405134Y-67827389D01*
X83781041Y-67412423D01*
X83941904Y-67024039D01*
X83819915Y-66802000D01*
X82677000Y-66802000D01*
X82423000Y-66802000D01*
X81280085Y-66802000D01*
X81158096Y-67024039D01*
X77949400Y-67024039D01*
X77949400Y-66325961D01*
X81158096Y-66325961D01*
X81280085Y-66548000D01*
X82423000Y-66548000D01*
X82423000Y-65404371D01*
X82677000Y-65404371D01*
X82677000Y-66548000D01*
X83819915Y-66548000D01*
X83941904Y-66325961D01*
X83781041Y-65937577D01*
X83405134Y-65522611D01*
X82899041Y-65283086D01*
X82677000Y-65404371D01*
X82423000Y-65404371D01*
X82200959Y-65283086D01*
X81694866Y-65522611D01*
X81318959Y-65937577D01*
X81158096Y-66325961D01*
X77949400Y-66325961D01*
X77949400Y-62602745D01*
X81721861Y-62602745D01*
X81795995Y-62848864D01*
X82333223Y-63041965D01*
X82903454Y-63014778D01*
X83304005Y-62848864D01*
X83378139Y-62602745D01*
X82550000Y-61774605D01*
X81721861Y-62602745D01*
X77949400Y-62602745D01*
X77949400Y-61378223D01*
X81103035Y-61378223D01*
X81130222Y-61948454D01*
X81296136Y-62349005D01*
X81542255Y-62423139D01*
X82370395Y-61595000D01*
X82729605Y-61595000D01*
X83557745Y-62423139D01*
X83803864Y-62349005D01*
X83996965Y-61811777D01*
X83969778Y-61241546D01*
X83803864Y-60840995D01*
X83557745Y-60766861D01*
X82729605Y-61595000D01*
X82370395Y-61595000D01*
X81542255Y-60766861D01*
X81296136Y-60840995D01*
X81103035Y-61378223D01*
X77949400Y-61378223D01*
X77949400Y-60587255D01*
X81721861Y-60587255D01*
X82550000Y-61415395D01*
X83378139Y-60587255D01*
X83304005Y-60341136D01*
X82766777Y-60148035D01*
X82196546Y-60175222D01*
X81795995Y-60341136D01*
X81721861Y-60587255D01*
X77949400Y-60587255D01*
X77949400Y-45555000D01*
X81465127Y-45555000D01*
X81465127Y-47155000D01*
X81486812Y-47264016D01*
X81548564Y-47356436D01*
X81640984Y-47418188D01*
X81750000Y-47439873D01*
X83350000Y-47439873D01*
X83459016Y-47418188D01*
X83551436Y-47356436D01*
X83613188Y-47264016D01*
X83634873Y-47155000D01*
X83634873Y-46863000D01*
X88943580Y-46863000D01*
X87696167Y-48110413D01*
X87653755Y-48138752D01*
X87625416Y-48181164D01*
X87625413Y-48181167D01*
X87541476Y-48306788D01*
X87502050Y-48504999D01*
X87512002Y-48555032D01*
X87512001Y-68999973D01*
X87502050Y-69050001D01*
X87512001Y-69100029D01*
X87512001Y-69100032D01*
X87537396Y-69227700D01*
X87541476Y-69248212D01*
X87623838Y-69371475D01*
X87653754Y-69416248D01*
X87696169Y-69444589D01*
X87783443Y-69531863D01*
X87740600Y-69635294D01*
X87740600Y-70064706D01*
X87904929Y-70461431D01*
X88208569Y-70765071D01*
X88605294Y-70929400D01*
X89034706Y-70929400D01*
X89431431Y-70765071D01*
X89735071Y-70461431D01*
X89899400Y-70064706D01*
X89899400Y-69635294D01*
X89735071Y-69238569D01*
X89431431Y-68934929D01*
X89034706Y-68770600D01*
X88605294Y-68770600D01*
X88528001Y-68802616D01*
X88528001Y-66675000D01*
X89069454Y-66675000D01*
X89153228Y-67096161D01*
X89391796Y-67453204D01*
X89748839Y-67691772D01*
X90063692Y-67754400D01*
X90276308Y-67754400D01*
X90591161Y-67691772D01*
X90948204Y-67453204D01*
X91043889Y-67310000D01*
X95419454Y-67310000D01*
X95503228Y-67731161D01*
X95741796Y-68088204D01*
X96098839Y-68326772D01*
X96413692Y-68389400D01*
X96626308Y-68389400D01*
X96941161Y-68326772D01*
X97298204Y-68088204D01*
X97536772Y-67731161D01*
X97549813Y-67665600D01*
X97781154Y-67665600D01*
X97755199Y-67691555D01*
X97660460Y-67920277D01*
X97660460Y-68167843D01*
X97755199Y-68396565D01*
X97876361Y-68517727D01*
X97876360Y-70402494D01*
X97755199Y-70523655D01*
X97660460Y-70752377D01*
X97660460Y-70999943D01*
X97755199Y-71228665D01*
X97930255Y-71403721D01*
X98158977Y-71498460D01*
X98406543Y-71498460D01*
X98635265Y-71403721D01*
X98810321Y-71228665D01*
X98905060Y-70999943D01*
X98905060Y-70752377D01*
X98810321Y-70523655D01*
X98689160Y-70402494D01*
X98689160Y-70359226D01*
X98707495Y-70377561D01*
X98936217Y-70472300D01*
X99183783Y-70472300D01*
X99412505Y-70377561D01*
X99584466Y-70205600D01*
X110730187Y-70205600D01*
X110743228Y-70271161D01*
X110981796Y-70628204D01*
X111338839Y-70866772D01*
X111653692Y-70929400D01*
X111866308Y-70929400D01*
X112181161Y-70866772D01*
X112538204Y-70628204D01*
X112776772Y-70271161D01*
X112860546Y-69850000D01*
X112776772Y-69428839D01*
X112538204Y-69071796D01*
X112181161Y-68833228D01*
X111866308Y-68770600D01*
X111653692Y-68770600D01*
X111338839Y-68833228D01*
X110981796Y-69071796D01*
X110743228Y-69428839D01*
X110730187Y-69494400D01*
X99584466Y-69494400D01*
X99412505Y-69322439D01*
X99183783Y-69227700D01*
X98936217Y-69227700D01*
X98707495Y-69322439D01*
X98689160Y-69340774D01*
X98689160Y-68517726D01*
X98810321Y-68396565D01*
X98905060Y-68167843D01*
X98905060Y-67920277D01*
X98810321Y-67691555D01*
X98784366Y-67665600D01*
X101772041Y-67665600D01*
X101776019Y-67675205D01*
X101951075Y-67850261D01*
X102179797Y-67945000D01*
X102427363Y-67945000D01*
X102656085Y-67850261D01*
X102831141Y-67675205D01*
X102925880Y-67446483D01*
X102925880Y-67198917D01*
X102878255Y-67083940D01*
X110704420Y-67083940D01*
X110659454Y-67310000D01*
X110743228Y-67731161D01*
X110981796Y-68088204D01*
X111338839Y-68326772D01*
X111653692Y-68389400D01*
X111866308Y-68389400D01*
X112181161Y-68326772D01*
X112538204Y-68088204D01*
X112776772Y-67731161D01*
X112860546Y-67310000D01*
X112776772Y-66888839D01*
X112538204Y-66531796D01*
X112505584Y-66510000D01*
X119565127Y-66510000D01*
X119565127Y-68110000D01*
X119586812Y-68219016D01*
X119648564Y-68311436D01*
X119740984Y-68373188D01*
X119850000Y-68394873D01*
X121450000Y-68394873D01*
X121559016Y-68373188D01*
X121641993Y-68317745D01*
X122321861Y-68317745D01*
X122395995Y-68563864D01*
X122933223Y-68756965D01*
X123503454Y-68729778D01*
X123904005Y-68563864D01*
X123978139Y-68317745D01*
X123150000Y-67489605D01*
X122321861Y-68317745D01*
X121641993Y-68317745D01*
X121651436Y-68311436D01*
X121713188Y-68219016D01*
X121734873Y-68110000D01*
X121734873Y-67674682D01*
X121896136Y-68064005D01*
X122142255Y-68138139D01*
X122970395Y-67310000D01*
X123329605Y-67310000D01*
X124157745Y-68138139D01*
X124403864Y-68064005D01*
X124596965Y-67526777D01*
X124569778Y-66956546D01*
X124403864Y-66555995D01*
X124157745Y-66481861D01*
X123329605Y-67310000D01*
X122970395Y-67310000D01*
X122142255Y-66481861D01*
X121896136Y-66555995D01*
X121734873Y-67004646D01*
X121734873Y-66510000D01*
X121713188Y-66400984D01*
X121651436Y-66308564D01*
X121641994Y-66302255D01*
X122321861Y-66302255D01*
X123150000Y-67130395D01*
X123978139Y-66302255D01*
X123904005Y-66056136D01*
X123366777Y-65863035D01*
X122796546Y-65890222D01*
X122395995Y-66056136D01*
X122321861Y-66302255D01*
X121641994Y-66302255D01*
X121559016Y-66246812D01*
X121450000Y-66225127D01*
X119850000Y-66225127D01*
X119740984Y-66246812D01*
X119648564Y-66308564D01*
X119586812Y-66400984D01*
X119565127Y-66510000D01*
X112505584Y-66510000D01*
X112181161Y-66293228D01*
X111866308Y-66230600D01*
X111653692Y-66230600D01*
X111338839Y-66293228D01*
X111218354Y-66373733D01*
X111213360Y-66372740D01*
X111178340Y-66365774D01*
X111143320Y-66372740D01*
X98690386Y-66372740D01*
X98518425Y-66200779D01*
X98289703Y-66106040D01*
X98042137Y-66106040D01*
X97813415Y-66200779D01*
X97638359Y-66375835D01*
X97543620Y-66604557D01*
X97543620Y-66852123D01*
X97585984Y-66954400D01*
X97549813Y-66954400D01*
X97536772Y-66888839D01*
X97298204Y-66531796D01*
X96941161Y-66293228D01*
X96626308Y-66230600D01*
X96413692Y-66230600D01*
X96098839Y-66293228D01*
X95741796Y-66531796D01*
X95503228Y-66888839D01*
X95419454Y-67310000D01*
X91043889Y-67310000D01*
X91186772Y-67096161D01*
X91270546Y-66675000D01*
X91186772Y-66253839D01*
X90948204Y-65896796D01*
X90591161Y-65658228D01*
X90276308Y-65595600D01*
X90063692Y-65595600D01*
X89748839Y-65658228D01*
X89391796Y-65896796D01*
X89153228Y-66253839D01*
X89069454Y-66675000D01*
X88528001Y-66675000D01*
X88528001Y-63391457D01*
X95082360Y-63391457D01*
X95082360Y-63639023D01*
X95177099Y-63867745D01*
X95352155Y-64042801D01*
X95580877Y-64137540D01*
X95644413Y-64137540D01*
X95503228Y-64348839D01*
X95419454Y-64770000D01*
X95503228Y-65191161D01*
X95741796Y-65548204D01*
X96098839Y-65786772D01*
X96413692Y-65849400D01*
X96626308Y-65849400D01*
X96941161Y-65786772D01*
X97042873Y-65718810D01*
X97086960Y-65727580D01*
X97086964Y-65727580D01*
X97121979Y-65734545D01*
X97156994Y-65727580D01*
X101453994Y-65727580D01*
X101623415Y-65897001D01*
X101852137Y-65991740D01*
X102099703Y-65991740D01*
X102328425Y-65897001D01*
X102503481Y-65721945D01*
X102598220Y-65493223D01*
X102598220Y-65245657D01*
X102556908Y-65145920D01*
X110734229Y-65145920D01*
X110743228Y-65191161D01*
X110981796Y-65548204D01*
X111338839Y-65786772D01*
X111653692Y-65849400D01*
X111866308Y-65849400D01*
X112181161Y-65786772D01*
X112538204Y-65548204D01*
X112776772Y-65191161D01*
X112860546Y-64770000D01*
X112776772Y-64348839D01*
X112538204Y-63991796D01*
X112181161Y-63753228D01*
X111866308Y-63690600D01*
X111653692Y-63690600D01*
X111338839Y-63753228D01*
X110981796Y-63991796D01*
X110743228Y-64348839D01*
X110726145Y-64434720D01*
X99000266Y-64434720D01*
X98828305Y-64262759D01*
X98599583Y-64168020D01*
X98352017Y-64168020D01*
X98123295Y-64262759D01*
X97948239Y-64437815D01*
X97853500Y-64666537D01*
X97853500Y-64914103D01*
X97895864Y-65016380D01*
X97571538Y-65016380D01*
X97620546Y-64770000D01*
X97536772Y-64348839D01*
X97298204Y-63991796D01*
X97193208Y-63921640D01*
X102081374Y-63921640D01*
X102202535Y-64042801D01*
X102431257Y-64137540D01*
X102678823Y-64137540D01*
X102907545Y-64042801D01*
X103082601Y-63867745D01*
X103177340Y-63639023D01*
X103177340Y-63391457D01*
X103082601Y-63162735D01*
X102907545Y-62987679D01*
X102678823Y-62892940D01*
X102431257Y-62892940D01*
X102202535Y-62987679D01*
X102081374Y-63108840D01*
X101356765Y-63108840D01*
X101434900Y-62920203D01*
X101434900Y-62672637D01*
X101390432Y-62565280D01*
X110726145Y-62565280D01*
X110743228Y-62651161D01*
X110981796Y-63008204D01*
X111338839Y-63246772D01*
X111653692Y-63309400D01*
X111866308Y-63309400D01*
X112181161Y-63246772D01*
X112538204Y-63008204D01*
X112776772Y-62651161D01*
X112860546Y-62230000D01*
X112843101Y-62142294D01*
X118935600Y-62142294D01*
X118935600Y-62571706D01*
X119099929Y-62968431D01*
X119403569Y-63272071D01*
X119800294Y-63436400D01*
X120229706Y-63436400D01*
X120626431Y-63272071D01*
X120930071Y-62968431D01*
X121094400Y-62571706D01*
X121094400Y-62142294D01*
X122745600Y-62142294D01*
X122745600Y-62571706D01*
X122909929Y-62968431D01*
X123213569Y-63272071D01*
X123610294Y-63436400D01*
X124039706Y-63436400D01*
X124436431Y-63272071D01*
X124740071Y-62968431D01*
X124904400Y-62571706D01*
X124904400Y-62142294D01*
X124740071Y-61745569D01*
X124436431Y-61441929D01*
X124039706Y-61277600D01*
X123610294Y-61277600D01*
X123213569Y-61441929D01*
X122909929Y-61745569D01*
X122745600Y-62142294D01*
X121094400Y-62142294D01*
X120930071Y-61745569D01*
X120626431Y-61441929D01*
X120229706Y-61277600D01*
X119800294Y-61277600D01*
X119403569Y-61441929D01*
X119099929Y-61745569D01*
X118935600Y-62142294D01*
X112843101Y-62142294D01*
X112776772Y-61808839D01*
X112538204Y-61451796D01*
X112181161Y-61213228D01*
X111866308Y-61150600D01*
X111653692Y-61150600D01*
X111338839Y-61213228D01*
X110981796Y-61451796D01*
X110743228Y-61808839D01*
X110734229Y-61854080D01*
X99254199Y-61854080D01*
X99082238Y-61682119D01*
X98853516Y-61587380D01*
X98605950Y-61587380D01*
X98377228Y-61682119D01*
X98202172Y-61857175D01*
X98107433Y-62085897D01*
X98107433Y-62333463D01*
X98151901Y-62440820D01*
X97578611Y-62440820D01*
X97620546Y-62230000D01*
X97536772Y-61808839D01*
X97298204Y-61451796D01*
X96941161Y-61213228D01*
X96626308Y-61150600D01*
X96413692Y-61150600D01*
X96098839Y-61213228D01*
X95741796Y-61451796D01*
X95503228Y-61808839D01*
X95419454Y-62230000D01*
X95503228Y-62651161D01*
X95664779Y-62892940D01*
X95580877Y-62892940D01*
X95352155Y-62987679D01*
X95177099Y-63162735D01*
X95082360Y-63391457D01*
X88528001Y-63391457D01*
X88528001Y-61380294D01*
X89090600Y-61380294D01*
X89090600Y-61809706D01*
X89254929Y-62206431D01*
X89558569Y-62510071D01*
X89955294Y-62674400D01*
X90384706Y-62674400D01*
X90781431Y-62510071D01*
X91085071Y-62206431D01*
X91249400Y-61809706D01*
X91249400Y-61380294D01*
X91085071Y-60983569D01*
X90781431Y-60679929D01*
X90384706Y-60515600D01*
X89955294Y-60515600D01*
X89558569Y-60679929D01*
X89254929Y-60983569D01*
X89090600Y-61380294D01*
X88528001Y-61380294D01*
X88528001Y-59690000D01*
X95419454Y-59690000D01*
X95503228Y-60111161D01*
X95741796Y-60468204D01*
X96098839Y-60706772D01*
X96413692Y-60769400D01*
X96626308Y-60769400D01*
X96941161Y-60706772D01*
X97298204Y-60468204D01*
X97536772Y-60111161D01*
X97620546Y-59690000D01*
X97569012Y-59430920D01*
X98457764Y-59430920D01*
X98412244Y-59540817D01*
X98412244Y-59788383D01*
X98506983Y-60017105D01*
X98682039Y-60192161D01*
X98910761Y-60286900D01*
X99158327Y-60286900D01*
X99387049Y-60192161D01*
X99559010Y-60020200D01*
X110725135Y-60020200D01*
X110743228Y-60111161D01*
X110981796Y-60468204D01*
X111338839Y-60706772D01*
X111653692Y-60769400D01*
X111866308Y-60769400D01*
X112181161Y-60706772D01*
X112538204Y-60468204D01*
X112776772Y-60111161D01*
X112860546Y-59690000D01*
X112776772Y-59268839D01*
X112538204Y-58911796D01*
X112181161Y-58673228D01*
X111866308Y-58610600D01*
X111653692Y-58610600D01*
X111338839Y-58673228D01*
X110981796Y-58911796D01*
X110743228Y-59268839D01*
X110735239Y-59309000D01*
X103141544Y-59309000D01*
X103184960Y-59204183D01*
X103184960Y-58956617D01*
X103090221Y-58727895D01*
X102915165Y-58552839D01*
X102686443Y-58458100D01*
X102438877Y-58458100D01*
X102210155Y-58552839D01*
X102043274Y-58719720D01*
X97169700Y-58719720D01*
X97134680Y-58712754D01*
X97099660Y-58719720D01*
X97031140Y-58733350D01*
X96941161Y-58673228D01*
X96626308Y-58610600D01*
X96413692Y-58610600D01*
X96098839Y-58673228D01*
X95741796Y-58911796D01*
X95503228Y-59268839D01*
X95419454Y-59690000D01*
X88528001Y-59690000D01*
X88528001Y-57150000D01*
X95419454Y-57150000D01*
X95503228Y-57571161D01*
X95741796Y-57928204D01*
X96098839Y-58166772D01*
X96413692Y-58229400D01*
X96626308Y-58229400D01*
X96941161Y-58166772D01*
X97298204Y-57928204D01*
X97536772Y-57571161D01*
X97620546Y-57150000D01*
X97536772Y-56728839D01*
X97499635Y-56673260D01*
X97508035Y-56664860D01*
X98974909Y-56664860D01*
X98811794Y-56827975D01*
X98717055Y-57056697D01*
X98717055Y-57304263D01*
X98811794Y-57532985D01*
X98986850Y-57708041D01*
X99215572Y-57802780D01*
X99463138Y-57802780D01*
X99691860Y-57708041D01*
X99863821Y-57536080D01*
X110736250Y-57536080D01*
X110743228Y-57571161D01*
X110981796Y-57928204D01*
X111338839Y-58166772D01*
X111653692Y-58229400D01*
X111866308Y-58229400D01*
X112181161Y-58166772D01*
X112538204Y-57928204D01*
X112776772Y-57571161D01*
X112860546Y-57150000D01*
X112776772Y-56728839D01*
X112538204Y-56371796D01*
X112181161Y-56133228D01*
X111866308Y-56070600D01*
X111653692Y-56070600D01*
X111338839Y-56133228D01*
X110981796Y-56371796D01*
X110743228Y-56728839D01*
X110724124Y-56824880D01*
X104400306Y-56824880D01*
X104558341Y-56666845D01*
X104653080Y-56438123D01*
X104653080Y-56190557D01*
X104558341Y-55961835D01*
X104383285Y-55786779D01*
X104154563Y-55692040D01*
X103906997Y-55692040D01*
X103678275Y-55786779D01*
X103511394Y-55953660D01*
X97395760Y-55953660D01*
X97360740Y-55946694D01*
X97325720Y-55953660D01*
X97221992Y-55974293D01*
X97104367Y-56052887D01*
X97084531Y-56082574D01*
X96996740Y-56170365D01*
X96941161Y-56133228D01*
X96626308Y-56070600D01*
X96413692Y-56070600D01*
X96098839Y-56133228D01*
X95741796Y-56371796D01*
X95503228Y-56728839D01*
X95419454Y-57150000D01*
X88528001Y-57150000D01*
X88528001Y-54610000D01*
X95419454Y-54610000D01*
X95503228Y-55031161D01*
X95741796Y-55388204D01*
X96098839Y-55626772D01*
X96413692Y-55689400D01*
X96626308Y-55689400D01*
X96941161Y-55626772D01*
X97298204Y-55388204D01*
X97536772Y-55031161D01*
X97596800Y-54729380D01*
X99201014Y-54729380D01*
X99124259Y-54806135D01*
X99029520Y-55034857D01*
X99029520Y-55282423D01*
X99124259Y-55511145D01*
X99299315Y-55686201D01*
X99528037Y-55780940D01*
X99775603Y-55780940D01*
X100004325Y-55686201D01*
X100176286Y-55514240D01*
X111170423Y-55514240D01*
X111338839Y-55626772D01*
X111653692Y-55689400D01*
X111866308Y-55689400D01*
X112181161Y-55626772D01*
X112538204Y-55388204D01*
X112776772Y-55031161D01*
X112835284Y-54737000D01*
X118914454Y-54737000D01*
X118998228Y-55158161D01*
X119236796Y-55515204D01*
X119593839Y-55753772D01*
X119908692Y-55816400D01*
X120121308Y-55816400D01*
X120436161Y-55753772D01*
X120793204Y-55515204D01*
X121031772Y-55158161D01*
X121115546Y-54737000D01*
X122724454Y-54737000D01*
X122808228Y-55158161D01*
X123046796Y-55515204D01*
X123403839Y-55753772D01*
X123718692Y-55816400D01*
X123931308Y-55816400D01*
X124246161Y-55753772D01*
X124603204Y-55515204D01*
X124841772Y-55158161D01*
X124925546Y-54737000D01*
X124841772Y-54315839D01*
X124603204Y-53958796D01*
X124246161Y-53720228D01*
X123931308Y-53657600D01*
X123718692Y-53657600D01*
X123403839Y-53720228D01*
X123046796Y-53958796D01*
X122808228Y-54315839D01*
X122724454Y-54737000D01*
X121115546Y-54737000D01*
X121031772Y-54315839D01*
X120793204Y-53958796D01*
X120436161Y-53720228D01*
X120121308Y-53657600D01*
X119908692Y-53657600D01*
X119593839Y-53720228D01*
X119236796Y-53958796D01*
X118998228Y-54315839D01*
X118914454Y-54737000D01*
X112835284Y-54737000D01*
X112860546Y-54610000D01*
X112776772Y-54188839D01*
X112538204Y-53831796D01*
X112181161Y-53593228D01*
X111866308Y-53530600D01*
X111653692Y-53530600D01*
X111338839Y-53593228D01*
X110981796Y-53831796D01*
X110743228Y-54188839D01*
X110659454Y-54610000D01*
X110697852Y-54803040D01*
X100409966Y-54803040D01*
X100491801Y-54721205D01*
X100586540Y-54492483D01*
X100586540Y-54244917D01*
X100491801Y-54016195D01*
X100316745Y-53841139D01*
X100088023Y-53746400D01*
X99840457Y-53746400D01*
X99611735Y-53841139D01*
X99436679Y-54016195D01*
X99435857Y-54018180D01*
X97422742Y-54018180D01*
X97298204Y-53831796D01*
X96941161Y-53593228D01*
X96626308Y-53530600D01*
X96413692Y-53530600D01*
X96098839Y-53593228D01*
X95741796Y-53831796D01*
X95503228Y-54188839D01*
X95419454Y-54610000D01*
X88528001Y-54610000D01*
X88528001Y-48715419D01*
X89851863Y-47391557D01*
X89955294Y-47434400D01*
X90384706Y-47434400D01*
X90781431Y-47270071D01*
X91061502Y-46990000D01*
X95419454Y-46990000D01*
X95503228Y-47411161D01*
X95741796Y-47768204D01*
X96098839Y-48006772D01*
X96413692Y-48069400D01*
X96626308Y-48069400D01*
X96941161Y-48006772D01*
X97298204Y-47768204D01*
X97536772Y-47411161D01*
X97620546Y-46990000D01*
X97536772Y-46568839D01*
X97512692Y-46532800D01*
X100280514Y-46532800D01*
X100178359Y-46634955D01*
X100083620Y-46863677D01*
X100083620Y-47111243D01*
X100178359Y-47339965D01*
X100353415Y-47515021D01*
X100582137Y-47609760D01*
X100829703Y-47609760D01*
X101058425Y-47515021D01*
X101230266Y-47343180D01*
X109221540Y-47345016D01*
X109176830Y-47452957D01*
X109176830Y-47700523D01*
X109271569Y-47929245D01*
X109446625Y-48104301D01*
X109664501Y-48194547D01*
X109664500Y-48969974D01*
X109644939Y-48989535D01*
X109550200Y-49218257D01*
X109550200Y-49465823D01*
X109644939Y-49694545D01*
X109708994Y-49758600D01*
X101027186Y-49758600D01*
X101116641Y-49669145D01*
X101211380Y-49440423D01*
X101211380Y-49192857D01*
X101116641Y-48964135D01*
X100941585Y-48789079D01*
X100712863Y-48694340D01*
X100465297Y-48694340D01*
X100236575Y-48789079D01*
X100061519Y-48964135D01*
X100059645Y-48968660D01*
X97443108Y-48968660D01*
X97298204Y-48751796D01*
X96941161Y-48513228D01*
X96626308Y-48450600D01*
X96413692Y-48450600D01*
X96098839Y-48513228D01*
X95741796Y-48751796D01*
X95503228Y-49108839D01*
X95419454Y-49530000D01*
X95503228Y-49951161D01*
X95741796Y-50308204D01*
X96098839Y-50546772D01*
X96413692Y-50609400D01*
X96626308Y-50609400D01*
X96941161Y-50546772D01*
X97298204Y-50308204D01*
X97536772Y-49951161D01*
X97590737Y-49679860D01*
X99818234Y-49679860D01*
X99736399Y-49761695D01*
X99641660Y-49990417D01*
X99641660Y-50237983D01*
X99736399Y-50466705D01*
X99911455Y-50641761D01*
X100140177Y-50736500D01*
X100387743Y-50736500D01*
X100616465Y-50641761D01*
X100788426Y-50469800D01*
X111140780Y-50469800D01*
X111175800Y-50476766D01*
X111210820Y-50469800D01*
X111220701Y-50467835D01*
X111338839Y-50546772D01*
X111653692Y-50609400D01*
X111866308Y-50609400D01*
X112181161Y-50546772D01*
X112538204Y-50308204D01*
X112694721Y-50073960D01*
X112694721Y-50783533D01*
X112604039Y-50874215D01*
X112509300Y-51102937D01*
X112509300Y-51272483D01*
X112181161Y-51053228D01*
X111866308Y-50990600D01*
X111653692Y-50990600D01*
X111338839Y-51053228D01*
X110981796Y-51291796D01*
X110743228Y-51648839D01*
X110659454Y-52070000D01*
X110701894Y-52283360D01*
X100712226Y-52283360D01*
X100809301Y-52186285D01*
X100904040Y-51957563D01*
X100904040Y-51709997D01*
X100809301Y-51481275D01*
X100634245Y-51306219D01*
X100405523Y-51211480D01*
X100157957Y-51211480D01*
X99929235Y-51306219D01*
X99754179Y-51481275D01*
X99749148Y-51493420D01*
X97432925Y-51493420D01*
X97298204Y-51291796D01*
X96941161Y-51053228D01*
X96626308Y-50990600D01*
X96413692Y-50990600D01*
X96098839Y-51053228D01*
X95741796Y-51291796D01*
X95503228Y-51648839D01*
X95419454Y-52070000D01*
X95503228Y-52491161D01*
X95741796Y-52848204D01*
X96098839Y-53086772D01*
X96413692Y-53149400D01*
X96626308Y-53149400D01*
X96941161Y-53086772D01*
X97298204Y-52848204D01*
X97536772Y-52491161D01*
X97593768Y-52204620D01*
X99521054Y-52204620D01*
X99436679Y-52288995D01*
X99341940Y-52517717D01*
X99341940Y-52765283D01*
X99436679Y-52994005D01*
X99611735Y-53169061D01*
X99840457Y-53263800D01*
X100088023Y-53263800D01*
X100316745Y-53169061D01*
X100491246Y-52994560D01*
X111156020Y-52994560D01*
X111191040Y-53001526D01*
X111206621Y-52998427D01*
X111338839Y-53086772D01*
X111653692Y-53149400D01*
X111866308Y-53149400D01*
X112181161Y-53086772D01*
X112538204Y-52848204D01*
X112712379Y-52587532D01*
X118661073Y-52587532D01*
X118759736Y-52854387D01*
X119369461Y-53080908D01*
X120019460Y-53056856D01*
X120508264Y-52854387D01*
X120606927Y-52587532D01*
X119634000Y-51614605D01*
X118661073Y-52587532D01*
X112712379Y-52587532D01*
X112776772Y-52491161D01*
X112860546Y-52070000D01*
X112799420Y-51762700D01*
X113007817Y-51849020D01*
X113255383Y-51849020D01*
X113484105Y-51754281D01*
X113659161Y-51579225D01*
X113753900Y-51350503D01*
X113753900Y-51170461D01*
X117988092Y-51170461D01*
X118012144Y-51820460D01*
X118214613Y-52309264D01*
X118481468Y-52407927D01*
X119454395Y-51435000D01*
X119813605Y-51435000D01*
X120786532Y-52407927D01*
X121053387Y-52309264D01*
X121279908Y-51699539D01*
X121260703Y-51180512D01*
X122854600Y-51180512D01*
X122854600Y-51689488D01*
X123049377Y-52159722D01*
X123409278Y-52519623D01*
X123879512Y-52714400D01*
X124388488Y-52714400D01*
X124858722Y-52519623D01*
X125218623Y-52159722D01*
X125413400Y-51689488D01*
X125413400Y-51180512D01*
X125218623Y-50710278D01*
X124858722Y-50350377D01*
X124388488Y-50155600D01*
X123879512Y-50155600D01*
X123409278Y-50350377D01*
X123049377Y-50710278D01*
X122854600Y-51180512D01*
X121260703Y-51180512D01*
X121255856Y-51049540D01*
X121053387Y-50560736D01*
X120786532Y-50462073D01*
X119813605Y-51435000D01*
X119454395Y-51435000D01*
X118481468Y-50462073D01*
X118214613Y-50560736D01*
X117988092Y-51170461D01*
X113753900Y-51170461D01*
X113753900Y-51102937D01*
X113710720Y-50998690D01*
X113710720Y-50282468D01*
X118661073Y-50282468D01*
X119634000Y-51255395D01*
X120606927Y-50282468D01*
X120508264Y-50015613D01*
X119898539Y-49789092D01*
X119248540Y-49813144D01*
X118759736Y-50015613D01*
X118661073Y-50282468D01*
X113710720Y-50282468D01*
X113710720Y-49310246D01*
X113730281Y-49290685D01*
X113825020Y-49061963D01*
X113825020Y-48814397D01*
X113730281Y-48585675D01*
X113555225Y-48410619D01*
X113326503Y-48315880D01*
X113298841Y-48315880D01*
X113008127Y-48025167D01*
X112979786Y-47982752D01*
X112811751Y-47870474D01*
X112663571Y-47840999D01*
X112663567Y-47840999D01*
X112613539Y-47831048D01*
X112563511Y-47840999D01*
X112429258Y-47840999D01*
X112538204Y-47768204D01*
X112776772Y-47411161D01*
X112860546Y-46990000D01*
X112776772Y-46568839D01*
X112601643Y-46306740D01*
X112663563Y-46306740D01*
X112892285Y-46212001D01*
X113016754Y-46087532D01*
X118661073Y-46087532D01*
X118759736Y-46354387D01*
X119369461Y-46580908D01*
X120019460Y-46556856D01*
X120508264Y-46354387D01*
X120606927Y-46087532D01*
X119634000Y-45114605D01*
X118661073Y-46087532D01*
X113016754Y-46087532D01*
X113067341Y-46036945D01*
X113162080Y-45808223D01*
X113162080Y-45560657D01*
X113067341Y-45331935D01*
X112892285Y-45156879D01*
X112663563Y-45062140D01*
X112649164Y-45062140D01*
X112776772Y-44871161D01*
X112816693Y-44670461D01*
X117988092Y-44670461D01*
X118012144Y-45320460D01*
X118214613Y-45809264D01*
X118481468Y-45907927D01*
X119454395Y-44935000D01*
X119813605Y-44935000D01*
X120786532Y-45907927D01*
X121053387Y-45809264D01*
X121279908Y-45199539D01*
X121260703Y-44680512D01*
X122854600Y-44680512D01*
X122854600Y-45189488D01*
X123049377Y-45659722D01*
X123409278Y-46019623D01*
X123879512Y-46214400D01*
X124388488Y-46214400D01*
X124858722Y-46019623D01*
X125218623Y-45659722D01*
X125413400Y-45189488D01*
X125413400Y-44680512D01*
X125218623Y-44210278D01*
X124858722Y-43850377D01*
X124388488Y-43655600D01*
X123879512Y-43655600D01*
X123409278Y-43850377D01*
X123049377Y-44210278D01*
X122854600Y-44680512D01*
X121260703Y-44680512D01*
X121255856Y-44549540D01*
X121053387Y-44060736D01*
X120786532Y-43962073D01*
X119813605Y-44935000D01*
X119454395Y-44935000D01*
X118481468Y-43962073D01*
X118214613Y-44060736D01*
X117988092Y-44670461D01*
X112816693Y-44670461D01*
X112860546Y-44450000D01*
X112776772Y-44028839D01*
X112612153Y-43782468D01*
X118661073Y-43782468D01*
X119634000Y-44755395D01*
X120606927Y-43782468D01*
X120508264Y-43515613D01*
X119898539Y-43289092D01*
X119248540Y-43313144D01*
X118759736Y-43515613D01*
X118661073Y-43782468D01*
X112612153Y-43782468D01*
X112538204Y-43671796D01*
X112181161Y-43433228D01*
X111866308Y-43370600D01*
X111653692Y-43370600D01*
X111338839Y-43433228D01*
X110981796Y-43671796D01*
X110743228Y-44028839D01*
X110722609Y-44132500D01*
X101449512Y-44132500D01*
X101439221Y-44107655D01*
X101264165Y-43932599D01*
X101035443Y-43837860D01*
X100787877Y-43837860D01*
X100559155Y-43932599D01*
X100384099Y-44107655D01*
X100289360Y-44336377D01*
X100289360Y-44583943D01*
X100384099Y-44812665D01*
X100451964Y-44880530D01*
X100361239Y-44971255D01*
X100360417Y-44973240D01*
X97604873Y-44973240D01*
X97604873Y-43650000D01*
X97583188Y-43540984D01*
X97521436Y-43448564D01*
X97429016Y-43386812D01*
X97320000Y-43365127D01*
X95720000Y-43365127D01*
X95610984Y-43386812D01*
X95518564Y-43448564D01*
X95456812Y-43540984D01*
X95435127Y-43650000D01*
X95435127Y-45250000D01*
X95456812Y-45359016D01*
X95518564Y-45451436D01*
X95610984Y-45513188D01*
X95720000Y-45534873D01*
X97101979Y-45534873D01*
X97122629Y-45555523D01*
X97142467Y-45585213D01*
X97260092Y-45663807D01*
X97363820Y-45684440D01*
X97363824Y-45684440D01*
X97398839Y-45691405D01*
X97433854Y-45684440D01*
X100369414Y-45684440D01*
X100506574Y-45821600D01*
X97367820Y-45821600D01*
X97332800Y-45814634D01*
X97220113Y-45837049D01*
X97194052Y-45842233D01*
X97076427Y-45920827D01*
X97056591Y-45950514D01*
X96996740Y-46010365D01*
X96941161Y-45973228D01*
X96626308Y-45910600D01*
X96413692Y-45910600D01*
X96098839Y-45973228D01*
X95741796Y-46211796D01*
X95503228Y-46568839D01*
X95419454Y-46990000D01*
X91061502Y-46990000D01*
X91085071Y-46966431D01*
X91249400Y-46569706D01*
X91249400Y-46140294D01*
X91085071Y-45743569D01*
X90781431Y-45439929D01*
X90384706Y-45275600D01*
X89955294Y-45275600D01*
X89558569Y-45439929D01*
X89254929Y-45743569D01*
X89212086Y-45847000D01*
X83634873Y-45847000D01*
X83634873Y-45555000D01*
X83613188Y-45445984D01*
X83551436Y-45353564D01*
X83459016Y-45291812D01*
X83350000Y-45270127D01*
X81750000Y-45270127D01*
X81640984Y-45291812D01*
X81548564Y-45353564D01*
X81486812Y-45445984D01*
X81465127Y-45555000D01*
X77949400Y-45555000D01*
X77949400Y-38842950D01*
X78540240Y-38842950D01*
X78540240Y-39533509D01*
X78636913Y-39766898D01*
X78815541Y-39945527D01*
X79048930Y-40042200D01*
X79739490Y-40042200D01*
X79898240Y-39883450D01*
X79898240Y-38684200D01*
X78698990Y-38684200D01*
X78540240Y-38842950D01*
X77949400Y-38842950D01*
X77949400Y-37580891D01*
X78540240Y-37580891D01*
X78540240Y-38271450D01*
X78698990Y-38430200D01*
X79898240Y-38430200D01*
X79898240Y-38410200D01*
X80152240Y-38410200D01*
X80152240Y-38430200D01*
X80172240Y-38430200D01*
X80172240Y-38684200D01*
X80152240Y-38684200D01*
X80152240Y-39883450D01*
X80310990Y-40042200D01*
X81001550Y-40042200D01*
X81234939Y-39945527D01*
X81413567Y-39766898D01*
X81510240Y-39533509D01*
X81510240Y-39011146D01*
X81750988Y-39371452D01*
X82124570Y-39621071D01*
X82454005Y-39686600D01*
X82676475Y-39686600D01*
X83005910Y-39621071D01*
X83379492Y-39371452D01*
X83629111Y-38997870D01*
X83716766Y-38557200D01*
X83953714Y-38557200D01*
X84041369Y-38997870D01*
X84290988Y-39371452D01*
X84664570Y-39621071D01*
X84994005Y-39686600D01*
X85216475Y-39686600D01*
X85545910Y-39621071D01*
X85919492Y-39371452D01*
X86169111Y-38997870D01*
X86256766Y-38557200D01*
X86493714Y-38557200D01*
X86581369Y-38997870D01*
X86830988Y-39371452D01*
X87204570Y-39621071D01*
X87534005Y-39686600D01*
X87756475Y-39686600D01*
X88085910Y-39621071D01*
X88459492Y-39371452D01*
X88709111Y-38997870D01*
X88796766Y-38557200D01*
X89033714Y-38557200D01*
X89121369Y-38997870D01*
X89370988Y-39371452D01*
X89744570Y-39621071D01*
X90074005Y-39686600D01*
X90296475Y-39686600D01*
X90625910Y-39621071D01*
X90999492Y-39371452D01*
X91249111Y-38997870D01*
X91336766Y-38557200D01*
X91573714Y-38557200D01*
X91661369Y-38997870D01*
X91910988Y-39371452D01*
X92284570Y-39621071D01*
X92614005Y-39686600D01*
X92836475Y-39686600D01*
X93165910Y-39621071D01*
X93539492Y-39371452D01*
X93789111Y-38997870D01*
X93876766Y-38557200D01*
X94113714Y-38557200D01*
X94201369Y-38997870D01*
X94450988Y-39371452D01*
X94824570Y-39621071D01*
X95154005Y-39686600D01*
X95376475Y-39686600D01*
X95705910Y-39621071D01*
X96079492Y-39371452D01*
X96329111Y-38997870D01*
X96416766Y-38557200D01*
X96653714Y-38557200D01*
X96741369Y-38997870D01*
X96990988Y-39371452D01*
X97364570Y-39621071D01*
X97694005Y-39686600D01*
X97916475Y-39686600D01*
X98245910Y-39621071D01*
X98619492Y-39371452D01*
X98869111Y-38997870D01*
X98956766Y-38557200D01*
X99193714Y-38557200D01*
X99281369Y-38997870D01*
X99530988Y-39371452D01*
X99904570Y-39621071D01*
X100234005Y-39686600D01*
X100456475Y-39686600D01*
X100785910Y-39621071D01*
X101159492Y-39371452D01*
X101409111Y-38997870D01*
X101496766Y-38557200D01*
X101733714Y-38557200D01*
X101821369Y-38997870D01*
X102070988Y-39371452D01*
X102444570Y-39621071D01*
X102774005Y-39686600D01*
X102996475Y-39686600D01*
X103325910Y-39621071D01*
X103699492Y-39371452D01*
X103949111Y-38997870D01*
X104036766Y-38557200D01*
X104273714Y-38557200D01*
X104361369Y-38997870D01*
X104610988Y-39371452D01*
X104984570Y-39621071D01*
X105314005Y-39686600D01*
X105536475Y-39686600D01*
X105865910Y-39621071D01*
X106239492Y-39371452D01*
X106489111Y-38997870D01*
X106576766Y-38557200D01*
X106813714Y-38557200D01*
X106901369Y-38997870D01*
X107150988Y-39371452D01*
X107524570Y-39621071D01*
X107854005Y-39686600D01*
X108076475Y-39686600D01*
X108405910Y-39621071D01*
X108779492Y-39371452D01*
X109029111Y-38997870D01*
X109116766Y-38557200D01*
X109353714Y-38557200D01*
X109441369Y-38997870D01*
X109690988Y-39371452D01*
X110064570Y-39621071D01*
X110394005Y-39686600D01*
X110616475Y-39686600D01*
X110945910Y-39621071D01*
X111319492Y-39371452D01*
X111569111Y-38997870D01*
X111656766Y-38557200D01*
X111893714Y-38557200D01*
X111981369Y-38997870D01*
X112230988Y-39371452D01*
X112604570Y-39621071D01*
X112934005Y-39686600D01*
X113156475Y-39686600D01*
X113485910Y-39621071D01*
X113859492Y-39371452D01*
X114109111Y-38997870D01*
X114196766Y-38557200D01*
X114433714Y-38557200D01*
X114521369Y-38997870D01*
X114770988Y-39371452D01*
X115144570Y-39621071D01*
X115474005Y-39686600D01*
X115696475Y-39686600D01*
X116025910Y-39621071D01*
X116399492Y-39371452D01*
X116649111Y-38997870D01*
X116736766Y-38557200D01*
X116973714Y-38557200D01*
X117061369Y-38997870D01*
X117310988Y-39371452D01*
X117684570Y-39621071D01*
X118014005Y-39686600D01*
X118236475Y-39686600D01*
X118565910Y-39621071D01*
X118939492Y-39371452D01*
X119189111Y-38997870D01*
X119276766Y-38557200D01*
X119513714Y-38557200D01*
X119601369Y-38997870D01*
X119850988Y-39371452D01*
X120224570Y-39621071D01*
X120554005Y-39686600D01*
X120776475Y-39686600D01*
X121105910Y-39621071D01*
X121479492Y-39371452D01*
X121729111Y-38997870D01*
X121816766Y-38557200D01*
X122053714Y-38557200D01*
X122141369Y-38997870D01*
X122390988Y-39371452D01*
X122764570Y-39621071D01*
X123094005Y-39686600D01*
X123316475Y-39686600D01*
X123645910Y-39621071D01*
X124019492Y-39371452D01*
X124269111Y-38997870D01*
X124356766Y-38557200D01*
X124593714Y-38557200D01*
X124681369Y-38997870D01*
X124930988Y-39371452D01*
X125304570Y-39621071D01*
X125634005Y-39686600D01*
X125856475Y-39686600D01*
X126185910Y-39621071D01*
X126559492Y-39371452D01*
X126809111Y-38997870D01*
X126896766Y-38557200D01*
X127133714Y-38557200D01*
X127221369Y-38997870D01*
X127470988Y-39371452D01*
X127844570Y-39621071D01*
X128174005Y-39686600D01*
X128396475Y-39686600D01*
X128725910Y-39621071D01*
X129099492Y-39371452D01*
X129349111Y-38997870D01*
X129436766Y-38557200D01*
X129349111Y-38116530D01*
X129099492Y-37742948D01*
X128725910Y-37493329D01*
X128396475Y-37427800D01*
X128174005Y-37427800D01*
X127844570Y-37493329D01*
X127470988Y-37742948D01*
X127221369Y-38116530D01*
X127133714Y-38557200D01*
X126896766Y-38557200D01*
X126809111Y-38116530D01*
X126559492Y-37742948D01*
X126185910Y-37493329D01*
X125856475Y-37427800D01*
X125634005Y-37427800D01*
X125304570Y-37493329D01*
X124930988Y-37742948D01*
X124681369Y-38116530D01*
X124593714Y-38557200D01*
X124356766Y-38557200D01*
X124269111Y-38116530D01*
X124019492Y-37742948D01*
X123645910Y-37493329D01*
X123316475Y-37427800D01*
X123094005Y-37427800D01*
X122764570Y-37493329D01*
X122390988Y-37742948D01*
X122141369Y-38116530D01*
X122053714Y-38557200D01*
X121816766Y-38557200D01*
X121729111Y-38116530D01*
X121479492Y-37742948D01*
X121105910Y-37493329D01*
X120776475Y-37427800D01*
X120554005Y-37427800D01*
X120224570Y-37493329D01*
X119850988Y-37742948D01*
X119601369Y-38116530D01*
X119513714Y-38557200D01*
X119276766Y-38557200D01*
X119189111Y-38116530D01*
X118939492Y-37742948D01*
X118565910Y-37493329D01*
X118236475Y-37427800D01*
X118014005Y-37427800D01*
X117684570Y-37493329D01*
X117310988Y-37742948D01*
X117061369Y-38116530D01*
X116973714Y-38557200D01*
X116736766Y-38557200D01*
X116649111Y-38116530D01*
X116399492Y-37742948D01*
X116025910Y-37493329D01*
X115696475Y-37427800D01*
X115474005Y-37427800D01*
X115144570Y-37493329D01*
X114770988Y-37742948D01*
X114521369Y-38116530D01*
X114433714Y-38557200D01*
X114196766Y-38557200D01*
X114109111Y-38116530D01*
X113859492Y-37742948D01*
X113485910Y-37493329D01*
X113156475Y-37427800D01*
X112934005Y-37427800D01*
X112604570Y-37493329D01*
X112230988Y-37742948D01*
X111981369Y-38116530D01*
X111893714Y-38557200D01*
X111656766Y-38557200D01*
X111569111Y-38116530D01*
X111319492Y-37742948D01*
X110945910Y-37493329D01*
X110616475Y-37427800D01*
X110394005Y-37427800D01*
X110064570Y-37493329D01*
X109690988Y-37742948D01*
X109441369Y-38116530D01*
X109353714Y-38557200D01*
X109116766Y-38557200D01*
X109029111Y-38116530D01*
X108779492Y-37742948D01*
X108405910Y-37493329D01*
X108076475Y-37427800D01*
X107854005Y-37427800D01*
X107524570Y-37493329D01*
X107150988Y-37742948D01*
X106901369Y-38116530D01*
X106813714Y-38557200D01*
X106576766Y-38557200D01*
X106489111Y-38116530D01*
X106239492Y-37742948D01*
X105865910Y-37493329D01*
X105536475Y-37427800D01*
X105314005Y-37427800D01*
X104984570Y-37493329D01*
X104610988Y-37742948D01*
X104361369Y-38116530D01*
X104273714Y-38557200D01*
X104036766Y-38557200D01*
X103949111Y-38116530D01*
X103699492Y-37742948D01*
X103325910Y-37493329D01*
X102996475Y-37427800D01*
X102774005Y-37427800D01*
X102444570Y-37493329D01*
X102070988Y-37742948D01*
X101821369Y-38116530D01*
X101733714Y-38557200D01*
X101496766Y-38557200D01*
X101409111Y-38116530D01*
X101159492Y-37742948D01*
X100785910Y-37493329D01*
X100456475Y-37427800D01*
X100234005Y-37427800D01*
X99904570Y-37493329D01*
X99530988Y-37742948D01*
X99281369Y-38116530D01*
X99193714Y-38557200D01*
X98956766Y-38557200D01*
X98869111Y-38116530D01*
X98619492Y-37742948D01*
X98245910Y-37493329D01*
X97916475Y-37427800D01*
X97694005Y-37427800D01*
X97364570Y-37493329D01*
X96990988Y-37742948D01*
X96741369Y-38116530D01*
X96653714Y-38557200D01*
X96416766Y-38557200D01*
X96329111Y-38116530D01*
X96079492Y-37742948D01*
X95705910Y-37493329D01*
X95376475Y-37427800D01*
X95154005Y-37427800D01*
X94824570Y-37493329D01*
X94450988Y-37742948D01*
X94201369Y-38116530D01*
X94113714Y-38557200D01*
X93876766Y-38557200D01*
X93789111Y-38116530D01*
X93539492Y-37742948D01*
X93165910Y-37493329D01*
X92836475Y-37427800D01*
X92614005Y-37427800D01*
X92284570Y-37493329D01*
X91910988Y-37742948D01*
X91661369Y-38116530D01*
X91573714Y-38557200D01*
X91336766Y-38557200D01*
X91249111Y-38116530D01*
X90999492Y-37742948D01*
X90625910Y-37493329D01*
X90296475Y-37427800D01*
X90074005Y-37427800D01*
X89744570Y-37493329D01*
X89370988Y-37742948D01*
X89121369Y-38116530D01*
X89033714Y-38557200D01*
X88796766Y-38557200D01*
X88709111Y-38116530D01*
X88459492Y-37742948D01*
X88085910Y-37493329D01*
X87756475Y-37427800D01*
X87534005Y-37427800D01*
X87204570Y-37493329D01*
X86830988Y-37742948D01*
X86581369Y-38116530D01*
X86493714Y-38557200D01*
X86256766Y-38557200D01*
X86169111Y-38116530D01*
X85919492Y-37742948D01*
X85545910Y-37493329D01*
X85216475Y-37427800D01*
X84994005Y-37427800D01*
X84664570Y-37493329D01*
X84290988Y-37742948D01*
X84041369Y-38116530D01*
X83953714Y-38557200D01*
X83716766Y-38557200D01*
X83629111Y-38116530D01*
X83379492Y-37742948D01*
X83005910Y-37493329D01*
X82676475Y-37427800D01*
X82454005Y-37427800D01*
X82124570Y-37493329D01*
X81750988Y-37742948D01*
X81510240Y-38103254D01*
X81510240Y-37580891D01*
X81413567Y-37347502D01*
X81234939Y-37168873D01*
X81001550Y-37072200D01*
X80479186Y-37072200D01*
X80839492Y-36831452D01*
X81089111Y-36457870D01*
X81176766Y-36017200D01*
X81413714Y-36017200D01*
X81501369Y-36457870D01*
X81750988Y-36831452D01*
X82124570Y-37081071D01*
X82454005Y-37146600D01*
X82676475Y-37146600D01*
X83005910Y-37081071D01*
X83379492Y-36831452D01*
X83629111Y-36457870D01*
X83716766Y-36017200D01*
X83953714Y-36017200D01*
X84041369Y-36457870D01*
X84290988Y-36831452D01*
X84664570Y-37081071D01*
X84994005Y-37146600D01*
X85216475Y-37146600D01*
X85545910Y-37081071D01*
X85919492Y-36831452D01*
X86169111Y-36457870D01*
X86256766Y-36017200D01*
X86493714Y-36017200D01*
X86581369Y-36457870D01*
X86830988Y-36831452D01*
X87204570Y-37081071D01*
X87534005Y-37146600D01*
X87756475Y-37146600D01*
X88085910Y-37081071D01*
X88459492Y-36831452D01*
X88709111Y-36457870D01*
X88796766Y-36017200D01*
X89033714Y-36017200D01*
X89121369Y-36457870D01*
X89370988Y-36831452D01*
X89744570Y-37081071D01*
X90074005Y-37146600D01*
X90296475Y-37146600D01*
X90625910Y-37081071D01*
X90999492Y-36831452D01*
X91249111Y-36457870D01*
X91336766Y-36017200D01*
X91573714Y-36017200D01*
X91661369Y-36457870D01*
X91910988Y-36831452D01*
X92284570Y-37081071D01*
X92614005Y-37146600D01*
X92836475Y-37146600D01*
X93165910Y-37081071D01*
X93539492Y-36831452D01*
X93789111Y-36457870D01*
X93876766Y-36017200D01*
X94113714Y-36017200D01*
X94201369Y-36457870D01*
X94450988Y-36831452D01*
X94824570Y-37081071D01*
X95154005Y-37146600D01*
X95376475Y-37146600D01*
X95705910Y-37081071D01*
X96079492Y-36831452D01*
X96329111Y-36457870D01*
X96416766Y-36017200D01*
X96653714Y-36017200D01*
X96741369Y-36457870D01*
X96990988Y-36831452D01*
X97364570Y-37081071D01*
X97694005Y-37146600D01*
X97916475Y-37146600D01*
X98245910Y-37081071D01*
X98619492Y-36831452D01*
X98869111Y-36457870D01*
X98956766Y-36017200D01*
X99193714Y-36017200D01*
X99281369Y-36457870D01*
X99530988Y-36831452D01*
X99904570Y-37081071D01*
X100234005Y-37146600D01*
X100456475Y-37146600D01*
X100785910Y-37081071D01*
X101159492Y-36831452D01*
X101409111Y-36457870D01*
X101496766Y-36017200D01*
X101733714Y-36017200D01*
X101821369Y-36457870D01*
X102070988Y-36831452D01*
X102444570Y-37081071D01*
X102774005Y-37146600D01*
X102996475Y-37146600D01*
X103325910Y-37081071D01*
X103699492Y-36831452D01*
X103949111Y-36457870D01*
X104036766Y-36017200D01*
X104273714Y-36017200D01*
X104361369Y-36457870D01*
X104610988Y-36831452D01*
X104984570Y-37081071D01*
X105314005Y-37146600D01*
X105536475Y-37146600D01*
X105865910Y-37081071D01*
X106239492Y-36831452D01*
X106489111Y-36457870D01*
X106576766Y-36017200D01*
X106813714Y-36017200D01*
X106901369Y-36457870D01*
X107150988Y-36831452D01*
X107524570Y-37081071D01*
X107854005Y-37146600D01*
X108076475Y-37146600D01*
X108405910Y-37081071D01*
X108779492Y-36831452D01*
X109029111Y-36457870D01*
X109116766Y-36017200D01*
X109353714Y-36017200D01*
X109441369Y-36457870D01*
X109690988Y-36831452D01*
X110064570Y-37081071D01*
X110394005Y-37146600D01*
X110616475Y-37146600D01*
X110945910Y-37081071D01*
X111319492Y-36831452D01*
X111569111Y-36457870D01*
X111656766Y-36017200D01*
X111893714Y-36017200D01*
X111981369Y-36457870D01*
X112230988Y-36831452D01*
X112604570Y-37081071D01*
X112934005Y-37146600D01*
X113156475Y-37146600D01*
X113485910Y-37081071D01*
X113859492Y-36831452D01*
X114109111Y-36457870D01*
X114196766Y-36017200D01*
X114433714Y-36017200D01*
X114521369Y-36457870D01*
X114770988Y-36831452D01*
X115144570Y-37081071D01*
X115474005Y-37146600D01*
X115696475Y-37146600D01*
X116025910Y-37081071D01*
X116399492Y-36831452D01*
X116649111Y-36457870D01*
X116736766Y-36017200D01*
X116973714Y-36017200D01*
X117061369Y-36457870D01*
X117310988Y-36831452D01*
X117684570Y-37081071D01*
X118014005Y-37146600D01*
X118236475Y-37146600D01*
X118565910Y-37081071D01*
X118939492Y-36831452D01*
X119189111Y-36457870D01*
X119276766Y-36017200D01*
X119513714Y-36017200D01*
X119601369Y-36457870D01*
X119850988Y-36831452D01*
X120224570Y-37081071D01*
X120554005Y-37146600D01*
X120776475Y-37146600D01*
X121105910Y-37081071D01*
X121479492Y-36831452D01*
X121729111Y-36457870D01*
X121816766Y-36017200D01*
X122053714Y-36017200D01*
X122141369Y-36457870D01*
X122390988Y-36831452D01*
X122764570Y-37081071D01*
X123094005Y-37146600D01*
X123316475Y-37146600D01*
X123645910Y-37081071D01*
X124019492Y-36831452D01*
X124269111Y-36457870D01*
X124356766Y-36017200D01*
X124593714Y-36017200D01*
X124681369Y-36457870D01*
X124930988Y-36831452D01*
X125304570Y-37081071D01*
X125634005Y-37146600D01*
X125856475Y-37146600D01*
X126185910Y-37081071D01*
X126559492Y-36831452D01*
X126809111Y-36457870D01*
X126896766Y-36017200D01*
X127133714Y-36017200D01*
X127221369Y-36457870D01*
X127470988Y-36831452D01*
X127844570Y-37081071D01*
X128174005Y-37146600D01*
X128396475Y-37146600D01*
X128725910Y-37081071D01*
X129099492Y-36831452D01*
X129349111Y-36457870D01*
X129436766Y-36017200D01*
X129349111Y-35576530D01*
X129099492Y-35202948D01*
X128725910Y-34953329D01*
X128396475Y-34887800D01*
X128174005Y-34887800D01*
X127844570Y-34953329D01*
X127470988Y-35202948D01*
X127221369Y-35576530D01*
X127133714Y-36017200D01*
X126896766Y-36017200D01*
X126809111Y-35576530D01*
X126559492Y-35202948D01*
X126185910Y-34953329D01*
X125856475Y-34887800D01*
X125634005Y-34887800D01*
X125304570Y-34953329D01*
X124930988Y-35202948D01*
X124681369Y-35576530D01*
X124593714Y-36017200D01*
X124356766Y-36017200D01*
X124269111Y-35576530D01*
X124019492Y-35202948D01*
X123645910Y-34953329D01*
X123316475Y-34887800D01*
X123094005Y-34887800D01*
X122764570Y-34953329D01*
X122390988Y-35202948D01*
X122141369Y-35576530D01*
X122053714Y-36017200D01*
X121816766Y-36017200D01*
X121729111Y-35576530D01*
X121479492Y-35202948D01*
X121105910Y-34953329D01*
X120776475Y-34887800D01*
X120554005Y-34887800D01*
X120224570Y-34953329D01*
X119850988Y-35202948D01*
X119601369Y-35576530D01*
X119513714Y-36017200D01*
X119276766Y-36017200D01*
X119189111Y-35576530D01*
X118939492Y-35202948D01*
X118565910Y-34953329D01*
X118236475Y-34887800D01*
X118014005Y-34887800D01*
X117684570Y-34953329D01*
X117310988Y-35202948D01*
X117061369Y-35576530D01*
X116973714Y-36017200D01*
X116736766Y-36017200D01*
X116649111Y-35576530D01*
X116399492Y-35202948D01*
X116025910Y-34953329D01*
X115696475Y-34887800D01*
X115474005Y-34887800D01*
X115144570Y-34953329D01*
X114770988Y-35202948D01*
X114521369Y-35576530D01*
X114433714Y-36017200D01*
X114196766Y-36017200D01*
X114109111Y-35576530D01*
X113859492Y-35202948D01*
X113485910Y-34953329D01*
X113156475Y-34887800D01*
X112934005Y-34887800D01*
X112604570Y-34953329D01*
X112230988Y-35202948D01*
X111981369Y-35576530D01*
X111893714Y-36017200D01*
X111656766Y-36017200D01*
X111569111Y-35576530D01*
X111319492Y-35202948D01*
X110945910Y-34953329D01*
X110616475Y-34887800D01*
X110394005Y-34887800D01*
X110064570Y-34953329D01*
X109690988Y-35202948D01*
X109441369Y-35576530D01*
X109353714Y-36017200D01*
X109116766Y-36017200D01*
X109029111Y-35576530D01*
X108779492Y-35202948D01*
X108405910Y-34953329D01*
X108076475Y-34887800D01*
X107854005Y-34887800D01*
X107524570Y-34953329D01*
X107150988Y-35202948D01*
X106901369Y-35576530D01*
X106813714Y-36017200D01*
X106576766Y-36017200D01*
X106489111Y-35576530D01*
X106239492Y-35202948D01*
X105865910Y-34953329D01*
X105536475Y-34887800D01*
X105314005Y-34887800D01*
X104984570Y-34953329D01*
X104610988Y-35202948D01*
X104361369Y-35576530D01*
X104273714Y-36017200D01*
X104036766Y-36017200D01*
X103949111Y-35576530D01*
X103699492Y-35202948D01*
X103325910Y-34953329D01*
X102996475Y-34887800D01*
X102774005Y-34887800D01*
X102444570Y-34953329D01*
X102070988Y-35202948D01*
X101821369Y-35576530D01*
X101733714Y-36017200D01*
X101496766Y-36017200D01*
X101409111Y-35576530D01*
X101159492Y-35202948D01*
X100785910Y-34953329D01*
X100456475Y-34887800D01*
X100234005Y-34887800D01*
X99904570Y-34953329D01*
X99530988Y-35202948D01*
X99281369Y-35576530D01*
X99193714Y-36017200D01*
X98956766Y-36017200D01*
X98869111Y-35576530D01*
X98619492Y-35202948D01*
X98245910Y-34953329D01*
X97916475Y-34887800D01*
X97694005Y-34887800D01*
X97364570Y-34953329D01*
X96990988Y-35202948D01*
X96741369Y-35576530D01*
X96653714Y-36017200D01*
X96416766Y-36017200D01*
X96329111Y-35576530D01*
X96079492Y-35202948D01*
X95705910Y-34953329D01*
X95376475Y-34887800D01*
X95154005Y-34887800D01*
X94824570Y-34953329D01*
X94450988Y-35202948D01*
X94201369Y-35576530D01*
X94113714Y-36017200D01*
X93876766Y-36017200D01*
X93789111Y-35576530D01*
X93539492Y-35202948D01*
X93165910Y-34953329D01*
X92836475Y-34887800D01*
X92614005Y-34887800D01*
X92284570Y-34953329D01*
X91910988Y-35202948D01*
X91661369Y-35576530D01*
X91573714Y-36017200D01*
X91336766Y-36017200D01*
X91249111Y-35576530D01*
X90999492Y-35202948D01*
X90625910Y-34953329D01*
X90296475Y-34887800D01*
X90074005Y-34887800D01*
X89744570Y-34953329D01*
X89370988Y-35202948D01*
X89121369Y-35576530D01*
X89033714Y-36017200D01*
X88796766Y-36017200D01*
X88709111Y-35576530D01*
X88459492Y-35202948D01*
X88085910Y-34953329D01*
X87756475Y-34887800D01*
X87534005Y-34887800D01*
X87204570Y-34953329D01*
X86830988Y-35202948D01*
X86581369Y-35576530D01*
X86493714Y-36017200D01*
X86256766Y-36017200D01*
X86169111Y-35576530D01*
X85919492Y-35202948D01*
X85545910Y-34953329D01*
X85216475Y-34887800D01*
X84994005Y-34887800D01*
X84664570Y-34953329D01*
X84290988Y-35202948D01*
X84041369Y-35576530D01*
X83953714Y-36017200D01*
X83716766Y-36017200D01*
X83629111Y-35576530D01*
X83379492Y-35202948D01*
X83005910Y-34953329D01*
X82676475Y-34887800D01*
X82454005Y-34887800D01*
X82124570Y-34953329D01*
X81750988Y-35202948D01*
X81501369Y-35576530D01*
X81413714Y-36017200D01*
X81176766Y-36017200D01*
X81089111Y-35576530D01*
X80839492Y-35202948D01*
X80465910Y-34953329D01*
X80136475Y-34887800D01*
X79914005Y-34887800D01*
X79584570Y-34953329D01*
X79210988Y-35202948D01*
X78961369Y-35576530D01*
X78873714Y-36017200D01*
X78961369Y-36457870D01*
X79210988Y-36831452D01*
X79571294Y-37072200D01*
X79048930Y-37072200D01*
X78815541Y-37168873D01*
X78636913Y-37347502D01*
X78540240Y-37580891D01*
X77949400Y-37580891D01*
X77949400Y-34311349D01*
X78023984Y-33475644D01*
X78239726Y-32687023D01*
X78591712Y-31949073D01*
X79068811Y-31285118D01*
X79655946Y-30716145D01*
X80334560Y-30260134D01*
X81083208Y-29931501D01*
X81881892Y-29739755D01*
X82567585Y-29689400D01*
X125708651Y-29689400D01*
X126544356Y-29763984D01*
X126544356Y-29763984D01*
G37*
X126544356Y-29763984D02*
X127332977Y-29979726D01*
X128070927Y-30331712D01*
X128734882Y-30808811D01*
X129303855Y-31395946D01*
X129759866Y-32074560D01*
X130088499Y-32823208D01*
X130280245Y-33621892D01*
X130330600Y-34307585D01*
X130330601Y-97768640D01*
X130256015Y-98604358D01*
X130040273Y-99392979D01*
X129688288Y-100130927D01*
X129211191Y-100794879D01*
X128624056Y-101363853D01*
X127945440Y-101819866D01*
X127196794Y-102148499D01*
X126398108Y-102340245D01*
X125712414Y-102390600D01*
X82571349Y-102390600D01*
X81735642Y-102316015D01*
X80947021Y-102100273D01*
X80209073Y-101748288D01*
X79545121Y-101271191D01*
X78976147Y-100684056D01*
X78520134Y-100005440D01*
X78191501Y-99256794D01*
X77999755Y-98458108D01*
X77949400Y-97772414D01*
X77949400Y-96203400D01*
X79375507Y-96203400D01*
X79375507Y-97903400D01*
X79397192Y-98012416D01*
X79458944Y-98104836D01*
X79551364Y-98166588D01*
X79660380Y-98188273D01*
X81360380Y-98188273D01*
X81469396Y-98166588D01*
X81561816Y-98104836D01*
X81623568Y-98012416D01*
X81645253Y-97903400D01*
X81645253Y-97053400D01*
X81898854Y-97053400D01*
X81986509Y-97494070D01*
X82236128Y-97867652D01*
X82609710Y-98117271D01*
X82939145Y-98182800D01*
X83161615Y-98182800D01*
X83491050Y-98117271D01*
X83864632Y-97867652D01*
X84114251Y-97494070D01*
X84201906Y-97053400D01*
X84438854Y-97053400D01*
X84526509Y-97494070D01*
X84776128Y-97867652D01*
X85149710Y-98117271D01*
X85479145Y-98182800D01*
X85701615Y-98182800D01*
X86031050Y-98117271D01*
X86404632Y-97867652D01*
X86654251Y-97494070D01*
X86741906Y-97053400D01*
X86978854Y-97053400D01*
X87066509Y-97494070D01*
X87316128Y-97867652D01*
X87689710Y-98117271D01*
X88019145Y-98182800D01*
X88241615Y-98182800D01*
X88571050Y-98117271D01*
X88944632Y-97867652D01*
X89194251Y-97494070D01*
X89281906Y-97053400D01*
X89518854Y-97053400D01*
X89606509Y-97494070D01*
X89856128Y-97867652D01*
X90229710Y-98117271D01*
X90559145Y-98182800D01*
X90781615Y-98182800D01*
X91111050Y-98117271D01*
X91484632Y-97867652D01*
X91734251Y-97494070D01*
X91821906Y-97053400D01*
X92058854Y-97053400D01*
X92146509Y-97494070D01*
X92396128Y-97867652D01*
X92769710Y-98117271D01*
X93099145Y-98182800D01*
X93321615Y-98182800D01*
X93651050Y-98117271D01*
X94024632Y-97867652D01*
X94274251Y-97494070D01*
X94361906Y-97053400D01*
X94598854Y-97053400D01*
X94686509Y-97494070D01*
X94936128Y-97867652D01*
X95309710Y-98117271D01*
X95639145Y-98182800D01*
X95861615Y-98182800D01*
X96191050Y-98117271D01*
X96564632Y-97867652D01*
X96814251Y-97494070D01*
X96901906Y-97053400D01*
X97138854Y-97053400D01*
X97226509Y-97494070D01*
X97476128Y-97867652D01*
X97849710Y-98117271D01*
X98179145Y-98182800D01*
X98401615Y-98182800D01*
X98731050Y-98117271D01*
X99104632Y-97867652D01*
X99354251Y-97494070D01*
X99441906Y-97053400D01*
X99354251Y-96612730D01*
X99104632Y-96239148D01*
X98731050Y-95989529D01*
X98401615Y-95924000D01*
X98179145Y-95924000D01*
X97849710Y-95989529D01*
X97476128Y-96239148D01*
X97226509Y-96612730D01*
X97138854Y-97053400D01*
X96901906Y-97053400D01*
X96814251Y-96612730D01*
X96564632Y-96239148D01*
X96191050Y-95989529D01*
X95861615Y-95924000D01*
X95639145Y-95924000D01*
X95309710Y-95989529D01*
X94936128Y-96239148D01*
X94686509Y-96612730D01*
X94598854Y-97053400D01*
X94361906Y-97053400D01*
X94274251Y-96612730D01*
X94024632Y-96239148D01*
X93651050Y-95989529D01*
X93321615Y-95924000D01*
X93099145Y-95924000D01*
X92769710Y-95989529D01*
X92396128Y-96239148D01*
X92146509Y-96612730D01*
X92058854Y-97053400D01*
X91821906Y-97053400D01*
X91734251Y-96612730D01*
X91484632Y-96239148D01*
X91111050Y-95989529D01*
X90781615Y-95924000D01*
X90559145Y-95924000D01*
X90229710Y-95989529D01*
X89856128Y-96239148D01*
X89606509Y-96612730D01*
X89518854Y-97053400D01*
X89281906Y-97053400D01*
X89194251Y-96612730D01*
X88944632Y-96239148D01*
X88571050Y-95989529D01*
X88241615Y-95924000D01*
X88019145Y-95924000D01*
X87689710Y-95989529D01*
X87316128Y-96239148D01*
X87066509Y-96612730D01*
X86978854Y-97053400D01*
X86741906Y-97053400D01*
X86654251Y-96612730D01*
X86404632Y-96239148D01*
X86031050Y-95989529D01*
X85701615Y-95924000D01*
X85479145Y-95924000D01*
X85149710Y-95989529D01*
X84776128Y-96239148D01*
X84526509Y-96612730D01*
X84438854Y-97053400D01*
X84201906Y-97053400D01*
X84114251Y-96612730D01*
X83864632Y-96239148D01*
X83491050Y-95989529D01*
X83161615Y-95924000D01*
X82939145Y-95924000D01*
X82609710Y-95989529D01*
X82236128Y-96239148D01*
X81986509Y-96612730D01*
X81898854Y-97053400D01*
X81645253Y-97053400D01*
X81645253Y-96203400D01*
X81623568Y-96094384D01*
X81561816Y-96001964D01*
X81469396Y-95940212D01*
X81360380Y-95918527D01*
X79660380Y-95918527D01*
X79551364Y-95940212D01*
X79458944Y-96001964D01*
X79397192Y-96094384D01*
X79375507Y-96203400D01*
X77949400Y-96203400D01*
X77949400Y-91440000D01*
X81898854Y-91440000D01*
X81986509Y-91880670D01*
X82236128Y-92254252D01*
X82609710Y-92503871D01*
X82939145Y-92569400D01*
X83161615Y-92569400D01*
X83491050Y-92503871D01*
X83864632Y-92254252D01*
X84114251Y-91880670D01*
X84201906Y-91440000D01*
X84114251Y-90999330D01*
X83864632Y-90625748D01*
X83491050Y-90376129D01*
X83161615Y-90310600D01*
X82939145Y-90310600D01*
X82609710Y-90376129D01*
X82236128Y-90625748D01*
X81986509Y-90999330D01*
X81898854Y-91440000D01*
X77949400Y-91440000D01*
X77949400Y-88900000D01*
X81898854Y-88900000D01*
X81986509Y-89340670D01*
X82236128Y-89714252D01*
X82609710Y-89963871D01*
X82939145Y-90029400D01*
X83161615Y-90029400D01*
X83491050Y-89963871D01*
X83864632Y-89714252D01*
X84114251Y-89340670D01*
X84201906Y-88900000D01*
X84114251Y-88459330D01*
X83864632Y-88085748D01*
X83491050Y-87836129D01*
X83161615Y-87770600D01*
X82939145Y-87770600D01*
X82609710Y-87836129D01*
X82236128Y-88085748D01*
X81986509Y-88459330D01*
X81898854Y-88900000D01*
X77949400Y-88900000D01*
X77949400Y-84105750D01*
X81565380Y-84105750D01*
X81565380Y-84796310D01*
X81662053Y-85029699D01*
X81840682Y-85208327D01*
X82074071Y-85305000D01*
X82596434Y-85305000D01*
X82236128Y-85545748D01*
X81986509Y-85919330D01*
X81898854Y-86360000D01*
X81986509Y-86800670D01*
X82236128Y-87174252D01*
X82609710Y-87423871D01*
X82939145Y-87489400D01*
X83161615Y-87489400D01*
X83491050Y-87423871D01*
X83864632Y-87174252D01*
X84069263Y-86868000D01*
X86149580Y-86868000D01*
X86487001Y-87205422D01*
X86487000Y-90481252D01*
X86216796Y-90661796D01*
X85978228Y-91018839D01*
X85956094Y-91130113D01*
X85881475Y-91241788D01*
X85842048Y-91440000D01*
X85881475Y-91638212D01*
X85956094Y-91749887D01*
X85978228Y-91861161D01*
X86216796Y-92218204D01*
X86573839Y-92456772D01*
X86888692Y-92519400D01*
X87101308Y-92519400D01*
X87416161Y-92456772D01*
X87773204Y-92218204D01*
X87953748Y-91948000D01*
X88769972Y-91948000D01*
X88820000Y-91957951D01*
X88870028Y-91948000D01*
X88870032Y-91948000D01*
X89018212Y-91918525D01*
X89186247Y-91806247D01*
X89214588Y-91763832D01*
X89851863Y-91126557D01*
X89955294Y-91169400D01*
X90384706Y-91169400D01*
X90781431Y-91005071D01*
X91085071Y-90701431D01*
X91249400Y-90304706D01*
X91249400Y-89875294D01*
X91085071Y-89478569D01*
X90781431Y-89174929D01*
X90384706Y-89010600D01*
X89955294Y-89010600D01*
X89558569Y-89174929D01*
X89254929Y-89478569D01*
X89090600Y-89875294D01*
X89090600Y-90304706D01*
X89133443Y-90408137D01*
X88609580Y-90932000D01*
X87953748Y-90932000D01*
X87773204Y-90661796D01*
X87503000Y-90481252D01*
X87503000Y-87045028D01*
X87512951Y-86995000D01*
X87503000Y-86944972D01*
X87503000Y-86944968D01*
X87473525Y-86796788D01*
X87398050Y-86683832D01*
X87389588Y-86671167D01*
X87389586Y-86671165D01*
X87361247Y-86628753D01*
X87318835Y-86600414D01*
X86816166Y-86097745D01*
X89341861Y-86097745D01*
X89415995Y-86343864D01*
X89953223Y-86536965D01*
X90523454Y-86509778D01*
X90924005Y-86343864D01*
X90998139Y-86097745D01*
X90170000Y-85269605D01*
X89341861Y-86097745D01*
X86816166Y-86097745D01*
X86754588Y-86036168D01*
X86726247Y-85993753D01*
X86558212Y-85881475D01*
X86410032Y-85852000D01*
X86410028Y-85852000D01*
X86360000Y-85842049D01*
X86309972Y-85852000D01*
X84069263Y-85852000D01*
X83864632Y-85545748D01*
X83504326Y-85305000D01*
X84026689Y-85305000D01*
X84260078Y-85208327D01*
X84438707Y-85029699D01*
X84535380Y-84796310D01*
X84535380Y-84169041D01*
X85603086Y-84169041D01*
X85842611Y-84675134D01*
X86257577Y-85051041D01*
X86645961Y-85211904D01*
X86868000Y-85089915D01*
X86868000Y-83947000D01*
X87122000Y-83947000D01*
X87122000Y-85089915D01*
X87344039Y-85211904D01*
X87732423Y-85051041D01*
X87928717Y-84873223D01*
X88723035Y-84873223D01*
X88750222Y-85443454D01*
X88916136Y-85844005D01*
X89162255Y-85918139D01*
X89990395Y-85090000D01*
X90349605Y-85090000D01*
X91177745Y-85918139D01*
X91423864Y-85844005D01*
X91616965Y-85306777D01*
X91589778Y-84736546D01*
X91423864Y-84335995D01*
X91177745Y-84261861D01*
X90349605Y-85090000D01*
X89990395Y-85090000D01*
X89162255Y-84261861D01*
X88916136Y-84335995D01*
X88723035Y-84873223D01*
X87928717Y-84873223D01*
X88147389Y-84675134D01*
X88386914Y-84169041D01*
X88339510Y-84082255D01*
X89341861Y-84082255D01*
X90170000Y-84910395D01*
X90998139Y-84082255D01*
X90924005Y-83836136D01*
X90386777Y-83643035D01*
X89816546Y-83670222D01*
X89415995Y-83836136D01*
X89341861Y-84082255D01*
X88339510Y-84082255D01*
X88265629Y-83947000D01*
X87122000Y-83947000D01*
X86868000Y-83947000D01*
X85724371Y-83947000D01*
X85603086Y-84169041D01*
X84535380Y-84169041D01*
X84535380Y-84105750D01*
X84376630Y-83947000D01*
X83177380Y-83947000D01*
X83177380Y-83967000D01*
X82923380Y-83967000D01*
X82923380Y-83947000D01*
X81724130Y-83947000D01*
X81565380Y-84105750D01*
X77949400Y-84105750D01*
X77949400Y-82843690D01*
X81565380Y-82843690D01*
X81565380Y-83534250D01*
X81724130Y-83693000D01*
X82923380Y-83693000D01*
X82923380Y-82493750D01*
X83177380Y-82493750D01*
X83177380Y-83693000D01*
X84376630Y-83693000D01*
X84535380Y-83534250D01*
X84535380Y-83470959D01*
X85603086Y-83470959D01*
X85724371Y-83693000D01*
X86868000Y-83693000D01*
X86868000Y-82550085D01*
X87122000Y-82550085D01*
X87122000Y-83693000D01*
X88265629Y-83693000D01*
X88386914Y-83470959D01*
X88147389Y-82964866D01*
X87732423Y-82588959D01*
X87344039Y-82428096D01*
X87122000Y-82550085D01*
X86868000Y-82550085D01*
X86645961Y-82428096D01*
X86257577Y-82588959D01*
X85842611Y-82964866D01*
X85603086Y-83470959D01*
X84535380Y-83470959D01*
X84535380Y-82843690D01*
X84438707Y-82610301D01*
X84260078Y-82431673D01*
X84026689Y-82335000D01*
X83336130Y-82335000D01*
X83177380Y-82493750D01*
X82923380Y-82493750D01*
X82764630Y-82335000D01*
X82074071Y-82335000D01*
X81840682Y-82431673D01*
X81662053Y-82610301D01*
X81565380Y-82843690D01*
X77949400Y-82843690D01*
X77949400Y-71335801D01*
X94516248Y-71335801D01*
X94526199Y-71385829D01*
X94526200Y-93373152D01*
X94516248Y-93423185D01*
X94555674Y-93621396D01*
X94639611Y-93747017D01*
X94639614Y-93747020D01*
X94667953Y-93789432D01*
X94710365Y-93817771D01*
X96301429Y-95408836D01*
X96329768Y-95451248D01*
X96372180Y-95479587D01*
X96372182Y-95479589D01*
X96497803Y-95563526D01*
X96645983Y-95593001D01*
X96645987Y-95593001D01*
X96696015Y-95602952D01*
X96746043Y-95593001D01*
X100566576Y-95593001D01*
X100534560Y-95670294D01*
X100534560Y-96099706D01*
X100698889Y-96496431D01*
X101002529Y-96800071D01*
X101399254Y-96964400D01*
X101828666Y-96964400D01*
X102001656Y-96892745D01*
X105785821Y-96892745D01*
X105859955Y-97138864D01*
X106397183Y-97331965D01*
X106967414Y-97304778D01*
X107367965Y-97138864D01*
X107442099Y-96892745D01*
X106613960Y-96064605D01*
X105785821Y-96892745D01*
X102001656Y-96892745D01*
X102225391Y-96800071D01*
X102529031Y-96496431D01*
X102693360Y-96099706D01*
X102693360Y-95670294D01*
X102692503Y-95668223D01*
X105166995Y-95668223D01*
X105194182Y-96238454D01*
X105360096Y-96639005D01*
X105606215Y-96713139D01*
X106434355Y-95885000D01*
X106793565Y-95885000D01*
X107621705Y-96713139D01*
X107867824Y-96639005D01*
X108021658Y-96211020D01*
X108852207Y-96211020D01*
X108852207Y-97911020D01*
X108873892Y-98020036D01*
X108935644Y-98112456D01*
X109028064Y-98174208D01*
X109137080Y-98195893D01*
X110837080Y-98195893D01*
X110946096Y-98174208D01*
X111038516Y-98112456D01*
X111100268Y-98020036D01*
X111121953Y-97911020D01*
X111121953Y-97061020D01*
X111375554Y-97061020D01*
X111463209Y-97501690D01*
X111712828Y-97875272D01*
X112086410Y-98124891D01*
X112415845Y-98190420D01*
X112638315Y-98190420D01*
X112967750Y-98124891D01*
X113341332Y-97875272D01*
X113590951Y-97501690D01*
X113678606Y-97061020D01*
X113915554Y-97061020D01*
X114003209Y-97501690D01*
X114252828Y-97875272D01*
X114626410Y-98124891D01*
X114955845Y-98190420D01*
X115178315Y-98190420D01*
X115507750Y-98124891D01*
X115881332Y-97875272D01*
X116130951Y-97501690D01*
X116218606Y-97061020D01*
X116455554Y-97061020D01*
X116543209Y-97501690D01*
X116792828Y-97875272D01*
X117166410Y-98124891D01*
X117495845Y-98190420D01*
X117718315Y-98190420D01*
X118047750Y-98124891D01*
X118421332Y-97875272D01*
X118670951Y-97501690D01*
X118758606Y-97061020D01*
X118995554Y-97061020D01*
X119083209Y-97501690D01*
X119332828Y-97875272D01*
X119706410Y-98124891D01*
X120035845Y-98190420D01*
X120258315Y-98190420D01*
X120587750Y-98124891D01*
X120961332Y-97875272D01*
X121210951Y-97501690D01*
X121298606Y-97061020D01*
X121535554Y-97061020D01*
X121623209Y-97501690D01*
X121872828Y-97875272D01*
X122246410Y-98124891D01*
X122575845Y-98190420D01*
X122798315Y-98190420D01*
X123127750Y-98124891D01*
X123501332Y-97875272D01*
X123750951Y-97501690D01*
X123838606Y-97061020D01*
X124075554Y-97061020D01*
X124163209Y-97501690D01*
X124412828Y-97875272D01*
X124786410Y-98124891D01*
X125115845Y-98190420D01*
X125338315Y-98190420D01*
X125667750Y-98124891D01*
X126041332Y-97875272D01*
X126290951Y-97501690D01*
X126378606Y-97061020D01*
X126615554Y-97061020D01*
X126703209Y-97501690D01*
X126952828Y-97875272D01*
X127326410Y-98124891D01*
X127655845Y-98190420D01*
X127878315Y-98190420D01*
X128207750Y-98124891D01*
X128581332Y-97875272D01*
X128830951Y-97501690D01*
X128918606Y-97061020D01*
X128830951Y-96620350D01*
X128581332Y-96246768D01*
X128207750Y-95997149D01*
X127878315Y-95931620D01*
X127655845Y-95931620D01*
X127326410Y-95997149D01*
X126952828Y-96246768D01*
X126703209Y-96620350D01*
X126615554Y-97061020D01*
X126378606Y-97061020D01*
X126290951Y-96620350D01*
X126041332Y-96246768D01*
X125667750Y-95997149D01*
X125338315Y-95931620D01*
X125115845Y-95931620D01*
X124786410Y-95997149D01*
X124412828Y-96246768D01*
X124163209Y-96620350D01*
X124075554Y-97061020D01*
X123838606Y-97061020D01*
X123750951Y-96620350D01*
X123501332Y-96246768D01*
X123127750Y-95997149D01*
X122798315Y-95931620D01*
X122575845Y-95931620D01*
X122246410Y-95997149D01*
X121872828Y-96246768D01*
X121623209Y-96620350D01*
X121535554Y-97061020D01*
X121298606Y-97061020D01*
X121210951Y-96620350D01*
X120961332Y-96246768D01*
X120587750Y-95997149D01*
X120258315Y-95931620D01*
X120035845Y-95931620D01*
X119706410Y-95997149D01*
X119332828Y-96246768D01*
X119083209Y-96620350D01*
X118995554Y-97061020D01*
X118758606Y-97061020D01*
X118670951Y-96620350D01*
X118421332Y-96246768D01*
X118047750Y-95997149D01*
X117718315Y-95931620D01*
X117495845Y-95931620D01*
X117166410Y-95997149D01*
X116792828Y-96246768D01*
X116543209Y-96620350D01*
X116455554Y-97061020D01*
X116218606Y-97061020D01*
X116130951Y-96620350D01*
X115881332Y-96246768D01*
X115507750Y-95997149D01*
X115178315Y-95931620D01*
X114955845Y-95931620D01*
X114626410Y-95997149D01*
X114252828Y-96246768D01*
X114003209Y-96620350D01*
X113915554Y-97061020D01*
X113678606Y-97061020D01*
X113590951Y-96620350D01*
X113341332Y-96246768D01*
X112967750Y-95997149D01*
X112638315Y-95931620D01*
X112415845Y-95931620D01*
X112086410Y-95997149D01*
X111712828Y-96246768D01*
X111463209Y-96620350D01*
X111375554Y-97061020D01*
X111121953Y-97061020D01*
X111121953Y-96211020D01*
X111100268Y-96102004D01*
X111038516Y-96009584D01*
X110946096Y-95947832D01*
X110837080Y-95926147D01*
X109137080Y-95926147D01*
X109028064Y-95947832D01*
X108935644Y-96009584D01*
X108873892Y-96102004D01*
X108852207Y-96211020D01*
X108021658Y-96211020D01*
X108060925Y-96101777D01*
X108033738Y-95531546D01*
X107867824Y-95130995D01*
X107621705Y-95056861D01*
X106793565Y-95885000D01*
X106434355Y-95885000D01*
X105606215Y-95056861D01*
X105360096Y-95130995D01*
X105166995Y-95668223D01*
X102692503Y-95668223D01*
X102529031Y-95273569D01*
X102225391Y-94969929D01*
X102001657Y-94877255D01*
X105785821Y-94877255D01*
X106613960Y-95705395D01*
X107442099Y-94877255D01*
X107367965Y-94631136D01*
X106830737Y-94438035D01*
X106260506Y-94465222D01*
X105859955Y-94631136D01*
X105785821Y-94877255D01*
X102001657Y-94877255D01*
X101828666Y-94805600D01*
X101399254Y-94805600D01*
X101295823Y-94848443D01*
X101208548Y-94761168D01*
X101180208Y-94718754D01*
X101012173Y-94606476D01*
X100863993Y-94577001D01*
X100863989Y-94577001D01*
X100813961Y-94567050D01*
X100763933Y-94577001D01*
X96906436Y-94577001D01*
X95970359Y-93640924D01*
X96098839Y-93726772D01*
X96413692Y-93789400D01*
X96626308Y-93789400D01*
X96941161Y-93726772D01*
X97298204Y-93488204D01*
X97536772Y-93131161D01*
X97549501Y-93067168D01*
X97576640Y-93072566D01*
X97611660Y-93065600D01*
X97715388Y-93044967D01*
X97833013Y-92966373D01*
X97852851Y-92936683D01*
X98203317Y-92586217D01*
X108204000Y-92586217D01*
X108204000Y-92833783D01*
X108298739Y-93062505D01*
X108473795Y-93237561D01*
X108702517Y-93332300D01*
X108950083Y-93332300D01*
X109178805Y-93237561D01*
X109350766Y-93065600D01*
X110730187Y-93065600D01*
X110743228Y-93131161D01*
X110981796Y-93488204D01*
X111338839Y-93726772D01*
X111653692Y-93789400D01*
X111866308Y-93789400D01*
X112181161Y-93726772D01*
X112194670Y-93717745D01*
X118551861Y-93717745D01*
X118625995Y-93963864D01*
X119163223Y-94156965D01*
X119733454Y-94129778D01*
X120134005Y-93963864D01*
X120208139Y-93717745D01*
X119380000Y-92889605D01*
X118551861Y-93717745D01*
X112194670Y-93717745D01*
X112538204Y-93488204D01*
X112776772Y-93131161D01*
X112860546Y-92710000D01*
X112817427Y-92493223D01*
X117933035Y-92493223D01*
X117960222Y-93063454D01*
X118126136Y-93464005D01*
X118372255Y-93538139D01*
X119200395Y-92710000D01*
X119559605Y-92710000D01*
X120387745Y-93538139D01*
X120633864Y-93464005D01*
X120826965Y-92926777D01*
X120799778Y-92356546D01*
X120633864Y-91955995D01*
X120387745Y-91881861D01*
X119559605Y-92710000D01*
X119200395Y-92710000D01*
X118372255Y-91881861D01*
X118126136Y-91955995D01*
X117933035Y-92493223D01*
X112817427Y-92493223D01*
X112776772Y-92288839D01*
X112538204Y-91931796D01*
X112194671Y-91702255D01*
X118551861Y-91702255D01*
X119380000Y-92530395D01*
X120208139Y-91702255D01*
X120134005Y-91456136D01*
X119596777Y-91263035D01*
X119026546Y-91290222D01*
X118625995Y-91456136D01*
X118551861Y-91702255D01*
X112194671Y-91702255D01*
X112181161Y-91693228D01*
X111866308Y-91630600D01*
X111653692Y-91630600D01*
X111338839Y-91693228D01*
X110981796Y-91931796D01*
X110743228Y-92288839D01*
X110730187Y-92354400D01*
X109350766Y-92354400D01*
X109178805Y-92182439D01*
X108950083Y-92087700D01*
X108702517Y-92087700D01*
X108473795Y-92182439D01*
X108298739Y-92357495D01*
X108204000Y-92586217D01*
X98203317Y-92586217D01*
X100756017Y-90033517D01*
X106641900Y-90033517D01*
X106641900Y-90281083D01*
X106736639Y-90509805D01*
X106911695Y-90684861D01*
X107140417Y-90779600D01*
X107387983Y-90779600D01*
X107616705Y-90684861D01*
X107775966Y-90525600D01*
X110730187Y-90525600D01*
X110743228Y-90591161D01*
X110981796Y-90948204D01*
X111338839Y-91186772D01*
X111653692Y-91249400D01*
X111866308Y-91249400D01*
X112181161Y-91186772D01*
X112538204Y-90948204D01*
X112776772Y-90591161D01*
X112860546Y-90170000D01*
X112828927Y-90011039D01*
X116718096Y-90011039D01*
X116878959Y-90399423D01*
X117254866Y-90814389D01*
X117760959Y-91053914D01*
X117983000Y-90932629D01*
X117983000Y-89789000D01*
X118237000Y-89789000D01*
X118237000Y-90932629D01*
X118459041Y-91053914D01*
X118965134Y-90814389D01*
X119341041Y-90399423D01*
X119501904Y-90011039D01*
X119379915Y-89789000D01*
X118237000Y-89789000D01*
X117983000Y-89789000D01*
X116840085Y-89789000D01*
X116718096Y-90011039D01*
X112828927Y-90011039D01*
X112776772Y-89748839D01*
X112538204Y-89391796D01*
X112420219Y-89312961D01*
X116718096Y-89312961D01*
X116840085Y-89535000D01*
X117983000Y-89535000D01*
X117983000Y-88391371D01*
X118237000Y-88391371D01*
X118237000Y-89535000D01*
X119379915Y-89535000D01*
X119501904Y-89312961D01*
X119341041Y-88924577D01*
X118965134Y-88509611D01*
X118459041Y-88270086D01*
X118237000Y-88391371D01*
X117983000Y-88391371D01*
X117760959Y-88270086D01*
X117254866Y-88509611D01*
X116878959Y-88924577D01*
X116718096Y-89312961D01*
X112420219Y-89312961D01*
X112181161Y-89153228D01*
X111866308Y-89090600D01*
X111653692Y-89090600D01*
X111338839Y-89153228D01*
X110981796Y-89391796D01*
X110743228Y-89748839D01*
X110730187Y-89814400D01*
X107795739Y-89814400D01*
X107791761Y-89804795D01*
X107616705Y-89629739D01*
X107387983Y-89535000D01*
X107140417Y-89535000D01*
X106911695Y-89629739D01*
X106736639Y-89804795D01*
X106641900Y-90033517D01*
X100756017Y-90033517D01*
X103283317Y-87506217D01*
X107543600Y-87506217D01*
X107543600Y-87753783D01*
X107638339Y-87982505D01*
X107813395Y-88157561D01*
X108042117Y-88252300D01*
X108289683Y-88252300D01*
X108518405Y-88157561D01*
X108690366Y-87985600D01*
X110730187Y-87985600D01*
X110743228Y-88051161D01*
X110981796Y-88408204D01*
X111338839Y-88646772D01*
X111653692Y-88709400D01*
X111866308Y-88709400D01*
X112181161Y-88646772D01*
X112538204Y-88408204D01*
X112776772Y-88051161D01*
X112860546Y-87630000D01*
X112776772Y-87208839D01*
X112718749Y-87122000D01*
X117009454Y-87122000D01*
X117093228Y-87543161D01*
X117331796Y-87900204D01*
X117688839Y-88138772D01*
X118003692Y-88201400D01*
X118216308Y-88201400D01*
X118531161Y-88138772D01*
X118888204Y-87900204D01*
X119126772Y-87543161D01*
X119210546Y-87122000D01*
X119126772Y-86700839D01*
X118888204Y-86343796D01*
X118531161Y-86105228D01*
X118216308Y-86042600D01*
X118003692Y-86042600D01*
X117688839Y-86105228D01*
X117331796Y-86343796D01*
X117093228Y-86700839D01*
X117009454Y-87122000D01*
X112718749Y-87122000D01*
X112538204Y-86851796D01*
X112181161Y-86613228D01*
X111866308Y-86550600D01*
X111653692Y-86550600D01*
X111338839Y-86613228D01*
X110981796Y-86851796D01*
X110743228Y-87208839D01*
X110730187Y-87274400D01*
X108690366Y-87274400D01*
X108518405Y-87102439D01*
X108289683Y-87007700D01*
X108042117Y-87007700D01*
X107813395Y-87102439D01*
X107638339Y-87277495D01*
X107543600Y-87506217D01*
X103283317Y-87506217D01*
X105537701Y-85251834D01*
X105611419Y-85429805D01*
X105786475Y-85604861D01*
X106015197Y-85699600D01*
X106262763Y-85699600D01*
X106491485Y-85604861D01*
X106650746Y-85445600D01*
X110730187Y-85445600D01*
X110743228Y-85511161D01*
X110981796Y-85868204D01*
X111338839Y-86106772D01*
X111653692Y-86169400D01*
X111866308Y-86169400D01*
X112181161Y-86106772D01*
X112538204Y-85868204D01*
X112776772Y-85511161D01*
X112860546Y-85090000D01*
X112828927Y-84931039D01*
X116718096Y-84931039D01*
X116878959Y-85319423D01*
X117254866Y-85734389D01*
X117760959Y-85973914D01*
X117983000Y-85852629D01*
X117983000Y-84709000D01*
X118237000Y-84709000D01*
X118237000Y-85852629D01*
X118459041Y-85973914D01*
X118965134Y-85734389D01*
X119341041Y-85319423D01*
X119501904Y-84931039D01*
X119379915Y-84709000D01*
X118237000Y-84709000D01*
X117983000Y-84709000D01*
X116840085Y-84709000D01*
X116718096Y-84931039D01*
X112828927Y-84931039D01*
X112776772Y-84668839D01*
X112538204Y-84311796D01*
X112420219Y-84232961D01*
X116718096Y-84232961D01*
X116840085Y-84455000D01*
X117983000Y-84455000D01*
X117983000Y-83311371D01*
X118237000Y-83311371D01*
X118237000Y-84455000D01*
X119379915Y-84455000D01*
X119501904Y-84232961D01*
X119341041Y-83844577D01*
X118965134Y-83429611D01*
X118459041Y-83190086D01*
X118237000Y-83311371D01*
X117983000Y-83311371D01*
X117760959Y-83190086D01*
X117254866Y-83429611D01*
X116878959Y-83844577D01*
X116718096Y-84232961D01*
X112420219Y-84232961D01*
X112181161Y-84073228D01*
X111866308Y-84010600D01*
X111653692Y-84010600D01*
X111338839Y-84073228D01*
X110981796Y-84311796D01*
X110743228Y-84668839D01*
X110730187Y-84734400D01*
X106670519Y-84734400D01*
X106666541Y-84724795D01*
X106642489Y-84700743D01*
X106664593Y-84685973D01*
X106684431Y-84656283D01*
X106954294Y-84386420D01*
X107197483Y-84386420D01*
X107426205Y-84291681D01*
X107601261Y-84116625D01*
X107696000Y-83887903D01*
X107696000Y-83640337D01*
X107601261Y-83411615D01*
X107426205Y-83236559D01*
X107423756Y-83235545D01*
X107461765Y-83219801D01*
X107636821Y-83044745D01*
X107731560Y-82816023D01*
X107731560Y-82568457D01*
X107655810Y-82385577D01*
X107899200Y-82385577D01*
X107899200Y-82633143D01*
X107993939Y-82861865D01*
X108168995Y-83036921D01*
X108397717Y-83131660D01*
X108642490Y-83131660D01*
X108725651Y-83187226D01*
X108829379Y-83207859D01*
X108829383Y-83207859D01*
X108864398Y-83214824D01*
X108899413Y-83207859D01*
X110901384Y-83207859D01*
X110981796Y-83328204D01*
X111338839Y-83566772D01*
X111653692Y-83629400D01*
X111866308Y-83629400D01*
X112181161Y-83566772D01*
X112538204Y-83328204D01*
X112776772Y-82971161D01*
X112860546Y-82550000D01*
X112776772Y-82128839D01*
X112718749Y-82042000D01*
X117009454Y-82042000D01*
X117093228Y-82463161D01*
X117331796Y-82820204D01*
X117688839Y-83058772D01*
X118003692Y-83121400D01*
X118216308Y-83121400D01*
X118531161Y-83058772D01*
X118888204Y-82820204D01*
X119126772Y-82463161D01*
X119210546Y-82042000D01*
X119126772Y-81620839D01*
X118888204Y-81263796D01*
X118531161Y-81025228D01*
X118216308Y-80962600D01*
X118003692Y-80962600D01*
X117688839Y-81025228D01*
X117331796Y-81263796D01*
X117093228Y-81620839D01*
X117009454Y-82042000D01*
X112718749Y-82042000D01*
X112538204Y-81771796D01*
X112181161Y-81533228D01*
X111866308Y-81470600D01*
X111653692Y-81470600D01*
X111338839Y-81533228D01*
X110981796Y-81771796D01*
X110743228Y-82128839D01*
X110670064Y-82496659D01*
X109143800Y-82496659D01*
X109143800Y-82385577D01*
X109049061Y-82156855D01*
X108874005Y-81981799D01*
X108645283Y-81887060D01*
X108397717Y-81887060D01*
X108168995Y-81981799D01*
X107993939Y-82156855D01*
X107899200Y-82385577D01*
X107655810Y-82385577D01*
X107636821Y-82339735D01*
X107461765Y-82164679D01*
X107233043Y-82069940D01*
X106985477Y-82069940D01*
X106756755Y-82164679D01*
X106581699Y-82339735D01*
X106486960Y-82568457D01*
X106486960Y-82816023D01*
X106501519Y-82851171D01*
X99538290Y-89814400D01*
X97549813Y-89814400D01*
X97536772Y-89748839D01*
X97298204Y-89391796D01*
X96941161Y-89153228D01*
X96626308Y-89090600D01*
X96413692Y-89090600D01*
X96098839Y-89153228D01*
X95741796Y-89391796D01*
X95542199Y-89690515D01*
X95542199Y-88109485D01*
X95741796Y-88408204D01*
X96098839Y-88646772D01*
X96413692Y-88709400D01*
X96626308Y-88709400D01*
X96941161Y-88646772D01*
X97298204Y-88408204D01*
X97536772Y-88051161D01*
X97620546Y-87630000D01*
X97536772Y-87208839D01*
X97298204Y-86851796D01*
X96941161Y-86613228D01*
X96626308Y-86550600D01*
X96413692Y-86550600D01*
X96098839Y-86613228D01*
X95741796Y-86851796D01*
X95542199Y-87150515D01*
X95542199Y-85569485D01*
X95741796Y-85868204D01*
X96098839Y-86106772D01*
X96413692Y-86169400D01*
X96626308Y-86169400D01*
X96941161Y-86106772D01*
X97298204Y-85868204D01*
X97536772Y-85511161D01*
X97620546Y-85090000D01*
X97536772Y-84668839D01*
X97298204Y-84311796D01*
X96941161Y-84073228D01*
X96626308Y-84010600D01*
X96413692Y-84010600D01*
X96098839Y-84073228D01*
X95741796Y-84311796D01*
X95542199Y-84610515D01*
X95542199Y-83029485D01*
X95741796Y-83328204D01*
X96098839Y-83566772D01*
X96413692Y-83629400D01*
X96626308Y-83629400D01*
X96941161Y-83566772D01*
X97298204Y-83328204D01*
X97536772Y-82971161D01*
X97620546Y-82550000D01*
X97536772Y-82128839D01*
X97298204Y-81771796D01*
X96941161Y-81533228D01*
X96626308Y-81470600D01*
X96413692Y-81470600D01*
X96098839Y-81533228D01*
X95741796Y-81771796D01*
X95542199Y-82070515D01*
X95542199Y-80489485D01*
X95741796Y-80788204D01*
X96098839Y-81026772D01*
X96413692Y-81089400D01*
X96626308Y-81089400D01*
X96941161Y-81026772D01*
X97298204Y-80788204D01*
X97536772Y-80431161D01*
X97620546Y-80010000D01*
X97597946Y-79896377D01*
X97726500Y-79896377D01*
X97726500Y-80143943D01*
X97821239Y-80372665D01*
X97996295Y-80547721D01*
X98225017Y-80642460D01*
X98472583Y-80642460D01*
X98701305Y-80547721D01*
X98876361Y-80372665D01*
X98879287Y-80365600D01*
X110730187Y-80365600D01*
X110743228Y-80431161D01*
X110981796Y-80788204D01*
X111338839Y-81026772D01*
X111653692Y-81089400D01*
X111866308Y-81089400D01*
X112181161Y-81026772D01*
X112538204Y-80788204D01*
X112776772Y-80431161D01*
X112860546Y-80010000D01*
X112776772Y-79588839D01*
X112718749Y-79502000D01*
X117009454Y-79502000D01*
X117093228Y-79923161D01*
X117331796Y-80280204D01*
X117688839Y-80518772D01*
X118003692Y-80581400D01*
X118216308Y-80581400D01*
X118531161Y-80518772D01*
X118888204Y-80280204D01*
X119126772Y-79923161D01*
X119210546Y-79502000D01*
X119126772Y-79080839D01*
X118888204Y-78723796D01*
X118531161Y-78485228D01*
X118216308Y-78422600D01*
X118003692Y-78422600D01*
X117688839Y-78485228D01*
X117331796Y-78723796D01*
X117093228Y-79080839D01*
X117009454Y-79502000D01*
X112718749Y-79502000D01*
X112538204Y-79231796D01*
X112181161Y-78993228D01*
X111866308Y-78930600D01*
X111653692Y-78930600D01*
X111338839Y-78993228D01*
X110981796Y-79231796D01*
X110743228Y-79588839D01*
X110730187Y-79654400D01*
X98863106Y-79654400D01*
X98701305Y-79492599D01*
X98472583Y-79397860D01*
X98225017Y-79397860D01*
X97996295Y-79492599D01*
X97821239Y-79667655D01*
X97726500Y-79896377D01*
X97597946Y-79896377D01*
X97536772Y-79588839D01*
X97298204Y-79231796D01*
X96941161Y-78993228D01*
X96626308Y-78930600D01*
X96413692Y-78930600D01*
X96098839Y-78993228D01*
X95741796Y-79231796D01*
X95542199Y-79530515D01*
X95542199Y-77949485D01*
X95741796Y-78248204D01*
X96098839Y-78486772D01*
X96413692Y-78549400D01*
X96626308Y-78549400D01*
X96941161Y-78486772D01*
X97298204Y-78248204D01*
X97536772Y-77891161D01*
X97620546Y-77470000D01*
X97596430Y-77348757D01*
X103830120Y-77348757D01*
X103830120Y-77596323D01*
X103924859Y-77825045D01*
X104099915Y-78000101D01*
X104328637Y-78094840D01*
X104576203Y-78094840D01*
X104804925Y-78000101D01*
X104979426Y-77825600D01*
X110730187Y-77825600D01*
X110743228Y-77891161D01*
X110981796Y-78248204D01*
X111338839Y-78486772D01*
X111653692Y-78549400D01*
X111866308Y-78549400D01*
X112181161Y-78486772D01*
X112538204Y-78248204D01*
X112776772Y-77891161D01*
X112860546Y-77470000D01*
X112776772Y-77048839D01*
X112718749Y-76962000D01*
X117009454Y-76962000D01*
X117093228Y-77383161D01*
X117331796Y-77740204D01*
X117688839Y-77978772D01*
X118003692Y-78041400D01*
X118216308Y-78041400D01*
X118531161Y-77978772D01*
X118888204Y-77740204D01*
X119126772Y-77383161D01*
X119210546Y-76962000D01*
X119132971Y-76571999D01*
X123062050Y-76571999D01*
X123072002Y-76622032D01*
X123072001Y-91859973D01*
X123062050Y-91910001D01*
X123072001Y-91960029D01*
X123072001Y-91960032D01*
X123101476Y-92108212D01*
X123213754Y-92276248D01*
X123256169Y-92304589D01*
X123343443Y-92391863D01*
X123300600Y-92495294D01*
X123300600Y-92924706D01*
X123464929Y-93321431D01*
X123768569Y-93625071D01*
X124165294Y-93789400D01*
X124594706Y-93789400D01*
X124991431Y-93625071D01*
X125295071Y-93321431D01*
X125459400Y-92924706D01*
X125459400Y-92495294D01*
X125295071Y-92098569D01*
X124991431Y-91794929D01*
X124594706Y-91630600D01*
X124165294Y-91630600D01*
X124088001Y-91662616D01*
X124088001Y-89662000D01*
X124629454Y-89662000D01*
X124713228Y-90083161D01*
X124951796Y-90440204D01*
X125308839Y-90678772D01*
X125623692Y-90741400D01*
X125836308Y-90741400D01*
X126151161Y-90678772D01*
X126508204Y-90440204D01*
X126746772Y-90083161D01*
X126830546Y-89662000D01*
X126746772Y-89240839D01*
X126508204Y-88883796D01*
X126151161Y-88645228D01*
X125836308Y-88582600D01*
X125623692Y-88582600D01*
X125308839Y-88645228D01*
X124951796Y-88883796D01*
X124713228Y-89240839D01*
X124629454Y-89662000D01*
X124088001Y-89662000D01*
X124088001Y-87471039D01*
X124338096Y-87471039D01*
X124498959Y-87859423D01*
X124874866Y-88274389D01*
X125380959Y-88513914D01*
X125603000Y-88392629D01*
X125603000Y-87249000D01*
X125857000Y-87249000D01*
X125857000Y-88392629D01*
X126079041Y-88513914D01*
X126585134Y-88274389D01*
X126961041Y-87859423D01*
X127121904Y-87471039D01*
X126999915Y-87249000D01*
X125857000Y-87249000D01*
X125603000Y-87249000D01*
X124460085Y-87249000D01*
X124338096Y-87471039D01*
X124088001Y-87471039D01*
X124088001Y-86772961D01*
X124338096Y-86772961D01*
X124460085Y-86995000D01*
X125603000Y-86995000D01*
X125603000Y-85851371D01*
X125857000Y-85851371D01*
X125857000Y-86995000D01*
X126999915Y-86995000D01*
X127121904Y-86772961D01*
X126961041Y-86384577D01*
X126585134Y-85969611D01*
X126079041Y-85730086D01*
X125857000Y-85851371D01*
X125603000Y-85851371D01*
X125380959Y-85730086D01*
X124874866Y-85969611D01*
X124498959Y-86384577D01*
X124338096Y-86772961D01*
X124088001Y-86772961D01*
X124088001Y-84582000D01*
X124629454Y-84582000D01*
X124713228Y-85003161D01*
X124951796Y-85360204D01*
X125308839Y-85598772D01*
X125623692Y-85661400D01*
X125836308Y-85661400D01*
X126151161Y-85598772D01*
X126508204Y-85360204D01*
X126746772Y-85003161D01*
X126830546Y-84582000D01*
X126746772Y-84160839D01*
X126508204Y-83803796D01*
X126151161Y-83565228D01*
X125836308Y-83502600D01*
X125623692Y-83502600D01*
X125308839Y-83565228D01*
X124951796Y-83803796D01*
X124713228Y-84160839D01*
X124629454Y-84582000D01*
X124088001Y-84582000D01*
X124088001Y-82391039D01*
X124338096Y-82391039D01*
X124498959Y-82779423D01*
X124874866Y-83194389D01*
X125380959Y-83433914D01*
X125603000Y-83312629D01*
X125603000Y-82169000D01*
X125857000Y-82169000D01*
X125857000Y-83312629D01*
X126079041Y-83433914D01*
X126585134Y-83194389D01*
X126961041Y-82779423D01*
X127121904Y-82391039D01*
X126999915Y-82169000D01*
X125857000Y-82169000D01*
X125603000Y-82169000D01*
X124460085Y-82169000D01*
X124338096Y-82391039D01*
X124088001Y-82391039D01*
X124088001Y-81692961D01*
X124338096Y-81692961D01*
X124460085Y-81915000D01*
X125603000Y-81915000D01*
X125603000Y-80771371D01*
X125857000Y-80771371D01*
X125857000Y-81915000D01*
X126999915Y-81915000D01*
X127121904Y-81692961D01*
X126961041Y-81304577D01*
X126585134Y-80889611D01*
X126079041Y-80650086D01*
X125857000Y-80771371D01*
X125603000Y-80771371D01*
X125380959Y-80650086D01*
X124874866Y-80889611D01*
X124498959Y-81304577D01*
X124338096Y-81692961D01*
X124088001Y-81692961D01*
X124088001Y-79502000D01*
X124629454Y-79502000D01*
X124713228Y-79923161D01*
X124951796Y-80280204D01*
X125308839Y-80518772D01*
X125623692Y-80581400D01*
X125836308Y-80581400D01*
X126151161Y-80518772D01*
X126508204Y-80280204D01*
X126746772Y-79923161D01*
X126830546Y-79502000D01*
X126746772Y-79080839D01*
X126508204Y-78723796D01*
X126151161Y-78485228D01*
X125836308Y-78422600D01*
X125623692Y-78422600D01*
X125308839Y-78485228D01*
X124951796Y-78723796D01*
X124713228Y-79080839D01*
X124629454Y-79502000D01*
X124088001Y-79502000D01*
X124088001Y-77311039D01*
X124338096Y-77311039D01*
X124498959Y-77699423D01*
X124874866Y-78114389D01*
X125380959Y-78353914D01*
X125603000Y-78232629D01*
X125603000Y-77089000D01*
X125857000Y-77089000D01*
X125857000Y-78232629D01*
X126079041Y-78353914D01*
X126585134Y-78114389D01*
X126961041Y-77699423D01*
X127121904Y-77311039D01*
X126999915Y-77089000D01*
X125857000Y-77089000D01*
X125603000Y-77089000D01*
X124460085Y-77089000D01*
X124338096Y-77311039D01*
X124088001Y-77311039D01*
X124088001Y-76782419D01*
X124395108Y-76475312D01*
X124338096Y-76612961D01*
X124460085Y-76835000D01*
X125603000Y-76835000D01*
X125603000Y-75691371D01*
X125857000Y-75691371D01*
X125857000Y-76835000D01*
X126999915Y-76835000D01*
X127121904Y-76612961D01*
X126961041Y-76224577D01*
X126585134Y-75809611D01*
X126079041Y-75570086D01*
X125857000Y-75691371D01*
X125603000Y-75691371D01*
X125380959Y-75570086D01*
X125227888Y-75642532D01*
X125411273Y-75459147D01*
X125623692Y-75501400D01*
X125836308Y-75501400D01*
X126151161Y-75438772D01*
X126508204Y-75200204D01*
X126746772Y-74843161D01*
X126830546Y-74422000D01*
X126746772Y-74000839D01*
X126508204Y-73643796D01*
X126151161Y-73405228D01*
X125836308Y-73342600D01*
X125623692Y-73342600D01*
X125308839Y-73405228D01*
X124951796Y-73643796D01*
X124713228Y-74000839D01*
X124629454Y-74422000D01*
X124692853Y-74740727D01*
X123256167Y-76177413D01*
X123213755Y-76205752D01*
X123185416Y-76248164D01*
X123185413Y-76248167D01*
X123101476Y-76373788D01*
X123062050Y-76571999D01*
X119132971Y-76571999D01*
X119126772Y-76540839D01*
X118888204Y-76183796D01*
X118531161Y-75945228D01*
X118216308Y-75882600D01*
X118003692Y-75882600D01*
X117688839Y-75945228D01*
X117331796Y-76183796D01*
X117093228Y-76540839D01*
X117009454Y-76962000D01*
X112718749Y-76962000D01*
X112538204Y-76691796D01*
X112181161Y-76453228D01*
X111866308Y-76390600D01*
X111653692Y-76390600D01*
X111338839Y-76453228D01*
X110981796Y-76691796D01*
X110743228Y-77048839D01*
X110730187Y-77114400D01*
X104974346Y-77114400D01*
X104804925Y-76944979D01*
X104576203Y-76850240D01*
X104328637Y-76850240D01*
X104099915Y-76944979D01*
X103924859Y-77120035D01*
X103830120Y-77348757D01*
X97596430Y-77348757D01*
X97536772Y-77048839D01*
X97298204Y-76691796D01*
X96941161Y-76453228D01*
X96626308Y-76390600D01*
X96413692Y-76390600D01*
X96098839Y-76453228D01*
X95741796Y-76691796D01*
X95542199Y-76990515D01*
X95542199Y-76208297D01*
X102412800Y-76208297D01*
X102412800Y-76455863D01*
X102507539Y-76684585D01*
X102682595Y-76859641D01*
X102911317Y-76954380D01*
X103158883Y-76954380D01*
X103387605Y-76859641D01*
X103508766Y-76738480D01*
X103980602Y-76738480D01*
X104020620Y-76746440D01*
X104060638Y-76738480D01*
X104060643Y-76738480D01*
X104179189Y-76714900D01*
X104313617Y-76625077D01*
X104336290Y-76591146D01*
X104572495Y-76354940D01*
X104743843Y-76354940D01*
X104972565Y-76260201D01*
X105147621Y-76085145D01*
X105242360Y-75856423D01*
X105242360Y-75608857D01*
X105147621Y-75380135D01*
X105053086Y-75285600D01*
X110730187Y-75285600D01*
X110743228Y-75351161D01*
X110981796Y-75708204D01*
X111338839Y-75946772D01*
X111653692Y-76009400D01*
X111866308Y-76009400D01*
X112181161Y-75946772D01*
X112538204Y-75708204D01*
X112776772Y-75351161D01*
X112860546Y-74930000D01*
X112776772Y-74508839D01*
X112538204Y-74151796D01*
X112181161Y-73913228D01*
X111866308Y-73850600D01*
X111653692Y-73850600D01*
X111338839Y-73913228D01*
X110981796Y-74151796D01*
X110743228Y-74508839D01*
X110730187Y-74574400D01*
X103877066Y-74574400D01*
X103710185Y-74407519D01*
X103481463Y-74312780D01*
X103233897Y-74312780D01*
X103005175Y-74407519D01*
X102830119Y-74582575D01*
X102735380Y-74811297D01*
X102735380Y-75058863D01*
X102830119Y-75287585D01*
X103005175Y-75462641D01*
X103233897Y-75557380D01*
X103481463Y-75557380D01*
X103710185Y-75462641D01*
X103885241Y-75287585D01*
X103886063Y-75285600D01*
X104187034Y-75285600D01*
X104092499Y-75380135D01*
X103997760Y-75608857D01*
X103997760Y-75780205D01*
X103852285Y-75925680D01*
X103508766Y-75925680D01*
X103387605Y-75804519D01*
X103158883Y-75709780D01*
X102911317Y-75709780D01*
X102682595Y-75804519D01*
X102507539Y-75979575D01*
X102412800Y-76208297D01*
X95542199Y-76208297D01*
X95542199Y-75409485D01*
X95741796Y-75708204D01*
X96098839Y-75946772D01*
X96413692Y-76009400D01*
X96626308Y-76009400D01*
X96941161Y-75946772D01*
X97298204Y-75708204D01*
X97536772Y-75351161D01*
X97549813Y-75285600D01*
X100284217Y-75285600D01*
X100285039Y-75287585D01*
X100460095Y-75462641D01*
X100688817Y-75557380D01*
X100936383Y-75557380D01*
X101165105Y-75462641D01*
X101340161Y-75287585D01*
X101434900Y-75058863D01*
X101434900Y-74811297D01*
X101340161Y-74582575D01*
X101165105Y-74407519D01*
X100936383Y-74312780D01*
X100688817Y-74312780D01*
X100460095Y-74407519D01*
X100293214Y-74574400D01*
X97549813Y-74574400D01*
X97536772Y-74508839D01*
X97298204Y-74151796D01*
X96941161Y-73913228D01*
X96626308Y-73850600D01*
X96413692Y-73850600D01*
X96098839Y-73913228D01*
X95741796Y-74151796D01*
X95542199Y-74450515D01*
X95542199Y-72869485D01*
X95741796Y-73168204D01*
X96098839Y-73406772D01*
X96413692Y-73469400D01*
X96626308Y-73469400D01*
X96941161Y-73406772D01*
X97298204Y-73168204D01*
X97536772Y-72811161D01*
X97549813Y-72745600D01*
X100291837Y-72745600D01*
X100292659Y-72747585D01*
X100467715Y-72922641D01*
X100696437Y-73017380D01*
X100944003Y-73017380D01*
X101172725Y-72922641D01*
X101347781Y-72747585D01*
X101351320Y-72739039D01*
X110368096Y-72739039D01*
X110528959Y-73127423D01*
X110904866Y-73542389D01*
X111410959Y-73781914D01*
X111633000Y-73660629D01*
X111633000Y-72517000D01*
X111887000Y-72517000D01*
X111887000Y-73660629D01*
X112109041Y-73781914D01*
X112446923Y-73622000D01*
X117025127Y-73622000D01*
X117025127Y-75222000D01*
X117046812Y-75331016D01*
X117108564Y-75423436D01*
X117200984Y-75485188D01*
X117310000Y-75506873D01*
X118910000Y-75506873D01*
X119019016Y-75485188D01*
X119111436Y-75423436D01*
X119173188Y-75331016D01*
X119194873Y-75222000D01*
X119194873Y-73622000D01*
X119173188Y-73512984D01*
X119111436Y-73420564D01*
X119019016Y-73358812D01*
X118910000Y-73337127D01*
X117310000Y-73337127D01*
X117200984Y-73358812D01*
X117108564Y-73420564D01*
X117046812Y-73512984D01*
X117025127Y-73622000D01*
X112446923Y-73622000D01*
X112615134Y-73542389D01*
X112991041Y-73127423D01*
X113151904Y-72739039D01*
X113029915Y-72517000D01*
X111887000Y-72517000D01*
X111633000Y-72517000D01*
X110490085Y-72517000D01*
X110368096Y-72739039D01*
X101351320Y-72739039D01*
X101442520Y-72518863D01*
X101442520Y-72271297D01*
X101347781Y-72042575D01*
X101346167Y-72040961D01*
X110368096Y-72040961D01*
X110490085Y-72263000D01*
X111633000Y-72263000D01*
X111633000Y-71119371D01*
X111887000Y-71119371D01*
X111887000Y-72263000D01*
X113029915Y-72263000D01*
X113151904Y-72040961D01*
X112991041Y-71652577D01*
X112615134Y-71237611D01*
X112109041Y-70998086D01*
X111887000Y-71119371D01*
X111633000Y-71119371D01*
X111410959Y-70998086D01*
X110904866Y-71237611D01*
X110528959Y-71652577D01*
X110368096Y-72040961D01*
X101346167Y-72040961D01*
X101172725Y-71867519D01*
X100944003Y-71772780D01*
X100696437Y-71772780D01*
X100467715Y-71867519D01*
X100300834Y-72034400D01*
X97549813Y-72034400D01*
X97536772Y-71968839D01*
X97298204Y-71611796D01*
X96941161Y-71373228D01*
X96626308Y-71310600D01*
X96413692Y-71310600D01*
X96098839Y-71373228D01*
X95741796Y-71611796D01*
X95542199Y-71910515D01*
X95542199Y-71546221D01*
X96201273Y-70887147D01*
X96413692Y-70929400D01*
X96626308Y-70929400D01*
X96941161Y-70866772D01*
X97298204Y-70628204D01*
X97536772Y-70271161D01*
X97620546Y-69850000D01*
X97536772Y-69428839D01*
X97298204Y-69071796D01*
X96941161Y-68833228D01*
X96626308Y-68770600D01*
X96413692Y-68770600D01*
X96098839Y-68833228D01*
X95741796Y-69071796D01*
X95503228Y-69428839D01*
X95419454Y-69850000D01*
X95482853Y-70168727D01*
X94710367Y-70941213D01*
X94667952Y-70969554D01*
X94555674Y-71137590D01*
X94526199Y-71285770D01*
X94526199Y-71285773D01*
X94516248Y-71335801D01*
X77949400Y-71335801D01*
X77949400Y-70857745D01*
X82991861Y-70857745D01*
X83065995Y-71103864D01*
X83603223Y-71296965D01*
X84173454Y-71269778D01*
X84574005Y-71103864D01*
X84648139Y-70857745D01*
X83820000Y-70029605D01*
X82991861Y-70857745D01*
X77949400Y-70857745D01*
X77949400Y-69633223D01*
X82373035Y-69633223D01*
X82400222Y-70203454D01*
X82566136Y-70604005D01*
X82812255Y-70678139D01*
X83640395Y-69850000D01*
X83999605Y-69850000D01*
X84827745Y-70678139D01*
X85073864Y-70604005D01*
X85266965Y-70066777D01*
X85239778Y-69496546D01*
X85073864Y-69095995D01*
X84827745Y-69021861D01*
X83999605Y-69850000D01*
X83640395Y-69850000D01*
X82812255Y-69021861D01*
X82566136Y-69095995D01*
X82373035Y-69633223D01*
X77949400Y-69633223D01*
X77949400Y-68842255D01*
X82991861Y-68842255D01*
X83820000Y-69670395D01*
X84648139Y-68842255D01*
X84574005Y-68596136D01*
X84036777Y-68403035D01*
X83466546Y-68430222D01*
X83065995Y-68596136D01*
X82991861Y-68842255D01*
X77949400Y-68842255D01*
X77949400Y-67024039D01*
X81158096Y-67024039D01*
X81318959Y-67412423D01*
X81694866Y-67827389D01*
X82200959Y-68066914D01*
X82423000Y-67945629D01*
X82423000Y-66802000D01*
X82677000Y-66802000D01*
X82677000Y-67945629D01*
X82899041Y-68066914D01*
X83405134Y-67827389D01*
X83781041Y-67412423D01*
X83941904Y-67024039D01*
X83819915Y-66802000D01*
X82677000Y-66802000D01*
X82423000Y-66802000D01*
X81280085Y-66802000D01*
X81158096Y-67024039D01*
X77949400Y-67024039D01*
X77949400Y-66325961D01*
X81158096Y-66325961D01*
X81280085Y-66548000D01*
X82423000Y-66548000D01*
X82423000Y-65404371D01*
X82677000Y-65404371D01*
X82677000Y-66548000D01*
X83819915Y-66548000D01*
X83941904Y-66325961D01*
X83781041Y-65937577D01*
X83405134Y-65522611D01*
X82899041Y-65283086D01*
X82677000Y-65404371D01*
X82423000Y-65404371D01*
X82200959Y-65283086D01*
X81694866Y-65522611D01*
X81318959Y-65937577D01*
X81158096Y-66325961D01*
X77949400Y-66325961D01*
X77949400Y-62602745D01*
X81721861Y-62602745D01*
X81795995Y-62848864D01*
X82333223Y-63041965D01*
X82903454Y-63014778D01*
X83304005Y-62848864D01*
X83378139Y-62602745D01*
X82550000Y-61774605D01*
X81721861Y-62602745D01*
X77949400Y-62602745D01*
X77949400Y-61378223D01*
X81103035Y-61378223D01*
X81130222Y-61948454D01*
X81296136Y-62349005D01*
X81542255Y-62423139D01*
X82370395Y-61595000D01*
X82729605Y-61595000D01*
X83557745Y-62423139D01*
X83803864Y-62349005D01*
X83996965Y-61811777D01*
X83969778Y-61241546D01*
X83803864Y-60840995D01*
X83557745Y-60766861D01*
X82729605Y-61595000D01*
X82370395Y-61595000D01*
X81542255Y-60766861D01*
X81296136Y-60840995D01*
X81103035Y-61378223D01*
X77949400Y-61378223D01*
X77949400Y-60587255D01*
X81721861Y-60587255D01*
X82550000Y-61415395D01*
X83378139Y-60587255D01*
X83304005Y-60341136D01*
X82766777Y-60148035D01*
X82196546Y-60175222D01*
X81795995Y-60341136D01*
X81721861Y-60587255D01*
X77949400Y-60587255D01*
X77949400Y-45555000D01*
X81465127Y-45555000D01*
X81465127Y-47155000D01*
X81486812Y-47264016D01*
X81548564Y-47356436D01*
X81640984Y-47418188D01*
X81750000Y-47439873D01*
X83350000Y-47439873D01*
X83459016Y-47418188D01*
X83551436Y-47356436D01*
X83613188Y-47264016D01*
X83634873Y-47155000D01*
X83634873Y-46863000D01*
X88943580Y-46863000D01*
X87696167Y-48110413D01*
X87653755Y-48138752D01*
X87625416Y-48181164D01*
X87625413Y-48181167D01*
X87541476Y-48306788D01*
X87502050Y-48504999D01*
X87512002Y-48555032D01*
X87512001Y-68999973D01*
X87502050Y-69050001D01*
X87512001Y-69100029D01*
X87512001Y-69100032D01*
X87537396Y-69227700D01*
X87541476Y-69248212D01*
X87623838Y-69371475D01*
X87653754Y-69416248D01*
X87696169Y-69444589D01*
X87783443Y-69531863D01*
X87740600Y-69635294D01*
X87740600Y-70064706D01*
X87904929Y-70461431D01*
X88208569Y-70765071D01*
X88605294Y-70929400D01*
X89034706Y-70929400D01*
X89431431Y-70765071D01*
X89735071Y-70461431D01*
X89899400Y-70064706D01*
X89899400Y-69635294D01*
X89735071Y-69238569D01*
X89431431Y-68934929D01*
X89034706Y-68770600D01*
X88605294Y-68770600D01*
X88528001Y-68802616D01*
X88528001Y-66675000D01*
X89069454Y-66675000D01*
X89153228Y-67096161D01*
X89391796Y-67453204D01*
X89748839Y-67691772D01*
X90063692Y-67754400D01*
X90276308Y-67754400D01*
X90591161Y-67691772D01*
X90948204Y-67453204D01*
X91043889Y-67310000D01*
X95419454Y-67310000D01*
X95503228Y-67731161D01*
X95741796Y-68088204D01*
X96098839Y-68326772D01*
X96413692Y-68389400D01*
X96626308Y-68389400D01*
X96941161Y-68326772D01*
X97298204Y-68088204D01*
X97536772Y-67731161D01*
X97549813Y-67665600D01*
X97781154Y-67665600D01*
X97755199Y-67691555D01*
X97660460Y-67920277D01*
X97660460Y-68167843D01*
X97755199Y-68396565D01*
X97876361Y-68517727D01*
X97876360Y-70402494D01*
X97755199Y-70523655D01*
X97660460Y-70752377D01*
X97660460Y-70999943D01*
X97755199Y-71228665D01*
X97930255Y-71403721D01*
X98158977Y-71498460D01*
X98406543Y-71498460D01*
X98635265Y-71403721D01*
X98810321Y-71228665D01*
X98905060Y-70999943D01*
X98905060Y-70752377D01*
X98810321Y-70523655D01*
X98689160Y-70402494D01*
X98689160Y-70359226D01*
X98707495Y-70377561D01*
X98936217Y-70472300D01*
X99183783Y-70472300D01*
X99412505Y-70377561D01*
X99584466Y-70205600D01*
X110730187Y-70205600D01*
X110743228Y-70271161D01*
X110981796Y-70628204D01*
X111338839Y-70866772D01*
X111653692Y-70929400D01*
X111866308Y-70929400D01*
X112181161Y-70866772D01*
X112538204Y-70628204D01*
X112776772Y-70271161D01*
X112860546Y-69850000D01*
X112776772Y-69428839D01*
X112538204Y-69071796D01*
X112181161Y-68833228D01*
X111866308Y-68770600D01*
X111653692Y-68770600D01*
X111338839Y-68833228D01*
X110981796Y-69071796D01*
X110743228Y-69428839D01*
X110730187Y-69494400D01*
X99584466Y-69494400D01*
X99412505Y-69322439D01*
X99183783Y-69227700D01*
X98936217Y-69227700D01*
X98707495Y-69322439D01*
X98689160Y-69340774D01*
X98689160Y-68517726D01*
X98810321Y-68396565D01*
X98905060Y-68167843D01*
X98905060Y-67920277D01*
X98810321Y-67691555D01*
X98784366Y-67665600D01*
X101772041Y-67665600D01*
X101776019Y-67675205D01*
X101951075Y-67850261D01*
X102179797Y-67945000D01*
X102427363Y-67945000D01*
X102656085Y-67850261D01*
X102831141Y-67675205D01*
X102925880Y-67446483D01*
X102925880Y-67198917D01*
X102878255Y-67083940D01*
X110704420Y-67083940D01*
X110659454Y-67310000D01*
X110743228Y-67731161D01*
X110981796Y-68088204D01*
X111338839Y-68326772D01*
X111653692Y-68389400D01*
X111866308Y-68389400D01*
X112181161Y-68326772D01*
X112538204Y-68088204D01*
X112776772Y-67731161D01*
X112860546Y-67310000D01*
X112776772Y-66888839D01*
X112538204Y-66531796D01*
X112505584Y-66510000D01*
X119565127Y-66510000D01*
X119565127Y-68110000D01*
X119586812Y-68219016D01*
X119648564Y-68311436D01*
X119740984Y-68373188D01*
X119850000Y-68394873D01*
X121450000Y-68394873D01*
X121559016Y-68373188D01*
X121641993Y-68317745D01*
X122321861Y-68317745D01*
X122395995Y-68563864D01*
X122933223Y-68756965D01*
X123503454Y-68729778D01*
X123904005Y-68563864D01*
X123978139Y-68317745D01*
X123150000Y-67489605D01*
X122321861Y-68317745D01*
X121641993Y-68317745D01*
X121651436Y-68311436D01*
X121713188Y-68219016D01*
X121734873Y-68110000D01*
X121734873Y-67674682D01*
X121896136Y-68064005D01*
X122142255Y-68138139D01*
X122970395Y-67310000D01*
X123329605Y-67310000D01*
X124157745Y-68138139D01*
X124403864Y-68064005D01*
X124596965Y-67526777D01*
X124569778Y-66956546D01*
X124403864Y-66555995D01*
X124157745Y-66481861D01*
X123329605Y-67310000D01*
X122970395Y-67310000D01*
X122142255Y-66481861D01*
X121896136Y-66555995D01*
X121734873Y-67004646D01*
X121734873Y-66510000D01*
X121713188Y-66400984D01*
X121651436Y-66308564D01*
X121641994Y-66302255D01*
X122321861Y-66302255D01*
X123150000Y-67130395D01*
X123978139Y-66302255D01*
X123904005Y-66056136D01*
X123366777Y-65863035D01*
X122796546Y-65890222D01*
X122395995Y-66056136D01*
X122321861Y-66302255D01*
X121641994Y-66302255D01*
X121559016Y-66246812D01*
X121450000Y-66225127D01*
X119850000Y-66225127D01*
X119740984Y-66246812D01*
X119648564Y-66308564D01*
X119586812Y-66400984D01*
X119565127Y-66510000D01*
X112505584Y-66510000D01*
X112181161Y-66293228D01*
X111866308Y-66230600D01*
X111653692Y-66230600D01*
X111338839Y-66293228D01*
X111218354Y-66373733D01*
X111213360Y-66372740D01*
X111178340Y-66365774D01*
X111143320Y-66372740D01*
X98690386Y-66372740D01*
X98518425Y-66200779D01*
X98289703Y-66106040D01*
X98042137Y-66106040D01*
X97813415Y-66200779D01*
X97638359Y-66375835D01*
X97543620Y-66604557D01*
X97543620Y-66852123D01*
X97585984Y-66954400D01*
X97549813Y-66954400D01*
X97536772Y-66888839D01*
X97298204Y-66531796D01*
X96941161Y-66293228D01*
X96626308Y-66230600D01*
X96413692Y-66230600D01*
X96098839Y-66293228D01*
X95741796Y-66531796D01*
X95503228Y-66888839D01*
X95419454Y-67310000D01*
X91043889Y-67310000D01*
X91186772Y-67096161D01*
X91270546Y-66675000D01*
X91186772Y-66253839D01*
X90948204Y-65896796D01*
X90591161Y-65658228D01*
X90276308Y-65595600D01*
X90063692Y-65595600D01*
X89748839Y-65658228D01*
X89391796Y-65896796D01*
X89153228Y-66253839D01*
X89069454Y-66675000D01*
X88528001Y-66675000D01*
X88528001Y-63391457D01*
X95082360Y-63391457D01*
X95082360Y-63639023D01*
X95177099Y-63867745D01*
X95352155Y-64042801D01*
X95580877Y-64137540D01*
X95644413Y-64137540D01*
X95503228Y-64348839D01*
X95419454Y-64770000D01*
X95503228Y-65191161D01*
X95741796Y-65548204D01*
X96098839Y-65786772D01*
X96413692Y-65849400D01*
X96626308Y-65849400D01*
X96941161Y-65786772D01*
X97042873Y-65718810D01*
X97086960Y-65727580D01*
X97086964Y-65727580D01*
X97121979Y-65734545D01*
X97156994Y-65727580D01*
X101453994Y-65727580D01*
X101623415Y-65897001D01*
X101852137Y-65991740D01*
X102099703Y-65991740D01*
X102328425Y-65897001D01*
X102503481Y-65721945D01*
X102598220Y-65493223D01*
X102598220Y-65245657D01*
X102556908Y-65145920D01*
X110734229Y-65145920D01*
X110743228Y-65191161D01*
X110981796Y-65548204D01*
X111338839Y-65786772D01*
X111653692Y-65849400D01*
X111866308Y-65849400D01*
X112181161Y-65786772D01*
X112538204Y-65548204D01*
X112776772Y-65191161D01*
X112860546Y-64770000D01*
X112776772Y-64348839D01*
X112538204Y-63991796D01*
X112181161Y-63753228D01*
X111866308Y-63690600D01*
X111653692Y-63690600D01*
X111338839Y-63753228D01*
X110981796Y-63991796D01*
X110743228Y-64348839D01*
X110726145Y-64434720D01*
X99000266Y-64434720D01*
X98828305Y-64262759D01*
X98599583Y-64168020D01*
X98352017Y-64168020D01*
X98123295Y-64262759D01*
X97948239Y-64437815D01*
X97853500Y-64666537D01*
X97853500Y-64914103D01*
X97895864Y-65016380D01*
X97571538Y-65016380D01*
X97620546Y-64770000D01*
X97536772Y-64348839D01*
X97298204Y-63991796D01*
X97193208Y-63921640D01*
X102081374Y-63921640D01*
X102202535Y-64042801D01*
X102431257Y-64137540D01*
X102678823Y-64137540D01*
X102907545Y-64042801D01*
X103082601Y-63867745D01*
X103177340Y-63639023D01*
X103177340Y-63391457D01*
X103082601Y-63162735D01*
X102907545Y-62987679D01*
X102678823Y-62892940D01*
X102431257Y-62892940D01*
X102202535Y-62987679D01*
X102081374Y-63108840D01*
X101356765Y-63108840D01*
X101434900Y-62920203D01*
X101434900Y-62672637D01*
X101390432Y-62565280D01*
X110726145Y-62565280D01*
X110743228Y-62651161D01*
X110981796Y-63008204D01*
X111338839Y-63246772D01*
X111653692Y-63309400D01*
X111866308Y-63309400D01*
X112181161Y-63246772D01*
X112538204Y-63008204D01*
X112776772Y-62651161D01*
X112860546Y-62230000D01*
X112843101Y-62142294D01*
X118935600Y-62142294D01*
X118935600Y-62571706D01*
X119099929Y-62968431D01*
X119403569Y-63272071D01*
X119800294Y-63436400D01*
X120229706Y-63436400D01*
X120626431Y-63272071D01*
X120930071Y-62968431D01*
X121094400Y-62571706D01*
X121094400Y-62142294D01*
X122745600Y-62142294D01*
X122745600Y-62571706D01*
X122909929Y-62968431D01*
X123213569Y-63272071D01*
X123610294Y-63436400D01*
X124039706Y-63436400D01*
X124436431Y-63272071D01*
X124740071Y-62968431D01*
X124904400Y-62571706D01*
X124904400Y-62142294D01*
X124740071Y-61745569D01*
X124436431Y-61441929D01*
X124039706Y-61277600D01*
X123610294Y-61277600D01*
X123213569Y-61441929D01*
X122909929Y-61745569D01*
X122745600Y-62142294D01*
X121094400Y-62142294D01*
X120930071Y-61745569D01*
X120626431Y-61441929D01*
X120229706Y-61277600D01*
X119800294Y-61277600D01*
X119403569Y-61441929D01*
X119099929Y-61745569D01*
X118935600Y-62142294D01*
X112843101Y-62142294D01*
X112776772Y-61808839D01*
X112538204Y-61451796D01*
X112181161Y-61213228D01*
X111866308Y-61150600D01*
X111653692Y-61150600D01*
X111338839Y-61213228D01*
X110981796Y-61451796D01*
X110743228Y-61808839D01*
X110734229Y-61854080D01*
X99254199Y-61854080D01*
X99082238Y-61682119D01*
X98853516Y-61587380D01*
X98605950Y-61587380D01*
X98377228Y-61682119D01*
X98202172Y-61857175D01*
X98107433Y-62085897D01*
X98107433Y-62333463D01*
X98151901Y-62440820D01*
X97578611Y-62440820D01*
X97620546Y-62230000D01*
X97536772Y-61808839D01*
X97298204Y-61451796D01*
X96941161Y-61213228D01*
X96626308Y-61150600D01*
X96413692Y-61150600D01*
X96098839Y-61213228D01*
X95741796Y-61451796D01*
X95503228Y-61808839D01*
X95419454Y-62230000D01*
X95503228Y-62651161D01*
X95664779Y-62892940D01*
X95580877Y-62892940D01*
X95352155Y-62987679D01*
X95177099Y-63162735D01*
X95082360Y-63391457D01*
X88528001Y-63391457D01*
X88528001Y-61380294D01*
X89090600Y-61380294D01*
X89090600Y-61809706D01*
X89254929Y-62206431D01*
X89558569Y-62510071D01*
X89955294Y-62674400D01*
X90384706Y-62674400D01*
X90781431Y-62510071D01*
X91085071Y-62206431D01*
X91249400Y-61809706D01*
X91249400Y-61380294D01*
X91085071Y-60983569D01*
X90781431Y-60679929D01*
X90384706Y-60515600D01*
X89955294Y-60515600D01*
X89558569Y-60679929D01*
X89254929Y-60983569D01*
X89090600Y-61380294D01*
X88528001Y-61380294D01*
X88528001Y-59690000D01*
X95419454Y-59690000D01*
X95503228Y-60111161D01*
X95741796Y-60468204D01*
X96098839Y-60706772D01*
X96413692Y-60769400D01*
X96626308Y-60769400D01*
X96941161Y-60706772D01*
X97298204Y-60468204D01*
X97536772Y-60111161D01*
X97620546Y-59690000D01*
X97569012Y-59430920D01*
X98457764Y-59430920D01*
X98412244Y-59540817D01*
X98412244Y-59788383D01*
X98506983Y-60017105D01*
X98682039Y-60192161D01*
X98910761Y-60286900D01*
X99158327Y-60286900D01*
X99387049Y-60192161D01*
X99559010Y-60020200D01*
X110725135Y-60020200D01*
X110743228Y-60111161D01*
X110981796Y-60468204D01*
X111338839Y-60706772D01*
X111653692Y-60769400D01*
X111866308Y-60769400D01*
X112181161Y-60706772D01*
X112538204Y-60468204D01*
X112776772Y-60111161D01*
X112860546Y-59690000D01*
X112776772Y-59268839D01*
X112538204Y-58911796D01*
X112181161Y-58673228D01*
X111866308Y-58610600D01*
X111653692Y-58610600D01*
X111338839Y-58673228D01*
X110981796Y-58911796D01*
X110743228Y-59268839D01*
X110735239Y-59309000D01*
X103141544Y-59309000D01*
X103184960Y-59204183D01*
X103184960Y-58956617D01*
X103090221Y-58727895D01*
X102915165Y-58552839D01*
X102686443Y-58458100D01*
X102438877Y-58458100D01*
X102210155Y-58552839D01*
X102043274Y-58719720D01*
X97169700Y-58719720D01*
X97134680Y-58712754D01*
X97099660Y-58719720D01*
X97031140Y-58733350D01*
X96941161Y-58673228D01*
X96626308Y-58610600D01*
X96413692Y-58610600D01*
X96098839Y-58673228D01*
X95741796Y-58911796D01*
X95503228Y-59268839D01*
X95419454Y-59690000D01*
X88528001Y-59690000D01*
X88528001Y-57150000D01*
X95419454Y-57150000D01*
X95503228Y-57571161D01*
X95741796Y-57928204D01*
X96098839Y-58166772D01*
X96413692Y-58229400D01*
X96626308Y-58229400D01*
X96941161Y-58166772D01*
X97298204Y-57928204D01*
X97536772Y-57571161D01*
X97620546Y-57150000D01*
X97536772Y-56728839D01*
X97499635Y-56673260D01*
X97508035Y-56664860D01*
X98974909Y-56664860D01*
X98811794Y-56827975D01*
X98717055Y-57056697D01*
X98717055Y-57304263D01*
X98811794Y-57532985D01*
X98986850Y-57708041D01*
X99215572Y-57802780D01*
X99463138Y-57802780D01*
X99691860Y-57708041D01*
X99863821Y-57536080D01*
X110736250Y-57536080D01*
X110743228Y-57571161D01*
X110981796Y-57928204D01*
X111338839Y-58166772D01*
X111653692Y-58229400D01*
X111866308Y-58229400D01*
X112181161Y-58166772D01*
X112538204Y-57928204D01*
X112776772Y-57571161D01*
X112860546Y-57150000D01*
X112776772Y-56728839D01*
X112538204Y-56371796D01*
X112181161Y-56133228D01*
X111866308Y-56070600D01*
X111653692Y-56070600D01*
X111338839Y-56133228D01*
X110981796Y-56371796D01*
X110743228Y-56728839D01*
X110724124Y-56824880D01*
X104400306Y-56824880D01*
X104558341Y-56666845D01*
X104653080Y-56438123D01*
X104653080Y-56190557D01*
X104558341Y-55961835D01*
X104383285Y-55786779D01*
X104154563Y-55692040D01*
X103906997Y-55692040D01*
X103678275Y-55786779D01*
X103511394Y-55953660D01*
X97395760Y-55953660D01*
X97360740Y-55946694D01*
X97325720Y-55953660D01*
X97221992Y-55974293D01*
X97104367Y-56052887D01*
X97084531Y-56082574D01*
X96996740Y-56170365D01*
X96941161Y-56133228D01*
X96626308Y-56070600D01*
X96413692Y-56070600D01*
X96098839Y-56133228D01*
X95741796Y-56371796D01*
X95503228Y-56728839D01*
X95419454Y-57150000D01*
X88528001Y-57150000D01*
X88528001Y-54610000D01*
X95419454Y-54610000D01*
X95503228Y-55031161D01*
X95741796Y-55388204D01*
X96098839Y-55626772D01*
X96413692Y-55689400D01*
X96626308Y-55689400D01*
X96941161Y-55626772D01*
X97298204Y-55388204D01*
X97536772Y-55031161D01*
X97596800Y-54729380D01*
X99201014Y-54729380D01*
X99124259Y-54806135D01*
X99029520Y-55034857D01*
X99029520Y-55282423D01*
X99124259Y-55511145D01*
X99299315Y-55686201D01*
X99528037Y-55780940D01*
X99775603Y-55780940D01*
X100004325Y-55686201D01*
X100176286Y-55514240D01*
X111170423Y-55514240D01*
X111338839Y-55626772D01*
X111653692Y-55689400D01*
X111866308Y-55689400D01*
X112181161Y-55626772D01*
X112538204Y-55388204D01*
X112776772Y-55031161D01*
X112835284Y-54737000D01*
X118914454Y-54737000D01*
X118998228Y-55158161D01*
X119236796Y-55515204D01*
X119593839Y-55753772D01*
X119908692Y-55816400D01*
X120121308Y-55816400D01*
X120436161Y-55753772D01*
X120793204Y-55515204D01*
X121031772Y-55158161D01*
X121115546Y-54737000D01*
X122724454Y-54737000D01*
X122808228Y-55158161D01*
X123046796Y-55515204D01*
X123403839Y-55753772D01*
X123718692Y-55816400D01*
X123931308Y-55816400D01*
X124246161Y-55753772D01*
X124603204Y-55515204D01*
X124841772Y-55158161D01*
X124925546Y-54737000D01*
X124841772Y-54315839D01*
X124603204Y-53958796D01*
X124246161Y-53720228D01*
X123931308Y-53657600D01*
X123718692Y-53657600D01*
X123403839Y-53720228D01*
X123046796Y-53958796D01*
X122808228Y-54315839D01*
X122724454Y-54737000D01*
X121115546Y-54737000D01*
X121031772Y-54315839D01*
X120793204Y-53958796D01*
X120436161Y-53720228D01*
X120121308Y-53657600D01*
X119908692Y-53657600D01*
X119593839Y-53720228D01*
X119236796Y-53958796D01*
X118998228Y-54315839D01*
X118914454Y-54737000D01*
X112835284Y-54737000D01*
X112860546Y-54610000D01*
X112776772Y-54188839D01*
X112538204Y-53831796D01*
X112181161Y-53593228D01*
X111866308Y-53530600D01*
X111653692Y-53530600D01*
X111338839Y-53593228D01*
X110981796Y-53831796D01*
X110743228Y-54188839D01*
X110659454Y-54610000D01*
X110697852Y-54803040D01*
X100409966Y-54803040D01*
X100491801Y-54721205D01*
X100586540Y-54492483D01*
X100586540Y-54244917D01*
X100491801Y-54016195D01*
X100316745Y-53841139D01*
X100088023Y-53746400D01*
X99840457Y-53746400D01*
X99611735Y-53841139D01*
X99436679Y-54016195D01*
X99435857Y-54018180D01*
X97422742Y-54018180D01*
X97298204Y-53831796D01*
X96941161Y-53593228D01*
X96626308Y-53530600D01*
X96413692Y-53530600D01*
X96098839Y-53593228D01*
X95741796Y-53831796D01*
X95503228Y-54188839D01*
X95419454Y-54610000D01*
X88528001Y-54610000D01*
X88528001Y-48715419D01*
X89851863Y-47391557D01*
X89955294Y-47434400D01*
X90384706Y-47434400D01*
X90781431Y-47270071D01*
X91061502Y-46990000D01*
X95419454Y-46990000D01*
X95503228Y-47411161D01*
X95741796Y-47768204D01*
X96098839Y-48006772D01*
X96413692Y-48069400D01*
X96626308Y-48069400D01*
X96941161Y-48006772D01*
X97298204Y-47768204D01*
X97536772Y-47411161D01*
X97620546Y-46990000D01*
X97536772Y-46568839D01*
X97512692Y-46532800D01*
X100280514Y-46532800D01*
X100178359Y-46634955D01*
X100083620Y-46863677D01*
X100083620Y-47111243D01*
X100178359Y-47339965D01*
X100353415Y-47515021D01*
X100582137Y-47609760D01*
X100829703Y-47609760D01*
X101058425Y-47515021D01*
X101230266Y-47343180D01*
X109221540Y-47345016D01*
X109176830Y-47452957D01*
X109176830Y-47700523D01*
X109271569Y-47929245D01*
X109446625Y-48104301D01*
X109664501Y-48194547D01*
X109664500Y-48969974D01*
X109644939Y-48989535D01*
X109550200Y-49218257D01*
X109550200Y-49465823D01*
X109644939Y-49694545D01*
X109708994Y-49758600D01*
X101027186Y-49758600D01*
X101116641Y-49669145D01*
X101211380Y-49440423D01*
X101211380Y-49192857D01*
X101116641Y-48964135D01*
X100941585Y-48789079D01*
X100712863Y-48694340D01*
X100465297Y-48694340D01*
X100236575Y-48789079D01*
X100061519Y-48964135D01*
X100059645Y-48968660D01*
X97443108Y-48968660D01*
X97298204Y-48751796D01*
X96941161Y-48513228D01*
X96626308Y-48450600D01*
X96413692Y-48450600D01*
X96098839Y-48513228D01*
X95741796Y-48751796D01*
X95503228Y-49108839D01*
X95419454Y-49530000D01*
X95503228Y-49951161D01*
X95741796Y-50308204D01*
X96098839Y-50546772D01*
X96413692Y-50609400D01*
X96626308Y-50609400D01*
X96941161Y-50546772D01*
X97298204Y-50308204D01*
X97536772Y-49951161D01*
X97590737Y-49679860D01*
X99818234Y-49679860D01*
X99736399Y-49761695D01*
X99641660Y-49990417D01*
X99641660Y-50237983D01*
X99736399Y-50466705D01*
X99911455Y-50641761D01*
X100140177Y-50736500D01*
X100387743Y-50736500D01*
X100616465Y-50641761D01*
X100788426Y-50469800D01*
X111140780Y-50469800D01*
X111175800Y-50476766D01*
X111210820Y-50469800D01*
X111220701Y-50467835D01*
X111338839Y-50546772D01*
X111653692Y-50609400D01*
X111866308Y-50609400D01*
X112181161Y-50546772D01*
X112538204Y-50308204D01*
X112694721Y-50073960D01*
X112694721Y-50783533D01*
X112604039Y-50874215D01*
X112509300Y-51102937D01*
X112509300Y-51272483D01*
X112181161Y-51053228D01*
X111866308Y-50990600D01*
X111653692Y-50990600D01*
X111338839Y-51053228D01*
X110981796Y-51291796D01*
X110743228Y-51648839D01*
X110659454Y-52070000D01*
X110701894Y-52283360D01*
X100712226Y-52283360D01*
X100809301Y-52186285D01*
X100904040Y-51957563D01*
X100904040Y-51709997D01*
X100809301Y-51481275D01*
X100634245Y-51306219D01*
X100405523Y-51211480D01*
X100157957Y-51211480D01*
X99929235Y-51306219D01*
X99754179Y-51481275D01*
X99749148Y-51493420D01*
X97432925Y-51493420D01*
X97298204Y-51291796D01*
X96941161Y-51053228D01*
X96626308Y-50990600D01*
X96413692Y-50990600D01*
X96098839Y-51053228D01*
X95741796Y-51291796D01*
X95503228Y-51648839D01*
X95419454Y-52070000D01*
X95503228Y-52491161D01*
X95741796Y-52848204D01*
X96098839Y-53086772D01*
X96413692Y-53149400D01*
X96626308Y-53149400D01*
X96941161Y-53086772D01*
X97298204Y-52848204D01*
X97536772Y-52491161D01*
X97593768Y-52204620D01*
X99521054Y-52204620D01*
X99436679Y-52288995D01*
X99341940Y-52517717D01*
X99341940Y-52765283D01*
X99436679Y-52994005D01*
X99611735Y-53169061D01*
X99840457Y-53263800D01*
X100088023Y-53263800D01*
X100316745Y-53169061D01*
X100491246Y-52994560D01*
X111156020Y-52994560D01*
X111191040Y-53001526D01*
X111206621Y-52998427D01*
X111338839Y-53086772D01*
X111653692Y-53149400D01*
X111866308Y-53149400D01*
X112181161Y-53086772D01*
X112538204Y-52848204D01*
X112712379Y-52587532D01*
X118661073Y-52587532D01*
X118759736Y-52854387D01*
X119369461Y-53080908D01*
X120019460Y-53056856D01*
X120508264Y-52854387D01*
X120606927Y-52587532D01*
X119634000Y-51614605D01*
X118661073Y-52587532D01*
X112712379Y-52587532D01*
X112776772Y-52491161D01*
X112860546Y-52070000D01*
X112799420Y-51762700D01*
X113007817Y-51849020D01*
X113255383Y-51849020D01*
X113484105Y-51754281D01*
X113659161Y-51579225D01*
X113753900Y-51350503D01*
X113753900Y-51170461D01*
X117988092Y-51170461D01*
X118012144Y-51820460D01*
X118214613Y-52309264D01*
X118481468Y-52407927D01*
X119454395Y-51435000D01*
X119813605Y-51435000D01*
X120786532Y-52407927D01*
X121053387Y-52309264D01*
X121279908Y-51699539D01*
X121260703Y-51180512D01*
X122854600Y-51180512D01*
X122854600Y-51689488D01*
X123049377Y-52159722D01*
X123409278Y-52519623D01*
X123879512Y-52714400D01*
X124388488Y-52714400D01*
X124858722Y-52519623D01*
X125218623Y-52159722D01*
X125413400Y-51689488D01*
X125413400Y-51180512D01*
X125218623Y-50710278D01*
X124858722Y-50350377D01*
X124388488Y-50155600D01*
X123879512Y-50155600D01*
X123409278Y-50350377D01*
X123049377Y-50710278D01*
X122854600Y-51180512D01*
X121260703Y-51180512D01*
X121255856Y-51049540D01*
X121053387Y-50560736D01*
X120786532Y-50462073D01*
X119813605Y-51435000D01*
X119454395Y-51435000D01*
X118481468Y-50462073D01*
X118214613Y-50560736D01*
X117988092Y-51170461D01*
X113753900Y-51170461D01*
X113753900Y-51102937D01*
X113710720Y-50998690D01*
X113710720Y-50282468D01*
X118661073Y-50282468D01*
X119634000Y-51255395D01*
X120606927Y-50282468D01*
X120508264Y-50015613D01*
X119898539Y-49789092D01*
X119248540Y-49813144D01*
X118759736Y-50015613D01*
X118661073Y-50282468D01*
X113710720Y-50282468D01*
X113710720Y-49310246D01*
X113730281Y-49290685D01*
X113825020Y-49061963D01*
X113825020Y-48814397D01*
X113730281Y-48585675D01*
X113555225Y-48410619D01*
X113326503Y-48315880D01*
X113298841Y-48315880D01*
X113008127Y-48025167D01*
X112979786Y-47982752D01*
X112811751Y-47870474D01*
X112663571Y-47840999D01*
X112663567Y-47840999D01*
X112613539Y-47831048D01*
X112563511Y-47840999D01*
X112429258Y-47840999D01*
X112538204Y-47768204D01*
X112776772Y-47411161D01*
X112860546Y-46990000D01*
X112776772Y-46568839D01*
X112601643Y-46306740D01*
X112663563Y-46306740D01*
X112892285Y-46212001D01*
X113016754Y-46087532D01*
X118661073Y-46087532D01*
X118759736Y-46354387D01*
X119369461Y-46580908D01*
X120019460Y-46556856D01*
X120508264Y-46354387D01*
X120606927Y-46087532D01*
X119634000Y-45114605D01*
X118661073Y-46087532D01*
X113016754Y-46087532D01*
X113067341Y-46036945D01*
X113162080Y-45808223D01*
X113162080Y-45560657D01*
X113067341Y-45331935D01*
X112892285Y-45156879D01*
X112663563Y-45062140D01*
X112649164Y-45062140D01*
X112776772Y-44871161D01*
X112816693Y-44670461D01*
X117988092Y-44670461D01*
X118012144Y-45320460D01*
X118214613Y-45809264D01*
X118481468Y-45907927D01*
X119454395Y-44935000D01*
X119813605Y-44935000D01*
X120786532Y-45907927D01*
X121053387Y-45809264D01*
X121279908Y-45199539D01*
X121260703Y-44680512D01*
X122854600Y-44680512D01*
X122854600Y-45189488D01*
X123049377Y-45659722D01*
X123409278Y-46019623D01*
X123879512Y-46214400D01*
X124388488Y-46214400D01*
X124858722Y-46019623D01*
X125218623Y-45659722D01*
X125413400Y-45189488D01*
X125413400Y-44680512D01*
X125218623Y-44210278D01*
X124858722Y-43850377D01*
X124388488Y-43655600D01*
X123879512Y-43655600D01*
X123409278Y-43850377D01*
X123049377Y-44210278D01*
X122854600Y-44680512D01*
X121260703Y-44680512D01*
X121255856Y-44549540D01*
X121053387Y-44060736D01*
X120786532Y-43962073D01*
X119813605Y-44935000D01*
X119454395Y-44935000D01*
X118481468Y-43962073D01*
X118214613Y-44060736D01*
X117988092Y-44670461D01*
X112816693Y-44670461D01*
X112860546Y-44450000D01*
X112776772Y-44028839D01*
X112612153Y-43782468D01*
X118661073Y-43782468D01*
X119634000Y-44755395D01*
X120606927Y-43782468D01*
X120508264Y-43515613D01*
X119898539Y-43289092D01*
X119248540Y-43313144D01*
X118759736Y-43515613D01*
X118661073Y-43782468D01*
X112612153Y-43782468D01*
X112538204Y-43671796D01*
X112181161Y-43433228D01*
X111866308Y-43370600D01*
X111653692Y-43370600D01*
X111338839Y-43433228D01*
X110981796Y-43671796D01*
X110743228Y-44028839D01*
X110722609Y-44132500D01*
X101449512Y-44132500D01*
X101439221Y-44107655D01*
X101264165Y-43932599D01*
X101035443Y-43837860D01*
X100787877Y-43837860D01*
X100559155Y-43932599D01*
X100384099Y-44107655D01*
X100289360Y-44336377D01*
X100289360Y-44583943D01*
X100384099Y-44812665D01*
X100451964Y-44880530D01*
X100361239Y-44971255D01*
X100360417Y-44973240D01*
X97604873Y-44973240D01*
X97604873Y-43650000D01*
X97583188Y-43540984D01*
X97521436Y-43448564D01*
X97429016Y-43386812D01*
X97320000Y-43365127D01*
X95720000Y-43365127D01*
X95610984Y-43386812D01*
X95518564Y-43448564D01*
X95456812Y-43540984D01*
X95435127Y-43650000D01*
X95435127Y-45250000D01*
X95456812Y-45359016D01*
X95518564Y-45451436D01*
X95610984Y-45513188D01*
X95720000Y-45534873D01*
X97101979Y-45534873D01*
X97122629Y-45555523D01*
X97142467Y-45585213D01*
X97260092Y-45663807D01*
X97363820Y-45684440D01*
X97363824Y-45684440D01*
X97398839Y-45691405D01*
X97433854Y-45684440D01*
X100369414Y-45684440D01*
X100506574Y-45821600D01*
X97367820Y-45821600D01*
X97332800Y-45814634D01*
X97220113Y-45837049D01*
X97194052Y-45842233D01*
X97076427Y-45920827D01*
X97056591Y-45950514D01*
X96996740Y-46010365D01*
X96941161Y-45973228D01*
X96626308Y-45910600D01*
X96413692Y-45910600D01*
X96098839Y-45973228D01*
X95741796Y-46211796D01*
X95503228Y-46568839D01*
X95419454Y-46990000D01*
X91061502Y-46990000D01*
X91085071Y-46966431D01*
X91249400Y-46569706D01*
X91249400Y-46140294D01*
X91085071Y-45743569D01*
X90781431Y-45439929D01*
X90384706Y-45275600D01*
X89955294Y-45275600D01*
X89558569Y-45439929D01*
X89254929Y-45743569D01*
X89212086Y-45847000D01*
X83634873Y-45847000D01*
X83634873Y-45555000D01*
X83613188Y-45445984D01*
X83551436Y-45353564D01*
X83459016Y-45291812D01*
X83350000Y-45270127D01*
X81750000Y-45270127D01*
X81640984Y-45291812D01*
X81548564Y-45353564D01*
X81486812Y-45445984D01*
X81465127Y-45555000D01*
X77949400Y-45555000D01*
X77949400Y-38842950D01*
X78540240Y-38842950D01*
X78540240Y-39533509D01*
X78636913Y-39766898D01*
X78815541Y-39945527D01*
X79048930Y-40042200D01*
X79739490Y-40042200D01*
X79898240Y-39883450D01*
X79898240Y-38684200D01*
X78698990Y-38684200D01*
X78540240Y-38842950D01*
X77949400Y-38842950D01*
X77949400Y-37580891D01*
X78540240Y-37580891D01*
X78540240Y-38271450D01*
X78698990Y-38430200D01*
X79898240Y-38430200D01*
X79898240Y-38410200D01*
X80152240Y-38410200D01*
X80152240Y-38430200D01*
X80172240Y-38430200D01*
X80172240Y-38684200D01*
X80152240Y-38684200D01*
X80152240Y-39883450D01*
X80310990Y-40042200D01*
X81001550Y-40042200D01*
X81234939Y-39945527D01*
X81413567Y-39766898D01*
X81510240Y-39533509D01*
X81510240Y-39011146D01*
X81750988Y-39371452D01*
X82124570Y-39621071D01*
X82454005Y-39686600D01*
X82676475Y-39686600D01*
X83005910Y-39621071D01*
X83379492Y-39371452D01*
X83629111Y-38997870D01*
X83716766Y-38557200D01*
X83953714Y-38557200D01*
X84041369Y-38997870D01*
X84290988Y-39371452D01*
X84664570Y-39621071D01*
X84994005Y-39686600D01*
X85216475Y-39686600D01*
X85545910Y-39621071D01*
X85919492Y-39371452D01*
X86169111Y-38997870D01*
X86256766Y-38557200D01*
X86493714Y-38557200D01*
X86581369Y-38997870D01*
X86830988Y-39371452D01*
X87204570Y-39621071D01*
X87534005Y-39686600D01*
X87756475Y-39686600D01*
X88085910Y-39621071D01*
X88459492Y-39371452D01*
X88709111Y-38997870D01*
X88796766Y-38557200D01*
X89033714Y-38557200D01*
X89121369Y-38997870D01*
X89370988Y-39371452D01*
X89744570Y-39621071D01*
X90074005Y-39686600D01*
X90296475Y-39686600D01*
X90625910Y-39621071D01*
X90999492Y-39371452D01*
X91249111Y-38997870D01*
X91336766Y-38557200D01*
X91573714Y-38557200D01*
X91661369Y-38997870D01*
X91910988Y-39371452D01*
X92284570Y-39621071D01*
X92614005Y-39686600D01*
X92836475Y-39686600D01*
X93165910Y-39621071D01*
X93539492Y-39371452D01*
X93789111Y-38997870D01*
X93876766Y-38557200D01*
X94113714Y-38557200D01*
X94201369Y-38997870D01*
X94450988Y-39371452D01*
X94824570Y-39621071D01*
X95154005Y-39686600D01*
X95376475Y-39686600D01*
X95705910Y-39621071D01*
X96079492Y-39371452D01*
X96329111Y-38997870D01*
X96416766Y-38557200D01*
X96653714Y-38557200D01*
X96741369Y-38997870D01*
X96990988Y-39371452D01*
X97364570Y-39621071D01*
X97694005Y-39686600D01*
X97916475Y-39686600D01*
X98245910Y-39621071D01*
X98619492Y-39371452D01*
X98869111Y-38997870D01*
X98956766Y-38557200D01*
X99193714Y-38557200D01*
X99281369Y-38997870D01*
X99530988Y-39371452D01*
X99904570Y-39621071D01*
X100234005Y-39686600D01*
X100456475Y-39686600D01*
X100785910Y-39621071D01*
X101159492Y-39371452D01*
X101409111Y-38997870D01*
X101496766Y-38557200D01*
X101733714Y-38557200D01*
X101821369Y-38997870D01*
X102070988Y-39371452D01*
X102444570Y-39621071D01*
X102774005Y-39686600D01*
X102996475Y-39686600D01*
X103325910Y-39621071D01*
X103699492Y-39371452D01*
X103949111Y-38997870D01*
X104036766Y-38557200D01*
X104273714Y-38557200D01*
X104361369Y-38997870D01*
X104610988Y-39371452D01*
X104984570Y-39621071D01*
X105314005Y-39686600D01*
X105536475Y-39686600D01*
X105865910Y-39621071D01*
X106239492Y-39371452D01*
X106489111Y-38997870D01*
X106576766Y-38557200D01*
X106813714Y-38557200D01*
X106901369Y-38997870D01*
X107150988Y-39371452D01*
X107524570Y-39621071D01*
X107854005Y-39686600D01*
X108076475Y-39686600D01*
X108405910Y-39621071D01*
X108779492Y-39371452D01*
X109029111Y-38997870D01*
X109116766Y-38557200D01*
X109353714Y-38557200D01*
X109441369Y-38997870D01*
X109690988Y-39371452D01*
X110064570Y-39621071D01*
X110394005Y-39686600D01*
X110616475Y-39686600D01*
X110945910Y-39621071D01*
X111319492Y-39371452D01*
X111569111Y-38997870D01*
X111656766Y-38557200D01*
X111893714Y-38557200D01*
X111981369Y-38997870D01*
X112230988Y-39371452D01*
X112604570Y-39621071D01*
X112934005Y-39686600D01*
X113156475Y-39686600D01*
X113485910Y-39621071D01*
X113859492Y-39371452D01*
X114109111Y-38997870D01*
X114196766Y-38557200D01*
X114433714Y-38557200D01*
X114521369Y-38997870D01*
X114770988Y-39371452D01*
X115144570Y-39621071D01*
X115474005Y-39686600D01*
X115696475Y-39686600D01*
X116025910Y-39621071D01*
X116399492Y-39371452D01*
X116649111Y-38997870D01*
X116736766Y-38557200D01*
X116973714Y-38557200D01*
X117061369Y-38997870D01*
X117310988Y-39371452D01*
X117684570Y-39621071D01*
X118014005Y-39686600D01*
X118236475Y-39686600D01*
X118565910Y-39621071D01*
X118939492Y-39371452D01*
X119189111Y-38997870D01*
X119276766Y-38557200D01*
X119513714Y-38557200D01*
X119601369Y-38997870D01*
X119850988Y-39371452D01*
X120224570Y-39621071D01*
X120554005Y-39686600D01*
X120776475Y-39686600D01*
X121105910Y-39621071D01*
X121479492Y-39371452D01*
X121729111Y-38997870D01*
X121816766Y-38557200D01*
X122053714Y-38557200D01*
X122141369Y-38997870D01*
X122390988Y-39371452D01*
X122764570Y-39621071D01*
X123094005Y-39686600D01*
X123316475Y-39686600D01*
X123645910Y-39621071D01*
X124019492Y-39371452D01*
X124269111Y-38997870D01*
X124356766Y-38557200D01*
X124593714Y-38557200D01*
X124681369Y-38997870D01*
X124930988Y-39371452D01*
X125304570Y-39621071D01*
X125634005Y-39686600D01*
X125856475Y-39686600D01*
X126185910Y-39621071D01*
X126559492Y-39371452D01*
X126809111Y-38997870D01*
X126896766Y-38557200D01*
X127133714Y-38557200D01*
X127221369Y-38997870D01*
X127470988Y-39371452D01*
X127844570Y-39621071D01*
X128174005Y-39686600D01*
X128396475Y-39686600D01*
X128725910Y-39621071D01*
X129099492Y-39371452D01*
X129349111Y-38997870D01*
X129436766Y-38557200D01*
X129349111Y-38116530D01*
X129099492Y-37742948D01*
X128725910Y-37493329D01*
X128396475Y-37427800D01*
X128174005Y-37427800D01*
X127844570Y-37493329D01*
X127470988Y-37742948D01*
X127221369Y-38116530D01*
X127133714Y-38557200D01*
X126896766Y-38557200D01*
X126809111Y-38116530D01*
X126559492Y-37742948D01*
X126185910Y-37493329D01*
X125856475Y-37427800D01*
X125634005Y-37427800D01*
X125304570Y-37493329D01*
X124930988Y-37742948D01*
X124681369Y-38116530D01*
X124593714Y-38557200D01*
X124356766Y-38557200D01*
X124269111Y-38116530D01*
X124019492Y-37742948D01*
X123645910Y-37493329D01*
X123316475Y-37427800D01*
X123094005Y-37427800D01*
X122764570Y-37493329D01*
X122390988Y-37742948D01*
X122141369Y-38116530D01*
X122053714Y-38557200D01*
X121816766Y-38557200D01*
X121729111Y-38116530D01*
X121479492Y-37742948D01*
X121105910Y-37493329D01*
X120776475Y-37427800D01*
X120554005Y-37427800D01*
X120224570Y-37493329D01*
X119850988Y-37742948D01*
X119601369Y-38116530D01*
X119513714Y-38557200D01*
X119276766Y-38557200D01*
X119189111Y-38116530D01*
X118939492Y-37742948D01*
X118565910Y-37493329D01*
X118236475Y-37427800D01*
X118014005Y-37427800D01*
X117684570Y-37493329D01*
X117310988Y-37742948D01*
X117061369Y-38116530D01*
X116973714Y-38557200D01*
X116736766Y-38557200D01*
X116649111Y-38116530D01*
X116399492Y-37742948D01*
X116025910Y-37493329D01*
X115696475Y-37427800D01*
X115474005Y-37427800D01*
X115144570Y-37493329D01*
X114770988Y-37742948D01*
X114521369Y-38116530D01*
X114433714Y-38557200D01*
X114196766Y-38557200D01*
X114109111Y-38116530D01*
X113859492Y-37742948D01*
X113485910Y-37493329D01*
X113156475Y-37427800D01*
X112934005Y-37427800D01*
X112604570Y-37493329D01*
X112230988Y-37742948D01*
X111981369Y-38116530D01*
X111893714Y-38557200D01*
X111656766Y-38557200D01*
X111569111Y-38116530D01*
X111319492Y-37742948D01*
X110945910Y-37493329D01*
X110616475Y-37427800D01*
X110394005Y-37427800D01*
X110064570Y-37493329D01*
X109690988Y-37742948D01*
X109441369Y-38116530D01*
X109353714Y-38557200D01*
X109116766Y-38557200D01*
X109029111Y-38116530D01*
X108779492Y-37742948D01*
X108405910Y-37493329D01*
X108076475Y-37427800D01*
X107854005Y-37427800D01*
X107524570Y-37493329D01*
X107150988Y-37742948D01*
X106901369Y-38116530D01*
X106813714Y-38557200D01*
X106576766Y-38557200D01*
X106489111Y-38116530D01*
X106239492Y-37742948D01*
X105865910Y-37493329D01*
X105536475Y-37427800D01*
X105314005Y-37427800D01*
X104984570Y-37493329D01*
X104610988Y-37742948D01*
X104361369Y-38116530D01*
X104273714Y-38557200D01*
X104036766Y-38557200D01*
X103949111Y-38116530D01*
X103699492Y-37742948D01*
X103325910Y-37493329D01*
X102996475Y-37427800D01*
X102774005Y-37427800D01*
X102444570Y-37493329D01*
X102070988Y-37742948D01*
X101821369Y-38116530D01*
X101733714Y-38557200D01*
X101496766Y-38557200D01*
X101409111Y-38116530D01*
X101159492Y-37742948D01*
X100785910Y-37493329D01*
X100456475Y-37427800D01*
X100234005Y-37427800D01*
X99904570Y-37493329D01*
X99530988Y-37742948D01*
X99281369Y-38116530D01*
X99193714Y-38557200D01*
X98956766Y-38557200D01*
X98869111Y-38116530D01*
X98619492Y-37742948D01*
X98245910Y-37493329D01*
X97916475Y-37427800D01*
X97694005Y-37427800D01*
X97364570Y-37493329D01*
X96990988Y-37742948D01*
X96741369Y-38116530D01*
X96653714Y-38557200D01*
X96416766Y-38557200D01*
X96329111Y-38116530D01*
X96079492Y-37742948D01*
X95705910Y-37493329D01*
X95376475Y-37427800D01*
X95154005Y-37427800D01*
X94824570Y-37493329D01*
X94450988Y-37742948D01*
X94201369Y-38116530D01*
X94113714Y-38557200D01*
X93876766Y-38557200D01*
X93789111Y-38116530D01*
X93539492Y-37742948D01*
X93165910Y-37493329D01*
X92836475Y-37427800D01*
X92614005Y-37427800D01*
X92284570Y-37493329D01*
X91910988Y-37742948D01*
X91661369Y-38116530D01*
X91573714Y-38557200D01*
X91336766Y-38557200D01*
X91249111Y-38116530D01*
X90999492Y-37742948D01*
X90625910Y-37493329D01*
X90296475Y-37427800D01*
X90074005Y-37427800D01*
X89744570Y-37493329D01*
X89370988Y-37742948D01*
X89121369Y-38116530D01*
X89033714Y-38557200D01*
X88796766Y-38557200D01*
X88709111Y-38116530D01*
X88459492Y-37742948D01*
X88085910Y-37493329D01*
X87756475Y-37427800D01*
X87534005Y-37427800D01*
X87204570Y-37493329D01*
X86830988Y-37742948D01*
X86581369Y-38116530D01*
X86493714Y-38557200D01*
X86256766Y-38557200D01*
X86169111Y-38116530D01*
X85919492Y-37742948D01*
X85545910Y-37493329D01*
X85216475Y-37427800D01*
X84994005Y-37427800D01*
X84664570Y-37493329D01*
X84290988Y-37742948D01*
X84041369Y-38116530D01*
X83953714Y-38557200D01*
X83716766Y-38557200D01*
X83629111Y-38116530D01*
X83379492Y-37742948D01*
X83005910Y-37493329D01*
X82676475Y-37427800D01*
X82454005Y-37427800D01*
X82124570Y-37493329D01*
X81750988Y-37742948D01*
X81510240Y-38103254D01*
X81510240Y-37580891D01*
X81413567Y-37347502D01*
X81234939Y-37168873D01*
X81001550Y-37072200D01*
X80479186Y-37072200D01*
X80839492Y-36831452D01*
X81089111Y-36457870D01*
X81176766Y-36017200D01*
X81413714Y-36017200D01*
X81501369Y-36457870D01*
X81750988Y-36831452D01*
X82124570Y-37081071D01*
X82454005Y-37146600D01*
X82676475Y-37146600D01*
X83005910Y-37081071D01*
X83379492Y-36831452D01*
X83629111Y-36457870D01*
X83716766Y-36017200D01*
X83953714Y-36017200D01*
X84041369Y-36457870D01*
X84290988Y-36831452D01*
X84664570Y-37081071D01*
X84994005Y-37146600D01*
X85216475Y-37146600D01*
X85545910Y-37081071D01*
X85919492Y-36831452D01*
X86169111Y-36457870D01*
X86256766Y-36017200D01*
X86493714Y-36017200D01*
X86581369Y-36457870D01*
X86830988Y-36831452D01*
X87204570Y-37081071D01*
X87534005Y-37146600D01*
X87756475Y-37146600D01*
X88085910Y-37081071D01*
X88459492Y-36831452D01*
X88709111Y-36457870D01*
X88796766Y-36017200D01*
X89033714Y-36017200D01*
X89121369Y-36457870D01*
X89370988Y-36831452D01*
X89744570Y-37081071D01*
X90074005Y-37146600D01*
X90296475Y-37146600D01*
X90625910Y-37081071D01*
X90999492Y-36831452D01*
X91249111Y-36457870D01*
X91336766Y-36017200D01*
X91573714Y-36017200D01*
X91661369Y-36457870D01*
X91910988Y-36831452D01*
X92284570Y-37081071D01*
X92614005Y-37146600D01*
X92836475Y-37146600D01*
X93165910Y-37081071D01*
X93539492Y-36831452D01*
X93789111Y-36457870D01*
X93876766Y-36017200D01*
X94113714Y-36017200D01*
X94201369Y-36457870D01*
X94450988Y-36831452D01*
X94824570Y-37081071D01*
X95154005Y-37146600D01*
X95376475Y-37146600D01*
X95705910Y-37081071D01*
X96079492Y-36831452D01*
X96329111Y-36457870D01*
X96416766Y-36017200D01*
X96653714Y-36017200D01*
X96741369Y-36457870D01*
X96990988Y-36831452D01*
X97364570Y-37081071D01*
X97694005Y-37146600D01*
X97916475Y-37146600D01*
X98245910Y-37081071D01*
X98619492Y-36831452D01*
X98869111Y-36457870D01*
X98956766Y-36017200D01*
X99193714Y-36017200D01*
X99281369Y-36457870D01*
X99530988Y-36831452D01*
X99904570Y-37081071D01*
X100234005Y-37146600D01*
X100456475Y-37146600D01*
X100785910Y-37081071D01*
X101159492Y-36831452D01*
X101409111Y-36457870D01*
X101496766Y-36017200D01*
X101733714Y-36017200D01*
X101821369Y-36457870D01*
X102070988Y-36831452D01*
X102444570Y-37081071D01*
X102774005Y-37146600D01*
X102996475Y-37146600D01*
X103325910Y-37081071D01*
X103699492Y-36831452D01*
X103949111Y-36457870D01*
X104036766Y-36017200D01*
X104273714Y-36017200D01*
X104361369Y-36457870D01*
X104610988Y-36831452D01*
X104984570Y-37081071D01*
X105314005Y-37146600D01*
X105536475Y-37146600D01*
X105865910Y-37081071D01*
X106239492Y-36831452D01*
X106489111Y-36457870D01*
X106576766Y-36017200D01*
X106813714Y-36017200D01*
X106901369Y-36457870D01*
X107150988Y-36831452D01*
X107524570Y-37081071D01*
X107854005Y-37146600D01*
X108076475Y-37146600D01*
X108405910Y-37081071D01*
X108779492Y-36831452D01*
X109029111Y-36457870D01*
X109116766Y-36017200D01*
X109353714Y-36017200D01*
X109441369Y-36457870D01*
X109690988Y-36831452D01*
X110064570Y-37081071D01*
X110394005Y-37146600D01*
X110616475Y-37146600D01*
X110945910Y-37081071D01*
X111319492Y-36831452D01*
X111569111Y-36457870D01*
X111656766Y-36017200D01*
X111893714Y-36017200D01*
X111981369Y-36457870D01*
X112230988Y-36831452D01*
X112604570Y-37081071D01*
X112934005Y-37146600D01*
X113156475Y-37146600D01*
X113485910Y-37081071D01*
X113859492Y-36831452D01*
X114109111Y-36457870D01*
X114196766Y-36017200D01*
X114433714Y-36017200D01*
X114521369Y-36457870D01*
X114770988Y-36831452D01*
X115144570Y-37081071D01*
X115474005Y-37146600D01*
X115696475Y-37146600D01*
X116025910Y-37081071D01*
X116399492Y-36831452D01*
X116649111Y-36457870D01*
X116736766Y-36017200D01*
X116973714Y-36017200D01*
X117061369Y-36457870D01*
X117310988Y-36831452D01*
X117684570Y-37081071D01*
X118014005Y-37146600D01*
X118236475Y-37146600D01*
X118565910Y-37081071D01*
X118939492Y-36831452D01*
X119189111Y-36457870D01*
X119276766Y-36017200D01*
X119513714Y-36017200D01*
X119601369Y-36457870D01*
X119850988Y-36831452D01*
X120224570Y-37081071D01*
X120554005Y-37146600D01*
X120776475Y-37146600D01*
X121105910Y-37081071D01*
X121479492Y-36831452D01*
X121729111Y-36457870D01*
X121816766Y-36017200D01*
X122053714Y-36017200D01*
X122141369Y-36457870D01*
X122390988Y-36831452D01*
X122764570Y-37081071D01*
X123094005Y-37146600D01*
X123316475Y-37146600D01*
X123645910Y-37081071D01*
X124019492Y-36831452D01*
X124269111Y-36457870D01*
X124356766Y-36017200D01*
X124593714Y-36017200D01*
X124681369Y-36457870D01*
X124930988Y-36831452D01*
X125304570Y-37081071D01*
X125634005Y-37146600D01*
X125856475Y-37146600D01*
X126185910Y-37081071D01*
X126559492Y-36831452D01*
X126809111Y-36457870D01*
X126896766Y-36017200D01*
X127133714Y-36017200D01*
X127221369Y-36457870D01*
X127470988Y-36831452D01*
X127844570Y-37081071D01*
X128174005Y-37146600D01*
X128396475Y-37146600D01*
X128725910Y-37081071D01*
X129099492Y-36831452D01*
X129349111Y-36457870D01*
X129436766Y-36017200D01*
X129349111Y-35576530D01*
X129099492Y-35202948D01*
X128725910Y-34953329D01*
X128396475Y-34887800D01*
X128174005Y-34887800D01*
X127844570Y-34953329D01*
X127470988Y-35202948D01*
X127221369Y-35576530D01*
X127133714Y-36017200D01*
X126896766Y-36017200D01*
X126809111Y-35576530D01*
X126559492Y-35202948D01*
X126185910Y-34953329D01*
X125856475Y-34887800D01*
X125634005Y-34887800D01*
X125304570Y-34953329D01*
X124930988Y-35202948D01*
X124681369Y-35576530D01*
X124593714Y-36017200D01*
X124356766Y-36017200D01*
X124269111Y-35576530D01*
X124019492Y-35202948D01*
X123645910Y-34953329D01*
X123316475Y-34887800D01*
X123094005Y-34887800D01*
X122764570Y-34953329D01*
X122390988Y-35202948D01*
X122141369Y-35576530D01*
X122053714Y-36017200D01*
X121816766Y-36017200D01*
X121729111Y-35576530D01*
X121479492Y-35202948D01*
X121105910Y-34953329D01*
X120776475Y-34887800D01*
X120554005Y-34887800D01*
X120224570Y-34953329D01*
X119850988Y-35202948D01*
X119601369Y-35576530D01*
X119513714Y-36017200D01*
X119276766Y-36017200D01*
X119189111Y-35576530D01*
X118939492Y-35202948D01*
X118565910Y-34953329D01*
X118236475Y-34887800D01*
X118014005Y-34887800D01*
X117684570Y-34953329D01*
X117310988Y-35202948D01*
X117061369Y-35576530D01*
X116973714Y-36017200D01*
X116736766Y-36017200D01*
X116649111Y-35576530D01*
X116399492Y-35202948D01*
X116025910Y-34953329D01*
X115696475Y-34887800D01*
X115474005Y-34887800D01*
X115144570Y-34953329D01*
X114770988Y-35202948D01*
X114521369Y-35576530D01*
X114433714Y-36017200D01*
X114196766Y-36017200D01*
X114109111Y-35576530D01*
X113859492Y-35202948D01*
X113485910Y-34953329D01*
X113156475Y-34887800D01*
X112934005Y-34887800D01*
X112604570Y-34953329D01*
X112230988Y-35202948D01*
X111981369Y-35576530D01*
X111893714Y-36017200D01*
X111656766Y-36017200D01*
X111569111Y-35576530D01*
X111319492Y-35202948D01*
X110945910Y-34953329D01*
X110616475Y-34887800D01*
X110394005Y-34887800D01*
X110064570Y-34953329D01*
X109690988Y-35202948D01*
X109441369Y-35576530D01*
X109353714Y-36017200D01*
X109116766Y-36017200D01*
X109029111Y-35576530D01*
X108779492Y-35202948D01*
X108405910Y-34953329D01*
X108076475Y-34887800D01*
X107854005Y-34887800D01*
X107524570Y-34953329D01*
X107150988Y-35202948D01*
X106901369Y-35576530D01*
X106813714Y-36017200D01*
X106576766Y-36017200D01*
X106489111Y-35576530D01*
X106239492Y-35202948D01*
X105865910Y-34953329D01*
X105536475Y-34887800D01*
X105314005Y-34887800D01*
X104984570Y-34953329D01*
X104610988Y-35202948D01*
X104361369Y-35576530D01*
X104273714Y-36017200D01*
X104036766Y-36017200D01*
X103949111Y-35576530D01*
X103699492Y-35202948D01*
X103325910Y-34953329D01*
X102996475Y-34887800D01*
X102774005Y-34887800D01*
X102444570Y-34953329D01*
X102070988Y-35202948D01*
X101821369Y-35576530D01*
X101733714Y-36017200D01*
X101496766Y-36017200D01*
X101409111Y-35576530D01*
X101159492Y-35202948D01*
X100785910Y-34953329D01*
X100456475Y-34887800D01*
X100234005Y-34887800D01*
X99904570Y-34953329D01*
X99530988Y-35202948D01*
X99281369Y-35576530D01*
X99193714Y-36017200D01*
X98956766Y-36017200D01*
X98869111Y-35576530D01*
X98619492Y-35202948D01*
X98245910Y-34953329D01*
X97916475Y-34887800D01*
X97694005Y-34887800D01*
X97364570Y-34953329D01*
X96990988Y-35202948D01*
X96741369Y-35576530D01*
X96653714Y-36017200D01*
X96416766Y-36017200D01*
X96329111Y-35576530D01*
X96079492Y-35202948D01*
X95705910Y-34953329D01*
X95376475Y-34887800D01*
X95154005Y-34887800D01*
X94824570Y-34953329D01*
X94450988Y-35202948D01*
X94201369Y-35576530D01*
X94113714Y-36017200D01*
X93876766Y-36017200D01*
X93789111Y-35576530D01*
X93539492Y-35202948D01*
X93165910Y-34953329D01*
X92836475Y-34887800D01*
X92614005Y-34887800D01*
X92284570Y-34953329D01*
X91910988Y-35202948D01*
X91661369Y-35576530D01*
X91573714Y-36017200D01*
X91336766Y-36017200D01*
X91249111Y-35576530D01*
X90999492Y-35202948D01*
X90625910Y-34953329D01*
X90296475Y-34887800D01*
X90074005Y-34887800D01*
X89744570Y-34953329D01*
X89370988Y-35202948D01*
X89121369Y-35576530D01*
X89033714Y-36017200D01*
X88796766Y-36017200D01*
X88709111Y-35576530D01*
X88459492Y-35202948D01*
X88085910Y-34953329D01*
X87756475Y-34887800D01*
X87534005Y-34887800D01*
X87204570Y-34953329D01*
X86830988Y-35202948D01*
X86581369Y-35576530D01*
X86493714Y-36017200D01*
X86256766Y-36017200D01*
X86169111Y-35576530D01*
X85919492Y-35202948D01*
X85545910Y-34953329D01*
X85216475Y-34887800D01*
X84994005Y-34887800D01*
X84664570Y-34953329D01*
X84290988Y-35202948D01*
X84041369Y-35576530D01*
X83953714Y-36017200D01*
X83716766Y-36017200D01*
X83629111Y-35576530D01*
X83379492Y-35202948D01*
X83005910Y-34953329D01*
X82676475Y-34887800D01*
X82454005Y-34887800D01*
X82124570Y-34953329D01*
X81750988Y-35202948D01*
X81501369Y-35576530D01*
X81413714Y-36017200D01*
X81176766Y-36017200D01*
X81089111Y-35576530D01*
X80839492Y-35202948D01*
X80465910Y-34953329D01*
X80136475Y-34887800D01*
X79914005Y-34887800D01*
X79584570Y-34953329D01*
X79210988Y-35202948D01*
X78961369Y-35576530D01*
X78873714Y-36017200D01*
X78961369Y-36457870D01*
X79210988Y-36831452D01*
X79571294Y-37072200D01*
X79048930Y-37072200D01*
X78815541Y-37168873D01*
X78636913Y-37347502D01*
X78540240Y-37580891D01*
X77949400Y-37580891D01*
X77949400Y-34311349D01*
X78023984Y-33475644D01*
X78239726Y-32687023D01*
X78591712Y-31949073D01*
X79068811Y-31285118D01*
X79655946Y-30716145D01*
X80334560Y-30260134D01*
X81083208Y-29931501D01*
X81881892Y-29739755D01*
X82567585Y-29689400D01*
X125708651Y-29689400D01*
X126544356Y-29763984D01*
G36*
X110743228Y-44871161D02*
X110981796Y-45228204D01*
X111338839Y-45466772D01*
X111653692Y-45529400D01*
X111866308Y-45529400D01*
X111936184Y-45515501D01*
X111917480Y-45560657D01*
X111917480Y-45808223D01*
X111968288Y-45930885D01*
X111866308Y-45910600D01*
X111653692Y-45910600D01*
X111338839Y-45973228D01*
X110981796Y-46211796D01*
X110743228Y-46568839D01*
X110730234Y-46634164D01*
X110651421Y-46634146D01*
X110738920Y-46422903D01*
X110738920Y-46175337D01*
X110644181Y-45946615D01*
X110469125Y-45771559D01*
X110240403Y-45676820D01*
X109992837Y-45676820D01*
X109764115Y-45771559D01*
X109589059Y-45946615D01*
X109494320Y-46175337D01*
X109494320Y-46422903D01*
X109581717Y-46633900D01*
X101727991Y-46632095D01*
X101830381Y-46529705D01*
X101925120Y-46300983D01*
X101925120Y-46053417D01*
X101830381Y-45824695D01*
X101655325Y-45649639D01*
X101460770Y-45569052D01*
X101511100Y-45447543D01*
X101511100Y-45199977D01*
X101416361Y-44971255D01*
X101348496Y-44903390D01*
X101408186Y-44843700D01*
X110737766Y-44843700D01*
X110743228Y-44871161D01*
X110743228Y-44871161D01*
G37*
X110743228Y-44871161D02*
X110981796Y-45228204D01*
X111338839Y-45466772D01*
X111653692Y-45529400D01*
X111866308Y-45529400D01*
X111936184Y-45515501D01*
X111917480Y-45560657D01*
X111917480Y-45808223D01*
X111968288Y-45930885D01*
X111866308Y-45910600D01*
X111653692Y-45910600D01*
X111338839Y-45973228D01*
X110981796Y-46211796D01*
X110743228Y-46568839D01*
X110730234Y-46634164D01*
X110651421Y-46634146D01*
X110738920Y-46422903D01*
X110738920Y-46175337D01*
X110644181Y-45946615D01*
X110469125Y-45771559D01*
X110240403Y-45676820D01*
X109992837Y-45676820D01*
X109764115Y-45771559D01*
X109589059Y-45946615D01*
X109494320Y-46175337D01*
X109494320Y-46422903D01*
X109581717Y-46633900D01*
X101727991Y-46632095D01*
X101830381Y-46529705D01*
X101925120Y-46300983D01*
X101925120Y-46053417D01*
X101830381Y-45824695D01*
X101655325Y-45649639D01*
X101460770Y-45569052D01*
X101511100Y-45447543D01*
X101511100Y-45199977D01*
X101416361Y-44971255D01*
X101348496Y-44903390D01*
X101408186Y-44843700D01*
X110737766Y-44843700D01*
X110743228Y-44871161D01*
M02*
