M48
;DRILL file {KiCad (5.0.0)} date 10/23/18 17:23:04
;FORMAT={-:-/ absolute / inch / decimal}
FMAT,2
INCH,TZ
T1C0.0130
T2C0.0315
T3C0.0394
T4C0.0433
T5C0.1260
%
G90
G05
M72
T1
X3.81Y-3.394
X3.8565Y-4.1498
X3.8569Y-4.2638
X3.8572Y-4.3502
X3.8572Y-4.4524
T2
X5.4781Y-3.91
X5.675Y-3.91
X5.075Y-3.41
X5.075Y-3.71
X5.675Y-3.41
X5.675Y-3.71
X3.81Y-3.33
X3.81Y-3.63
X6.4281Y-3.91
X6.625Y-3.91
X6.0281Y-3.91
X6.225Y-3.91
X8.025Y-3.38
X8.1234Y-3.38
X7.98Y-4.02
X8.1769Y-4.02
X4.125Y-3.41
X4.125Y-3.71
X4.725Y-3.41
X4.725Y-3.71
X4.125Y-4.11
X4.125Y-4.41
X4.725Y-4.11
X4.725Y-4.41
X6.025Y-3.41
X6.025Y-3.71
X6.625Y-3.41
X6.625Y-3.71
X7.93Y-4.18
X7.93Y-4.28
X7.93Y-4.38
X7.93Y-4.48
X7.93Y-4.58
X7.93Y-4.68
X7.93Y-4.78
X8.23Y-4.18
X8.23Y-4.28
X8.23Y-4.38
X8.23Y-4.48
X8.23Y-4.58
X8.23Y-4.68
X8.23Y-4.78
X7.3781Y-3.91
X7.575Y-3.91
X4.225Y-4.874
X4.225Y-5.0709
X4.05Y-4.821
X4.05Y-5.121
X6.975Y-4.11
X6.975Y-4.41
X7.575Y-4.11
X7.575Y-4.41
X6.9781Y-3.91
X7.175Y-3.91
X5.0781Y-3.91
X5.275Y-3.91
X4.1281Y-3.91
X4.325Y-3.91
X8.015Y-3.591
X8.015Y-3.891
X6.025Y-4.11
X6.025Y-4.41
X6.625Y-4.11
X6.625Y-4.41
X4.5281Y-3.91
X4.725Y-3.91
X8.14Y-3.591
X8.14Y-3.891
X6.975Y-3.41
X6.975Y-3.71
X7.575Y-3.41
X7.575Y-3.71
X5.075Y-4.11
X5.075Y-4.41
X5.675Y-4.11
X5.675Y-4.41
T3
X4.951Y-2.917
X4.951Y-3.017
X5.051Y-2.917
X5.051Y-3.017
X5.151Y-2.917
X5.151Y-3.017
X5.251Y-2.917
X5.251Y-3.017
X5.351Y-2.917
X5.351Y-3.017
X5.451Y-2.917
X5.451Y-3.017
X5.551Y-2.917
X5.551Y-3.017
X5.651Y-2.917
X5.651Y-3.017
X5.751Y-2.917
X5.751Y-3.017
X5.851Y-2.917
X5.851Y-3.017
X5.951Y-2.917
X5.951Y-3.017
X6.051Y-2.917
X6.051Y-3.017
X6.151Y-2.917
X6.151Y-3.017
X6.251Y-2.917
X6.251Y-3.017
X6.351Y-2.917
X6.351Y-3.017
X6.451Y-2.917
X6.451Y-3.017
X6.551Y-2.917
X6.551Y-3.017
X6.651Y-2.917
X6.651Y-3.017
X6.751Y-2.917
X6.751Y-3.017
X6.851Y-2.917
X6.851Y-3.017
X3.7Y-4.45
X3.8Y-4.45
X3.7Y-3.85
X3.8Y-3.85
X3.7Y-4.05
X3.8Y-4.05
X6.129Y-5.321
X6.229Y-5.321
X6.329Y-5.321
X6.429Y-5.321
X6.529Y-5.321
X6.629Y-5.321
X6.729Y-5.321
X6.829Y-5.321
X3.7Y-4.15
X3.8Y-4.15
X3.7Y-3.75
X3.8Y-3.75
X4.97Y-5.321
X5.07Y-5.321
X5.17Y-5.321
X5.27Y-5.321
X5.37Y-5.321
X5.47Y-5.321
X5.57Y-5.321
X5.67Y-5.321
X3.7Y-4.81
X3.7Y-4.91
X3.7Y-5.01
X3.7Y-5.11
X3.7Y-3.95
X3.8Y-3.95
X3.7Y-4.25
X3.8Y-4.25
X3.7Y-4.35
X3.8Y-4.35
T4
X7.96Y-4.93
X7.96Y-5.1072
X8.2159Y-4.93
X8.2159Y-5.1072
T5
X8.2Y-5.4
X7.7Y-5.4
X7.2Y-5.4
X8.2Y-2.8
X4.1Y-5.4
X7.7Y-2.8
X4.6Y-5.4
X3.6Y-5.4
X3.6Y-2.8
X4.1Y-2.8
X4.6Y-2.8
X7.2Y-2.8
T0
M30
