%TF.GenerationSoftware,KiCad,Pcbnew,(5.0.0)*%
%TF.CreationDate,2018-10-23T17:22:46+02:00*%
%TF.ProjectId,S80 Clock Power Reset,53383020436C6F636B20506F77657220,1.0*%
%TF.SameCoordinates,Original*%
%TF.FileFunction,Legend,Bot*%
%TF.FilePolarity,Positive*%
%FSLAX46Y46*%
G04 Gerber Fmt 4.6, Leading zero omitted, Abs format (unit mm)*
G04 Created by KiCad (PCBNEW (5.0.0)) date 10/23/18 17:22:46*
%MOMM*%
%LPD*%
G01*
G04 APERTURE LIST*
%ADD10C,0.150000*%
%ADD11C,0.250000*%
%ADD12C,0.010000*%
G04 APERTURE END LIST*
D10*
X164155710Y-138782834D02*
X164208091Y-138854262D01*
X164365234Y-138925691D01*
X164469996Y-138925691D01*
X164627139Y-138854262D01*
X164731900Y-138711405D01*
X164784281Y-138568548D01*
X164836662Y-138282834D01*
X164836662Y-138068548D01*
X164784281Y-137782834D01*
X164731900Y-137639977D01*
X164627139Y-137497120D01*
X164469996Y-137425691D01*
X164365234Y-137425691D01*
X164208091Y-137497120D01*
X164155710Y-137568548D01*
X163527139Y-138925691D02*
X163631900Y-138854262D01*
X163684281Y-138782834D01*
X163736662Y-138639977D01*
X163736662Y-138211405D01*
X163684281Y-138068548D01*
X163631900Y-137997120D01*
X163527139Y-137925691D01*
X163369996Y-137925691D01*
X163265234Y-137997120D01*
X163212853Y-138068548D01*
X163160472Y-138211405D01*
X163160472Y-138639977D01*
X163212853Y-138782834D01*
X163265234Y-138854262D01*
X163369996Y-138925691D01*
X163527139Y-138925691D01*
X162689043Y-137925691D02*
X162689043Y-139425691D01*
X162689043Y-137997120D02*
X162584281Y-137925691D01*
X162374758Y-137925691D01*
X162269996Y-137997120D01*
X162217615Y-138068548D01*
X162165234Y-138211405D01*
X162165234Y-138639977D01*
X162217615Y-138782834D01*
X162269996Y-138854262D01*
X162374758Y-138925691D01*
X162584281Y-138925691D01*
X162689043Y-138854262D01*
X161798567Y-137925691D02*
X161536662Y-138925691D01*
X161274758Y-137925691D02*
X161536662Y-138925691D01*
X161641424Y-139282834D01*
X161693805Y-139354262D01*
X161798567Y-139425691D01*
X160855710Y-138925691D02*
X160855710Y-137925691D01*
X160855710Y-138211405D02*
X160803329Y-138068548D01*
X160750948Y-137997120D01*
X160646186Y-137925691D01*
X160541424Y-137925691D01*
X160174758Y-138925691D02*
X160174758Y-137925691D01*
X160174758Y-137425691D02*
X160227139Y-137497120D01*
X160174758Y-137568548D01*
X160122377Y-137497120D01*
X160174758Y-137425691D01*
X160174758Y-137568548D01*
X159179520Y-137925691D02*
X159179520Y-139139977D01*
X159231900Y-139282834D01*
X159284281Y-139354262D01*
X159389043Y-139425691D01*
X159546186Y-139425691D01*
X159650948Y-139354262D01*
X159179520Y-138854262D02*
X159284281Y-138925691D01*
X159493805Y-138925691D01*
X159598567Y-138854262D01*
X159650948Y-138782834D01*
X159703329Y-138639977D01*
X159703329Y-138211405D01*
X159650948Y-138068548D01*
X159598567Y-137997120D01*
X159493805Y-137925691D01*
X159284281Y-137925691D01*
X159179520Y-137997120D01*
X158655710Y-138925691D02*
X158655710Y-137425691D01*
X158184281Y-138925691D02*
X158184281Y-138139977D01*
X158236662Y-137997120D01*
X158341424Y-137925691D01*
X158498567Y-137925691D01*
X158603329Y-137997120D01*
X158655710Y-138068548D01*
X157817615Y-137925691D02*
X157398567Y-137925691D01*
X157660472Y-137425691D02*
X157660472Y-138711405D01*
X157608091Y-138854262D01*
X157503329Y-138925691D01*
X157398567Y-138925691D01*
X155303329Y-137782834D02*
X155408091Y-137711405D01*
X155617615Y-137711405D01*
X155722377Y-137782834D01*
X155827139Y-137925691D01*
X155879520Y-138068548D01*
X155879520Y-138354262D01*
X155827139Y-138497120D01*
X155722377Y-138639977D01*
X155617615Y-138711405D01*
X155408091Y-138711405D01*
X155303329Y-138639977D01*
X155512853Y-137211405D02*
X155774758Y-137282834D01*
X156036662Y-137497120D01*
X156193805Y-137854262D01*
X156246186Y-138211405D01*
X156193805Y-138568548D01*
X156036662Y-138925691D01*
X155774758Y-139139977D01*
X155512853Y-139211405D01*
X155250948Y-139139977D01*
X154989043Y-138925691D01*
X154831900Y-138568548D01*
X154779520Y-138211405D01*
X154831900Y-137854262D01*
X154989043Y-137497120D01*
X155250948Y-137282834D01*
X155512853Y-137211405D01*
X153522377Y-137568548D02*
X153469996Y-137497120D01*
X153365234Y-137425691D01*
X153103329Y-137425691D01*
X152998567Y-137497120D01*
X152946186Y-137568548D01*
X152893805Y-137711405D01*
X152893805Y-137854262D01*
X152946186Y-138068548D01*
X153574758Y-138925691D01*
X152893805Y-138925691D01*
X152212853Y-137425691D02*
X152108091Y-137425691D01*
X152003329Y-137497120D01*
X151950948Y-137568548D01*
X151898567Y-137711405D01*
X151846186Y-137997120D01*
X151846186Y-138354262D01*
X151898567Y-138639977D01*
X151950948Y-138782834D01*
X152003329Y-138854262D01*
X152108091Y-138925691D01*
X152212853Y-138925691D01*
X152317615Y-138854262D01*
X152369996Y-138782834D01*
X152422377Y-138639977D01*
X152474758Y-138354262D01*
X152474758Y-137997120D01*
X152422377Y-137711405D01*
X152369996Y-137568548D01*
X152317615Y-137497120D01*
X152212853Y-137425691D01*
X150798567Y-138925691D02*
X151427139Y-138925691D01*
X151112853Y-138925691D02*
X151112853Y-137425691D01*
X151217615Y-137639977D01*
X151322377Y-137782834D01*
X151427139Y-137854262D01*
X150169996Y-138068548D02*
X150274758Y-137997120D01*
X150327139Y-137925691D01*
X150379520Y-137782834D01*
X150379520Y-137711405D01*
X150327139Y-137568548D01*
X150274758Y-137497120D01*
X150169996Y-137425691D01*
X149960472Y-137425691D01*
X149855710Y-137497120D01*
X149803329Y-137568548D01*
X149750948Y-137711405D01*
X149750948Y-137782834D01*
X149803329Y-137925691D01*
X149855710Y-137997120D01*
X149960472Y-138068548D01*
X150169996Y-138068548D01*
X150274758Y-138139977D01*
X150327139Y-138211405D01*
X150379520Y-138354262D01*
X150379520Y-138639977D01*
X150327139Y-138782834D01*
X150274758Y-138854262D01*
X150169996Y-138925691D01*
X149960472Y-138925691D01*
X149855710Y-138854262D01*
X149803329Y-138782834D01*
X149750948Y-138639977D01*
X149750948Y-138354262D01*
X149803329Y-138211405D01*
X149855710Y-138139977D01*
X149960472Y-138068548D01*
X148441424Y-138925691D02*
X148441424Y-137425691D01*
X148441424Y-137997120D02*
X148336662Y-137925691D01*
X148127139Y-137925691D01*
X148022377Y-137997120D01*
X147969996Y-138068548D01*
X147917615Y-138211405D01*
X147917615Y-138639977D01*
X147969996Y-138782834D01*
X148022377Y-138854262D01*
X148127139Y-138925691D01*
X148336662Y-138925691D01*
X148441424Y-138854262D01*
X147550948Y-137925691D02*
X147289043Y-138925691D01*
X147027139Y-137925691D02*
X147289043Y-138925691D01*
X147393805Y-139282834D01*
X147446186Y-139354262D01*
X147550948Y-139425691D01*
X145141424Y-138925691D02*
X145508091Y-138211405D01*
X145769996Y-138925691D02*
X145769996Y-137425691D01*
X145350948Y-137425691D01*
X145246186Y-137497120D01*
X145193805Y-137568548D01*
X145141424Y-137711405D01*
X145141424Y-137925691D01*
X145193805Y-138068548D01*
X145246186Y-138139977D01*
X145350948Y-138211405D01*
X145769996Y-138211405D01*
X143779520Y-138925691D02*
X143831900Y-138925691D01*
X143936662Y-138854262D01*
X144093805Y-138639977D01*
X144355710Y-138211405D01*
X144460472Y-137997120D01*
X144512853Y-137782834D01*
X144512853Y-137639977D01*
X144460472Y-137497120D01*
X144355710Y-137425691D01*
X144303329Y-137425691D01*
X144198567Y-137497120D01*
X144146186Y-137639977D01*
X144146186Y-137711405D01*
X144198567Y-137854262D01*
X144250948Y-137925691D01*
X144565234Y-138211405D01*
X144617615Y-138282834D01*
X144669996Y-138425691D01*
X144669996Y-138639977D01*
X144617615Y-138782834D01*
X144565234Y-138854262D01*
X144460472Y-138925691D01*
X144303329Y-138925691D01*
X144198567Y-138854262D01*
X144146186Y-138782834D01*
X143989043Y-138497120D01*
X143936662Y-138282834D01*
X143936662Y-138139977D01*
X142941424Y-138139977D02*
X143308091Y-138139977D01*
X143308091Y-138925691D02*
X143308091Y-137425691D01*
X142784281Y-137425691D01*
X141527139Y-138925691D02*
X141527139Y-137425691D01*
X141108091Y-137425691D01*
X141003329Y-137497120D01*
X140950948Y-137568548D01*
X140898567Y-137711405D01*
X140898567Y-137925691D01*
X140950948Y-138068548D01*
X141003329Y-138139977D01*
X141108091Y-138211405D01*
X141527139Y-138211405D01*
X140531900Y-137925691D02*
X140269996Y-138925691D01*
X140008091Y-137925691D02*
X140269996Y-138925691D01*
X140374758Y-139282834D01*
X140427139Y-139354262D01*
X140531900Y-139425691D01*
X139589043Y-137925691D02*
X139589043Y-138925691D01*
X139589043Y-138068548D02*
X139536662Y-137997120D01*
X139431900Y-137925691D01*
X139274758Y-137925691D01*
X139169996Y-137997120D01*
X139117615Y-138139977D01*
X139117615Y-138925691D01*
X138122377Y-138854262D02*
X138227139Y-138925691D01*
X138436662Y-138925691D01*
X138541424Y-138854262D01*
X138593805Y-138782834D01*
X138646186Y-138639977D01*
X138646186Y-138211405D01*
X138593805Y-138068548D01*
X138541424Y-137997120D01*
X138436662Y-137925691D01*
X138227139Y-137925691D01*
X138122377Y-137997120D01*
X137650948Y-138925691D02*
X137650948Y-137425691D01*
X137546186Y-138354262D02*
X137231900Y-138925691D01*
X137231900Y-137925691D02*
X137650948Y-138497120D01*
X136341424Y-138854262D02*
X136446186Y-138925691D01*
X136655710Y-138925691D01*
X136760472Y-138854262D01*
X136812853Y-138711405D01*
X136812853Y-138139977D01*
X136760472Y-137997120D01*
X136655710Y-137925691D01*
X136446186Y-137925691D01*
X136341424Y-137997120D01*
X136289043Y-138139977D01*
X136289043Y-138282834D01*
X136812853Y-138425691D01*
X135660472Y-138925691D02*
X135765234Y-138854262D01*
X135817615Y-138711405D01*
X135817615Y-137425691D01*
X135293805Y-138854262D02*
X135189043Y-138925691D01*
X134979520Y-138925691D01*
X134874758Y-138854262D01*
X134822377Y-138711405D01*
X134822377Y-138639977D01*
X134874758Y-138497120D01*
X134979520Y-138425691D01*
X135136662Y-138425691D01*
X135241424Y-138354262D01*
X135293805Y-138211405D01*
X135293805Y-138139977D01*
X135241424Y-137997120D01*
X135136662Y-137925691D01*
X134979520Y-137925691D01*
X134874758Y-137997120D01*
D11*
X172955238Y-71124485D02*
X172669523Y-71267342D01*
X172193333Y-71267342D01*
X172002857Y-71124485D01*
X171907619Y-70981628D01*
X171812380Y-70695914D01*
X171812380Y-70410200D01*
X171907619Y-70124485D01*
X172002857Y-69981628D01*
X172193333Y-69838771D01*
X172574285Y-69695914D01*
X172764761Y-69553057D01*
X172860000Y-69410200D01*
X172955238Y-69124485D01*
X172955238Y-68838771D01*
X172860000Y-68553057D01*
X172764761Y-68410200D01*
X172574285Y-68267342D01*
X172098095Y-68267342D01*
X171812380Y-68410200D01*
X171240952Y-69267342D02*
X170479047Y-69267342D01*
X170955238Y-68267342D02*
X170955238Y-70838771D01*
X170860000Y-71124485D01*
X170669523Y-71267342D01*
X170479047Y-71267342D01*
X168955238Y-71267342D02*
X168955238Y-69695914D01*
X169050476Y-69410200D01*
X169240952Y-69267342D01*
X169621904Y-69267342D01*
X169812380Y-69410200D01*
X168955238Y-71124485D02*
X169145714Y-71267342D01*
X169621904Y-71267342D01*
X169812380Y-71124485D01*
X169907619Y-70838771D01*
X169907619Y-70553057D01*
X169812380Y-70267342D01*
X169621904Y-70124485D01*
X169145714Y-70124485D01*
X168955238Y-69981628D01*
X167145714Y-71124485D02*
X167336190Y-71267342D01*
X167717142Y-71267342D01*
X167907619Y-71124485D01*
X168002857Y-70981628D01*
X168098095Y-70695914D01*
X168098095Y-69838771D01*
X168002857Y-69553057D01*
X167907619Y-69410200D01*
X167717142Y-69267342D01*
X167336190Y-69267342D01*
X167145714Y-69410200D01*
X166288571Y-71267342D02*
X166288571Y-68267342D01*
X166098095Y-70124485D02*
X165526666Y-71267342D01*
X165526666Y-69267342D02*
X166288571Y-70410200D01*
X163812380Y-71267342D02*
X163812380Y-69695914D01*
X163907619Y-69410200D01*
X164098095Y-69267342D01*
X164479047Y-69267342D01*
X164669523Y-69410200D01*
X163812380Y-71124485D02*
X164002857Y-71267342D01*
X164479047Y-71267342D01*
X164669523Y-71124485D01*
X164764761Y-70838771D01*
X164764761Y-70553057D01*
X164669523Y-70267342D01*
X164479047Y-70124485D01*
X164002857Y-70124485D01*
X163812380Y-69981628D01*
X162860000Y-71267342D02*
X162860000Y-68267342D01*
X162860000Y-69410200D02*
X162669523Y-69267342D01*
X162288571Y-69267342D01*
X162098095Y-69410200D01*
X162002857Y-69553057D01*
X161907619Y-69838771D01*
X161907619Y-70695914D01*
X162002857Y-70981628D01*
X162098095Y-71124485D01*
X162288571Y-71267342D01*
X162669523Y-71267342D01*
X162860000Y-71124485D01*
X160764761Y-71267342D02*
X160955238Y-71124485D01*
X161050476Y-70838771D01*
X161050476Y-68267342D01*
X159240952Y-71124485D02*
X159431428Y-71267342D01*
X159812380Y-71267342D01*
X160002857Y-71124485D01*
X160098095Y-70838771D01*
X160098095Y-69695914D01*
X160002857Y-69410200D01*
X159812380Y-69267342D01*
X159431428Y-69267342D01*
X159240952Y-69410200D01*
X159145714Y-69695914D01*
X159145714Y-69981628D01*
X160098095Y-70267342D01*
X156955238Y-68267342D02*
X155621904Y-68267342D01*
X156955238Y-71267342D01*
X155621904Y-71267342D01*
X154574285Y-69553057D02*
X154764761Y-69410200D01*
X154860000Y-69267342D01*
X154955238Y-68981628D01*
X154955238Y-68838771D01*
X154860000Y-68553057D01*
X154764761Y-68410200D01*
X154574285Y-68267342D01*
X154193333Y-68267342D01*
X154002857Y-68410200D01*
X153907619Y-68553057D01*
X153812380Y-68838771D01*
X153812380Y-68981628D01*
X153907619Y-69267342D01*
X154002857Y-69410200D01*
X154193333Y-69553057D01*
X154574285Y-69553057D01*
X154764761Y-69695914D01*
X154860000Y-69838771D01*
X154955238Y-70124485D01*
X154955238Y-70695914D01*
X154860000Y-70981628D01*
X154764761Y-71124485D01*
X154574285Y-71267342D01*
X154193333Y-71267342D01*
X154002857Y-71124485D01*
X153907619Y-70981628D01*
X153812380Y-70695914D01*
X153812380Y-70124485D01*
X153907619Y-69838771D01*
X154002857Y-69695914D01*
X154193333Y-69553057D01*
X152574285Y-68267342D02*
X152383809Y-68267342D01*
X152193333Y-68410200D01*
X152098095Y-68553057D01*
X152002857Y-68838771D01*
X151907619Y-69410200D01*
X151907619Y-70124485D01*
X152002857Y-70695914D01*
X152098095Y-70981628D01*
X152193333Y-71124485D01*
X152383809Y-71267342D01*
X152574285Y-71267342D01*
X152764761Y-71124485D01*
X152860000Y-70981628D01*
X152955238Y-70695914D01*
X153050476Y-70124485D01*
X153050476Y-69410200D01*
X152955238Y-68838771D01*
X152860000Y-68553057D01*
X152764761Y-68410200D01*
X152574285Y-68267342D01*
X148383809Y-71267342D02*
X149050476Y-69838771D01*
X149526666Y-71267342D02*
X149526666Y-68267342D01*
X148764761Y-68267342D01*
X148574285Y-68410200D01*
X148479047Y-68553057D01*
X148383809Y-68838771D01*
X148383809Y-69267342D01*
X148479047Y-69553057D01*
X148574285Y-69695914D01*
X148764761Y-69838771D01*
X149526666Y-69838771D01*
X146764761Y-71124485D02*
X146955238Y-71267342D01*
X147336190Y-71267342D01*
X147526666Y-71124485D01*
X147621904Y-70838771D01*
X147621904Y-69695914D01*
X147526666Y-69410200D01*
X147336190Y-69267342D01*
X146955238Y-69267342D01*
X146764761Y-69410200D01*
X146669523Y-69695914D01*
X146669523Y-69981628D01*
X147621904Y-70267342D01*
X146098095Y-69267342D02*
X145336190Y-69267342D01*
X145812380Y-68267342D02*
X145812380Y-70838771D01*
X145717142Y-71124485D01*
X145526666Y-71267342D01*
X145336190Y-71267342D01*
X144669523Y-71267342D02*
X144669523Y-69267342D01*
X144669523Y-69838771D02*
X144574285Y-69553057D01*
X144479047Y-69410200D01*
X144288571Y-69267342D01*
X144098095Y-69267342D01*
X143145714Y-71267342D02*
X143336190Y-71124485D01*
X143431428Y-70981628D01*
X143526666Y-70695914D01*
X143526666Y-69838771D01*
X143431428Y-69553057D01*
X143336190Y-69410200D01*
X143145714Y-69267342D01*
X142860000Y-69267342D01*
X142669523Y-69410200D01*
X142574285Y-69553057D01*
X142479047Y-69838771D01*
X142479047Y-70695914D01*
X142574285Y-70981628D01*
X142669523Y-71124485D01*
X142860000Y-71267342D01*
X143145714Y-71267342D01*
X138955238Y-70981628D02*
X139050476Y-71124485D01*
X139336190Y-71267342D01*
X139526666Y-71267342D01*
X139812380Y-71124485D01*
X140002857Y-70838771D01*
X140098095Y-70553057D01*
X140193333Y-69981628D01*
X140193333Y-69553057D01*
X140098095Y-68981628D01*
X140002857Y-68695914D01*
X139812380Y-68410200D01*
X139526666Y-68267342D01*
X139336190Y-68267342D01*
X139050476Y-68410200D01*
X138955238Y-68553057D01*
X137812380Y-71267342D02*
X138002857Y-71124485D01*
X138098095Y-70981628D01*
X138193333Y-70695914D01*
X138193333Y-69838771D01*
X138098095Y-69553057D01*
X138002857Y-69410200D01*
X137812380Y-69267342D01*
X137526666Y-69267342D01*
X137336190Y-69410200D01*
X137240952Y-69553057D01*
X137145714Y-69838771D01*
X137145714Y-70695914D01*
X137240952Y-70981628D01*
X137336190Y-71124485D01*
X137526666Y-71267342D01*
X137812380Y-71267342D01*
X136288571Y-71267342D02*
X136288571Y-69267342D01*
X136288571Y-69553057D02*
X136193333Y-69410200D01*
X136002857Y-69267342D01*
X135717142Y-69267342D01*
X135526666Y-69410200D01*
X135431428Y-69695914D01*
X135431428Y-71267342D01*
X135431428Y-69695914D02*
X135336190Y-69410200D01*
X135145714Y-69267342D01*
X134860000Y-69267342D01*
X134669523Y-69410200D01*
X134574285Y-69695914D01*
X134574285Y-71267342D01*
X133621904Y-69267342D02*
X133621904Y-72267342D01*
X133621904Y-69410200D02*
X133431428Y-69267342D01*
X133050476Y-69267342D01*
X132860000Y-69410200D01*
X132764761Y-69553057D01*
X132669523Y-69838771D01*
X132669523Y-70695914D01*
X132764761Y-70981628D01*
X132860000Y-71124485D01*
X133050476Y-71267342D01*
X133431428Y-71267342D01*
X133621904Y-71124485D01*
X130955238Y-69267342D02*
X130955238Y-71267342D01*
X131812380Y-69267342D02*
X131812380Y-70838771D01*
X131717142Y-71124485D01*
X131526666Y-71267342D01*
X131240952Y-71267342D01*
X131050476Y-71124485D01*
X130955238Y-70981628D01*
X130288571Y-69267342D02*
X129526666Y-69267342D01*
X130002857Y-68267342D02*
X130002857Y-70838771D01*
X129907619Y-71124485D01*
X129717142Y-71267342D01*
X129526666Y-71267342D01*
X128098095Y-71124485D02*
X128288571Y-71267342D01*
X128669523Y-71267342D01*
X128860000Y-71124485D01*
X128955238Y-70838771D01*
X128955238Y-69695914D01*
X128860000Y-69410200D01*
X128669523Y-69267342D01*
X128288571Y-69267342D01*
X128098095Y-69410200D01*
X128002857Y-69695914D01*
X128002857Y-69981628D01*
X128955238Y-70267342D01*
X127145714Y-71267342D02*
X127145714Y-69267342D01*
X127145714Y-69838771D02*
X127050476Y-69553057D01*
X126955238Y-69410200D01*
X126764761Y-69267342D01*
X126574285Y-69267342D01*
D10*
X174827523Y-79334619D02*
X174198952Y-79334619D01*
X174513238Y-80434619D02*
X174513238Y-79334619D01*
X173832285Y-80434619D02*
X173832285Y-79334619D01*
X173360857Y-80434619D02*
X173360857Y-79858428D01*
X173413238Y-79753666D01*
X173518000Y-79701285D01*
X173675142Y-79701285D01*
X173779904Y-79753666D01*
X173832285Y-79806047D01*
X172837047Y-80434619D02*
X172837047Y-79701285D01*
X172837047Y-79334619D02*
X172889428Y-79387000D01*
X172837047Y-79439380D01*
X172784666Y-79387000D01*
X172837047Y-79334619D01*
X172837047Y-79439380D01*
X172365619Y-80382238D02*
X172260857Y-80434619D01*
X172051333Y-80434619D01*
X171946571Y-80382238D01*
X171894190Y-80277476D01*
X171894190Y-80225095D01*
X171946571Y-80120333D01*
X172051333Y-80067952D01*
X172208476Y-80067952D01*
X172313238Y-80015571D01*
X172365619Y-79910809D01*
X172365619Y-79858428D01*
X172313238Y-79753666D01*
X172208476Y-79701285D01*
X172051333Y-79701285D01*
X171946571Y-79753666D01*
X170584666Y-80434619D02*
X170584666Y-79334619D01*
X170165619Y-79334619D01*
X170060857Y-79387000D01*
X170008476Y-79439380D01*
X169956095Y-79544142D01*
X169956095Y-79701285D01*
X170008476Y-79806047D01*
X170060857Y-79858428D01*
X170165619Y-79910809D01*
X170584666Y-79910809D01*
X168856095Y-80329857D02*
X168908476Y-80382238D01*
X169065619Y-80434619D01*
X169170380Y-80434619D01*
X169327523Y-80382238D01*
X169432285Y-80277476D01*
X169484666Y-80172714D01*
X169537047Y-79963190D01*
X169537047Y-79806047D01*
X169484666Y-79596523D01*
X169432285Y-79491761D01*
X169327523Y-79387000D01*
X169170380Y-79334619D01*
X169065619Y-79334619D01*
X168908476Y-79387000D01*
X168856095Y-79439380D01*
X168018000Y-79858428D02*
X167860857Y-79910809D01*
X167808476Y-79963190D01*
X167756095Y-80067952D01*
X167756095Y-80225095D01*
X167808476Y-80329857D01*
X167860857Y-80382238D01*
X167965619Y-80434619D01*
X168384666Y-80434619D01*
X168384666Y-79334619D01*
X168018000Y-79334619D01*
X167913238Y-79387000D01*
X167860857Y-79439380D01*
X167808476Y-79544142D01*
X167808476Y-79648904D01*
X167860857Y-79753666D01*
X167913238Y-79806047D01*
X168018000Y-79858428D01*
X168384666Y-79858428D01*
X166446571Y-80434619D02*
X166446571Y-79701285D01*
X166446571Y-79334619D02*
X166498952Y-79387000D01*
X166446571Y-79439380D01*
X166394190Y-79387000D01*
X166446571Y-79334619D01*
X166446571Y-79439380D01*
X165975142Y-80382238D02*
X165870380Y-80434619D01*
X165660857Y-80434619D01*
X165556095Y-80382238D01*
X165503714Y-80277476D01*
X165503714Y-80225095D01*
X165556095Y-80120333D01*
X165660857Y-80067952D01*
X165818000Y-80067952D01*
X165922761Y-80015571D01*
X165975142Y-79910809D01*
X165975142Y-79858428D01*
X165922761Y-79753666D01*
X165818000Y-79701285D01*
X165660857Y-79701285D01*
X165556095Y-79753666D01*
X164351333Y-79701285D02*
X163932285Y-79701285D01*
X164194190Y-80434619D02*
X164194190Y-79491761D01*
X164141809Y-79387000D01*
X164037047Y-79334619D01*
X163932285Y-79334619D01*
X163094190Y-80434619D02*
X163094190Y-79858428D01*
X163146571Y-79753666D01*
X163251333Y-79701285D01*
X163460857Y-79701285D01*
X163565619Y-79753666D01*
X163094190Y-80382238D02*
X163198952Y-80434619D01*
X163460857Y-80434619D01*
X163565619Y-80382238D01*
X163618000Y-80277476D01*
X163618000Y-80172714D01*
X163565619Y-80067952D01*
X163460857Y-80015571D01*
X163198952Y-80015571D01*
X163094190Y-79963190D01*
X162570380Y-80434619D02*
X162570380Y-79334619D01*
X162570380Y-79753666D02*
X162465619Y-79701285D01*
X162256095Y-79701285D01*
X162151333Y-79753666D01*
X162098952Y-79806047D01*
X162046571Y-79910809D01*
X162046571Y-80225095D01*
X162098952Y-80329857D01*
X162151333Y-80382238D01*
X162256095Y-80434619D01*
X162465619Y-80434619D01*
X162570380Y-80382238D01*
X161575142Y-80434619D02*
X161575142Y-79701285D01*
X161575142Y-79910809D02*
X161522761Y-79806047D01*
X161470380Y-79753666D01*
X161365619Y-79701285D01*
X161260857Y-79701285D01*
X160894190Y-80434619D02*
X160894190Y-79701285D01*
X160894190Y-79334619D02*
X160946571Y-79387000D01*
X160894190Y-79439380D01*
X160841809Y-79387000D01*
X160894190Y-79334619D01*
X160894190Y-79439380D01*
X159898952Y-80382238D02*
X160003714Y-80434619D01*
X160213238Y-80434619D01*
X160318000Y-80382238D01*
X160370380Y-80329857D01*
X160422761Y-80225095D01*
X160422761Y-79910809D01*
X160370380Y-79806047D01*
X160318000Y-79753666D01*
X160213238Y-79701285D01*
X160003714Y-79701285D01*
X159898952Y-79753666D01*
X158956095Y-80434619D02*
X158956095Y-79858428D01*
X159008476Y-79753666D01*
X159113238Y-79701285D01*
X159322761Y-79701285D01*
X159427523Y-79753666D01*
X158956095Y-80382238D02*
X159060857Y-80434619D01*
X159322761Y-80434619D01*
X159427523Y-80382238D01*
X159479904Y-80277476D01*
X159479904Y-80172714D01*
X159427523Y-80067952D01*
X159322761Y-80015571D01*
X159060857Y-80015571D01*
X158956095Y-79963190D01*
X158589428Y-79701285D02*
X158170380Y-79701285D01*
X158432285Y-79334619D02*
X158432285Y-80277476D01*
X158379904Y-80382238D01*
X158275142Y-80434619D01*
X158170380Y-80434619D01*
X157384666Y-80382238D02*
X157489428Y-80434619D01*
X157698952Y-80434619D01*
X157803714Y-80382238D01*
X157856095Y-80277476D01*
X157856095Y-79858428D01*
X157803714Y-79753666D01*
X157698952Y-79701285D01*
X157489428Y-79701285D01*
X157384666Y-79753666D01*
X157332285Y-79858428D01*
X157332285Y-79963190D01*
X157856095Y-80067952D01*
X156389428Y-80434619D02*
X156389428Y-79334619D01*
X156389428Y-80382238D02*
X156494190Y-80434619D01*
X156703714Y-80434619D01*
X156808476Y-80382238D01*
X156860857Y-80329857D01*
X156913238Y-80225095D01*
X156913238Y-79910809D01*
X156860857Y-79806047D01*
X156808476Y-79753666D01*
X156703714Y-79701285D01*
X156494190Y-79701285D01*
X156389428Y-79753666D01*
X155027523Y-80434619D02*
X155027523Y-79334619D01*
X155027523Y-79753666D02*
X154922761Y-79701285D01*
X154713238Y-79701285D01*
X154608476Y-79753666D01*
X154556095Y-79806047D01*
X154503714Y-79910809D01*
X154503714Y-80225095D01*
X154556095Y-80329857D01*
X154608476Y-80382238D01*
X154713238Y-80434619D01*
X154922761Y-80434619D01*
X155027523Y-80382238D01*
X154137047Y-79701285D02*
X153875142Y-80434619D01*
X153613238Y-79701285D02*
X153875142Y-80434619D01*
X153979904Y-80696523D01*
X154032285Y-80748904D01*
X154137047Y-80801285D01*
X152041809Y-79334619D02*
X152041809Y-80120333D01*
X152094190Y-80277476D01*
X152198952Y-80382238D01*
X152356095Y-80434619D01*
X152460857Y-80434619D01*
X150994190Y-80434619D02*
X151518000Y-80434619D01*
X151518000Y-79334619D01*
X149998952Y-80329857D02*
X150051333Y-80382238D01*
X150208476Y-80434619D01*
X150313238Y-80434619D01*
X150470380Y-80382238D01*
X150575142Y-80277476D01*
X150627523Y-80172714D01*
X150679904Y-79963190D01*
X150679904Y-79806047D01*
X150627523Y-79596523D01*
X150575142Y-79491761D01*
X150470380Y-79387000D01*
X150313238Y-79334619D01*
X150208476Y-79334619D01*
X150051333Y-79387000D01*
X149998952Y-79439380D01*
X149527523Y-80434619D02*
X149527523Y-79334619D01*
X149108476Y-79334619D01*
X149003714Y-79387000D01*
X148951333Y-79439380D01*
X148898952Y-79544142D01*
X148898952Y-79701285D01*
X148951333Y-79806047D01*
X149003714Y-79858428D01*
X149108476Y-79910809D01*
X149527523Y-79910809D01*
X147798952Y-80329857D02*
X147851333Y-80382238D01*
X148008476Y-80434619D01*
X148113238Y-80434619D01*
X148270380Y-80382238D01*
X148375142Y-80277476D01*
X148427523Y-80172714D01*
X148479904Y-79963190D01*
X148479904Y-79806047D01*
X148427523Y-79596523D01*
X148375142Y-79491761D01*
X148270380Y-79387000D01*
X148113238Y-79334619D01*
X148008476Y-79334619D01*
X147851333Y-79387000D01*
X147798952Y-79439380D01*
X146960857Y-79858428D02*
X146803714Y-79910809D01*
X146751333Y-79963190D01*
X146698952Y-80067952D01*
X146698952Y-80225095D01*
X146751333Y-80329857D01*
X146803714Y-80382238D01*
X146908476Y-80434619D01*
X147327523Y-80434619D01*
X147327523Y-79334619D01*
X146960857Y-79334619D01*
X146856095Y-79387000D01*
X146803714Y-79439380D01*
X146751333Y-79544142D01*
X146751333Y-79648904D01*
X146803714Y-79753666D01*
X146856095Y-79806047D01*
X146960857Y-79858428D01*
X147327523Y-79858428D01*
X145075142Y-80853666D02*
X145127523Y-80801285D01*
X145232285Y-80644142D01*
X145284666Y-80539380D01*
X145337047Y-80382238D01*
X145389428Y-80120333D01*
X145389428Y-79910809D01*
X145337047Y-79648904D01*
X145284666Y-79491761D01*
X145232285Y-79387000D01*
X145127523Y-79229857D01*
X145075142Y-79177476D01*
X144656095Y-80434619D02*
X144656095Y-79334619D01*
X144656095Y-79753666D02*
X144551333Y-79701285D01*
X144341809Y-79701285D01*
X144237047Y-79753666D01*
X144184666Y-79806047D01*
X144132285Y-79910809D01*
X144132285Y-80225095D01*
X144184666Y-80329857D01*
X144237047Y-80382238D01*
X144341809Y-80434619D01*
X144551333Y-80434619D01*
X144656095Y-80382238D01*
X143189428Y-80434619D02*
X143189428Y-79858428D01*
X143241809Y-79753666D01*
X143346571Y-79701285D01*
X143556095Y-79701285D01*
X143660857Y-79753666D01*
X143189428Y-80382238D02*
X143294190Y-80434619D01*
X143556095Y-80434619D01*
X143660857Y-80382238D01*
X143713238Y-80277476D01*
X143713238Y-80172714D01*
X143660857Y-80067952D01*
X143556095Y-80015571D01*
X143294190Y-80015571D01*
X143189428Y-79963190D01*
X142822761Y-79701285D02*
X142403714Y-79701285D01*
X142665619Y-79334619D02*
X142665619Y-80277476D01*
X142613238Y-80382238D01*
X142508476Y-80434619D01*
X142403714Y-80434619D01*
X141565619Y-80382238D02*
X141670380Y-80434619D01*
X141879904Y-80434619D01*
X141984666Y-80382238D01*
X142037047Y-80329857D01*
X142089428Y-80225095D01*
X142089428Y-79910809D01*
X142037047Y-79806047D01*
X141984666Y-79753666D01*
X141879904Y-79701285D01*
X141670380Y-79701285D01*
X141565619Y-79753666D01*
X141094190Y-80434619D02*
X141094190Y-79334619D01*
X140622761Y-80434619D02*
X140622761Y-79858428D01*
X140675142Y-79753666D01*
X140779904Y-79701285D01*
X140937047Y-79701285D01*
X141041809Y-79753666D01*
X141094190Y-79806047D01*
X139260857Y-79701285D02*
X139260857Y-80434619D01*
X139260857Y-79806047D02*
X139208476Y-79753666D01*
X139103714Y-79701285D01*
X138946571Y-79701285D01*
X138841809Y-79753666D01*
X138789428Y-79858428D01*
X138789428Y-80434619D01*
X138108476Y-79334619D02*
X138213238Y-79387000D01*
X138265619Y-79491761D01*
X138213238Y-79596523D01*
X138108476Y-79648904D01*
X138003714Y-79596523D01*
X137951333Y-79491761D01*
X138003714Y-79387000D01*
X138108476Y-79334619D01*
X136275142Y-79334619D02*
X136275142Y-80120333D01*
X136327523Y-80277476D01*
X136432285Y-80382238D01*
X136589428Y-80434619D01*
X136694190Y-80434619D01*
X135227523Y-80434619D02*
X135751333Y-80434619D01*
X135751333Y-79334619D01*
X134232285Y-80329857D02*
X134284666Y-80382238D01*
X134441809Y-80434619D01*
X134546571Y-80434619D01*
X134703714Y-80382238D01*
X134808476Y-80277476D01*
X134860857Y-80172714D01*
X134913238Y-79963190D01*
X134913238Y-79806047D01*
X134860857Y-79596523D01*
X134808476Y-79491761D01*
X134703714Y-79387000D01*
X134546571Y-79334619D01*
X134441809Y-79334619D01*
X134284666Y-79387000D01*
X134232285Y-79439380D01*
X133446571Y-79334619D02*
X133446571Y-80120333D01*
X133498952Y-80277476D01*
X133603714Y-80382238D01*
X133760857Y-80434619D01*
X133865619Y-80434619D01*
X132398952Y-80434619D02*
X132922761Y-80434619D01*
X132922761Y-79334619D01*
X131403714Y-80329857D02*
X131456095Y-80382238D01*
X131613238Y-80434619D01*
X131717999Y-80434619D01*
X131875142Y-80382238D01*
X131979904Y-80277476D01*
X132032285Y-80172714D01*
X132084666Y-79963190D01*
X132084666Y-79806047D01*
X132032285Y-79596523D01*
X131979904Y-79491761D01*
X131875142Y-79387000D01*
X131717999Y-79334619D01*
X131613238Y-79334619D01*
X131456095Y-79387000D01*
X131403714Y-79439380D01*
X130617999Y-79334619D02*
X130617999Y-80120333D01*
X130670380Y-80277476D01*
X130775142Y-80382238D01*
X130932285Y-80434619D01*
X131037047Y-80434619D01*
X129570380Y-80434619D02*
X130094190Y-80434619D01*
X130094190Y-79334619D01*
X128575142Y-80329857D02*
X128627523Y-80382238D01*
X128784666Y-80434619D01*
X128889428Y-80434619D01*
X129046571Y-80382238D01*
X129151333Y-80277476D01*
X129203714Y-80172714D01*
X129256095Y-79963190D01*
X129256095Y-79806047D01*
X129203714Y-79596523D01*
X129151333Y-79491761D01*
X129046571Y-79387000D01*
X128889428Y-79334619D01*
X128784666Y-79334619D01*
X128627523Y-79387000D01*
X128575142Y-79439380D01*
X127789428Y-79334619D02*
X127789428Y-80120333D01*
X127841809Y-80277476D01*
X127946571Y-80382238D01*
X128103714Y-80434619D01*
X128208476Y-80434619D01*
X126741809Y-80434619D02*
X127265619Y-80434619D01*
X127265619Y-79334619D01*
X125746571Y-80329857D02*
X125798952Y-80382238D01*
X125956095Y-80434619D01*
X126060857Y-80434619D01*
X126217999Y-80382238D01*
X126322761Y-80277476D01*
X126375142Y-80172714D01*
X126427523Y-79963190D01*
X126427523Y-79806047D01*
X126375142Y-79596523D01*
X126322761Y-79491761D01*
X126217999Y-79387000D01*
X126060857Y-79334619D01*
X125956095Y-79334619D01*
X125798952Y-79387000D01*
X125746571Y-79439380D01*
X125379904Y-80853666D02*
X125327523Y-80801285D01*
X125222761Y-80644142D01*
X125170380Y-80539380D01*
X125117999Y-80382238D01*
X125065619Y-80120333D01*
X125065619Y-79910809D01*
X125117999Y-79648904D01*
X125170380Y-79491761D01*
X125222761Y-79387000D01*
X125327523Y-79229857D01*
X125379904Y-79177476D01*
D12*
G36*
X123105514Y-84217062D02*
X122842939Y-84400190D01*
X122659415Y-84609698D01*
X122612871Y-84806731D01*
X122696114Y-85107292D01*
X122784980Y-85334704D01*
X122980343Y-85747474D01*
X123304038Y-86349679D01*
X123718812Y-87077739D01*
X124187414Y-87868073D01*
X124672590Y-88657103D01*
X125137088Y-89381247D01*
X125292819Y-89614919D01*
X125948863Y-90402652D01*
X126769831Y-91117884D01*
X127538613Y-91602578D01*
X127906032Y-91741791D01*
X128477009Y-91904581D01*
X129156751Y-92065319D01*
X129531896Y-92141524D01*
X130222279Y-92287539D01*
X130846320Y-92445283D01*
X131313111Y-92590600D01*
X131470071Y-92656572D01*
X131974936Y-93026258D01*
X132573185Y-93647911D01*
X133247339Y-94492170D01*
X133979918Y-95529677D01*
X134753441Y-96731074D01*
X135550429Y-98067001D01*
X136353401Y-99508100D01*
X137144880Y-101025013D01*
X137907383Y-102588380D01*
X138623432Y-104168843D01*
X139275546Y-105737043D01*
X139309960Y-105824262D01*
X140049921Y-107790218D01*
X140703761Y-109699576D01*
X141266549Y-111528355D01*
X141733352Y-113252577D01*
X142099242Y-114848263D01*
X142359286Y-116291435D01*
X142508554Y-117558113D01*
X142542115Y-118624320D01*
X142455037Y-119466076D01*
X142242391Y-120059403D01*
X142238562Y-120065729D01*
X141787376Y-120531566D01*
X141148504Y-120788394D01*
X140347285Y-120841807D01*
X139409056Y-120697399D01*
X138359156Y-120360766D01*
X137222923Y-119837502D01*
X136025695Y-119133201D01*
X135104327Y-118490532D01*
X134040338Y-117668194D01*
X132839911Y-116689708D01*
X131575980Y-115617090D01*
X130321481Y-114512359D01*
X129149350Y-113437531D01*
X129033937Y-113328851D01*
X128392761Y-112739935D01*
X127821095Y-112246122D01*
X127359830Y-111880587D01*
X127049857Y-111676503D01*
X126958553Y-111645095D01*
X126627380Y-111778618D01*
X126376690Y-112109642D01*
X126268551Y-112533847D01*
X126291579Y-112766147D01*
X126451008Y-113030955D01*
X126821004Y-113454602D01*
X127372347Y-114011705D01*
X128075821Y-114676881D01*
X128902205Y-115424749D01*
X129822282Y-116229926D01*
X130806834Y-117067029D01*
X131826641Y-117910677D01*
X132852485Y-118735487D01*
X133855147Y-119516076D01*
X134805410Y-120227062D01*
X135242863Y-120542208D01*
X136981710Y-121671533D01*
X138668705Y-122542889D01*
X140361302Y-123180240D01*
X142116954Y-123607550D01*
X142885396Y-123729938D01*
X143684003Y-123828996D01*
X144272536Y-123870157D01*
X144738037Y-123851690D01*
X145167553Y-123771861D01*
X145495232Y-123677973D01*
X146286064Y-123366203D01*
X146880721Y-122960023D01*
X147331056Y-122402007D01*
X147688922Y-121634731D01*
X147886953Y-121029261D01*
X148079508Y-120099057D01*
X148129205Y-119074706D01*
X148031277Y-117927446D01*
X147780958Y-116628513D01*
X147373483Y-115149142D01*
X146804085Y-113460570D01*
X146494913Y-112627833D01*
X146188488Y-111853955D01*
X145811364Y-110949477D01*
X145400739Y-109999280D01*
X144993808Y-109088242D01*
X144627767Y-108301245D01*
X144374757Y-107789738D01*
X144096288Y-107239673D01*
X143816772Y-106667402D01*
X143775374Y-106580214D01*
X143579788Y-106190376D01*
X143281742Y-105625249D01*
X142927965Y-104972558D01*
X142688158Y-104539143D01*
X142298419Y-103840132D01*
X141907267Y-103137026D01*
X141572493Y-102533777D01*
X141427304Y-102271286D01*
X141116098Y-101735418D01*
X140798874Y-101232740D01*
X140617379Y-100971895D01*
X140391627Y-100647318D01*
X140272119Y-100429398D01*
X140266420Y-100403817D01*
X140185838Y-100243903D01*
X139969141Y-99895550D01*
X139653903Y-99417840D01*
X139434873Y-99096285D01*
X139078128Y-98565323D01*
X138797958Y-98123554D01*
X138632173Y-97831963D01*
X138603325Y-97755198D01*
X138499658Y-97558564D01*
X138367174Y-97425418D01*
X138162721Y-97200651D01*
X137865196Y-96810211D01*
X137578907Y-96397632D01*
X137116576Y-95794259D01*
X136435444Y-95039492D01*
X135561178Y-94159894D01*
X134519446Y-93182026D01*
X134143206Y-92842209D01*
X133538444Y-92300896D01*
X134445587Y-92299965D01*
X134791998Y-92295492D01*
X135403332Y-92283107D01*
X136242257Y-92263742D01*
X137271444Y-92238328D01*
X138453563Y-92207798D01*
X139751285Y-92173084D01*
X141127279Y-92135117D01*
X141730808Y-92118106D01*
X143422961Y-92072561D01*
X144831033Y-92040307D01*
X145973029Y-92021308D01*
X146866956Y-92015531D01*
X147530819Y-92022939D01*
X147982624Y-92043499D01*
X148240378Y-92077175D01*
X148311561Y-92105380D01*
X148491216Y-92350967D01*
X148680994Y-92747440D01*
X148719766Y-92850113D01*
X148840077Y-93133771D01*
X149077293Y-93647741D01*
X149411940Y-94352455D01*
X149824548Y-95208346D01*
X150295643Y-96175844D01*
X150805754Y-97215383D01*
X151335408Y-98287393D01*
X151865133Y-99352306D01*
X152375456Y-100370554D01*
X152846907Y-101302569D01*
X153260012Y-102108782D01*
X153542096Y-102649262D01*
X154082020Y-103659212D01*
X154650663Y-104701919D01*
X155224293Y-105735776D01*
X155779178Y-106719176D01*
X156291587Y-107610511D01*
X156737786Y-108368175D01*
X157094044Y-108950559D01*
X157336630Y-109316056D01*
X157369607Y-109359709D01*
X157571868Y-109654813D01*
X157653325Y-109846778D01*
X157731420Y-110035437D01*
X157931070Y-110379085D01*
X158086935Y-110620139D01*
X158312135Y-110957528D01*
X158667690Y-111491851D01*
X159116951Y-112167961D01*
X159623273Y-112930712D01*
X160066122Y-113598417D01*
X161359246Y-115482388D01*
X162630302Y-117204147D01*
X163863197Y-118745640D01*
X165041840Y-120088813D01*
X166150139Y-121215612D01*
X167172002Y-122107984D01*
X168091336Y-122747874D01*
X168347446Y-122889302D01*
X168825088Y-123074736D01*
X169383803Y-123213347D01*
X169494894Y-123230924D01*
X169891925Y-123247996D01*
X170281164Y-123168618D01*
X170705035Y-122967581D01*
X171205964Y-122619673D01*
X171826377Y-122099683D01*
X172608698Y-121382400D01*
X172614028Y-121377392D01*
X173619857Y-120395586D01*
X174401890Y-119552201D01*
X174953262Y-118855718D01*
X175267111Y-118314617D01*
X175342611Y-118005758D01*
X175279633Y-117591727D01*
X175063499Y-117371368D01*
X174653404Y-117324758D01*
X174117747Y-117407747D01*
X173378043Y-117499181D01*
X172447719Y-117515656D01*
X171427422Y-117463443D01*
X170417800Y-117348810D01*
X169519498Y-117178028D01*
X169242982Y-117104079D01*
X168382327Y-116821892D01*
X167603733Y-116495036D01*
X166808725Y-116075911D01*
X165898827Y-115516915D01*
X165721737Y-115402008D01*
X165170485Y-115003734D01*
X164500520Y-114461230D01*
X163767878Y-113826216D01*
X163028592Y-113150413D01*
X162338698Y-112485539D01*
X161754231Y-111883316D01*
X161331227Y-111395463D01*
X161224928Y-111251484D01*
X160986837Y-110916476D01*
X160628839Y-110427881D01*
X160214658Y-109872352D01*
X160057503Y-109663984D01*
X159658498Y-109125691D01*
X159214358Y-108508591D01*
X158759487Y-107862756D01*
X158328289Y-107238258D01*
X157955169Y-106685167D01*
X157674532Y-106253555D01*
X157520781Y-105993492D01*
X157502134Y-105944975D01*
X157422821Y-105785381D01*
X157226898Y-105485337D01*
X157175199Y-105411802D01*
X156862296Y-104928822D01*
X156438636Y-104209837D01*
X155923480Y-103291842D01*
X155336087Y-102211834D01*
X154695717Y-101006810D01*
X154021628Y-99713765D01*
X153333081Y-98369696D01*
X152649336Y-97011599D01*
X151989651Y-95676471D01*
X151373287Y-94401307D01*
X150819502Y-93223105D01*
X150739186Y-93048666D01*
X150288148Y-92065928D01*
X151665082Y-92019169D01*
X152349272Y-92013255D01*
X153227244Y-92030747D01*
X154191583Y-92068314D01*
X155134873Y-92122625D01*
X155241204Y-92130084D01*
X156731703Y-92279396D01*
X157973858Y-92508960D01*
X159016276Y-92842003D01*
X159907568Y-93301752D01*
X160696344Y-93911433D01*
X161431213Y-94694273D01*
X161909901Y-95316524D01*
X162209784Y-95787189D01*
X162575941Y-96441916D01*
X162959911Y-97184997D01*
X163313236Y-97920724D01*
X163587456Y-98553390D01*
X163690333Y-98832863D01*
X163972911Y-99364517D01*
X164374602Y-99635794D01*
X164838878Y-99637957D01*
X165108458Y-99511866D01*
X165255977Y-99280906D01*
X165276065Y-98918456D01*
X165163349Y-98397899D01*
X164912457Y-97692614D01*
X164518019Y-96775985D01*
X164067049Y-95813254D01*
X163787813Y-95223592D01*
X163565809Y-94740093D01*
X163428883Y-94424280D01*
X163398563Y-94336143D01*
X163324940Y-94168161D01*
X163139564Y-93843930D01*
X163043512Y-93688222D01*
X162745120Y-93193190D01*
X162422433Y-92627824D01*
X162321737Y-92443905D01*
X161730118Y-91442827D01*
X161044103Y-90440644D01*
X160306595Y-89488451D01*
X159560494Y-88637348D01*
X158848703Y-87938432D01*
X158214125Y-87442802D01*
X158031301Y-87333820D01*
X157636314Y-87197553D01*
X157013820Y-87100817D01*
X156131004Y-87038963D01*
X155878068Y-87028840D01*
X155142161Y-87016357D01*
X154153110Y-87019895D01*
X152959634Y-87037761D01*
X151610449Y-87068259D01*
X150154276Y-87109695D01*
X148639831Y-87160374D01*
X147115832Y-87218602D01*
X145630997Y-87282684D01*
X144234045Y-87350924D01*
X142973693Y-87421629D01*
X141898660Y-87493105D01*
X141400349Y-87532444D01*
X139614838Y-87673131D01*
X137828372Y-87792780D01*
X136074533Y-87890524D01*
X134386906Y-87965499D01*
X132799073Y-88016839D01*
X131344617Y-88043680D01*
X130057124Y-88045157D01*
X128970175Y-88020404D01*
X128117354Y-87968557D01*
X127536064Y-87889562D01*
X126729303Y-87677062D01*
X126070674Y-87390162D01*
X125498250Y-86981545D01*
X124950100Y-86403897D01*
X124364298Y-85609899D01*
X124167683Y-85315946D01*
X123833643Y-84827500D01*
X123544403Y-84438757D01*
X123352741Y-84219847D01*
X123328950Y-84201467D01*
X123105514Y-84217062D01*
X123105514Y-84217062D01*
G37*
X123105514Y-84217062D02*
X122842939Y-84400190D01*
X122659415Y-84609698D01*
X122612871Y-84806731D01*
X122696114Y-85107292D01*
X122784980Y-85334704D01*
X122980343Y-85747474D01*
X123304038Y-86349679D01*
X123718812Y-87077739D01*
X124187414Y-87868073D01*
X124672590Y-88657103D01*
X125137088Y-89381247D01*
X125292819Y-89614919D01*
X125948863Y-90402652D01*
X126769831Y-91117884D01*
X127538613Y-91602578D01*
X127906032Y-91741791D01*
X128477009Y-91904581D01*
X129156751Y-92065319D01*
X129531896Y-92141524D01*
X130222279Y-92287539D01*
X130846320Y-92445283D01*
X131313111Y-92590600D01*
X131470071Y-92656572D01*
X131974936Y-93026258D01*
X132573185Y-93647911D01*
X133247339Y-94492170D01*
X133979918Y-95529677D01*
X134753441Y-96731074D01*
X135550429Y-98067001D01*
X136353401Y-99508100D01*
X137144880Y-101025013D01*
X137907383Y-102588380D01*
X138623432Y-104168843D01*
X139275546Y-105737043D01*
X139309960Y-105824262D01*
X140049921Y-107790218D01*
X140703761Y-109699576D01*
X141266549Y-111528355D01*
X141733352Y-113252577D01*
X142099242Y-114848263D01*
X142359286Y-116291435D01*
X142508554Y-117558113D01*
X142542115Y-118624320D01*
X142455037Y-119466076D01*
X142242391Y-120059403D01*
X142238562Y-120065729D01*
X141787376Y-120531566D01*
X141148504Y-120788394D01*
X140347285Y-120841807D01*
X139409056Y-120697399D01*
X138359156Y-120360766D01*
X137222923Y-119837502D01*
X136025695Y-119133201D01*
X135104327Y-118490532D01*
X134040338Y-117668194D01*
X132839911Y-116689708D01*
X131575980Y-115617090D01*
X130321481Y-114512359D01*
X129149350Y-113437531D01*
X129033937Y-113328851D01*
X128392761Y-112739935D01*
X127821095Y-112246122D01*
X127359830Y-111880587D01*
X127049857Y-111676503D01*
X126958553Y-111645095D01*
X126627380Y-111778618D01*
X126376690Y-112109642D01*
X126268551Y-112533847D01*
X126291579Y-112766147D01*
X126451008Y-113030955D01*
X126821004Y-113454602D01*
X127372347Y-114011705D01*
X128075821Y-114676881D01*
X128902205Y-115424749D01*
X129822282Y-116229926D01*
X130806834Y-117067029D01*
X131826641Y-117910677D01*
X132852485Y-118735487D01*
X133855147Y-119516076D01*
X134805410Y-120227062D01*
X135242863Y-120542208D01*
X136981710Y-121671533D01*
X138668705Y-122542889D01*
X140361302Y-123180240D01*
X142116954Y-123607550D01*
X142885396Y-123729938D01*
X143684003Y-123828996D01*
X144272536Y-123870157D01*
X144738037Y-123851690D01*
X145167553Y-123771861D01*
X145495232Y-123677973D01*
X146286064Y-123366203D01*
X146880721Y-122960023D01*
X147331056Y-122402007D01*
X147688922Y-121634731D01*
X147886953Y-121029261D01*
X148079508Y-120099057D01*
X148129205Y-119074706D01*
X148031277Y-117927446D01*
X147780958Y-116628513D01*
X147373483Y-115149142D01*
X146804085Y-113460570D01*
X146494913Y-112627833D01*
X146188488Y-111853955D01*
X145811364Y-110949477D01*
X145400739Y-109999280D01*
X144993808Y-109088242D01*
X144627767Y-108301245D01*
X144374757Y-107789738D01*
X144096288Y-107239673D01*
X143816772Y-106667402D01*
X143775374Y-106580214D01*
X143579788Y-106190376D01*
X143281742Y-105625249D01*
X142927965Y-104972558D01*
X142688158Y-104539143D01*
X142298419Y-103840132D01*
X141907267Y-103137026D01*
X141572493Y-102533777D01*
X141427304Y-102271286D01*
X141116098Y-101735418D01*
X140798874Y-101232740D01*
X140617379Y-100971895D01*
X140391627Y-100647318D01*
X140272119Y-100429398D01*
X140266420Y-100403817D01*
X140185838Y-100243903D01*
X139969141Y-99895550D01*
X139653903Y-99417840D01*
X139434873Y-99096285D01*
X139078128Y-98565323D01*
X138797958Y-98123554D01*
X138632173Y-97831963D01*
X138603325Y-97755198D01*
X138499658Y-97558564D01*
X138367174Y-97425418D01*
X138162721Y-97200651D01*
X137865196Y-96810211D01*
X137578907Y-96397632D01*
X137116576Y-95794259D01*
X136435444Y-95039492D01*
X135561178Y-94159894D01*
X134519446Y-93182026D01*
X134143206Y-92842209D01*
X133538444Y-92300896D01*
X134445587Y-92299965D01*
X134791998Y-92295492D01*
X135403332Y-92283107D01*
X136242257Y-92263742D01*
X137271444Y-92238328D01*
X138453563Y-92207798D01*
X139751285Y-92173084D01*
X141127279Y-92135117D01*
X141730808Y-92118106D01*
X143422961Y-92072561D01*
X144831033Y-92040307D01*
X145973029Y-92021308D01*
X146866956Y-92015531D01*
X147530819Y-92022939D01*
X147982624Y-92043499D01*
X148240378Y-92077175D01*
X148311561Y-92105380D01*
X148491216Y-92350967D01*
X148680994Y-92747440D01*
X148719766Y-92850113D01*
X148840077Y-93133771D01*
X149077293Y-93647741D01*
X149411940Y-94352455D01*
X149824548Y-95208346D01*
X150295643Y-96175844D01*
X150805754Y-97215383D01*
X151335408Y-98287393D01*
X151865133Y-99352306D01*
X152375456Y-100370554D01*
X152846907Y-101302569D01*
X153260012Y-102108782D01*
X153542096Y-102649262D01*
X154082020Y-103659212D01*
X154650663Y-104701919D01*
X155224293Y-105735776D01*
X155779178Y-106719176D01*
X156291587Y-107610511D01*
X156737786Y-108368175D01*
X157094044Y-108950559D01*
X157336630Y-109316056D01*
X157369607Y-109359709D01*
X157571868Y-109654813D01*
X157653325Y-109846778D01*
X157731420Y-110035437D01*
X157931070Y-110379085D01*
X158086935Y-110620139D01*
X158312135Y-110957528D01*
X158667690Y-111491851D01*
X159116951Y-112167961D01*
X159623273Y-112930712D01*
X160066122Y-113598417D01*
X161359246Y-115482388D01*
X162630302Y-117204147D01*
X163863197Y-118745640D01*
X165041840Y-120088813D01*
X166150139Y-121215612D01*
X167172002Y-122107984D01*
X168091336Y-122747874D01*
X168347446Y-122889302D01*
X168825088Y-123074736D01*
X169383803Y-123213347D01*
X169494894Y-123230924D01*
X169891925Y-123247996D01*
X170281164Y-123168618D01*
X170705035Y-122967581D01*
X171205964Y-122619673D01*
X171826377Y-122099683D01*
X172608698Y-121382400D01*
X172614028Y-121377392D01*
X173619857Y-120395586D01*
X174401890Y-119552201D01*
X174953262Y-118855718D01*
X175267111Y-118314617D01*
X175342611Y-118005758D01*
X175279633Y-117591727D01*
X175063499Y-117371368D01*
X174653404Y-117324758D01*
X174117747Y-117407747D01*
X173378043Y-117499181D01*
X172447719Y-117515656D01*
X171427422Y-117463443D01*
X170417800Y-117348810D01*
X169519498Y-117178028D01*
X169242982Y-117104079D01*
X168382327Y-116821892D01*
X167603733Y-116495036D01*
X166808725Y-116075911D01*
X165898827Y-115516915D01*
X165721737Y-115402008D01*
X165170485Y-115003734D01*
X164500520Y-114461230D01*
X163767878Y-113826216D01*
X163028592Y-113150413D01*
X162338698Y-112485539D01*
X161754231Y-111883316D01*
X161331227Y-111395463D01*
X161224928Y-111251484D01*
X160986837Y-110916476D01*
X160628839Y-110427881D01*
X160214658Y-109872352D01*
X160057503Y-109663984D01*
X159658498Y-109125691D01*
X159214358Y-108508591D01*
X158759487Y-107862756D01*
X158328289Y-107238258D01*
X157955169Y-106685167D01*
X157674532Y-106253555D01*
X157520781Y-105993492D01*
X157502134Y-105944975D01*
X157422821Y-105785381D01*
X157226898Y-105485337D01*
X157175199Y-105411802D01*
X156862296Y-104928822D01*
X156438636Y-104209837D01*
X155923480Y-103291842D01*
X155336087Y-102211834D01*
X154695717Y-101006810D01*
X154021628Y-99713765D01*
X153333081Y-98369696D01*
X152649336Y-97011599D01*
X151989651Y-95676471D01*
X151373287Y-94401307D01*
X150819502Y-93223105D01*
X150739186Y-93048666D01*
X150288148Y-92065928D01*
X151665082Y-92019169D01*
X152349272Y-92013255D01*
X153227244Y-92030747D01*
X154191583Y-92068314D01*
X155134873Y-92122625D01*
X155241204Y-92130084D01*
X156731703Y-92279396D01*
X157973858Y-92508960D01*
X159016276Y-92842003D01*
X159907568Y-93301752D01*
X160696344Y-93911433D01*
X161431213Y-94694273D01*
X161909901Y-95316524D01*
X162209784Y-95787189D01*
X162575941Y-96441916D01*
X162959911Y-97184997D01*
X163313236Y-97920724D01*
X163587456Y-98553390D01*
X163690333Y-98832863D01*
X163972911Y-99364517D01*
X164374602Y-99635794D01*
X164838878Y-99637957D01*
X165108458Y-99511866D01*
X165255977Y-99280906D01*
X165276065Y-98918456D01*
X165163349Y-98397899D01*
X164912457Y-97692614D01*
X164518019Y-96775985D01*
X164067049Y-95813254D01*
X163787813Y-95223592D01*
X163565809Y-94740093D01*
X163428883Y-94424280D01*
X163398563Y-94336143D01*
X163324940Y-94168161D01*
X163139564Y-93843930D01*
X163043512Y-93688222D01*
X162745120Y-93193190D01*
X162422433Y-92627824D01*
X162321737Y-92443905D01*
X161730118Y-91442827D01*
X161044103Y-90440644D01*
X160306595Y-89488451D01*
X159560494Y-88637348D01*
X158848703Y-87938432D01*
X158214125Y-87442802D01*
X158031301Y-87333820D01*
X157636314Y-87197553D01*
X157013820Y-87100817D01*
X156131004Y-87038963D01*
X155878068Y-87028840D01*
X155142161Y-87016357D01*
X154153110Y-87019895D01*
X152959634Y-87037761D01*
X151610449Y-87068259D01*
X150154276Y-87109695D01*
X148639831Y-87160374D01*
X147115832Y-87218602D01*
X145630997Y-87282684D01*
X144234045Y-87350924D01*
X142973693Y-87421629D01*
X141898660Y-87493105D01*
X141400349Y-87532444D01*
X139614838Y-87673131D01*
X137828372Y-87792780D01*
X136074533Y-87890524D01*
X134386906Y-87965499D01*
X132799073Y-88016839D01*
X131344617Y-88043680D01*
X130057124Y-88045157D01*
X128970175Y-88020404D01*
X128117354Y-87968557D01*
X127536064Y-87889562D01*
X126729303Y-87677062D01*
X126070674Y-87390162D01*
X125498250Y-86981545D01*
X124950100Y-86403897D01*
X124364298Y-85609899D01*
X124167683Y-85315946D01*
X123833643Y-84827500D01*
X123544403Y-84438757D01*
X123352741Y-84219847D01*
X123328950Y-84201467D01*
X123105514Y-84217062D01*
M02*
