%TF.GenerationSoftware,KiCad,Pcbnew,(5.0.0)*%
%TF.CreationDate,2018-10-23T17:22:46+02:00*%
%TF.ProjectId,S80 Clock Power Reset,53383020436C6F636B20506F77657220,1.0*%
%TF.SameCoordinates,Original*%
%TF.FileFunction,Legend,Top*%
%TF.FilePolarity,Positive*%
%FSLAX46Y46*%
G04 Gerber Fmt 4.6, Leading zero omitted, Abs format (unit mm)*
G04 Created by KiCad (PCBNEW (5.0.0)) date 10/23/18 17:22:46*
%MOMM*%
%LPD*%
G01*
G04 APERTURE LIST*
%ADD10C,0.200000*%
%ADD11C,0.100000*%
%ADD12C,0.150000*%
%ADD13C,0.250000*%
%ADD14C,0.120000*%
G04 APERTURE END LIST*
D10*
X94615000Y-93345000D02*
X94615000Y-80264000D01*
X93980000Y-117094000D02*
X93980000Y-114935000D01*
X93980000Y-120269000D02*
X93980000Y-119634000D01*
X93980000Y-131699000D02*
X93980000Y-132334000D01*
D11*
X184073142Y-116145428D02*
X184030285Y-116188285D01*
X183901714Y-116231142D01*
X183816000Y-116231142D01*
X183687428Y-116188285D01*
X183601714Y-116102571D01*
X183558857Y-116016857D01*
X183516000Y-115845428D01*
X183516000Y-115716857D01*
X183558857Y-115545428D01*
X183601714Y-115459714D01*
X183687428Y-115374000D01*
X183816000Y-115331142D01*
X183901714Y-115331142D01*
X184030285Y-115374000D01*
X184073142Y-115416857D01*
X184587428Y-116231142D02*
X184501714Y-116188285D01*
X184458857Y-116102571D01*
X184458857Y-115331142D01*
X184930285Y-116231142D02*
X184930285Y-115331142D01*
X185016000Y-115888285D02*
X185273142Y-116231142D01*
X185273142Y-115631142D02*
X184930285Y-115974000D01*
X186730285Y-115631142D02*
X186730285Y-116231142D01*
X186516000Y-115288285D02*
X186301714Y-115931142D01*
X186858857Y-115931142D01*
X159943142Y-116145428D02*
X159900285Y-116188285D01*
X159771714Y-116231142D01*
X159686000Y-116231142D01*
X159557428Y-116188285D01*
X159471714Y-116102571D01*
X159428857Y-116016857D01*
X159386000Y-115845428D01*
X159386000Y-115716857D01*
X159428857Y-115545428D01*
X159471714Y-115459714D01*
X159557428Y-115374000D01*
X159686000Y-115331142D01*
X159771714Y-115331142D01*
X159900285Y-115374000D01*
X159943142Y-115416857D01*
X160457428Y-116231142D02*
X160371714Y-116188285D01*
X160328857Y-116102571D01*
X160328857Y-115331142D01*
X160800285Y-116231142D02*
X160800285Y-115331142D01*
X160886000Y-115888285D02*
X161143142Y-116231142D01*
X161143142Y-115631142D02*
X160800285Y-115974000D01*
X162128857Y-115331142D02*
X162686000Y-115331142D01*
X162386000Y-115674000D01*
X162514571Y-115674000D01*
X162600285Y-115716857D01*
X162643142Y-115759714D01*
X162686000Y-115845428D01*
X162686000Y-116059714D01*
X162643142Y-116145428D01*
X162600285Y-116188285D01*
X162514571Y-116231142D01*
X162257428Y-116231142D01*
X162171714Y-116188285D01*
X162128857Y-116145428D01*
X135559142Y-116145428D02*
X135516285Y-116188285D01*
X135387714Y-116231142D01*
X135302000Y-116231142D01*
X135173428Y-116188285D01*
X135087714Y-116102571D01*
X135044857Y-116016857D01*
X135002000Y-115845428D01*
X135002000Y-115716857D01*
X135044857Y-115545428D01*
X135087714Y-115459714D01*
X135173428Y-115374000D01*
X135302000Y-115331142D01*
X135387714Y-115331142D01*
X135516285Y-115374000D01*
X135559142Y-115416857D01*
X136073428Y-116231142D02*
X135987714Y-116188285D01*
X135944857Y-116102571D01*
X135944857Y-115331142D01*
X136416285Y-116231142D02*
X136416285Y-115331142D01*
X136502000Y-115888285D02*
X136759142Y-116231142D01*
X136759142Y-115631142D02*
X136416285Y-115974000D01*
X137787714Y-115416857D02*
X137830571Y-115374000D01*
X137916285Y-115331142D01*
X138130571Y-115331142D01*
X138216285Y-115374000D01*
X138259142Y-115416857D01*
X138302000Y-115502571D01*
X138302000Y-115588285D01*
X138259142Y-115716857D01*
X137744857Y-116231142D01*
X138302000Y-116231142D01*
X111175142Y-116145428D02*
X111132285Y-116188285D01*
X111003714Y-116231142D01*
X110918000Y-116231142D01*
X110789428Y-116188285D01*
X110703714Y-116102571D01*
X110660857Y-116016857D01*
X110618000Y-115845428D01*
X110618000Y-115716857D01*
X110660857Y-115545428D01*
X110703714Y-115459714D01*
X110789428Y-115374000D01*
X110918000Y-115331142D01*
X111003714Y-115331142D01*
X111132285Y-115374000D01*
X111175142Y-115416857D01*
X111689428Y-116231142D02*
X111603714Y-116188285D01*
X111560857Y-116102571D01*
X111560857Y-115331142D01*
X112032285Y-116231142D02*
X112032285Y-115331142D01*
X112118000Y-115888285D02*
X112375142Y-116231142D01*
X112375142Y-115631142D02*
X112032285Y-115974000D01*
X113918000Y-116231142D02*
X113403714Y-116231142D01*
X113660857Y-116231142D02*
X113660857Y-115331142D01*
X113575142Y-115459714D01*
X113489428Y-115545428D01*
X113403714Y-115588285D01*
X88885073Y-113387142D02*
X88837454Y-113434761D01*
X88694597Y-113482380D01*
X88599359Y-113482380D01*
X88456502Y-113434761D01*
X88361264Y-113339523D01*
X88313645Y-113244285D01*
X88266026Y-113053809D01*
X88266026Y-112910952D01*
X88313645Y-112720476D01*
X88361264Y-112625238D01*
X88456502Y-112530000D01*
X88599359Y-112482380D01*
X88694597Y-112482380D01*
X88837454Y-112530000D01*
X88885073Y-112577619D01*
X89456502Y-113482380D02*
X89361264Y-113434761D01*
X89313645Y-113339523D01*
X89313645Y-112482380D01*
X89837454Y-113482380D02*
X89837454Y-112482380D01*
X89932692Y-113101428D02*
X90218407Y-113482380D01*
X90218407Y-112815714D02*
X89837454Y-113196666D01*
X91837454Y-112815714D02*
X91837454Y-113482380D01*
X91599359Y-112434761D02*
X91361264Y-113149047D01*
X91980311Y-113149047D01*
X88885073Y-110847142D02*
X88837454Y-110894761D01*
X88694597Y-110942380D01*
X88599359Y-110942380D01*
X88456502Y-110894761D01*
X88361264Y-110799523D01*
X88313645Y-110704285D01*
X88266026Y-110513809D01*
X88266026Y-110370952D01*
X88313645Y-110180476D01*
X88361264Y-110085238D01*
X88456502Y-109990000D01*
X88599359Y-109942380D01*
X88694597Y-109942380D01*
X88837454Y-109990000D01*
X88885073Y-110037619D01*
X89456502Y-110942380D02*
X89361264Y-110894761D01*
X89313645Y-110799523D01*
X89313645Y-109942380D01*
X89837454Y-110942380D02*
X89837454Y-109942380D01*
X89932692Y-110561428D02*
X90218407Y-110942380D01*
X90218407Y-110275714D02*
X89837454Y-110656666D01*
X91313645Y-109942380D02*
X91932692Y-109942380D01*
X91599359Y-110323333D01*
X91742216Y-110323333D01*
X91837454Y-110370952D01*
X91885073Y-110418571D01*
X91932692Y-110513809D01*
X91932692Y-110751904D01*
X91885073Y-110847142D01*
X91837454Y-110894761D01*
X91742216Y-110942380D01*
X91456502Y-110942380D01*
X91361264Y-110894761D01*
X91313645Y-110847142D01*
X88885073Y-108307142D02*
X88837454Y-108354761D01*
X88694597Y-108402380D01*
X88599359Y-108402380D01*
X88456502Y-108354761D01*
X88361264Y-108259523D01*
X88313645Y-108164285D01*
X88266026Y-107973809D01*
X88266026Y-107830952D01*
X88313645Y-107640476D01*
X88361264Y-107545238D01*
X88456502Y-107450000D01*
X88599359Y-107402380D01*
X88694597Y-107402380D01*
X88837454Y-107450000D01*
X88885073Y-107497619D01*
X89456502Y-108402380D02*
X89361264Y-108354761D01*
X89313645Y-108259523D01*
X89313645Y-107402380D01*
X89837454Y-108402380D02*
X89837454Y-107402380D01*
X89932692Y-108021428D02*
X90218407Y-108402380D01*
X90218407Y-107735714D02*
X89837454Y-108116666D01*
X91361264Y-107497619D02*
X91408883Y-107450000D01*
X91504121Y-107402380D01*
X91742216Y-107402380D01*
X91837454Y-107450000D01*
X91885073Y-107497619D01*
X91932692Y-107592857D01*
X91932692Y-107688095D01*
X91885073Y-107830952D01*
X91313645Y-108402380D01*
X91932692Y-108402380D01*
X88885073Y-105767142D02*
X88837454Y-105814761D01*
X88694597Y-105862380D01*
X88599359Y-105862380D01*
X88456502Y-105814761D01*
X88361264Y-105719523D01*
X88313645Y-105624285D01*
X88266026Y-105433809D01*
X88266026Y-105290952D01*
X88313645Y-105100476D01*
X88361264Y-105005238D01*
X88456502Y-104910000D01*
X88599359Y-104862380D01*
X88694597Y-104862380D01*
X88837454Y-104910000D01*
X88885073Y-104957619D01*
X89456502Y-105862380D02*
X89361264Y-105814761D01*
X89313645Y-105719523D01*
X89313645Y-104862380D01*
X89837454Y-105862380D02*
X89837454Y-104862380D01*
X89932692Y-105481428D02*
X90218407Y-105862380D01*
X90218407Y-105195714D02*
X89837454Y-105576666D01*
X91932692Y-105862380D02*
X91361264Y-105862380D01*
X91646978Y-105862380D02*
X91646978Y-104862380D01*
X91551740Y-105005238D01*
X91456502Y-105100476D01*
X91361264Y-105148095D01*
X88238571Y-103258952D02*
X88152857Y-103211333D01*
X88110000Y-103163714D01*
X88067142Y-103068476D01*
X88067142Y-103020857D01*
X88110000Y-102925619D01*
X88152857Y-102878000D01*
X88238571Y-102830380D01*
X88410000Y-102830380D01*
X88495714Y-102878000D01*
X88538571Y-102925619D01*
X88581428Y-103020857D01*
X88581428Y-103068476D01*
X88538571Y-103163714D01*
X88495714Y-103211333D01*
X88410000Y-103258952D01*
X88238571Y-103258952D01*
X88152857Y-103306571D01*
X88110000Y-103354190D01*
X88067142Y-103449428D01*
X88067142Y-103639904D01*
X88110000Y-103735142D01*
X88152857Y-103782761D01*
X88238571Y-103830380D01*
X88410000Y-103830380D01*
X88495714Y-103782761D01*
X88538571Y-103735142D01*
X88581428Y-103639904D01*
X88581428Y-103449428D01*
X88538571Y-103354190D01*
X88495714Y-103306571D01*
X88410000Y-103258952D01*
X89652857Y-103830380D02*
X89652857Y-102830380D01*
X89952857Y-103544666D01*
X90252857Y-102830380D01*
X90252857Y-103830380D01*
X90681428Y-103830380D02*
X90681428Y-102830380D01*
X91067142Y-103830380D02*
X91067142Y-103306571D01*
X91024285Y-103211333D01*
X90938571Y-103163714D01*
X90810000Y-103163714D01*
X90724285Y-103211333D01*
X90681428Y-103258952D01*
X91410000Y-103163714D02*
X91881428Y-103163714D01*
X91410000Y-103830380D01*
X91881428Y-103830380D01*
X88495714Y-100290380D02*
X88324285Y-100290380D01*
X88238571Y-100338000D01*
X88195714Y-100385619D01*
X88110000Y-100528476D01*
X88067142Y-100718952D01*
X88067142Y-101099904D01*
X88110000Y-101195142D01*
X88152857Y-101242761D01*
X88238571Y-101290380D01*
X88410000Y-101290380D01*
X88495714Y-101242761D01*
X88538571Y-101195142D01*
X88581428Y-101099904D01*
X88581428Y-100861809D01*
X88538571Y-100766571D01*
X88495714Y-100718952D01*
X88410000Y-100671333D01*
X88238571Y-100671333D01*
X88152857Y-100718952D01*
X88110000Y-100766571D01*
X88067142Y-100861809D01*
X89652857Y-101290380D02*
X89652857Y-100290380D01*
X89952857Y-101004666D01*
X90252857Y-100290380D01*
X90252857Y-101290380D01*
X90681428Y-101290380D02*
X90681428Y-100290380D01*
X91067142Y-101290380D02*
X91067142Y-100766571D01*
X91024285Y-100671333D01*
X90938571Y-100623714D01*
X90810000Y-100623714D01*
X90724285Y-100671333D01*
X90681428Y-100718952D01*
X91410000Y-100623714D02*
X91881428Y-100623714D01*
X91410000Y-101290380D01*
X91881428Y-101290380D01*
X88495714Y-98083714D02*
X88495714Y-98750380D01*
X88281428Y-97702761D02*
X88067142Y-98417047D01*
X88624285Y-98417047D01*
X89652857Y-98750380D02*
X89652857Y-97750380D01*
X89952857Y-98464666D01*
X90252857Y-97750380D01*
X90252857Y-98750380D01*
X90681428Y-98750380D02*
X90681428Y-97750380D01*
X91067142Y-98750380D02*
X91067142Y-98226571D01*
X91024285Y-98131333D01*
X90938571Y-98083714D01*
X90810000Y-98083714D01*
X90724285Y-98131333D01*
X90681428Y-98178952D01*
X91410000Y-98083714D02*
X91881428Y-98083714D01*
X91410000Y-98750380D01*
X91881428Y-98750380D01*
X88067142Y-95305619D02*
X88110000Y-95258000D01*
X88195714Y-95210380D01*
X88410000Y-95210380D01*
X88495714Y-95258000D01*
X88538571Y-95305619D01*
X88581428Y-95400857D01*
X88581428Y-95496095D01*
X88538571Y-95638952D01*
X88024285Y-96210380D01*
X88581428Y-96210380D01*
X89652857Y-96210380D02*
X89652857Y-95210380D01*
X89952857Y-95924666D01*
X90252857Y-95210380D01*
X90252857Y-96210380D01*
X90681428Y-96210380D02*
X90681428Y-95210380D01*
X91067142Y-96210380D02*
X91067142Y-95686571D01*
X91024285Y-95591333D01*
X90938571Y-95543714D01*
X90810000Y-95543714D01*
X90724285Y-95591333D01*
X90681428Y-95638952D01*
X91410000Y-95543714D02*
X91881428Y-95543714D01*
X91410000Y-96210380D01*
X91881428Y-96210380D01*
D12*
X181261190Y-92591380D02*
X180927857Y-92115190D01*
X180689761Y-92591380D02*
X180689761Y-91591380D01*
X181070714Y-91591380D01*
X181165952Y-91639000D01*
X181213571Y-91686619D01*
X181261190Y-91781857D01*
X181261190Y-91924714D01*
X181213571Y-92019952D01*
X181165952Y-92067571D01*
X181070714Y-92115190D01*
X180689761Y-92115190D01*
X182070714Y-92543761D02*
X181975476Y-92591380D01*
X181785000Y-92591380D01*
X181689761Y-92543761D01*
X181642142Y-92448523D01*
X181642142Y-92067571D01*
X181689761Y-91972333D01*
X181785000Y-91924714D01*
X181975476Y-91924714D01*
X182070714Y-91972333D01*
X182118333Y-92067571D01*
X182118333Y-92162809D01*
X181642142Y-92258047D01*
X182404047Y-91924714D02*
X182785000Y-91924714D01*
X182546904Y-91591380D02*
X182546904Y-92448523D01*
X182594523Y-92543761D01*
X182689761Y-92591380D01*
X182785000Y-92591380D01*
X183118333Y-92591380D02*
X183118333Y-91924714D01*
X183118333Y-92115190D02*
X183165952Y-92019952D01*
X183213571Y-91972333D01*
X183308809Y-91924714D01*
X183404047Y-91924714D01*
X183880238Y-92591380D02*
X183785000Y-92543761D01*
X183737380Y-92496142D01*
X183689761Y-92400904D01*
X183689761Y-92115190D01*
X183737380Y-92019952D01*
X183785000Y-91972333D01*
X183880238Y-91924714D01*
X184023095Y-91924714D01*
X184118333Y-91972333D01*
X184165952Y-92019952D01*
X184213571Y-92115190D01*
X184213571Y-92400904D01*
X184165952Y-92496142D01*
X184118333Y-92543761D01*
X184023095Y-92591380D01*
X183880238Y-92591380D01*
X185832619Y-92543761D02*
X185737380Y-92591380D01*
X185546904Y-92591380D01*
X185451666Y-92543761D01*
X185404047Y-92496142D01*
X185356428Y-92400904D01*
X185356428Y-92115190D01*
X185404047Y-92019952D01*
X185451666Y-91972333D01*
X185546904Y-91924714D01*
X185737380Y-91924714D01*
X185832619Y-91972333D01*
X186404047Y-92591380D02*
X186308809Y-92543761D01*
X186261190Y-92448523D01*
X186261190Y-91591380D01*
X186927857Y-92591380D02*
X186832619Y-92543761D01*
X186785000Y-92496142D01*
X186737380Y-92400904D01*
X186737380Y-92115190D01*
X186785000Y-92019952D01*
X186832619Y-91972333D01*
X186927857Y-91924714D01*
X187070714Y-91924714D01*
X187165952Y-91972333D01*
X187213571Y-92019952D01*
X187261190Y-92115190D01*
X187261190Y-92400904D01*
X187213571Y-92496142D01*
X187165952Y-92543761D01*
X187070714Y-92591380D01*
X186927857Y-92591380D01*
X188118333Y-92543761D02*
X188023095Y-92591380D01*
X187832619Y-92591380D01*
X187737380Y-92543761D01*
X187689761Y-92496142D01*
X187642142Y-92400904D01*
X187642142Y-92115190D01*
X187689761Y-92019952D01*
X187737380Y-91972333D01*
X187832619Y-91924714D01*
X188023095Y-91924714D01*
X188118333Y-91972333D01*
X188546904Y-92591380D02*
X188546904Y-91591380D01*
X188642142Y-92210428D02*
X188927857Y-92591380D01*
X188927857Y-91924714D02*
X188546904Y-92305666D01*
X182880238Y-93669952D02*
X182785000Y-93622333D01*
X182737380Y-93574714D01*
X182689761Y-93479476D01*
X182689761Y-93431857D01*
X182737380Y-93336619D01*
X182785000Y-93289000D01*
X182880238Y-93241380D01*
X183070714Y-93241380D01*
X183165952Y-93289000D01*
X183213571Y-93336619D01*
X183261190Y-93431857D01*
X183261190Y-93479476D01*
X183213571Y-93574714D01*
X183165952Y-93622333D01*
X183070714Y-93669952D01*
X182880238Y-93669952D01*
X182785000Y-93717571D01*
X182737380Y-93765190D01*
X182689761Y-93860428D01*
X182689761Y-94050904D01*
X182737380Y-94146142D01*
X182785000Y-94193761D01*
X182880238Y-94241380D01*
X183070714Y-94241380D01*
X183165952Y-94193761D01*
X183213571Y-94146142D01*
X183261190Y-94050904D01*
X183261190Y-93860428D01*
X183213571Y-93765190D01*
X183165952Y-93717571D01*
X183070714Y-93669952D01*
X184451666Y-94241380D02*
X184451666Y-93241380D01*
X184785000Y-93955666D01*
X185118333Y-93241380D01*
X185118333Y-94241380D01*
X185594523Y-94241380D02*
X185594523Y-93241380D01*
X186023095Y-94241380D02*
X186023095Y-93717571D01*
X185975476Y-93622333D01*
X185880238Y-93574714D01*
X185737380Y-93574714D01*
X185642142Y-93622333D01*
X185594523Y-93669952D01*
X186404047Y-93574714D02*
X186927857Y-93574714D01*
X186404047Y-94241380D01*
X186927857Y-94241380D01*
X157131190Y-92591380D02*
X156797857Y-92115190D01*
X156559761Y-92591380D02*
X156559761Y-91591380D01*
X156940714Y-91591380D01*
X157035952Y-91639000D01*
X157083571Y-91686619D01*
X157131190Y-91781857D01*
X157131190Y-91924714D01*
X157083571Y-92019952D01*
X157035952Y-92067571D01*
X156940714Y-92115190D01*
X156559761Y-92115190D01*
X157940714Y-92543761D02*
X157845476Y-92591380D01*
X157655000Y-92591380D01*
X157559761Y-92543761D01*
X157512142Y-92448523D01*
X157512142Y-92067571D01*
X157559761Y-91972333D01*
X157655000Y-91924714D01*
X157845476Y-91924714D01*
X157940714Y-91972333D01*
X157988333Y-92067571D01*
X157988333Y-92162809D01*
X157512142Y-92258047D01*
X158274047Y-91924714D02*
X158655000Y-91924714D01*
X158416904Y-91591380D02*
X158416904Y-92448523D01*
X158464523Y-92543761D01*
X158559761Y-92591380D01*
X158655000Y-92591380D01*
X158988333Y-92591380D02*
X158988333Y-91924714D01*
X158988333Y-92115190D02*
X159035952Y-92019952D01*
X159083571Y-91972333D01*
X159178809Y-91924714D01*
X159274047Y-91924714D01*
X159750238Y-92591380D02*
X159655000Y-92543761D01*
X159607380Y-92496142D01*
X159559761Y-92400904D01*
X159559761Y-92115190D01*
X159607380Y-92019952D01*
X159655000Y-91972333D01*
X159750238Y-91924714D01*
X159893095Y-91924714D01*
X159988333Y-91972333D01*
X160035952Y-92019952D01*
X160083571Y-92115190D01*
X160083571Y-92400904D01*
X160035952Y-92496142D01*
X159988333Y-92543761D01*
X159893095Y-92591380D01*
X159750238Y-92591380D01*
X161702619Y-92543761D02*
X161607380Y-92591380D01*
X161416904Y-92591380D01*
X161321666Y-92543761D01*
X161274047Y-92496142D01*
X161226428Y-92400904D01*
X161226428Y-92115190D01*
X161274047Y-92019952D01*
X161321666Y-91972333D01*
X161416904Y-91924714D01*
X161607380Y-91924714D01*
X161702619Y-91972333D01*
X162274047Y-92591380D02*
X162178809Y-92543761D01*
X162131190Y-92448523D01*
X162131190Y-91591380D01*
X162797857Y-92591380D02*
X162702619Y-92543761D01*
X162655000Y-92496142D01*
X162607380Y-92400904D01*
X162607380Y-92115190D01*
X162655000Y-92019952D01*
X162702619Y-91972333D01*
X162797857Y-91924714D01*
X162940714Y-91924714D01*
X163035952Y-91972333D01*
X163083571Y-92019952D01*
X163131190Y-92115190D01*
X163131190Y-92400904D01*
X163083571Y-92496142D01*
X163035952Y-92543761D01*
X162940714Y-92591380D01*
X162797857Y-92591380D01*
X163988333Y-92543761D02*
X163893095Y-92591380D01*
X163702619Y-92591380D01*
X163607380Y-92543761D01*
X163559761Y-92496142D01*
X163512142Y-92400904D01*
X163512142Y-92115190D01*
X163559761Y-92019952D01*
X163607380Y-91972333D01*
X163702619Y-91924714D01*
X163893095Y-91924714D01*
X163988333Y-91972333D01*
X164416904Y-92591380D02*
X164416904Y-91591380D01*
X164512142Y-92210428D02*
X164797857Y-92591380D01*
X164797857Y-91924714D02*
X164416904Y-92305666D01*
X159035952Y-93241380D02*
X158845476Y-93241380D01*
X158750238Y-93289000D01*
X158702619Y-93336619D01*
X158607380Y-93479476D01*
X158559761Y-93669952D01*
X158559761Y-94050904D01*
X158607380Y-94146142D01*
X158655000Y-94193761D01*
X158750238Y-94241380D01*
X158940714Y-94241380D01*
X159035952Y-94193761D01*
X159083571Y-94146142D01*
X159131190Y-94050904D01*
X159131190Y-93812809D01*
X159083571Y-93717571D01*
X159035952Y-93669952D01*
X158940714Y-93622333D01*
X158750238Y-93622333D01*
X158655000Y-93669952D01*
X158607380Y-93717571D01*
X158559761Y-93812809D01*
X160321666Y-94241380D02*
X160321666Y-93241380D01*
X160655000Y-93955666D01*
X160988333Y-93241380D01*
X160988333Y-94241380D01*
X161464523Y-94241380D02*
X161464523Y-93241380D01*
X161893095Y-94241380D02*
X161893095Y-93717571D01*
X161845476Y-93622333D01*
X161750238Y-93574714D01*
X161607380Y-93574714D01*
X161512142Y-93622333D01*
X161464523Y-93669952D01*
X162274047Y-93574714D02*
X162797857Y-93574714D01*
X162274047Y-94241380D01*
X162797857Y-94241380D01*
X133001190Y-92591380D02*
X132667857Y-92115190D01*
X132429761Y-92591380D02*
X132429761Y-91591380D01*
X132810714Y-91591380D01*
X132905952Y-91639000D01*
X132953571Y-91686619D01*
X133001190Y-91781857D01*
X133001190Y-91924714D01*
X132953571Y-92019952D01*
X132905952Y-92067571D01*
X132810714Y-92115190D01*
X132429761Y-92115190D01*
X133810714Y-92543761D02*
X133715476Y-92591380D01*
X133525000Y-92591380D01*
X133429761Y-92543761D01*
X133382142Y-92448523D01*
X133382142Y-92067571D01*
X133429761Y-91972333D01*
X133525000Y-91924714D01*
X133715476Y-91924714D01*
X133810714Y-91972333D01*
X133858333Y-92067571D01*
X133858333Y-92162809D01*
X133382142Y-92258047D01*
X134144047Y-91924714D02*
X134525000Y-91924714D01*
X134286904Y-91591380D02*
X134286904Y-92448523D01*
X134334523Y-92543761D01*
X134429761Y-92591380D01*
X134525000Y-92591380D01*
X134858333Y-92591380D02*
X134858333Y-91924714D01*
X134858333Y-92115190D02*
X134905952Y-92019952D01*
X134953571Y-91972333D01*
X135048809Y-91924714D01*
X135144047Y-91924714D01*
X135620238Y-92591380D02*
X135525000Y-92543761D01*
X135477380Y-92496142D01*
X135429761Y-92400904D01*
X135429761Y-92115190D01*
X135477380Y-92019952D01*
X135525000Y-91972333D01*
X135620238Y-91924714D01*
X135763095Y-91924714D01*
X135858333Y-91972333D01*
X135905952Y-92019952D01*
X135953571Y-92115190D01*
X135953571Y-92400904D01*
X135905952Y-92496142D01*
X135858333Y-92543761D01*
X135763095Y-92591380D01*
X135620238Y-92591380D01*
X137572619Y-92543761D02*
X137477380Y-92591380D01*
X137286904Y-92591380D01*
X137191666Y-92543761D01*
X137144047Y-92496142D01*
X137096428Y-92400904D01*
X137096428Y-92115190D01*
X137144047Y-92019952D01*
X137191666Y-91972333D01*
X137286904Y-91924714D01*
X137477380Y-91924714D01*
X137572619Y-91972333D01*
X138144047Y-92591380D02*
X138048809Y-92543761D01*
X138001190Y-92448523D01*
X138001190Y-91591380D01*
X138667857Y-92591380D02*
X138572619Y-92543761D01*
X138525000Y-92496142D01*
X138477380Y-92400904D01*
X138477380Y-92115190D01*
X138525000Y-92019952D01*
X138572619Y-91972333D01*
X138667857Y-91924714D01*
X138810714Y-91924714D01*
X138905952Y-91972333D01*
X138953571Y-92019952D01*
X139001190Y-92115190D01*
X139001190Y-92400904D01*
X138953571Y-92496142D01*
X138905952Y-92543761D01*
X138810714Y-92591380D01*
X138667857Y-92591380D01*
X139858333Y-92543761D02*
X139763095Y-92591380D01*
X139572619Y-92591380D01*
X139477380Y-92543761D01*
X139429761Y-92496142D01*
X139382142Y-92400904D01*
X139382142Y-92115190D01*
X139429761Y-92019952D01*
X139477380Y-91972333D01*
X139572619Y-91924714D01*
X139763095Y-91924714D01*
X139858333Y-91972333D01*
X140286904Y-92591380D02*
X140286904Y-91591380D01*
X140382142Y-92210428D02*
X140667857Y-92591380D01*
X140667857Y-91924714D02*
X140286904Y-92305666D01*
X134905952Y-93574714D02*
X134905952Y-94241380D01*
X134667857Y-93193761D02*
X134429761Y-93908047D01*
X135048809Y-93908047D01*
X136191666Y-94241380D02*
X136191666Y-93241380D01*
X136525000Y-93955666D01*
X136858333Y-93241380D01*
X136858333Y-94241380D01*
X137334523Y-94241380D02*
X137334523Y-93241380D01*
X137763095Y-94241380D02*
X137763095Y-93717571D01*
X137715476Y-93622333D01*
X137620238Y-93574714D01*
X137477380Y-93574714D01*
X137382142Y-93622333D01*
X137334523Y-93669952D01*
X138144047Y-93574714D02*
X138667857Y-93574714D01*
X138144047Y-94241380D01*
X138667857Y-94241380D01*
X108871190Y-92591380D02*
X108537857Y-92115190D01*
X108299761Y-92591380D02*
X108299761Y-91591380D01*
X108680714Y-91591380D01*
X108775952Y-91639000D01*
X108823571Y-91686619D01*
X108871190Y-91781857D01*
X108871190Y-91924714D01*
X108823571Y-92019952D01*
X108775952Y-92067571D01*
X108680714Y-92115190D01*
X108299761Y-92115190D01*
X109680714Y-92543761D02*
X109585476Y-92591380D01*
X109395000Y-92591380D01*
X109299761Y-92543761D01*
X109252142Y-92448523D01*
X109252142Y-92067571D01*
X109299761Y-91972333D01*
X109395000Y-91924714D01*
X109585476Y-91924714D01*
X109680714Y-91972333D01*
X109728333Y-92067571D01*
X109728333Y-92162809D01*
X109252142Y-92258047D01*
X110014047Y-91924714D02*
X110395000Y-91924714D01*
X110156904Y-91591380D02*
X110156904Y-92448523D01*
X110204523Y-92543761D01*
X110299761Y-92591380D01*
X110395000Y-92591380D01*
X110728333Y-92591380D02*
X110728333Y-91924714D01*
X110728333Y-92115190D02*
X110775952Y-92019952D01*
X110823571Y-91972333D01*
X110918809Y-91924714D01*
X111014047Y-91924714D01*
X111490238Y-92591380D02*
X111395000Y-92543761D01*
X111347380Y-92496142D01*
X111299761Y-92400904D01*
X111299761Y-92115190D01*
X111347380Y-92019952D01*
X111395000Y-91972333D01*
X111490238Y-91924714D01*
X111633095Y-91924714D01*
X111728333Y-91972333D01*
X111775952Y-92019952D01*
X111823571Y-92115190D01*
X111823571Y-92400904D01*
X111775952Y-92496142D01*
X111728333Y-92543761D01*
X111633095Y-92591380D01*
X111490238Y-92591380D01*
X113442619Y-92543761D02*
X113347380Y-92591380D01*
X113156904Y-92591380D01*
X113061666Y-92543761D01*
X113014047Y-92496142D01*
X112966428Y-92400904D01*
X112966428Y-92115190D01*
X113014047Y-92019952D01*
X113061666Y-91972333D01*
X113156904Y-91924714D01*
X113347380Y-91924714D01*
X113442619Y-91972333D01*
X114014047Y-92591380D02*
X113918809Y-92543761D01*
X113871190Y-92448523D01*
X113871190Y-91591380D01*
X114537857Y-92591380D02*
X114442619Y-92543761D01*
X114395000Y-92496142D01*
X114347380Y-92400904D01*
X114347380Y-92115190D01*
X114395000Y-92019952D01*
X114442619Y-91972333D01*
X114537857Y-91924714D01*
X114680714Y-91924714D01*
X114775952Y-91972333D01*
X114823571Y-92019952D01*
X114871190Y-92115190D01*
X114871190Y-92400904D01*
X114823571Y-92496142D01*
X114775952Y-92543761D01*
X114680714Y-92591380D01*
X114537857Y-92591380D01*
X115728333Y-92543761D02*
X115633095Y-92591380D01*
X115442619Y-92591380D01*
X115347380Y-92543761D01*
X115299761Y-92496142D01*
X115252142Y-92400904D01*
X115252142Y-92115190D01*
X115299761Y-92019952D01*
X115347380Y-91972333D01*
X115442619Y-91924714D01*
X115633095Y-91924714D01*
X115728333Y-91972333D01*
X116156904Y-92591380D02*
X116156904Y-91591380D01*
X116252142Y-92210428D02*
X116537857Y-92591380D01*
X116537857Y-91924714D02*
X116156904Y-92305666D01*
X110299761Y-93336619D02*
X110347380Y-93289000D01*
X110442619Y-93241380D01*
X110680714Y-93241380D01*
X110775952Y-93289000D01*
X110823571Y-93336619D01*
X110871190Y-93431857D01*
X110871190Y-93527095D01*
X110823571Y-93669952D01*
X110252142Y-94241380D01*
X110871190Y-94241380D01*
X112061666Y-94241380D02*
X112061666Y-93241380D01*
X112395000Y-93955666D01*
X112728333Y-93241380D01*
X112728333Y-94241380D01*
X113204523Y-94241380D02*
X113204523Y-93241380D01*
X113633095Y-94241380D02*
X113633095Y-93717571D01*
X113585476Y-93622333D01*
X113490238Y-93574714D01*
X113347380Y-93574714D01*
X113252142Y-93622333D01*
X113204523Y-93669952D01*
X114014047Y-93574714D02*
X114537857Y-93574714D01*
X114014047Y-94241380D01*
X114537857Y-94241380D01*
X180142142Y-108926380D02*
X180142142Y-109735904D01*
X180189761Y-109831142D01*
X180237380Y-109878761D01*
X180332619Y-109926380D01*
X180523095Y-109926380D01*
X180618333Y-109878761D01*
X180665952Y-109831142D01*
X180713571Y-109735904D01*
X180713571Y-108926380D01*
X181142142Y-109878761D02*
X181237380Y-109926380D01*
X181427857Y-109926380D01*
X181523095Y-109878761D01*
X181570714Y-109783523D01*
X181570714Y-109735904D01*
X181523095Y-109640666D01*
X181427857Y-109593047D01*
X181285000Y-109593047D01*
X181189761Y-109545428D01*
X181142142Y-109450190D01*
X181142142Y-109402571D01*
X181189761Y-109307333D01*
X181285000Y-109259714D01*
X181427857Y-109259714D01*
X181523095Y-109307333D01*
X182380238Y-109878761D02*
X182285000Y-109926380D01*
X182094523Y-109926380D01*
X181999285Y-109878761D01*
X181951666Y-109783523D01*
X181951666Y-109402571D01*
X181999285Y-109307333D01*
X182094523Y-109259714D01*
X182285000Y-109259714D01*
X182380238Y-109307333D01*
X182427857Y-109402571D01*
X182427857Y-109497809D01*
X181951666Y-109593047D01*
X182856428Y-109926380D02*
X182856428Y-109259714D01*
X182856428Y-109450190D02*
X182904047Y-109354952D01*
X182951666Y-109307333D01*
X183046904Y-109259714D01*
X183142142Y-109259714D01*
X184665952Y-109878761D02*
X184570714Y-109926380D01*
X184380238Y-109926380D01*
X184285000Y-109878761D01*
X184237380Y-109831142D01*
X184189761Y-109735904D01*
X184189761Y-109450190D01*
X184237380Y-109354952D01*
X184285000Y-109307333D01*
X184380238Y-109259714D01*
X184570714Y-109259714D01*
X184665952Y-109307333D01*
X185237380Y-109926380D02*
X185142142Y-109878761D01*
X185094523Y-109783523D01*
X185094523Y-108926380D01*
X185761190Y-109926380D02*
X185665952Y-109878761D01*
X185618333Y-109831142D01*
X185570714Y-109735904D01*
X185570714Y-109450190D01*
X185618333Y-109354952D01*
X185665952Y-109307333D01*
X185761190Y-109259714D01*
X185904047Y-109259714D01*
X185999285Y-109307333D01*
X186046904Y-109354952D01*
X186094523Y-109450190D01*
X186094523Y-109735904D01*
X186046904Y-109831142D01*
X185999285Y-109878761D01*
X185904047Y-109926380D01*
X185761190Y-109926380D01*
X186951666Y-109878761D02*
X186856428Y-109926380D01*
X186665952Y-109926380D01*
X186570714Y-109878761D01*
X186523095Y-109831142D01*
X186475476Y-109735904D01*
X186475476Y-109450190D01*
X186523095Y-109354952D01*
X186570714Y-109307333D01*
X186665952Y-109259714D01*
X186856428Y-109259714D01*
X186951666Y-109307333D01*
X187380238Y-109926380D02*
X187380238Y-108926380D01*
X187475476Y-109545428D02*
X187761190Y-109926380D01*
X187761190Y-109259714D02*
X187380238Y-109640666D01*
X189380238Y-109259714D02*
X189380238Y-109926380D01*
X189142142Y-108878761D02*
X188904047Y-109593047D01*
X189523095Y-109593047D01*
X156012142Y-108926380D02*
X156012142Y-109735904D01*
X156059761Y-109831142D01*
X156107380Y-109878761D01*
X156202619Y-109926380D01*
X156393095Y-109926380D01*
X156488333Y-109878761D01*
X156535952Y-109831142D01*
X156583571Y-109735904D01*
X156583571Y-108926380D01*
X157012142Y-109878761D02*
X157107380Y-109926380D01*
X157297857Y-109926380D01*
X157393095Y-109878761D01*
X157440714Y-109783523D01*
X157440714Y-109735904D01*
X157393095Y-109640666D01*
X157297857Y-109593047D01*
X157155000Y-109593047D01*
X157059761Y-109545428D01*
X157012142Y-109450190D01*
X157012142Y-109402571D01*
X157059761Y-109307333D01*
X157155000Y-109259714D01*
X157297857Y-109259714D01*
X157393095Y-109307333D01*
X158250238Y-109878761D02*
X158155000Y-109926380D01*
X157964523Y-109926380D01*
X157869285Y-109878761D01*
X157821666Y-109783523D01*
X157821666Y-109402571D01*
X157869285Y-109307333D01*
X157964523Y-109259714D01*
X158155000Y-109259714D01*
X158250238Y-109307333D01*
X158297857Y-109402571D01*
X158297857Y-109497809D01*
X157821666Y-109593047D01*
X158726428Y-109926380D02*
X158726428Y-109259714D01*
X158726428Y-109450190D02*
X158774047Y-109354952D01*
X158821666Y-109307333D01*
X158916904Y-109259714D01*
X159012142Y-109259714D01*
X160535952Y-109878761D02*
X160440714Y-109926380D01*
X160250238Y-109926380D01*
X160155000Y-109878761D01*
X160107380Y-109831142D01*
X160059761Y-109735904D01*
X160059761Y-109450190D01*
X160107380Y-109354952D01*
X160155000Y-109307333D01*
X160250238Y-109259714D01*
X160440714Y-109259714D01*
X160535952Y-109307333D01*
X161107380Y-109926380D02*
X161012142Y-109878761D01*
X160964523Y-109783523D01*
X160964523Y-108926380D01*
X161631190Y-109926380D02*
X161535952Y-109878761D01*
X161488333Y-109831142D01*
X161440714Y-109735904D01*
X161440714Y-109450190D01*
X161488333Y-109354952D01*
X161535952Y-109307333D01*
X161631190Y-109259714D01*
X161774047Y-109259714D01*
X161869285Y-109307333D01*
X161916904Y-109354952D01*
X161964523Y-109450190D01*
X161964523Y-109735904D01*
X161916904Y-109831142D01*
X161869285Y-109878761D01*
X161774047Y-109926380D01*
X161631190Y-109926380D01*
X162821666Y-109878761D02*
X162726428Y-109926380D01*
X162535952Y-109926380D01*
X162440714Y-109878761D01*
X162393095Y-109831142D01*
X162345476Y-109735904D01*
X162345476Y-109450190D01*
X162393095Y-109354952D01*
X162440714Y-109307333D01*
X162535952Y-109259714D01*
X162726428Y-109259714D01*
X162821666Y-109307333D01*
X163250238Y-109926380D02*
X163250238Y-108926380D01*
X163345476Y-109545428D02*
X163631190Y-109926380D01*
X163631190Y-109259714D02*
X163250238Y-109640666D01*
X164726428Y-108926380D02*
X165345476Y-108926380D01*
X165012142Y-109307333D01*
X165155000Y-109307333D01*
X165250238Y-109354952D01*
X165297857Y-109402571D01*
X165345476Y-109497809D01*
X165345476Y-109735904D01*
X165297857Y-109831142D01*
X165250238Y-109878761D01*
X165155000Y-109926380D01*
X164869285Y-109926380D01*
X164774047Y-109878761D01*
X164726428Y-109831142D01*
X107752142Y-108926380D02*
X107752142Y-109735904D01*
X107799761Y-109831142D01*
X107847380Y-109878761D01*
X107942619Y-109926380D01*
X108133095Y-109926380D01*
X108228333Y-109878761D01*
X108275952Y-109831142D01*
X108323571Y-109735904D01*
X108323571Y-108926380D01*
X108752142Y-109878761D02*
X108847380Y-109926380D01*
X109037857Y-109926380D01*
X109133095Y-109878761D01*
X109180714Y-109783523D01*
X109180714Y-109735904D01*
X109133095Y-109640666D01*
X109037857Y-109593047D01*
X108895000Y-109593047D01*
X108799761Y-109545428D01*
X108752142Y-109450190D01*
X108752142Y-109402571D01*
X108799761Y-109307333D01*
X108895000Y-109259714D01*
X109037857Y-109259714D01*
X109133095Y-109307333D01*
X109990238Y-109878761D02*
X109895000Y-109926380D01*
X109704523Y-109926380D01*
X109609285Y-109878761D01*
X109561666Y-109783523D01*
X109561666Y-109402571D01*
X109609285Y-109307333D01*
X109704523Y-109259714D01*
X109895000Y-109259714D01*
X109990238Y-109307333D01*
X110037857Y-109402571D01*
X110037857Y-109497809D01*
X109561666Y-109593047D01*
X110466428Y-109926380D02*
X110466428Y-109259714D01*
X110466428Y-109450190D02*
X110514047Y-109354952D01*
X110561666Y-109307333D01*
X110656904Y-109259714D01*
X110752142Y-109259714D01*
X112275952Y-109878761D02*
X112180714Y-109926380D01*
X111990238Y-109926380D01*
X111895000Y-109878761D01*
X111847380Y-109831142D01*
X111799761Y-109735904D01*
X111799761Y-109450190D01*
X111847380Y-109354952D01*
X111895000Y-109307333D01*
X111990238Y-109259714D01*
X112180714Y-109259714D01*
X112275952Y-109307333D01*
X112847380Y-109926380D02*
X112752142Y-109878761D01*
X112704523Y-109783523D01*
X112704523Y-108926380D01*
X113371190Y-109926380D02*
X113275952Y-109878761D01*
X113228333Y-109831142D01*
X113180714Y-109735904D01*
X113180714Y-109450190D01*
X113228333Y-109354952D01*
X113275952Y-109307333D01*
X113371190Y-109259714D01*
X113514047Y-109259714D01*
X113609285Y-109307333D01*
X113656904Y-109354952D01*
X113704523Y-109450190D01*
X113704523Y-109735904D01*
X113656904Y-109831142D01*
X113609285Y-109878761D01*
X113514047Y-109926380D01*
X113371190Y-109926380D01*
X114561666Y-109878761D02*
X114466428Y-109926380D01*
X114275952Y-109926380D01*
X114180714Y-109878761D01*
X114133095Y-109831142D01*
X114085476Y-109735904D01*
X114085476Y-109450190D01*
X114133095Y-109354952D01*
X114180714Y-109307333D01*
X114275952Y-109259714D01*
X114466428Y-109259714D01*
X114561666Y-109307333D01*
X114990238Y-109926380D02*
X114990238Y-108926380D01*
X115085476Y-109545428D02*
X115371190Y-109926380D01*
X115371190Y-109259714D02*
X114990238Y-109640666D01*
X117085476Y-109926380D02*
X116514047Y-109926380D01*
X116799761Y-109926380D02*
X116799761Y-108926380D01*
X116704523Y-109069238D01*
X116609285Y-109164476D01*
X116514047Y-109212095D01*
X131882142Y-108926380D02*
X131882142Y-109735904D01*
X131929761Y-109831142D01*
X131977380Y-109878761D01*
X132072619Y-109926380D01*
X132263095Y-109926380D01*
X132358333Y-109878761D01*
X132405952Y-109831142D01*
X132453571Y-109735904D01*
X132453571Y-108926380D01*
X132882142Y-109878761D02*
X132977380Y-109926380D01*
X133167857Y-109926380D01*
X133263095Y-109878761D01*
X133310714Y-109783523D01*
X133310714Y-109735904D01*
X133263095Y-109640666D01*
X133167857Y-109593047D01*
X133025000Y-109593047D01*
X132929761Y-109545428D01*
X132882142Y-109450190D01*
X132882142Y-109402571D01*
X132929761Y-109307333D01*
X133025000Y-109259714D01*
X133167857Y-109259714D01*
X133263095Y-109307333D01*
X134120238Y-109878761D02*
X134025000Y-109926380D01*
X133834523Y-109926380D01*
X133739285Y-109878761D01*
X133691666Y-109783523D01*
X133691666Y-109402571D01*
X133739285Y-109307333D01*
X133834523Y-109259714D01*
X134025000Y-109259714D01*
X134120238Y-109307333D01*
X134167857Y-109402571D01*
X134167857Y-109497809D01*
X133691666Y-109593047D01*
X134596428Y-109926380D02*
X134596428Y-109259714D01*
X134596428Y-109450190D02*
X134644047Y-109354952D01*
X134691666Y-109307333D01*
X134786904Y-109259714D01*
X134882142Y-109259714D01*
X136405952Y-109878761D02*
X136310714Y-109926380D01*
X136120238Y-109926380D01*
X136025000Y-109878761D01*
X135977380Y-109831142D01*
X135929761Y-109735904D01*
X135929761Y-109450190D01*
X135977380Y-109354952D01*
X136025000Y-109307333D01*
X136120238Y-109259714D01*
X136310714Y-109259714D01*
X136405952Y-109307333D01*
X136977380Y-109926380D02*
X136882142Y-109878761D01*
X136834523Y-109783523D01*
X136834523Y-108926380D01*
X137501190Y-109926380D02*
X137405952Y-109878761D01*
X137358333Y-109831142D01*
X137310714Y-109735904D01*
X137310714Y-109450190D01*
X137358333Y-109354952D01*
X137405952Y-109307333D01*
X137501190Y-109259714D01*
X137644047Y-109259714D01*
X137739285Y-109307333D01*
X137786904Y-109354952D01*
X137834523Y-109450190D01*
X137834523Y-109735904D01*
X137786904Y-109831142D01*
X137739285Y-109878761D01*
X137644047Y-109926380D01*
X137501190Y-109926380D01*
X138691666Y-109878761D02*
X138596428Y-109926380D01*
X138405952Y-109926380D01*
X138310714Y-109878761D01*
X138263095Y-109831142D01*
X138215476Y-109735904D01*
X138215476Y-109450190D01*
X138263095Y-109354952D01*
X138310714Y-109307333D01*
X138405952Y-109259714D01*
X138596428Y-109259714D01*
X138691666Y-109307333D01*
X139120238Y-109926380D02*
X139120238Y-108926380D01*
X139215476Y-109545428D02*
X139501190Y-109926380D01*
X139501190Y-109259714D02*
X139120238Y-109640666D01*
X140644047Y-109021619D02*
X140691666Y-108974000D01*
X140786904Y-108926380D01*
X141025000Y-108926380D01*
X141120238Y-108974000D01*
X141167857Y-109021619D01*
X141215476Y-109116857D01*
X141215476Y-109212095D01*
X141167857Y-109354952D01*
X140596428Y-109926380D01*
X141215476Y-109926380D01*
D10*
X156972000Y-80264000D02*
X198120000Y-80264000D01*
X94615000Y-80264000D02*
X144018000Y-80264000D01*
X146280714Y-80799714D02*
X146209285Y-80871142D01*
X145995000Y-80942571D01*
X145852142Y-80942571D01*
X145637857Y-80871142D01*
X145495000Y-80728285D01*
X145423571Y-80585428D01*
X145352142Y-80299714D01*
X145352142Y-80085428D01*
X145423571Y-79799714D01*
X145495000Y-79656857D01*
X145637857Y-79514000D01*
X145852142Y-79442571D01*
X145995000Y-79442571D01*
X146209285Y-79514000D01*
X146280714Y-79585428D01*
X147137857Y-80942571D02*
X146995000Y-80871142D01*
X146923571Y-80728285D01*
X146923571Y-79442571D01*
X147923571Y-80942571D02*
X147780714Y-80871142D01*
X147709285Y-80799714D01*
X147637857Y-80656857D01*
X147637857Y-80228285D01*
X147709285Y-80085428D01*
X147780714Y-80014000D01*
X147923571Y-79942571D01*
X148137857Y-79942571D01*
X148280714Y-80014000D01*
X148352142Y-80085428D01*
X148423571Y-80228285D01*
X148423571Y-80656857D01*
X148352142Y-80799714D01*
X148280714Y-80871142D01*
X148137857Y-80942571D01*
X147923571Y-80942571D01*
X149709285Y-80871142D02*
X149566428Y-80942571D01*
X149280714Y-80942571D01*
X149137857Y-80871142D01*
X149066428Y-80799714D01*
X148995000Y-80656857D01*
X148995000Y-80228285D01*
X149066428Y-80085428D01*
X149137857Y-80014000D01*
X149280714Y-79942571D01*
X149566428Y-79942571D01*
X149709285Y-80014000D01*
X150352142Y-80942571D02*
X150352142Y-79442571D01*
X150495000Y-80371142D02*
X150923571Y-80942571D01*
X150923571Y-79942571D02*
X150352142Y-80514000D01*
X153495000Y-80942571D02*
X152637857Y-80942571D01*
X153066428Y-80942571D02*
X153066428Y-79442571D01*
X152923571Y-79656857D01*
X152780714Y-79799714D01*
X152637857Y-79871142D01*
X154137857Y-80799714D02*
X154209285Y-80871142D01*
X154137857Y-80942571D01*
X154066428Y-80871142D01*
X154137857Y-80799714D01*
X154137857Y-80942571D01*
X155137857Y-79442571D02*
X155280714Y-79442571D01*
X155423571Y-79514000D01*
X155495000Y-79585428D01*
X155566428Y-79728285D01*
X155637857Y-80014000D01*
X155637857Y-80371142D01*
X155566428Y-80656857D01*
X155495000Y-80799714D01*
X155423571Y-80871142D01*
X155280714Y-80942571D01*
X155137857Y-80942571D01*
X154995000Y-80871142D01*
X154923571Y-80799714D01*
X154852142Y-80656857D01*
X154780714Y-80371142D01*
X154780714Y-80014000D01*
X154852142Y-79728285D01*
X154923571Y-79585428D01*
X154995000Y-79514000D01*
X155137857Y-79442571D01*
X198120000Y-80264000D02*
X198120000Y-117094000D01*
X198120000Y-117094000D02*
X93980000Y-117094000D01*
X99270714Y-120312571D02*
X99270714Y-118812571D01*
X99842142Y-118812571D01*
X99985000Y-118884000D01*
X100056428Y-118955428D01*
X100127857Y-119098285D01*
X100127857Y-119312571D01*
X100056428Y-119455428D01*
X99985000Y-119526857D01*
X99842142Y-119598285D01*
X99270714Y-119598285D01*
X100985000Y-120312571D02*
X100842142Y-120241142D01*
X100770714Y-120169714D01*
X100699285Y-120026857D01*
X100699285Y-119598285D01*
X100770714Y-119455428D01*
X100842142Y-119384000D01*
X100985000Y-119312571D01*
X101199285Y-119312571D01*
X101342142Y-119384000D01*
X101413571Y-119455428D01*
X101485000Y-119598285D01*
X101485000Y-120026857D01*
X101413571Y-120169714D01*
X101342142Y-120241142D01*
X101199285Y-120312571D01*
X100985000Y-120312571D01*
X101985000Y-119312571D02*
X102270714Y-120312571D01*
X102556428Y-119598285D01*
X102842142Y-120312571D01*
X103127857Y-119312571D01*
X104270714Y-120241142D02*
X104127857Y-120312571D01*
X103842142Y-120312571D01*
X103699285Y-120241142D01*
X103627857Y-120098285D01*
X103627857Y-119526857D01*
X103699285Y-119384000D01*
X103842142Y-119312571D01*
X104127857Y-119312571D01*
X104270714Y-119384000D01*
X104342142Y-119526857D01*
X104342142Y-119669714D01*
X103627857Y-119812571D01*
X104985000Y-120312571D02*
X104985000Y-119312571D01*
X104985000Y-119598285D02*
X105056428Y-119455428D01*
X105127857Y-119384000D01*
X105270714Y-119312571D01*
X105413571Y-119312571D01*
X93980000Y-119634000D02*
X97536000Y-119634000D01*
X110490000Y-119634000D02*
X106680000Y-119634000D01*
X110490000Y-132334000D02*
X110490000Y-119634000D01*
X93980000Y-132334000D02*
X110490000Y-132334000D01*
X200025000Y-131699000D02*
X199390000Y-131699000D01*
X211455000Y-131699000D02*
X210185000Y-131699000D01*
X211455000Y-131699000D02*
X211455000Y-80264000D01*
X199390000Y-80264000D02*
X200660000Y-80264000D01*
X199390000Y-80264000D02*
X199390000Y-131699000D01*
X209550000Y-80264000D02*
X211455000Y-80264000D01*
X203120857Y-80942571D02*
X202620857Y-80228285D01*
X202263714Y-80942571D02*
X202263714Y-79442571D01*
X202835142Y-79442571D01*
X202978000Y-79514000D01*
X203049428Y-79585428D01*
X203120857Y-79728285D01*
X203120857Y-79942571D01*
X203049428Y-80085428D01*
X202978000Y-80156857D01*
X202835142Y-80228285D01*
X202263714Y-80228285D01*
X204335142Y-80871142D02*
X204192285Y-80942571D01*
X203906571Y-80942571D01*
X203763714Y-80871142D01*
X203692285Y-80728285D01*
X203692285Y-80156857D01*
X203763714Y-80014000D01*
X203906571Y-79942571D01*
X204192285Y-79942571D01*
X204335142Y-80014000D01*
X204406571Y-80156857D01*
X204406571Y-80299714D01*
X203692285Y-80442571D01*
X204978000Y-80871142D02*
X205120857Y-80942571D01*
X205406571Y-80942571D01*
X205549428Y-80871142D01*
X205620857Y-80728285D01*
X205620857Y-80656857D01*
X205549428Y-80514000D01*
X205406571Y-80442571D01*
X205192285Y-80442571D01*
X205049428Y-80371142D01*
X204978000Y-80228285D01*
X204978000Y-80156857D01*
X205049428Y-80014000D01*
X205192285Y-79942571D01*
X205406571Y-79942571D01*
X205549428Y-80014000D01*
X206835142Y-80871142D02*
X206692285Y-80942571D01*
X206406571Y-80942571D01*
X206263714Y-80871142D01*
X206192285Y-80728285D01*
X206192285Y-80156857D01*
X206263714Y-80014000D01*
X206406571Y-79942571D01*
X206692285Y-79942571D01*
X206835142Y-80014000D01*
X206906571Y-80156857D01*
X206906571Y-80299714D01*
X206192285Y-80442571D01*
X207335142Y-79942571D02*
X207906571Y-79942571D01*
X207549428Y-79442571D02*
X207549428Y-80728285D01*
X207620857Y-80871142D01*
X207763714Y-80942571D01*
X207906571Y-80942571D01*
D11*
X96711904Y-121674000D02*
X96616666Y-121626380D01*
X96473809Y-121626380D01*
X96330952Y-121674000D01*
X96235714Y-121769238D01*
X96188095Y-121864476D01*
X96140476Y-122054952D01*
X96140476Y-122197809D01*
X96188095Y-122388285D01*
X96235714Y-122483523D01*
X96330952Y-122578761D01*
X96473809Y-122626380D01*
X96569047Y-122626380D01*
X96711904Y-122578761D01*
X96759523Y-122531142D01*
X96759523Y-122197809D01*
X96569047Y-122197809D01*
X97188095Y-121959714D02*
X97188095Y-122626380D01*
X97188095Y-122054952D02*
X97235714Y-122007333D01*
X97330952Y-121959714D01*
X97473809Y-121959714D01*
X97569047Y-122007333D01*
X97616666Y-122102571D01*
X97616666Y-122626380D01*
X98521428Y-122626380D02*
X98521428Y-121626380D01*
X98521428Y-122578761D02*
X98426190Y-122626380D01*
X98235714Y-122626380D01*
X98140476Y-122578761D01*
X98092857Y-122531142D01*
X98045238Y-122435904D01*
X98045238Y-122150190D01*
X98092857Y-122054952D01*
X98140476Y-122007333D01*
X98235714Y-121959714D01*
X98426190Y-121959714D01*
X98521428Y-122007333D01*
X96664285Y-124166380D02*
X96188095Y-124166380D01*
X96140476Y-124642571D01*
X96188095Y-124594952D01*
X96283333Y-124547333D01*
X96521428Y-124547333D01*
X96616666Y-124594952D01*
X96664285Y-124642571D01*
X96711904Y-124737809D01*
X96711904Y-124975904D01*
X96664285Y-125071142D01*
X96616666Y-125118761D01*
X96521428Y-125166380D01*
X96283333Y-125166380D01*
X96188095Y-125118761D01*
X96140476Y-125071142D01*
X96997619Y-124166380D02*
X97330952Y-125166380D01*
X97664285Y-124166380D01*
X96045238Y-129246380D02*
X96616666Y-129246380D01*
X96330952Y-130246380D02*
X96330952Y-129246380D01*
X96854761Y-130246380D02*
X97378571Y-129579714D01*
X96854761Y-129579714D02*
X97378571Y-130246380D01*
X96759523Y-127706380D02*
X96426190Y-127230190D01*
X96188095Y-127706380D02*
X96188095Y-126706380D01*
X96569047Y-126706380D01*
X96664285Y-126754000D01*
X96711904Y-126801619D01*
X96759523Y-126896857D01*
X96759523Y-127039714D01*
X96711904Y-127134952D01*
X96664285Y-127182571D01*
X96569047Y-127230190D01*
X96188095Y-127230190D01*
X97092857Y-127706380D02*
X97616666Y-127039714D01*
X97092857Y-127039714D02*
X97616666Y-127706380D01*
X130649523Y-131802380D02*
X131220952Y-131802380D01*
X130935238Y-132802380D02*
X130935238Y-131802380D01*
X131459047Y-132802380D02*
X131982857Y-132135714D01*
X131459047Y-132135714D02*
X131982857Y-132802380D01*
X128684761Y-132802380D02*
X128351428Y-132326190D01*
X128113333Y-132802380D02*
X128113333Y-131802380D01*
X128494285Y-131802380D01*
X128589523Y-131850000D01*
X128637142Y-131897619D01*
X128684761Y-131992857D01*
X128684761Y-132135714D01*
X128637142Y-132230952D01*
X128589523Y-132278571D01*
X128494285Y-132326190D01*
X128113333Y-132326190D01*
X129018095Y-132802380D02*
X129541904Y-132135714D01*
X129018095Y-132135714D02*
X129541904Y-132802380D01*
D12*
X135503329Y-138782834D02*
X135450948Y-138854262D01*
X135293805Y-138925691D01*
X135189043Y-138925691D01*
X135031900Y-138854262D01*
X134927139Y-138711405D01*
X134874758Y-138568548D01*
X134822377Y-138282834D01*
X134822377Y-138068548D01*
X134874758Y-137782834D01*
X134927139Y-137639977D01*
X135031900Y-137497120D01*
X135189043Y-137425691D01*
X135293805Y-137425691D01*
X135450948Y-137497120D01*
X135503329Y-137568548D01*
X136131900Y-138925691D02*
X136027139Y-138854262D01*
X135974758Y-138782834D01*
X135922377Y-138639977D01*
X135922377Y-138211405D01*
X135974758Y-138068548D01*
X136027139Y-137997120D01*
X136131900Y-137925691D01*
X136289043Y-137925691D01*
X136393805Y-137997120D01*
X136446186Y-138068548D01*
X136498567Y-138211405D01*
X136498567Y-138639977D01*
X136446186Y-138782834D01*
X136393805Y-138854262D01*
X136289043Y-138925691D01*
X136131900Y-138925691D01*
X136969996Y-137925691D02*
X136969996Y-139425691D01*
X136969996Y-137997120D02*
X137074758Y-137925691D01*
X137284281Y-137925691D01*
X137389043Y-137997120D01*
X137441424Y-138068548D01*
X137493805Y-138211405D01*
X137493805Y-138639977D01*
X137441424Y-138782834D01*
X137389043Y-138854262D01*
X137284281Y-138925691D01*
X137074758Y-138925691D01*
X136969996Y-138854262D01*
X137860472Y-137925691D02*
X138122377Y-138925691D01*
X138384281Y-137925691D02*
X138122377Y-138925691D01*
X138017615Y-139282834D01*
X137965234Y-139354262D01*
X137860472Y-139425691D01*
X138803329Y-138925691D02*
X138803329Y-137925691D01*
X138803329Y-138211405D02*
X138855710Y-138068548D01*
X138908091Y-137997120D01*
X139012853Y-137925691D01*
X139117615Y-137925691D01*
X139484281Y-138925691D02*
X139484281Y-137925691D01*
X139484281Y-137425691D02*
X139431900Y-137497120D01*
X139484281Y-137568548D01*
X139536662Y-137497120D01*
X139484281Y-137425691D01*
X139484281Y-137568548D01*
X140479520Y-137925691D02*
X140479520Y-139139977D01*
X140427139Y-139282834D01*
X140374758Y-139354262D01*
X140269996Y-139425691D01*
X140112853Y-139425691D01*
X140008091Y-139354262D01*
X140479520Y-138854262D02*
X140374758Y-138925691D01*
X140165234Y-138925691D01*
X140060472Y-138854262D01*
X140008091Y-138782834D01*
X139955710Y-138639977D01*
X139955710Y-138211405D01*
X140008091Y-138068548D01*
X140060472Y-137997120D01*
X140165234Y-137925691D01*
X140374758Y-137925691D01*
X140479520Y-137997120D01*
X141003329Y-138925691D02*
X141003329Y-137425691D01*
X141474758Y-138925691D02*
X141474758Y-138139977D01*
X141422377Y-137997120D01*
X141317615Y-137925691D01*
X141160472Y-137925691D01*
X141055710Y-137997120D01*
X141003329Y-138068548D01*
X141841424Y-137925691D02*
X142260472Y-137925691D01*
X141998567Y-137425691D02*
X141998567Y-138711405D01*
X142050948Y-138854262D01*
X142155710Y-138925691D01*
X142260472Y-138925691D01*
X144355710Y-137782834D02*
X144250948Y-137711405D01*
X144041424Y-137711405D01*
X143936662Y-137782834D01*
X143831900Y-137925691D01*
X143779520Y-138068548D01*
X143779520Y-138354262D01*
X143831900Y-138497120D01*
X143936662Y-138639977D01*
X144041424Y-138711405D01*
X144250948Y-138711405D01*
X144355710Y-138639977D01*
X144146186Y-137211405D02*
X143884281Y-137282834D01*
X143622377Y-137497120D01*
X143465234Y-137854262D01*
X143412853Y-138211405D01*
X143465234Y-138568548D01*
X143622377Y-138925691D01*
X143884281Y-139139977D01*
X144146186Y-139211405D01*
X144408091Y-139139977D01*
X144669996Y-138925691D01*
X144827139Y-138568548D01*
X144879520Y-138211405D01*
X144827139Y-137854262D01*
X144669996Y-137497120D01*
X144408091Y-137282834D01*
X144146186Y-137211405D01*
X146136662Y-137568548D02*
X146189043Y-137497120D01*
X146293805Y-137425691D01*
X146555710Y-137425691D01*
X146660472Y-137497120D01*
X146712853Y-137568548D01*
X146765234Y-137711405D01*
X146765234Y-137854262D01*
X146712853Y-138068548D01*
X146084281Y-138925691D01*
X146765234Y-138925691D01*
X147446186Y-137425691D02*
X147550948Y-137425691D01*
X147655710Y-137497120D01*
X147708091Y-137568548D01*
X147760472Y-137711405D01*
X147812853Y-137997120D01*
X147812853Y-138354262D01*
X147760472Y-138639977D01*
X147708091Y-138782834D01*
X147655710Y-138854262D01*
X147550948Y-138925691D01*
X147446186Y-138925691D01*
X147341424Y-138854262D01*
X147289043Y-138782834D01*
X147236662Y-138639977D01*
X147184281Y-138354262D01*
X147184281Y-137997120D01*
X147236662Y-137711405D01*
X147289043Y-137568548D01*
X147341424Y-137497120D01*
X147446186Y-137425691D01*
X148860472Y-138925691D02*
X148231900Y-138925691D01*
X148546186Y-138925691D02*
X148546186Y-137425691D01*
X148441424Y-137639977D01*
X148336662Y-137782834D01*
X148231900Y-137854262D01*
X149489043Y-138068548D02*
X149384281Y-137997120D01*
X149331900Y-137925691D01*
X149279520Y-137782834D01*
X149279520Y-137711405D01*
X149331900Y-137568548D01*
X149384281Y-137497120D01*
X149489043Y-137425691D01*
X149698567Y-137425691D01*
X149803329Y-137497120D01*
X149855710Y-137568548D01*
X149908091Y-137711405D01*
X149908091Y-137782834D01*
X149855710Y-137925691D01*
X149803329Y-137997120D01*
X149698567Y-138068548D01*
X149489043Y-138068548D01*
X149384281Y-138139977D01*
X149331900Y-138211405D01*
X149279520Y-138354262D01*
X149279520Y-138639977D01*
X149331900Y-138782834D01*
X149384281Y-138854262D01*
X149489043Y-138925691D01*
X149698567Y-138925691D01*
X149803329Y-138854262D01*
X149855710Y-138782834D01*
X149908091Y-138639977D01*
X149908091Y-138354262D01*
X149855710Y-138211405D01*
X149803329Y-138139977D01*
X149698567Y-138068548D01*
X151217615Y-138925691D02*
X151217615Y-137425691D01*
X151217615Y-137997120D02*
X151322377Y-137925691D01*
X151531900Y-137925691D01*
X151636662Y-137997120D01*
X151689043Y-138068548D01*
X151741424Y-138211405D01*
X151741424Y-138639977D01*
X151689043Y-138782834D01*
X151636662Y-138854262D01*
X151531900Y-138925691D01*
X151322377Y-138925691D01*
X151217615Y-138854262D01*
X152108091Y-137925691D02*
X152369996Y-138925691D01*
X152631900Y-137925691D02*
X152369996Y-138925691D01*
X152265234Y-139282834D01*
X152212853Y-139354262D01*
X152108091Y-139425691D01*
X154517615Y-138925691D02*
X154150948Y-138211405D01*
X153889043Y-138925691D02*
X153889043Y-137425691D01*
X154308091Y-137425691D01*
X154412853Y-137497120D01*
X154465234Y-137568548D01*
X154517615Y-137711405D01*
X154517615Y-137925691D01*
X154465234Y-138068548D01*
X154412853Y-138139977D01*
X154308091Y-138211405D01*
X153889043Y-138211405D01*
X155879520Y-138925691D02*
X155827139Y-138925691D01*
X155722377Y-138854262D01*
X155565234Y-138639977D01*
X155303329Y-138211405D01*
X155198567Y-137997120D01*
X155146186Y-137782834D01*
X155146186Y-137639977D01*
X155198567Y-137497120D01*
X155303329Y-137425691D01*
X155355710Y-137425691D01*
X155460472Y-137497120D01*
X155512853Y-137639977D01*
X155512853Y-137711405D01*
X155460472Y-137854262D01*
X155408091Y-137925691D01*
X155093805Y-138211405D01*
X155041424Y-138282834D01*
X154989043Y-138425691D01*
X154989043Y-138639977D01*
X155041424Y-138782834D01*
X155093805Y-138854262D01*
X155198567Y-138925691D01*
X155355710Y-138925691D01*
X155460472Y-138854262D01*
X155512853Y-138782834D01*
X155669996Y-138497120D01*
X155722377Y-138282834D01*
X155722377Y-138139977D01*
X156717615Y-138139977D02*
X156350948Y-138139977D01*
X156350948Y-138925691D02*
X156350948Y-137425691D01*
X156874758Y-137425691D01*
X158131900Y-138925691D02*
X158131900Y-137425691D01*
X158550948Y-137425691D01*
X158655710Y-137497120D01*
X158708091Y-137568548D01*
X158760472Y-137711405D01*
X158760472Y-137925691D01*
X158708091Y-138068548D01*
X158655710Y-138139977D01*
X158550948Y-138211405D01*
X158131900Y-138211405D01*
X159127139Y-137925691D02*
X159389043Y-138925691D01*
X159650948Y-137925691D02*
X159389043Y-138925691D01*
X159284281Y-139282834D01*
X159231900Y-139354262D01*
X159127139Y-139425691D01*
X160069996Y-137925691D02*
X160069996Y-138925691D01*
X160069996Y-138068548D02*
X160122377Y-137997120D01*
X160227139Y-137925691D01*
X160384281Y-137925691D01*
X160489043Y-137997120D01*
X160541424Y-138139977D01*
X160541424Y-138925691D01*
X161536662Y-138854262D02*
X161431900Y-138925691D01*
X161222377Y-138925691D01*
X161117615Y-138854262D01*
X161065234Y-138782834D01*
X161012853Y-138639977D01*
X161012853Y-138211405D01*
X161065234Y-138068548D01*
X161117615Y-137997120D01*
X161222377Y-137925691D01*
X161431900Y-137925691D01*
X161536662Y-137997120D01*
X162008091Y-138925691D02*
X162008091Y-137425691D01*
X162112853Y-138354262D02*
X162427139Y-138925691D01*
X162427139Y-137925691D02*
X162008091Y-138497120D01*
X163317615Y-138854262D02*
X163212853Y-138925691D01*
X163003329Y-138925691D01*
X162898567Y-138854262D01*
X162846186Y-138711405D01*
X162846186Y-138139977D01*
X162898567Y-137997120D01*
X163003329Y-137925691D01*
X163212853Y-137925691D01*
X163317615Y-137997120D01*
X163369996Y-138139977D01*
X163369996Y-138282834D01*
X162846186Y-138425691D01*
X163998567Y-138925691D02*
X163893805Y-138854262D01*
X163841424Y-138711405D01*
X163841424Y-137425691D01*
X164365234Y-138854262D02*
X164469996Y-138925691D01*
X164679520Y-138925691D01*
X164784281Y-138854262D01*
X164836662Y-138711405D01*
X164836662Y-138639977D01*
X164784281Y-138497120D01*
X164679520Y-138425691D01*
X164522377Y-138425691D01*
X164417615Y-138354262D01*
X164365234Y-138211405D01*
X164365234Y-138139977D01*
X164417615Y-137997120D01*
X164522377Y-137925691D01*
X164679520Y-137925691D01*
X164784281Y-137997120D01*
D13*
X126764761Y-71124485D02*
X127050476Y-71267342D01*
X127526666Y-71267342D01*
X127717142Y-71124485D01*
X127812380Y-70981628D01*
X127907619Y-70695914D01*
X127907619Y-70410200D01*
X127812380Y-70124485D01*
X127717142Y-69981628D01*
X127526666Y-69838771D01*
X127145714Y-69695914D01*
X126955238Y-69553057D01*
X126860000Y-69410200D01*
X126764761Y-69124485D01*
X126764761Y-68838771D01*
X126860000Y-68553057D01*
X126955238Y-68410200D01*
X127145714Y-68267342D01*
X127621904Y-68267342D01*
X127907619Y-68410200D01*
X128479047Y-69267342D02*
X129240952Y-69267342D01*
X128764761Y-68267342D02*
X128764761Y-70838771D01*
X128860000Y-71124485D01*
X129050476Y-71267342D01*
X129240952Y-71267342D01*
X130764761Y-71267342D02*
X130764761Y-69695914D01*
X130669523Y-69410200D01*
X130479047Y-69267342D01*
X130098095Y-69267342D01*
X129907619Y-69410200D01*
X130764761Y-71124485D02*
X130574285Y-71267342D01*
X130098095Y-71267342D01*
X129907619Y-71124485D01*
X129812380Y-70838771D01*
X129812380Y-70553057D01*
X129907619Y-70267342D01*
X130098095Y-70124485D01*
X130574285Y-70124485D01*
X130764761Y-69981628D01*
X132574285Y-71124485D02*
X132383809Y-71267342D01*
X132002857Y-71267342D01*
X131812380Y-71124485D01*
X131717142Y-70981628D01*
X131621904Y-70695914D01*
X131621904Y-69838771D01*
X131717142Y-69553057D01*
X131812380Y-69410200D01*
X132002857Y-69267342D01*
X132383809Y-69267342D01*
X132574285Y-69410200D01*
X133431428Y-71267342D02*
X133431428Y-68267342D01*
X133621904Y-70124485D02*
X134193333Y-71267342D01*
X134193333Y-69267342D02*
X133431428Y-70410200D01*
X135907619Y-71267342D02*
X135907619Y-69695914D01*
X135812380Y-69410200D01*
X135621904Y-69267342D01*
X135240952Y-69267342D01*
X135050476Y-69410200D01*
X135907619Y-71124485D02*
X135717142Y-71267342D01*
X135240952Y-71267342D01*
X135050476Y-71124485D01*
X134955238Y-70838771D01*
X134955238Y-70553057D01*
X135050476Y-70267342D01*
X135240952Y-70124485D01*
X135717142Y-70124485D01*
X135907619Y-69981628D01*
X136860000Y-71267342D02*
X136860000Y-68267342D01*
X136860000Y-69410200D02*
X137050476Y-69267342D01*
X137431428Y-69267342D01*
X137621904Y-69410200D01*
X137717142Y-69553057D01*
X137812380Y-69838771D01*
X137812380Y-70695914D01*
X137717142Y-70981628D01*
X137621904Y-71124485D01*
X137431428Y-71267342D01*
X137050476Y-71267342D01*
X136860000Y-71124485D01*
X138955238Y-71267342D02*
X138764761Y-71124485D01*
X138669523Y-70838771D01*
X138669523Y-68267342D01*
X140479047Y-71124485D02*
X140288571Y-71267342D01*
X139907619Y-71267342D01*
X139717142Y-71124485D01*
X139621904Y-70838771D01*
X139621904Y-69695914D01*
X139717142Y-69410200D01*
X139907619Y-69267342D01*
X140288571Y-69267342D01*
X140479047Y-69410200D01*
X140574285Y-69695914D01*
X140574285Y-69981628D01*
X139621904Y-70267342D01*
X142764761Y-68267342D02*
X144098095Y-68267342D01*
X142764761Y-71267342D01*
X144098095Y-71267342D01*
X145145714Y-69553057D02*
X144955238Y-69410200D01*
X144860000Y-69267342D01*
X144764761Y-68981628D01*
X144764761Y-68838771D01*
X144860000Y-68553057D01*
X144955238Y-68410200D01*
X145145714Y-68267342D01*
X145526666Y-68267342D01*
X145717142Y-68410200D01*
X145812380Y-68553057D01*
X145907619Y-68838771D01*
X145907619Y-68981628D01*
X145812380Y-69267342D01*
X145717142Y-69410200D01*
X145526666Y-69553057D01*
X145145714Y-69553057D01*
X144955238Y-69695914D01*
X144860000Y-69838771D01*
X144764761Y-70124485D01*
X144764761Y-70695914D01*
X144860000Y-70981628D01*
X144955238Y-71124485D01*
X145145714Y-71267342D01*
X145526666Y-71267342D01*
X145717142Y-71124485D01*
X145812380Y-70981628D01*
X145907619Y-70695914D01*
X145907619Y-70124485D01*
X145812380Y-69838771D01*
X145717142Y-69695914D01*
X145526666Y-69553057D01*
X147145714Y-68267342D02*
X147336190Y-68267342D01*
X147526666Y-68410200D01*
X147621904Y-68553057D01*
X147717142Y-68838771D01*
X147812380Y-69410200D01*
X147812380Y-70124485D01*
X147717142Y-70695914D01*
X147621904Y-70981628D01*
X147526666Y-71124485D01*
X147336190Y-71267342D01*
X147145714Y-71267342D01*
X146955238Y-71124485D01*
X146860000Y-70981628D01*
X146764761Y-70695914D01*
X146669523Y-70124485D01*
X146669523Y-69410200D01*
X146764761Y-68838771D01*
X146860000Y-68553057D01*
X146955238Y-68410200D01*
X147145714Y-68267342D01*
X151336190Y-71267342D02*
X150669523Y-69838771D01*
X150193333Y-71267342D02*
X150193333Y-68267342D01*
X150955238Y-68267342D01*
X151145714Y-68410200D01*
X151240952Y-68553057D01*
X151336190Y-68838771D01*
X151336190Y-69267342D01*
X151240952Y-69553057D01*
X151145714Y-69695914D01*
X150955238Y-69838771D01*
X150193333Y-69838771D01*
X152955238Y-71124485D02*
X152764761Y-71267342D01*
X152383809Y-71267342D01*
X152193333Y-71124485D01*
X152098095Y-70838771D01*
X152098095Y-69695914D01*
X152193333Y-69410200D01*
X152383809Y-69267342D01*
X152764761Y-69267342D01*
X152955238Y-69410200D01*
X153050476Y-69695914D01*
X153050476Y-69981628D01*
X152098095Y-70267342D01*
X153621904Y-69267342D02*
X154383809Y-69267342D01*
X153907619Y-68267342D02*
X153907619Y-70838771D01*
X154002857Y-71124485D01*
X154193333Y-71267342D01*
X154383809Y-71267342D01*
X155050476Y-71267342D02*
X155050476Y-69267342D01*
X155050476Y-69838771D02*
X155145714Y-69553057D01*
X155240952Y-69410200D01*
X155431428Y-69267342D01*
X155621904Y-69267342D01*
X156574285Y-71267342D02*
X156383809Y-71124485D01*
X156288571Y-70981628D01*
X156193333Y-70695914D01*
X156193333Y-69838771D01*
X156288571Y-69553057D01*
X156383809Y-69410200D01*
X156574285Y-69267342D01*
X156860000Y-69267342D01*
X157050476Y-69410200D01*
X157145714Y-69553057D01*
X157240952Y-69838771D01*
X157240952Y-70695914D01*
X157145714Y-70981628D01*
X157050476Y-71124485D01*
X156860000Y-71267342D01*
X156574285Y-71267342D01*
X160764761Y-70981628D02*
X160669523Y-71124485D01*
X160383809Y-71267342D01*
X160193333Y-71267342D01*
X159907619Y-71124485D01*
X159717142Y-70838771D01*
X159621904Y-70553057D01*
X159526666Y-69981628D01*
X159526666Y-69553057D01*
X159621904Y-68981628D01*
X159717142Y-68695914D01*
X159907619Y-68410200D01*
X160193333Y-68267342D01*
X160383809Y-68267342D01*
X160669523Y-68410200D01*
X160764761Y-68553057D01*
X161907619Y-71267342D02*
X161717142Y-71124485D01*
X161621904Y-70981628D01*
X161526666Y-70695914D01*
X161526666Y-69838771D01*
X161621904Y-69553057D01*
X161717142Y-69410200D01*
X161907619Y-69267342D01*
X162193333Y-69267342D01*
X162383809Y-69410200D01*
X162479047Y-69553057D01*
X162574285Y-69838771D01*
X162574285Y-70695914D01*
X162479047Y-70981628D01*
X162383809Y-71124485D01*
X162193333Y-71267342D01*
X161907619Y-71267342D01*
X163431428Y-71267342D02*
X163431428Y-69267342D01*
X163431428Y-69553057D02*
X163526666Y-69410200D01*
X163717142Y-69267342D01*
X164002857Y-69267342D01*
X164193333Y-69410200D01*
X164288571Y-69695914D01*
X164288571Y-71267342D01*
X164288571Y-69695914D02*
X164383809Y-69410200D01*
X164574285Y-69267342D01*
X164860000Y-69267342D01*
X165050476Y-69410200D01*
X165145714Y-69695914D01*
X165145714Y-71267342D01*
X166098095Y-69267342D02*
X166098095Y-72267342D01*
X166098095Y-69410200D02*
X166288571Y-69267342D01*
X166669523Y-69267342D01*
X166860000Y-69410200D01*
X166955238Y-69553057D01*
X167050476Y-69838771D01*
X167050476Y-70695914D01*
X166955238Y-70981628D01*
X166860000Y-71124485D01*
X166669523Y-71267342D01*
X166288571Y-71267342D01*
X166098095Y-71124485D01*
X168764761Y-69267342D02*
X168764761Y-71267342D01*
X167907619Y-69267342D02*
X167907619Y-70838771D01*
X168002857Y-71124485D01*
X168193333Y-71267342D01*
X168479047Y-71267342D01*
X168669523Y-71124485D01*
X168764761Y-70981628D01*
X169431428Y-69267342D02*
X170193333Y-69267342D01*
X169717142Y-68267342D02*
X169717142Y-70838771D01*
X169812380Y-71124485D01*
X170002857Y-71267342D01*
X170193333Y-71267342D01*
X171621904Y-71124485D02*
X171431428Y-71267342D01*
X171050476Y-71267342D01*
X170859999Y-71124485D01*
X170764761Y-70838771D01*
X170764761Y-69695914D01*
X170859999Y-69410200D01*
X171050476Y-69267342D01*
X171431428Y-69267342D01*
X171621904Y-69410200D01*
X171717142Y-69695914D01*
X171717142Y-69981628D01*
X170764761Y-70267342D01*
X172574285Y-71267342D02*
X172574285Y-69267342D01*
X172574285Y-69838771D02*
X172669523Y-69553057D01*
X172764761Y-69410200D01*
X172955238Y-69267342D01*
X173145714Y-69267342D01*
D14*
X150205000Y-84724000D02*
X150205000Y-96874000D01*
X170355000Y-83974000D02*
X150955000Y-83974000D01*
X171105000Y-96124000D02*
X171105000Y-84724000D01*
X150205000Y-96874000D02*
X170355000Y-96874000D01*
X170355000Y-96874000D02*
G75*
G03X171105000Y-96124000I0J750000D01*
G01*
X171105000Y-84724000D02*
G75*
G03X170355000Y-83974000I-750000J0D01*
G01*
X150955000Y-83974000D02*
G75*
G03X150205000Y-84724000I0J-750000D01*
G01*
X139025000Y-98259000D02*
X139025000Y-97944000D01*
X139025000Y-100684000D02*
X139025000Y-100369000D01*
X144265000Y-98259000D02*
X144265000Y-97944000D01*
X144265000Y-100684000D02*
X144265000Y-100369000D01*
X144265000Y-97944000D02*
X139025000Y-97944000D01*
X144265000Y-100684000D02*
X139025000Y-100684000D01*
X124425400Y-72761800D02*
X124425400Y-75361800D01*
X124425400Y-72761800D02*
X175345400Y-72761800D01*
X175345400Y-72761800D02*
X175345400Y-77961800D01*
X127025400Y-77961800D02*
X175345400Y-77961800D01*
X127025400Y-75361800D02*
X127025400Y-77961800D01*
X124425400Y-75361800D02*
X127025400Y-75361800D01*
X124425400Y-77961800D02*
X125755400Y-77961800D01*
X124425400Y-76631800D02*
X124425400Y-77961800D01*
X208126000Y-91751400D02*
X207796000Y-91751400D01*
X208126000Y-98291400D02*
X208126000Y-91751400D01*
X207796000Y-98291400D02*
X208126000Y-98291400D01*
X205386000Y-91751400D02*
X205716000Y-91751400D01*
X205386000Y-98291400D02*
X205386000Y-91751400D01*
X205716000Y-98291400D02*
X205386000Y-98291400D01*
X202541000Y-98291400D02*
X202211000Y-98291400D01*
X202211000Y-98291400D02*
X202211000Y-91751400D01*
X202211000Y-91751400D02*
X202541000Y-91751400D01*
X204621000Y-98291400D02*
X204951000Y-98291400D01*
X204951000Y-98291400D02*
X204951000Y-91751400D01*
X204951000Y-91751400D02*
X204621000Y-91751400D01*
X201934000Y-126722000D02*
X201934000Y-128222000D01*
X203184000Y-130722000D02*
X207684000Y-130722000D01*
X208934000Y-128222000D02*
X208934000Y-126722000D01*
X207684000Y-124222000D02*
X203184000Y-124222000D01*
X207882000Y-104842000D02*
X206232000Y-104842000D01*
X207882000Y-122742000D02*
X207882000Y-104842000D01*
X202582000Y-122742000D02*
X207882000Y-122742000D01*
X202582000Y-104842000D02*
X202582000Y-122742000D01*
X204232000Y-104842000D02*
X202582000Y-104842000D01*
X206232000Y-104842000D02*
G75*
G02X204232000Y-104842000I-1000000J0D01*
G01*
X124908000Y-135153400D02*
X124908000Y-133823400D01*
X124908000Y-133823400D02*
X126238000Y-133823400D01*
X127508000Y-133823400D02*
X145348000Y-133823400D01*
X145348000Y-136483400D02*
X145348000Y-133823400D01*
X127508000Y-136483400D02*
X145348000Y-136483400D01*
X127508000Y-136483400D02*
X127508000Y-133823400D01*
X156946600Y-136483400D02*
X156946600Y-133823400D01*
X156946600Y-136483400D02*
X174786600Y-136483400D01*
X174786600Y-136483400D02*
X174786600Y-133823400D01*
X156946600Y-133823400D02*
X174786600Y-133823400D01*
X154346600Y-133823400D02*
X155676600Y-133823400D01*
X154346600Y-135153400D02*
X154346600Y-133823400D01*
X92650000Y-131124000D02*
X95310000Y-131124000D01*
X92650000Y-123444000D02*
X92650000Y-131124000D01*
X95310000Y-123444000D02*
X95310000Y-131124000D01*
X92650000Y-123444000D02*
X95310000Y-123444000D01*
X92650000Y-122174000D02*
X92650000Y-120844000D01*
X92650000Y-120844000D02*
X93980000Y-120844000D01*
X109975000Y-100684000D02*
X104735000Y-100684000D01*
X109975000Y-97944000D02*
X104735000Y-97944000D01*
X109975000Y-100684000D02*
X109975000Y-100369000D01*
X109975000Y-98259000D02*
X109975000Y-97944000D01*
X104735000Y-100684000D02*
X104735000Y-100369000D01*
X104735000Y-98259000D02*
X104735000Y-97944000D01*
X114895000Y-98259000D02*
X114895000Y-97944000D01*
X114895000Y-100684000D02*
X114895000Y-100369000D01*
X120135000Y-98259000D02*
X120135000Y-97944000D01*
X120135000Y-100684000D02*
X120135000Y-100369000D01*
X120135000Y-97944000D02*
X114895000Y-97944000D01*
X120135000Y-100684000D02*
X114895000Y-100684000D01*
X134105000Y-100684000D02*
X128865000Y-100684000D01*
X134105000Y-97944000D02*
X128865000Y-97944000D01*
X134105000Y-100684000D02*
X134105000Y-100369000D01*
X134105000Y-98259000D02*
X134105000Y-97944000D01*
X128865000Y-100684000D02*
X128865000Y-100369000D01*
X128865000Y-98259000D02*
X128865000Y-97944000D01*
X158235000Y-100684000D02*
X152995000Y-100684000D01*
X158235000Y-97944000D02*
X152995000Y-97944000D01*
X158235000Y-100684000D02*
X158235000Y-100369000D01*
X158235000Y-98259000D02*
X158235000Y-97944000D01*
X152995000Y-100684000D02*
X152995000Y-100369000D01*
X152995000Y-98259000D02*
X152995000Y-97944000D01*
X168395000Y-100684000D02*
X163155000Y-100684000D01*
X168395000Y-97944000D02*
X163155000Y-97944000D01*
X168395000Y-100684000D02*
X168395000Y-100369000D01*
X168395000Y-98259000D02*
X168395000Y-97944000D01*
X163155000Y-100684000D02*
X163155000Y-100369000D01*
X163155000Y-98259000D02*
X163155000Y-97944000D01*
X177125000Y-98259000D02*
X177125000Y-97944000D01*
X177125000Y-100684000D02*
X177125000Y-100369000D01*
X182365000Y-98259000D02*
X182365000Y-97944000D01*
X182365000Y-100684000D02*
X182365000Y-100369000D01*
X182365000Y-97944000D02*
X177125000Y-97944000D01*
X182365000Y-100684000D02*
X177125000Y-100684000D01*
X192525000Y-100684000D02*
X187285000Y-100684000D01*
X192525000Y-97944000D02*
X187285000Y-97944000D01*
X192525000Y-100684000D02*
X192525000Y-100369000D01*
X192525000Y-98259000D02*
X192525000Y-97944000D01*
X187285000Y-100684000D02*
X187285000Y-100369000D01*
X187285000Y-98259000D02*
X187285000Y-97944000D01*
X108685000Y-123679600D02*
X108685000Y-128919600D01*
X105945000Y-123679600D02*
X105945000Y-128919600D01*
X108685000Y-123679600D02*
X108370000Y-123679600D01*
X106260000Y-123679600D02*
X105945000Y-123679600D01*
X108685000Y-128919600D02*
X108370000Y-128919600D01*
X106260000Y-128919600D02*
X105945000Y-128919600D01*
X208355000Y-85852000D02*
G75*
G03X208355000Y-85852000I-3270000J0D01*
G01*
X205085000Y-82622000D02*
X205085000Y-89082000D01*
X205125000Y-82622000D02*
X205125000Y-89082000D01*
X205165000Y-82622000D02*
X205165000Y-89082000D01*
X205205000Y-82624000D02*
X205205000Y-89080000D01*
X205245000Y-82625000D02*
X205245000Y-89079000D01*
X205285000Y-82628000D02*
X205285000Y-89076000D01*
X205325000Y-82630000D02*
X205325000Y-84812000D01*
X205325000Y-86892000D02*
X205325000Y-89074000D01*
X205365000Y-82634000D02*
X205365000Y-84812000D01*
X205365000Y-86892000D02*
X205365000Y-89070000D01*
X205405000Y-82637000D02*
X205405000Y-84812000D01*
X205405000Y-86892000D02*
X205405000Y-89067000D01*
X205445000Y-82641000D02*
X205445000Y-84812000D01*
X205445000Y-86892000D02*
X205445000Y-89063000D01*
X205485000Y-82646000D02*
X205485000Y-84812000D01*
X205485000Y-86892000D02*
X205485000Y-89058000D01*
X205525000Y-82651000D02*
X205525000Y-84812000D01*
X205525000Y-86892000D02*
X205525000Y-89053000D01*
X205565000Y-82657000D02*
X205565000Y-84812000D01*
X205565000Y-86892000D02*
X205565000Y-89047000D01*
X205605000Y-82663000D02*
X205605000Y-84812000D01*
X205605000Y-86892000D02*
X205605000Y-89041000D01*
X205645000Y-82670000D02*
X205645000Y-84812000D01*
X205645000Y-86892000D02*
X205645000Y-89034000D01*
X205685000Y-82677000D02*
X205685000Y-84812000D01*
X205685000Y-86892000D02*
X205685000Y-89027000D01*
X205725000Y-82685000D02*
X205725000Y-84812000D01*
X205725000Y-86892000D02*
X205725000Y-89019000D01*
X205765000Y-82693000D02*
X205765000Y-84812000D01*
X205765000Y-86892000D02*
X205765000Y-89011000D01*
X205806000Y-82702000D02*
X205806000Y-84812000D01*
X205806000Y-86892000D02*
X205806000Y-89002000D01*
X205846000Y-82711000D02*
X205846000Y-84812000D01*
X205846000Y-86892000D02*
X205846000Y-88993000D01*
X205886000Y-82721000D02*
X205886000Y-84812000D01*
X205886000Y-86892000D02*
X205886000Y-88983000D01*
X205926000Y-82731000D02*
X205926000Y-84812000D01*
X205926000Y-86892000D02*
X205926000Y-88973000D01*
X205966000Y-82742000D02*
X205966000Y-84812000D01*
X205966000Y-86892000D02*
X205966000Y-88962000D01*
X206006000Y-82754000D02*
X206006000Y-84812000D01*
X206006000Y-86892000D02*
X206006000Y-88950000D01*
X206046000Y-82766000D02*
X206046000Y-84812000D01*
X206046000Y-86892000D02*
X206046000Y-88938000D01*
X206086000Y-82778000D02*
X206086000Y-84812000D01*
X206086000Y-86892000D02*
X206086000Y-88926000D01*
X206126000Y-82791000D02*
X206126000Y-84812000D01*
X206126000Y-86892000D02*
X206126000Y-88913000D01*
X206166000Y-82805000D02*
X206166000Y-84812000D01*
X206166000Y-86892000D02*
X206166000Y-88899000D01*
X206206000Y-82819000D02*
X206206000Y-84812000D01*
X206206000Y-86892000D02*
X206206000Y-88885000D01*
X206246000Y-82834000D02*
X206246000Y-84812000D01*
X206246000Y-86892000D02*
X206246000Y-88870000D01*
X206286000Y-82850000D02*
X206286000Y-84812000D01*
X206286000Y-86892000D02*
X206286000Y-88854000D01*
X206326000Y-82866000D02*
X206326000Y-84812000D01*
X206326000Y-86892000D02*
X206326000Y-88838000D01*
X206366000Y-82882000D02*
X206366000Y-84812000D01*
X206366000Y-86892000D02*
X206366000Y-88822000D01*
X206406000Y-82900000D02*
X206406000Y-84812000D01*
X206406000Y-86892000D02*
X206406000Y-88804000D01*
X206446000Y-82918000D02*
X206446000Y-84812000D01*
X206446000Y-86892000D02*
X206446000Y-88786000D01*
X206486000Y-82936000D02*
X206486000Y-84812000D01*
X206486000Y-86892000D02*
X206486000Y-88768000D01*
X206526000Y-82956000D02*
X206526000Y-84812000D01*
X206526000Y-86892000D02*
X206526000Y-88748000D01*
X206566000Y-82976000D02*
X206566000Y-84812000D01*
X206566000Y-86892000D02*
X206566000Y-88728000D01*
X206606000Y-82996000D02*
X206606000Y-84812000D01*
X206606000Y-86892000D02*
X206606000Y-88708000D01*
X206646000Y-83018000D02*
X206646000Y-84812000D01*
X206646000Y-86892000D02*
X206646000Y-88686000D01*
X206686000Y-83040000D02*
X206686000Y-84812000D01*
X206686000Y-86892000D02*
X206686000Y-88664000D01*
X206726000Y-83062000D02*
X206726000Y-84812000D01*
X206726000Y-86892000D02*
X206726000Y-88642000D01*
X206766000Y-83086000D02*
X206766000Y-84812000D01*
X206766000Y-86892000D02*
X206766000Y-88618000D01*
X206806000Y-83110000D02*
X206806000Y-84812000D01*
X206806000Y-86892000D02*
X206806000Y-88594000D01*
X206846000Y-83136000D02*
X206846000Y-84812000D01*
X206846000Y-86892000D02*
X206846000Y-88568000D01*
X206886000Y-83162000D02*
X206886000Y-84812000D01*
X206886000Y-86892000D02*
X206886000Y-88542000D01*
X206926000Y-83188000D02*
X206926000Y-84812000D01*
X206926000Y-86892000D02*
X206926000Y-88516000D01*
X206966000Y-83216000D02*
X206966000Y-84812000D01*
X206966000Y-86892000D02*
X206966000Y-88488000D01*
X207006000Y-83245000D02*
X207006000Y-84812000D01*
X207006000Y-86892000D02*
X207006000Y-88459000D01*
X207046000Y-83274000D02*
X207046000Y-84812000D01*
X207046000Y-86892000D02*
X207046000Y-88430000D01*
X207086000Y-83304000D02*
X207086000Y-84812000D01*
X207086000Y-86892000D02*
X207086000Y-88400000D01*
X207126000Y-83336000D02*
X207126000Y-84812000D01*
X207126000Y-86892000D02*
X207126000Y-88368000D01*
X207166000Y-83368000D02*
X207166000Y-84812000D01*
X207166000Y-86892000D02*
X207166000Y-88336000D01*
X207206000Y-83402000D02*
X207206000Y-84812000D01*
X207206000Y-86892000D02*
X207206000Y-88302000D01*
X207246000Y-83436000D02*
X207246000Y-84812000D01*
X207246000Y-86892000D02*
X207246000Y-88268000D01*
X207286000Y-83472000D02*
X207286000Y-84812000D01*
X207286000Y-86892000D02*
X207286000Y-88232000D01*
X207326000Y-83509000D02*
X207326000Y-84812000D01*
X207326000Y-86892000D02*
X207326000Y-88195000D01*
X207366000Y-83547000D02*
X207366000Y-84812000D01*
X207366000Y-86892000D02*
X207366000Y-88157000D01*
X207406000Y-83587000D02*
X207406000Y-88117000D01*
X207446000Y-83628000D02*
X207446000Y-88076000D01*
X207486000Y-83670000D02*
X207486000Y-88034000D01*
X207526000Y-83715000D02*
X207526000Y-87989000D01*
X207566000Y-83760000D02*
X207566000Y-87944000D01*
X207606000Y-83808000D02*
X207606000Y-87896000D01*
X207646000Y-83857000D02*
X207646000Y-87847000D01*
X207686000Y-83908000D02*
X207686000Y-87796000D01*
X207726000Y-83962000D02*
X207726000Y-87742000D01*
X207766000Y-84018000D02*
X207766000Y-87686000D01*
X207806000Y-84076000D02*
X207806000Y-87628000D01*
X207846000Y-84138000D02*
X207846000Y-87566000D01*
X207886000Y-84202000D02*
X207886000Y-87502000D01*
X207926000Y-84271000D02*
X207926000Y-87433000D01*
X207966000Y-84343000D02*
X207966000Y-87361000D01*
X208006000Y-84420000D02*
X208006000Y-87284000D01*
X208046000Y-84502000D02*
X208046000Y-87202000D01*
X208086000Y-84590000D02*
X208086000Y-87114000D01*
X208126000Y-84687000D02*
X208126000Y-87017000D01*
X208166000Y-84793000D02*
X208166000Y-86911000D01*
X208206000Y-84912000D02*
X208206000Y-86792000D01*
X208246000Y-85050000D02*
X208246000Y-86654000D01*
X208286000Y-85219000D02*
X208286000Y-86485000D01*
X208326000Y-85450000D02*
X208326000Y-86254000D01*
X201584759Y-84013000D02*
X202214759Y-84013000D01*
X201899759Y-83698000D02*
X201899759Y-84328000D01*
X202572000Y-100738000D02*
X207812000Y-100738000D01*
X202572000Y-103478000D02*
X207812000Y-103478000D01*
X202572000Y-100738000D02*
X202572000Y-101053000D01*
X202572000Y-103163000D02*
X202572000Y-103478000D01*
X207812000Y-100738000D02*
X207812000Y-101053000D01*
X207812000Y-103163000D02*
X207812000Y-103478000D01*
X101750000Y-128383400D02*
X103990000Y-128383400D01*
X103990000Y-128383400D02*
X103990000Y-124143400D01*
X103990000Y-124143400D02*
X101750000Y-124143400D01*
X101750000Y-124143400D02*
X101750000Y-128383400D01*
X102870000Y-129033400D02*
X102870000Y-128383400D01*
X102870000Y-123493400D02*
X102870000Y-124143400D01*
X101750000Y-127663400D02*
X103990000Y-127663400D01*
X101750000Y-127543400D02*
X103990000Y-127543400D01*
X101750000Y-127783400D02*
X103990000Y-127783400D01*
X101945000Y-84724000D02*
X101945000Y-96874000D01*
X122095000Y-83974000D02*
X102695000Y-83974000D01*
X122845000Y-96124000D02*
X122845000Y-84724000D01*
X101945000Y-96874000D02*
X122095000Y-96874000D01*
X122095000Y-96874000D02*
G75*
G03X122845000Y-96124000I0J750000D01*
G01*
X122845000Y-84724000D02*
G75*
G03X122095000Y-83974000I-750000J0D01*
G01*
X102695000Y-83974000D02*
G75*
G03X101945000Y-84724000I0J-750000D01*
G01*
X102695000Y-101754000D02*
G75*
G03X101945000Y-102504000I0J-750000D01*
G01*
X122845000Y-102504000D02*
G75*
G03X122095000Y-101754000I-750000J0D01*
G01*
X122095000Y-114654000D02*
G75*
G03X122845000Y-113904000I0J750000D01*
G01*
X101945000Y-114654000D02*
X122095000Y-114654000D01*
X122845000Y-113904000D02*
X122845000Y-102504000D01*
X122095000Y-101754000D02*
X102695000Y-101754000D01*
X101945000Y-102504000D02*
X101945000Y-114654000D01*
X126825000Y-83974000D02*
G75*
G03X126075000Y-84724000I0J-750000D01*
G01*
X146975000Y-84724000D02*
G75*
G03X146225000Y-83974000I-750000J0D01*
G01*
X146225000Y-96874000D02*
G75*
G03X146975000Y-96124000I0J750000D01*
G01*
X126075000Y-96874000D02*
X146225000Y-96874000D01*
X146975000Y-96124000D02*
X146975000Y-84724000D01*
X146225000Y-83974000D02*
X126825000Y-83974000D01*
X126075000Y-84724000D02*
X126075000Y-96874000D01*
X126075000Y-102504000D02*
X126075000Y-114654000D01*
X146225000Y-101754000D02*
X126825000Y-101754000D01*
X146975000Y-113904000D02*
X146975000Y-102504000D01*
X126075000Y-114654000D02*
X146225000Y-114654000D01*
X146225000Y-114654000D02*
G75*
G03X146975000Y-113904000I0J750000D01*
G01*
X146975000Y-102504000D02*
G75*
G03X146225000Y-101754000I-750000J0D01*
G01*
X126825000Y-101754000D02*
G75*
G03X126075000Y-102504000I0J-750000D01*
G01*
X150955000Y-101754000D02*
G75*
G03X150205000Y-102504000I0J-750000D01*
G01*
X171105000Y-102504000D02*
G75*
G03X170355000Y-101754000I-750000J0D01*
G01*
X170355000Y-114654000D02*
G75*
G03X171105000Y-113904000I0J750000D01*
G01*
X150205000Y-114654000D02*
X170355000Y-114654000D01*
X171105000Y-113904000D02*
X171105000Y-102504000D01*
X170355000Y-101754000D02*
X150955000Y-101754000D01*
X150205000Y-102504000D02*
X150205000Y-114654000D01*
X174335000Y-84724000D02*
X174335000Y-96874000D01*
X194485000Y-83974000D02*
X175085000Y-83974000D01*
X195235000Y-96124000D02*
X195235000Y-84724000D01*
X174335000Y-96874000D02*
X194485000Y-96874000D01*
X194485000Y-96874000D02*
G75*
G03X195235000Y-96124000I0J750000D01*
G01*
X195235000Y-84724000D02*
G75*
G03X194485000Y-83974000I-750000J0D01*
G01*
X175085000Y-83974000D02*
G75*
G03X174335000Y-84724000I0J-750000D01*
G01*
X174335000Y-102504000D02*
X174335000Y-114654000D01*
X194485000Y-101754000D02*
X175085000Y-101754000D01*
X195235000Y-113904000D02*
X195235000Y-102504000D01*
X174335000Y-114654000D02*
X194485000Y-114654000D01*
X194485000Y-114654000D02*
G75*
G03X195235000Y-113904000I0J750000D01*
G01*
X195235000Y-102504000D02*
G75*
G03X194485000Y-101754000I-750000J0D01*
G01*
X175085000Y-101754000D02*
G75*
G03X174335000Y-102504000I0J-750000D01*
G01*
X92650000Y-93920000D02*
X92650000Y-96580000D01*
X95250000Y-93920000D02*
X92650000Y-93920000D01*
X95250000Y-96580000D02*
X92650000Y-96580000D01*
X95250000Y-93920000D02*
X95250000Y-96580000D01*
X96520000Y-93920000D02*
X97850000Y-93920000D01*
X97850000Y-93920000D02*
X97850000Y-95250000D01*
X92650000Y-104080000D02*
X92650000Y-106740000D01*
X95250000Y-104080000D02*
X92650000Y-104080000D01*
X95250000Y-106740000D02*
X92650000Y-106740000D01*
X95250000Y-104080000D02*
X95250000Y-106740000D01*
X96520000Y-104080000D02*
X97850000Y-104080000D01*
X97850000Y-104080000D02*
X97850000Y-105410000D01*
X97850000Y-96460000D02*
X97850000Y-97790000D01*
X96520000Y-96460000D02*
X97850000Y-96460000D01*
X95250000Y-96460000D02*
X95250000Y-99120000D01*
X95250000Y-99120000D02*
X92650000Y-99120000D01*
X95250000Y-96460000D02*
X92650000Y-96460000D01*
X92650000Y-96460000D02*
X92650000Y-99120000D01*
X97850000Y-106620000D02*
X97850000Y-107950000D01*
X96520000Y-106620000D02*
X97850000Y-106620000D01*
X95250000Y-106620000D02*
X95250000Y-109280000D01*
X95250000Y-109280000D02*
X92650000Y-109280000D01*
X95250000Y-106620000D02*
X92650000Y-106620000D01*
X92650000Y-106620000D02*
X92650000Y-109280000D01*
X92650000Y-99000000D02*
X92650000Y-101660000D01*
X95250000Y-99000000D02*
X92650000Y-99000000D01*
X95250000Y-101660000D02*
X92650000Y-101660000D01*
X95250000Y-99000000D02*
X95250000Y-101660000D01*
X96520000Y-99000000D02*
X97850000Y-99000000D01*
X97850000Y-99000000D02*
X97850000Y-100330000D01*
X92650000Y-109160000D02*
X92650000Y-111820000D01*
X95250000Y-109160000D02*
X92650000Y-109160000D01*
X95250000Y-111820000D02*
X92650000Y-111820000D01*
X95250000Y-109160000D02*
X95250000Y-111820000D01*
X96520000Y-109160000D02*
X97850000Y-109160000D01*
X97850000Y-109160000D02*
X97850000Y-110490000D01*
X97850000Y-101540000D02*
X97850000Y-102870000D01*
X96520000Y-101540000D02*
X97850000Y-101540000D01*
X95250000Y-101540000D02*
X95250000Y-104200000D01*
X95250000Y-104200000D02*
X92650000Y-104200000D01*
X95250000Y-101540000D02*
X92650000Y-101540000D01*
X92650000Y-101540000D02*
X92650000Y-104200000D01*
X97850000Y-111700000D02*
X97850000Y-113030000D01*
X96520000Y-111700000D02*
X97850000Y-111700000D01*
X95250000Y-111700000D02*
X95250000Y-114360000D01*
X95250000Y-114360000D02*
X92650000Y-114360000D01*
X95250000Y-111700000D02*
X92650000Y-111700000D01*
X92650000Y-111700000D02*
X92650000Y-114360000D01*
X95654000Y-90512000D02*
X97894000Y-90512000D01*
X97894000Y-90512000D02*
X97894000Y-86272000D01*
X97894000Y-86272000D02*
X95654000Y-86272000D01*
X95654000Y-86272000D02*
X95654000Y-90512000D01*
X96774000Y-91162000D02*
X96774000Y-90512000D01*
X96774000Y-85622000D02*
X96774000Y-86272000D01*
X95654000Y-89792000D02*
X97894000Y-89792000D01*
X95654000Y-89672000D02*
X97894000Y-89672000D01*
X95654000Y-89912000D02*
X97894000Y-89912000D01*
D12*
X158893095Y-88606380D02*
X159559761Y-89606380D01*
X159559761Y-88606380D02*
X158893095Y-89606380D01*
X159893095Y-88701619D02*
X159940714Y-88654000D01*
X160035952Y-88606380D01*
X160274047Y-88606380D01*
X160369285Y-88654000D01*
X160416904Y-88701619D01*
X160464523Y-88796857D01*
X160464523Y-88892095D01*
X160416904Y-89034952D01*
X159845476Y-89606380D01*
X160464523Y-89606380D01*
X161083571Y-88606380D02*
X161178809Y-88606380D01*
X161274047Y-88654000D01*
X161321666Y-88701619D01*
X161369285Y-88796857D01*
X161416904Y-88987333D01*
X161416904Y-89225428D01*
X161369285Y-89415904D01*
X161321666Y-89511142D01*
X161274047Y-89558761D01*
X161178809Y-89606380D01*
X161083571Y-89606380D01*
X160988333Y-89558761D01*
X160940714Y-89511142D01*
X160893095Y-89415904D01*
X160845476Y-89225428D01*
X160845476Y-88987333D01*
X160893095Y-88796857D01*
X160940714Y-88701619D01*
X160988333Y-88654000D01*
X161083571Y-88606380D01*
X162321666Y-88606380D02*
X161845476Y-88606380D01*
X161797857Y-89082571D01*
X161845476Y-89034952D01*
X161940714Y-88987333D01*
X162178809Y-88987333D01*
X162274047Y-89034952D01*
X162321666Y-89082571D01*
X162369285Y-89177809D01*
X162369285Y-89415904D01*
X162321666Y-89511142D01*
X162274047Y-89558761D01*
X162178809Y-89606380D01*
X161940714Y-89606380D01*
X161845476Y-89558761D01*
X161797857Y-89511142D01*
X140749761Y-99671142D02*
X140711666Y-99718761D01*
X140597380Y-99766380D01*
X140521190Y-99766380D01*
X140406904Y-99718761D01*
X140330714Y-99623523D01*
X140292619Y-99528285D01*
X140254523Y-99337809D01*
X140254523Y-99194952D01*
X140292619Y-99004476D01*
X140330714Y-98909238D01*
X140406904Y-98814000D01*
X140521190Y-98766380D01*
X140597380Y-98766380D01*
X140711666Y-98814000D01*
X140749761Y-98861619D01*
X141054523Y-98861619D02*
X141092619Y-98814000D01*
X141168809Y-98766380D01*
X141359285Y-98766380D01*
X141435476Y-98814000D01*
X141473571Y-98861619D01*
X141511666Y-98956857D01*
X141511666Y-99052095D01*
X141473571Y-99194952D01*
X141016428Y-99766380D01*
X141511666Y-99766380D01*
X142006904Y-98766380D02*
X142083095Y-98766380D01*
X142159285Y-98814000D01*
X142197380Y-98861619D01*
X142235476Y-98956857D01*
X142273571Y-99147333D01*
X142273571Y-99385428D01*
X142235476Y-99575904D01*
X142197380Y-99671142D01*
X142159285Y-99718761D01*
X142083095Y-99766380D01*
X142006904Y-99766380D01*
X141930714Y-99718761D01*
X141892619Y-99671142D01*
X141854523Y-99575904D01*
X141816428Y-99385428D01*
X141816428Y-99147333D01*
X141854523Y-98956857D01*
X141892619Y-98861619D01*
X141930714Y-98814000D01*
X142006904Y-98766380D01*
X142959285Y-99099714D02*
X142959285Y-99766380D01*
X142768809Y-98718761D02*
X142578333Y-99433047D01*
X143073571Y-99433047D01*
X207208380Y-95988047D02*
X206732190Y-96321380D01*
X207208380Y-96559476D02*
X206208380Y-96559476D01*
X206208380Y-96178523D01*
X206256000Y-96083285D01*
X206303619Y-96035666D01*
X206398857Y-95988047D01*
X206541714Y-95988047D01*
X206636952Y-96035666D01*
X206684571Y-96083285D01*
X206732190Y-96178523D01*
X206732190Y-96559476D01*
X206208380Y-95130904D02*
X206208380Y-95321380D01*
X206256000Y-95416619D01*
X206303619Y-95464238D01*
X206446476Y-95559476D01*
X206636952Y-95607095D01*
X207017904Y-95607095D01*
X207113142Y-95559476D01*
X207160761Y-95511857D01*
X207208380Y-95416619D01*
X207208380Y-95226142D01*
X207160761Y-95130904D01*
X207113142Y-95083285D01*
X207017904Y-95035666D01*
X206779809Y-95035666D01*
X206684571Y-95083285D01*
X206636952Y-95130904D01*
X206589333Y-95226142D01*
X206589333Y-95416619D01*
X206636952Y-95511857D01*
X206684571Y-95559476D01*
X206779809Y-95607095D01*
X206208380Y-94416619D02*
X206208380Y-94321380D01*
X206256000Y-94226142D01*
X206303619Y-94178523D01*
X206398857Y-94130904D01*
X206589333Y-94083285D01*
X206827428Y-94083285D01*
X207017904Y-94130904D01*
X207113142Y-94178523D01*
X207160761Y-94226142D01*
X207208380Y-94321380D01*
X207208380Y-94416619D01*
X207160761Y-94511857D01*
X207113142Y-94559476D01*
X207017904Y-94607095D01*
X206827428Y-94654714D01*
X206589333Y-94654714D01*
X206398857Y-94607095D01*
X206303619Y-94559476D01*
X206256000Y-94511857D01*
X206208380Y-94416619D01*
X207208380Y-93130904D02*
X207208380Y-93702333D01*
X207208380Y-93416619D02*
X206208380Y-93416619D01*
X206351238Y-93511857D01*
X206446476Y-93607095D01*
X206494095Y-93702333D01*
X204033380Y-95988047D02*
X203557190Y-96321380D01*
X204033380Y-96559476D02*
X203033380Y-96559476D01*
X203033380Y-96178523D01*
X203081000Y-96083285D01*
X203128619Y-96035666D01*
X203223857Y-95988047D01*
X203366714Y-95988047D01*
X203461952Y-96035666D01*
X203509571Y-96083285D01*
X203557190Y-96178523D01*
X203557190Y-96559476D01*
X203033380Y-95130904D02*
X203033380Y-95321380D01*
X203081000Y-95416619D01*
X203128619Y-95464238D01*
X203271476Y-95559476D01*
X203461952Y-95607095D01*
X203842904Y-95607095D01*
X203938142Y-95559476D01*
X203985761Y-95511857D01*
X204033380Y-95416619D01*
X204033380Y-95226142D01*
X203985761Y-95130904D01*
X203938142Y-95083285D01*
X203842904Y-95035666D01*
X203604809Y-95035666D01*
X203509571Y-95083285D01*
X203461952Y-95130904D01*
X203414333Y-95226142D01*
X203414333Y-95416619D01*
X203461952Y-95511857D01*
X203509571Y-95559476D01*
X203604809Y-95607095D01*
X203033380Y-94416619D02*
X203033380Y-94321380D01*
X203081000Y-94226142D01*
X203128619Y-94178523D01*
X203223857Y-94130904D01*
X203414333Y-94083285D01*
X203652428Y-94083285D01*
X203842904Y-94130904D01*
X203938142Y-94178523D01*
X203985761Y-94226142D01*
X204033380Y-94321380D01*
X204033380Y-94416619D01*
X203985761Y-94511857D01*
X203938142Y-94559476D01*
X203842904Y-94607095D01*
X203652428Y-94654714D01*
X203414333Y-94654714D01*
X203223857Y-94607095D01*
X203128619Y-94559476D01*
X203081000Y-94511857D01*
X203033380Y-94416619D01*
X203128619Y-93702333D02*
X203081000Y-93654714D01*
X203033380Y-93559476D01*
X203033380Y-93321380D01*
X203081000Y-93226142D01*
X203128619Y-93178523D01*
X203223857Y-93130904D01*
X203319095Y-93130904D01*
X203461952Y-93178523D01*
X204033380Y-93749952D01*
X204033380Y-93130904D01*
X203148285Y-127586761D02*
X203291142Y-127634380D01*
X203529238Y-127634380D01*
X203624476Y-127586761D01*
X203672095Y-127539142D01*
X203719714Y-127443904D01*
X203719714Y-127348666D01*
X203672095Y-127253428D01*
X203624476Y-127205809D01*
X203529238Y-127158190D01*
X203338761Y-127110571D01*
X203243523Y-127062952D01*
X203195904Y-127015333D01*
X203148285Y-126920095D01*
X203148285Y-126824857D01*
X203195904Y-126729619D01*
X203243523Y-126682000D01*
X203338761Y-126634380D01*
X203576857Y-126634380D01*
X203719714Y-126682000D01*
X204053047Y-126634380D02*
X204291142Y-127634380D01*
X204481619Y-126920095D01*
X204672095Y-127634380D01*
X204910190Y-126634380D01*
X205719714Y-126634380D02*
X205529238Y-126634380D01*
X205434000Y-126682000D01*
X205386380Y-126729619D01*
X205291142Y-126872476D01*
X205243523Y-127062952D01*
X205243523Y-127443904D01*
X205291142Y-127539142D01*
X205338761Y-127586761D01*
X205434000Y-127634380D01*
X205624476Y-127634380D01*
X205719714Y-127586761D01*
X205767333Y-127539142D01*
X205814952Y-127443904D01*
X205814952Y-127205809D01*
X205767333Y-127110571D01*
X205719714Y-127062952D01*
X205624476Y-127015333D01*
X205434000Y-127015333D01*
X205338761Y-127062952D01*
X205291142Y-127110571D01*
X205243523Y-127205809D01*
X206434000Y-126634380D02*
X206529238Y-126634380D01*
X206624476Y-126682000D01*
X206672095Y-126729619D01*
X206719714Y-126824857D01*
X206767333Y-127015333D01*
X206767333Y-127253428D01*
X206719714Y-127443904D01*
X206672095Y-127539142D01*
X206624476Y-127586761D01*
X206529238Y-127634380D01*
X206434000Y-127634380D01*
X206338761Y-127586761D01*
X206291142Y-127539142D01*
X206243523Y-127443904D01*
X206195904Y-127253428D01*
X206195904Y-127015333D01*
X206243523Y-126824857D01*
X206291142Y-126729619D01*
X206338761Y-126682000D01*
X206434000Y-126634380D01*
X207719714Y-127634380D02*
X207148285Y-127634380D01*
X207434000Y-127634380D02*
X207434000Y-126634380D01*
X207338761Y-126777238D01*
X207243523Y-126872476D01*
X207148285Y-126920095D01*
X204684380Y-110426285D02*
X205493904Y-110426285D01*
X205589142Y-110378666D01*
X205636761Y-110331047D01*
X205684380Y-110235809D01*
X205684380Y-110045333D01*
X205636761Y-109950095D01*
X205589142Y-109902476D01*
X205493904Y-109854857D01*
X204684380Y-109854857D01*
X204684380Y-108950095D02*
X204684380Y-109140571D01*
X204732000Y-109235809D01*
X204779619Y-109283428D01*
X204922476Y-109378666D01*
X205112952Y-109426285D01*
X205493904Y-109426285D01*
X205589142Y-109378666D01*
X205636761Y-109331047D01*
X205684380Y-109235809D01*
X205684380Y-109045333D01*
X205636761Y-108950095D01*
X205589142Y-108902476D01*
X205493904Y-108854857D01*
X205255809Y-108854857D01*
X205160571Y-108902476D01*
X205112952Y-108950095D01*
X205065333Y-109045333D01*
X205065333Y-109235809D01*
X205112952Y-109331047D01*
X205160571Y-109378666D01*
X205255809Y-109426285D01*
X204684380Y-108235809D02*
X204684380Y-108140571D01*
X204732000Y-108045333D01*
X204779619Y-107997714D01*
X204874857Y-107950095D01*
X205065333Y-107902476D01*
X205303428Y-107902476D01*
X205493904Y-107950095D01*
X205589142Y-107997714D01*
X205636761Y-108045333D01*
X205684380Y-108140571D01*
X205684380Y-108235809D01*
X205636761Y-108331047D01*
X205589142Y-108378666D01*
X205493904Y-108426285D01*
X205303428Y-108473904D01*
X205065333Y-108473904D01*
X204874857Y-108426285D01*
X204779619Y-108378666D01*
X204732000Y-108331047D01*
X204684380Y-108235809D01*
X205684380Y-106950095D02*
X205684380Y-107521523D01*
X205684380Y-107235809D02*
X204684380Y-107235809D01*
X204827238Y-107331047D01*
X204922476Y-107426285D01*
X204970095Y-107521523D01*
X204684380Y-121514857D02*
X204684380Y-120848190D01*
X205684380Y-121276761D01*
X205017714Y-120038666D02*
X205684380Y-120038666D01*
X204636761Y-120276761D02*
X205351047Y-120514857D01*
X205351047Y-119895809D01*
X205684380Y-119038666D02*
X205684380Y-119514857D01*
X204684380Y-119514857D01*
X205636761Y-118752952D02*
X205684380Y-118610095D01*
X205684380Y-118372000D01*
X205636761Y-118276761D01*
X205589142Y-118229142D01*
X205493904Y-118181523D01*
X205398666Y-118181523D01*
X205303428Y-118229142D01*
X205255809Y-118276761D01*
X205208190Y-118372000D01*
X205160571Y-118562476D01*
X205112952Y-118657714D01*
X205065333Y-118705333D01*
X204970095Y-118752952D01*
X204874857Y-118752952D01*
X204779619Y-118705333D01*
X204732000Y-118657714D01*
X204684380Y-118562476D01*
X204684380Y-118324380D01*
X204732000Y-118181523D01*
X205684380Y-117229142D02*
X205684380Y-117800571D01*
X205684380Y-117514857D02*
X204684380Y-117514857D01*
X204827238Y-117610095D01*
X204922476Y-117705333D01*
X204970095Y-117800571D01*
X205017714Y-116372000D02*
X205684380Y-116372000D01*
X204636761Y-116610095D02*
X205351047Y-116848190D01*
X205351047Y-116229142D01*
X106459761Y-99671142D02*
X106421666Y-99718761D01*
X106307380Y-99766380D01*
X106231190Y-99766380D01*
X106116904Y-99718761D01*
X106040714Y-99623523D01*
X106002619Y-99528285D01*
X105964523Y-99337809D01*
X105964523Y-99194952D01*
X106002619Y-99004476D01*
X106040714Y-98909238D01*
X106116904Y-98814000D01*
X106231190Y-98766380D01*
X106307380Y-98766380D01*
X106421666Y-98814000D01*
X106459761Y-98861619D01*
X106764523Y-98861619D02*
X106802619Y-98814000D01*
X106878809Y-98766380D01*
X107069285Y-98766380D01*
X107145476Y-98814000D01*
X107183571Y-98861619D01*
X107221666Y-98956857D01*
X107221666Y-99052095D01*
X107183571Y-99194952D01*
X106726428Y-99766380D01*
X107221666Y-99766380D01*
X107716904Y-98766380D02*
X107793095Y-98766380D01*
X107869285Y-98814000D01*
X107907380Y-98861619D01*
X107945476Y-98956857D01*
X107983571Y-99147333D01*
X107983571Y-99385428D01*
X107945476Y-99575904D01*
X107907380Y-99671142D01*
X107869285Y-99718761D01*
X107793095Y-99766380D01*
X107716904Y-99766380D01*
X107640714Y-99718761D01*
X107602619Y-99671142D01*
X107564523Y-99575904D01*
X107526428Y-99385428D01*
X107526428Y-99147333D01*
X107564523Y-98956857D01*
X107602619Y-98861619D01*
X107640714Y-98814000D01*
X107716904Y-98766380D01*
X108745476Y-99766380D02*
X108288333Y-99766380D01*
X108516904Y-99766380D02*
X108516904Y-98766380D01*
X108440714Y-98909238D01*
X108364523Y-99004476D01*
X108288333Y-99052095D01*
X116619761Y-99671142D02*
X116581666Y-99718761D01*
X116467380Y-99766380D01*
X116391190Y-99766380D01*
X116276904Y-99718761D01*
X116200714Y-99623523D01*
X116162619Y-99528285D01*
X116124523Y-99337809D01*
X116124523Y-99194952D01*
X116162619Y-99004476D01*
X116200714Y-98909238D01*
X116276904Y-98814000D01*
X116391190Y-98766380D01*
X116467380Y-98766380D01*
X116581666Y-98814000D01*
X116619761Y-98861619D01*
X116924523Y-98861619D02*
X116962619Y-98814000D01*
X117038809Y-98766380D01*
X117229285Y-98766380D01*
X117305476Y-98814000D01*
X117343571Y-98861619D01*
X117381666Y-98956857D01*
X117381666Y-99052095D01*
X117343571Y-99194952D01*
X116886428Y-99766380D01*
X117381666Y-99766380D01*
X117876904Y-98766380D02*
X117953095Y-98766380D01*
X118029285Y-98814000D01*
X118067380Y-98861619D01*
X118105476Y-98956857D01*
X118143571Y-99147333D01*
X118143571Y-99385428D01*
X118105476Y-99575904D01*
X118067380Y-99671142D01*
X118029285Y-99718761D01*
X117953095Y-99766380D01*
X117876904Y-99766380D01*
X117800714Y-99718761D01*
X117762619Y-99671142D01*
X117724523Y-99575904D01*
X117686428Y-99385428D01*
X117686428Y-99147333D01*
X117724523Y-98956857D01*
X117762619Y-98861619D01*
X117800714Y-98814000D01*
X117876904Y-98766380D01*
X118448333Y-98861619D02*
X118486428Y-98814000D01*
X118562619Y-98766380D01*
X118753095Y-98766380D01*
X118829285Y-98814000D01*
X118867380Y-98861619D01*
X118905476Y-98956857D01*
X118905476Y-99052095D01*
X118867380Y-99194952D01*
X118410238Y-99766380D01*
X118905476Y-99766380D01*
X130589761Y-99671142D02*
X130551666Y-99718761D01*
X130437380Y-99766380D01*
X130361190Y-99766380D01*
X130246904Y-99718761D01*
X130170714Y-99623523D01*
X130132619Y-99528285D01*
X130094523Y-99337809D01*
X130094523Y-99194952D01*
X130132619Y-99004476D01*
X130170714Y-98909238D01*
X130246904Y-98814000D01*
X130361190Y-98766380D01*
X130437380Y-98766380D01*
X130551666Y-98814000D01*
X130589761Y-98861619D01*
X130894523Y-98861619D02*
X130932619Y-98814000D01*
X131008809Y-98766380D01*
X131199285Y-98766380D01*
X131275476Y-98814000D01*
X131313571Y-98861619D01*
X131351666Y-98956857D01*
X131351666Y-99052095D01*
X131313571Y-99194952D01*
X130856428Y-99766380D01*
X131351666Y-99766380D01*
X131846904Y-98766380D02*
X131923095Y-98766380D01*
X131999285Y-98814000D01*
X132037380Y-98861619D01*
X132075476Y-98956857D01*
X132113571Y-99147333D01*
X132113571Y-99385428D01*
X132075476Y-99575904D01*
X132037380Y-99671142D01*
X131999285Y-99718761D01*
X131923095Y-99766380D01*
X131846904Y-99766380D01*
X131770714Y-99718761D01*
X131732619Y-99671142D01*
X131694523Y-99575904D01*
X131656428Y-99385428D01*
X131656428Y-99147333D01*
X131694523Y-98956857D01*
X131732619Y-98861619D01*
X131770714Y-98814000D01*
X131846904Y-98766380D01*
X132380238Y-98766380D02*
X132875476Y-98766380D01*
X132608809Y-99147333D01*
X132723095Y-99147333D01*
X132799285Y-99194952D01*
X132837380Y-99242571D01*
X132875476Y-99337809D01*
X132875476Y-99575904D01*
X132837380Y-99671142D01*
X132799285Y-99718761D01*
X132723095Y-99766380D01*
X132494523Y-99766380D01*
X132418333Y-99718761D01*
X132380238Y-99671142D01*
X154719761Y-99671142D02*
X154681666Y-99718761D01*
X154567380Y-99766380D01*
X154491190Y-99766380D01*
X154376904Y-99718761D01*
X154300714Y-99623523D01*
X154262619Y-99528285D01*
X154224523Y-99337809D01*
X154224523Y-99194952D01*
X154262619Y-99004476D01*
X154300714Y-98909238D01*
X154376904Y-98814000D01*
X154491190Y-98766380D01*
X154567380Y-98766380D01*
X154681666Y-98814000D01*
X154719761Y-98861619D01*
X155024523Y-98861619D02*
X155062619Y-98814000D01*
X155138809Y-98766380D01*
X155329285Y-98766380D01*
X155405476Y-98814000D01*
X155443571Y-98861619D01*
X155481666Y-98956857D01*
X155481666Y-99052095D01*
X155443571Y-99194952D01*
X154986428Y-99766380D01*
X155481666Y-99766380D01*
X155976904Y-98766380D02*
X156053095Y-98766380D01*
X156129285Y-98814000D01*
X156167380Y-98861619D01*
X156205476Y-98956857D01*
X156243571Y-99147333D01*
X156243571Y-99385428D01*
X156205476Y-99575904D01*
X156167380Y-99671142D01*
X156129285Y-99718761D01*
X156053095Y-99766380D01*
X155976904Y-99766380D01*
X155900714Y-99718761D01*
X155862619Y-99671142D01*
X155824523Y-99575904D01*
X155786428Y-99385428D01*
X155786428Y-99147333D01*
X155824523Y-98956857D01*
X155862619Y-98861619D01*
X155900714Y-98814000D01*
X155976904Y-98766380D01*
X156967380Y-98766380D02*
X156586428Y-98766380D01*
X156548333Y-99242571D01*
X156586428Y-99194952D01*
X156662619Y-99147333D01*
X156853095Y-99147333D01*
X156929285Y-99194952D01*
X156967380Y-99242571D01*
X157005476Y-99337809D01*
X157005476Y-99575904D01*
X156967380Y-99671142D01*
X156929285Y-99718761D01*
X156853095Y-99766380D01*
X156662619Y-99766380D01*
X156586428Y-99718761D01*
X156548333Y-99671142D01*
X164879761Y-99671142D02*
X164841666Y-99718761D01*
X164727380Y-99766380D01*
X164651190Y-99766380D01*
X164536904Y-99718761D01*
X164460714Y-99623523D01*
X164422619Y-99528285D01*
X164384523Y-99337809D01*
X164384523Y-99194952D01*
X164422619Y-99004476D01*
X164460714Y-98909238D01*
X164536904Y-98814000D01*
X164651190Y-98766380D01*
X164727380Y-98766380D01*
X164841666Y-98814000D01*
X164879761Y-98861619D01*
X165184523Y-98861619D02*
X165222619Y-98814000D01*
X165298809Y-98766380D01*
X165489285Y-98766380D01*
X165565476Y-98814000D01*
X165603571Y-98861619D01*
X165641666Y-98956857D01*
X165641666Y-99052095D01*
X165603571Y-99194952D01*
X165146428Y-99766380D01*
X165641666Y-99766380D01*
X166136904Y-98766380D02*
X166213095Y-98766380D01*
X166289285Y-98814000D01*
X166327380Y-98861619D01*
X166365476Y-98956857D01*
X166403571Y-99147333D01*
X166403571Y-99385428D01*
X166365476Y-99575904D01*
X166327380Y-99671142D01*
X166289285Y-99718761D01*
X166213095Y-99766380D01*
X166136904Y-99766380D01*
X166060714Y-99718761D01*
X166022619Y-99671142D01*
X165984523Y-99575904D01*
X165946428Y-99385428D01*
X165946428Y-99147333D01*
X165984523Y-98956857D01*
X166022619Y-98861619D01*
X166060714Y-98814000D01*
X166136904Y-98766380D01*
X167089285Y-98766380D02*
X166936904Y-98766380D01*
X166860714Y-98814000D01*
X166822619Y-98861619D01*
X166746428Y-99004476D01*
X166708333Y-99194952D01*
X166708333Y-99575904D01*
X166746428Y-99671142D01*
X166784523Y-99718761D01*
X166860714Y-99766380D01*
X167013095Y-99766380D01*
X167089285Y-99718761D01*
X167127380Y-99671142D01*
X167165476Y-99575904D01*
X167165476Y-99337809D01*
X167127380Y-99242571D01*
X167089285Y-99194952D01*
X167013095Y-99147333D01*
X166860714Y-99147333D01*
X166784523Y-99194952D01*
X166746428Y-99242571D01*
X166708333Y-99337809D01*
X178809761Y-99671142D02*
X178771666Y-99718761D01*
X178657380Y-99766380D01*
X178581190Y-99766380D01*
X178466904Y-99718761D01*
X178390714Y-99623523D01*
X178352619Y-99528285D01*
X178314523Y-99337809D01*
X178314523Y-99194952D01*
X178352619Y-99004476D01*
X178390714Y-98909238D01*
X178466904Y-98814000D01*
X178581190Y-98766380D01*
X178657380Y-98766380D01*
X178771666Y-98814000D01*
X178809761Y-98861619D01*
X179114523Y-98861619D02*
X179152619Y-98814000D01*
X179228809Y-98766380D01*
X179419285Y-98766380D01*
X179495476Y-98814000D01*
X179533571Y-98861619D01*
X179571666Y-98956857D01*
X179571666Y-99052095D01*
X179533571Y-99194952D01*
X179076428Y-99766380D01*
X179571666Y-99766380D01*
X180066904Y-98766380D02*
X180143095Y-98766380D01*
X180219285Y-98814000D01*
X180257380Y-98861619D01*
X180295476Y-98956857D01*
X180333571Y-99147333D01*
X180333571Y-99385428D01*
X180295476Y-99575904D01*
X180257380Y-99671142D01*
X180219285Y-99718761D01*
X180143095Y-99766380D01*
X180066904Y-99766380D01*
X179990714Y-99718761D01*
X179952619Y-99671142D01*
X179914523Y-99575904D01*
X179876428Y-99385428D01*
X179876428Y-99147333D01*
X179914523Y-98956857D01*
X179952619Y-98861619D01*
X179990714Y-98814000D01*
X180066904Y-98766380D01*
X180600238Y-98766380D02*
X181133571Y-98766380D01*
X180790714Y-99766380D01*
X188969761Y-99671142D02*
X188931666Y-99718761D01*
X188817380Y-99766380D01*
X188741190Y-99766380D01*
X188626904Y-99718761D01*
X188550714Y-99623523D01*
X188512619Y-99528285D01*
X188474523Y-99337809D01*
X188474523Y-99194952D01*
X188512619Y-99004476D01*
X188550714Y-98909238D01*
X188626904Y-98814000D01*
X188741190Y-98766380D01*
X188817380Y-98766380D01*
X188931666Y-98814000D01*
X188969761Y-98861619D01*
X189274523Y-98861619D02*
X189312619Y-98814000D01*
X189388809Y-98766380D01*
X189579285Y-98766380D01*
X189655476Y-98814000D01*
X189693571Y-98861619D01*
X189731666Y-98956857D01*
X189731666Y-99052095D01*
X189693571Y-99194952D01*
X189236428Y-99766380D01*
X189731666Y-99766380D01*
X190226904Y-98766380D02*
X190303095Y-98766380D01*
X190379285Y-98814000D01*
X190417380Y-98861619D01*
X190455476Y-98956857D01*
X190493571Y-99147333D01*
X190493571Y-99385428D01*
X190455476Y-99575904D01*
X190417380Y-99671142D01*
X190379285Y-99718761D01*
X190303095Y-99766380D01*
X190226904Y-99766380D01*
X190150714Y-99718761D01*
X190112619Y-99671142D01*
X190074523Y-99575904D01*
X190036428Y-99385428D01*
X190036428Y-99147333D01*
X190074523Y-98956857D01*
X190112619Y-98861619D01*
X190150714Y-98814000D01*
X190226904Y-98766380D01*
X190950714Y-99194952D02*
X190874523Y-99147333D01*
X190836428Y-99099714D01*
X190798333Y-99004476D01*
X190798333Y-98956857D01*
X190836428Y-98861619D01*
X190874523Y-98814000D01*
X190950714Y-98766380D01*
X191103095Y-98766380D01*
X191179285Y-98814000D01*
X191217380Y-98861619D01*
X191255476Y-98956857D01*
X191255476Y-99004476D01*
X191217380Y-99099714D01*
X191179285Y-99147333D01*
X191103095Y-99194952D01*
X190950714Y-99194952D01*
X190874523Y-99242571D01*
X190836428Y-99290190D01*
X190798333Y-99385428D01*
X190798333Y-99575904D01*
X190836428Y-99671142D01*
X190874523Y-99718761D01*
X190950714Y-99766380D01*
X191103095Y-99766380D01*
X191179285Y-99718761D01*
X191217380Y-99671142D01*
X191255476Y-99575904D01*
X191255476Y-99385428D01*
X191217380Y-99290190D01*
X191179285Y-99242571D01*
X191103095Y-99194952D01*
X107672142Y-127418647D02*
X107719761Y-127466266D01*
X107767380Y-127609123D01*
X107767380Y-127704361D01*
X107719761Y-127847219D01*
X107624523Y-127942457D01*
X107529285Y-127990076D01*
X107338809Y-128037695D01*
X107195952Y-128037695D01*
X107005476Y-127990076D01*
X106910238Y-127942457D01*
X106815000Y-127847219D01*
X106767380Y-127704361D01*
X106767380Y-127609123D01*
X106815000Y-127466266D01*
X106862619Y-127418647D01*
X107100714Y-126561504D02*
X107767380Y-126561504D01*
X106719761Y-126799600D02*
X107434047Y-127037695D01*
X107434047Y-126418647D01*
X106767380Y-125847219D02*
X106767380Y-125751980D01*
X106815000Y-125656742D01*
X106862619Y-125609123D01*
X106957857Y-125561504D01*
X107148333Y-125513885D01*
X107386428Y-125513885D01*
X107576904Y-125561504D01*
X107672142Y-125609123D01*
X107719761Y-125656742D01*
X107767380Y-125751980D01*
X107767380Y-125847219D01*
X107719761Y-125942457D01*
X107672142Y-125990076D01*
X107576904Y-126037695D01*
X107386428Y-126085314D01*
X107148333Y-126085314D01*
X106957857Y-126037695D01*
X106862619Y-125990076D01*
X106815000Y-125942457D01*
X106767380Y-125847219D01*
X107767380Y-124561504D02*
X107767380Y-125132933D01*
X107767380Y-124847219D02*
X106767380Y-124847219D01*
X106910238Y-124942457D01*
X107005476Y-125037695D01*
X107053095Y-125132933D01*
X203965952Y-84155741D02*
X203918333Y-84203360D01*
X203775476Y-84250979D01*
X203680238Y-84250979D01*
X203537380Y-84203360D01*
X203442142Y-84108122D01*
X203394523Y-84012884D01*
X203346904Y-83822408D01*
X203346904Y-83679551D01*
X203394523Y-83489075D01*
X203442142Y-83393837D01*
X203537380Y-83298599D01*
X203680238Y-83250979D01*
X203775476Y-83250979D01*
X203918333Y-83298599D01*
X203965952Y-83346218D01*
X204823095Y-83250979D02*
X204632619Y-83250979D01*
X204537380Y-83298599D01*
X204489761Y-83346218D01*
X204394523Y-83489075D01*
X204346904Y-83679551D01*
X204346904Y-84060503D01*
X204394523Y-84155741D01*
X204442142Y-84203360D01*
X204537380Y-84250979D01*
X204727857Y-84250979D01*
X204823095Y-84203360D01*
X204870714Y-84155741D01*
X204918333Y-84060503D01*
X204918333Y-83822408D01*
X204870714Y-83727170D01*
X204823095Y-83679551D01*
X204727857Y-83631932D01*
X204537380Y-83631932D01*
X204442142Y-83679551D01*
X204394523Y-83727170D01*
X204346904Y-83822408D01*
X205537380Y-83250979D02*
X205632619Y-83250979D01*
X205727857Y-83298599D01*
X205775476Y-83346218D01*
X205823095Y-83441456D01*
X205870714Y-83631932D01*
X205870714Y-83870027D01*
X205823095Y-84060503D01*
X205775476Y-84155741D01*
X205727857Y-84203360D01*
X205632619Y-84250979D01*
X205537380Y-84250979D01*
X205442142Y-84203360D01*
X205394523Y-84155741D01*
X205346904Y-84060503D01*
X205299285Y-83870027D01*
X205299285Y-83631932D01*
X205346904Y-83441456D01*
X205394523Y-83346218D01*
X205442142Y-83298599D01*
X205537380Y-83250979D01*
X206823095Y-84250979D02*
X206251666Y-84250979D01*
X206537380Y-84250979D02*
X206537380Y-83250979D01*
X206442142Y-83393837D01*
X206346904Y-83489075D01*
X206251666Y-83536694D01*
X204296761Y-102311741D02*
X204258666Y-102359360D01*
X204144380Y-102406979D01*
X204068190Y-102406979D01*
X203953904Y-102359360D01*
X203877714Y-102264122D01*
X203839619Y-102168884D01*
X203801523Y-101978408D01*
X203801523Y-101835551D01*
X203839619Y-101645075D01*
X203877714Y-101549837D01*
X203953904Y-101454599D01*
X204068190Y-101406979D01*
X204144380Y-101406979D01*
X204258666Y-101454599D01*
X204296761Y-101502218D01*
X204982476Y-101406979D02*
X204830095Y-101406979D01*
X204753904Y-101454599D01*
X204715809Y-101502218D01*
X204639619Y-101645075D01*
X204601523Y-101835551D01*
X204601523Y-102216503D01*
X204639619Y-102311741D01*
X204677714Y-102359360D01*
X204753904Y-102406979D01*
X204906285Y-102406979D01*
X204982476Y-102359360D01*
X205020571Y-102311741D01*
X205058666Y-102216503D01*
X205058666Y-101978408D01*
X205020571Y-101883170D01*
X204982476Y-101835551D01*
X204906285Y-101787932D01*
X204753904Y-101787932D01*
X204677714Y-101835551D01*
X204639619Y-101883170D01*
X204601523Y-101978408D01*
X205553904Y-101406979D02*
X205630095Y-101406979D01*
X205706285Y-101454599D01*
X205744380Y-101502218D01*
X205782476Y-101597456D01*
X205820571Y-101787932D01*
X205820571Y-102026027D01*
X205782476Y-102216503D01*
X205744380Y-102311741D01*
X205706285Y-102359360D01*
X205630095Y-102406979D01*
X205553904Y-102406979D01*
X205477714Y-102359360D01*
X205439619Y-102311741D01*
X205401523Y-102216503D01*
X205363428Y-102026027D01*
X205363428Y-101787932D01*
X205401523Y-101597456D01*
X205439619Y-101502218D01*
X205477714Y-101454599D01*
X205553904Y-101406979D01*
X206125333Y-101502218D02*
X206163428Y-101454599D01*
X206239619Y-101406979D01*
X206430095Y-101406979D01*
X206506285Y-101454599D01*
X206544380Y-101502218D01*
X206582476Y-101597456D01*
X206582476Y-101692694D01*
X206544380Y-101835551D01*
X206087238Y-102406979D01*
X206582476Y-102406979D01*
X103322380Y-127361780D02*
X102322380Y-127361780D01*
X102322380Y-127171304D01*
X102370000Y-127057019D01*
X102465238Y-126980828D01*
X102560476Y-126942733D01*
X102750952Y-126904638D01*
X102893809Y-126904638D01*
X103084285Y-126942733D01*
X103179523Y-126980828D01*
X103274761Y-127057019D01*
X103322380Y-127171304D01*
X103322380Y-127361780D01*
X102655714Y-126218923D02*
X103322380Y-126218923D01*
X102274761Y-126409400D02*
X102989047Y-126599876D01*
X102989047Y-126104638D01*
X102322380Y-125647495D02*
X102322380Y-125571304D01*
X102370000Y-125495114D01*
X102417619Y-125457019D01*
X102512857Y-125418923D01*
X102703333Y-125380828D01*
X102941428Y-125380828D01*
X103131904Y-125418923D01*
X103227142Y-125457019D01*
X103274761Y-125495114D01*
X103322380Y-125571304D01*
X103322380Y-125647495D01*
X103274761Y-125723685D01*
X103227142Y-125761780D01*
X103131904Y-125799876D01*
X102941428Y-125837971D01*
X102703333Y-125837971D01*
X102512857Y-125799876D01*
X102417619Y-125761780D01*
X102370000Y-125723685D01*
X102322380Y-125647495D01*
X103322380Y-124618923D02*
X103322380Y-125076066D01*
X103322380Y-124847495D02*
X102322380Y-124847495D01*
X102465238Y-124923685D01*
X102560476Y-124999876D01*
X102608095Y-125076066D01*
X110633095Y-88606380D02*
X111299761Y-89606380D01*
X111299761Y-88606380D02*
X110633095Y-89606380D01*
X111633095Y-88701619D02*
X111680714Y-88654000D01*
X111775952Y-88606380D01*
X112014047Y-88606380D01*
X112109285Y-88654000D01*
X112156904Y-88701619D01*
X112204523Y-88796857D01*
X112204523Y-88892095D01*
X112156904Y-89034952D01*
X111585476Y-89606380D01*
X112204523Y-89606380D01*
X112823571Y-88606380D02*
X112918809Y-88606380D01*
X113014047Y-88654000D01*
X113061666Y-88701619D01*
X113109285Y-88796857D01*
X113156904Y-88987333D01*
X113156904Y-89225428D01*
X113109285Y-89415904D01*
X113061666Y-89511142D01*
X113014047Y-89558761D01*
X112918809Y-89606380D01*
X112823571Y-89606380D01*
X112728333Y-89558761D01*
X112680714Y-89511142D01*
X112633095Y-89415904D01*
X112585476Y-89225428D01*
X112585476Y-88987333D01*
X112633095Y-88796857D01*
X112680714Y-88701619D01*
X112728333Y-88654000D01*
X112823571Y-88606380D01*
X114109285Y-89606380D02*
X113537857Y-89606380D01*
X113823571Y-89606380D02*
X113823571Y-88606380D01*
X113728333Y-88749238D01*
X113633095Y-88844476D01*
X113537857Y-88892095D01*
X110633095Y-106386380D02*
X111299761Y-107386380D01*
X111299761Y-106386380D02*
X110633095Y-107386380D01*
X111633095Y-106481619D02*
X111680714Y-106434000D01*
X111775952Y-106386380D01*
X112014047Y-106386380D01*
X112109285Y-106434000D01*
X112156904Y-106481619D01*
X112204523Y-106576857D01*
X112204523Y-106672095D01*
X112156904Y-106814952D01*
X111585476Y-107386380D01*
X112204523Y-107386380D01*
X112823571Y-106386380D02*
X112918809Y-106386380D01*
X113014047Y-106434000D01*
X113061666Y-106481619D01*
X113109285Y-106576857D01*
X113156904Y-106767333D01*
X113156904Y-107005428D01*
X113109285Y-107195904D01*
X113061666Y-107291142D01*
X113014047Y-107338761D01*
X112918809Y-107386380D01*
X112823571Y-107386380D01*
X112728333Y-107338761D01*
X112680714Y-107291142D01*
X112633095Y-107195904D01*
X112585476Y-107005428D01*
X112585476Y-106767333D01*
X112633095Y-106576857D01*
X112680714Y-106481619D01*
X112728333Y-106434000D01*
X112823571Y-106386380D01*
X113537857Y-106481619D02*
X113585476Y-106434000D01*
X113680714Y-106386380D01*
X113918809Y-106386380D01*
X114014047Y-106434000D01*
X114061666Y-106481619D01*
X114109285Y-106576857D01*
X114109285Y-106672095D01*
X114061666Y-106814952D01*
X113490238Y-107386380D01*
X114109285Y-107386380D01*
X134763095Y-88606380D02*
X135429761Y-89606380D01*
X135429761Y-88606380D02*
X134763095Y-89606380D01*
X135763095Y-88701619D02*
X135810714Y-88654000D01*
X135905952Y-88606380D01*
X136144047Y-88606380D01*
X136239285Y-88654000D01*
X136286904Y-88701619D01*
X136334523Y-88796857D01*
X136334523Y-88892095D01*
X136286904Y-89034952D01*
X135715476Y-89606380D01*
X136334523Y-89606380D01*
X136953571Y-88606380D02*
X137048809Y-88606380D01*
X137144047Y-88654000D01*
X137191666Y-88701619D01*
X137239285Y-88796857D01*
X137286904Y-88987333D01*
X137286904Y-89225428D01*
X137239285Y-89415904D01*
X137191666Y-89511142D01*
X137144047Y-89558761D01*
X137048809Y-89606380D01*
X136953571Y-89606380D01*
X136858333Y-89558761D01*
X136810714Y-89511142D01*
X136763095Y-89415904D01*
X136715476Y-89225428D01*
X136715476Y-88987333D01*
X136763095Y-88796857D01*
X136810714Y-88701619D01*
X136858333Y-88654000D01*
X136953571Y-88606380D01*
X137620238Y-88606380D02*
X138239285Y-88606380D01*
X137905952Y-88987333D01*
X138048809Y-88987333D01*
X138144047Y-89034952D01*
X138191666Y-89082571D01*
X138239285Y-89177809D01*
X138239285Y-89415904D01*
X138191666Y-89511142D01*
X138144047Y-89558761D01*
X138048809Y-89606380D01*
X137763095Y-89606380D01*
X137667857Y-89558761D01*
X137620238Y-89511142D01*
X134763095Y-106386380D02*
X135429761Y-107386380D01*
X135429761Y-106386380D02*
X134763095Y-107386380D01*
X135763095Y-106481619D02*
X135810714Y-106434000D01*
X135905952Y-106386380D01*
X136144047Y-106386380D01*
X136239285Y-106434000D01*
X136286904Y-106481619D01*
X136334523Y-106576857D01*
X136334523Y-106672095D01*
X136286904Y-106814952D01*
X135715476Y-107386380D01*
X136334523Y-107386380D01*
X136953571Y-106386380D02*
X137048809Y-106386380D01*
X137144047Y-106434000D01*
X137191666Y-106481619D01*
X137239285Y-106576857D01*
X137286904Y-106767333D01*
X137286904Y-107005428D01*
X137239285Y-107195904D01*
X137191666Y-107291142D01*
X137144047Y-107338761D01*
X137048809Y-107386380D01*
X136953571Y-107386380D01*
X136858333Y-107338761D01*
X136810714Y-107291142D01*
X136763095Y-107195904D01*
X136715476Y-107005428D01*
X136715476Y-106767333D01*
X136763095Y-106576857D01*
X136810714Y-106481619D01*
X136858333Y-106434000D01*
X136953571Y-106386380D01*
X138144047Y-106719714D02*
X138144047Y-107386380D01*
X137905952Y-106338761D02*
X137667857Y-107053047D01*
X138286904Y-107053047D01*
X158893095Y-106386380D02*
X159559761Y-107386380D01*
X159559761Y-106386380D02*
X158893095Y-107386380D01*
X159893095Y-106481619D02*
X159940714Y-106434000D01*
X160035952Y-106386380D01*
X160274047Y-106386380D01*
X160369285Y-106434000D01*
X160416904Y-106481619D01*
X160464523Y-106576857D01*
X160464523Y-106672095D01*
X160416904Y-106814952D01*
X159845476Y-107386380D01*
X160464523Y-107386380D01*
X161083571Y-106386380D02*
X161178809Y-106386380D01*
X161274047Y-106434000D01*
X161321666Y-106481619D01*
X161369285Y-106576857D01*
X161416904Y-106767333D01*
X161416904Y-107005428D01*
X161369285Y-107195904D01*
X161321666Y-107291142D01*
X161274047Y-107338761D01*
X161178809Y-107386380D01*
X161083571Y-107386380D01*
X160988333Y-107338761D01*
X160940714Y-107291142D01*
X160893095Y-107195904D01*
X160845476Y-107005428D01*
X160845476Y-106767333D01*
X160893095Y-106576857D01*
X160940714Y-106481619D01*
X160988333Y-106434000D01*
X161083571Y-106386380D01*
X162274047Y-106386380D02*
X162083571Y-106386380D01*
X161988333Y-106434000D01*
X161940714Y-106481619D01*
X161845476Y-106624476D01*
X161797857Y-106814952D01*
X161797857Y-107195904D01*
X161845476Y-107291142D01*
X161893095Y-107338761D01*
X161988333Y-107386380D01*
X162178809Y-107386380D01*
X162274047Y-107338761D01*
X162321666Y-107291142D01*
X162369285Y-107195904D01*
X162369285Y-106957809D01*
X162321666Y-106862571D01*
X162274047Y-106814952D01*
X162178809Y-106767333D01*
X161988333Y-106767333D01*
X161893095Y-106814952D01*
X161845476Y-106862571D01*
X161797857Y-106957809D01*
X183023095Y-88606380D02*
X183689761Y-89606380D01*
X183689761Y-88606380D02*
X183023095Y-89606380D01*
X184023095Y-88701619D02*
X184070714Y-88654000D01*
X184165952Y-88606380D01*
X184404047Y-88606380D01*
X184499285Y-88654000D01*
X184546904Y-88701619D01*
X184594523Y-88796857D01*
X184594523Y-88892095D01*
X184546904Y-89034952D01*
X183975476Y-89606380D01*
X184594523Y-89606380D01*
X185213571Y-88606380D02*
X185308809Y-88606380D01*
X185404047Y-88654000D01*
X185451666Y-88701619D01*
X185499285Y-88796857D01*
X185546904Y-88987333D01*
X185546904Y-89225428D01*
X185499285Y-89415904D01*
X185451666Y-89511142D01*
X185404047Y-89558761D01*
X185308809Y-89606380D01*
X185213571Y-89606380D01*
X185118333Y-89558761D01*
X185070714Y-89511142D01*
X185023095Y-89415904D01*
X184975476Y-89225428D01*
X184975476Y-88987333D01*
X185023095Y-88796857D01*
X185070714Y-88701619D01*
X185118333Y-88654000D01*
X185213571Y-88606380D01*
X185880238Y-88606380D02*
X186546904Y-88606380D01*
X186118333Y-89606380D01*
X183023095Y-106386380D02*
X183689761Y-107386380D01*
X183689761Y-106386380D02*
X183023095Y-107386380D01*
X184023095Y-106481619D02*
X184070714Y-106434000D01*
X184165952Y-106386380D01*
X184404047Y-106386380D01*
X184499285Y-106434000D01*
X184546904Y-106481619D01*
X184594523Y-106576857D01*
X184594523Y-106672095D01*
X184546904Y-106814952D01*
X183975476Y-107386380D01*
X184594523Y-107386380D01*
X185213571Y-106386380D02*
X185308809Y-106386380D01*
X185404047Y-106434000D01*
X185451666Y-106481619D01*
X185499285Y-106576857D01*
X185546904Y-106767333D01*
X185546904Y-107005428D01*
X185499285Y-107195904D01*
X185451666Y-107291142D01*
X185404047Y-107338761D01*
X185308809Y-107386380D01*
X185213571Y-107386380D01*
X185118333Y-107338761D01*
X185070714Y-107291142D01*
X185023095Y-107195904D01*
X184975476Y-107005428D01*
X184975476Y-106767333D01*
X185023095Y-106576857D01*
X185070714Y-106481619D01*
X185118333Y-106434000D01*
X185213571Y-106386380D01*
X186118333Y-106814952D02*
X186023095Y-106767333D01*
X185975476Y-106719714D01*
X185927857Y-106624476D01*
X185927857Y-106576857D01*
X185975476Y-106481619D01*
X186023095Y-106434000D01*
X186118333Y-106386380D01*
X186308809Y-106386380D01*
X186404047Y-106434000D01*
X186451666Y-106481619D01*
X186499285Y-106576857D01*
X186499285Y-106624476D01*
X186451666Y-106719714D01*
X186404047Y-106767333D01*
X186308809Y-106814952D01*
X186118333Y-106814952D01*
X186023095Y-106862571D01*
X185975476Y-106910190D01*
X185927857Y-107005428D01*
X185927857Y-107195904D01*
X185975476Y-107291142D01*
X186023095Y-107338761D01*
X186118333Y-107386380D01*
X186308809Y-107386380D01*
X186404047Y-107338761D01*
X186451666Y-107291142D01*
X186499285Y-107195904D01*
X186499285Y-107005428D01*
X186451666Y-106910190D01*
X186404047Y-106862571D01*
X186308809Y-106814952D01*
X97226380Y-89490380D02*
X96226380Y-89490380D01*
X96226380Y-89299904D01*
X96274000Y-89185619D01*
X96369238Y-89109428D01*
X96464476Y-89071333D01*
X96654952Y-89033238D01*
X96797809Y-89033238D01*
X96988285Y-89071333D01*
X97083523Y-89109428D01*
X97178761Y-89185619D01*
X97226380Y-89299904D01*
X97226380Y-89490380D01*
X96321619Y-88728476D02*
X96274000Y-88690380D01*
X96226380Y-88614190D01*
X96226380Y-88423714D01*
X96274000Y-88347523D01*
X96321619Y-88309428D01*
X96416857Y-88271333D01*
X96512095Y-88271333D01*
X96654952Y-88309428D01*
X97226380Y-88766571D01*
X97226380Y-88271333D01*
X96226380Y-87776095D02*
X96226380Y-87699904D01*
X96274000Y-87623714D01*
X96321619Y-87585619D01*
X96416857Y-87547523D01*
X96607333Y-87509428D01*
X96845428Y-87509428D01*
X97035904Y-87547523D01*
X97131142Y-87585619D01*
X97178761Y-87623714D01*
X97226380Y-87699904D01*
X97226380Y-87776095D01*
X97178761Y-87852285D01*
X97131142Y-87890380D01*
X97035904Y-87928476D01*
X96845428Y-87966571D01*
X96607333Y-87966571D01*
X96416857Y-87928476D01*
X96321619Y-87890380D01*
X96274000Y-87852285D01*
X96226380Y-87776095D01*
X97226380Y-86747523D02*
X97226380Y-87204666D01*
X97226380Y-86976095D02*
X96226380Y-86976095D01*
X96369238Y-87052285D01*
X96464476Y-87128476D01*
X96512095Y-87204666D01*
M02*
