%TF.GenerationSoftware,KiCad,Pcbnew,(5.0.0)*%
%TF.CreationDate,2018-10-23T17:22:46+02:00*%
%TF.ProjectId,S80 Clock Power Reset,53383020436C6F636B20506F77657220,1.0*%
%TF.SameCoordinates,Original*%
%TF.FileFunction,Soldermask,Top*%
%TF.FilePolarity,Negative*%
%FSLAX46Y46*%
G04 Gerber Fmt 4.6, Leading zero omitted, Abs format (unit mm)*
G04 Created by KiCad (PCBNEW (5.0.0)) date 10/23/18 17:22:46*
%MOMM*%
%LPD*%
G01*
G04 APERTURE LIST*
%ADD10R,1.701600X1.701600*%
%ADD11C,1.701600*%
%ADD12R,1.801600X1.801600*%
%ADD13O,1.801600X1.801600*%
%ADD14O,1.701600X1.701600*%
%ADD15C,2.101600*%
%ADD16C,3.301600*%
G04 APERTURE END LIST*
D10*
X153035000Y-94234000D03*
D11*
X153035000Y-86614000D03*
X168275000Y-86614000D03*
X168275000Y-94234000D03*
X139145000Y-99314000D03*
X144145000Y-99314000D03*
D12*
X125755400Y-76631800D03*
D13*
X125755400Y-74091800D03*
X128295400Y-76631800D03*
X128295400Y-74091800D03*
X130835400Y-76631800D03*
X130835400Y-74091800D03*
X133375400Y-76631800D03*
X133375400Y-74091800D03*
X135915400Y-76631800D03*
X135915400Y-74091800D03*
X138455400Y-76631800D03*
X138455400Y-74091800D03*
X140995400Y-76631800D03*
X140995400Y-74091800D03*
X143535400Y-76631800D03*
X143535400Y-74091800D03*
X146075400Y-76631800D03*
X146075400Y-74091800D03*
X148615400Y-76631800D03*
X148615400Y-74091800D03*
X151155400Y-76631800D03*
X151155400Y-74091800D03*
X153695400Y-76631800D03*
X153695400Y-74091800D03*
X156235400Y-76631800D03*
X156235400Y-74091800D03*
X158775400Y-76631800D03*
X158775400Y-74091800D03*
X161315400Y-76631800D03*
X161315400Y-74091800D03*
X163855400Y-76631800D03*
X163855400Y-74091800D03*
X166395400Y-76631800D03*
X166395400Y-74091800D03*
X168935400Y-76631800D03*
X168935400Y-74091800D03*
X171475400Y-76631800D03*
X171475400Y-74091800D03*
X174015400Y-76631800D03*
X174015400Y-74091800D03*
D14*
X206756000Y-91211400D03*
D11*
X206756000Y-98831400D03*
X203581000Y-98831400D03*
D14*
X203581000Y-91211400D03*
D15*
X202184000Y-129722000D03*
X202184000Y-125222000D03*
X208684000Y-129722000D03*
X208684000Y-125222000D03*
D14*
X209042000Y-106172000D03*
X201422000Y-121412000D03*
X209042000Y-108712000D03*
X201422000Y-118872000D03*
X209042000Y-111252000D03*
X201422000Y-116332000D03*
X209042000Y-113792000D03*
X201422000Y-113792000D03*
X209042000Y-116332000D03*
X201422000Y-111252000D03*
X209042000Y-118872000D03*
X201422000Y-108712000D03*
X209042000Y-121412000D03*
D10*
X201422000Y-106172000D03*
D13*
X144018000Y-135153400D03*
X141478000Y-135153400D03*
X138938000Y-135153400D03*
X136398000Y-135153400D03*
X133858000Y-135153400D03*
X131318000Y-135153400D03*
X128778000Y-135153400D03*
D12*
X126238000Y-135153400D03*
X155676600Y-135153400D03*
D13*
X158216600Y-135153400D03*
X160756600Y-135153400D03*
X163296600Y-135153400D03*
X165836600Y-135153400D03*
X168376600Y-135153400D03*
X170916600Y-135153400D03*
X173456600Y-135153400D03*
D12*
X93980000Y-122174000D03*
D13*
X93980000Y-124714000D03*
X93980000Y-127254000D03*
X93980000Y-129794000D03*
D11*
X109855000Y-99314000D03*
X104855000Y-99314000D03*
X115015000Y-99314000D03*
X120015000Y-99314000D03*
X133985000Y-99314000D03*
X128985000Y-99314000D03*
X158115000Y-99314000D03*
X153115000Y-99314000D03*
X168275000Y-99314000D03*
X163275000Y-99314000D03*
X177245000Y-99314000D03*
X182245000Y-99314000D03*
X192405000Y-99314000D03*
X187405000Y-99314000D03*
X107315000Y-123799600D03*
X107315000Y-128799600D03*
D10*
X203835000Y-85852000D03*
D11*
X206335000Y-85852000D03*
X202692000Y-102108000D03*
X207692000Y-102108000D03*
D14*
X102870000Y-122453400D03*
X102870000Y-130073400D03*
D10*
X104775000Y-94234000D03*
D11*
X104775000Y-86614000D03*
X120015000Y-86614000D03*
X120015000Y-94234000D03*
X120015000Y-112014000D03*
X120015000Y-104394000D03*
X104775000Y-104394000D03*
D10*
X104775000Y-112014000D03*
D11*
X144145000Y-94234000D03*
X144145000Y-86614000D03*
X128905000Y-86614000D03*
D10*
X128905000Y-94234000D03*
X128905000Y-112014000D03*
D11*
X128905000Y-104394000D03*
X144145000Y-104394000D03*
X144145000Y-112014000D03*
X168275000Y-112014000D03*
X168275000Y-104394000D03*
X153035000Y-104394000D03*
D10*
X153035000Y-112014000D03*
X177165000Y-94234000D03*
D11*
X177165000Y-86614000D03*
X192405000Y-86614000D03*
X192405000Y-94234000D03*
D10*
X177165000Y-112014000D03*
D11*
X177165000Y-104394000D03*
X192405000Y-104394000D03*
X192405000Y-112014000D03*
D12*
X96520000Y-95250000D03*
D13*
X93980000Y-95250000D03*
D12*
X96520000Y-105410000D03*
D13*
X93980000Y-105410000D03*
X93980000Y-97790000D03*
D12*
X96520000Y-97790000D03*
D13*
X93980000Y-107950000D03*
D12*
X96520000Y-107950000D03*
X96520000Y-100330000D03*
D13*
X93980000Y-100330000D03*
D12*
X96520000Y-110490000D03*
D13*
X93980000Y-110490000D03*
X93980000Y-102870000D03*
D12*
X96520000Y-102870000D03*
D13*
X93980000Y-113030000D03*
D12*
X96520000Y-113030000D03*
D14*
X96774000Y-84582000D03*
X96774000Y-92202000D03*
D16*
X208280000Y-137160000D03*
X195580000Y-137160000D03*
X182880000Y-137160000D03*
X116840000Y-137160000D03*
X104140000Y-137160000D03*
X91440000Y-137160000D03*
X208280000Y-71120000D03*
X195580000Y-71120000D03*
X182880000Y-71120000D03*
X116840000Y-71120000D03*
X104140000Y-71120000D03*
X91440000Y-71120000D03*
M02*
